<?xml version="1.0" encoding="UTF-8" standalone="no" ?>
<!DOCTYPE svg PUBLIC "-//W3C//DTD SVG 1.1//EN" "http://www.w3.org/Graphics/SVG/1.1/DTD/svg11.dtd">
<svg xmlns="http://www.w3.org/2000/svg" xmlns:xlink="http://www.w3.org/1999/xlink" version="1.1" width="1280" height="1024" viewBox="0 0 1280 1024" xml:space="preserve">
<desc>Created with Fabric.js 4.4.0</desc>
<defs>
</defs>
<g transform="matrix(1 0 0 1 640 512)" id="background-logo"  >
<rect style="stroke: none; stroke-width: 0; stroke-dasharray: none; stroke-linecap: butt; stroke-dashoffset: 0; stroke-linejoin: miter; stroke-miterlimit: 4; fill: rgb(255,255,255); fill-opacity: 0; fill-rule: nonzero; opacity: 1;"  paint-order="stroke"  x="-640" y="-512" rx="0" ry="0" width="1280" height="1024" />
</g>
<g transform="matrix(1.9211538461538462 0 0 1.9211538461538462 640 375.9024350664481)" id="logo-logo"  >
<g style=""  paint-order="stroke"   >
		<g transform="matrix(0.2446435833697689 0 0 -0.24464358336976894 0 0)"  >
<path style="stroke: none; stroke-width: 1; stroke-dasharray: none; stroke-linecap: butt; stroke-dashoffset: 0; stroke-linejoin: miter; stroke-miterlimit: 10; fill: rgb(255,49,152); fill-rule: evenodd; opacity: 1;"  paint-order="stroke"  transform=" translate(-6120.691801313054, -5070.655000000001)" d="M 6804.89 4883.05 C 6786.6900000000005 4756.77 6618.89 4748.45 6518.42 4761.34 C 6580.81 4776.05 6675.17 4797.39 6683.52 4874.46 C 6688.450000000001 4919.4800000000005 6657.09 4963.25 6601.320000000001 4994.25 C 6565.030000000001 4783.8 6381.660000000001 4623.66 6160.830000000001 4623.66 C 6027.27 4623.66 5907.380000000001 4682.3 5825.4400000000005 4775.22 C 6076.55 4719.780000000001 6251.7300000000005 4827.21 6316.820000000001 4939.88 C 6382.14 4937.55 6436.360000000001 4989.56 6436.360000000001 5054.97 C 6436.360000000001 5118.56 6384.77 5170.14 6321.18 5170.14 C 6257.570000000001 5170.14 6205.9800000000005 5118.56 6205.9800000000005 5054.97 C 6205.9800000000005 5024.62 6217.740000000001 4996.9800000000005 6236.9400000000005 4976.42 C 6163.72 4891.79 6055.820000000001 4869.43 5942.3 4886.01 C 5748.46 4914.37 5538.2 5056.42 5456.26 5196.46 C 5403.74 5286.24 5453.27 5345.17 5543.05 5362.76 C 5613.77 5376.59 5700.41 5363.84 5744.46 5342.38 C 5640.83 5354.62 5532.27 5331.650000000001 5557.63 5256.54 C 5572.97 5211.2 5641.68 5152.3 5716.88 5122.55 C 5742.59 5344.97 5931.56 5517.650000000001 6160.83 5517.650000000001 C 6303.68 5517.650000000001 6430.88 5450.660000000001 6512.7 5346.34 C 6334.71 5375.110000000001 6143.889999999999 5326.54 6020.38 5199.81 C 6013.93 5200.93 6007.31 5201.5 6000.52 5201.5 C 5936.92 5201.5 5885.360000000001 5149.97 5885.360000000001 5086.36 C 5885.360000000001 5022.71 5936.920000000001 4971.16 6000.52 4971.16 C 6064.13 4971.16 6115.71 5022.71 6115.71 5086.36 C 6115.71 5106.65 6110.46 5125.71 6101.22 5142.259999999999 C 6203.400000000001 5221.61 6370.55 5232.669999999999 6513.72 5190.249999999999 C 6635.38 5154.229999999999 6826.64 5034.109999999999 6804.89 4883.049999999999 z M 6321.18 5106.63 C 6292.66 5106.63 6269.530000000001 5083.49 6269.530000000001 5054.97 C 6269.530000000001 5026.43 6292.660000000001 5003.33 6321.18 5003.33 C 6349.68 5003.33 6372.8 5026.43 6372.8 5054.97 C 6372.8 5083.490000000001 6349.68 5106.63 6321.18 5106.63 z M 6000.52 5138 C 5971.990000000001 5138 5948.89 5114.84 5948.89 5086.36 C 5948.89 5057.82 5971.990000000001 5034.7 6000.52 5034.7 C 6029.05 5034.7 6052.160000000001 5057.82 6052.160000000001 5086.36 C 6052.160000000001 5114.839999999999 6029.050000000001 5138 6000.52 5138" stroke-linecap="round" />
</g>
</g>
</g>
<g transform="matrix(1.9211538461538462 0 0 1.9211538461538462 640.8126480769231 691.7588684779612)" id="text-logo"  >
<g style=""  paint-order="stroke"   >
		<g transform="matrix(1 0 0 1 0 0)" id="text-logo-path-0"  >
<linearGradient id="SVGID_289978" gradientUnits="userSpaceOnUse" gradientTransform="matrix(1 0 0 1 3.759999999999991 -66.46)"  x1="0" y1="0" x2="0" y2="106">
<stop offset="0%" style="stop-color:rgb(48,35,174);stop-opacity: 1"/>
<stop offset="100%" style="stop-color:rgb(200,109,215);stop-opacity: 1"/>
</linearGradient>
<path style="stroke: none; stroke-width: 1; stroke-dasharray: none; stroke-linecap: butt; stroke-dashoffset: 0; stroke-linejoin: miter; stroke-miterlimit: 4; fill: url(#SVGID_289978); fill-rule: nonzero; opacity: 1;"  paint-order="stroke"  transform=" translate(-209.81, 32.76)" d="M 14.01 0 L 4.61 0 Q 3.85 0 3.85 -0.66 L 3.85 -0.66 L 3.76 -64.67 Q 3.76 -65.42 4.51 -65.42 L 4.51 -65.42 L 12.97 -65.42 L 28.86 -28.39 L 28.39 -64.67 Q 28.39 -65.42 29.23 -65.42 L 29.23 -65.42 L 38.54 -65.42 Q 39.1 -65.42 39.1 -64.67 L 39.1 -64.67 L 39.2 -0.56 Q 39.2 0 38.73 0 L 38.73 0 L 30.46 0 L 14.19 -34.59 L 14.85 -0.75 Q 14.85 0 14.01 0 L 14.01 0 Z M 64.77 0.94 L 64.77 0.94 Q 59.69 0.94 55.51 -1.65 Q 51.32 -4.23 48.79 -8.51 Q 46.25 -12.78 46.25 -17.95 L 46.25 -17.95 L 46.34 -47.75 Q 46.34 -52.92 48.83 -57.15 Q 51.32 -61.38 55.55 -63.92 Q 59.78 -66.46 64.77 -66.46 L 64.77 -66.46 Q 69.84 -66.46 73.98 -63.92 Q 78.11 -61.38 80.6 -57.15 Q 83.1 -52.92 83.1 -47.75 L 83.1 -47.75 L 83.19 -17.95 Q 83.19 -12.78 80.7 -8.51 Q 78.21 -4.23 74.03 -1.65 Q 69.84 0.94 64.77 0.94 Z M 64.77 -10.43 L 64.77 -10.43 Q 67.59 -10.43 69.7 -12.74 Q 71.82 -15.04 71.82 -17.95 L 71.82 -17.95 L 71.72 -47.75 Q 71.72 -50.85 69.75 -53.02 Q 67.77 -55.18 64.77 -55.18 L 64.77 -55.18 Q 61.85 -55.18 59.78 -53.06 Q 57.72 -50.95 57.72 -47.75 L 57.72 -47.75 L 57.72 -17.95 Q 57.72 -14.85 59.78 -12.64 Q 61.85 -10.43 64.77 -10.43 Z M 110.54 0 L 99.17 0 Q 98.79 0 98.7 -0.47 L 98.7 -0.47 L 85.73 -65.05 Q 85.63 -65.42 86.1 -65.42 L 86.1 -65.42 L 96.73 -65.42 Q 97.1 -65.42 97.2 -65.05 L 97.2 -65.05 L 104.9 -22 L 112.42 -65.05 Q 112.52 -65.42 112.89 -65.42 L 112.89 -65.42 L 123.42 -65.42 Q 123.89 -65.42 123.8 -65.05 L 123.8 -65.05 L 111.01 -0.47 Q 110.92 0 110.54 0 L 110.54 0 Z M 140.44 0 L 129.81 0 Q 129.34 0 129.34 -0.47 L 129.34 -0.47 L 129.44 -65.05 Q 129.44 -65.42 129.81 -65.42 L 129.81 -65.42 L 140.34 -65.42 Q 140.72 -65.42 140.72 -65.05 L 140.72 -65.05 L 140.81 -0.47 Q 140.81 0 140.44 0 L 140.44 0 Z M 159.33 0 L 149.93 0 Q 149.18 0 149.18 -0.66 L 149.18 -0.66 L 149.08 -64.67 Q 149.08 -65.42 149.84 -65.42 L 149.84 -65.42 L 158.3 -65.42 L 174.18 -28.39 L 173.71 -64.67 Q 173.71 -65.42 174.56 -65.42 L 174.56 -65.42 L 183.86 -65.42 Q 184.43 -65.42 184.43 -64.67 L 184.43 -64.67 L 184.52 -0.56 Q 184.52 0 184.05 0 L 184.05 0 L 175.78 0 L 159.52 -34.59 L 160.18 -0.75 Q 160.18 0 159.33 0 L 159.33 0 Z M 189.5 -0.47 L 189.5 -0.47 L 201.16 -65.05 Q 201.25 -65.42 201.63 -65.42 L 201.63 -65.42 L 215.26 -65.42 Q 215.64 -65.42 215.73 -65.05 L 215.73 -65.05 L 226.92 -0.47 Q 227.01 0 226.54 0 L 226.54 0 L 216.11 0 Q 215.73 0 215.64 -0.47 L 215.64 -0.47 L 214.6 -7.33 L 201.82 -7.33 L 200.78 -0.47 Q 200.69 0 200.31 0 L 200.31 0 L 189.88 0 Q 189.5 0 189.5 -0.47 Z M 207.93 -43.8 L 203.7 -17.39 L 212.72 -17.39 L 208.87 -43.8 L 208.3 -47.28 L 207.93 -43.8 Z M 264.99 0.94 L 264.99 0.94 Q 259.82 0.94 255.63 -1.65 Q 251.45 -4.23 249.01 -8.55 Q 246.56 -12.88 246.56 -18.24 L 246.56 -18.24 L 246.66 -47.56 Q 246.66 -52.73 249.05 -57.01 Q 251.45 -61.29 255.63 -63.87 Q 259.82 -66.46 264.99 -66.46 L 264.99 -66.46 Q 270.16 -66.46 274.29 -63.92 Q 278.43 -61.38 280.87 -57.1 Q 283.32 -52.83 283.32 -47.56 L 283.32 -47.56 L 283.32 -43.24 Q 283.32 -42.86 282.94 -42.86 L 282.94 -42.86 L 272.41 -42.86 Q 272.04 -42.86 272.04 -43.24 L 272.04 -43.24 L 272.04 -47.56 Q 272.04 -50.67 270.01 -52.92 Q 267.99 -55.18 264.99 -55.18 L 264.99 -55.18 Q 261.6 -55.18 259.82 -52.88 Q 258.03 -50.57 258.03 -47.56 L 258.03 -47.56 L 258.03 -18.24 Q 258.03 -14.76 260.05 -12.6 Q 262.07 -10.43 264.99 -10.43 L 264.99 -10.43 Q 267.99 -10.43 270.01 -12.83 Q 272.04 -15.23 272.04 -18.24 L 272.04 -18.24 L 272.04 -22.56 Q 272.04 -22.94 272.41 -22.94 L 272.41 -22.94 L 283.03 -22.94 Q 283.41 -22.94 283.41 -22.56 L 283.41 -22.56 L 283.41 -18.24 Q 283.41 -12.88 280.92 -8.55 Q 278.43 -4.23 274.29 -1.65 Q 270.16 0.94 264.99 0.94 Z M 307.66 0.94 L 307.66 0.94 Q 302.59 0.94 298.4 -1.65 Q 294.22 -4.23 291.68 -8.51 Q 289.14 -12.78 289.14 -17.95 L 289.14 -17.95 L 289.24 -47.75 Q 289.24 -52.92 291.73 -57.15 Q 294.22 -61.38 298.45 -63.92 Q 302.68 -66.46 307.66 -66.46 L 307.66 -66.46 Q 312.74 -66.46 316.87 -63.92 Q 321.01 -61.38 323.5 -57.15 Q 325.99 -52.92 325.99 -47.75 L 325.99 -47.75 L 326.09 -17.95 Q 326.09 -12.78 323.6 -8.51 Q 321.1 -4.23 316.92 -1.65 Q 312.74 0.94 307.66 0.94 Z M 307.66 -10.43 L 307.66 -10.43 Q 310.48 -10.43 312.6 -12.74 Q 314.71 -15.04 314.71 -17.95 L 314.71 -17.95 L 314.62 -47.75 Q 314.62 -50.85 312.64 -53.02 Q 310.67 -55.18 307.66 -55.18 L 307.66 -55.18 Q 304.75 -55.18 302.68 -53.06 Q 300.61 -50.95 300.61 -47.75 L 300.61 -47.75 L 300.61 -17.95 Q 300.61 -14.85 302.68 -12.64 Q 304.75 -10.43 307.66 -10.43 Z M 344.23 0 L 333.61 0 Q 333.23 0 333.23 -0.47 L 333.23 -0.47 L 333.42 -65.05 Q 333.42 -65.42 333.79 -65.42 L 333.79 -65.42 L 352.78 -65.42 Q 357.86 -65.42 362.14 -62.93 Q 366.41 -60.44 368.95 -56.26 Q 371.49 -52.08 371.49 -46.81 L 371.49 -46.81 Q 371.49 -43.33 370.45 -40.56 Q 369.42 -37.79 368.01 -35.86 Q 366.6 -33.93 365.47 -32.99 L 365.47 -32.99 Q 370.55 -27.35 370.55 -19.74 L 370.55 -19.74 L 370.64 -0.47 Q 370.64 0 370.17 0 L 370.17 0 L 359.55 0 Q 359.17 0 359.17 -0.28 L 359.17 -0.28 L 359.17 -19.74 Q 359.17 -23.12 356.78 -25.61 Q 354.38 -28.11 350.9 -28.11 L 350.9 -28.11 L 344.7 -28.11 L 344.6 -0.47 Q 344.6 0 344.23 0 L 344.23 0 Z M 344.7 -54.14 L 344.7 -39.39 L 352.78 -39.39 Q 355.7 -39.39 357.95 -41.55 Q 360.21 -43.71 360.21 -46.81 L 360.21 -46.81 Q 360.21 -49.82 358 -51.98 Q 355.79 -54.14 352.78 -54.14 L 352.78 -54.14 L 344.7 -54.14 Z M 389.54 0 L 379.01 0 Q 378.54 0 378.54 -0.47 L 378.54 -0.47 L 378.73 -65.05 Q 378.73 -65.42 379.1 -65.42 L 379.1 -65.42 L 397.15 -65.42 Q 405.8 -65.42 410.83 -60.16 Q 415.86 -54.9 415.86 -45.87 L 415.86 -45.87 Q 415.86 -39.2 413.22 -34.31 Q 410.59 -29.42 406.36 -26.79 Q 402.13 -24.16 397.15 -24.16 L 397.15 -24.16 L 390.01 -24.16 L 390.01 -0.47 Q 390.01 0 389.54 0 L 389.54 0 Z M 390.01 -54.14 L 390.01 -35.53 L 397.15 -35.53 Q 400.16 -35.53 402.37 -38.4 Q 404.58 -41.27 404.58 -45.87 L 404.58 -45.87 Q 404.58 -49.54 402.6 -51.89 Q 400.63 -54.24 397.15 -54.24 L 397.15 -54.24 L 390.01 -54.14 Z" stroke-linecap="round" />
</g>
</g>
</g>
<g transform="matrix(1.9211538461538462 0 0 1.9211538461538462 630.071142972506 815.1147104343556)" id="tagline-b7abf09b-adfd-43ef-bbb9-e8eab93f86d8-logo"  >
<g style=""  paint-order="stroke"   >
		<g transform="matrix(1 0 0 1 0 0)" id="tagline-b7abf09b-adfd-43ef-bbb9-e8eab93f86d8-logo-path-0"  >
<linearGradient id="SVGID_289979" gradientUnits="userSpaceOnUse" gradientTransform="matrix(1 0 0 1 2.3400000000000034 -24.78)"  x1="0" y1="0" x2="0" y2="37">
<stop offset="0%" style="stop-color:rgb(248,77,158);stop-opacity: 1"/>
<stop offset="100%" style="stop-color:rgb(255,116,117);stop-opacity: 1"/>
</linearGradient>
<path style="stroke: none; stroke-width: 0; stroke-dasharray: none; stroke-linecap: butt; stroke-dashoffset: 0; stroke-linejoin: miter; stroke-miterlimit: 4; fill: url(#SVGID_289979); fill-rule: nonzero; opacity: 1;"  paint-order="stroke"  transform=" translate(-163.09, 8.61)" d="M 2.34 -5.88 L 2.34 -5.88 L 2.34 -21 Q 2.34 -21.43 2.5 -21.82 Q 2.66 -22.2 2.94 -22.49 Q 3.22 -22.78 3.61 -22.95 Q 4 -23.11 4.45 -23.11 L 4.45 -23.11 L 23.32 -23.11 L 23.32 -18.92 L 6.53 -18.92 L 6.53 -5.88 Q 6.53 -5.06 6.96 -4.62 Q 7.4 -4.19 8.23 -4.19 L 8.23 -4.19 L 23.32 -4.19 L 23.32 0 L 8.2 0 Q 7.33 0 6.3 -0.31 Q 5.27 -0.61 4.39 -1.31 Q 3.51 -2.01 2.92 -3.13 Q 2.34 -4.25 2.34 -5.88 Z M 21.43 -9.44 L 8.2 -9.44 L 8.2 -13.66 L 21.43 -13.66 L 21.43 -9.44 Z M 26.2 -12.38 L 26.2 -12.38 Q 26.2 -13.78 26.7 -14.74 Q 27.2 -15.69 27.96 -16.29 Q 28.71 -16.89 29.6 -17.15 Q 30.49 -17.42 31.26 -17.42 L 31.26 -17.42 L 41.56 -17.42 L 41.56 -13.23 L 31.29 -13.23 Q 30.97 -13.23 30.78 -13.16 Q 30.6 -13.08 30.51 -12.96 Q 30.42 -12.84 30.41 -12.71 Q 30.39 -12.57 30.39 -12.44 L 30.39 -12.44 Q 30.41 -12.18 30.49 -12.04 Q 30.57 -11.89 30.69 -11.83 Q 30.81 -11.76 30.96 -11.75 Q 31.11 -11.75 31.26 -11.75 L 31.26 -11.75 L 37.75 -11.75 Q 39.36 -11.75 40.49 -11.17 Q 41.62 -10.59 42.31 -9.71 Q 43.01 -8.83 43.32 -7.8 Q 43.63 -6.77 43.63 -5.88 L 43.63 -5.88 Q 43.63 -4.8 43.36 -3.94 Q 43.09 -3.08 42.64 -2.43 Q 42.18 -1.77 41.59 -1.31 Q 40.99 -0.85 40.34 -0.56 Q 39.69 -0.27 39.02 -0.14 Q 38.35 0 37.75 0 L 37.75 0 L 26.41 0 L 26.41 -4.19 L 37.72 -4.19 Q 38.58 -4.19 39.01 -4.62 Q 39.45 -5.06 39.45 -5.88 L 39.45 -5.88 Q 39.36 -7.56 37.75 -7.56 L 37.75 -7.56 L 31.26 -7.56 Q 29.87 -7.56 28.91 -8.04 Q 27.94 -8.52 27.34 -9.25 Q 26.73 -9.97 26.47 -10.81 Q 26.2 -11.65 26.2 -12.38 Z M 50.56 -13.23 L 45.12 -13.23 L 45.12 -17.42 L 50.56 -17.42 L 50.56 -23.11 L 54.8 -23.11 L 54.8 -17.42 L 62.12 -17.42 L 62.12 -13.23 L 54.8 -13.23 L 54.8 0 L 50.56 0 L 50.56 -13.23 Z M 96.31 0 L 75.09 0 L 75.09 -7.75 Q 75.09 -8.35 75.22 -9.02 Q 75.36 -9.68 75.65 -10.34 Q 75.94 -11.01 76.4 -11.6 Q 76.86 -12.2 77.51 -12.66 Q 78.17 -13.12 79.02 -13.39 Q 79.87 -13.66 80.95 -13.66 L 80.95 -13.66 L 90.4 -13.66 Q 91.25 -13.66 91.66 -14.09 Q 92.07 -14.52 92.07 -15.34 L 92.07 -15.34 L 92.07 -17.19 Q 92.07 -18.05 91.65 -18.48 Q 91.23 -18.92 90.43 -18.92 L 90.43 -18.92 L 76.97 -18.92 L 76.97 -23.11 L 90.43 -23.11 Q 91.49 -23.11 92.35 -22.83 Q 93.2 -22.56 93.85 -22.1 Q 94.5 -21.64 94.97 -21.04 Q 95.44 -20.45 95.74 -19.8 Q 96.04 -19.14 96.17 -18.47 Q 96.31 -17.81 96.31 -17.23 L 96.31 -17.23 L 96.31 -15.34 Q 96.31 -13.71 95.72 -12.59 Q 95.13 -11.47 94.25 -10.77 Q 93.36 -10.07 92.34 -9.76 Q 91.31 -9.44 90.43 -9.44 L 90.43 -9.44 L 80.95 -9.44 Q 80.44 -9.44 80.13 -9.3 Q 79.83 -9.15 79.66 -8.91 Q 79.49 -8.67 79.41 -8.36 Q 79.33 -8.06 79.28 -7.75 L 79.28 -7.75 L 79.28 -4.19 L 96.31 -4.19 L 96.31 0 Z M 103.14 -18.92 L 99.35 -18.92 L 99.35 -23.11 L 107.35 -23.11 L 107.35 0 L 103.14 0 L 103.14 -18.92 Z M 132.84 0 L 111.62 0 L 111.62 -7.75 Q 111.62 -8.35 111.75 -9.02 Q 111.89 -9.68 112.18 -10.34 Q 112.47 -11.01 112.93 -11.6 Q 113.39 -12.2 114.04 -12.66 Q 114.69 -13.12 115.55 -13.39 Q 116.4 -13.66 117.48 -13.66 L 117.48 -13.66 L 126.92 -13.66 Q 127.78 -13.66 128.19 -14.09 Q 128.6 -14.52 128.6 -15.34 L 128.6 -15.34 L 128.6 -17.19 Q 128.6 -18.05 128.18 -18.48 Q 127.76 -18.92 126.96 -18.92 L 126.96 -18.92 L 113.5 -18.92 L 113.5 -23.11 L 126.96 -23.11 Q 128.02 -23.11 128.87 -22.83 Q 129.73 -22.56 130.38 -22.1 Q 131.03 -21.64 131.5 -21.04 Q 131.97 -20.45 132.27 -19.8 Q 132.56 -19.14 132.7 -18.47 Q 132.84 -17.81 132.84 -17.23 L 132.84 -17.23 L 132.84 -15.34 Q 132.84 -13.71 132.25 -12.59 Q 131.66 -11.47 130.78 -10.77 Q 129.89 -10.07 128.87 -9.76 Q 127.84 -9.44 126.96 -9.44 L 126.96 -9.44 L 117.48 -9.44 Q 116.97 -9.44 116.66 -9.3 Q 116.35 -9.15 116.18 -8.91 Q 116.02 -8.67 115.94 -8.36 Q 115.85 -8.06 115.81 -7.75 L 115.81 -7.75 L 115.81 -4.19 L 132.84 -4.19 L 132.84 0 Z M 152.16 0 L 136.8 0 L 136.8 -4.19 L 152.16 -4.19 Q 152.95 -4.19 153.37 -4.67 Q 153.8 -5.16 153.8 -5.88 L 153.8 -5.88 L 153.8 -7.75 Q 153.8 -8.57 153.38 -9.01 Q 152.96 -9.44 152.13 -9.44 L 152.13 -9.44 L 142.68 -9.44 Q 141.06 -9.44 139.94 -10.03 Q 138.82 -10.62 138.12 -11.5 Q 137.43 -12.39 137.12 -13.42 Q 136.8 -14.45 136.8 -15.34 L 136.8 -15.34 L 136.8 -23.11 L 156.11 -23.11 L 156.11 -18.92 L 140.99 -18.92 L 140.99 -15.34 Q 140.99 -14.5 141.43 -14.08 Q 141.86 -13.66 142.68 -13.66 L 142.68 -13.66 L 152.16 -13.66 Q 153.03 -13.66 154.06 -13.35 Q 155.09 -13.04 155.97 -12.33 Q 156.85 -11.63 157.43 -10.51 Q 158.02 -9.38 158.02 -7.75 L 158.02 -7.75 L 158.02 -5.88 Q 158.02 -5.29 157.89 -4.62 Q 157.75 -3.96 157.45 -3.31 Q 157.15 -2.66 156.69 -2.06 Q 156.23 -1.47 155.58 -1.01 Q 154.93 -0.55 154.08 -0.27 Q 153.22 0 152.16 0 L 152.16 0 Z M 163.2 2.96 L 160.25 2.96 L 161.75 -5.14 L 165.69 -5.14 L 163.2 2.96 Z M 184.29 0 L 180.1 0 L 180.1 -21 Q 180.1 -21.43 180.26 -21.82 Q 180.42 -22.2 180.7 -22.49 Q 180.98 -22.78 181.37 -22.95 Q 181.76 -23.11 182.21 -23.11 L 182.21 -23.11 L 198.11 -23.11 Q 199.51 -23.11 200.48 -22.6 Q 201.45 -22.09 202.05 -21.33 Q 202.66 -20.56 202.92 -19.67 Q 203.19 -18.79 203.19 -18.01 L 203.19 -18.01 L 203.19 -15.34 Q 203.19 -13.91 202.83 -12.78 Q 202.48 -11.65 201.88 -10.79 Q 201.27 -9.93 200.48 -9.31 Q 199.69 -8.7 198.83 -8.31 Q 197.97 -7.91 197.09 -7.73 Q 196.21 -7.56 195.44 -7.56 L 195.44 -7.56 L 204.19 0 L 197.71 0 L 188.98 -7.56 L 185.96 -7.56 L 185.96 -11.75 L 195.44 -11.75 Q 196.23 -11.81 196.88 -12.08 Q 197.53 -12.34 198.01 -12.79 Q 198.48 -13.25 198.74 -13.88 Q 199 -14.52 199 -15.34 L 199 -15.34 L 199 -17.98 Q 199 -18.34 198.91 -18.52 Q 198.82 -18.71 198.68 -18.8 Q 198.55 -18.88 198.39 -18.9 Q 198.24 -18.92 198.11 -18.92 L 198.11 -18.92 L 184.29 -18.92 L 184.29 0 Z M 206.75 -5.88 L 206.75 -5.88 L 206.75 -17.42 L 210.94 -17.42 L 210.94 -5.88 Q 210.94 -5.06 211.37 -4.62 Q 211.81 -4.19 212.66 -4.19 L 212.66 -4.19 L 220.19 -4.19 L 220.19 0 L 212.63 0 Q 211.73 0 210.71 -0.31 Q 209.68 -0.61 208.8 -1.31 Q 207.91 -2.01 207.33 -3.13 Q 206.75 -4.25 206.75 -5.88 Z M 212.63 7.56 L 212.63 3.37 L 220.19 3.37 Q 221.03 3.37 221.44 2.93 Q 221.86 2.5 221.86 1.68 L 221.86 1.68 L 221.86 -17.42 L 226.05 -17.42 L 226.05 1.68 Q 226.05 2.76 225.78 3.62 Q 225.51 4.48 225.05 5.13 Q 224.6 5.78 224.01 6.24 Q 223.41 6.7 222.76 6.99 Q 222.11 7.28 221.44 7.42 Q 220.78 7.56 220.19 7.56 L 220.19 7.56 L 212.63 7.56 Z M 229.69 -5.88 L 229.69 -5.88 L 229.69 -11.55 Q 229.69 -12.15 229.83 -12.81 Q 229.97 -13.47 230.26 -14.12 Q 230.55 -14.78 231.01 -15.37 Q 231.47 -15.97 232.12 -16.42 Q 232.77 -16.87 233.63 -17.14 Q 234.48 -17.42 235.56 -17.42 L 235.56 -17.42 L 243.12 -17.42 Q 243.71 -17.42 244.38 -17.28 Q 245.05 -17.14 245.7 -16.85 Q 246.36 -16.56 246.95 -16.11 Q 247.55 -15.65 248 -14.99 Q 248.45 -14.34 248.72 -13.49 Q 249 -12.63 249 -11.55 L 249 -11.55 L 249 1.68 Q 249 2.76 248.72 3.62 Q 248.45 4.48 248 5.13 Q 247.55 5.78 246.95 6.24 Q 246.36 6.7 245.7 6.99 Q 245.05 7.28 244.38 7.42 Q 243.71 7.56 243.12 7.56 L 243.12 7.56 L 235.56 7.56 L 235.56 3.37 L 243.12 3.37 Q 243.97 3.37 244.39 2.93 Q 244.81 2.5 244.81 1.68 L 244.81 1.68 L 244.81 -11.55 Q 244.81 -12.38 244.39 -12.8 Q 243.97 -13.23 243.12 -13.23 L 243.12 -13.23 L 235.56 -13.23 Q 234.79 -13.23 234.34 -12.75 Q 233.88 -12.28 233.88 -11.55 L 233.88 -11.55 L 233.88 -5.88 Q 233.88 -5.06 234.32 -4.62 Q 234.75 -4.19 235.59 -4.19 L 235.59 -4.19 L 243.12 -4.19 L 243.12 0 L 235.56 0 Q 234.96 0 234.3 -0.14 Q 233.64 -0.27 232.99 -0.56 Q 232.34 -0.85 231.74 -1.31 Q 231.15 -1.77 230.69 -2.43 Q 230.24 -3.08 229.97 -3.94 Q 229.69 -4.8 229.69 -5.88 Z M 252.48 -5.77 L 252.48 -5.77 L 252.48 -11.65 Q 252.48 -12.52 252.79 -13.53 Q 253.09 -14.53 253.78 -15.4 Q 254.46 -16.26 255.56 -16.84 Q 256.67 -17.42 258.25 -17.42 L 258.25 -17.42 L 265.8 -17.42 Q 266.67 -17.42 267.68 -17.11 Q 268.69 -16.81 269.55 -16.12 Q 270.41 -15.44 270.99 -14.33 Q 271.57 -13.23 271.57 -11.65 L 271.57 -11.65 Q 271.57 -10.78 271.27 -9.77 Q 270.96 -8.77 270.28 -7.9 Q 269.59 -7.04 268.49 -6.46 Q 267.38 -5.88 265.8 -5.88 L 265.8 -5.88 L 258.25 -5.88 L 258.25 -9.86 L 265.8 -9.86 Q 266.66 -9.86 267.13 -10.39 Q 267.59 -10.91 267.59 -11.68 L 267.59 -11.68 Q 267.59 -12.5 267.07 -12.97 Q 266.55 -13.44 265.8 -13.44 L 265.8 -13.44 L 258.25 -13.44 Q 257.39 -13.44 256.93 -12.91 Q 256.46 -12.39 256.46 -11.62 L 256.46 -11.62 L 256.46 -5.77 Q 256.46 -4.93 256.98 -4.46 Q 257.51 -4 258.28 -4 L 258.28 -4 L 265.8 -4 L 265.8 0 L 258.25 0 Q 257.38 0 256.37 -0.31 Q 255.36 -0.61 254.5 -1.3 Q 253.64 -1.98 253.06 -3.09 Q 252.48 -4.19 252.48 -5.77 Z M 274.3 -5.88 L 274.3 -5.88 L 274.3 -24.78 L 278.49 -24.78 L 278.49 -5.88 Q 278.49 -5.11 278.97 -4.65 Q 279.45 -4.19 280.18 -4.19 L 280.18 -4.19 L 282.05 -4.19 L 282.05 0 L 280.18 0 Q 279.28 0 278.25 -0.31 Q 277.23 -0.61 276.34 -1.31 Q 275.46 -2.01 274.88 -3.13 Q 274.3 -4.25 274.3 -5.88 Z M 299.38 -9.67 L 284.27 -9.67 L 284.27 -13.44 L 299.38 -13.44 L 299.38 -9.67 Z M 302.62 -15.34 L 302.62 -15.34 L 302.62 -17.23 Q 302.62 -17.81 302.76 -18.47 Q 302.9 -19.14 303.19 -19.8 Q 303.48 -20.45 303.94 -21.04 Q 304.41 -21.64 305.06 -22.1 Q 305.72 -22.56 306.57 -22.83 Q 307.43 -23.11 308.5 -23.11 L 308.5 -23.11 L 316.06 -23.11 Q 316.84 -23.11 317.72 -22.93 Q 318.61 -22.75 319.47 -22.36 Q 320.33 -21.96 321.12 -21.35 Q 321.91 -20.74 322.52 -19.88 Q 323.12 -19.01 323.48 -17.89 Q 323.84 -16.76 323.84 -15.34 L 323.84 -15.34 L 323.84 -7.75 Q 323.84 -6.33 323.48 -5.2 Q 323.12 -4.08 322.52 -3.21 Q 321.91 -2.35 321.12 -1.75 Q 320.33 -1.14 319.47 -0.75 Q 318.61 -0.35 317.72 -0.18 Q 316.84 0 316.06 0 L 316.06 0 L 305.6 0 L 305.6 -4.19 L 316.06 -4.19 Q 316.85 -4.25 317.5 -4.51 Q 318.16 -4.77 318.63 -5.21 Q 319.11 -5.66 319.37 -6.29 Q 319.62 -6.93 319.62 -7.75 L 319.62 -7.75 L 319.62 -9.44 L 308.5 -9.44 Q 307.91 -9.44 307.25 -9.58 Q 306.59 -9.72 305.93 -10.01 Q 305.28 -10.31 304.69 -10.77 Q 304.09 -11.23 303.63 -11.89 Q 303.17 -12.55 302.9 -13.41 Q 302.62 -14.26 302.62 -15.34 Z M 306.81 -17.23 L 306.81 -15.34 Q 306.81 -14.52 307.25 -14.09 Q 307.68 -13.66 308.54 -13.66 L 308.54 -13.66 L 319.62 -13.66 L 319.62 -15.34 Q 319.62 -16.16 319.35 -16.82 Q 319.08 -17.48 318.6 -17.95 Q 318.12 -18.42 317.47 -18.67 Q 316.82 -18.92 316.06 -18.92 L 316.06 -18.92 L 308.5 -18.92 Q 307.73 -18.92 307.27 -18.43 Q 306.81 -17.95 306.81 -17.23 L 306.81 -17.23 Z" stroke-linecap="round" />
</g>
</g>
</g>
</svg>