<?xml version="1.0" encoding="UTF-8" standalone="no" ?>
<!DOCTYPE svg PUBLIC "-//W3C//DTD SVG 1.1//EN" "http://www.w3.org/Graphics/SVG/1.1/DTD/svg11.dtd">
<svg xmlns="http://www.w3.org/2000/svg" xmlns:xlink="http://www.w3.org/1999/xlink" version="1.1" width="1280" height="1024" viewBox="0 0 1280 1024" xml:space="preserve">
<desc>Created with Fabric.js 4.4.0</desc>
<defs>
</defs>
<g transform="matrix(1 0 0 1 640 512)" id="background-logo"  >
<rect style="stroke: none; stroke-width: 0; stroke-dasharray: none; stroke-linecap: butt; stroke-dashoffset: 0; stroke-linejoin: miter; stroke-miterlimit: 4; fill: rgb(255,255,255); fill-opacity: 0; fill-rule: nonzero; opacity: 1;"  paint-order="stroke"  x="-640" y="-512" rx="0" ry="0" width="1280" height="1024" />
</g>
<g transform="matrix(1.9211538461538462 0 0 1.9211538461538462 640 402.5722464770633)" id="logo-logo"  >
<g style=""  paint-order="stroke"   >
		<g transform="matrix(1.1349242810559872 0 0 -1.1349242810559872 0 0)"  >
<linearGradient id="SVGID_64945" gradientUnits="userSpaceOnUse" gradientTransform="matrix(1 0 0 1 -178.68702024423132 -99.97549470759316)"  x1="0" y1="0" x2="0" y2="172">
<stop offset="0%" style="stop-color:rgb(252,227,138);stop-opacity: 1"/>
<stop offset="100%" style="stop-color:rgb(243,129,129);stop-opacity: 1"/>
</linearGradient>
<path style="stroke: none; stroke-width: 1; stroke-dasharray: none; stroke-linecap: butt; stroke-dashoffset: 0; stroke-linejoin: miter; stroke-miterlimit: 4; fill: url(#SVGID_64945); fill-rule: nonzero; opacity: 1;"  paint-order="stroke"  transform=" translate(86.36017919159838, 13.755247353796591)" d="M 0 0 C -2.774 -0.147 -5.078 -2.362 -5.325 -5.129 C -5.556 -7.710999999999999 -4.050000000000001 -9.971 -1.8450000000000002 -10.879999999999999 L -1.8450000000000002 -14.645 L -13.482000000000001 -14.645 L -13.482000000000001 -4.792 L -21 -4.792 C -24.734 -4.792 -27.964 -2.1159999999999997 -28.573 1.5670000000000002 C -28.789 2.866 -29.052 4.148 -29.362000000000002 5.413 C -30.253 9.048 -28.356 12.791 -24.917 14.267 L -21.764000000000003 15.62 L -17.738000000000003 8.477999999999998 L -3.687000000000003 14.355999999999998 C -2.502000000000003 13.174999999999997 -0.7980000000000032 12.514999999999999 1.0539999999999967 12.750999999999998 C 3.604999999999997 13.076999999999998 5.646999999999997 15.158999999999997 5.9309999999999965 17.715999999999998 C 6.307999999999996 21.128999999999998 3.6459999999999964 24.019 0.3089999999999966 24.019 C -2.8150000000000035 24.019 -5.349000000000004 21.485999999999997 -5.349000000000004 18.360999999999997 C -5.349000000000004 18.350999999999996 -5.347000000000004 18.339999999999996 -5.347000000000004 18.33 L -15.867000000000004 13.928999999999998 L -19.910000000000004 21.102999999999998 L -26.633000000000003 18.217 C -30.1 16.729 -34.107 17.994 -36.155 21.163 C -36.588 21.831 -37.034 22.489 -37.496 23.136 C -39.694 26.217 -39.393 30.421 -36.716 33.097 L -34.311 35.503 L -28.091 30.229 L -15.843000000000002 42.477 L -22.451 47.361999999999995 L -16.375 53.43899999999999 L -12.893 50.50999999999999 C -13.21 49.60399999999999 -13.317 48.599999999999994 -13.105 47.54299999999999 C -12.618 45.11599999999999 -10.566 43.239999999999995 -8.102 43.00999999999999 C -4.493 42.67199999999999 -1.5 45.727999999999994 -1.9430000000000005 49.35499999999999 C -2.2400000000000007 51.78199999999999 -4.132000000000001 53.77399999999999 -6.538 54.206999999999994 C -7.804 54.434999999999995 -8.998000000000001 54.22599999999999 -10.025 53.72599999999999 L -16.626 59.27799999999999 L -29.032000000000004 46.870999999999995 L -22.424000000000003 41.986 L -28.330000000000002 36.08 L -34.551 41.354 L -39.762 36.141999999999996 C -42.409 33.495 -46.592 33.11899999999999 -49.635 35.29899999999999 C -50.696 36.059999999999995 -51.788 36.78199999999999 -52.907 37.46199999999999 C -56.095 39.40099999999999 -57.382999999999996 43.38499999999999 -55.998 46.84999999999999 L -54.903 49.591999999999985 L -47.976 45.80999999999999 L -43.175 56.02999999999999 C -43.083999999999996 56.024999999999984 -42.994 56.015999999999984 -42.901999999999994 56.015999999999984 C -39.56499999999999 56.015999999999984 -36.90299999999999 58.90399999999998 -37.279999999999994 62.316999999999986 C -37.56699999999999 64.91199999999999 -39.663999999999994 67.00899999999999 -42.257999999999996 67.29499999999999 C -45.67099999999999 67.67199999999998 -48.559999999999995 65.00999999999999 -48.559999999999995 61.67299999999999 C -48.559999999999995 60.201999999999984 -47.992999999999995 58.865999999999985 -47.071999999999996 57.859999999999985 L -49.928 51.78199999999998 L -57.102 55.698999999999984 L -59.992 48.46299999999999 C -61.396 44.94999999999999 -65.137 43.018999999999984 -68.835 43.816999999999986 C -69.61 43.98399999999999 -70.393 44.133999999999986 -71.17999999999999 44.26699999999999 C -74.904 44.89199999999999 -77.651 48.08099999999999 -77.651 51.856999999999985 L -77.651 55.06899999999999 L -74.816 55.06899999999999 C -73.836 52.96899999999999 -71.61 51.566999999999986 -69.084 51.83099999999999 C -66.477 52.10399999999999 -64.36 54.203999999999986 -64.071 56.80999999999999 C -63.693 60.22399999999999 -66.355 63.11399999999999 -69.693 63.11399999999999 C -72.143 63.11399999999999 -74.223 61.55399999999999 -75.00999999999999 59.37599999999999 L -81.958 59.37599999999999 L -81.958 51.85799999999999 C -81.958 48.12499999999999 -84.634 44.89499999999999 -88.317 44.28499999999999 C -89.616 44.069999999999986 -90.898 43.80699999999999 -92.163 43.49699999999999 C -95.798 42.605999999999995 -99.541 44.501999999999995 -101.017 47.940999999999995 L -102.271 50.86299999999999 L -93.808 54.35199999999999 L -102.49700000000001 72.46499999999999 L -109.33500000000001 70.07499999999999 C -110.525 71.41099999999999 -112.33300000000001 72.18499999999999 -114.31400000000001 71.92699999999999 C -116.86000000000001 71.595 -118.894 69.52099999999999 -119.179 66.97 C -119.56 63.554 -116.897 60.661 -113.558 60.661 C -110.53800000000001 60.661 -108.07700000000001 63.03 -107.91600000000001 66.009 L -104.71400000000001 67.128 L -99.662 56.597 L -107.95100000000001 53.18 L -104.96700000000001 46.227 C -103.47900000000001 42.759 -104.74400000000001 38.751999999999995 -107.91300000000001 36.70399999999999 C -108.58100000000002 36.270999999999994 -109.239 35.82399999999999 -109.88600000000001 35.36299999999999 C -112.96700000000001 33.16499999999999 -117.171 33.465999999999994 -119.84700000000001 36.142999999999994 L -124.361 40.657 C -124.02300000000001 41.467999999999996 -123.866 42.373999999999995 -123.947 43.324999999999996 C -124.182 46.086 -126.465 48.312999999999995 -129.231 48.48 C -132.634 48.686 -135.43699999999998 45.882 -135.23 42.479 C -135.06199999999998 39.714 -132.83499999999998 37.432 -130.07399999999998 37.197 C -129.124 37.116 -128.218 37.272000000000006 -127.40599999999998 37.611000000000004 L -122.89199999999998 33.097 C -120.24499999999998 30.450000000000003 -119.86899999999999 26.267000000000003 -122.04899999999998 23.224000000000004 C -122.80999999999997 22.163000000000004 -123.53199999999998 21.071000000000005 -124.21199999999997 19.951000000000004 C -126.15099999999998 16.763000000000005 -130.13599999999997 15.476000000000004 -133.60099999999997 16.860000000000003 L -136.45799999999997 18.001000000000005 L -132.90599999999998 25.405000000000005 L -154.48 35.017 L -157.243 27.602000000000004 C -157.255 27.602000000000004 -157.267 27.604000000000003 -157.279 27.604000000000003 C -160.61599999999999 27.604000000000003 -163.278 24.715000000000003 -162.901 21.302000000000003 C -162.614 18.708000000000002 -160.51700000000002 16.611000000000004 -157.923 16.325000000000003 C -154.51 15.948000000000002 -151.622 18.610000000000003 -151.622 21.946000000000005 C -151.622 23.503000000000004 -152.251 24.912000000000006 -153.268 25.935000000000006 L -152.045 29.217000000000006 L -138.70499999999998 23.273000000000007 L -142.33299999999997 15.710000000000008 L -135.21299999999997 12.867000000000008 C -131.69999999999996 11.464000000000008 -129.76899999999998 7.722000000000008 -130.56699999999998 4.024000000000008 C -130.73399999999998 3.248000000000008 -130.884 2.466000000000008 -131.01699999999997 1.6790000000000078 C -131.64199999999997 -2.0449999999999924 -134.83099999999996 -4.791999999999993 -138.60699999999997 -4.791999999999993 L -141.81899999999996 -4.791999999999993 L -141.81899999999996 4.887000000000008 L -160.94699999999995 4.887000000000008 L -160.94699999999995 -10.322999999999993 L -167.68699999999995 -10.322999999999993 C -168.53299999999996 -7.879999999999994 -170.99999999999994 -6.193999999999994 -173.80399999999995 -6.565999999999994 C -176.34299999999993 -6.902999999999993 -178.36899999999994 -8.978999999999994 -178.65099999999995 -11.523999999999994 C -179.02999999999994 -14.938999999999993 -176.36799999999997 -17.829999999999995 -173.02999999999994 -17.829999999999995 C -170.78799999999995 -17.829999999999995 -168.85499999999993 -16.520999999999994 -167.93999999999994 -14.629999999999995 L -156.64099999999993 -14.629999999999995 L -156.64099999999993 0.58 L -146.12599999999992 0.58 L -146.12599999999992 -9.099 L -138.60899999999992 -9.099 C -134.87499999999991 -9.099 -131.64499999999992 -11.775 -131.0349999999999 -15.459 C -130.8199999999999 -16.758 -130.5569999999999 -18.04 -130.2469999999999 -19.305 C -129.3559999999999 -22.939 -131.2519999999999 -26.682 -134.6909999999999 -28.158 L -141.5329999999999 -31.094 L -138.5979999999999 -38.634 L -154.8819999999999 -44.854 C -156.0309999999999 -43.707 -157.6699999999999 -43.051 -159.45799999999988 -43.229 C -162.1969999999999 -43.5 -164.37299999999988 -45.78 -164.52899999999988 -48.528 C -164.71399999999988 -51.802 -162.1139999999999 -54.515 -158.87999999999988 -54.515 C -155.7559999999999 -54.515 -153.22299999999987 -51.981 -153.22299999999987 -48.857 C -153.22299999999987 -48.849 -153.22399999999988 -48.841 -153.22399999999988 -48.832 L -133.01299999999986 -41.11 L -136.00999999999988 -33.41 L -132.9769999999999 -32.108 C -129.50999999999988 -30.620999999999995 -125.5019999999999 -31.885999999999996 -123.4539999999999 -35.053999999999995 C -123.02099999999989 -35.72299999999999 -122.5739999999999 -36.379999999999995 -122.1129999999999 -37.026999999999994 C -119.9149999999999 -40.108 -120.2159999999999 -44.312999999999995 -122.8929999999999 -46.98799999999999 L -131.0669999999999 -55.163 C -131.8779999999999 -54.824 -132.78499999999988 -54.666999999999994 -133.7359999999999 -54.748999999999995 C -136.4969999999999 -54.983999999999995 -138.7229999999999 -57.267999999999994 -138.8899999999999 -60.032999999999994 C -139.0959999999999 -63.43599999999999 -136.2929999999999 -66.238 -132.8899999999999 -66.03099999999999 C -130.12499999999991 -65.86299999999999 -127.8419999999999 -63.63699999999999 -127.6069999999999 -60.876999999999995 C -127.5259999999999 -59.925999999999995 -127.6829999999999 -59.019999999999996 -128.0209999999999 -58.208 L -119.8469999999999 -50.033 C -117.19999999999989 -47.387 -113.0169999999999 -47.011 -109.97399999999989 -49.19 C -108.9129999999999 -49.951 -107.82099999999988 -50.672999999999995 -106.70199999999988 -51.354 C -103.51399999999988 -53.292 -102.22599999999989 -57.275999999999996 -103.60999999999989 -60.742 L -104.35599999999988 -62.61 L -112.70599999999988 -58.828 L -122.11899999999987 -77.97800000000001 L -111.93799999999987 -82.67600000000002 L -114.62899999999988 -88.67000000000002 C -114.68799999999987 -88.66800000000002 -114.74599999999988 -88.66100000000002 -114.80499999999988 -88.66100000000002 C -118.14199999999988 -88.66100000000002 -120.80399999999987 -91.55000000000001 -120.42699999999988 -94.96300000000002 C -120.14099999999988 -97.55700000000002 -118.04299999999988 -99.65300000000002 -115.44899999999988 -99.94000000000003 C -112.03599999999989 -100.31600000000003 -109.14799999999988 -97.65500000000003 -109.14799999999988 -94.31800000000003 C -109.14799999999988 -92.81200000000003 -109.73999999999988 -91.44600000000003 -110.70099999999988 -90.43300000000002 L -106.26399999999988 -80.55200000000002 L -116.30699999999987 -75.91700000000002 L -110.68199999999987 -64.47300000000001 L -102.02799999999988 -68.39200000000001 L -99.61699999999988 -62.35400000000001 C -98.21299999999988 -58.84200000000001 -94.47199999999988 -56.91000000000001 -90.77299999999988 -57.70800000000001 C -89.99799999999988 -57.87600000000001 -89.21599999999988 -58.02500000000001 -88.42899999999989 -58.158000000000015 C -84.7039999999999 -58.783000000000015 -81.95799999999988 -61.97300000000001 -81.95799999999988 -65.74900000000001 L -81.95799999999988 -73.26800000000001 L -72.62399999999988 -73.26800000000001 L -72.62399999999988 -80.53100000000002 C -74.82899999999988 -81.44000000000003 -76.33599999999988 -83.70100000000002 -76.10399999999989 -86.28200000000002 C -75.85699999999989 -89.05000000000003 -73.55399999999989 -91.26400000000002 -70.77999999999989 -91.41100000000003 C -67.51499999999989 -91.58500000000004 -64.81299999999989 -88.98900000000003 -64.81299999999989 -85.76300000000003 C -64.81299999999989 -83.40000000000003 -66.26199999999989 -81.37900000000003 -68.3169999999999 -80.53100000000003 L -68.3169999999999 -68.96100000000004 L -77.6509999999999 -68.96100000000004 L -77.6509999999999 -65.75000000000004 C -77.6509999999999 -62.017000000000046 -74.9749999999999 -58.786000000000044 -71.2909999999999 -58.17700000000004 C -69.99199999999989 -57.96200000000004 -68.7099999999999 -57.69800000000004 -67.4449999999999 -57.389000000000046 C -63.81099999999989 -56.49700000000004 -60.066999999999894 -58.39400000000005 -58.59199999999989 -61.83300000000005 L -55.56199999999989 -68.89400000000005 L -47.79299999999989 -64.85300000000005 C -46.748999999999896 -65.71300000000005 -45.391999999999896 -66.20600000000005 -43.916999999999895 -66.13500000000005 C -41.120999999999896 -65.99900000000005 -38.79599999999989 -63.76300000000005 -38.5619999999999 -60.97300000000005 C -38.2739999999999 -57.54200000000005 -41.0499999999999 -54.68400000000005 -44.4519999999999 -54.83200000000005 C -46.8169999999999 -54.93600000000005 -48.873999999999896 -56.56800000000005 -49.5959999999999 -58.82300000000005 C -49.843999999999895 -59.59900000000005 -49.8969999999999 -60.34600000000005 -49.8269999999999 -61.05600000000005 L -53.4339999999999 -62.932000000000045 L -54.6409999999999 -60.118000000000045 C -56.1289999999999 -56.65000000000005 -54.8639999999999 -52.64400000000005 -51.6959999999999 -50.59500000000004 C -51.0269999999999 -50.16200000000004 -50.3689999999999 -49.716000000000044 -49.7229999999999 -49.25400000000004 C -46.641999999999896 -47.05600000000004 -42.4379999999999 -47.35700000000004 -39.760999999999896 -50.03400000000004 L -34.449999999999896 -55.34600000000004 L -27.842999999999897 -48.90500000000004 L -19.453999999999898 -57.80300000000004 L -27.526999999999898 -65.01800000000004 L -18.8539999999999 -74.80900000000004 C -19.3609999999999 -75.84100000000004 -19.5729999999999 -77.04400000000004 -19.3429999999999 -78.31600000000005 C -18.9069999999999 -80.72900000000004 -16.9049999999999 -82.62000000000005 -14.4719999999999 -82.90900000000005 C -10.8439999999999 -83.34100000000005 -7.7939999999999 -80.33600000000006 -8.1479999999999 -76.72200000000005 C -8.389999999999901 -74.26500000000006 -10.2669999999999 -72.22400000000005 -12.6879999999999 -71.74300000000005 C -13.7359999999999 -71.53500000000005 -14.7319999999999 -71.64100000000005 -15.631999999999898 -71.95200000000006 L -21.4609999999999 -65.37100000000005 L -13.2869999999999 -58.06600000000005 L -27.7139999999999 -42.76600000000005 L -34.4109999999999 -49.29400000000005 L -36.7169999999999 -46.98800000000005 C -39.3629999999999 -44.34100000000005 -39.7389999999999 -40.15800000000005 -37.5599999999999 -37.11500000000005 C -36.7989999999999 -36.05400000000005 -36.076999999999906 -34.96200000000005 -35.3959999999999 -33.84300000000005 C -33.4579999999999 -30.655000000000054 -29.4739999999999 -29.367000000000054 -26.007999999999903 -30.752000000000052 L -25.867999999999903 -30.808000000000053 C -25.832999999999902 -34.11900000000006 -22.954999999999902 -36.75000000000006 -19.556999999999903 -36.367000000000054 C -16.9689999999999 -36.07600000000006 -14.879999999999903 -33.983000000000054 -14.592999999999902 -31.395000000000053 C -14.212999999999901 -27.980000000000054 -16.8759999999999 -25.090000000000053 -20.213999999999903 -25.090000000000053 C -21.8059999999999 -25.090000000000053 -23.2419999999999 -25.750000000000053 -24.269999999999904 -26.809000000000054 L -24.395999999999905 -26.758000000000056 C -27.907999999999905 -25.354000000000056 -29.839999999999904 -21.613000000000056 -29.041999999999906 -17.915000000000056 C -28.873999999999906 -17.140000000000057 -28.724999999999905 -16.358000000000057 -28.591999999999906 -15.570000000000055 C -27.966999999999906 -11.846000000000055 -24.776999999999905 -9.099000000000055 -21.001999999999907 -9.099000000000055 L -17.788999999999906 -9.099000000000055 L -17.788999999999906 -18.951000000000057 L 2.462 -18.951000000000057 L 2.462 -10.880000000000058 C 4.518000000000001 -10.033000000000058 5.966 -8.011000000000058 5.966 -5.649000000000058 C 5.966 -2.422 3.265 0.173 0 0" stroke-linecap="round" />
</g>
</g>
</g>
<g transform="matrix(1.9211538461538462 0 0 1.9211538461538462 640.8595474947417 671.0785154404955)" id="text-logo"  >
<g style=""  paint-order="stroke"   >
		<g transform="matrix(1 0 0 1 0 0)" id="text-logo-path-0"  >
<path style="stroke: none; stroke-width: 0; stroke-dasharray: none; stroke-linecap: butt; stroke-dashoffset: 0; stroke-linejoin: miter; stroke-miterlimit: 4; fill: rgb(255,255,255); fill-rule: nonzero; opacity: 1;"  paint-order="stroke"  transform=" translate(-271.655, 17.805)" d="M 2.69 -28.87 L 2.69 0 L 10.39 0 L 10.39 -29.54 C 10.39 -30.1 10.88 -30.64 11.44 -30.64 L 14.42 -30.64 C 14.99 -30.64 15.44 -30.1 15.44 -29.54 L 15.44 0 L 23.15 0 L 23.15 -29.54 C 23.15 -30.1 23.63 -30.64 24.2 -30.64 L 27.18 -30.64 C 27.74 -30.64 28.23 -30.1 28.23 -29.54 L 28.23 0 L 35.91 0 L 35.91 -28.87 C 35.91 -33.73 33.62 -36.15 29.08 -36.15 L 25.03 -36.15 C 22.26 -36.12 20.36 -35.23 19.31 -33.49 C 18.18 -35.26 16.27 -36.15 13.59 -36.15 L 9.51 -36.15 C 4.97 -36.12 2.69 -33.7 2.69 -28.87 Z M 57.89 0 L 65.6 0 L 65.6 -35.58 L 57.89 -35.58 Z M 88.01 0 L 95.72 0 L 95.72 -14.07 L 98.19 -14.07 L 103.48 0 L 111.35 0 L 104.12 -19.26 L 110.19 -35.58 L 103.16 -35.58 L 97.6 -20.68 L 95.72 -20.68 L 95.72 -35.58 L 88.01 -35.58 Z M 130.67 0 L 138.38 0 L 138.38 -14.07 L 140.85 -14.07 L 146.14 0 L 154.01 0 L 146.79 -19.26 L 152.86 -35.58 L 145.82 -35.58 L 140.26 -20.68 L 138.38 -20.68 L 138.38 -35.58 L 130.67 -35.58 Z M 173.34 0 L 189.58 0 L 189.58 -6.39 L 181.04 -6.39 L 181.04 -14.9 L 189.02 -14.9 L 189.02 -20.95 L 181.04 -20.95 L 181.04 -29.33 L 189.58 -29.33 L 189.58 -35.58 L 173.34 -35.58 Z M 210.73 0 L 218.44 0 L 218.44 -35.58 L 210.73 -35.58 Z M 268.67 -28.87 L 268.67 -6.71 C 268.67 -1.88 270.95 0.54 275.49 0.54 L 282.42 0.54 C 286.95 0.54 289.24 -1.88 289.24 -6.71 L 289.24 -11.33 L 281.93 -11.33 L 281.93 -5.83 C 281.93 -5.26 281.45 -4.73 280.89 -4.73 L 277.42 -4.73 C 276.86 -4.73 276.37 -5.26 276.37 -5.83 L 276.37 -29.81 C 276.37 -30.37 276.86 -30.91 277.42 -30.91 L 280.89 -30.91 C 281.45 -30.91 281.93 -30.37 281.93 -29.81 L 281.93 -25.51 L 289.24 -25.51 L 289.24 -28.87 C 289.24 -33.73 286.95 -36.15 282.42 -36.15 L 275.49 -36.15 C 270.95 -36.12 268.67 -33.7 268.67 -28.87 Z M 310.55 -28.87 L 310.55 -6.71 C 310.55 -1.88 312.83 0.54 317.37 0.54 L 324.7 0.54 C 329.24 0.54 331.52 -1.88 331.52 -6.71 L 331.52 -28.87 C 331.52 -33.7 329.24 -36.12 324.7 -36.15 L 317.37 -36.15 C 312.83 -36.12 310.55 -33.7 310.55 -28.87 Z M 318.26 -5.83 L 318.26 -29.81 C 318.26 -30.37 318.74 -30.91 319.3 -30.91 L 322.77 -30.91 C 323.33 -30.91 323.82 -30.37 323.82 -29.81 L 323.82 -5.83 C 323.82 -5.26 323.33 -4.73 322.77 -4.73 L 319.3 -4.73 C 318.74 -4.73 318.26 -5.26 318.26 -5.83 Z M 353.83 -28.87 L 353.83 0 L 361.54 0 L 361.54 -29.54 C 361.54 -30.1 362.02 -30.64 362.58 -30.64 L 365.57 -30.64 C 366.13 -30.64 366.59 -30.1 366.59 -29.54 L 366.59 0 L 374.29 0 L 374.29 -29.54 C 374.29 -30.1 374.78 -30.64 375.34 -30.64 L 378.32 -30.64 C 378.89 -30.64 379.37 -30.1 379.37 -29.54 L 379.37 0 L 387.05 0 L 387.05 -28.87 C 387.05 -33.73 384.77 -36.15 380.23 -36.15 L 376.17 -36.15 C 373.41 -36.12 371.5 -35.23 370.45 -33.49 C 369.33 -35.26 367.42 -36.15 364.73 -36.15 L 360.65 -36.15 C 356.11 -36.12 353.83 -33.7 353.83 -28.87 Z M 409.03 0 L 423.19 0 C 427.72 0 430.01 -2.42 430.01 -7.25 L 430.01 -13.64 C 430.01 -16.68 428.83 -18.64 426.44 -19.47 C 428.53 -20.28 429.58 -22.16 429.55 -25.08 L 429.55 -28.33 C 429.55 -33.17 427.27 -35.58 422.73 -35.58 L 409.03 -35.58 Z M 421.25 -5.29 L 416.74 -5.29 L 416.74 -15.44 L 421.25 -15.44 C 421.82 -15.44 422.3 -14.93 422.3 -14.37 L 422.3 -6.39 C 422.3 -5.83 421.82 -5.29 421.25 -5.29 Z M 420.82 -20.84 L 416.74 -20.84 L 416.74 -30.35 L 420.82 -30.35 C 421.39 -30.35 421.87 -29.84 421.87 -29.27 L 421.87 -21.94 C 421.87 -21.38 421.39 -20.84 420.82 -20.84 Z M 451.96 0 L 459.67 0 L 459.67 -35.58 L 451.96 -35.58 Z M 482.03 -28.87 L 482.03 0 L 489.74 0 L 489.74 -29.54 C 489.74 -30.1 490.22 -30.64 490.79 -30.64 L 493.77 -30.64 C 494.33 -30.64 494.79 -30.1 494.79 -29.54 L 494.79 0 L 502.5 0 L 502.5 -28.87 C 502.5 -33.73 500.21 -36.15 495.67 -36.15 L 488.85 -36.15 C 484.31 -36.12 482.03 -33.7 482.03 -28.87 Z M 524.37 0 L 540.62 0 L 540.62 -6.39 L 532.08 -6.39 L 532.08 -14.9 L 540.06 -14.9 L 540.06 -20.95 L 532.08 -20.95 L 532.08 -29.33 L 540.62 -29.33 L 540.62 -35.58 L 524.37 -35.58 Z" stroke-linecap="round" />
</g>
</g>
</g>
<g transform="matrix(1.9211538461538462 0 0 1.9211538461538462 625.3742557692308 764.4214136125984)" id="tagline-6c4196fe-aeb7-4634-9677-8b218b5be9d3-logo"  >
<g style=""  paint-order="stroke"   >
		<g transform="matrix(1 0 0 1 0 0)" id="tagline-6c4196fe-aeb7-4634-9677-8b218b5be9d3-logo-path-0"  >
<linearGradient id="SVGID_64951" gradientUnits="userSpaceOnUse" gradientTransform="matrix(1 0 0 1 0.9199999999999875 -16.33)"  x1="0" y1="0" x2="0" y2="26">
<stop offset="0%" style="stop-color:rgb(252,227,138);stop-opacity: 1"/>
<stop offset="100%" style="stop-color:rgb(243,129,129);stop-opacity: 1"/>
</linearGradient>
<path style="stroke: none; stroke-width: 0; stroke-dasharray: none; stroke-linecap: butt; stroke-dashoffset: 0; stroke-linejoin: miter; stroke-miterlimit: 4; fill: url(#SVGID_64951); fill-rule: nonzero; opacity: 1;"  paint-order="stroke"  transform=" translate(-182.045, 8.049999999999999)" d="M 0.92 0 L 2.53 0 L 3.45 -4.37 L 7.57 -4.37 L 8.49 0 L 10.1 0 L 6.72 -16.1 L 4.3 -16.1 Z M 3.75 -5.75 L 5.52 -14.19 L 7.29 -5.75 Z M 26.4 -16.1 L 22.95 -16.1 L 22.95 0 L 26.4 0 C 28.59 0 30.31 -0.64 30.31 -3.68 L 30.31 -12.42 C 30.31 -15.5 28.59 -16.1 26.4 -16.1 Z M 24.56 -1.38 L 24.56 -14.72 L 26.4 -14.72 C 27.81 -14.72 28.7 -14.28 28.7 -12.19 L 28.7 -3.91 C 28.7 -1.82 27.81 -1.38 26.4 -1.38 Z M 42.83 -16.1 L 46.21 0 L 48.62 0 L 52 -16.1 L 50.39 -16.1 L 47.43 -1.91 L 44.44 -16.1 Z M 63.02 0 L 64.63 0 L 65.55 -4.37 L 69.67 -4.37 L 70.59 0 L 72.2 0 L 68.82 -16.1 L 66.4 -16.1 Z M 65.85 -5.75 L 67.62 -14.19 L 69.39 -5.75 Z M 85.05 -16.1 L 85.05 0 L 86.66 0 L 86.66 -12.19 L 91.68 0 L 93.29 0 L 93.29 -16.1 L 91.68 -16.1 L 91.68 -3.91 L 86.66 -16.1 Z M 113.39 -12.19 L 113.39 -9.89 L 115 -9.89 L 115 -12.65 C 115 -15.73 113.28 -16.33 111.09 -16.33 C 108.93 -16.33 107.18 -15.73 107.18 -12.65 L 107.18 -3.45 C 107.18 -0.37 108.93 0.23 111.09 0.23 C 113.28 0.23 115 -0.41 115 -3.45 L 115 -4.42 L 113.39 -4.42 L 113.39 -3.91 C 113.39 -1.82 112.49 -1.38 111.09 -1.38 C 109.69 -1.38 108.79 -1.82 108.79 -3.91 L 108.79 -12.19 C 108.79 -14.28 109.69 -14.72 111.09 -14.72 C 112.49 -14.72 113.39 -14.28 113.39 -12.19 Z M 128.66 -16.1 L 128.66 0 L 135.56 0 L 135.56 -1.38 L 130.27 -1.38 L 130.27 -7.36 L 134.18 -7.36 L 134.18 -8.74 L 130.27 -8.74 L 130.27 -14.72 L 135.33 -14.72 L 135.33 -16.1 Z M 152.1 -16.1 L 148.65 -16.1 L 148.65 0 L 152.1 0 C 154.28 0 156.01 -0.64 156.01 -3.68 L 156.01 -12.42 C 156.01 -15.5 154.28 -16.1 152.1 -16.1 Z M 150.26 -1.38 L 150.26 -14.72 L 152.1 -14.72 C 153.5 -14.72 154.4 -14.28 154.4 -12.19 L 154.4 -3.91 C 154.4 -1.82 153.5 -1.38 152.1 -1.38 Z M 182.76 0 L 184.37 0 L 185.29 -4.37 L 189.41 -4.37 L 190.33 0 L 191.94 0 L 188.55 -16.1 L 186.14 -16.1 Z M 185.59 -5.75 L 187.36 -14.19 L 189.13 -5.75 Z M 204.79 0 L 206.4 0 L 206.4 -5.98 L 208.01 -5.98 L 210.89 0 L 212.61 0 L 209.67 -6.16 C 211 -6.51 211.92 -7.45 211.92 -9.66 L 211.92 -12.42 C 211.92 -15.5 210.2 -16.1 208.01 -16.1 L 204.79 -16.1 Z M 206.4 -7.36 L 206.4 -14.72 L 208.01 -14.72 C 209.42 -14.72 210.31 -14.28 210.31 -12.19 L 210.31 -9.89 C 210.31 -7.8 209.42 -7.36 208.01 -7.36 Z M 235.54 -16.1 L 233.24 -16.1 L 230.51 -6.26 L 227.77 -16.1 L 225.47 -16.1 L 225.47 0 L 227.08 0 L 227.08 -12.79 L 229.68 -3.45 L 231.33 -3.45 L 233.93 -12.79 L 233.93 0 L 235.54 0 Z M 248.4 0 L 250.01 0 L 250.93 -4.37 L 255.05 -4.37 L 255.97 0 L 257.58 0 L 254.2 -16.1 L 251.78 -16.1 Z M 251.23 -5.75 L 253 -14.19 L 254.77 -5.75 Z M 280.51 -16.1 L 278.21 -16.1 L 275.47 -6.26 L 272.73 -16.1 L 270.43 -16.1 L 270.43 0 L 272.04 0 L 272.04 -12.79 L 274.64 -3.45 L 276.3 -3.45 L 278.9 -12.79 L 278.9 0 L 280.51 0 Z M 294.75 -16.1 L 294.75 0 L 301.64 0 L 301.64 -1.38 L 296.36 -1.38 L 296.36 -7.36 L 300.26 -7.36 L 300.26 -8.74 L 296.36 -8.74 L 296.36 -14.72 L 301.42 -14.72 L 301.42 -16.1 Z M 314.73 -16.1 L 314.73 0 L 316.34 0 L 316.34 -12.19 L 321.36 0 L 322.97 0 L 322.97 -16.1 L 321.36 -16.1 L 321.36 -3.91 L 316.34 -16.1 Z M 343.18 -16.1 L 335.59 -16.1 L 335.59 -14.72 L 338.58 -14.72 L 338.58 0 L 340.19 0 L 340.19 -14.72 L 343.18 -14.72 Z M 359.26 0.23 C 361.42 0.23 363.17 -0.37 363.17 -3.45 L 363.17 -3.91 C 363.17 -7.61 356.96 -9.98 356.96 -12.19 C 356.96 -14.28 357.86 -14.72 359.26 -14.72 C 360.66 -14.72 361.56 -14.28 361.56 -12.19 L 361.56 -11.27 L 363.17 -11.27 L 363.17 -12.65 C 363.17 -15.73 361.45 -16.33 359.26 -16.33 C 357.1 -16.33 355.35 -15.73 355.35 -12.65 L 355.35 -12.19 C 355.35 -8.88 361.56 -6.51 361.56 -3.91 C 361.56 -1.82 360.66 -1.38 359.26 -1.38 C 357.86 -1.38 356.96 -1.82 356.96 -3.91 L 356.96 -5.11 L 355.35 -5.11 L 355.35 -3.45 C 355.35 -0.41 357.08 0.23 359.26 0.23 Z" stroke-linecap="round" />
</g>
</g>
</g>
<g transform="matrix(0.556966179333204 0 0 0.556966179333204 655.2780067792917 387.9810207340806)" id="shape-260a12a9-8d5a-4631-9564-96935131a90a"  >
<g style=""  paint-order="stroke"   >
		<g transform="matrix(1 0 0 1 0 0)" id="path-11"  >
<circle style="stroke: none; stroke-width: 1; stroke-dasharray: none; stroke-linecap: butt; stroke-dashoffset: 0; stroke-linejoin: miter; stroke-miterlimit: 4; fill: rgb(13,12,12); fill-rule: nonzero; opacity: 1;"  paint-order="stroke"  cx="0" cy="0" r="131.73" />
</g>
		<g transform="matrix(1 0 0 1 -0.0049999999999954525 -0.0049999999999954525)" id="path-10"  >
<linearGradient id="SVGID_path-10_00000034786836647152972550000000431036134681227663__34_64949" gradientUnits="userSpaceOnUse" gradientTransform="matrix(1 0 0 1 0 0)"  x1="129.8366" y1="266.1225" x2="133.4592" y2="8.3112">
<stop offset="0.00006185996%" style="stop-color:rgb(43,43,43);stop-opacity: 1"/>
<stop offset="100%" style="stop-color:rgb(112,112,112);stop-opacity: 1"/>
</linearGradient>
<path style="stroke: none; stroke-width: 1; stroke-dasharray: none; stroke-linecap: butt; stroke-dashoffset: 0; stroke-linejoin: miter; stroke-miterlimit: 4; fill: url(#SVGID_path-10_00000034786836647152972550000000431036134681227663__34_64949); fill-rule: nonzero; opacity: 1;"  paint-order="stroke"  transform=" translate(-131.725, -131.725)" d="M 131.73 5.79 C 62.17 5.79 5.79 62.17 5.79 131.73 C 5.79 201.27999999999997 62.17 257.65999999999997 131.73 257.65999999999997 C 201.27999999999997 257.65999999999997 257.65999999999997 201.27999999999997 257.65999999999997 131.72999999999996 C 257.66 62.17 201.28 5.79 131.73 5.79 z M 131.73 237.3 C 73.41999999999999 237.3 26.14999999999999 190.03 26.14999999999999 131.72000000000003 C 26.14999999999999 73.41000000000003 73.41999999999999 26.14000000000003 131.73 26.14000000000003 C 190.04 26.14000000000003 237.31 73.41000000000003 237.31 131.72000000000003 C 237.3 190.03 190.03 237.3 131.73 237.3 z" stroke-linecap="round" />
</g>
		<g transform="matrix(1 0 0 1 -0.005000000000023874 0)" id="path-09"  >
<linearGradient id="SVGID_path-09_00000106147656295378873460000014036470093018213789__35_64950" gradientUnits="userSpaceOnUse" gradientTransform="matrix(1 0 0 1 0 0)"  x1="131.725" y1="63.5325" x2="131.725" y2="202.8715">
<stop offset="0.00003092998%" style="stop-color:rgb(38,38,38);stop-opacity: 1"/>
<stop offset="100%" style="stop-color:rgb(61,61,61);stop-opacity: 1"/>
</linearGradient>
<path style="stroke: none; stroke-width: 1; stroke-dasharray: none; stroke-linecap: butt; stroke-dashoffset: 0; stroke-linejoin: miter; stroke-miterlimit: 4; fill: url(#SVGID_path-09_00000106147656295378873460000014036470093018213789__35_64950); fill-rule: nonzero; opacity: 1;"  paint-order="stroke"  transform=" translate(-131.72499999999997, -131.73)" d="M 131.73 58.1 C 91.05999999999999 58.1 58.08999999999999 91.06 58.08999999999999 131.73 C 58.08999999999999 172.39 91.05999999999999 205.35999999999999 131.73 205.35999999999999 C 172.39 205.35999999999999 205.35999999999999 172.39 205.35999999999999 131.73 C 205.36 91.06 172.39 58.1 131.73 58.1 z M 131.73 176.91 C 106.77999999999999 176.91 86.54999999999998 156.68 86.54999999999998 131.73 C 86.54999999999998 106.77999999999999 106.77999999999999 86.54999999999998 131.73 86.54999999999998 C 156.67999999999998 86.54999999999998 176.91 106.77999999999999 176.91 131.73 C 176.91 156.68 156.68 176.91 131.73 176.91 z" stroke-linecap="round" />
</g>
		<g transform="matrix(1 0 0 1 -36.819999999999986 -36.815)" id="path-08"  >
<path style="stroke: none; stroke-width: 1; stroke-dasharray: none; stroke-linecap: butt; stroke-dashoffset: 0; stroke-linejoin: miter; stroke-miterlimit: 4; fill: rgb(255,255,255); fill-rule: nonzero; opacity: 0.2;"  paint-order="stroke"  transform=" translate(-94.91, -94.91499999999999)" d="M 86.55 131.73 C 86.55 106.77999999999999 106.78 86.54999999999998 131.73 86.54999999999998 C 131.73 86.54999999999998 131.73 86.54999999999998 131.73 86.54999999999998 L 131.73 58.1 C 91.05999999999999 58.1 58.08999999999999 91.06 58.08999999999999 131.73 L 86.55 131.73 C 86.55 131.73 86.55 131.73 86.55 131.73 z" stroke-linecap="round" />
</g>
		<g transform="matrix(1 0 0 1 -9.199999999999974 0.00819809742012012)" id="path-07"  >
<path style="stroke: none; stroke-width: 1; stroke-dasharray: none; stroke-linecap: butt; stroke-dashoffset: 0; stroke-linejoin: miter; stroke-miterlimit: 4; fill: rgb(133,133,130); fill-rule: nonzero; opacity: 1;"  paint-order="stroke"  transform=" translate(-122.53000000000002, -131.7381980974201)" d="M 131.73 40.74 C 81.55999999999999 40.74 40.749999999999986 81.55000000000001 40.749999999999986 131.72 C 40.749999999999986 181.89 81.55999999999999 222.7 131.73 222.7 C 181.89999999999998 222.7 222.70999999999998 181.89 222.70999999999998 131.71999999999997 C 222.70999999999998 81.54999999999995 181.89 40.74 131.73 40.74 z M 131.73 220.7 C 82.66999999999999 220.7 42.75999999999999 180.79 42.75999999999999 131.73 C 42.75999999999999 82.66999999999999 82.66999999999999 42.75999999999999 131.73 42.75999999999999 C 180.79 42.75999999999999 220.7 82.66999999999999 220.7 131.73 C 220.7 180.79 180.78 220.7 131.73 220.7 z M 131.73 36.73 C 79.35 36.73 36.72999999999999 79.35 36.72999999999999 131.73 C 36.72999999999999 184.10999999999999 79.35 226.73 131.73 226.73 C 184.10999999999999 226.73 226.73 184.10999999999999 226.73 131.73 C 226.73 79.35 184.11 36.73 131.73 36.73 z M 131.73 224.71 C 80.45999999999998 224.71 38.749999999999986 183 38.749999999999986 131.73000000000002 C 38.749999999999986 80.46000000000004 80.45999999999998 38.750000000000014 131.73 38.750000000000014 C 183 38.750000000000014 224.70999999999998 80.46000000000001 224.70999999999998 131.73000000000002 C 224.70999999999998 183.00000000000003 183 224.71 131.73 224.71 z M 131.73 48.77 C 85.98999999999998 48.77 48.769999999999996 85.98 48.769999999999996 131.73 C 48.769999999999996 177.47999999999996 85.97999999999999 214.69 131.73 214.69 C 177.48 214.69 214.69 177.48 214.69 131.73000000000002 C 214.69 85.98000000000005 177.47 48.77 131.73 48.77 z M 131.73 212.79 C 86.95999999999998 212.79 50.66 176.5 50.66 131.72 C 50.66 86.94999999999999 86.94999999999999 50.650000000000006 131.73 50.650000000000006 C 176.5 50.650000000000006 212.79999999999998 86.94 212.79999999999998 131.72 C 212.79 176.5 176.5 212.79 131.73 212.79 z M 131.73 29.11 C 75.05999999999999 29.11 29.11999999999999 75.05 29.11999999999999 131.72 C 29.11999999999999 188.39 75.05999999999999 234.32999999999998 131.73 234.32999999999998 C 188.39999999999998 234.32999999999998 234.33999999999997 188.39 234.33999999999997 131.71999999999997 C 234.34 75.05 188.4 29.11 131.73 29.11 z M 131.73 232.73 C 76.02999999999999 232.73 30.719999999999985 187.42 30.719999999999985 131.71999999999997 C 30.719999999999985 76.01999999999995 76.03 30.72 131.73 30.72 C 187.42999999999998 30.72 232.74 76.03 232.74 131.73000000000002 C 232.74 187.43000000000004 187.42 232.73 131.73 232.73 z M 131.73 32.72 C 77.13999999999999 32.72 32.719999999999985 77.14 32.719999999999985 131.73000000000002 C 32.719999999999985 186.32000000000005 77.13999999999999 230.74 131.73 230.74 C 186.32 230.74 230.74 186.32 230.74 131.73000000000002 C 230.74 77.14000000000004 186.32 32.72 131.73 32.72 z M 131.73 228.72 C 78.25 228.72 34.72999999999999 185.21 34.72999999999999 131.72 C 34.72999999999999 78.22999999999999 78.23999999999998 34.72 131.73 34.72 C 185.22 34.72 228.73 78.22999999999999 228.73 131.72 C 228.73 185.21 185.21 228.72 131.73 228.72 z M 131.73 44.76 C 83.76999999999998 44.76 44.75999999999999 83.77 44.75999999999999 131.73 C 44.75999999999999 179.69 83.76999999999998 218.7 131.73 218.7 C 179.69 218.7 218.7 179.69 218.7 131.73 C 218.7 83.76999999999998 179.68 44.76 131.73 44.76 z M 131.73 216.68 C 84.88 216.68 46.769999999999996 178.57 46.769999999999996 131.72000000000003 C 46.769999999999996 84.87000000000006 84.88 46.76000000000003 131.73 46.76000000000003 C 178.57999999999998 46.76000000000003 216.69 84.87000000000003 216.69 131.72000000000003 C 216.69 178.57000000000002 178.57 216.68 131.73 216.68 z M 131.73 86.55 L 131.73 78.85 C 160.92999999999998 78.85 184.60999999999999 102.52 184.60999999999999 131.73 L 176.91 131.73 L 176.91 131.73 C 176.91 106.77 156.68 86.55 131.73 86.55 z M 239.27 197.27 C 203.07 256.67 125.58000000000001 275.47 66.19 239.26000000000002 L 76.78 221.88000000000002 C 92.79 231.66000000000003 111.6 237.29000000000002 131.73000000000002 237.29000000000002 C 169.91000000000003 237.29000000000002 203.35000000000002 217.03000000000003 221.89000000000001 186.67000000000002 L 239.27 197.27 z M 26.15 131.73 C 26.15 73.41999999999999 73.42 26.14999999999999 131.73 26.14999999999999 C 131.73 26.14999999999999 131.73 26.14999999999999 131.73 26.14999999999999 L 131.73 5.79 C 62.17 5.79 5.79 62.17 5.79 131.73 L 26.15 131.73 C 26.15 131.73 26.15 131.73 26.15 131.73 z" stroke-linecap="round" />
</g>
		<g transform="matrix(1 0 0 1 2.842171e-14 -44.634999999999984)" id="path-06_00000018207507184437415430000013685426454346153373_"  >
<path style="stroke: none; stroke-width: 1; stroke-dasharray: none; stroke-linecap: butt; stroke-dashoffset: 0; stroke-linejoin: miter; stroke-miterlimit: 4; fill: rgb(66,66,65); fill-rule: nonzero; opacity: 1;"  paint-order="stroke"  transform=" translate(-131.73000000000002, -87.095)" d="M 207.74 89.52 C 205.67000000000002 87.22999999999999 203.49 85.03999999999999 201.22 82.94999999999999 C 185.82999999999998 61.08999999999999 160.43 46.75999999999999 131.72 46.75999999999999 C 103.00999999999999 46.75999999999999 77.61 61.07999999999999 62.22 82.94999999999999 C 59.949999999999996 85.03999999999999 57.769999999999996 87.22999999999999 55.7 89.51999999999998 C 70.57000000000001 62.83999999999998 99.07 44.759999999999984 131.72 44.759999999999984 C 164.38 44.76 192.87 62.84 207.74 89.52 z M 131.73 48.77 C 107.1 48.77 84.95999999999998 59.57000000000001 69.75999999999999 76.66 C 86.97999999999999 63.589999999999996 108.44999999999999 55.83 131.73 55.83 C 155.01999999999998 55.83 176.48999999999998 63.589999999999996 193.7 76.66 C 178.49 59.57 156.35 48.77 131.73 48.77 z M 131.73 40.74 C 91.61999999999999 40.74 57.47999999999999 66.84 45.41 102.94 C 46.91 100.61 48.51 98.34 50.19 96.14 C 63.94 64.74000000000001 95.31 42.75 131.73000000000002 42.75 C 168.15000000000003 42.75 199.51000000000002 64.74 213.27000000000004 96.14 C 214.95000000000005 98.34 216.55000000000004 100.61 218.05000000000004 102.94 C 205.97 66.84 171.84 40.74 131.73 40.74 z M 131.73 29.11 C 75.05999999999999 29.11 29.11999999999999 75.05 29.11999999999999 131.72 C 29.11999999999999 136.25 29.41999999999999 140.71 29.97999999999999 145.07999999999998 C 30.24999999999999 143.01 30.58999999999999 140.95 30.97999999999999 138.92 C 30.809999999999988 136.54 30.719999999999988 134.14 30.719999999999988 131.72 C 30.719999999999988 76.02 76.02999999999999 30.709999999999994 131.73 30.709999999999994 C 187.43 30.709999999999994 232.74 76.02 232.74 131.72 C 232.74 134.14 232.65 136.54 232.48000000000002 138.92 C 232.87 140.95 233.21 143.01 233.48000000000002 145.07999999999998 C 234.05 140.70999999999998 234.34000000000003 136.24999999999997 234.34000000000003 131.71999999999997 C 234.34 75.05 188.4 29.11 131.73 29.11 z M 131.73 32.72 C 77.25 32.72 32.91 76.94999999999999 32.72999999999999 131.39 C 33.40999999999999 128.89999999999998 34.17999999999999 126.43999999999998 35.03999999999999 124.02999999999999 C 38.97999999999999 74.13 80.83999999999999 34.72999999999999 131.73 34.72999999999999 C 182.62 34.72999999999999 224.48 74.13 228.42 124.02999999999999 C 229.28 126.43999999999998 230.04999999999998 128.89999999999998 230.73 131.39 C 230.55 76.95 186.21 32.72 131.73 32.72 z M 131.73 36.73 C 84.39999999999999 36.73 45.04999999999998 71.52 37.89999999999999 116.87 C 38.96999999999999 114.46000000000001 40.11999999999999 112.10000000000001 41.36999999999999 109.79 C 51.25999999999999 69.07000000000001 88.01999999999998 38.75 131.73 38.75 C 175.45 38.75 212.2 69.08 222.08999999999997 109.79 C 223.33999999999997 112.10000000000001 224.48999999999998 114.46000000000001 225.55999999999997 116.87 C 218.4 71.52 179.05 36.73 131.73 36.73 z" stroke-linecap="round" />
</g>
		<g transform="matrix(1 0 0 1 -0.004999999999967031 -2.842171e-14)" id="path-05_00000179620055483434935430000017727264822950118812_"  >
<path style="stroke: none; stroke-width: 1; stroke-dasharray: none; stroke-linecap: butt; stroke-dashoffset: 0; stroke-linejoin: miter; stroke-miterlimit: 4; fill: rgb(255,255,255); fill-rule: nonzero; opacity: 1;"  paint-order="stroke"  transform=" translate(-131.72500000000002, -131.72999999999996)" d="M 172.49 131.73 C 172.49 154.23999999999998 154.24 172.48999999999998 131.73000000000002 172.48999999999998 C 109.21000000000002 172.48999999999998 90.96000000000001 154.23999999999998 90.96000000000001 131.73 C 90.96000000000001 109.21 109.21000000000001 90.95999999999998 131.73000000000002 90.95999999999998 C 154.24 90.96 172.49 109.21 172.49 131.73 z M 258.66 131.73 C 258.66 61.739999999999995 201.72000000000003 4.789999999999992 131.72000000000003 4.789999999999992 C 61.72000000000003 4.789999999999992 4.79 61.73 4.79 131.73 C 4.79 201.73 61.73 258.66999999999996 131.73 258.66999999999996 C 201.73 258.66999999999996 258.66 201.72 258.66 131.73 z M 256.66 131.73 C 256.66 200.62 200.61 256.66999999999996 131.72000000000003 256.66999999999996 C 62.83000000000004 256.66999999999996 6.79 200.62 6.79 131.73 C 6.79 62.839999999999975 62.84 6.79 131.73 6.79 C 200.61999999999998 6.79 256.66 62.84 256.66 131.73 z" stroke-linecap="round" />
</g>
		<g transform="matrix(1 0 0 1 -7.10543e-15 -7.10543e-15)" id="path-04_00000072246289805062036190000013050183992332694669_"  >
<circle style="stroke: none; stroke-width: 1; stroke-dasharray: none; stroke-linecap: butt; stroke-dashoffset: 0; stroke-linejoin: miter; stroke-miterlimit: 4; fill: rgb(83,69,32); fill-rule: nonzero; opacity: 1;"  paint-order="stroke"  cx="0" cy="0" r="38.37" />
</g>
		<g transform="matrix(1 0 0 1 -7.10543e-15 -7.10543e-15)" id="path-03_00000082331607949329225430000000861824244204572598_"  >
<circle style="stroke: none; stroke-width: 1; stroke-dasharray: none; stroke-linecap: butt; stroke-dashoffset: 0; stroke-linejoin: miter; stroke-miterlimit: 4; fill: rgb(40,31,14); fill-rule: nonzero; opacity: 1;"  paint-order="stroke"  cx="0" cy="0" r="29.93" />
</g>
		<g transform="matrix(1 0 0 1 -3.55271e-15 -3.55271e-15)" id="path-02_00000016771233757203205770000016243077213896062910_"  >
<circle style="stroke: none; stroke-width: 1; stroke-dasharray: none; stroke-linecap: butt; stroke-dashoffset: 0; stroke-linejoin: miter; stroke-miterlimit: 4; fill: rgb(13,12,12); fill-rule: nonzero; opacity: 1;"  paint-order="stroke"  cx="0" cy="0" r="17.7" />
</g>
		<g transform="matrix(1 0 0 1 20.380000000000024 -20.384999999999984)" id="path-01_00000098179800309848250570000017355012316591567234_"  >
<path style="stroke: none; stroke-width: 1; stroke-dasharray: none; stroke-linecap: butt; stroke-dashoffset: 0; stroke-linejoin: miter; stroke-miterlimit: 4; fill: rgb(192,77,0); fill-rule: nonzero; opacity: 0.5;"  paint-order="stroke"  transform=" translate(-152.11, -111.345)" d="M 172.49 131.73 L 131.73000000000002 131.73 L 131.73000000000002 90.96 C 154.24 90.96 172.49 109.21 172.49 131.73 z" stroke-linecap="round" />
</g>
</g>
</g>
</svg>