<?xml version="1.0" encoding="UTF-8" standalone="no" ?>
<!DOCTYPE svg PUBLIC "-//W3C//DTD SVG 1.1//EN" "http://www.w3.org/Graphics/SVG/1.1/DTD/svg11.dtd">
<svg xmlns="http://www.w3.org/2000/svg" xmlns:xlink="http://www.w3.org/1999/xlink" version="1.1" width="1280" height="1024" viewBox="0 -80 1280 1024" xml:space="preserve">
<desc>Created with Fabric.js 4.4.0</desc>
<defs>
</defs>
<g transform="matrix(1 0 0 1 640 512)" id="background-logo"  >
<rect style="stroke: none; stroke-width: 0; stroke-dasharray: none; stroke-linecap: butt; stroke-dashoffset: 0; stroke-linejoin: miter; stroke-miterlimit: 4; fill: rgb(255,255,255); fill-opacity: 0; fill-rule: nonzero; opacity: 1;"  paint-order="stroke"  x="-640" y="-512" rx="0" ry="0" width="1280" height="1024" />
</g>
<g transform="matrix(1.9211538461538462 0 0 1.9211538461538462 639.9999999999999 464.1903109388326)" id="logo-logo"  >
<g style=""  paint-order="stroke"   >
		<g transform="matrix(2.705470061628991 0 0 2.37990681237626 0 0)"  >
<g style=""  paint-order="stroke"   >
		<g transform="matrix(1 0 0 1 0 0)"  >
<linearGradient id="SVGID_1_34798" gradientUnits="userSpaceOnUse" gradientTransform="matrix(1 0 0 1 0 0)"  x1="0" y1="0" x2="0" y2="36">
<stop offset="0%" style="stop-color:rgb(168,112,225);stop-opacity: 1"/>
<stop offset="100%" style="stop-color:rgb(125,44,206);stop-opacity: 1"/>
</linearGradient>
<path style="stroke: none; stroke-width: 1; stroke-dasharray: none; stroke-linecap: butt; stroke-dashoffset: 0; stroke-linejoin: miter; stroke-miterlimit: 4; fill: url(#SVGID_1_34798); fill-rule: nonzero; opacity: 1;"  paint-order="stroke"  transform=" translate(-100, -17.5)" d="M 187.1 4 L 195.4 17.5 L 187.1 31 L 12.9 31 L 4.7 17.5 L 12.9 4 L 187.1 4 M 189.3 0 L 10.7 0 L 0 17.5 L 10.7 35 L 189.29999999999998 35 L 200 17.5 L 189.3 0 L 189.3 0 z" stroke-linecap="round" />
</g>
</g>
</g>
</g>
</g>
<g transform="matrix(1.9211538461538462 0 0 1.9211538461538462 640 466.11313796657834)" id="text-logo"  >
<g style=""  paint-order="stroke"   >
		<g transform="matrix(1 0 0 1 0 0)" id="text-logo-path-0"  >
<linearGradient id="SVGID_34799" gradientUnits="userSpaceOnUse" gradientTransform="matrix(1 0 0 1 2.240000000000009 -39.2)"  x1="0" y1="0" x2="0" y2="63">
<stop offset="0%" style="stop-color:rgb(168,112,225);stop-opacity: 1"/>
<stop offset="100%" style="stop-color:rgb(125,44,206);stop-opacity: 1"/>
</linearGradient>
<path style="stroke: none; stroke-width: 0.6768099005070893; stroke-dasharray: none; stroke-linecap: butt; stroke-dashoffset: 0; stroke-linejoin: miter; stroke-miterlimit: 4; fill: url(#SVGID_34799); fill-rule: nonzero; opacity: 1;"  paint-order="stroke"  transform=" translate(-208.88, 19.57)" d="M 10.08 0 L 10.08 -12.88 L 2.24 -12.88 L 2.24 0 Z M 2.24 -15.68 L 30.8 -15.68 L 30.8 -23.52 L 10.08 -23.52 L 10.08 -27.27 C 10.08 -30.24 11.2 -31.36 14.17 -31.36 L 34.72 -31.36 L 34.72 -39.2 L 14.17 -39.2 C 7.39 -39.2 2.24 -34.05 2.24 -27.27 Z M 71.68 -7.78 L 51.13 -7.78 C 48.16 -7.78 47.04 -8.9 47.04 -11.87 L 47.04 -12.88 L 39.2 -12.88 L 39.2 -11.87 C 39.2 -5.1 44.35 0.06 51.13 0.06 L 71.68 0.06 Z M 39.2 -15.68 L 67.76 -15.68 L 67.76 -23.52 L 47.04 -23.52 L 47.04 -31.36 L 71.68 -31.36 L 71.68 -39.2 L 39.2 -39.2 Z M 76.16 -15.68 L 96.71 -15.68 C 99.68 -15.68 100.8 -14.56 100.8 -11.59 L 100.8 0 L 108.64 0 L 108.64 -11.59 C 108.64 -14.67 107.58 -17.47 105.73 -19.54 C 107.58 -21.56 108.64 -24.25 108.64 -27.27 C 108.64 -34.05 103.49 -39.2 96.71 -39.2 L 76.16 -39.2 Z M 76.16 0 L 84 0 L 84 -12.88 L 76.16 -12.88 Z M 84 -23.52 L 84 -31.36 L 96.71 -31.36 C 99.68 -31.36 100.8 -30.24 100.8 -27.27 C 100.8 -24.53 99.74 -23.52 96.71 -23.52 Z M 113.12 -15.68 L 133.67 -15.68 C 136.64 -15.68 137.76 -14.56 137.76 -11.59 L 137.76 0 L 145.6 0 L 145.6 -11.59 C 145.6 -14.67 144.54 -17.47 142.69 -19.54 C 144.54 -21.56 145.6 -24.25 145.6 -27.27 C 145.6 -34.05 140.45 -39.2 133.67 -39.2 L 113.12 -39.2 Z M 113.12 0 L 120.96 0 L 120.96 -12.88 L 113.12 -12.88 Z M 120.96 -23.52 L 120.96 -31.36 L 133.67 -31.36 C 136.64 -31.36 137.76 -30.24 137.76 -27.27 C 137.76 -24.53 136.7 -23.52 133.67 -23.52 Z M 157.92 -15.68 L 157.92 -27.27 C 157.92 -30.24 159.04 -31.36 162.01 -31.36 L 170.63 -31.36 C 173.6 -31.36 174.72 -30.24 174.72 -27.27 L 174.72 -11.93 C 174.72 -8.96 173.6 -7.84 170.63 -7.84 L 162.01 -7.84 C 159.04 -7.84 157.92 -8.96 157.92 -11.93 L 157.92 -12.88 L 150.08 -12.88 L 150.08 -11.93 C 150.08 -5.15 155.23 0 162.01 0 L 170.63 0 C 177.41 0 182.56 -5.15 182.56 -11.93 L 182.56 -27.27 C 182.56 -34.05 177.41 -39.2 170.63 -39.2 L 162.01 -39.2 C 155.23 -39.2 150.08 -34.05 150.08 -27.27 L 150.08 -15.68 Z M 187.04 -12.94 L 187.04 -11.93 C 187.04 -5.15 192.19 0 198.97 0 L 207.59 0 C 214.37 0 219.52 -5.15 219.52 -11.93 L 219.52 -39.2 L 211.68 -39.2 L 211.68 -11.93 C 211.68 -8.96 210.56 -7.84 207.59 -7.84 L 198.97 -7.84 C 196 -7.84 194.88 -8.96 194.88 -11.93 L 194.88 -12.94 Z M 187.04 -15.74 L 194.88 -15.74 L 194.88 -39.2 L 187.04 -39.2 Z M 252.56 -39.2 L 235.93 -39.2 C 229.15 -39.2 224 -34.05 224 -27.27 C 224 -20.61 229.21 -15.68 235.93 -15.68 L 244.55 -15.68 C 247.58 -15.68 248.64 -14.67 248.64 -11.93 C 248.64 -8.96 247.52 -7.84 244.55 -7.84 L 225.68 -7.84 L 225.68 0 L 244.55 0 C 251.33 0 256.48 -5.15 256.48 -11.93 C 256.48 -18.59 251.27 -23.52 244.55 -23.52 L 235.93 -23.52 C 232.9 -23.52 231.84 -24.53 231.84 -27.27 C 231.84 -30.24 232.96 -31.36 235.93 -31.36 L 252.56 -31.36 Z M 304.64 -26.32 L 304.64 -27.27 C 304.64 -34.05 299.49 -39.2 292.71 -39.2 L 284.09 -39.2 C 277.31 -39.2 272.16 -34.05 272.16 -27.27 L 272.16 -11.93 C 272.16 -5.15 277.31 0 284.09 0 L 292.71 0 C 299.49 0 304.64 -5.15 304.64 -11.93 L 304.64 -12.94 L 296.8 -12.94 L 296.8 -11.93 C 296.8 -8.96 295.68 -7.84 292.71 -7.84 L 284.09 -7.84 C 281.12 -7.84 280 -8.96 280 -11.93 L 280 -27.27 C 280 -30.24 281.12 -31.36 284.09 -31.36 L 292.71 -31.36 C 295.68 -31.36 296.8 -30.24 296.8 -27.27 L 296.8 -26.32 Z M 316.96 -15.68 L 316.96 -27.27 C 316.96 -30.24 318.08 -31.36 321.05 -31.36 L 329.67 -31.36 C 332.64 -31.36 333.76 -30.24 333.76 -27.27 L 333.76 -11.93 C 333.76 -8.96 332.64 -7.84 329.67 -7.84 L 321.05 -7.84 C 318.08 -7.84 316.96 -8.96 316.96 -11.93 L 316.96 -12.88 L 309.12 -12.88 L 309.12 -11.93 C 309.12 -5.15 314.27 0 321.05 0 L 329.67 0 C 336.45 0 341.6 -5.15 341.6 -11.93 L 341.6 -27.27 C 341.6 -34.05 336.45 -39.2 329.67 -39.2 L 321.05 -39.2 C 314.27 -39.2 309.12 -34.05 309.12 -27.27 L 309.12 -15.68 Z M 346.08 -15.68 L 366.63 -15.68 C 369.6 -15.68 370.72 -14.56 370.72 -11.59 L 370.72 0 L 378.56 0 L 378.56 -11.59 C 378.56 -14.67 377.5 -17.47 375.65 -19.54 C 377.5 -21.56 378.56 -24.25 378.56 -27.27 C 378.56 -34.05 373.41 -39.2 366.63 -39.2 L 346.08 -39.2 Z M 346.08 0 L 353.92 0 L 353.92 -12.88 L 346.08 -12.88 Z M 353.92 -23.52 L 353.92 -31.36 L 366.63 -31.36 C 369.6 -31.36 370.72 -30.24 370.72 -27.27 C 370.72 -24.53 369.66 -23.52 366.63 -23.52 Z M 383.04 -15.68 L 403.59 -15.68 C 410.31 -15.68 415.52 -20.61 415.52 -27.27 C 415.52 -34.05 410.37 -39.2 403.59 -39.2 L 383.04 -39.2 Z M 383.04 0 L 390.88 0 L 390.88 -12.88 L 383.04 -12.88 Z M 390.88 -23.52 L 390.88 -31.36 L 403.59 -31.36 C 406.56 -31.36 407.68 -30.24 407.68 -27.27 C 407.68 -24.53 406.62 -23.52 403.59 -23.52 Z" stroke-linecap="round" />
</g>
</g>
</g>
<g transform="matrix(1.9211538461538462 0 0 1.9211538461538462 640.0000000000005 597.731900459952)" id="tagline-b72074bb-72b3-44de-b0e3-c1fdcb307b46-logo"  >
<g style=""  paint-order="stroke"   >
		<g transform="matrix(1 0 0 1 0 0)" id="tagline-b72074bb-72b3-44de-b0e3-c1fdcb307b46-logo-path-0"  >
<path style="stroke: none; stroke-width: 0; stroke-dasharray: none; stroke-linecap: butt; stroke-dashoffset: 0; stroke-linejoin: miter; stroke-miterlimit: 4; fill: rgb(130,49,211); fill-rule: nonzero; opacity: 1;"  paint-order="stroke"  transform=" translate(-240.63, 9.799999999999999)" d="M 5.04 0 L 5.04 -6.44 L 1.12 -6.44 L 1.12 0 Z M 1.12 -7.84 L 5.04 -7.84 L 5.04 -13.64 C 5.04 -15.12 5.6 -15.68 7.08 -15.68 L 8.6 -15.68 C 10.08 -15.68 10.64 -15.12 10.64 -13.64 L 10.64 0 L 14.56 0 L 14.56 -13.64 C 14.56 -15.12 15.12 -15.68 16.6 -15.68 L 18.12 -15.68 C 19.6 -15.68 20.16 -15.12 20.16 -13.64 L 20.16 0 L 24.08 0 L 24.08 -13.64 C 24.08 -17.02 21.5 -19.6 18.12 -19.6 L 16.6 -19.6 C 15.04 -19.6 13.64 -19.04 12.6 -18.12 C 11.56 -19.04 10.16 -19.6 8.6 -19.6 L 7.08 -19.6 C 3.7 -19.6 1.12 -17.02 1.12 -13.64 Z M 30.72 -19.6 L 30.72 0 L 34.64 0 L 34.64 -19.6 Z M 57.51 -3.92 L 47.24 -3.92 C 45.75 -3.92 45.19 -4.48 45.19 -5.96 L 45.19 -19.6 L 41.27 -19.6 L 41.27 -5.96 C 41.27 -2.58 43.85 0 47.24 0 L 57.51 0 Z M 64.15 -19.6 L 64.15 0 L 68.07 0 L 68.07 -19.6 Z M 81.14 -14.28 L 81.14 0 L 85.06 0 L 85.06 -14.28 Z M 74.7 -15.68 L 91.5 -15.68 L 91.5 -19.6 L 74.7 -19.6 Z M 114.38 0 L 114.38 -13.64 C 114.38 -17.02 111.8 -19.6 108.42 -19.6 L 104.1 -19.6 C 100.72 -19.6 98.14 -17.02 98.14 -13.64 L 98.14 0 L 102.06 0 L 102.06 -13.64 C 102.06 -15.12 102.62 -15.68 104.1 -15.68 L 108.42 -15.68 C 109.9 -15.68 110.46 -15.12 110.46 -13.64 L 110.46 -11.76 L 103.46 -11.76 L 103.46 -7.84 L 110.46 -7.84 L 110.46 0 Z M 121.02 -7.84 L 131.29 -7.84 C 132.78 -7.84 133.34 -7.28 133.34 -5.8 L 133.34 0 L 137.26 0 L 137.26 -5.8 C 137.26 -7.34 136.72 -8.74 135.8 -9.77 C 136.72 -10.78 137.26 -12.12 137.26 -13.64 C 137.26 -17.02 134.68 -19.6 131.29 -19.6 L 121.02 -19.6 Z M 121.02 0 L 124.94 0 L 124.94 -6.44 L 121.02 -6.44 Z M 124.94 -11.76 L 124.94 -15.68 L 131.29 -15.68 C 132.78 -15.68 133.34 -15.12 133.34 -13.64 C 133.34 -12.26 132.8 -11.76 131.29 -11.76 Z M 143.89 -19.6 L 143.89 -13.8 C 143.89 -10.42 146.47 -7.84 149.86 -7.84 L 154.17 -7.84 C 157.56 -7.84 160.13 -10.42 160.13 -13.8 L 160.13 -19.6 L 156.21 -19.6 L 156.21 -13.8 C 156.21 -12.32 155.65 -11.76 154.17 -11.76 L 149.86 -11.76 C 148.37 -11.76 147.81 -12.32 147.81 -13.8 L 147.81 -19.6 Z M 150.33 0 L 154.25 0 L 154.25 -6.44 L 150.33 -6.44 Z M 180.68 2.8 L 180.68 -22.4 L 176.76 -22.4 L 176.76 2.8 Z M 213.56 -13.16 L 213.56 -13.64 C 213.56 -17.02 210.98 -19.6 207.59 -19.6 L 203.28 -19.6 C 199.89 -19.6 197.32 -17.02 197.32 -13.64 L 197.32 -5.96 C 197.32 -2.58 199.89 0 203.28 0 L 207.59 0 C 210.98 0 213.56 -2.58 213.56 -5.96 L 213.56 -6.47 L 209.64 -6.47 L 209.64 -5.96 C 209.64 -4.48 209.08 -3.92 207.59 -3.92 L 203.28 -3.92 C 201.8 -3.92 201.24 -4.48 201.24 -5.96 L 201.24 -13.64 C 201.24 -15.12 201.8 -15.68 203.28 -15.68 L 207.59 -15.68 C 209.08 -15.68 209.64 -15.12 209.64 -13.64 L 209.64 -13.16 Z M 224.11 -7.84 L 224.11 -13.64 C 224.11 -15.12 224.67 -15.68 226.16 -15.68 L 230.47 -15.68 C 231.95 -15.68 232.51 -15.12 232.51 -13.64 L 232.51 -5.96 C 232.51 -4.48 231.95 -3.92 230.47 -3.92 L 226.16 -3.92 C 224.67 -3.92 224.11 -4.48 224.11 -5.96 L 224.11 -6.44 L 220.19 -6.44 L 220.19 -5.96 C 220.19 -2.58 222.77 0 226.16 0 L 230.47 0 C 233.86 0 236.43 -2.58 236.43 -5.96 L 236.43 -13.64 C 236.43 -17.02 233.86 -19.6 230.47 -19.6 L 226.16 -19.6 C 222.77 -19.6 220.19 -17.02 220.19 -13.64 L 220.19 -7.84 Z M 246.99 0 L 246.99 -6.44 L 243.07 -6.44 L 243.07 0 Z M 243.07 -7.84 L 246.99 -7.84 L 246.99 -13.64 C 246.99 -15.12 247.55 -15.68 249.03 -15.68 L 250.54 -15.68 C 252.03 -15.68 252.59 -15.12 252.59 -13.64 L 252.59 0 L 256.51 0 L 256.51 -13.64 C 256.51 -15.12 257.07 -15.68 258.55 -15.68 L 260.06 -15.68 C 261.55 -15.68 262.11 -15.12 262.11 -13.64 L 262.11 0 L 266.03 0 L 266.03 -13.64 C 266.03 -17.02 263.45 -19.6 260.06 -19.6 L 258.55 -19.6 C 256.98 -19.6 255.58 -19.04 254.55 -18.12 C 253.51 -19.04 252.11 -19.6 250.54 -19.6 L 249.03 -19.6 C 245.64 -19.6 243.07 -17.02 243.07 -13.64 Z M 272.66 -7.84 L 282.94 -7.84 C 284.42 -7.84 284.98 -7.28 284.98 -5.8 C 284.98 -4.42 284.45 -3.92 282.94 -3.92 L 276.58 -3.92 L 276.58 -6.44 L 272.66 -6.44 L 272.66 0 L 282.94 0 C 286.3 0 288.9 -2.46 288.9 -5.8 C 288.9 -7.76 288.04 -9.46 286.64 -10.53 C 287.2 -11.42 287.5 -12.49 287.5 -13.64 C 287.5 -17.02 284.93 -19.6 281.54 -19.6 L 272.66 -19.6 Z M 276.58 -11.76 L 276.58 -15.68 L 281.54 -15.68 C 283.02 -15.68 283.58 -15.12 283.58 -13.64 C 283.58 -12.26 283.05 -11.76 281.54 -11.76 Z M 311.78 0 L 311.78 -13.64 C 311.78 -17.02 309.2 -19.6 305.82 -19.6 L 301.5 -19.6 C 298.12 -19.6 295.54 -17.02 295.54 -13.64 L 295.54 0 L 299.46 0 L 299.46 -13.64 C 299.46 -15.12 300.02 -15.68 301.5 -15.68 L 305.82 -15.68 C 307.3 -15.68 307.86 -15.12 307.86 -13.64 L 307.86 -11.76 L 300.86 -11.76 L 300.86 -7.84 L 307.86 -7.84 L 307.86 0 Z M 324.86 -14.28 L 324.86 0 L 328.78 0 L 328.78 -14.28 Z M 318.42 -15.68 L 335.22 -15.68 L 335.22 -19.6 L 318.42 -19.6 Z M 355.77 2.8 L 355.77 -22.4 L 351.85 -22.4 L 351.85 2.8 Z M 372.4 -7.84 L 382.68 -7.84 C 384.16 -7.84 384.72 -7.28 384.72 -5.8 L 384.72 0 L 388.64 0 L 388.64 -5.8 C 388.64 -7.34 388.11 -8.74 387.18 -9.77 C 388.11 -10.78 388.64 -12.12 388.64 -13.64 C 388.64 -17.02 386.06 -19.6 382.68 -19.6 L 372.4 -19.6 Z M 372.4 0 L 376.32 0 L 376.32 -6.44 L 372.4 -6.44 Z M 376.32 -11.76 L 376.32 -15.68 L 382.68 -15.68 C 384.16 -15.68 384.72 -15.12 384.72 -13.64 C 384.72 -12.26 384.19 -11.76 382.68 -11.76 Z M 411.52 -3.89 L 401.24 -3.89 C 399.76 -3.89 399.2 -4.45 399.2 -5.94 L 399.2 -6.44 L 395.28 -6.44 L 395.28 -5.94 C 395.28 -2.55 397.85 0.03 401.24 0.03 L 411.52 0.03 Z M 395.28 -7.84 L 409.56 -7.84 L 409.56 -11.76 L 399.2 -11.76 L 399.2 -15.68 L 411.52 -15.68 L 411.52 -19.6 L 395.28 -19.6 Z M 434.39 -13.16 L 434.39 -13.64 C 434.39 -17.02 431.82 -19.6 428.43 -19.6 L 424.12 -19.6 C 420.73 -19.6 418.15 -17.02 418.15 -13.64 L 418.15 -5.96 C 418.15 -2.58 420.73 0 424.12 0 L 428.43 0 C 431.82 0 434.39 -2.58 434.39 -5.96 L 434.39 -6.47 L 430.47 -6.47 L 430.47 -5.96 C 430.47 -4.48 429.91 -3.92 428.43 -3.92 L 424.12 -3.92 C 422.63 -3.92 422.07 -4.48 422.07 -5.96 L 422.07 -13.64 C 422.07 -15.12 422.63 -15.68 424.12 -15.68 L 428.43 -15.68 C 429.91 -15.68 430.47 -15.12 430.47 -13.64 L 430.47 -13.16 Z M 444.95 -7.84 L 444.95 -13.64 C 444.95 -15.12 445.51 -15.68 446.99 -15.68 L 451.3 -15.68 C 452.79 -15.68 453.35 -15.12 453.35 -13.64 L 453.35 -5.96 C 453.35 -4.48 452.79 -3.92 451.3 -3.92 L 446.99 -3.92 C 445.51 -3.92 444.95 -4.48 444.95 -5.96 L 444.95 -6.44 L 441.03 -6.44 L 441.03 -5.96 C 441.03 -2.58 443.6 0 446.99 0 L 451.3 0 C 454.69 0 457.27 -2.58 457.27 -5.96 L 457.27 -13.64 C 457.27 -17.02 454.69 -19.6 451.3 -19.6 L 446.99 -19.6 C 443.6 -19.6 441.03 -17.02 441.03 -13.64 L 441.03 -7.84 Z M 467.82 0 L 467.82 -6.44 L 463.9 -6.44 L 463.9 0 Z M 463.9 -7.84 L 467.82 -7.84 L 467.82 -13.64 C 467.82 -15.12 468.38 -15.68 469.87 -15.68 L 474.18 -15.68 C 475.66 -15.68 476.22 -15.12 476.22 -13.64 L 476.22 0 L 480.14 0 L 480.14 -13.64 C 480.14 -17.02 477.57 -19.6 474.18 -19.6 L 469.87 -19.6 C 466.48 -19.6 463.9 -17.02 463.9 -13.64 Z" stroke-linecap="round" />
</g>
</g>
</g>
</svg>