<?xml version="1.0" encoding="UTF-8" standalone="no" ?>
<!DOCTYPE svg PUBLIC "-//W3C//DTD SVG 1.1//EN" "http://www.w3.org/Graphics/SVG/1.1/DTD/svg11.dtd">
<svg xmlns="http://www.w3.org/2000/svg" xmlns:xlink="http://www.w3.org/1999/xlink" version="1.1" width="1280" height="1024" viewBox="0 0 1280 1024" xml:space="preserve">
<desc>Created with Fabric.js 4.4.0</desc>
<defs>
</defs>
<g transform="matrix(1 0 0 1 640 512)" id="background-logo"  >
<rect style="stroke: none; stroke-width: 0; stroke-dasharray: none; stroke-linecap: butt; stroke-dashoffset: 0; stroke-linejoin: miter; stroke-miterlimit: 4; fill: rgb(255,255,255); fill-opacity: 0; fill-rule: nonzero; opacity: 1;"  paint-order="stroke"  x="-640" y="-512" rx="0" ry="0" width="1280" height="1024" />
</g>
<g transform="matrix(1.9211538461538462 0 0 1.9211538461538462 640 396.617392566944)" id="logo-logo"  >
<g style=""  paint-order="stroke"   >
		<g transform="matrix(0.13019047620862428 0 0 -0.13019047620862434 69.6060883429248 -23.127003646080965)"  >
<path style="stroke: none; stroke-width: 1; stroke-dasharray: none; stroke-linecap: butt; stroke-dashoffset: 0; stroke-linejoin: miter; stroke-miterlimit: 4; fill: rgb(255,255,255); fill-rule: nonzero; opacity: 1;"  paint-order="stroke"  transform=" translate(-1471.6155576676506, -1176.8285)" d="M 1695.95 1027.68 C 1675.19 1013.32 1654.06 1002.72 1632.24 994.8670000000001 C 1660.18 1068.8200000000002 1649.3 1134.0700000000002 1649.11 1135.1200000000001 L 1645.9099999999999 1152.73 L 1631.2599999999998 1142.54 C 1553.2799999999997 1088.47 1385.0899999999997 1066.96 1229.8099999999997 1056.8999999999999 C 1206.2199999999998 1121.59 1157.8999999999996 1176.27 1095.7399999999998 1211.2299999999998 C 1095.9899999999998 1211.2299999999998 1096.2399999999998 1211.2999999999997 1096.4699999999998 1211.2999999999997 C 1141.2199999999998 1215.6299999999997 1186.8799999999999 1218.0999999999997 1231.0499999999997 1220.5099999999998 C 1286.7299999999998 1223.4699999999998 1344.1899999999998 1226.6299999999997 1400.7899999999997 1233.4299999999998 C 1466.7799999999997 1241.32 1527.1499999999996 1251.09 1585.3499999999997 1263.3899999999999 C 1645.7699999999998 1276.11 1694.6499999999996 1289.9599999999998 1739.1999999999996 1307.1399999999999 C 1763.8499999999997 1316.58 1785.3499999999997 1326.4199999999998 1805.0099999999995 1337.2299999999998 C 1805.9999999999995 1337.7199999999998 1807.5999999999995 1338.5899999999997 1809.6999999999996 1339.6399999999999 C 1824.6499999999996 1347.36 1835.7099999999996 1353.54 1843.7399999999996 1358.79 C 1852.3299999999995 1302.69 1860.2999999999995 1140.86 1695.9499999999996 1027.6799999999998" stroke-linecap="round" />
</g>
		<g transform="matrix(0.13019047620862428 0 0 -0.13019047620862434 64.70441691367 1.3813535001926027)"  >
<path style="stroke: none; stroke-width: 1; stroke-dasharray: none; stroke-linecap: butt; stroke-dashoffset: 0; stroke-linejoin: miter; stroke-miterlimit: 4; fill: rgb(255,255,255); fill-rule: nonzero; opacity: 1;"  paint-order="stroke"  transform=" translate(-1432.7191763093656, -985.6795)" d="M 1493.22 868.508 C 1486.18 864.426 1479.33 860.9770000000001 1472.52 857.8090000000001 C 1491.44 912.3130000000001 1482.47 959.6480000000001 1482.29 960.445 L 1478.7 977.945 L 1464.31 967.4300000000001 C 1428.59 941.484 1348.83 934.551 1261.9499999999998 931.59 C 1260.6499999999999 938.02 1259.0399999999997 944.5 1257.1299999999999 951.047 C 1254.04 961.7420000000001 1250.1 971.945 1245.3899999999999 981.457 C 1244.3999999999999 999.504 1241.56 1017.16 1236.9299999999998 1034.23 C 1385.83 1043.99 1541.6599999999999 1064.06 1628.1599999999999 1113.55 C 1630.58 1067.8999999999999 1623.85 943.8829999999999 1493.2199999999998 868.5079999999999" stroke-linecap="round" />
</g>
		<g transform="matrix(0.13019047620862428 0 0 -0.13019047620862434 51.95876929284577 20.00510112183622)"  >
<path style="stroke: none; stroke-width: 1; stroke-dasharray: none; stroke-linecap: butt; stroke-dashoffset: 0; stroke-linejoin: miter; stroke-miterlimit: 4; fill: rgb(255,255,255); fill-rule: nonzero; opacity: 1;"  paint-order="stroke"  transform=" translate(-1336.1916677821891, -844.7153416852498)" d="M 1369.21 767.238 C 1330.71 743.8090000000001 1271.0900000000001 748.7620000000001 1210.35 757.109 C 1221.6 766.3050000000001 1229.27 775.1560000000001 1233.6499999999999 781.0160000000001 C 1259.9699999999998 816.105 1270.9099999999999 860.48 1265.6 908.797 C 1346.23 911.578 1418.09 917.7620000000001 1461.71 939.254 C 1463.81 904.027 1458.13 821.238 1369.21 767.238" stroke-linecap="round" />
</g>
		<g transform="matrix(0.13019047620862428 0 0 -0.13019047620862434 -69.60658786695717 -23.127003646080965)"  >
<path style="stroke: none; stroke-width: 1; stroke-dasharray: none; stroke-linecap: butt; stroke-dashoffset: 0; stroke-linejoin: miter; stroke-miterlimit: 4; fill: rgb(255,255,255); fill-rule: nonzero; opacity: 1;"  paint-order="stroke"  transform=" translate(-401.71027920311644, -1176.7604999999999)" d="M 177.387 1027.61 C 198.145 1013.2599999999999 219.273 1002.6499999999999 241.078 994.8009999999999 C 213.15200000000002 1068.75 224.039 1134 224.223 1135.05 L 227.43800000000002 1152.6599999999999 L 242.086 1142.4699999999998 C 320.059 1088.3999999999999 488.242 1066.8899999999999 643.508 1056.8299999999997 C 667.1170000000001 1121.5199999999998 715.4300000000001 1176.1999999999998 777.5820000000001 1211.1599999999996 C 777.344 1211.1599999999996 777.0900000000001 1211.2299999999996 776.8520000000001 1211.2299999999996 C 732.113 1215.5599999999995 686.4530000000001 1218.0299999999995 642.2730000000001 1220.4399999999996 C 586.6090000000002 1223.3999999999996 529.1450000000001 1226.5599999999995 472.5430000000001 1233.3599999999997 C 406.55900000000014 1241.2599999999998 346.18400000000014 1251.0199999999998 287.98400000000015 1263.3199999999997 C 227.55500000000015 1276.0499999999997 178.68800000000016 1289.8899999999996 134.13300000000015 1307.0699999999997 C 109.48000000000016 1316.5199999999998 87.97660000000016 1326.3499999999997 68.32420000000015 1337.1599999999996 C 67.33590000000015 1337.6499999999996 65.73830000000015 1338.5099999999995 63.63670000000015 1339.5699999999997 C 48.679700000000146 1347.2899999999997 37.617200000000146 1353.4699999999998 29.589800000000146 1358.7199999999998 C 21 1302.63 13.0273 1140.8 177.387 1027.61" stroke-linecap="round" />
</g>
		<g transform="matrix(0.13019047620862428 0 0 -0.13019047620862434 -64.70491643770254 1.3813535001926027)"  >
<path style="stroke: none; stroke-width: 1; stroke-dasharray: none; stroke-linecap: butt; stroke-dashoffset: 0; stroke-linejoin: miter; stroke-miterlimit: 4; fill: rgb(255,255,255); fill-rule: nonzero; opacity: 1;"  paint-order="stroke"  transform=" translate(-440.61055131968163, -985.6089999999999)" d="M 380.105 868.438 C 387.15200000000004 864.355 394.00800000000004 860.891 400.813 857.7379999999999 C 381.90999999999997 912.242 390.859 959.574 391.04699999999997 960.3789999999999 L 394.64099999999996 977.8789999999999 L 409.03099999999995 967.3589999999999 C 444.7339999999999 941.4179999999999 524.512 934.4839999999999 611.387 931.52 C 612.6759999999999 937.949 614.281 944.43 616.199 950.977 C 619.281 961.6759999999999 623.2539999999999 971.875 627.949 981.387 C 628.93 999.434 631.7729999999999 1017.0899999999999 636.4019999999999 1034.1599999999999 C 487.49999999999994 1043.9199999999998 331.6719999999999 1063.9999999999998 245.16399999999993 1113.4799999999998 C 242.75799999999992 1067.8299999999997 249.49599999999992 943.8159999999998 380.1049999999999 868.4379999999998" stroke-linecap="round" />
</g>
		<g transform="matrix(0.13019047620862428 0 0 -0.13019047620862434 -51.95926881687819 20.005101121836304)"  >
<path style="stroke: none; stroke-width: 1; stroke-dasharray: none; stroke-linecap: butt; stroke-dashoffset: 0; stroke-linejoin: miter; stroke-miterlimit: 4; fill: rgb(255,255,255); fill-rule: nonzero; opacity: 1;"  paint-order="stroke"  transform=" translate(-537.1332393750768, -844.6479699434481)" d="M 504.117 767.168 C 542.602 743.742 602.242 748.691 662.969 757.043 C 651.719 766.238 644.066 775.066 639.6800000000001 780.949 C 613.3520000000001 816.035 602.422 860.41 607.738 908.727 C 527.105 911.512 455.23800000000006 917.672 411.6210000000001 939.188 C 409.5200000000001 903.961 415.2030000000001 821.168 504.1170000000001 767.168" stroke-linecap="round" />
</g>
		<g transform="matrix(0.13019047620862428 0 0 -0.13019047620862434 -0.000249762016267141 13.14406302564177)"  >
<path style="stroke: none; stroke-width: 1; stroke-dasharray: none; stroke-linecap: butt; stroke-dashoffset: 0; stroke-linejoin: miter; stroke-miterlimit: 4; fill: rgb(255,255,255); fill-rule: nonzero; opacity: 1;"  paint-order="stroke"  transform=" translate(-936.6649845972049, -900.4855)" d="M 1167.17 930.352 C 1167.17 840.633 981.863 823.77 981.863 934.805 C 981.863 939.137 982.051 943.199 982.363 947.102 C 982.363 947.102 982.363 947.168 982.363 947.281 C 982.422 951.7969999999999 985.195 1034.1599999999999 1087.4 1042.1399999999999 C 1172.6100000000001 1048.8 1178.7800000000002 1069.6899999999998 1179.0300000000002 1074.7499999999998 C 1179.4600000000003 1066.0899999999997 1179.5900000000001 1011.2999999999997 1110.15 1011.4799999999998 C 1152.5800000000002 1001.0299999999997 1167.17 962.4769999999997 1167.17 930.3519999999997 z M 987.004 750.93 C 980.7620000000001 744.746 972.41 744.996 964.258 747.7769999999999 C 958.02 749.8789999999999 951.9730000000001 753.5269999999999 947.1410000000001 756.8629999999999 L 947.07 756.93 C 941.086 761.125 937.0120000000001 764.957 937.0120000000001 764.957 C 937.0120000000001 764.957 936.863 764.82 936.6250000000001 764.6129999999999 C 936.4800000000001 764.7539999999999 936.3160000000001 764.8629999999999 936.3160000000001 764.8629999999999 C 936.3160000000001 764.8629999999999 932.2460000000001 761.055 926.2460000000001 756.8629999999999 L 926.1880000000001 756.7929999999999 C 921.363 753.4569999999999 915.3160000000001 749.8129999999999 909.0780000000001 747.7109999999999 C 900.9220000000001 744.93 892.5740000000001 744.68 886.3320000000001 750.8589999999999 C 869.4020000000002 767.785 906.9100000000001 876.6519999999999 936.3160000000001 876.6519999999999 C 936.4450000000002 876.6519999999999 936.6370000000002 876.6519999999999 936.7540000000001 876.5819999999999 L 936.7540000000001 876.6949999999999 C 936.8400000000001 876.6949999999999 936.9410000000001 876.7189999999999 937.0120000000002 876.7189999999999 C 966.4180000000001 876.7189999999999 1003.9300000000002 767.8589999999999 987.0040000000001 750.93 z M 706.152 930.285 C 706.152 962.406 720.7420000000001 1000.9599999999999 763.1880000000001 1011.41 C 693.7460000000001 1011.23 693.8670000000001 1066.03 694.3010000000002 1074.68 C 694.5430000000001 1069.6200000000001 700.7230000000002 1048.73 785.9340000000002 1042.0700000000002 C 888.1250000000002 1034.0900000000001 890.9060000000002 951.7300000000001 890.9690000000002 947.2150000000001 C 890.9690000000002 947.1020000000001 890.9690000000002 947.0310000000002 890.9690000000002 947.0310000000002 C 891.2730000000001 943.1330000000002 891.4650000000001 939.0700000000002 891.4650000000001 934.7340000000002 C 891.4650000000001 823.7030000000002 706.1520000000002 840.5630000000001 706.1520000000002 930.2850000000002 z M 1236.37 945.0699999999999 C 1233.2199999999998 955.93 1229.08 966.262 1224.01 975.7769999999999 C 1218.95 1116.8899999999999 1091.04 1231.08 937.012 1231.08 L 936.582 1231.08 L 936.582 1231.01 L 936.316 1231.01 C 782.2810000000001 1231.01 654.3910000000001 1116.82 649.3240000000001 975.711 C 644.2460000000001 966.191 640.105 955.859 636.965 945 C 620.145 887.102 627.3240000000001 833.469 656.9770000000001 793.934 C 665.0200000000001 783.3009999999999 694.176 750.059 750.9570000000001 742.145 L 750.9570000000001 720.1519999999999 C 750.9570000000001 701.434 755.6600000000001 685.7969999999999 764.8550000000001 673.6879999999999 L 818.3050000000002 600.9139999999999 C 826.8360000000001 589.6639999999999 838.0200000000002 581.1949999999998 850.3830000000002 575.9339999999999 L 862.1720000000001 693.4649999999999 L 874.5940000000002 570.1329999999999 C 876.0780000000002 570.0659999999999 877.5040000000001 569.891 878.9880000000002 569.891 L 923.8950000000002 569.891 L 936.3160000000003 693.4649999999999 L 936.5820000000002 690.9139999999999 L 936.5820000000002 689.2029999999999 L 936.6600000000002 690.0659999999999 L 936.7540000000002 689.1289999999999 L 936.7540000000002 690.9839999999999 L 937.0120000000003 693.531 L 949.4340000000003 569.957 L 994.3480000000003 569.957 C 995.8280000000003 569.957 997.2580000000003 570.133 998.7300000000002 570.199 L 1011.1500000000002 693.531 L 1022.9500000000002 576.0039999999999 C 1035.3100000000002 581.2659999999998 1046.4900000000002 589.7339999999999 1055.0300000000002 600.9649999999999 L 1108.4800000000002 673.7579999999999 C 1117.6800000000003 685.8629999999999 1122.3700000000003 701.4999999999999 1122.3700000000003 720.223 L 1122.3700000000003 742.2149999999999 C 1179.1500000000003 750.1289999999999 1208.3200000000004 783.3709999999999 1216.3500000000004 793.9999999999999 C 1246.0100000000004 833.5349999999999 1253.1800000000003 887.1679999999999 1236.3700000000003 945.0699999999999" stroke-linecap="round" />
</g>
		<g transform="matrix(0.13019047620862428 0 0 -0.13019047620862434 -0.000249762016267141 -46.65893222078981)"  >
<path style="stroke: none; stroke-width: 1; stroke-dasharray: none; stroke-linecap: butt; stroke-dashoffset: 0; stroke-linejoin: miter; stroke-miterlimit: 4; fill: rgb(255,255,255); fill-rule: nonzero; opacity: 1;"  paint-order="stroke"  transform=" translate(-936.655, -1356.8849999999998)" d="M 936.66 1430.05 L 954.824 1374.1599999999999 L 1013.5799999999999 1374.1599999999999 L 966.0469999999999 1339.62 L 984.2189999999999 1283.7199999999998 L 936.66 1318.2699999999998 L 889.117 1283.7199999999998 L 907.289 1339.62 L 859.73 1374.1599999999999 L 918.5120000000001 1374.1599999999999 L 936.6600000000001 1430.05" stroke-linecap="round" />
</g>
		<g transform="matrix(0.13019047620862428 0 0 -0.13019047620862434 -14.705264049780396 -39.79789412459533)"  >
<path style="stroke: none; stroke-width: 1; stroke-dasharray: none; stroke-linecap: butt; stroke-dashoffset: 0; stroke-linejoin: miter; stroke-miterlimit: 4; fill: rgb(255,255,255); fill-rule: nonzero; opacity: 1;"  paint-order="stroke"  transform=" translate(-823.2379999999998, -1299.695)" d="M 823.23 1346.74 L 834.91 1310.8 L 872.703 1310.8 L 842.117 1288.59 L 853.805 1252.6499999999999 L 823.2299999999999 1274.86 L 792.6599999999999 1252.6499999999999 L 804.3399999999998 1288.59 L 773.7729999999998 1310.8 L 811.5549999999998 1310.8 L 823.2299999999998 1346.74" stroke-linecap="round" />
</g>
		<g transform="matrix(0.13019047620862428 0 0 -0.13019047620862434 15.687702621123094 -39.79789412459533)"  >
<path style="stroke: none; stroke-width: 1; stroke-dasharray: none; stroke-linecap: butt; stroke-dashoffset: 0; stroke-linejoin: miter; stroke-miterlimit: 4; fill: rgb(255,255,255); fill-rule: nonzero; opacity: 1;"  paint-order="stroke"  transform=" translate(-1059.2400000000002, -1299.695)" d="M 1059.24 1346.74 L 1070.92 1310.8 L 1108.71 1310.8 L 1078.13 1288.59 L 1089.8000000000002 1252.6499999999999 L 1059.2400000000002 1274.86 L 1028.6600000000003 1252.6499999999999 L 1040.3300000000004 1288.59 L 1009.7700000000004 1310.8 L 1047.5600000000004 1310.8 L 1059.2400000000005 1346.74" stroke-linecap="round" />
</g>
</g>
</g>
<g transform="matrix(1.9211538461538462 0 0 1.9211538461538462 639.0776472071822 606.1150321145728)" id="text-logo"  >
<g style=""  paint-order="stroke"   >
		<g transform="matrix(1 0 0 1 0 0)" id="text-logo-path-0"  >
<path style="stroke: none; stroke-width: 0.8288976075998573; stroke-dasharray: none; stroke-linecap: butt; stroke-dashoffset: 0; stroke-linejoin: miter; stroke-miterlimit: 4; fill: rgb(255,255,255); fill-rule: nonzero; opacity: 1;"  paint-order="stroke"  transform=" translate(-202.7164440063847, 19.95)" d="M 0.68 -39.33 L 6.73 -0.57 C 6.78 -0.29 7.07 0 7.41 0 L 12.54 0 C 12.83 0 13.17 -0.23 13.22 -0.57 L 19.27 -39.33 C 19.32 -39.62 19.15 -39.9 18.81 -39.9 L 13.68 -39.9 C 13.4 -39.9 13.05 -39.67 13.05 -39.33 L 10.03 -16.02 C 10.03 -15.68 9.92 -15.73 9.92 -16.02 L 6.9 -39.33 C 6.9 -39.62 6.61 -39.9 6.27 -39.9 L 1.14 -39.9 C 0.85 -39.9 0.63 -39.67 0.68 -39.33 Z M 41.04 -8.21 C 41.04 -3.53 44.86 0.57 49.93 0.57 C 54.72 0.57 58.71 -3.36 58.71 -8.21 L 58.71 -31.69 C 58.71 -36.54 54.72 -40.47 49.93 -40.47 C 44.86 -40.47 41.04 -36.37 41.04 -31.69 Z M 47.31 -8.21 L 47.31 -31.69 C 47.31 -33.52 47.99 -34.2 49.93 -34.2 C 51.76 -34.2 52.44 -33.52 52.44 -31.69 L 52.44 -8.21 C 52.44 -6.38 51.76 -5.7 49.93 -5.7 C 47.99 -5.7 47.31 -6.38 47.31 -8.21 Z M 81.62 -39.33 L 81.62 -0.57 C 81.62 -0.29 81.85 0 82.19 0 L 96.44 0 C 96.73 0 97.01 -0.23 97.01 -0.57 L 97.01 -5.7 C 97.01 -5.99 96.79 -6.27 96.44 -6.27 L 87.89 -6.27 L 87.89 -39.33 C 87.89 -39.62 87.67 -39.9 87.32 -39.9 L 82.19 -39.9 C 81.91 -39.9 81.62 -39.67 81.62 -39.33 Z M 119.93 -39.33 L 119.93 -0.57 C 119.93 -0.29 120.16 0 120.5 0 L 125.63 0 C 125.91 0 126.2 -0.23 126.2 -0.57 L 126.2 -14.36 L 126.54 -15.11 C 126.65 -15.33 126.83 -15.39 126.94 -15.05 L 131.16 -0.57 C 131.27 -0.23 131.61 0 131.9 0 L 137.03 0 C 137.37 0 137.48 -0.29 137.43 -0.51 L 130.07 -22.17 C 130.02 -22.4 130.02 -22.91 130.13 -23.2 L 137.37 -39.39 C 137.48 -39.62 137.37 -39.9 137.03 -39.9 L 131.9 -39.9 C 131.61 -39.9 131.27 -39.67 131.1 -39.39 L 126.43 -27.64 C 126.31 -27.42 126.2 -27.36 126.2 -27.7 L 126.2 -39.33 C 126.2 -39.62 125.97 -39.9 125.63 -39.9 L 120.5 -39.9 C 120.21 -39.9 119.93 -39.67 119.93 -39.33 Z M 160.34 -8.21 C 160.34 -3.53 164.16 0.57 169.23 0.57 C 174.02 0.57 178.01 -3.36 178.01 -8.21 L 178.01 -31.69 C 178.01 -36.54 174.02 -40.47 169.23 -40.47 C 164.16 -40.47 160.34 -36.37 160.34 -31.69 Z M 166.61 -8.21 L 166.61 -31.69 C 166.61 -33.52 167.3 -34.2 169.23 -34.2 C 171.06 -34.2 171.74 -33.52 171.74 -31.69 L 171.74 -8.21 C 171.74 -6.38 171.06 -5.7 169.23 -5.7 C 167.3 -5.7 166.61 -6.38 166.61 -8.21 Z M 200.36 -39.33 L 206.4 -0.57 C 206.45 -0.29 206.74 0 207.08 0 L 212.21 0 C 212.5 0 212.84 -0.23 212.9 -0.57 L 218.94 -39.33 C 218.99 -39.62 218.82 -39.9 218.48 -39.9 L 213.35 -39.9 C 213.07 -39.9 212.72 -39.67 212.72 -39.33 L 209.7 -16.02 C 209.7 -15.68 209.59 -15.73 209.59 -16.02 L 206.57 -39.33 C 206.57 -39.62 206.28 -39.9 205.94 -39.9 L 200.81 -39.9 C 200.53 -39.9 200.3 -39.67 200.36 -39.33 Z M 253.25 -23.09 L 241.85 -23.09 C 241.57 -23.09 241.28 -22.86 241.28 -22.52 L 241.28 -17.39 C 241.28 -17.1 241.51 -16.82 241.85 -16.82 L 253.25 -16.82 C 253.54 -16.82 253.82 -17.04 253.82 -17.39 L 253.82 -22.52 C 253.82 -22.8 253.59 -23.09 253.25 -23.09 Z M 276.74 -39.33 L 276.74 -0.57 C 276.74 -0.29 276.96 0 277.31 0 L 282.44 0 C 282.72 0 283 -0.23 283 -0.57 L 283 -16.25 C 283 -16.59 283.29 -16.82 283.57 -16.82 L 284.49 -16.82 C 284.83 -16.82 285.11 -16.53 285.17 -16.25 L 288.02 -0.57 C 288.08 -0.29 288.36 0 288.7 0 L 293.83 0 C 294.12 0 294.35 -0.23 294.29 -0.57 L 290.64 -17.78 C 290.59 -18.13 290.76 -18.53 290.99 -18.7 C 293.09 -20.29 294.4 -22.8 294.4 -25.59 L 294.4 -31.12 C 294.4 -35.8 290.59 -39.9 285.51 -39.9 L 277.31 -39.9 C 277.02 -39.9 276.74 -39.67 276.74 -39.33 Z M 283 -23.66 L 283 -23.66 L 283 -33.06 C 283 -33.4 283.29 -33.63 283.57 -33.63 L 285.51 -33.63 C 287.45 -33.63 288.13 -32.95 288.13 -31.12 L 288.13 -25.59 C 288.13 -23.77 287.45 -23.09 285.51 -23.09 L 283.57 -23.09 C 283.23 -23.09 283 -23.37 283 -23.66 Z M 317.32 -39.33 L 317.32 -8.21 C 317.32 -3.53 321.14 0.57 326.21 0.57 C 331 0.57 334.99 -3.36 334.99 -8.21 L 334.99 -39.33 C 334.99 -39.67 334.7 -39.9 334.42 -39.9 L 329.29 -39.9 C 328.95 -39.9 328.72 -39.62 328.72 -39.33 L 328.72 -8.21 C 328.72 -6.38 328.04 -5.7 326.21 -5.7 C 324.27 -5.7 323.59 -6.38 323.59 -8.21 L 323.59 -39.33 C 323.59 -39.67 323.3 -39.9 323.02 -39.9 L 317.89 -39.9 C 317.55 -39.9 317.32 -39.62 317.32 -39.33 Z M 369.87 -27.02 L 375 -27.02 C 375.29 -27.02 375.57 -27.25 375.57 -27.59 L 375.57 -31.69 C 375.57 -36.54 371.58 -40.47 366.8 -40.47 C 361.72 -40.47 357.9 -36.37 357.9 -31.69 L 357.9 -27.02 C 357.9 -19.95 369.3 -16.7 369.3 -12.88 L 369.3 -8.21 C 369.3 -6.38 368.62 -5.7 366.68 -5.7 C 364.86 -5.7 364.17 -6.38 364.17 -8.21 L 364.17 -12.31 C 364.17 -12.65 363.89 -12.88 363.6 -12.88 L 358.47 -12.88 C 358.13 -12.88 357.9 -12.6 357.9 -12.31 L 357.9 -8.21 C 357.9 -3.36 361.89 0.57 366.68 0.57 C 371.75 0.57 375.57 -3.53 375.57 -8.21 L 375.57 -12.88 C 375.57 -20.23 364.17 -23.48 364.17 -27.02 L 364.17 -31.69 C 364.17 -33.52 364.86 -34.2 366.8 -34.2 C 368.62 -34.2 369.3 -33.52 369.3 -31.69 L 369.3 -27.59 C 369.3 -27.3 369.53 -27.02 369.87 -27.02 Z M 398.49 -39.33 L 398.49 -0.57 C 398.49 -0.29 398.72 0 399.06 0 L 404.19 0 C 404.47 0 404.76 -0.23 404.76 -0.57 L 404.76 -39.33 C 404.76 -39.62 404.53 -39.9 404.19 -39.9 L 399.06 -39.9 C 398.77 -39.9 398.49 -39.67 398.49 -39.33 Z" stroke-linecap="round" />
</g>
</g>
</g>
<g transform="matrix(1.9211538461538462 0 0 1.9211538461538462 640.307688149541 702.7881383955786)" id="tagline-b621d29e-823c-4ae7-9a2a-50745e6683bc-logo"  >
<g style=""  paint-order="stroke"   >
		<g transform="matrix(1 0 0 1 0 0)" id="tagline-b621d29e-823c-4ae7-9a2a-50745e6683bc-logo-path-0"  >
<path style="stroke: none; stroke-width: 0.2995809608426715; stroke-dasharray: none; stroke-linecap: butt; stroke-dashoffset: 0; stroke-linejoin: miter; stroke-miterlimit: 4; fill: rgb(255,255,255); fill-rule: nonzero; opacity: 1;"  paint-order="stroke"  transform=" translate(-129.55, 5.6)" d="M 8.61 -11.2 L 7.01 -11.2 L 5.1 -4.35 L 3.2 -11.2 L 1.6 -11.2 L 1.6 0 L 2.72 0 L 2.72 -8.9 L 4.53 -2.4 L 5.68 -2.4 L 7.49 -8.9 L 7.49 0 L 8.61 0 Z M 18.96 0 L 20.08 0 L 20.72 -3.04 L 23.58 -3.04 L 24.22 0 L 25.34 0 L 22.99 -11.2 L 21.31 -11.2 Z M 20.93 -4 L 22.16 -9.87 L 23.39 -4 Z M 35.7 -11.2 L 35.7 0 L 39.7 0 L 39.7 -0.96 L 36.82 -0.96 L 36.82 -11.2 Z M 50.69 -2.72 L 50.69 -11.2 L 49.57 -11.2 L 49.57 -2.4 C 49.57 -0.26 50.78 0.16 52.29 0.16 C 53.81 0.16 55.01 -0.26 55.01 -2.4 L 55.01 -11.2 L 53.89 -11.2 L 53.89 -2.72 C 53.89 -1.26 53.26 -0.96 52.29 -0.96 C 51.31 -0.96 50.69 -1.26 50.69 -2.72 Z M 68.56 0.16 C 70.06 0.16 71.28 -0.26 71.28 -2.4 L 71.28 -2.72 C 71.28 -5.3 66.96 -6.94 66.96 -8.48 C 66.96 -9.94 67.58 -10.24 68.56 -10.24 C 69.54 -10.24 70.16 -9.94 70.16 -8.48 L 70.16 -7.84 L 71.28 -7.84 L 71.28 -8.8 C 71.28 -10.94 70.08 -11.36 68.56 -11.36 C 67.06 -11.36 65.84 -10.94 65.84 -8.8 L 65.84 -8.48 C 65.84 -6.18 70.16 -4.53 70.16 -2.72 C 70.16 -1.26 69.54 -0.96 68.56 -0.96 C 67.58 -0.96 66.96 -1.26 66.96 -2.72 L 66.96 -3.55 L 65.84 -3.55 L 65.84 -2.4 C 65.84 -0.29 67.04 0.16 68.56 0.16 Z M 93.58 -11.2 L 93.58 0 L 94.7 0 L 94.7 -8.48 L 98.19 0 L 99.31 0 L 99.31 -11.2 L 98.19 -11.2 L 98.19 -2.72 L 94.7 -11.2 Z M 110.62 -11.2 L 110.62 0 L 115.42 0 L 115.42 -0.96 L 111.74 -0.96 L 111.74 -5.12 L 114.46 -5.12 L 114.46 -6.08 L 111.74 -6.08 L 111.74 -10.24 L 115.26 -10.24 L 115.26 -11.2 Z M 130.02 -8.48 L 130.02 -6.88 L 131.14 -6.88 L 131.14 -8.8 C 131.14 -10.94 129.94 -11.36 128.42 -11.36 C 126.91 -11.36 125.7 -10.94 125.7 -8.8 L 125.7 -2.4 C 125.7 -0.26 126.91 0.16 128.42 0.16 C 129.94 0.16 131.14 -0.29 131.14 -2.4 L 131.14 -3.07 L 130.02 -3.07 L 130.02 -2.72 C 130.02 -1.26 129.39 -0.96 128.42 -0.96 C 127.44 -0.96 126.82 -1.26 126.82 -2.72 L 126.82 -8.48 C 126.82 -9.94 127.44 -10.24 128.42 -10.24 C 129.39 -10.24 130.02 -9.94 130.02 -8.48 Z M 142.05 -11.2 L 142.05 0 L 146.85 0 L 146.85 -0.96 L 143.17 -0.96 L 143.17 -5.12 L 145.89 -5.12 L 145.89 -6.08 L 143.17 -6.08 L 143.17 -10.24 L 146.69 -10.24 L 146.69 -11.2 Z M 159.76 0.16 C 161.26 0.16 162.48 -0.26 162.48 -2.4 L 162.48 -2.72 C 162.48 -5.3 158.16 -6.94 158.16 -8.48 C 158.16 -9.94 158.78 -10.24 159.76 -10.24 C 160.74 -10.24 161.36 -9.94 161.36 -8.48 L 161.36 -7.84 L 162.48 -7.84 L 162.48 -8.8 C 162.48 -10.94 161.28 -11.36 159.76 -11.36 C 158.26 -11.36 157.04 -10.94 157.04 -8.8 L 157.04 -8.48 C 157.04 -6.18 161.36 -4.53 161.36 -2.72 C 161.36 -1.26 160.74 -0.96 159.76 -0.96 C 158.78 -0.96 158.16 -1.26 158.16 -2.72 L 158.16 -3.55 L 157.04 -3.55 L 157.04 -2.4 C 157.04 -0.29 158.24 0.16 159.76 0.16 Z M 175.87 0.16 C 177.38 0.16 178.59 -0.26 178.59 -2.4 L 178.59 -2.72 C 178.59 -5.3 174.27 -6.94 174.27 -8.48 C 174.27 -9.94 174.9 -10.24 175.87 -10.24 C 176.85 -10.24 177.47 -9.94 177.47 -8.48 L 177.47 -7.84 L 178.59 -7.84 L 178.59 -8.8 C 178.59 -10.94 177.39 -11.36 175.87 -11.36 C 174.37 -11.36 173.15 -10.94 173.15 -8.8 L 173.15 -8.48 C 173.15 -6.18 177.47 -4.53 177.47 -2.72 C 177.47 -1.26 176.85 -0.96 175.87 -0.96 C 174.9 -0.96 174.27 -1.26 174.27 -2.72 L 174.27 -3.55 L 173.15 -3.55 L 173.15 -2.4 C 173.15 -0.29 174.35 0.16 175.87 0.16 Z M 188.62 0 L 189.74 0 L 190.38 -3.04 L 193.25 -3.04 L 193.89 0 L 195.01 0 L 192.66 -11.2 L 190.98 -11.2 Z M 190.59 -4 L 191.82 -9.87 L 193.06 -4 Z M 205.36 0 L 206.48 0 L 206.48 -4.16 L 207.6 -4.16 L 209.6 0 L 210.8 0 L 208.75 -4.29 C 209.68 -4.53 210.32 -5.18 210.32 -6.72 L 210.32 -8.64 C 210.32 -10.78 209.12 -11.2 207.6 -11.2 L 205.36 -11.2 Z M 206.48 -5.12 L 206.48 -10.24 L 207.6 -10.24 C 208.58 -10.24 209.2 -9.94 209.2 -8.48 L 209.2 -6.88 C 209.2 -5.42 208.58 -5.12 207.6 -5.12 Z M 223.23 -11.2 L 220.67 -11.2 L 220.67 -10.24 L 221.39 -10.24 L 221.39 -0.96 L 220.67 -0.96 L 220.67 0 L 223.23 0 L 223.23 -0.96 L 222.51 -0.96 L 222.51 -10.24 L 223.23 -10.24 Z M 235.02 -2.72 L 235.02 -11.2 L 233.9 -11.2 L 233.9 -2.4 C 233.9 -0.26 235.12 0.16 236.62 0.16 C 238.14 0.16 239.34 -0.26 239.34 -2.4 L 239.34 -11.2 L 238.22 -11.2 L 238.22 -2.72 C 238.22 -1.26 237.6 -0.96 236.62 -0.96 C 235.65 -0.96 235.02 -1.26 235.02 -2.72 Z M 257.5 -11.2 L 255.9 -11.2 L 254 -4.35 L 252.1 -11.2 L 250.5 -11.2 L 250.5 0 L 251.62 0 L 251.62 -8.9 L 253.42 -2.4 L 254.58 -2.4 L 256.38 -8.9 L 256.38 0 L 257.5 0 Z" stroke-linecap="round" />
</g>
</g>
</g>
<g transform="matrix(2.565967901878489 0 0 2.565967901878489 645.687690420028 791.7515711899835)" id="shape-5684a1df-61c6-4e64-af34-cdc370d1db1f"  >
<g style=""  paint-order="stroke"   >
		<g transform="matrix(1 0 0 1 0 8.8818e-16)" id="path-01_00000052793575798338509190000012451360716198163874_"  >
<polygon style="stroke: none; stroke-width: 1; stroke-dasharray: none; stroke-linecap: butt; stroke-dashoffset: 0; stroke-linejoin: miter; stroke-miterlimit: 4; fill: rgb(188,188,188); fill-rule: nonzero; opacity: 1;"  paint-order="stroke"  points="150,-3.520279999999999 97.60096999999999,-3.520279999999999 96.08755,-3.520279999999999 94.57414,-3.520279999999999 94.57414,-0.20278999999999936 87.72140999999999,-7.245679999999999 87.72140999999999,0.49382000000000037 36.836780000000005,0.49382000000000037 36.836780000000005,-7.2480199999999995 29.98304999999999,-0.2051299999999996 29.98304999999999,-3.5226199999999994 26.956220000000002,-3.5226199999999994 26.956220000000002,-3.520279999999999 -25.442809999999994,-3.520279999999999 -26.956220000000002,-3.520279999999999 -28.46964,-3.520279999999999 -28.46964,-0.20278999999999936 -35.32237000000001,-7.245679999999999 -35.32237000000001,0.49382000000000037 -86.207,0.49382000000000037 -86.207,-7.2480199999999995 -93.06072,-0.2051299999999996 -93.06072,-3.5226199999999994 -96.08755,-3.5226199999999994 -96.08755,-3.520279999999999 -150,-3.520279999999999 -150,-0.4934499999999993 -96.08755,-0.4934499999999993 -96.08755,7.24568 -89.23383,0.20279000000000025 -89.23383,3.5202800000000014 -87.72041999999999,3.5202800000000014 -87.72041999999999,3.52065 -35.32237000000001,3.52065 -35.32237000000001,3.52262 -32.29554,3.52262 -32.29554,0.20513000000000048 -25.442809999999994,7.24802 -25.442809999999994,-0.4934499999999993 26.956220000000002,-0.4934499999999993 26.956220000000002,7.24568 33.80994000000001,0.20279000000000025 33.80994000000001,3.5202800000000014 35.32336000000001,3.5202800000000014 35.32336000000001,3.52065 87.72140999999999,3.52065 87.72140999999999,3.52262 90.74823,3.52262 90.74823,0.20513000000000048 97.60096999999999,7.24802 97.60096999999999,-0.4934499999999993 150,-0.4934499999999993 " />
</g>
</g>
</g>
</svg>