<?xml version="1.0" encoding="UTF-8" standalone="no" ?>
<!DOCTYPE svg PUBLIC "-//W3C//DTD SVG 1.1//EN" "http://www.w3.org/Graphics/SVG/1.1/DTD/svg11.dtd">
<svg xmlns="http://www.w3.org/2000/svg" xmlns:xlink="http://www.w3.org/1999/xlink" version="1.1" width="1280" height="1024" viewBox="0 0 1280 1024" xml:space="preserve">
<desc>Created with Fabric.js 4.4.0</desc>
<defs>
</defs>
<g transform="matrix(1 0 0 1 640 512)" id="background-logo"  >
<rect style="stroke: none; stroke-width: 0; stroke-dasharray: none; stroke-linecap: butt; stroke-dashoffset: 0; stroke-linejoin: miter; stroke-miterlimit: 4; fill: rgb(255,255,255); fill-opacity: 0; fill-rule: nonzero; opacity: 1;"  paint-order="stroke"  x="-640" y="-512" rx="0" ry="0" width="1280" height="1024" />
</g>
<g transform="matrix(1.604967411755262 0 0 1.6049674117552624 217.29812499999997 512)" id="logo-logo"  >
<g style=""  paint-order="stroke"   >
		<g transform="matrix(0 -0.19868413867811166 -0.1986841386781117 0 12.321496202192407 0)"  >
<path style="stroke: none; stroke-width: 1; stroke-dasharray: none; stroke-linecap: butt; stroke-dashoffset: 0; stroke-linejoin: miter; stroke-miterlimit: 4; fill: rgb(68,60,4); fill-rule: nonzero; opacity: 1;"  paint-order="stroke"  transform=" translate(-305.869, -466.16035939999995)" d="M 316.875 291.109 L 460.598 89.8906 L 219.352 89.8906 L 219.352 409.313 L 374.18 528.172 L 219.352 647.023 L 219.352 932.309 L 126.449 932.309 L 126.449 613.328 L 237.37900000000002 528.172 L 126.44900000000001 443.016 L 126.44900000000001 89.8906 L 122.68 89.8906 L 0 89.8906 L 0 0.0117188 L 611.738 0.0117188 L 611.738 486.805 L 526.797 486.805 L 316.875 291.109" stroke-linecap="round" />
</g>
		<g transform="matrix(0 -0.19868413867811166 -0.1986841386781117 0 -12.348346495903854 0)"  >
<path style="stroke: none; stroke-width: 1; stroke-dasharray: none; stroke-linecap: butt; stroke-dashoffset: 0; stroke-linejoin: miter; stroke-miterlimit: 4; fill: rgb(68,60,4); fill-rule: nonzero; opacity: 1;"  paint-order="stroke"  transform=" translate(-305.869, -590.3265)" d="M 0 1056.34 L 0 124.313 L 92.4453 124.313 L 92.4453 966.457 L 460.598 966.457 L 316.875 765.23 L 526.797 569.543 L 611.738 569.543 L 611.738 1056.34 L 0 1056.34" stroke-linecap="round" />
</g>
</g>
</g>
<g transform="matrix(1.9211538461538462 0 0 1.9211538461538462 837.942244230769 482.83743489286866)" id="text-logo"  >
<g style=""  paint-order="stroke"   >
		<g transform="matrix(1 0 0 1 0 0)" id="text-logo-path-0"  >
<path style="stroke: none; stroke-width: 0; stroke-dasharray: none; stroke-linecap: butt; stroke-dashoffset: 0; stroke-linejoin: miter; stroke-miterlimit: 4; fill: rgb(68,60,4); fill-rule: nonzero; opacity: 1;"  paint-order="stroke"  transform=" translate(-206.06500000000003, 11.2)" d="M 9.54 -0.64 L 8.16 -0.64 L 8.16 -21.76 L 9.54 -21.76 C 12.42 -21.76 13.86 -18.14 13.86 -11.23 C 13.86 -4.45 12.64 -0.64 9.54 -0.64 Z M 1.28 0 L 9.54 0 C 15.04 0 19.62 -3.71 19.62 -11.23 C 19.62 -18.37 15.42 -22.4 9.54 -22.4 L 1.28 -22.4 L 1.28 -22.24 C 2.02 -22.02 2.4 -21.7 2.4 -21.28 L 2.4 -1.12 C 2.4 -0.7 2.02 -0.38 1.28 -0.16 Z M 32.96 0 L 48 0 L 48 -3.36 L 46.69 -3.36 C 46.4 -3.36 46.14 -3.26 45.89 -3.07 L 42.82 -0.64 L 37.12 -0.64 L 37.86 -1.25 C 39.14 -2.3 39.84 -3.81 39.84 -5.47 L 39.84 -10.66 L 40.64 -10.66 C 42.11 -10.66 43.23 -9.47 44.06 -7.94 L 44.22 -7.94 L 44.22 -14.02 L 44.06 -14.02 C 43.23 -12.48 42.11 -11.3 40.64 -11.3 L 39.84 -11.3 L 39.84 -19.42 C 40.03 -20.77 41.18 -21.76 42.66 -21.76 L 42.82 -21.76 L 45.89 -19.33 C 46.14 -19.14 46.4 -19.04 46.69 -19.04 L 48 -19.04 L 48 -22.4 L 42.66 -22.4 C 41.5 -22.4 40.48 -21.82 39.84 -20.99 L 39.84 -22.4 L 32.96 -22.4 L 32.96 -22.24 C 33.7 -22.02 34.08 -21.7 34.08 -21.28 L 34.08 -1.12 C 34.08 -0.7 33.7 -0.38 32.96 -0.16 Z M 70.82 0.16 C 74.24 0.16 75.68 0 77.02 0 L 77.02 -0.61 L 76.96 -3.36 L 75.65 -3.33 C 75.36 -3.33 75.1 -3.2 74.85 -3.01 L 71.84 -0.51 L 70.82 -0.48 C 68.54 -0.48 67.1 -4.26 67.1 -11.23 C 67.1 -17.95 68.35 -21.92 70.82 -21.92 L 71.2 -21.92 L 74.27 -19.33 C 74.53 -19.14 74.78 -19.04 75.07 -19.04 L 76.38 -19.04 L 76.38 -22.4 C 75.65 -22.4 73.79 -22.56 70.82 -22.56 C 65.86 -22.56 61.34 -18.78 61.34 -11.23 C 61.34 -4.03 65.54 0.16 70.82 0.16 Z M 91.49 -21.28 L 91.49 -1.12 C 91.49 -0.7 91.1 -0.38 90.37 -0.16 L 90.37 0 L 98.37 0 L 98.37 -0.16 C 97.63 -0.38 97.25 -0.7 97.25 -1.12 L 97.25 -10.62 L 98.34 -11.94 L 103.49 -1.02 C 103.68 -0.64 103.58 -0.38 102.85 -0.16 L 102.85 0 L 110.85 0 L 110.85 -0.16 C 110.11 -0.38 109.44 -0.64 109.25 -1.02 L 101.98 -16.42 L 106.14 -21.54 C 106.4 -21.86 107.23 -22.02 107.97 -22.24 L 107.97 -22.4 L 105.09 -22.4 L 105.09 -22.24 C 105.82 -22.02 105.76 -21.86 105.5 -21.54 L 97.25 -11.39 L 97.25 -21.28 C 97.25 -21.7 97.63 -22.02 98.37 -22.24 L 98.37 -22.4 L 90.37 -22.4 L 90.37 -22.24 C 91.1 -22.02 91.49 -21.7 91.49 -21.28 Z M 133.66 0.16 C 138.53 0.16 143.1 -3.71 143.1 -11.23 C 143.1 -18.37 138.91 -22.56 133.66 -22.56 C 128.7 -22.56 124.19 -18.78 124.19 -11.23 C 124.19 -4.03 128.38 0.16 133.66 0.16 Z M 129.95 -11.23 C 129.95 -17.95 131.2 -21.92 133.66 -21.92 C 135.9 -21.92 137.34 -18.14 137.34 -11.23 C 137.34 -4.45 136.13 -0.48 133.66 -0.48 C 131.39 -0.48 129.95 -4.26 129.95 -11.23 Z M 131.39 -11.23 C 132.26 -10.59 133.02 -9.82 133.66 -8.96 C 134.3 -9.82 135.07 -10.59 135.94 -11.23 C 135.07 -11.87 134.3 -12.64 133.66 -13.5 C 133.02 -12.64 132.26 -11.87 131.39 -11.23 Z M 159.33 0 L 166.21 0 L 165.73 -1.98 L 168.93 -15.14 L 172.35 -1.09 C 172.45 -0.67 172.22 -0.38 171.49 -0.16 L 171.49 0 L 178.37 0 L 177.89 -1.98 L 182.59 -21.31 C 182.69 -21.73 183.23 -22.02 183.97 -22.24 L 183.97 -22.4 L 181.09 -22.4 L 181.09 -22.24 C 181.82 -22.02 182.05 -21.73 181.95 -21.31 L 177.57 -3.3 L 173.18 -21.31 C 173.09 -21.73 173.31 -22.02 174.05 -22.24 L 174.05 -22.4 L 166.05 -22.4 L 166.05 -22.24 C 166.78 -22.02 167.33 -21.73 167.42 -21.31 L 168.61 -16.45 L 165.41 -3.3 L 161.02 -21.31 C 160.93 -21.73 161.15 -22.02 161.89 -22.24 L 161.89 -22.4 L 153.89 -22.4 L 153.89 -22.24 C 154.62 -22.02 155.17 -21.73 155.26 -21.31 L 160.19 -1.09 C 160.29 -0.67 160.06 -0.38 159.33 -0.16 Z M 228.96 -22.56 C 226.21 -22.56 222.4 -21.44 222.4 -17.6 C 222.4 -15.68 223.46 -13.98 225.02 -13.15 C 222.56 -12.19 220.9 -10.08 220.9 -7.14 C 220.9 -3.07 224.13 0.16 228.19 0.16 L 239.26 0.16 L 239.26 0.03 C 238.59 -0.19 238.24 -0.48 238.24 -0.86 L 238.24 -7.97 C 238.24 -9.86 236.86 -11.2 235.01 -11.2 L 231.46 -11.2 L 231.46 -10.98 C 232.51 -10.66 233.06 -10.18 233.06 -9.6 L 233.06 -0.48 L 229.44 -0.48 C 227.62 -0.48 226.5 -3.52 226.5 -7.14 C 226.5 -10.75 228.83 -13.12 231.17 -13.12 L 231.17 -13.73 L 230.24 -13.73 C 229.06 -14.21 228.16 -15.65 228.16 -17.6 C 228.16 -19.52 228.64 -21.22 229.44 -21.86 L 229.82 -21.86 L 232.9 -19.33 C 233.15 -19.14 233.41 -19.04 233.7 -19.04 L 235.01 -19.04 L 235.01 -22.4 C 232.77 -22.4 232.42 -22.56 228.96 -22.56 Z M 277.31 -21.28 L 277.31 -1.12 C 277.31 -0.7 276.93 -0.38 276.19 -0.16 L 276.19 0 L 284.19 0 L 284.19 -0.16 C 283.46 -0.38 283.07 -0.7 283.07 -1.12 L 283.07 -10.62 L 284.16 -11.94 L 289.31 -1.02 C 289.5 -0.64 289.41 -0.38 288.67 -0.16 L 288.67 0 L 296.67 0 L 296.67 -0.16 C 295.94 -0.38 295.26 -0.64 295.07 -1.02 L 287.81 -16.42 L 291.97 -21.54 C 292.22 -21.86 293.06 -22.02 293.79 -22.24 L 293.79 -22.4 L 290.91 -22.4 L 290.91 -22.24 C 291.65 -22.02 291.58 -21.86 291.33 -21.54 L 283.07 -11.39 L 283.07 -21.28 C 283.07 -21.7 283.46 -22.02 284.19 -22.24 L 284.19 -22.4 L 276.19 -22.4 L 276.19 -22.24 C 276.93 -22.02 277.31 -21.7 277.31 -21.28 Z M 311.14 -21.28 L 311.14 -1.12 C 311.14 -0.7 310.75 -0.38 310.02 -0.16 L 310.02 0 L 318.02 0 L 318.02 -0.16 C 317.28 -0.38 316.9 -0.7 316.9 -1.12 L 316.9 -21.28 C 316.9 -21.7 317.28 -22.02 318.02 -22.24 L 318.02 -22.4 L 310.02 -22.4 L 310.02 -22.24 C 310.75 -22.02 311.14 -21.7 311.14 -21.28 Z M 331.36 0 L 346.4 0 L 346.4 -3.36 L 345.09 -3.36 C 344.8 -3.36 344.54 -3.26 344.29 -3.07 L 341.22 -0.64 L 335.52 -0.64 L 336.26 -1.25 C 337.54 -2.3 338.24 -3.81 338.24 -5.47 L 338.24 -10.66 L 339.04 -10.66 C 340.51 -10.66 341.63 -9.47 342.46 -7.94 L 342.62 -7.94 L 342.62 -14.02 L 342.46 -14.02 C 341.63 -12.48 340.51 -11.3 339.04 -11.3 L 338.24 -11.3 L 338.24 -19.42 C 338.43 -20.77 339.58 -21.76 341.06 -21.76 L 341.22 -21.76 L 344.29 -19.33 C 344.54 -19.14 344.8 -19.04 345.09 -19.04 L 346.4 -19.04 L 346.4 -22.4 L 341.06 -22.4 C 339.9 -22.4 338.88 -21.82 338.24 -20.99 L 338.24 -22.4 L 331.36 -22.4 L 331.36 -22.24 C 332.1 -22.02 332.48 -21.7 332.48 -21.28 L 332.48 -1.12 C 332.48 -0.7 332.1 -0.38 331.36 -0.16 Z M 360.86 -21.28 L 360.86 -1.12 C 360.86 -0.7 360.48 -0.38 359.74 -0.16 L 359.74 0 L 367.74 0 L 367.74 -0.16 C 367.01 -0.38 366.62 -0.7 366.62 -1.12 L 366.62 -10.88 L 372.7 -10.88 L 372.7 -1.12 C 372.7 -0.7 372.32 -0.38 371.58 -0.16 L 371.58 0 L 379.58 0 L 379.58 -0.16 C 378.85 -0.38 378.46 -0.7 378.46 -1.12 L 378.46 -21.28 C 378.46 -21.7 378.85 -22.02 379.58 -22.24 L 379.58 -22.4 L 371.58 -22.4 L 371.58 -22.24 C 372.32 -22.02 372.7 -21.7 372.7 -21.28 L 372.7 -11.52 L 366.62 -11.52 L 366.62 -21.28 C 366.62 -21.7 367.01 -22.02 367.74 -22.24 L 367.74 -22.4 L 359.74 -22.4 L 359.74 -22.24 C 360.48 -22.02 360.86 -21.7 360.86 -21.28 Z M 399.33 -22.4 L 392.93 -22.4 L 394.05 -20.83 L 394.05 -1.12 C 394.05 -0.7 393.66 -0.38 392.93 -0.16 L 392.93 0 L 395.81 0 L 395.81 -0.16 C 395.07 -0.38 394.69 -0.7 394.69 -1.12 L 394.69 -19.97 L 409.09 0 L 409.73 0 L 409.73 -21.28 C 409.73 -21.7 410.11 -22.02 410.85 -22.24 L 410.85 -22.4 L 407.97 -22.4 L 407.97 -22.24 C 408.7 -22.02 409.09 -21.7 409.09 -21.28 L 409.09 -8.9 Z" stroke-linecap="round" />
</g>
</g>
</g>
<g transform="matrix(1.9211538461538462 0 0 1.9211538461538462 839.8747448918268 548.340859034109)" id="tagline-7b7843af-933a-42ee-99e4-092d144ad5c9-logo"  >
<g style=""  paint-order="stroke"   >
		<g transform="matrix(1 0 0 1 0 0)" id="tagline-7b7843af-933a-42ee-99e4-092d144ad5c9-logo-path-0"  >
<path style="stroke: none; stroke-width: 0; stroke-dasharray: none; stroke-linecap: butt; stroke-dashoffset: 0; stroke-linejoin: miter; stroke-miterlimit: 4; fill: rgb(74,61,40); fill-rule: nonzero; opacity: 1;"  paint-order="stroke"  transform=" translate(-78.41499999999999, 7.505)" d="M 2.77 0 L 9.98 0 L 9.98 -0.88 L 3.78 -0.88 L 3.78 -7.75 L 9.18 -7.75 L 9.18 -8.61 L 3.78 -8.61 L 3.78 -14.13 L 9.74 -14.13 L 9.74 -15.01 L 2.77 -15.01 Z M 22.84 -1.66 L 22.34 -0.9 C 23.4 -0.13 24.69 0.26 26.2 0.26 C 27.7 0.26 28.88 -0.07 29.73 -0.73 C 30.58 -1.37 31.01 -2.34 31.01 -3.61 C 31.01 -4.37 30.78 -5.07 30.32 -5.71 C 29.86 -6.36 29.29 -6.91 28.64 -7.37 C 27.98 -7.83 27.32 -8.29 26.67 -8.73 C 26 -9.17 25.45 -9.67 24.99 -10.24 C 24.52 -10.81 24.29 -11.42 24.29 -12.08 C 24.29 -13.59 25.31 -14.35 27.35 -14.35 C 28.36 -14.33 29.37 -14.12 30.4 -13.69 L 30.76 -14.51 C 29.68 -15.01 28.51 -15.27 27.26 -15.27 C 26.01 -15.27 25.02 -14.98 24.29 -14.4 C 23.55 -13.81 23.18 -13.03 23.18 -12.04 C 23.18 -11.28 23.42 -10.57 23.88 -9.92 C 24.34 -9.25 24.89 -8.69 25.55 -8.21 C 26.21 -7.73 26.86 -7.27 27.53 -6.82 C 28.18 -6.36 28.75 -5.84 29.21 -5.28 C 29.67 -4.72 29.9 -4.11 29.9 -3.49 C 29.9 -2.57 29.58 -1.89 28.93 -1.4 C 28.29 -0.92 27.36 -0.68 26.16 -0.68 C 24.95 -0.68 23.85 -1 22.84 -1.66 Z M 43 -14.13 L 48.08 -14.13 L 48.08 0 L 49.09 0 L 49.09 -14.13 L 54.17 -14.13 L 54.17 -15.01 L 43 -15.01 Z M 83.47 -0.82 L 83.47 0 L 93.43 0 L 93.43 -0.86 L 85.05 -0.86 C 87.36 -2.84 89.21 -4.72 90.58 -6.51 C 91.94 -8.31 92.63 -9.9 92.63 -11.29 C 92.63 -12.68 92.22 -13.7 91.4 -14.32 C 90.57 -14.95 89.5 -15.27 88.2 -15.27 C 86.89 -15.27 85.54 -15.02 84.17 -14.53 L 84.43 -13.69 C 85.66 -14.13 86.86 -14.35 88.04 -14.35 C 89.22 -14.35 90.09 -14.12 90.67 -13.67 C 91.26 -13.21 91.54 -12.38 91.54 -11.16 C 91.54 -9.94 90.81 -8.42 89.36 -6.61 C 87.89 -4.81 85.93 -2.88 83.47 -0.82 Z M 105.1 -13.13 L 105.45 -12.48 L 107.83 -13.73 L 107.83 0 L 108.84 0 L 108.84 -15.01 L 108.2 -15.01 Z M 122.61 -0.82 L 122.61 0 L 132.56 0 L 132.56 -0.86 L 124.18 -0.86 C 126.49 -2.84 128.34 -4.72 129.71 -6.51 C 131.08 -8.31 131.76 -9.9 131.76 -11.29 C 131.76 -12.68 131.35 -13.7 130.53 -14.32 C 129.7 -14.95 128.63 -15.27 127.33 -15.27 C 126.02 -15.27 124.68 -15.02 123.3 -14.53 L 123.56 -13.69 C 124.79 -14.13 125.99 -14.35 127.17 -14.35 C 128.35 -14.35 129.22 -14.12 129.8 -13.67 C 130.39 -13.21 130.68 -12.38 130.68 -11.16 C 130.68 -9.94 129.95 -8.42 128.49 -6.61 C 127.02 -4.81 125.07 -2.88 122.61 -0.82 Z M 145.53 -14.09 L 152.88 -14.09 L 146.92 0 L 148.03 0 L 154.06 -14.3 L 154.06 -15.01 L 145.53 -15.01 Z" stroke-linecap="round" />
</g>
</g>
</g>
<g transform="matrix(0.18404357979913977 0 0 0.1840435797991398 297.7755331370706 451.3972549323895)" id="shape-da81d0c5-0600-4935-af21-b447cb19f697"  >
<g style=""  paint-order="stroke"   >
		<g transform="matrix(1 0 0 1 0 91.80000000000003)" id="path-01"  >
<polygon style="stroke: none; stroke-width: 1; stroke-dasharray: none; stroke-linecap: butt; stroke-dashoffset: 0; stroke-linejoin: miter; stroke-miterlimit: 4; fill: rgb(247,232,129); fill-rule: nonzero; opacity: 1;"  paint-order="stroke"  points="-129.3,-10.200000000000017 -134.2,10.199999999999989 134.2,10.199999999999989 129.3,-10.200000000000017 " />
</g>
		<g transform="matrix(1 0 0 1 0 -15.200000000000003)" id="path-01"  >
<path style="stroke: none; stroke-width: 1; stroke-dasharray: none; stroke-linecap: butt; stroke-dashoffset: 0; stroke-linejoin: miter; stroke-miterlimit: 4; fill: rgb(247,232,129); fill-rule: nonzero; opacity: 1;"  paint-order="stroke"  transform=" translate(-150, -86.8)" d="M 279.3 173.6 L 300 57 L 250.3 76.2 L 248.8 83.7 C 245.3 100.7 230.4 113 213 113 C 203.2 113 194.3 109.2 187.7 102.9 C 181.1 96.60000000000001 176.89999999999998 87.9 176.5 78.10000000000001 L 174.8 39.50000000000001 L 150 0 L 125.2 39.5 L 123.5 78.1 C 122.6 97.6 106.5 113 87 113 C 78.3 113 70.2 109.9 63.9 104.8 C 57.6 99.6 53 92.3 51.2 83.8 L 49.7 76.3 L 0 57 L 20.7 173.6 L 279.3 173.6 z M 150 101.8 L 173.7 128.5 L 150 155.2 L 126.3 128.5 L 150 101.8 z" stroke-linecap="round" />
</g>
</g>
</g>
<g transform="matrix(0.19663761577126335 0 0 0.19663761577126335 134.7402478923333 452.4869740488334)" id="shape-4bf2b71d-54a7-41e4-8975-037ce7d4b5ec"  >
<g style=""  paint-order="stroke"   >
		<g transform="matrix(1 0 0 1 0 0)" id="path-01_00000127007445671841390450000012627416462350991277_"  >
<path style="stroke: none; stroke-width: 1; stroke-dasharray: none; stroke-linecap: butt; stroke-dashoffset: 0; stroke-linejoin: miter; stroke-miterlimit: 4; fill: rgb(247,232,129); fill-rule: nonzero; opacity: 1;"  paint-order="stroke"  transform=" translate(-125, -125)" d="M 250 91.85309 L 250 158.14702 L 230.03186 158.14702 L 230.03186 158.14691 C 230.03186 149.54504 223.05873 142.57191 214.45687999999998 142.57191 L 142.57180999999997 142.57191 L 142.57180999999997 214.45698 C 142.57180999999997 223.05883 149.54493999999997 230.03196 158.14680999999996 230.03196 L 158.14691999999997 230.03196 L 158.14691999999997 250 L 91.85298 250 L 91.85298 230.03197 L 91.85309000000001 230.03197 C 100.45496000000001 230.03197 107.42809000000001 223.05884 107.42809000000001 214.45699 L 107.42809000000001 142.57191999999998 L 35.54302 142.57191999999998 C 26.941159999999996 142.57191999999998 19.96803 149.54504999999997 19.96803 158.14691999999997 L 19.96803 158.14702999999997 L 0 158.14702999999997 L 0 91.85309 L 19.96803 91.85309 C 19.96803 100.45496 26.94116 107.42809 35.54302 107.42809 L 107.42809 107.42809 L 107.42809 35.54302 C 107.42809 26.941159999999996 100.45496 19.96803 91.85309 19.96803 L 91.85297999999999 19.96803 L 91.85297999999999 0 L 158.14691 0 L 158.14691 19.96803 L 158.14679999999998 19.96803 C 149.54493 19.96803 142.5718 26.94116 142.5718 35.54302 L 142.5718 107.42809 L 214.45686999999998 107.42809 C 223.05872 107.42809 230.03185 100.45496 230.03185 91.85309 L 250 91.85309 z M 31.39351 65.82573 L 54.515010000000004 65.82573 L 54.515010000000004 88.94722999999999 C 54.515010000000004 91.71399999999998 52.272090000000006 93.95692 49.505430000000004 93.95692 L 49.505320000000005 93.95692 L 49.505320000000005 100.3796 L 70.82852 100.3796 L 70.82852 93.95692 C 68.06175 93.95692 65.81882999999999 91.714 65.81882999999999 88.94722999999999 L 65.81882999999999 65.82573 L 88.94044 65.82573 C 91.7071 65.82573 93.95002 68.06863999999999 93.95002 70.83541 L 100.3727 70.83541 L 100.3727 49.512209999999996 L 93.95002 49.512209999999996 C 93.95002 52.27898 91.7071 54.521899999999995 88.94044 54.521899999999995 L 65.81883 54.521899999999995 L 65.81883 31.40029 C 65.81883 28.633629999999997 68.06175 26.39071 70.82852000000001 26.39071 L 70.82852000000001 19.96803 L 49.50532000000001 19.96803 L 49.50532000000001 26.39071 L 49.50543000000001 26.39071 C 52.27210000000001 26.39071 54.51501000000001 28.633629999999997 54.51501000000001 31.40029 L 54.51501000000001 54.5219 L 31.39351000000001 54.5219 C 28.62674000000001 54.5219 26.38382000000001 52.278980000000004 26.38382000000001 49.51221 L 19.96125000000001 49.51221 L 19.96125000000001 70.83541 L 26.38382000000001 70.83541 C 26.38382 68.06864 28.62673 65.82573 31.39351 65.82573 z M 161.01939 54.5219 C 158.25261999999998 54.5219 156.00981 52.278980000000004 156.00981 49.51221 L 149.58713999999998 49.51221 L 149.58713999999998 70.83541 L 156.00981 70.83541 C 156.00981 68.06864 158.25261999999998 65.82573 161.01939 65.82573 L 184.141 65.82573 L 184.141 88.94722999999999 C 184.141 91.71399999999998 181.89808 93.95692 179.13130999999998 93.95692 L 179.13130999999998 100.3796 L 200.45441 100.3796 L 200.45441 93.95692 C 197.68764 93.95692 195.44483 91.714 195.44483 88.94722999999999 L 195.44483 65.82573 L 218.56634 65.82573 C 221.33311 65.82573 223.57591 68.06863999999999 223.57591 70.83541 L 229.99858999999998 70.83541 L 229.99858999999998 49.512209999999996 L 223.57590999999996 49.512209999999996 C 223.57590999999996 52.27898 221.33310999999998 54.521899999999995 218.56633999999997 54.521899999999995 L 195.44482999999997 54.521899999999995 L 195.44482999999997 31.40029 C 195.44482999999997 28.633629999999997 197.68763999999996 26.39071 200.45440999999997 26.39071 L 200.45440999999997 19.96803 L 179.13130999999996 19.96803 L 179.13130999999996 26.39071 C 181.89807999999996 26.39071 184.14099999999996 28.633629999999997 184.14099999999996 31.40029 L 184.14099999999996 54.5219 L 161.01939 54.5219 z M 88.94044 195.4781 C 91.7071 195.4781 93.95002 197.72102 93.95002 200.48779000000002 L 100.3727 200.48779000000002 L 100.3727 179.16458000000003 L 93.95002 179.16458000000003 C 93.95002 181.93135000000004 91.7071 184.17427000000004 88.94044 184.17427000000004 L 65.81883 184.17427000000004 L 65.81883 161.05266000000003 C 65.81883 158.28600000000003 68.06175 156.04309000000003 70.82852000000001 156.04309000000003 L 70.82852000000001 149.62041000000005 L 49.50532000000001 149.62041000000005 L 49.50532000000001 156.04309000000006 L 49.50543000000001 156.04309000000006 C 52.27210000000001 156.04309000000006 54.51501000000001 158.28599000000006 54.51501000000001 161.05266000000006 L 54.51501000000001 184.17427000000006 L 31.39351000000001 184.17427000000006 C 28.62674000000001 184.17427000000006 26.38382000000001 181.93135000000007 26.38382000000001 179.16458000000006 L 19.96125000000001 179.16458000000006 L 19.96125000000001 200.48779000000005 L 26.38382000000001 200.48779000000005 C 26.38382000000001 197.72102000000004 28.626740000000012 195.47810000000004 31.39351000000001 195.47810000000004 L 54.51501000000001 195.47810000000004 L 54.51501000000001 218.59971000000004 C 54.51501000000001 221.36637000000005 52.27209000000001 223.60929000000004 49.50543000000001 223.60929000000004 L 49.50532000000001 223.60929000000004 L 49.50532000000001 230.03196000000005 L 70.82852000000001 230.03196000000005 L 70.82852000000001 223.60929000000004 C 68.06175000000002 223.60929000000004 65.81883 221.36637000000005 65.81883 218.59971000000004 L 65.81883 195.4781 L 88.94044 195.4781 z M 218.56635 184.17427 L 195.44484 184.17427 L 195.44484 161.05266 C 195.44484 158.286 197.68765 156.04309 200.45442 156.04309 L 200.45442 149.62041 L 179.13132 149.62041 L 179.13132 156.04309 C 181.89809 156.04309 184.14101 158.28599 184.14101 161.05266 L 184.14101 184.17427 L 161.0194 184.17427 C 158.25262999999998 184.17427 156.00982 181.93135 156.00982 179.16458 L 149.58714999999998 179.16458 L 149.58714999999998 200.48779 L 156.00982 200.48779 C 156.00982 197.72101999999998 158.25262999999998 195.47809999999998 161.0194 195.47809999999998 L 184.14101 195.47809999999998 L 184.14101 218.59971 C 184.14101 221.36637 181.89809 223.60929 179.13132 223.60929 L 179.13132 230.03196 L 200.45442 230.03196 L 200.45442 223.60929 C 197.68765 223.60929 195.44484 221.36637 195.44484 218.59971 L 195.44484 195.4781 L 218.56635 195.4781 C 221.33312 195.4781 223.57592 197.72102 223.57592 200.48779000000002 L 229.9986 200.48779000000002 L 229.9986 179.16458000000003 L 223.57592 179.16458000000003 C 223.57591 181.93135 221.33311 184.17427 218.56635 184.17427 z" stroke-linecap="round" />
</g>
</g>
</g>
</svg>