<?xml version="1.0" encoding="UTF-8" standalone="no" ?>
<!DOCTYPE svg PUBLIC "-//W3C//DTD SVG 1.1//EN" "http://www.w3.org/Graphics/SVG/1.1/DTD/svg11.dtd">
<svg xmlns="http://www.w3.org/2000/svg" xmlns:xlink="http://www.w3.org/1999/xlink" version="1.1" width="1280" height="1024" viewBox="0 0 1280 1024" xml:space="preserve">
<desc>Created with Fabric.js 4.4.0</desc>
<defs>
</defs>
<g transform="matrix(1 0 0 1 640 512)" id="background-logo"  >
<rect style="stroke: none; stroke-width: 0; stroke-dasharray: none; stroke-linecap: butt; stroke-dashoffset: 0; stroke-linejoin: miter; stroke-miterlimit: 4; fill: rgb(255,255,255); fill-opacity: 0; fill-rule: nonzero; opacity: 1;"  paint-order="stroke"  x="-640" y="-512" rx="0" ry="0" width="1280" height="1024" />
</g>
<g transform="matrix(1.9211538461538462 0 0 1.9211538461538462 639.9999999999999 464.1903109388326)" id="logo-logo"  >
<g style=""  paint-order="stroke"   >
		<g transform="matrix(2.705470061628991 0 0 2.37990681237626 0 0)"  >
<g style=""  paint-order="stroke"   >
		<g transform="matrix(1 0 0 1 0 0)"  >
<linearGradient id="SVGID_1_568123" gradientUnits="userSpaceOnUse" gradientTransform="matrix(1 0 0 1 0 0)"  x1="0" y1="0" x2="0" y2="36">
<stop offset="0%" style="stop-color:rgb(168,112,225);stop-opacity: 1"/>
<stop offset="100%" style="stop-color:rgb(125,44,206);stop-opacity: 1"/>
</linearGradient>
<path style="stroke: none; stroke-width: 1; stroke-dasharray: none; stroke-linecap: butt; stroke-dashoffset: 0; stroke-linejoin: miter; stroke-miterlimit: 4; fill: url(#SVGID_1_568123); fill-rule: nonzero; opacity: 1;"  paint-order="stroke"  transform=" translate(-100, -17.5)" d="M 187.1 4 L 195.4 17.5 L 187.1 31 L 12.9 31 L 4.7 17.5 L 12.9 4 L 187.1 4 M 189.3 0 L 10.7 0 L 0 17.5 L 10.7 35 L 189.29999999999998 35 L 200 17.5 L 189.3 0 L 189.3 0 z" stroke-linecap="round" />
</g>
</g>
</g>
</g>
</g>
<g transform="matrix(1.9211538461538462 0 0 1.9211538461538462 640 466.11313796657845)" id="text-logo"  >
<g style=""  paint-order="stroke"   >
		<g transform="matrix(1 0 0 1 0 0)" id="text-logo-path-0"  >
<linearGradient id="SVGID_568124" gradientUnits="userSpaceOnUse" gradientTransform="matrix(1 0 0 1 2.240000000000009 -39.2)"  x1="0" y1="0" x2="0" y2="63">
<stop offset="0%" style="stop-color:rgb(168,112,225);stop-opacity: 1"/>
<stop offset="100%" style="stop-color:rgb(125,44,206);stop-opacity: 1"/>
</linearGradient>
<path style="stroke: none; stroke-width: 0.6768099005070893; stroke-dasharray: none; stroke-linecap: butt; stroke-dashoffset: 0; stroke-linejoin: miter; stroke-miterlimit: 4; fill: url(#SVGID_568124); fill-rule: nonzero; opacity: 1;"  paint-order="stroke"  transform=" translate(-190.4, 19.57)" d="M 10.08 0 L 10.08 -12.88 L 2.24 -12.88 L 2.24 0 Z M 2.24 -15.68 L 30.8 -15.68 L 30.8 -23.52 L 10.08 -23.52 L 10.08 -27.27 C 10.08 -30.24 11.2 -31.36 14.17 -31.36 L 34.72 -31.36 L 34.72 -39.2 L 14.17 -39.2 C 7.39 -39.2 2.24 -34.05 2.24 -27.27 Z M 71.68 -7.78 L 51.13 -7.78 C 48.16 -7.78 47.04 -8.9 47.04 -11.87 L 47.04 -12.88 L 39.2 -12.88 L 39.2 -11.87 C 39.2 -5.1 44.35 0.06 51.13 0.06 L 71.68 0.06 Z M 39.2 -15.68 L 67.76 -15.68 L 67.76 -23.52 L 47.04 -23.52 L 47.04 -31.36 L 71.68 -31.36 L 71.68 -39.2 L 39.2 -39.2 Z M 76.16 -15.68 L 96.71 -15.68 C 99.68 -15.68 100.8 -14.56 100.8 -11.59 L 100.8 0 L 108.64 0 L 108.64 -11.59 C 108.64 -14.67 107.58 -17.47 105.73 -19.54 C 107.58 -21.56 108.64 -24.25 108.64 -27.27 C 108.64 -34.05 103.49 -39.2 96.71 -39.2 L 76.16 -39.2 Z M 76.16 0 L 84 0 L 84 -12.88 L 76.16 -12.88 Z M 84 -23.52 L 84 -31.36 L 96.71 -31.36 C 99.68 -31.36 100.8 -30.24 100.8 -27.27 C 100.8 -24.53 99.74 -23.52 96.71 -23.52 Z M 113.12 -15.68 L 133.67 -15.68 C 136.64 -15.68 137.76 -14.56 137.76 -11.59 L 137.76 0 L 145.6 0 L 145.6 -11.59 C 145.6 -14.67 144.54 -17.47 142.69 -19.54 C 144.54 -21.56 145.6 -24.25 145.6 -27.27 C 145.6 -34.05 140.45 -39.2 133.67 -39.2 L 113.12 -39.2 Z M 113.12 0 L 120.96 0 L 120.96 -12.88 L 113.12 -12.88 Z M 120.96 -23.52 L 120.96 -31.36 L 133.67 -31.36 C 136.64 -31.36 137.76 -30.24 137.76 -27.27 C 137.76 -24.53 136.7 -23.52 133.67 -23.52 Z M 157.92 -15.68 L 157.92 -27.27 C 157.92 -30.24 159.04 -31.36 162.01 -31.36 L 170.63 -31.36 C 173.6 -31.36 174.72 -30.24 174.72 -27.27 L 174.72 -11.93 C 174.72 -8.96 173.6 -7.84 170.63 -7.84 L 162.01 -7.84 C 159.04 -7.84 157.92 -8.96 157.92 -11.93 L 157.92 -12.88 L 150.08 -12.88 L 150.08 -11.93 C 150.08 -5.15 155.23 0 162.01 0 L 170.63 0 C 177.41 0 182.56 -5.15 182.56 -11.93 L 182.56 -27.27 C 182.56 -34.05 177.41 -39.2 170.63 -39.2 L 162.01 -39.2 C 155.23 -39.2 150.08 -34.05 150.08 -27.27 L 150.08 -15.68 Z M 187.04 -12.94 L 187.04 -11.93 C 187.04 -5.15 192.19 0 198.97 0 L 207.59 0 C 214.37 0 219.52 -5.15 219.52 -11.93 L 219.52 -39.2 L 211.68 -39.2 L 211.68 -11.93 C 211.68 -8.96 210.56 -7.84 207.59 -7.84 L 198.97 -7.84 C 196 -7.84 194.88 -8.96 194.88 -11.93 L 194.88 -12.94 Z M 187.04 -15.74 L 194.88 -15.74 L 194.88 -39.2 L 187.04 -39.2 Z M 252.56 -39.2 L 235.93 -39.2 C 229.15 -39.2 224 -34.05 224 -27.27 C 224 -20.61 229.21 -15.68 235.93 -15.68 L 244.55 -15.68 C 247.58 -15.68 248.64 -14.67 248.64 -11.93 C 248.64 -8.96 247.52 -7.84 244.55 -7.84 L 225.68 -7.84 L 225.68 0 L 244.55 0 C 251.33 0 256.48 -5.15 256.48 -11.93 C 256.48 -18.59 251.27 -23.52 244.55 -23.52 L 235.93 -23.52 C 232.9 -23.52 231.84 -24.53 231.84 -27.27 C 231.84 -30.24 232.96 -31.36 235.93 -31.36 L 252.56 -31.36 Z M 304.64 -7.84 L 284.09 -7.84 C 281.12 -7.84 280 -8.96 280 -11.93 L 280 -39.2 L 272.16 -39.2 L 272.16 -11.93 C 272.16 -5.15 277.31 0 284.09 0 L 304.64 0 Z M 309.12 -15.68 L 329.67 -15.68 C 336.39 -15.68 341.6 -20.61 341.6 -27.27 C 341.6 -34.05 336.45 -39.2 329.67 -39.2 L 309.12 -39.2 Z M 309.12 0 L 316.96 0 L 316.96 -12.88 L 309.12 -12.88 Z M 316.96 -23.52 L 316.96 -31.36 L 329.67 -31.36 C 332.64 -31.36 333.76 -30.24 333.76 -27.27 C 333.76 -24.53 332.7 -23.52 329.67 -23.52 Z M 369.6 -39.2 L 369.6 -27.61 C 369.6 -24.64 368.48 -23.52 365.51 -23.52 L 359.13 -23.52 C 356.16 -23.52 355.04 -24.64 355.04 -27.61 L 355.04 -39.2 L 347.2 -39.2 L 347.2 -27.61 C 347.2 -24.75 348.1 -22.23 349.66 -20.22 C 347.42 -18.09 346.08 -15.06 346.08 -11.59 L 346.08 0 L 353.92 0 L 353.92 -11.59 C 353.92 -14.56 355.04 -15.68 358.01 -15.68 L 366.63 -15.68 C 369.6 -15.68 370.72 -14.56 370.72 -11.59 L 370.72 0 L 378.56 0 L 378.56 -11.59 C 378.56 -15.06 377.22 -18.09 374.98 -20.22 C 376.54 -22.23 377.44 -24.75 377.44 -27.61 L 377.44 -39.2 Z" stroke-linecap="round" />
</g>
</g>
</g>
<g transform="matrix(1.9211538461538462 0 0 1.9211538461538462 640 598.1452559214906)" id="tagline-b72074bb-72b3-44de-b0e3-c1fdcb307b46-logo"  >
<g style=""  paint-order="stroke"   >
		<g transform="matrix(1 0 0 1 0 0)" id="tagline-b72074bb-72b3-44de-b0e3-c1fdcb307b46-logo-path-0"  >
<filter id="SVGID_568122" y="-131.11111111111111%" height="362.22222222222223%" x="-25.845156490780596%" width="151.6903129815612%" >
	<feGaussianBlur in="SourceAlpha" stdDeviation="11"></feGaussianBlur>
	<feOffset dx="0" dy="0" result="oBlur" ></feOffset>
	<feFlood flood-color="rgb(0,0,0)" flood-opacity="1"/>
	<feComposite in2="oBlur" operator="in" />
	<feMerge>
		<feMergeNode></feMergeNode>
		<feMergeNode in="SourceGraphic"></feMergeNode>
	</feMerge>
</filter>
<path style="stroke: rgb(255,255,255); stroke-width: 0; stroke-dasharray: none; stroke-linecap: butt; stroke-dashoffset: 0; stroke-linejoin: miter; stroke-miterlimit: 4; fill: rgb(130,49,211); fill-rule: nonzero; opacity: 1;filter: url(#SVGID_568122);"  paint-order="stroke"  transform=" translate(-189.07, 7.700000000000001)" d="M 3.96 0 L 3.96 -5.06 L 0.88 -5.06 L 0.88 0 Z M 0.88 -6.16 L 3.96 -6.16 L 3.96 -10.71 C 3.96 -11.88 4.4 -12.32 5.57 -12.32 L 6.75 -12.32 C 7.92 -12.32 8.36 -11.88 8.36 -10.71 L 8.36 0 L 11.44 0 L 11.44 -10.71 C 11.44 -11.88 11.88 -12.32 13.05 -12.32 L 14.23 -12.32 C 15.4 -12.32 15.84 -11.88 15.84 -10.71 L 15.84 0 L 18.92 0 L 18.92 -10.71 C 18.92 -13.38 16.9 -15.4 14.23 -15.4 L 13.05 -15.4 C 11.81 -15.4 10.71 -14.96 9.9 -14.23 C 9.09 -14.96 7.99 -15.4 6.75 -15.4 L 5.57 -15.4 C 2.9 -15.4 0.88 -13.38 0.88 -10.71 Z M 24.13 -15.4 L 24.13 0 L 27.21 0 L 27.21 -15.4 Z M 45.19 -3.08 L 37.11 -3.08 C 35.95 -3.08 35.51 -3.52 35.51 -4.69 L 35.51 -15.4 L 32.43 -15.4 L 32.43 -4.69 C 32.43 -2.02 34.45 0 37.11 0 L 45.19 0 Z M 50.4 -15.4 L 50.4 0 L 53.48 0 L 53.48 -15.4 Z M 63.76 -11.22 L 63.76 0 L 66.84 0 L 66.84 -11.22 Z M 58.7 -12.32 L 71.9 -12.32 L 71.9 -15.4 L 58.7 -15.4 Z M 89.87 0 L 89.87 -10.71 C 89.87 -13.38 87.85 -15.4 85.18 -15.4 L 81.8 -15.4 C 79.13 -15.4 77.11 -13.38 77.11 -10.71 L 77.11 0 L 80.19 0 L 80.19 -10.71 C 80.19 -11.88 80.63 -12.32 81.8 -12.32 L 85.18 -12.32 C 86.35 -12.32 86.79 -11.88 86.79 -10.71 L 86.79 -9.24 L 81.29 -9.24 L 81.29 -6.16 L 86.79 -6.16 L 86.79 0 Z M 95.08 -6.16 L 103.16 -6.16 C 104.32 -6.16 104.76 -5.72 104.76 -4.55 L 104.76 0 L 107.84 0 L 107.84 -4.55 C 107.84 -5.76 107.43 -6.86 106.7 -7.68 C 107.43 -8.47 107.84 -9.53 107.84 -10.71 C 107.84 -13.38 105.82 -15.4 103.16 -15.4 L 95.08 -15.4 Z M 95.08 0 L 98.16 0 L 98.16 -5.06 L 95.08 -5.06 Z M 98.16 -9.24 L 98.16 -12.32 L 103.16 -12.32 C 104.32 -12.32 104.76 -11.88 104.76 -10.71 C 104.76 -9.64 104.35 -9.24 103.16 -9.24 Z M 113.06 -15.4 L 113.06 -10.85 C 113.06 -8.18 115.08 -6.16 117.74 -6.16 L 121.13 -6.16 C 123.79 -6.16 125.82 -8.18 125.82 -10.85 L 125.82 -15.4 L 122.74 -15.4 L 122.74 -10.85 C 122.74 -9.68 122.3 -9.24 121.13 -9.24 L 117.74 -9.24 C 116.58 -9.24 116.14 -9.68 116.14 -10.85 L 116.14 -15.4 Z M 118.12 0 L 121.2 0 L 121.2 -5.06 L 118.12 -5.06 Z M 141.97 2.2 L 141.97 -17.6 L 138.89 -17.6 L 138.89 2.2 Z M 167.79 -10.34 L 167.79 -10.71 C 167.79 -13.38 165.77 -15.4 163.11 -15.4 L 159.72 -15.4 C 157.06 -15.4 155.03 -13.38 155.03 -10.71 L 155.03 -4.69 C 155.03 -2.02 157.06 0 159.72 0 L 163.11 0 C 165.77 0 167.79 -2.02 167.79 -4.69 L 167.79 -5.08 L 164.71 -5.08 L 164.71 -4.69 C 164.71 -3.52 164.27 -3.08 163.11 -3.08 L 159.72 -3.08 C 158.55 -3.08 158.11 -3.52 158.11 -4.69 L 158.11 -10.71 C 158.11 -11.88 158.55 -12.32 159.72 -12.32 L 163.11 -12.32 C 164.27 -12.32 164.71 -11.88 164.71 -10.71 L 164.71 -10.34 Z M 176.09 -6.16 L 176.09 -10.71 C 176.09 -11.88 176.53 -12.32 177.69 -12.32 L 181.08 -12.32 C 182.25 -12.32 182.69 -11.88 182.69 -10.71 L 182.69 -4.69 C 182.69 -3.52 182.25 -3.08 181.08 -3.08 L 177.69 -3.08 C 176.53 -3.08 176.09 -3.52 176.09 -4.69 L 176.09 -5.06 L 173.01 -5.06 L 173.01 -4.69 C 173.01 -2.02 175.03 0 177.69 0 L 181.08 0 C 183.74 0 185.77 -2.02 185.77 -4.69 L 185.77 -10.71 C 185.77 -13.38 183.74 -15.4 181.08 -15.4 L 177.69 -15.4 C 175.03 -15.4 173.01 -13.38 173.01 -10.71 L 173.01 -6.16 Z M 194.06 0 L 194.06 -5.06 L 190.98 -5.06 L 190.98 0 Z M 190.98 -6.16 L 194.06 -6.16 L 194.06 -10.71 C 194.06 -11.88 194.5 -12.32 195.67 -12.32 L 196.86 -12.32 C 198.02 -12.32 198.46 -11.88 198.46 -10.71 L 198.46 0 L 201.54 0 L 201.54 -10.71 C 201.54 -11.88 201.98 -12.32 203.15 -12.32 L 204.34 -12.32 C 205.5 -12.32 205.94 -11.88 205.94 -10.71 L 205.94 0 L 209.02 0 L 209.02 -10.71 C 209.02 -13.38 207 -15.4 204.34 -15.4 L 203.15 -15.4 C 201.92 -15.4 200.82 -14.96 200 -14.23 C 199.19 -14.96 198.09 -15.4 196.86 -15.4 L 195.67 -15.4 C 193.01 -15.4 190.98 -13.38 190.98 -10.71 Z M 214.24 -6.16 L 222.31 -6.16 C 223.48 -6.16 223.92 -5.72 223.92 -4.55 C 223.92 -3.48 223.5 -3.08 222.31 -3.08 L 217.32 -3.08 L 217.32 -5.06 L 214.24 -5.06 L 214.24 0 L 222.31 0 C 224.95 0 227 -1.94 227 -4.55 C 227 -6.09 226.31 -7.44 225.21 -8.27 C 225.65 -8.98 225.9 -9.81 225.9 -10.71 C 225.9 -13.38 223.87 -15.4 221.21 -15.4 L 214.24 -15.4 Z M 217.32 -9.24 L 217.32 -12.32 L 221.21 -12.32 C 222.38 -12.32 222.82 -11.88 222.82 -10.71 C 222.82 -9.64 222.4 -9.24 221.21 -9.24 Z M 244.97 0 L 244.97 -10.71 C 244.97 -13.38 242.95 -15.4 240.28 -15.4 L 236.9 -15.4 C 234.23 -15.4 232.21 -13.38 232.21 -10.71 L 232.21 0 L 235.29 0 L 235.29 -10.71 C 235.29 -11.88 235.73 -12.32 236.9 -12.32 L 240.28 -12.32 C 241.45 -12.32 241.89 -11.88 241.89 -10.71 L 241.89 -9.24 L 236.39 -9.24 L 236.39 -6.16 L 241.89 -6.16 L 241.89 0 Z M 255.24 -11.22 L 255.24 0 L 258.32 0 L 258.32 -11.22 Z M 250.18 -12.32 L 263.38 -12.32 L 263.38 -15.4 L 250.18 -15.4 Z M 279.53 2.2 L 279.53 -17.6 L 276.45 -17.6 L 276.45 2.2 Z M 292.6 -6.16 L 300.67 -6.16 C 301.84 -6.16 302.28 -5.72 302.28 -4.55 L 302.28 0 L 305.36 0 L 305.36 -4.55 C 305.36 -5.76 304.94 -6.86 304.22 -7.68 C 304.94 -8.47 305.36 -9.53 305.36 -10.71 C 305.36 -13.38 303.34 -15.4 300.67 -15.4 L 292.6 -15.4 Z M 292.6 0 L 295.68 0 L 295.68 -5.06 L 292.6 -5.06 Z M 295.68 -9.24 L 295.68 -12.32 L 300.67 -12.32 C 301.84 -12.32 302.28 -11.88 302.28 -10.71 C 302.28 -9.64 301.86 -9.24 300.67 -9.24 Z M 323.33 -3.06 L 315.26 -3.06 C 314.09 -3.06 313.65 -3.5 313.65 -4.66 L 313.65 -5.06 L 310.57 -5.06 L 310.57 -4.66 C 310.57 -2 312.6 0.02 315.26 0.02 L 323.33 0.02 Z M 310.57 -6.16 L 321.79 -6.16 L 321.79 -9.24 L 313.65 -9.24 L 313.65 -12.32 L 323.33 -12.32 L 323.33 -15.4 L 310.57 -15.4 Z M 341.31 -10.34 L 341.31 -10.71 C 341.31 -13.38 339.28 -15.4 336.62 -15.4 L 333.23 -15.4 C 330.57 -15.4 328.55 -13.38 328.55 -10.71 L 328.55 -4.69 C 328.55 -2.02 330.57 0 333.23 0 L 336.62 0 C 339.28 0 341.31 -2.02 341.31 -4.69 L 341.31 -5.08 L 338.23 -5.08 L 338.23 -4.69 C 338.23 -3.52 337.79 -3.08 336.62 -3.08 L 333.23 -3.08 C 332.07 -3.08 331.63 -3.52 331.63 -4.69 L 331.63 -10.71 C 331.63 -11.88 332.07 -12.32 333.23 -12.32 L 336.62 -12.32 C 337.79 -12.32 338.23 -11.88 338.23 -10.71 L 338.23 -10.34 Z M 349.6 -6.16 L 349.6 -10.71 C 349.6 -11.88 350.04 -12.32 351.21 -12.32 L 354.6 -12.32 C 355.76 -12.32 356.2 -11.88 356.2 -10.71 L 356.2 -4.69 C 356.2 -3.52 355.76 -3.08 354.6 -3.08 L 351.21 -3.08 C 350.04 -3.08 349.6 -3.52 349.6 -4.69 L 349.6 -5.06 L 346.52 -5.06 L 346.52 -4.69 C 346.52 -2.02 348.55 0 351.21 0 L 354.6 0 C 357.26 0 359.28 -2.02 359.28 -4.69 L 359.28 -10.71 C 359.28 -13.38 357.26 -15.4 354.6 -15.4 L 351.21 -15.4 C 348.55 -15.4 346.52 -13.38 346.52 -10.71 L 346.52 -6.16 Z M 367.58 0 L 367.58 -5.06 L 364.5 -5.06 L 364.5 0 Z M 364.5 -6.16 L 367.58 -6.16 L 367.58 -10.71 C 367.58 -11.88 368.02 -12.32 369.18 -12.32 L 372.57 -12.32 C 373.74 -12.32 374.18 -11.88 374.18 -10.71 L 374.18 0 L 377.26 0 L 377.26 -10.71 C 377.26 -13.38 375.23 -15.4 372.57 -15.4 L 369.18 -15.4 C 366.52 -15.4 364.5 -13.38 364.5 -10.71 Z" stroke-linecap="round" />
</g>
</g>
</g>
</svg>