<?xml version="1.0" encoding="UTF-8" standalone="no" ?>
<!DOCTYPE svg PUBLIC "-//W3C//DTD SVG 1.1//EN" "http://www.w3.org/Graphics/SVG/1.1/DTD/svg11.dtd">
<svg xmlns="http://www.w3.org/2000/svg" xmlns:xlink="http://www.w3.org/1999/xlink" version="1.1" width="690" height="210" viewBox="250 200 800 500" xml:space="preserve">
<desc>Created with Fabric.js 4.4.0</desc>
<defs>
</defs>
<g transform="matrix(1 0 0 1 640 512)" id="background-logo"  >
<rect style="stroke: none; stroke-width: 0; stroke-dasharray: none; stroke-linecap: butt; stroke-dashoffset: 0; stroke-linejoin: miter; stroke-miterlimit: 4; fill: rgb(255,255,255); fill-opacity: 0; fill-rule: nonzero; opacity: 1;"  paint-order="stroke"  x="-640" y="-512" rx="0" ry="0" width="1280" height="1024" />
</g>
<g transform="matrix(0.9222883669650055 0 0 0.9222883669650055 645.2671320858466 342.762610777022)" id="shape-2de649f8-6780-4a5e-99ec-c08bb9958209"  >
<g style=""  paint-order="stroke"   >
		<g transform="matrix(1 0 0 1 0 -2.842171e-14)" id="path-04"  >
<path style="stroke: none; stroke-width: 1; stroke-dasharray: none; stroke-linecap: butt; stroke-dashoffset: 0; stroke-linejoin: miter; stroke-miterlimit: 4; fill: rgb(34,33,31); fill-rule: nonzero; opacity: 1;"  paint-order="stroke"  transform=" translate(-121.59081538460367, -149.99599999999998)" d="M 243.2 169.3 C 243.29999999999998 171 242.2 172.5 240.6 172.8 L 231.79999999999998 174.70000000000002 L 231.79999999999998 174.70000000000002 C 233.2 188.9 238.79999999999998 246.40000000000003 238.89999999999998 252.70000000000002 C 238.89999999999998 261.1 224.99999999999997 285.8 191.79999999999998 294.6 C 181.99999999999997 297.20000000000005 164.39999999999998 300 144.79999999999998 300 C 112.09999999999998 300 73.69999999999999 292.1 56.09999999999998 261.7 C 42.59999999999998 238.5 37.39999999999998 209.39999999999998 33.19999999999998 186.1 C 30.799999999999983 172.7 28.69999999999998 161.1 25.59999999999998 154 C 21.19999999999998 143.8 17.39999999999998 135.1 13.99999999999998 127.5 C 5.3 108.1 0.5 97.4 0 90.4 C -0.6 82.4 9.9 69.2 14.5 63.800000000000004 C 24.9 51.7 38.5 39.800000000000004 53 30.200000000000003 C 84.6 9.4 135.1 -6.6 165.1 2.7 C 192.4 11.100000000000001 208.8 26.2 215.1 48.800000000000004 C 219 62.7 220.79999999999998 76.9 221.5 83.5 L 232 81.5 C 232.9 81.3 233.9 81.6 234.6 82.1 C 235.4 82.69999999999999 235.79999999999998 83.5 235.9 84.5 L 243.2 169.3 z" stroke-linecap="round" />
</g>
		<g transform="matrix(1 0 0 1 1.1534103965565379 -1.1045920449271307)" id="path-03"  >
<path style="stroke: none; stroke-width: 1; stroke-dasharray: none; stroke-linecap: butt; stroke-dashoffset: 0; stroke-linejoin: miter; stroke-miterlimit: 4; fill: rgb(187,180,180); fill-rule: nonzero; opacity: 1;"  paint-order="stroke"  transform=" translate(-122.74422578116021, -148.89140795507288)" d="M 21 94.4 C 20.5 90.7 18.5 87.80000000000001 16.3 88.10000000000001 C 14.200000000000001 88.4 12.9 91.60000000000001 13.3 95.30000000000001 C 13.8 99.00000000000001 15.8 101.9 18 101.60000000000001 C 20.1 101.4 21.5 98.2 21 94.4 z M 139.1 164.5 C 139.6 164.9 141.5 178.3 142.4 184.3 L 146.1 184.60000000000002 L 137.79999999999998 104.90000000000002 L 133.39999999999998 104.60000000000002 C 134.29999999999998 112.80000000000003 138.29999999999998 148.70000000000002 136.79999999999998 148.3 C 135.39999999999998 147.9 131.89999999999998 113.4 131.1 104.50000000000001 L 127.5 104.20000000000002 L 136.9 183.90000000000003 L 139.8 184.10000000000002 C 138.2 173.2 138.5 164 139.1 164.5 z M 138.2 161.1 C 137.39999999999998 160.7 137.39999999999998 159.29999999999998 138.2 158.9 C 139 158.4 140.2 159.1 140.2 160 C 140.2 160.9 139 161.6 138.2 161.1 z M 218.9 105.9 L 159.7 115.7 L 165.5 168.8 L 223.1 157.3 L 218.9 105.9 z M 191.2 130.4 C 194.5 125.60000000000001 202.89999999999998 114.5 204.1 115.10000000000001 C 205.2 115.7 200.4 121.00000000000001 196.29999999999998 126.00000000000001 C 192.29999999999998 131 187.1 138.10000000000002 186.79999999999998 137.70000000000002 C 186.4 137.1 188.2 134.8 191.2 130.4 z M 206.6 124.2 C 197.2 136 179.9 159.4 178.6 158.3 C 178.1 157.9 181.29999999999998 153.70000000000002 184.1 150.10000000000002 C 188 145.20000000000002 210.5 114.00000000000003 212.1 114.00000000000003 C 213.8 113.8 214.7 114 206.6 124.2 z M 218.9 105.9 L 159.7 115.7 L 165.5 168.8 L 223.1 157.3 L 218.9 105.9 z M 191.2 130.4 C 194.5 125.60000000000001 202.89999999999998 114.5 204.1 115.10000000000001 C 205.2 115.7 200.4 121.00000000000001 196.29999999999998 126.00000000000001 C 192.29999999999998 131 187.1 138.10000000000002 186.79999999999998 137.70000000000002 C 186.4 137.1 188.2 134.8 191.2 130.4 z M 206.6 124.2 C 197.2 136 179.9 159.4 178.6 158.3 C 178.1 157.9 181.29999999999998 153.70000000000002 184.1 150.10000000000002 C 188 145.20000000000002 210.5 114.00000000000003 212.1 114.00000000000003 C 213.8 113.8 214.7 114 206.6 124.2 z M 218.9 105.9 L 159.7 115.7 L 165.5 168.8 L 223.1 157.3 L 218.9 105.9 z M 191.2 130.4 C 194.5 125.60000000000001 202.89999999999998 114.5 204.1 115.10000000000001 C 205.2 115.7 200.4 121.00000000000001 196.29999999999998 126.00000000000001 C 192.29999999999998 131 187.1 138.10000000000002 186.79999999999998 137.70000000000002 C 186.4 137.1 188.2 134.8 191.2 130.4 z M 206.6 124.2 C 197.2 136 179.9 159.4 178.6 158.3 C 178.1 157.9 181.29999999999998 153.70000000000002 184.1 150.10000000000002 C 188 145.20000000000002 210.5 114.00000000000003 212.1 114.00000000000003 C 213.8 113.8 214.7 114 206.6 124.2 z M 229.7 88.8 L 144.5 104.7 L 152.8 184.7 L 236.3 167 L 229.7 88.8 z M 227.2 163.2 L 163.2 176 C 163 176 162.79999999999998 176.1 162.6 176.1 C 161.9 176.1 161.2 175.9 160.6 175.5 C 159.79999999999998 174.9 159.4 174.1 159.29999999999998 173.2 L 152.79999999999998 113.39999999999999 C 152.6 111.6 153.79999999999998 110.1 155.6 109.8 L 221.5 98.89999999999999 C 222.4 98.69999999999999 223.4 98.99999999999999 224.1 99.6 C 224.79999999999998 100.2 225.29999999999998 101 225.4 102 L 230.1 159.9 C 230 161.3 228.9 162.9 227.2 163.2 z M 159.7 115.7 L 165.5 168.8 L 223.1 157.3 L 219 105.9 L 159.7 115.7 z M 191.2 130.4 C 194.5 125.60000000000001 202.89999999999998 114.5 204.1 115.10000000000001 C 205.2 115.7 200.4 121.00000000000001 196.29999999999998 126.00000000000001 C 192.29999999999998 131 187.1 138.10000000000002 186.79999999999998 137.70000000000002 C 186.4 137.1 188.2 134.8 191.2 130.4 z M 206.6 124.2 C 197.2 136 179.9 159.4 178.6 158.3 C 178.1 157.9 181.29999999999998 153.70000000000002 184.1 150.10000000000002 C 188 145.20000000000002 210.5 114.00000000000003 212.1 114.00000000000003 C 213.8 113.8 214.7 114 206.6 124.2 z M 218.9 105.9 L 159.7 115.7 L 165.5 168.8 L 223.1 157.3 L 218.9 105.9 z M 191.2 130.4 C 194.5 125.60000000000001 202.89999999999998 114.5 204.1 115.10000000000001 C 205.2 115.7 200.4 121.00000000000001 196.29999999999998 126.00000000000001 C 192.29999999999998 131 187.1 138.10000000000002 186.79999999999998 137.70000000000002 C 186.4 137.1 188.2 134.8 191.2 130.4 z M 206.6 124.2 C 197.2 136 179.9 159.4 178.6 158.3 C 178.1 157.9 181.29999999999998 153.70000000000002 184.1 150.10000000000002 C 188 145.20000000000002 210.5 114.00000000000003 212.1 114.00000000000003 C 213.8 113.8 214.7 114 206.6 124.2 z M 21 94.4 C 20.5 90.7 18.5 87.80000000000001 16.3 88.10000000000001 C 14.200000000000001 88.4 12.9 91.60000000000001 13.3 95.30000000000001 C 13.8 99.00000000000001 15.8 101.9 18 101.60000000000001 C 20.1 101.4 21.5 98.2 21 94.4 z M 21.4 83.8 C 18 82.5 16.2 86.2 16.2 86.2 C 16.2 86.2 21.7 83.7 23.5 94 C 25.2 103.8 20.9 105.1 20.9 105.1 C 20.9 105.1 24.2 106.3 26.4 100.89999999999999 C 28.5 95.4 24.8 85 21.4 83.8 z M 21.4 83.8 C 18 82.5 16.2 86.2 16.2 86.2 C 16.2 86.2 21.7 83.7 23.5 94 C 25.2 103.8 20.9 105.1 20.9 105.1 C 20.9 105.1 24.2 106.3 26.4 100.89999999999999 C 28.5 95.4 24.8 85 21.4 83.8 z M 21 94.4 C 20.5 90.7 18.5 87.80000000000001 16.3 88.10000000000001 C 14.200000000000001 88.4 12.9 91.60000000000001 13.3 95.30000000000001 C 13.8 99.00000000000001 15.8 101.9 18 101.60000000000001 C 20.1 101.4 21.5 98.2 21 94.4 z M 225.3 176.1 L 153.60000000000002 191.29999999999998 L 152.40000000000003 191.49999999999997 C 152.20000000000005 191.59999999999997 152.00000000000003 191.59999999999997 151.70000000000005 191.59999999999997 C 151.60000000000005 191.59999999999997 151.50000000000006 191.59999999999997 151.50000000000006 191.59999999999997 L 146.90000000000006 191.19999999999996 L 133.80000000000007 190.19999999999996 C 132.20000000000007 190.09999999999997 130.90000000000006 188.79999999999995 130.70000000000007 187.29999999999995 L 120.50000000000007 100.89999999999995 C 120.40000000000008 99.89999999999995 120.70000000000007 98.89999999999995 121.40000000000008 98.19999999999995 C 122.10000000000008 97.49999999999994 123.00000000000007 97.09999999999995 124.00000000000007 97.19999999999995 L 137.10000000000008 98.09999999999995 L 141.60000000000008 98.39999999999995 L 143.80000000000007 97.99999999999994 L 215 84.8 C 214.4 78.6 212.6 64.19999999999999 208.8 50.599999999999994 C 203.5 32 191 19.4 169.8 11.4 C 169 11.700000000000001 167.3 11.9 164.60000000000002 11.9 C 156.00000000000003 11.700000000000001 144.20000000000002 12.9 133.70000000000002 14.600000000000001 C 116.50000000000001 17.5 100.80000000000001 22.900000000000002 100.20000000000002 22 C 99.60000000000002 21.2 109.40000000000002 18.3 120.60000000000002 15.1 C 133.90000000000003 11.2 150.00000000000003 8.7 163.8 9.3 C 163.60000000000002 9.200000000000001 163.4 9.200000000000001 163.20000000000002 9.100000000000001 C 144 3.1 106.9 8.5 72.2 26.6 C 66.9 29.400000000000002 60.7 36.1 55.6 39.400000000000006 C 48.300000000000004 44.2 43.6 49.800000000000004 37.8 55.10000000000001 C 18.799999999999997 72.4 8.799999999999997 86.20000000000002 9.199999999999996 91.5 C 9.599999999999996 97.4 15.199999999999996 105.6 23.199999999999996 123.8 C 26.599999999999994 131.4 30.399999999999995 142.4 34.8 152.7 C 38.199999999999996 160.5 41 174.39999999999998 43.5 188.29999999999998 C 47.6 211.1 52.8 234.2 65.6 256.4 C 79 279.5 105.6 288 126.3 290.2 C 149.5 292.59999999999997 173.4 289.4 188.2 285.5 C 199.29999999999998 282.6 209.6 280.4 216.1 275.1 C 227 266.3 231.9 256.40000000000003 231.9 252.8 C 232.2 247.6 227.9 202.4 225.3 176.1 z M 173.7 66.9 C 188.6 64.2 204.7 60.60000000000001 206.29999999999998 63.900000000000006 C 207.39999999999998 66.10000000000001 204.29999999999998 67.4 192.2 68.7 C 157.5 72.4 146.29999999999998 75.10000000000001 145.89999999999998 73.8 C 145.4 72.8 158.8 69.6 173.7 66.9 z M 170.5 76.7 C 193.5 72.10000000000001 209.1 68.9 209.8 72.4 C 210.20000000000002 74.80000000000001 209.4 78.10000000000001 179 81.2 C 148.6 84.3 133.2 87.9 132.8 86.5 C 132.4 85.3 147.5 81.3 170.5 76.7 z M 38.5 57 C 47.2 48.8 51.9 47.5 59.2 42.6 C 70.6 35 81.9 28.9 82.7 29.8 C 83.2 30.400000000000002 74 35.6 68.10000000000001 39.7 C 65.60000000000001 41.400000000000006 61.50000000000001 44.400000000000006 56.900000000000006 48 C 50.7 52.8 43.300000000000004 64.7 38.300000000000004 69.9 C 29.5 79 23 80.8 21.4 79 C 19.8 77.3 27.1 67.8 38.5 57 z M 17.2 105.1 C 17.2 105.1 13 103 11.6 96.19999999999999 C 10 88.39999999999999 13.2 87.1 13.2 87.1 C 13.2 87.1 14.299999999999999 82.6 18.4 81.3 C 22.5 80 28 85.1 29.5 94.6 C 31 103.69999999999999 27.3 106.89999999999999 24.2 107.89999999999999 C 20 109.3 17.2 105.1 17.2 105.1 z M 51.4 201 C 50.3 201.3 48.1 192.2 43.9 176.4 C 39.699999999999996 160.6 24.2 118.5 23.5 116.10000000000001 C 22.7 113.7 24.3 113.10000000000001 27.7 121.60000000000001 C 31.099999999999998 130.10000000000002 43.5 165 46.099999999999994 176.20000000000002 C 48.6 187.2 51.8 200.9 51.4 201 z M 126.3 285 C 90.9 281 75.9 266.5 69.69999999999999 254.4 C 63.49999999999997 242.3 57.4 226 58.5 223.2 C 59.2 221.29999999999998 60.9 224 61.3 225.2 C 64 234.1 70.6 255.7 84.4 267 C 98.2 278.3 130.5 282.5 145.2 283.2 C 163.29999999999998 284.09999999999997 172.7 282.9 172.7 283.59999999999997 C 172.7 285.1 161.6 289 126.3 285 z M 219 263.6 C 210.3 272.1 199.7 276.6 194 278.8 C 188.3 281 180.8 282.2 181 281.7 C 181.2 281 186.4 279.9 191.7 277.9 C 201.39999999999998 274.29999999999995 215.1 264.59999999999997 218.39999999999998 261 C 221.59999999999997 257.4 222.29999999999998 254.7 223.2 253.6 C 224.2 252.4 227.4 255.5 219 263.6 z M 26.3 100.8 C 28.5 95.3 24.8 85 21.4 83.69999999999999 C 18 82.39999999999999 16.2 86.1 16.2 86.1 C 16.2 86.1 21.7 83.6 23.5 93.89999999999999 C 25.2 103.69999999999999 20.9 104.99999999999999 20.9 104.99999999999999 C 20.9 104.99999999999999 24.1 106.3 26.3 100.8 z M 21 94.4 C 20.5 90.7 18.5 87.80000000000001 16.3 88.10000000000001 C 14.200000000000001 88.4 12.9 91.60000000000001 13.3 95.30000000000001 C 13.8 99.00000000000001 15.8 101.9 18 101.60000000000001 C 20.1 101.4 21.5 98.2 21 94.4 z M 21 94.4 C 20.5 90.7 18.5 87.80000000000001 16.3 88.10000000000001 C 14.200000000000001 88.4 12.9 91.60000000000001 13.3 95.30000000000001 C 13.8 99.00000000000001 15.8 101.9 18 101.60000000000001 C 20.1 101.4 21.5 98.2 21 94.4 z M 21.4 83.8 C 18 82.5 16.2 86.2 16.2 86.2 C 16.2 86.2 21.7 83.7 23.5 94 C 25.2 103.8 20.9 105.1 20.9 105.1 C 20.9 105.1 24.2 106.3 26.4 100.89999999999999 C 28.5 95.4 24.8 85 21.4 83.8 z M 21.4 83.8 C 18 82.5 16.2 86.2 16.2 86.2 C 16.2 86.2 21.7 83.7 23.5 94 C 25.2 103.8 20.9 105.1 20.9 105.1 C 20.9 105.1 24.2 106.3 26.4 100.89999999999999 C 28.5 95.4 24.8 85 21.4 83.8 z" stroke-linecap="round" />
</g>
		<g transform="matrix(1 0 0 1 -7.8976811214956655 9.52021906600794)" id="path-02"  >
<path style="stroke: none; stroke-width: 1; stroke-dasharray: none; stroke-linecap: butt; stroke-dashoffset: 0; stroke-linejoin: miter; stroke-miterlimit: 4; fill: rgb(144,134,132); fill-rule: nonzero; opacity: 1;"  paint-order="stroke"  transform=" translate(-113.693134263108, -159.51621906600795)" d="M 25.7 90.2 C 26.9 93.7 27.4 98 26.2 100.9 C 24 106.4 20.799999999999997 105.10000000000001 20.799999999999997 105.10000000000001 C 20.799999999999997 105.10000000000001 25.099999999999998 103.80000000000001 23.4 94.00000000000001 C 21.599999999999998 83.70000000000002 16.099999999999998 86.20000000000002 16.099999999999998 86.20000000000002 C 16.099999999999998 86.20000000000002 16.599999999999998 85.20000000000002 17.599999999999998 84.40000000000002 C 17.599999999999998 84.50000000000001 17.599999999999998 84.50000000000001 17.499999999999996 84.60000000000002 C 17.199999999999996 86.40000000000002 19.199999999999996 84.60000000000002 20.699999999999996 86.00000000000003 C 24.299999999999997 89.40000000000003 23.699999999999996 93.80000000000003 25.199999999999996 93.20000000000003 C 26 92.8 26 91.5 25.7 90.2 z M 56.7 35.8 C 62.400000000000006 31.999999999999996 68.3 28.699999999999996 74.2 25.599999999999998 C 70 29.499999999999996 64.5 35.199999999999996 60.300000000000004 41.9 C 52.7 46.9 44.800000000000004 52.7 39.800000000000004 57.7 C 28.600000000000005 68.7 22.500000000000004 76 24.000000000000004 77.7 C 25.600000000000005 79.4 29.800000000000004 73 38.5 63.900000000000006 C 43.6 58.60000000000001 50.7 52.7 57 47.800000000000004 C 56.2 49.400000000000006 55.6 51.00000000000001 55.1 52.7 C 45.2 84.4 76 212.8 108.9 258.2 C 120.10000000000001 273.7 135.20000000000002 281 151 283.4 C 149.1 283.4 147.2 283.29999999999995 145.1 283.2 C 130.5 282.5 98.1 278.3 84.39999999999999 267 C 70.6 255.7 63.99999999999999 234.2 61.29999999999999 225.2 C 60.89999999999999 223.89999999999998 59.19999999999999 221.29999999999998 58.49999999999999 223.2 C 57.39999999999999 226.1 63.599999999999994 242.29999999999998 69.69999999999999 254.29999999999998 C 75.89999999999999 266.4 90.89999999999999 280.9 126.29999999999998 284.9 C 158.39999999999998 288.59999999999997 170.5 285.7 172.39999999999998 284 C 190.7 282.6 208.29999999999998 276.7 220.7 271.2 C 213.79999999999998 277.8 203.79999999999998 284.5 190.1 288.09999999999997 C 175.2 291.99999999999994 148.8 295.4 123.19999999999999 292.09999999999997 C 102.6 289.49999999999994 75.29999999999998 281.4 61.89999999999999 258.29999999999995 C 48.99999999999999 236.09999999999997 43.89999999999999 207.69999999999996 39.79999999999999 184.89999999999995 C 37.29999999999999 171.09999999999994 35.09999999999999 159.19999999999996 31.79999999999999 151.29999999999995 C 27.39999999999999 140.99999999999994 23.49999999999999 132.39999999999995 20.19999999999999 124.79999999999995 C 12 106.7 7.1 95.8 6.7 89.9 C 6.1 83 25.2 56.5 56.7 35.8 z M 27.7 121.6 C 24.2 113.1 22.7 113.69999999999999 23.5 116.1 C 24.3 118.5 39.7 160.6 43.9 176.39999999999998 C 48.099999999999994 192.19999999999996 50.3 201.29999999999998 51.4 200.99999999999997 C 51.8 200.89999999999998 48.6 187.29999999999998 46.1 176.09999999999997 C 43.5 165 31.2 130 27.7 121.6 z M 18.5 81.3 C 14.4 82.6 13.3 87.1 13.3 87.1 C 13.3 87.1 10.100000000000001 88.39999999999999 11.700000000000001 96.19999999999999 C 13.100000000000001 102.99999999999999 17.3 105.1 17.3 105.1 C 17.3 105.1 20.1 109.3 24.3 107.89999999999999 C 27.400000000000002 106.89999999999999 31.1 103.69999999999999 29.6 94.6 C 28 85.1 22.5 80 18.5 81.3 z" stroke-linecap="round" />
</g>
		<g transform="matrix(1 0 0 1 69.80918461539632 -12.645999999999987)" id="path-01"  >
<path style="stroke: none; stroke-width: 1; stroke-dasharray: none; stroke-linecap: butt; stroke-dashoffset: 0; stroke-linejoin: miter; stroke-miterlimit: 4; fill: rgb(224,236,235); fill-rule: nonzero; opacity: 1;"  paint-order="stroke"  transform=" translate(-191.39999999999998, -137.35000000000002)" d="M 218.9 105.9 L 159.7 115.7 L 165.5 168.8 L 223.1 157.3 L 218.9 105.9 z M 191.2 130.4 C 194.5 125.60000000000001 202.89999999999998 114.5 204.1 115.10000000000001 C 205.2 115.7 200.4 121.00000000000001 196.29999999999998 126.00000000000001 C 192.29999999999998 131 187.1 138.10000000000002 186.79999999999998 137.70000000000002 C 186.4 137.1 188.2 134.8 191.2 130.4 z M 206.6 124.2 C 197.2 136 179.9 159.4 178.6 158.3 C 178.1 157.9 181.29999999999998 153.70000000000002 184.1 150.10000000000002 C 188 145.20000000000002 210.5 114.00000000000003 212.1 114.00000000000003 C 213.8 113.8 214.7 114 206.6 124.2 z" stroke-linecap="round" />
</g>
</g>
</g>
<g transform="matrix(2.9946595032750714 0 0 2.9946595032750714 649.4267091745771 563.517788092357)" id="shape-0b0cb1b1-e5f5-4302-a3ed-fb4240a64c60"  >
<g style=""  paint-order="stroke"   >
		<g transform="matrix(1 0 0 1 62.369389247280154 -39.75934988525348)" id="path-01"  >
<linearGradient id="SVGID_813096" gradientUnits="userSpaceOnUse" gradientTransform="matrix(1 0 0 1 164.0955559992509 0.00000169814551398417)"  x1="0" y1="0" x2="0" y2="6">
<stop offset="0%" style="stop-color:rgb(48,35,174);stop-opacity: 1"/>
<stop offset="100%" style="stop-color:rgb(200,109,215);stop-opacity: 1"/>
</linearGradient>
<path style="stroke: none; stroke-width: 1; stroke-dasharray: none; stroke-linecap: butt; stroke-dashoffset: 0; stroke-linejoin: miter; stroke-miterlimit: 4; fill: url(#SVGID_813096); fill-rule: nonzero; opacity: 1;"  paint-order="stroke"  transform=" translate(-187.3694021295371, -3.0854473843949806)" d="M 177.03323 4.46232 C 173.05735 3.75877 169.01336 2.93012 164.92884 2.38001 C 163.78574 2.22605 163.83215 1.1103 164.9854 0.99512 C 176.98369 -0.20328999999999997 189.18892 -0.3312299999999999 201.25014 0.6762600000000001 C 204.12444 0.9077000000000001 209.30207 1.00313 210.44361999999998 3.23666 C 211.07551999999998 4.4762900000000005 210.1582 5.19786 208.38474999999997 5.45689 C 206.28519999999997 5.756489999999999 204.10402999999997 5.8928199999999995 201.96367999999995 6.01519 C 193.54482999999996 6.478389999999999 185.18707999999995 5.89283 177.03322999999995 4.46233 L 177.03323 4.46232 z" stroke-linecap="round" />
</g>
		<g transform="matrix(1 0 0 1 -122.27770503642726 36.33014368112306)" id="path-01"  >
<linearGradient id="SVGID_813097" gradientUnits="userSpaceOnUse" gradientTransform="matrix(1 0 0 1 5.8601460439789e-7 72.66028906039163)"  x1="0" y1="0" x2="0" y2="13">
<stop offset="0%" style="stop-color:rgb(48,35,174);stop-opacity: 1"/>
<stop offset="100%" style="stop-color:rgb(200,109,215);stop-opacity: 1"/>
</linearGradient>
<path style="stroke: none; stroke-width: 1; stroke-dasharray: none; stroke-linecap: butt; stroke-dashoffset: 0; stroke-linejoin: miter; stroke-miterlimit: 4; fill: url(#SVGID_813097); fill-rule: nonzero; opacity: 1;"  paint-order="stroke"  transform=" translate(-2.7223078458296626, -79.17494095077151)" d="M 4.12177 73.27008 C 4.00291 72.56961999999999 3.05962 72.43271999999999 2.7433299999999994 73.06891999999999 C 1.9344599999999994 74.6959 0.8721599999999994 76.98441999999999 0.4790999999999994 78.51164999999999 C -0.1238200000000006 80.83530999999999 -0.6718900000000005 84.55107999999998 2.2438599999999997 85.55971 C 3.41673 85.96513999999999 4.458 85.38441999999999 4.99517 84.33192 C 5.6638 83.02759 5.44455 81.48214 5.23629 80.09002 C 4.9603 78.2522 4.46382 75.28571 4.12177 73.27008 z" stroke-linecap="round" />
</g>
		<g transform="matrix(1 0 0 1 0.7021152609202375 -5.182245909494377)" id="path-01"  >
<linearGradient id="SVGID_813098" gradientUnits="userSpaceOnUse" gradientTransform="matrix(1 0 0 1 1.4042311078550966 2.667320000000011)"  x1="0" y1="0" x2="0" y2="70">
<stop offset="0%" style="stop-color:rgb(48,35,174);stop-opacity: 1"/>
<stop offset="100%" style="stop-color:rgb(200,109,215);stop-opacity: 1"/>
</linearGradient>
<path style="stroke: none; stroke-width: 1; stroke-dasharray: none; stroke-linecap: butt; stroke-dashoffset: 0; stroke-linejoin: miter; stroke-miterlimit: 4; fill: url(#SVGID_813098); fill-rule: nonzero; opacity: 1;"  paint-order="stroke"  transform=" translate(-125.70212814317716, -37.662551360154076)" d="M 244.45203 47.63067 C 243.82724000000002 47.049690000000005 243.11472 46.56718 242.35839 46.172720000000005 C 241.61303 45.788970000000006 240.81289 45.52591 240.17710000000002 44.96687000000001 C 239.59618000000003 44.46269000000001 239.12485000000004 43.717400000000005 239.07000000000002 42.92821000000001 C 239.05909000000003 42.70877000000001 239.08097 42.50057000000001 239.12486 42.292370000000005 C 239.10293000000001 42.171940000000006 239.10293000000001 42.05125 239.14674000000002 41.908620000000006 C 240.03462000000002 38.65341000000001 237.69984000000002 35.91308000000001 235.06916 34.345420000000004 C 234.30186 33.885130000000004 233.67724 33.14808000000001 232.88787000000002 32.690250000000006 C 226.62107000000003 29.055550000000007 218.55045 30.585760000000008 211.34887000000003 29.741720000000008 C 215.72242000000003 29.65395000000001 220.08500000000004 29.566430000000008 224.45861000000002 29.47866000000001 C 226.31109000000004 29.445740000000008 228.17446 29.41283000000001 230.01601000000002 29.22657000000001 C 230.73941000000002 29.14977000000001 232.59584 28.93837000000001 233.73185 28.52490000000001 C 234.64671 28.19191000000001 235.46377 27.582370000000008 236.29684 27.08890000000001 C 237.46972 26.38749000000001 238.59869 25.52151000000001 239.42079 24.41441000000001 C 239.81538 23.86635000000001 240.15526 23.26368000000001 240.36345 22.61687000000001 C 240.68137 21.64143000000001 240.26483 21.04948000000001 239.64005 20.31488000000001 C 239.15775 19.72320000000001 238.62066000000002 19.17512000000001 238.06162 18.65971000000001 C 237.71084000000002 18.34179000000001 237.43337 17.902270000000012 236.9984 17.71718000000001 C 235.03032000000002 16.87974000000001 232.76728 17.09231000000001 230.94773 15.91937000000001 C 230.03791 15.33865000000001 230.60792 13.792940000000009 231.70406 14.13280000000001 C 234.20319 14.90004000000001 236.80103 15.33866000000001 239.42079999999999 15.05338000000001 C 240.70332 14.92198000000001 241.99676 14.58212000000001 243.18051999999997 14.05600000000001 C 244.19992999999997 13.59571000000001 245.70167999999998 12.90501000000001 246.08530999999996 11.73234000000001 C 246.46892999999997 10.61427000000001 245.60300999999995 9.45230000000001 244.69319999999996 8.88229000000001 C 243.53128999999996 8.13699000000001 242.01861999999997 8.10408000000001 240.67039999999997 8.12602000000001 C 237.49159999999998 8.180610000000009 234.31283999999997 8.46588000000001 231.14500999999998 8.65214000000001 C 219.65757 9.33188000000001 208.13720999999998 9.67147000000001 196.63878 9.93453000000001 C 190.89507 10.06619000000001 185.14038 10.21953000000001 179.39658 10.110080000000009 C 173.70766 10.00036000000001 168.10643 9.41938000000001 162.47229 8.608250000000009 C 156.98071 7.8081000000000085 151.53289999999998 7.369750000000009 145.97552 7.6437800000000085 C 140.64833 7.917810000000008 135.36497 8.641160000000008 130.08160999999998 9.33187000000001 C 120.07390999999998 10.625230000000009 109.48530999999998 12.082910000000009 99.52143999999998 9.71536000000001 C 97.07708999999998 10.16468000000001 94.56695999999998 10.24148000000001 92.12253999999999 9.82482000000001 C 90.96063999999998 9.61662000000001 91.26758999999998 7.80811000000001 92.38559 7.81908000000001 C 96.3317 7.85200000000001 100.25589 7.58893000000001 103.9827 6.185860000000011 C 104.87057 5.85697000000001 107.77534 4.95806000000001 106.50379 3.5772000000000106 C 105.90092999999999 2.9194200000000103 104.82674 2.8426100000000107 103.99367 2.7658000000000107 C 103.07289 2.6999700000000106 102.16315 2.667320000000011 101.24237 2.667320000000011 C 97.38401999999999 2.6782900000000107 93.55847999999999 3.291930000000011 89.75493 3.8619300000000107 C 86.01709 4.409990000000011 82.2793 4.903470000000011 78.50861 5.210150000000011 C 76.60135000000001 5.363750000000011 74.68383 5.532620000000011 72.76489000000001 5.517100000000011 C 71.71483 5.508540000000011 69.30330000000001 5.376610000000011 63.54223000000001 5.903260000000011 C 57.79244 6.42884 52.08135 7.3454 46.30424 7.66573 C 35.69369 8.24644 25.05023 8.12602 14.46163 7.28198 C 11.75415 7.06281 9.05771 6.76683 6.35023 6.50377 C 4.92527 6.3721 1.29707 5.55 1.40666 7.96171 C 1.49437 9.97842 3.29204 11.4254 5.03492 12.12679 C 7.40254 13.08055 9.89078 12.71874 12.33513 13.21195 C 13.33258 13.42042 13.29973 14.97684 12.33513 15.20699 C 10.70191 15.590739999999998 8.7727 15.61268 6.898289999999999 15.27282 C 6.996969999999999 15.73311 6.29543 16.46743 6.109109999999999 16.675639999999998 C 5.36375 17.53092 4.815689999999999 18.506359999999997 4.464919999999999 19.59152 C 4.1141499999999995 20.69862 3.9058799999999994 21.849619999999998 4.311439999999999 22.967689999999997 C 4.662209999999999 23.932159999999996 5.26507 24.776199999999996 5.484309999999999 25.78456 C 5.977579999999999 28.0646 4.125119999999999 29.68686 3.905869999999999 31.86814 C 3.818159999999999 32.8219 3.6318399999999986 34.27957 4.015449999999999 35.17848 C 4.486849999999999 36.26364 5.7692999999999985 35.55126 6.613279999999999 35.87989 C 6.722929999999999 35.92378 6.788699999999999 36.00058000000001 6.8763999999999985 36.055440000000004 C 7.139459999999999 36.09933 7.391549999999999 36.285590000000006 7.424459999999998 36.62545000000001 C 7.797099999999998 39.705650000000006 5.659639999999998 42.314310000000006 4.223709999999998 44.82450000000001 C 3.390699999999998 46.29314000000001 2.754929999999998 47.860800000000005 2.3493699999999977 49.50500000000001 C 2.239719999999998 49.94335000000001 1.6587999999999976 51.675320000000006 2.086309999999998 51.97130000000001 C 2.371249999999998 52.179500000000004 3.017999999999998 51.773810000000005 3.412589999999998 51.489070000000005 C 3.872939999999998 51.00656000000001 5.100669999999998 50.765460000000004 5.736389999999998 50.30516000000001 C 6.514659999999998 49.75710000000001 7.194259999999998 49.09930000000001 8.147899999999998 48.70485000000001 C 9.408479999999997 48.18943000000001 10.943019999999997 48.222620000000006 12.378949999999998 48.33207000000001 C 14.121829999999997 48.474700000000006 15.831789999999998 48.70485000000001 17.51981 49.04471000000001 C 18.48441 49.24194000000001 19.64631 49.65834000000001 19.62443 50.38170000000001 C 19.60249 50.809340000000006 19.15303 51.17114000000001 18.63788 51.34643000000001 C 18.11176 51.53296000000001 17.51981 51.56560000000001 16.93889 51.598520000000015 C 14.43967 51.751860000000015 11.94053 51.927410000000016 9.452290000000001 52.135610000000014 C 8.695960000000001 52.20144000000001 7.928650000000001 52.26727000000001 7.249060000000002 52.486440000000016 C 6.690020000000002 52.67270000000001 6.2077300000000015 52.979650000000014 5.944670000000002 53.36340000000001 C 5.944670000000002 53.45117000000001 5.977590000000002 53.53869000000001 5.966610000000002 53.637430000000016 C 5.966610000000002 54.700640000000014 5.352780000000002 55.62150000000002 4.859510000000002 56.520130000000016 C 4.278590000000002 57.61626000000002 1.9657100000000018 61.89107000000001 4.125120000000002 62.537880000000015 C 5.287020000000002 62.88871000000002 6.766770000000001 62.307730000000014 7.851930000000001 61.95690000000002 C 8.98098 61.59535000000002 10.109960000000001 61.20063000000002 11.293800000000001 61.05826000000002 C 13.04765 60.83882000000002 15.930420000000002 61.14577000000002 16.42369 63.23956000000002 C 16.54432 63.76568000000002 16.04007 64.43416000000002 15.44819 64.20403000000002 C 14.73567 63.91902000000002 14.065570000000001 62.93265000000002 13.39836 63.272480000000016 C 11.733640000000001 64.12038000000001 11.27186 66.22102000000001 9.77017 67.37173000000001 C 8.83848 68.07341000000001 7.73138 68.87355000000001 7.24908 69.98067000000002 C 6.8764400000000006 70.80277000000002 6.7997000000000005 71.98667000000002 7.70943 72.47988000000002 C 8.72889 73.02795000000002 10.05517 72.17293000000002 10.96498 71.75626000000003 C 12.12688 71.23014000000002 13.26683 70.67136000000002 14.4397 70.17790000000002 C 16.807380000000002 69.18052000000002 19.20792 68.30356000000002 21.68512 67.63507000000003 C 30.794040000000003 65.15781000000003 40.407070000000004 65.36601000000003 49.76808 65.24531000000003 C 60.4444 65.09198000000004 71.10974 64.79600000000003 81.78604999999999 64.86183000000003 C 92.36374999999998 64.92740000000002 102.94137999999998 65.28921000000003 113.45331999999999 66.52798000000003 C 116.08406 66.83493000000003 118.72569999999999 67.16355000000003 121.35645999999998 67.56925000000003 C 123.26371999999998 67.85425000000002 125.51076999999998 68.72024000000002 127.46185999999999 68.31455000000003 C 128.62382 68.06246000000003 128.53611999999998 67.02119000000002 127.93324999999999 66.18812000000003 C 127.29746999999999 65.33311000000003 126.26709999999999 64.80699000000003 125.33541999999998 64.35741000000003 C 123.16502999999999 63.30516000000003 120.66588999999999 62.92168000000003 118.28722999999998 62.73516000000003 C 117.77207999999997 62.69153000000003 117.59666999999997 61.92430000000003 118.15569999999998 61.79263000000003 C 119.63551999999999 61.45277000000003 121.10429999999998 61.44180000000003 122.54022999999998 61.69388000000003 C 122.58410999999998 61.562490000000025 122.68272999999998 61.46373000000003 122.85814999999998 61.40888000000003 C 130.47620999999998 59.28245000000003 138.74108999999999 60.83887000000003 146.21670999999998 62.800990000000034 C 153.27580999999998 64.66462000000003 160.17045 66.95537000000003 167.47068 67.75553000000004 C 170.9893 68.13928000000004 174.55169999999998 68.12832000000003 178.04836 67.56927000000003 C 181.49024 67.02121000000002 184.85537 66.11132000000003 188.28626 65.48673000000004 C 191.79382999999999 64.85089000000004 195.25767 64.66462000000004 198.8091 65.00422000000003 C 202.52501 65.36603000000004 206.19702 65.85923000000003 209.94577 65.89214000000003 C 211.80922 65.91408000000003 213.67265 65.92506000000003 215.53607000000002 65.91408000000003 C 217.31181000000004 65.90311000000003 219.17525000000003 66.02353000000002 220.92903 65.74949000000002 C 222.24441000000002 65.55226000000002 223.75708 64.97128000000002 224.35994000000002 63.67792000000002 C 224.86418000000003 62.58179000000002 224.29417000000004 61.21163000000002 223.06651000000002 60.99244000000002 C 222.59518000000003 60.90466000000002 222.73146000000003 60.46985000000002 222.50747 60.19229000000002 C 221.24722 58.63069000000002 218.50663 60.07160000000002 216.51165 59.95117000000002 C 215.43739 59.88534000000002 215.42641 58.28502000000002 216.51165 58.27405000000002 C 221.63058 58.197240000000015 226.78242 58.50420000000002 231.90133 58.635860000000015 C 235.89124 58.73434000000002 240.10037 58.635860000000015 243.77245 60.44437000000001 C 245.17547 61.12410000000001 247.47738999999999 62.987200000000016 249.05584 61.836480000000016 C 250.76579999999998 60.57604000000001 249.73541999999998 57.91224000000002 249.19834 56.344850000000015 C 248.13505 53.24271000000002 246.9074 49.92139000000002 244.45208 47.63065000000002 L 244.45203 47.63067 z M 73.77328 37.34882 C 75.27498 37.304930000000006 76.78765 37.272020000000005 78.28935 37.239360000000005 C 79.62667 37.20644000000001 81.23795 36.921440000000004 82.48756 37.49145000000001 C 83.05757 37.75451000000001 83.01368000000001 38.675090000000004 82.48756 38.94913000000001 C 81.19413 39.617880000000014 79.34166 39.34385000000001 77.91671 39.38774000000001 C 76.40405 39.420390000000005 74.90234 39.453570000000006 73.38968 39.48622000000001 C 70.32053 39.53011000000001 67.2404 39.58497000000001 64.1602 39.63982000000001 C 61.09105 39.69442000000001 58.010920000000006 39.69442000000001 54.930800000000005 39.65079000000001 C 53.494870000000006 39.62885000000001 52.04797000000001 39.67273000000001 50.61204000000001 39.51913000000001 C 49.55980000000001 39.39870000000001 48.222480000000004 39.22315000000001 47.477120000000006 38.39007000000001 C 47.323640000000005 38.22576000000001 47.422320000000006 37.95172000000001 47.66344000000001 37.95172000000001 C 48.321160000000006 37.92978000000001 48.98978000000001 38.11603000000001 49.65841000000001 38.18187000000001 C 50.29419000000001 38.24770000000001 50.94086000000001 38.25867000000001 51.58761000000001 38.23673000000001 C 52.95777000000001 38.20381000000001 54.32794000000001 38.09410000000001 55.687140000000014 38.01756000000001 C 58.70151000000001 37.83130000000001 61.71586000000001 37.71061000000001 64.73023 37.62284000000001 C 67.7446 37.53533000000001 70.75895 37.43658000000001 73.77331000000001 37.34881000000001 L 73.77328 37.34882 z M 38.81762 15.40424 C 40.82356 15.04269 43.048739999999995 15.2509 45.07655 15.2509 C 47.115339999999996 15.2509 49.165099999999995 15.228959999999999 51.203959999999995 15.1741 C 55.391119999999994 15.075349999999998 59.622249999999994 14.69187 63.80947 14.922009999999998 C 64.14927 14.94395 64.24788 15.459099999999998 63.88615 15.535909999999998 C 59.80857 16.390919999999998 55.5446 16.46746 51.39029 16.57718 C 49.21996 16.643009999999997 47.06056 16.664949999999997 44.89023 16.664949999999997 C 42.928110000000004 16.675649999999997 40.74682 16.818289999999998 38.817620000000005 16.379949999999997 C 38.35727 16.27023 38.32441 15.49202 38.81762 15.40424 L 38.81762 15.40424 z M 27.53844 36.35144 C 25.99293 36.439209999999996 24.39255 36.121289999999995 22.836060000000003 36.07740999999999 C 21.312420000000003 36.033519999999996 19.788780000000003 35.97865999999999 18.265150000000006 36.022549999999995 C 16.664840000000005 36.05546999999999 15.075430000000006 36.14324 13.486020000000005 36.26367 C 11.984320000000006 36.38436 10.416870000000005 36.55965 8.904200000000007 36.38436 C 8.312310000000007 36.30756 8.180790000000007 35.55129 8.761690000000007 35.33185 C 10.252420000000008 34.805730000000004 11.918550000000007 34.63044 13.486020000000007 34.45516000000001 C 15.130210000000007 34.279610000000005 16.785390000000007 34.126270000000005 18.440560000000005 34.07141000000001 C 20.040870000000005 34.02752000000001 21.674160000000004 34.02752000000001 23.263500000000004 34.23572000000001 C 24.776170000000004 34.43321000000001 26.453280000000003 34.60850000000001 27.812470000000005 35.32115000000001 C 28.327680000000004 35.59518000000001 28.053650000000005 36.31853000000001 27.538440000000005 36.35145000000001 C 27.53844 36.35145 27.53844 36.35144 27.53844 36.35144 z M 35.50734 16.27023 C 33.81926 16.752460000000003 31.89012 16.752460000000003 30.14723 16.80732 C 28.32769 16.87315 26.50806 16.851210000000002 24.69942 16.741490000000002 C 22.89085 16.632030000000004 21.0822 16.456760000000003 19.28459 16.204400000000003 C 17.651290000000003 15.985230000000003 15.689240000000002 15.897450000000003 14.187550000000002 15.185070000000003 C 13.683310000000002 14.954920000000003 13.968310000000002 14.220600000000003 14.450610000000001 14.209360000000004 C 15.33848 14.176720000000003 16.23731 14.461720000000003 17.11421 14.604080000000003 C 18.01305 14.757420000000003 18.91188 14.889080000000003 19.82169 14.998800000000003 C 21.49874 15.217970000000003 23.18682 15.371320000000003 24.87484 15.459090000000003 C 26.573829999999997 15.546860000000004 28.27282 15.590750000000003 29.96091 15.568810000000003 C 31.747609999999998 15.557840000000002 33.62195 15.316720000000002 35.39768 15.470060000000002 C 35.84713 15.502980000000003 35.967690000000005 16.138810000000003 35.50733 16.270210000000002 L 35.50734 16.27023 z M 106.19689 57.43004 C 103.64289 57.52852 101.05601999999999 57.10115 98.51299 56.870999999999995 C 96.01384 56.64084999999999 93.50367 56.46556999999999 90.99354 56.322939999999996 C 82.04907 55.79682 73.07173 55.81876 64.13830999999999 56.45433 C 59.67704999999999 56.76128 55.22674999999999 57.22184 50.787429999999986 57.81379 C 46.36998999999999 58.39451 41.842959999999984 59.600359999999995 37.37077999999998 59.04132 C 37.04188999999998 58.99743 37.03091999999998 58.50423 37.37077999999998 58.52617 C 40.01242999999998 58.69048 42.61025999999998 58.03296 45.197119999999984 57.55047 C 47.718209999999985 57.079209999999996 50.26124999999998 56.6628 52.804279999999984 56.290029999999994 C 61.617229999999985 55.02958999999999 70.50683999999998 54.37179999999999 79.39644999999999 54.26208 C 83.93444999999998 54.20748 88.48335999999999 54.33889 93.01038999999999 54.623889999999996 C 95.27938999999999 54.76624999999999 97.53742999999999 54.95278 99.79544999999999 55.171949999999995 C 101.98770999999999 55.391119999999994 104.24573999999998 55.57765 106.36126999999999 56.21321999999999 C 107.04092 56.4217 106.89843 57.40811 106.19689 57.43004 z M 180.21864 15.23992 C 187.12433 15.23992 194.01898 15.39326 200.9246 15.59075 C 204.31167 15.68923 207.69868 15.77701 211.08576 15.86478 C 212.83956 15.89742 214.60431 15.97424 216.35816 16.04007 C 218.00234 16.09493 219.78907 16.05104 221.38935 16.48939 C 221.86076 16.62105 221.90456 17.38829 221.38935 17.48705 C 219.76711 17.81567 217.99137000000002 17.65136 216.35816 17.59651 C 214.59339 17.530939999999998 212.83954 17.48705 211.08576 17.399279999999997 C 207.69869 17.245679999999997 204.31168 17.092329999999997 200.9246 16.960929999999998 C 194.008 16.675649999999997 187.11337 16.347029999999997 180.21864 15.853559999999998 C 179.82405 15.83188 179.81308 15.23993 180.21864 15.23992 z M 162.77921 45.36161 C 165.21261 44.956179999999996 167.74466 44.84646 170.21096 44.68215 C 172.73211 44.51756 175.24224 44.38617 177.75234 44.26547 C 182.81647 44.00241 187.9683 43.67352 193.03243 43.980470000000004 C 193.54763 44.01339 193.5257 44.70382000000001 193.03243 44.758680000000005 C 188.04505 45.33966 182.95897 45.38355000000001 177.93873 45.569810000000004 C 175.42855 45.66856000000001 172.91842 45.77828 170.40832 45.876760000000004 C 167.9091 45.97551000000001 165.36607 46.15079000000001 162.86694 46.03036 C 162.4942 46.01912 162.37366 45.42744 162.77921 45.36161 L 162.77921 45.36161 z M 127.75778 38.30259 C 126.55207 38.60954 125.25863 38.64219 124.03097 38.72997 C 122.71558999999999 38.828720000000004 121.4112 38.86163 120.09582999999999 38.89428 C 117.47605999999999 38.94914 114.85629999999999 38.87234 112.24756 38.74094 C 111.63373 38.708020000000005 111.63373 37.77621 112.24756 37.787440000000004 C 114.81246999999999 37.83133 117.37746 37.798140000000004 119.95333 37.743550000000006 C 121.21391 37.71063000000001 122.46345 37.644800000000004 123.72403999999999 37.60092000000001 C 125.01745999999999 37.55730000000001 126.35477999999999 37.40369000000001 127.64820999999999 37.51341000000001 C 128.07571 37.54606 128.21815 38.1819 127.75778 38.30259 z M 150.75461 16.55524 C 147.47719 16.336070000000003 144.19977 16.27024 140.92235000000002 16.22635 C 134.27979000000002 16.1276 127.65919000000002 16.55524 121.02753000000003 16.64302 C 120.76448000000002 16.64302 120.69870000000003 16.21538 120.96176000000003 16.17149 C 127.56049000000003 15.097299999999999 134.23598000000004 14.362979999999999 140.92235000000002 14.023119999999999 C 144.24367 13.858809999999998 147.61969000000002 13.902689999999998 150.93006000000003 14.132839999999998 C 152.61808000000002 14.253269999999999 154.28422000000003 14.417839999999998 155.95037000000002 14.658959999999999 C 156.78338000000002 14.790619999999999 157.63839000000002 14.900079999999999 158.46049000000002 15.097309999999998 C 159.21682 15.283839999999998 160.06086000000002 15.404259999999999 160.71852 15.84288 C 161.25561000000002 16.19344 161.24464 17.147209999999998 160.53219 17.30056 C 159.75392000000002 17.46515 158.95376000000002 17.3225 158.16451 17.25694 C 157.32053000000002 17.191110000000002 156.47649 17.07041 155.64342000000002 16.98291 C 154.01020000000003 16.82931 152.38794000000001 16.66499 150.75464000000002 16.55527 L 150.75461 16.55524 z M 212.34627 60.09357 C 211.41458 60.49927 210.51573 60.4444 209.52927 60.4444 C 208.45501 60.43343 207.39179 60.43343 206.31754999999998 60.42246 C 204.31166 60.40052 202.29475 60.40052 200.28882 60.35663 C 192.98862 60.19232 185.6993 60.159400000000005 178.41007 59.92925 C 171.10979 59.69883 163.80959 59.66619 156.53125999999997 59.019380000000005 C 156.36687999999998 58.997440000000005 156.35590999999997 58.75632 156.53125999999997 58.745340000000006 C 160.68564999999998 58.62465 164.82898999999998 58.668530000000004 168.98331999999996 58.734370000000006 C 176.20685999999995 58.85506000000001 183.44129999999996 58.81118000000001 190.66483999999997 58.78923 C 194.24921999999998 58.76729 197.83350999999996 58.734370000000006 201.41787999999997 58.67951 C 203.23742999999996 58.64659 205.06802999999996 58.62464 206.88757999999996 58.592 C 207.83023999999995 58.57006 208.77295999999996 58.55908 209.71560999999997 58.53713 C 210.55964999999998 58.51519 211.37077999999997 58.438379999999995 212.17092999999997 58.77825 C 212.66418 58.97549 212.98204 59.80857 212.34627 60.09357 z M 236.16527 44.25451 C 234.65260999999998 44.47368 233.10702999999998 44.38617 231.58344 44.33131 C 230.02688 44.276450000000004 228.48137 44.199650000000005 226.92487 44.155750000000005 C 223.81183 44.046290000000006 220.70977 43.991440000000004 217.59678 43.991440000000004 C 211.32686999999999 43.980470000000004 205.04604 44.11213000000001 198.76522 44.18867 C 198.3048 44.19964 198.33773 43.542120000000004 198.76522 43.49823 C 205.03507 42.81849 211.294 42.57738 217.59675 42.57738 C 220.76459999999997 42.57738 223.94331999999997 42.621269999999996 227.11118 42.720009999999995 C 228.6019 42.774609999999996 230.09262999999999 42.82946999999999 231.58342 42.90626999999999 C 233.10699 42.99403999999999 234.68543 43.07057999999999 236.16523999999998 43.476279999999996 C 236.51601999999997 43.57476 236.5708 44.18866 236.16523999999998 44.25449 L 236.16527 44.25451 z" stroke-linecap="round" />
</g>
		<g transform="matrix(1 0 0 1 118.13997174533917 -9.158392698852516)" id="path-01"  >
<linearGradient id="SVGID_813099" gradientUnits="userSpaceOnUse" gradientTransform="matrix(1 0 0 1 239.12419732520908 30.69505295040441)"  x1="0" y1="0" x2="0" y2="6">
<stop offset="0%" style="stop-color:rgb(48,35,174);stop-opacity: 1"/>
<stop offset="100%" style="stop-color:rgb(200,109,215);stop-opacity: 1"/>
</linearGradient>
<path style="stroke: none; stroke-width: 1; stroke-dasharray: none; stroke-linecap: butt; stroke-dashoffset: 0; stroke-linejoin: miter; stroke-miterlimit: 4; fill: url(#SVGID_813099); fill-rule: nonzero; opacity: 1;"  paint-order="stroke"  transform=" translate(-243.1399846275961, -33.686404570795936)" d="M 247.09297 33.33323 C 246.52296 31.63444 243.93612000000002 31.54666 242.47824 31.26166 C 241.83348 31.13668 240.56868 30.88532 239.66049 30.70431 C 239.27257 30.627 238.98359000000002 31.04974 239.19623 31.38327 C 239.69757 32.16959 240.37303000000003 33.30265 240.60391 34.034909999999996 C 240.83406000000002 34.76922999999999 241.00947000000002 35.63522 241.59039 36.183279999999996 C 242.14944000000003 36.720369999999996 242.99348 36.76425999999999 243.70593000000002 36.57774 C 244.59381000000002 36.33689 245.37208 35.74494 246.06263 35.163959999999996 C 246.63264 34.692699999999995 247.37800000000001 34.166579999999996 247.09299000000001 33.333239999999996 L 247.09297 33.33323 z" stroke-linecap="round" />
</g>
</g>
</g>
<g transform="matrix(1.9211538461538462 0 0 1.9211538461538462 645.6977523935103 538.1841382148774)" id="text-logo"  >
<g style=""  paint-order="stroke"   >
		<g transform="matrix(1 0 0 1 0 0)" id="text-logo-path-0"  >
<linearGradient id="SVGID_813101" gradientUnits="userSpaceOnUse" gradientTransform="matrix(1 0 0 1 0.46999999999999886 -45.23)"  x1="0" y1="0" x2="0" y2="68">
<stop offset="0%" style="stop-color:rgb(248,77,158);stop-opacity: 1"/>
<stop offset="100%" style="stop-color:rgb(255,116,117);stop-opacity: 1"/>
</linearGradient>
<filter id="SVGID_813089" y="-27.23137083302029%" height="154.46274166604059%" x="-21.123686409499065%" width="142.24737281899814%" >
	<feGaussianBlur in="SourceAlpha" stdDeviation="0"></feGaussianBlur>
	<feOffset dx="3.313414115689897" dy="3.313414115689897" result="oBlur" ></feOffset>
	<feFlood flood-color="rgb(81,18,94)" flood-opacity="1"/>
	<feComposite in2="oBlur" operator="in" />
	<feMerge>
		<feMergeNode></feMergeNode>
		<feMergeNode in="SourceGraphic"></feMergeNode>
	</feMerge>
</filter>
<path style="stroke: rgb(81,18,94); stroke-width: 5.964145408241816; stroke-dasharray: none; stroke-linecap: butt; stroke-dashoffset: 0; stroke-linejoin: miter; stroke-miterlimit: 4; fill: url(#SVGID_813101); fill-rule: nonzero; opacity: 1;filter: url(#SVGID_813089);"  paint-order="stroke"  transform=" translate(-147.90499999999997, 22.319999999999997)" d="M 19.96 -2.94 L 0.47 0.06 L 8.36 -42.81 L 27.44 -44.46 Q 27.03 -43.11 26.74 -41.84 Q 26.44 -40.58 26.15 -39.34 Q 25.85 -38.1 25.68 -37.16 L 25.68 -37.16 Q 23.91 -36.98 20.85 -36.98 L 20.85 -36.98 L 16.78 -36.98 L 14.66 -26.15 Q 17.9 -26.32 20.08 -26.38 Q 22.26 -26.44 22.91 -26.5 L 22.91 -26.5 Q 22.67 -24.79 22.47 -23.17 Q 22.26 -21.55 21.97 -19.85 L 21.97 -19.85 Q 21.32 -19.79 19.96 -19.76 Q 18.61 -19.73 17.14 -19.67 Q 15.66 -19.61 13.84 -19.55 L 13.84 -19.55 L 11.78 -8.42 L 20.55 -9.83 L 19.96 -2.94 Z M 28.62 0.35 L 18.37 -0.53 Q 21.38 -5.89 24.41 -11.16 Q 27.44 -16.43 29.98 -22.14 L 29.98 -22.14 Q 29.15 -28.44 28.15 -32.89 Q 27.15 -37.34 26.62 -39.99 L 26.62 -39.99 L 36.28 -43.99 Q 36.57 -41.11 36.98 -37.69 Q 37.4 -34.27 37.69 -31.33 L 37.69 -31.33 Q 41.28 -39.52 43.23 -43.34 L 43.23 -43.34 L 52 -40.99 Q 46.52 -31.86 41.99 -21.97 L 41.99 -21.97 Q 42.7 -16.84 44.14 -11.1 Q 45.58 -5.36 46.23 -2.77 L 46.23 -2.77 Q 46.11 -2.71 45.4 -2.53 Q 44.7 -2.36 43.61 -2.06 Q 42.52 -1.77 41.22 -1.38 Q 39.93 -1 38.69 -0.65 L 38.69 -0.65 Q 35.51 0.29 34.69 0.59 L 34.69 0.59 Q 34.51 -1.83 34.36 -3.95 Q 34.22 -6.07 34.07 -8.07 Q 33.92 -10.07 33.86 -11.42 L 33.86 -11.42 Q 31.86 -6.24 28.62 0.35 L 28.62 0.35 Z M 45.99 -12.13 L 45.99 -12.13 Q 45.99 -18.85 49.11 -26.62 L 49.11 -26.62 Q 52.24 -34.39 57.3 -39.57 L 57.3 -39.57 Q 62.78 -45.11 68.78 -45.11 L 68.78 -45.11 Q 73.73 -45.11 76.03 -41.11 L 76.03 -41.11 Q 77.85 -37.87 77.85 -31.27 L 77.85 -31.27 Q 77.85 -27.68 76.82 -23.32 Q 75.79 -18.96 74.03 -15.31 Q 72.26 -11.66 69.93 -8.77 Q 67.61 -5.89 65.07 -3.89 L 65.07 -3.89 Q 59.83 0.24 55 0.24 L 55 0.24 Q 50.94 0.24 48.58 -2.71 L 48.58 -2.71 Q 45.99 -5.95 45.99 -12.13 Z M 54.95 -13.66 L 54.95 -13.66 Q 54.95 -11.31 56.95 -10.13 L 56.95 -10.13 Q 57.54 -9.72 58.3 -9.72 L 58.3 -9.72 Q 61.01 -9.72 63.1 -11.57 Q 65.19 -13.43 66.61 -16.14 Q 68.02 -18.85 68.75 -21.94 Q 69.49 -25.03 69.49 -27.56 L 69.49 -27.56 Q 69.49 -32.45 66.66 -32.45 L 66.66 -32.45 Q 63.07 -32.45 60.19 -28.92 L 60.19 -28.92 Q 57.89 -26.09 56.24 -21.2 L 56.24 -21.2 Q 54.95 -17.2 54.95 -13.66 Z M 74.67 -5.3 L 74.67 -5.3 L 79.15 -14.07 Q 79.97 -12.43 82.33 -11.07 L 82.33 -11.07 Q 84.68 -9.66 85.86 -9.66 Q 87.04 -9.66 87.84 -9.89 Q 88.63 -10.13 89.28 -10.6 L 89.28 -10.6 Q 90.75 -11.66 90.75 -13.16 Q 90.75 -14.66 89.81 -15.9 Q 88.87 -17.14 87.48 -18.26 Q 86.1 -19.38 84.48 -20.52 Q 82.86 -21.67 81.5 -22.97 L 81.5 -22.97 Q 78.21 -25.91 78.21 -29.15 Q 78.21 -32.39 80.06 -35.1 Q 81.92 -37.81 84.71 -39.78 Q 87.51 -41.75 90.84 -42.9 Q 94.17 -44.05 96.46 -44.05 Q 98.76 -44.05 100.2 -43.64 Q 101.65 -43.23 102.71 -42.4 L 102.71 -42.4 Q 105 -40.52 105 -36.87 L 105 -36.87 Q 105 -35.98 104.85 -35.16 Q 104.71 -34.33 104.59 -33.33 L 104.59 -33.33 L 95.87 -30.8 Q 96.17 -31.98 96.17 -33.27 Q 96.17 -34.57 95.52 -35.36 Q 94.87 -36.16 94.14 -36.16 Q 93.4 -36.16 92.69 -35.81 Q 91.99 -35.45 91.28 -34.86 L 91.28 -34.86 Q 89.63 -33.51 89.63 -31.95 Q 89.63 -30.39 90.46 -29.42 Q 91.28 -28.44 92.49 -27.62 Q 93.7 -26.8 95.11 -25.91 Q 96.52 -25.03 97.76 -23.67 L 97.76 -23.67 Q 100.59 -20.38 100.59 -14.9 L 100.59 -14.9 Q 100.59 -8.3 95.76 -4 L 95.76 -4 Q 91.16 0.12 84.15 0.12 L 84.15 0.12 Q 78.97 0.12 74.67 -5.3 Z M 109.95 -1.41 L 100.17 0.06 Q 106.53 -29.39 107.77 -43.99 L 107.77 -43.99 Q 109.18 -43.81 110.92 -43.73 Q 112.66 -43.64 114.31 -43.52 Q 115.96 -43.4 117.78 -43.4 L 117.78 -43.4 Q 117.72 -43.17 117.6 -42.52 Q 117.49 -41.87 117.31 -40.93 Q 117.13 -39.99 116.93 -38.84 Q 116.72 -37.69 116.34 -35.78 Q 115.96 -33.86 115.37 -30.56 L 115.37 -30.56 L 115.72 -30.62 Q 117.37 -33.16 119.14 -35.98 L 119.14 -35.98 Q 122.67 -41.58 124.08 -43.7 L 124.08 -43.7 Q 130.86 -44.23 136.1 -45.05 L 136.1 -45.05 Q 125.85 -31.15 122.08 -25.09 L 122.08 -25.09 Q 123.38 -19.02 125.2 -13.34 Q 127.03 -7.66 128.91 -1.77 L 128.91 -1.77 Q 126.09 -1.88 122.99 -1.88 Q 119.9 -1.88 116.49 -1.77 L 116.49 -1.77 Q 115.31 -9.36 114.13 -18.2 L 114.13 -18.2 L 113.01 -16.96 Q 112.6 -15.13 112.1 -12.48 Q 111.6 -9.83 111.07 -7.16 Q 110.54 -4.48 109.95 -1.41 L 109.95 -1.41 Z M 147.58 -2.94 L 128.09 0.06 L 135.98 -42.81 L 155.06 -44.46 Q 154.65 -43.11 154.35 -41.84 Q 154.06 -40.58 153.76 -39.34 Q 153.47 -38.1 153.29 -37.16 L 153.29 -37.16 Q 151.53 -36.98 148.46 -36.98 L 148.46 -36.98 L 144.4 -36.98 L 142.28 -26.15 Q 145.52 -26.32 147.7 -26.38 Q 149.88 -26.44 150.52 -26.5 L 150.52 -26.5 Q 150.29 -24.79 150.08 -23.17 Q 149.88 -21.55 149.58 -19.85 L 149.58 -19.85 Q 148.93 -19.79 147.58 -19.76 Q 146.23 -19.73 144.75 -19.67 Q 143.28 -19.61 141.46 -19.55 L 141.46 -19.55 L 139.39 -8.42 L 148.17 -9.83 L 147.58 -2.94 Z M 148.88 0.12 L 148.88 0.12 Q 150.29 -10.78 152.62 -22.79 Q 154.94 -34.8 156.59 -42.99 L 156.59 -42.99 L 167.19 -44.4 Q 161.71 -21.2 160.8 -15.9 Q 159.89 -10.6 159.59 -8.48 L 159.59 -8.48 Q 161.83 -8.66 165.84 -8.66 L 165.84 -8.66 Q 165.95 -6.36 166.19 -4.92 Q 166.43 -3.47 166.51 -2.8 Q 166.6 -2.12 166.66 -1.88 L 166.66 -1.88 L 164.84 -1.94 Q 158.65 -1.94 152.53 -0.82 L 152.53 -0.82 Q 150.52 -0.41 148.88 0.12 Z M 186.33 -2.94 L 166.84 0.06 L 174.73 -42.81 L 193.81 -44.46 Q 193.4 -43.11 193.1 -41.84 Q 192.81 -40.58 192.51 -39.34 Q 192.22 -38.1 192.04 -37.16 L 192.04 -37.16 Q 190.28 -36.98 187.21 -36.98 L 187.21 -36.98 L 183.15 -36.98 L 181.03 -26.15 Q 184.27 -26.32 186.45 -26.38 Q 188.63 -26.44 189.27 -26.5 L 189.27 -26.5 Q 189.04 -24.79 188.83 -23.17 Q 188.63 -21.55 188.33 -19.85 L 188.33 -19.85 Q 187.68 -19.79 186.33 -19.76 Q 184.98 -19.73 183.5 -19.67 Q 182.03 -19.61 180.21 -19.55 L 180.21 -19.55 L 178.14 -8.42 L 186.92 -9.83 L 186.33 -2.94 Z M 203.17 -1.65 L 192.34 0.06 Q 197.11 -22.32 198.76 -34.98 L 198.76 -34.98 Q 197.7 -35.1 196.64 -35.1 L 196.64 -35.1 L 195.93 -35.1 Q 195.75 -35.1 195.58 -35.1 L 195.58 -35.1 L 193.1 -35.45 L 193.4 -43.17 Q 196.46 -42.93 199.58 -42.93 L 199.58 -42.93 Q 207.83 -42.93 215.66 -43.93 L 215.66 -43.93 L 215.01 -40.69 Q 214.72 -39.34 214.45 -37.9 Q 214.19 -36.45 213.95 -35.39 L 213.95 -35.39 Q 212.6 -35.04 211.24 -34.89 Q 209.89 -34.75 208.59 -34.51 L 208.59 -34.51 Q 207.53 -29.98 206.47 -23.26 L 206.47 -23.26 Q 204.12 -8.42 203.17 -1.65 L 203.17 -1.65 Z M 209.06 -12.13 L 209.06 -12.13 Q 209.06 -18.85 212.18 -26.62 L 212.18 -26.62 Q 215.3 -34.39 220.37 -39.57 L 220.37 -39.57 Q 225.85 -45.11 231.85 -45.11 L 231.85 -45.11 Q 236.8 -45.11 239.1 -41.11 L 239.1 -41.11 Q 240.92 -37.87 240.92 -31.27 L 240.92 -31.27 Q 240.92 -27.68 239.89 -23.32 Q 238.86 -18.96 237.09 -15.31 Q 235.33 -11.66 233 -8.77 Q 230.68 -5.89 228.14 -3.89 L 228.14 -3.89 Q 222.9 0.24 218.07 0.24 L 218.07 0.24 Q 214.01 0.24 211.65 -2.71 L 211.65 -2.71 Q 209.06 -5.95 209.06 -12.13 Z M 218.01 -13.66 L 218.01 -13.66 Q 218.01 -11.31 220.02 -10.13 L 220.02 -10.13 Q 220.6 -9.72 221.37 -9.72 L 221.37 -9.72 Q 224.08 -9.72 226.17 -11.57 Q 228.26 -13.43 229.67 -16.14 Q 231.09 -18.85 231.82 -21.94 Q 232.56 -25.03 232.56 -27.56 L 232.56 -27.56 Q 232.56 -32.45 229.73 -32.45 L 229.73 -32.45 Q 226.14 -32.45 223.25 -28.92 L 223.25 -28.92 Q 220.96 -26.09 219.31 -21.2 L 219.31 -21.2 Q 218.01 -17.2 218.01 -13.66 Z M 246.05 -1.77 L 237.21 0.29 Q 243.93 -31.68 245.04 -44.23 L 245.04 -44.23 Q 245.87 -44.17 246.4 -44.17 L 246.4 -44.17 L 248.11 -44.17 Q 249.28 -44.17 254.7 -44.4 L 254.7 -44.4 Q 255.53 -40.16 256.23 -36.51 L 256.23 -36.51 Q 258.12 -26.03 258.82 -23.03 L 258.82 -23.03 Q 259.06 -24.26 259.35 -25.85 Q 259.65 -27.44 260 -29.18 Q 260.36 -30.92 260.71 -32.74 L 260.71 -32.74 Q 261.3 -35.63 263.12 -44.34 L 263.12 -44.34 L 270.49 -45.23 Q 264.07 -15.49 262.48 -2.53 L 262.48 -2.53 Q 261.77 -2.53 257.62 -1.53 Q 253.47 -0.53 252.64 -0.24 L 252.64 -0.24 Q 251.46 -16.37 250.05 -23.09 L 250.05 -23.09 Q 249.87 -21.97 249.58 -20.46 Q 249.28 -18.96 248.99 -17.25 L 248.99 -17.25 Q 247.87 -10.84 246.05 -1.77 L 246.05 -1.77 Z M 265.01 -5.3 L 265.01 -5.3 L 269.48 -14.07 Q 270.31 -12.43 272.66 -11.07 L 272.66 -11.07 Q 275.02 -9.66 276.2 -9.66 Q 277.38 -9.66 278.17 -9.89 Q 278.97 -10.13 279.61 -10.6 L 279.61 -10.6 Q 281.09 -11.66 281.09 -13.16 Q 281.09 -14.66 280.14 -15.9 Q 279.2 -17.14 277.82 -18.26 Q 276.43 -19.38 274.81 -20.52 Q 273.19 -21.67 271.84 -22.97 L 271.84 -22.97 Q 268.54 -25.91 268.54 -29.15 Q 268.54 -32.39 270.4 -35.1 Q 272.25 -37.81 275.05 -39.78 Q 277.85 -41.75 281.17 -42.9 Q 284.5 -44.05 286.8 -44.05 Q 289.09 -44.05 290.54 -43.64 Q 291.98 -43.23 293.04 -42.4 L 293.04 -42.4 Q 295.34 -40.52 295.34 -36.87 L 295.34 -36.87 Q 295.34 -35.98 295.19 -35.16 Q 295.04 -34.33 294.92 -33.33 L 294.92 -33.33 L 286.21 -30.8 Q 286.5 -31.98 286.5 -33.27 Q 286.5 -34.57 285.86 -35.36 Q 285.21 -36.16 284.47 -36.16 Q 283.74 -36.16 283.03 -35.81 Q 282.32 -35.45 281.62 -34.86 L 281.62 -34.86 Q 279.97 -33.51 279.97 -31.95 Q 279.97 -30.39 280.79 -29.42 Q 281.62 -28.44 282.82 -27.62 Q 284.03 -26.8 285.44 -25.91 Q 286.86 -25.03 288.09 -23.67 L 288.09 -23.67 Q 290.92 -20.38 290.92 -14.9 L 290.92 -14.9 Q 290.92 -8.3 286.09 -4 L 286.09 -4 Q 281.5 0.12 274.49 0.12 L 274.49 0.12 Q 269.31 0.12 265.01 -5.3 Z" stroke-linecap="round" />
</g>
</g>
</g>
</svg>