<?xml version="1.0" encoding="UTF-8" standalone="no" ?>
<!DOCTYPE svg PUBLIC "-//W3C//DTD SVG 1.1//EN" "http://www.w3.org/Graphics/SVG/1.1/DTD/svg11.dtd">
<svg xmlns="http://www.w3.org/2000/svg" xmlns:xlink="http://www.w3.org/1999/xlink" version="1.1" width="690" height="210" viewBox="250 200 800 490" xml:space="preserve">
<desc>Created with Fabric.js 4.4.0</desc>
<defs>
</defs>
<g transform="matrix(1 0 0 1 640 512)" id="background-logo"  >
<rect style="stroke: none; stroke-width: 0; stroke-dasharray: none; stroke-linecap: butt; stroke-dashoffset: 0; stroke-linejoin: miter; stroke-miterlimit: 4; fill: rgb(255,255,255); fill-opacity: 0; fill-rule: nonzero; opacity: 1;"  paint-order="stroke"  x="-640" y="-512" rx="0" ry="0" width="1280" height="1024" />
</g>
<g transform="matrix(1.1456182047948262 0 0 1.1456182047948262 649.0925956019461 341.43806151469556)" id="shape-30607a28-cb02-40e9-ba03-311cfb17ff08"  >
<g style=""  paint-order="stroke"   >
		<g transform="matrix(1 0 0 1 -8.299999999999997 1.9499999999999744)" id="path-06"  >
<path style="stroke: none; stroke-width: 1; stroke-dasharray: none; stroke-linecap: butt; stroke-dashoffset: 0; stroke-linejoin: miter; stroke-miterlimit: 4; fill: rgb(255,87,131); fill-rule: nonzero; opacity: 1;"  paint-order="stroke"  transform=" translate(-109.2, -127.14999999999999)" d="M 200 64.2 L 189.5 53.7 L 182.2 46.400000000000006 L 163.6 46.400000000000006 L 163.6 41.7 L 177.5 41.7 L 156.6 20.800000000000004 L 148.4 12.600000000000005 L 70 12.600000000000005 L 14.7 67.8 L 14.7 146.1 L 40.7 172.1 L 47.5 172.1 L 47.6 171.79999999999998 L 76.1 171.79999999999998 L 76.1 183.29999999999998 L 58.99999999999999 183.2 L 58.29999999999999 182.89999999999998 L 51.49999999999999 182.89999999999998 L 66.19999999999999 197.59999999999997 L 66.19999999999999 216.59999999999997 L 91.29999999999998 241.69999999999996 L 127 241.69999999999996 L 143 225.69999999999996 L 152.2 216.49999999999997 L 152.2 197.49999999999997 L 203.7 145.99999999999997 L 203.7 67.8 L 200 64.2 z M 164.2 103.9 L 178.89999999999998 118.60000000000001 L 178.89999999999998 139.3 L 164.2 154 L 143.5 154 L 128.8 139.3 L 128.8 118.60000000000001 L 143.5 103.9 L 164.2 103.9 z M 110.9 169.3 L 109.2 168.4 L 96.60000000000001 174.8 L 100.4 163.9 L 109.2 153.1 L 116.3 161.9 L 118 164 L 121.2 173.1 L 121.60000000000001 174.2 L 121.80000000000001 174.89999999999998 L 121.4 174.7 L 118.7 173.29999999999998 L 110.9 169.3 z M 54.2 153.9 L 39.5 139.20000000000002 L 39.5 118.50000000000001 L 54.2 103.80000000000001 L 74.9 103.80000000000001 L 89.60000000000001 118.50000000000001 L 89.60000000000001 139.20000000000002 L 74.9 153.9 L 54.2 153.9 z M 87.8 201.4 L 97.2 201.4 L 97.2 220 L 87.8 220 L 87.8 201.4 z M 104.5 220 L 104.5 201.4 L 113.9 201.4 L 113.9 220 L 104.5 220 z M 121.1 220 L 121.1 201.4 L 130.5 201.4 L 130.5 220 L 121.1 220 z" stroke-linecap="round" />
</g>
		<g transform="matrix(1 0 0 1 13.550000000000011 10.099999999999994)" id="path-05"  >
<path style="stroke: none; stroke-width: 1; stroke-dasharray: none; stroke-linecap: butt; stroke-dashoffset: 0; stroke-linejoin: miter; stroke-miterlimit: 4; fill: rgb(21,255,255); fill-rule: nonzero; opacity: 1;"  paint-order="stroke"  transform=" translate(-131.05, -135.3)" d="M 225.5 143 L 225.5 76 L 213.7 64.2 L 203.2 53.7 L 195.79999999999998 46.400000000000006 L 189 46.400000000000006 L 188.8 46.900000000000006 L 163 47 L 163 41.3 L 183.4 41.199999999999996 L 184.4 41.599999999999994 L 191.20000000000002 41.599999999999994 L 170.3 20.699999999999996 L 91.9 20.699999999999996 L 36.6 76 L 36.6 154.3 L 54.400000000000006 172.10000000000002 L 75.4 172.10000000000002 L 75.4 183 L 65.3 183 L 88.1 205.8 L 88.1 224.8 L 113.19999999999999 249.9 L 148.79999999999998 249.9 L 173.89999999999998 224.8 L 173.89999999999998 205.8 L 225.39999999999998 154.3 L 225.39999999999998 147.9 L 214.49999999999997 147.9 L 213.79999999999998 148.3 L 204.1 148.4 L 204.1 142.70000000000002 L 214.1 142.60000000000002 L 214.4 142.90000000000003 L 225.5 142.90000000000003 z M 152.4 228.2 L 143 228.2 L 143 209.6 L 152.4 209.6 L 152.4 228.2 z M 109.7 209.5 L 119.10000000000001 209.5 L 119.10000000000001 228.1 L 109.7 228.1 L 109.7 209.5 z M 126.3 209.5 L 135.7 209.5 L 135.7 228.1 L 126.29999999999998 228.1 L 126.29999999999998 209.5 z M 186.1 112.1 L 200.79999999999998 126.8 L 200.79999999999998 147.5 L 186.1 162.2 L 165.4 162.2 L 150.70000000000002 147.5 L 150.70000000000002 126.8 L 165.4 112.1 L 186.1 112.1 z M 131 161.3 L 139.8 172.10000000000002 L 143.60000000000002 183.00000000000003 L 132.10000000000002 177.10000000000002 L 131.10000000000002 176.60000000000002 L 129.70000000000002 177.3 L 118.60000000000002 183 L 121.50000000000003 174.6 L 121.70000000000003 174.1 L 122.00000000000003 173.29999999999998 L 122.40000000000003 171.99999999999997 L 127.40000000000003 165.79999999999998 L 131 161.3 z M 76 162.1 L 61.3 147.4 L 61.3 126.7 L 76 112.1 L 96.7 112.1 L 111.4 126.8 L 111.4 147.5 L 96.7 162.2 L 76 162.2 z" stroke-linecap="round" />
</g>
		<g transform="matrix(1 0 0 1 2.5999999999999943 6.049999999999983)" id="path-04"  >
<path style="stroke: none; stroke-width: 1; stroke-dasharray: none; stroke-linecap: butt; stroke-dashoffset: 0; stroke-linejoin: miter; stroke-miterlimit: 4; fill: rgb(0,0,0); fill-rule: nonzero; opacity: 1;"  paint-order="stroke"  transform=" translate(-120.1, -131.25)" d="M 121.1 173.1 L 121.5 174.2 L 121.8 173.39999999999998 L 121.1 173.1 z M 121.1 173.1 L 121.5 174.2 L 121.8 173.39999999999998 L 121.1 173.1 z M 214.6 143 L 214.6 71.9 L 206.79999999999998 64.10000000000001 L 196.29999999999998 53.60000000000001 L 188.99999999999997 46.30000000000001 L 163.49999999999997 46.30000000000001 L 163.49999999999997 41.60000000000001 L 184.29999999999998 41.60000000000001 L 163.39999999999998 20.70000000000001 L 159.29999999999998 16.60000000000001 L 81 16.60000000000001 L 25.6 71.9 L 25.6 150.2 L 47.5 172.1 L 75.4 172.1 L 75.4 183 L 58.400000000000006 183 L 77.2 201.8 L 77.2 220.8 L 102.30000000000001 245.9 L 137.9 245.9 L 163 220.8 L 163 201.8 L 214.5 150.3 L 214.5 148 L 204.6 148 L 204.6 143 L 214.6 143 z M 115.4 224.1 L 115.4 205.5 L 124.80000000000001 205.5 L 124.80000000000001 224.1 L 115.4 224.1 z M 132 205.5 L 141.4 205.5 L 141.4 224.1 L 132 224.1 L 132 205.5 z M 132.7 178.9 L 129.6 177.3 L 121.8 173.3 L 121.2 173 L 120.2 172.5 L 118.8 173.2 L 107.7 178.89999999999998 L 111 169.29999999999998 L 111.4 167.99999999999997 L 116.4 161.79999999999998 L 120.2 157.1 L 127.3 165.9 L 129 168 L 132.2 177.1 L 132.7 178.9 z M 98.7 205.5 L 108.10000000000001 205.5 L 108.10000000000001 224.1 L 98.7 224.1 L 98.7 205.5 z M 175.1 108 L 189.79999999999998 122.7 L 189.79999999999998 143.4 L 175.1 158 L 154.4 158 L 139.70000000000002 143.3 L 139.70000000000002 122.60000000000001 L 154.4 107.9 L 175.1 107.9 z M 65.1 158 L 50.39999999999999 143.3 L 50.39999999999999 122.60000000000001 L 65.1 108 L 85.8 108 L 100.5 122.7 L 100.5 143.4 L 85.8 158 L 65.1 158 z M 121.1 173.1 L 121.5 174.2 L 121.8 173.39999999999998 L 121.1 173.1 z" stroke-linecap="round" />
</g>
		<g transform="matrix(1 0 0 1 77.85 -66.25000000000001)" id="path-03"  >
<rect style="stroke: none; stroke-width: 0; stroke-dasharray: none; stroke-linecap: butt; stroke-dashoffset: 0; stroke-linejoin: miter; stroke-miterlimit: 4; fill: rgb(21,255,255); fill-rule: nonzero; opacity: 1;"  paint-order="stroke"  x="-21.65" y="-5.25" rx="0" ry="0" width="43.3" height="10.5" />
</g>
		<g transform="matrix(1 0 0 1 -74.35000000000001 -94.45000000000002)" id="path-03"  >
<rect style="stroke: none; stroke-width: 0; stroke-dasharray: none; stroke-linecap: butt; stroke-dashoffset: 0; stroke-linejoin: miter; stroke-miterlimit: 4; fill: rgb(21,255,255); fill-rule: nonzero; opacity: 1;"  paint-order="stroke"  x="-6.55" y="-6.55" rx="0" ry="0" width="13.1" height="13.1" />
</g>
		<g transform="matrix(1 0 0 1 -100.45 -5.150000000000015)" id="path-03"  >
<rect style="stroke: none; stroke-width: 0; stroke-dasharray: none; stroke-linecap: butt; stroke-dashoffset: 0; stroke-linejoin: miter; stroke-miterlimit: 4; fill: rgb(21,255,255); fill-rule: nonzero; opacity: 1;"  paint-order="stroke"  x="-15.85" y="-3.35" rx="0" ry="0" width="31.7" height="6.7" />
</g>
		<g transform="matrix(1 0 0 1 65.35 1.9499999999999802)" id="path-03"  >
<rect style="stroke: none; stroke-width: 0; stroke-dasharray: none; stroke-linecap: butt; stroke-dashoffset: 0; stroke-linejoin: miter; stroke-miterlimit: 4; fill: rgb(21,255,255); fill-rule: nonzero; opacity: 1;"  paint-order="stroke"  x="-15.85" y="-3.35" rx="0" ry="0" width="31.7" height="6.7" />
</g>
		<g transform="matrix(1 0 0 1 -66.5 90.29999999999998)" id="path-03"  >
<rect style="stroke: none; stroke-width: 0; stroke-dasharray: none; stroke-linecap: butt; stroke-dashoffset: 0; stroke-linejoin: miter; stroke-miterlimit: 4; fill: rgb(21,255,255); fill-rule: nonzero; opacity: 1;"  paint-order="stroke"  x="-3.9" y="-3.9" rx="0" ry="0" width="7.8" height="7.8" />
</g>
		<g transform="matrix(1 0 0 1 53.900000000000006 65.74999999999999)" id="path-03"  >
<rect style="stroke: none; stroke-width: 0; stroke-dasharray: none; stroke-linecap: butt; stroke-dashoffset: 0; stroke-linejoin: miter; stroke-miterlimit: 4; fill: rgb(21,255,255); fill-rule: nonzero; opacity: 1;"  paint-order="stroke"  x="-9" y="-3.05" rx="0" ry="0" width="18" height="6.1" />
</g>
		<g transform="matrix(1 0 0 1 7.9 -53.50000000000002)" id="path-03"  >
<rect style="stroke: none; stroke-width: 0; stroke-dasharray: none; stroke-linecap: butt; stroke-dashoffset: 0; stroke-linejoin: miter; stroke-miterlimit: 4; fill: rgb(21,255,255); fill-rule: nonzero; opacity: 1;"  paint-order="stroke"  x="-3.9" y="-3.9" rx="0" ry="0" width="7.8" height="7.8" />
</g>
		<g transform="matrix(1 0 0 1 -16.549999999999994 6.1)" id="path-02"  >
<rect style="stroke: none; stroke-width: 0; stroke-dasharray: none; stroke-linecap: butt; stroke-dashoffset: 0; stroke-linejoin: miter; stroke-miterlimit: 4; fill: rgb(0,0,0); fill-rule: nonzero; opacity: 1;"  paint-order="stroke"  x="-14.55" y="-4.1" rx="0" ry="0" width="29.1" height="8.2" />
</g>
		<g transform="matrix(1 0 0 1 49.500000000000014 108.19999999999997)" id="path-02"  >
<rect style="stroke: none; stroke-width: 0; stroke-dasharray: none; stroke-linecap: butt; stroke-dashoffset: 0; stroke-linejoin: miter; stroke-miterlimit: 4; fill: rgb(0,0,0); fill-rule: nonzero; opacity: 1;"  paint-order="stroke"  x="-5.2" y="-5.2" rx="0" ry="0" width="10.4" height="10.4" />
</g>
		<g transform="matrix(1 0 0 1 -84.8 52.69999999999999)" id="path-02"  >
<rect style="stroke: none; stroke-width: 0; stroke-dasharray: none; stroke-linecap: butt; stroke-dashoffset: 0; stroke-linejoin: miter; stroke-miterlimit: 4; fill: rgb(0,0,0); fill-rule: nonzero; opacity: 1;"  paint-order="stroke"  x="-5.2" y="-5.5" rx="0" ry="0" width="10.4" height="11" />
</g>
		<g transform="matrix(1 0 0 1 96.80000000000001 -5.0000000000000195)" id="path-02"  >
<rect style="stroke: none; stroke-width: 0; stroke-dasharray: none; stroke-linecap: butt; stroke-dashoffset: 0; stroke-linejoin: miter; stroke-miterlimit: 4; fill: rgb(0,0,0); fill-rule: nonzero; opacity: 1;"  paint-order="stroke"  x="-6.4" y="-6.4" rx="0" ry="0" width="12.8" height="12.8" />
</g>
		<g transform="matrix(1 0 0 1 32.75000000000001 -121.10000000000002)" id="path-02"  >
<rect style="stroke: none; stroke-width: 0; stroke-dasharray: none; stroke-linecap: butt; stroke-dashoffset: 0; stroke-linejoin: miter; stroke-miterlimit: 4; fill: rgb(0,0,0); fill-rule: nonzero; opacity: 1;"  paint-order="stroke"  x="-12.85" y="-4.1" rx="0" ry="0" width="25.7" height="8.2" />
</g>
		<g transform="matrix(1 0 0 1 -75.5 -72.4)" id="path-02"  >
<rect style="stroke: none; stroke-width: 0; stroke-dasharray: none; stroke-linecap: butt; stroke-dashoffset: 0; stroke-linejoin: miter; stroke-miterlimit: 4; fill: rgb(0,0,0); fill-rule: nonzero; opacity: 1;"  paint-order="stroke"  x="-3.9" y="-3.9" rx="0" ry="0" width="7.8" height="7.8" />
</g>
		<g transform="matrix(1 0 0 1 -114.4 -30.50000000000002)" id="path-02"  >
<rect style="stroke: none; stroke-width: 0; stroke-dasharray: none; stroke-linecap: butt; stroke-dashoffset: 0; stroke-linejoin: miter; stroke-miterlimit: 4; fill: rgb(0,0,0); fill-rule: nonzero; opacity: 1;"  paint-order="stroke"  x="-3.1" y="-3.1" rx="0" ry="0" width="6.2" height="6.2" />
</g>
		<g transform="matrix(1 0 0 1 -87.7 -30.50000000000002)" id="path-02"  >
<rect style="stroke: none; stroke-width: 0; stroke-dasharray: none; stroke-linecap: butt; stroke-dashoffset: 0; stroke-linejoin: miter; stroke-miterlimit: 4; fill: rgb(0,0,0); fill-rule: nonzero; opacity: 1;"  paint-order="stroke"  x="-20" y="-3.1" rx="0" ry="0" width="40" height="6.2" />
</g>
		<g transform="matrix(1 0 0 1 -30.349999999999998 107.6)" id="path-02"  >
<rect style="stroke: none; stroke-width: 0; stroke-dasharray: none; stroke-linecap: butt; stroke-dashoffset: 0; stroke-linejoin: miter; stroke-miterlimit: 4; fill: rgb(0,0,0); fill-rule: nonzero; opacity: 1;"  paint-order="stroke"  x="-13.45" y="-3" rx="0" ry="0" width="26.9" height="6" />
</g>
		<g transform="matrix(1 0 0 1 -80.35000000000001 73.29999999999998)" id="path-01"  >
<rect style="stroke: none; stroke-width: 0; stroke-dasharray: none; stroke-linecap: butt; stroke-dashoffset: 0; stroke-linejoin: miter; stroke-miterlimit: 4; fill: rgb(255,87,131); fill-rule: nonzero; opacity: 1;"  paint-order="stroke"  x="-12.85" y="-4.1" rx="0" ry="0" width="25.7" height="8.2" />
</g>
		<g transform="matrix(1 0 0 1 110.15 -28.45000000000001)" id="path-01"  >
<rect style="stroke: none; stroke-width: 0; stroke-dasharray: none; stroke-linecap: butt; stroke-dashoffset: 0; stroke-linejoin: miter; stroke-miterlimit: 4; fill: rgb(255,87,131); fill-rule: nonzero; opacity: 1;"  paint-order="stroke"  x="-7.35" y="-7.35" rx="0" ry="0" width="14.7" height="14.7" />
</g>
		<g transform="matrix(1 0 0 1 -20.250000000000007 86.44999999999999)" id="path-01"  >
<rect style="stroke: none; stroke-width: 0; stroke-dasharray: none; stroke-linecap: butt; stroke-dashoffset: 0; stroke-linejoin: miter; stroke-miterlimit: 4; fill: rgb(255,87,131); fill-rule: nonzero; opacity: 1;"  paint-order="stroke"  x="-3.65" y="-3.65" rx="0" ry="0" width="7.3" height="7.3" />
</g>
		<g transform="matrix(1 0 0 1 -37.05 -97.45000000000002)" id="path-01"  >
<rect style="stroke: none; stroke-width: 0; stroke-dasharray: none; stroke-linecap: butt; stroke-dashoffset: 0; stroke-linejoin: miter; stroke-miterlimit: 4; fill: rgb(255,87,131); fill-rule: nonzero; opacity: 1;"  paint-order="stroke"  x="-18.35" y="-4.05" rx="0" ry="0" width="36.7" height="8.1" />
</g>
		<g transform="matrix(1 0 0 1 29.150000000000006 -40.250000000000014)" id="path-01"  >
<rect style="stroke: none; stroke-width: 0; stroke-dasharray: none; stroke-linecap: butt; stroke-dashoffset: 0; stroke-linejoin: miter; stroke-miterlimit: 4; fill: rgb(255,87,131); fill-rule: nonzero; opacity: 1;"  paint-order="stroke"  x="-15.75" y="-3.25" rx="0" ry="0" width="31.5" height="6.5" />
</g>
</g>
</g>
<g transform="matrix(2.9953058309552842 0 0 2.9953058309552842 649.0925956019461 561.6774605736617)" id="shape-9011f7e8-26ae-4da9-ad6b-2dd735a92de5"  >
<g style=""  paint-order="stroke"   >
		<g transform="matrix(1 0 0 1 62.369389247280154 -39.75934988525348)" id="path-01"  >
<linearGradient id="SVGID_894542" gradientUnits="userSpaceOnUse" gradientTransform="matrix(1 0 0 1 164.0955559992509 0.00000169814551398417)"  x1="0" y1="0" x2="0" y2="6">
<stop offset="0%" style="stop-color:rgb(48,35,174);stop-opacity: 1"/>
<stop offset="100%" style="stop-color:rgb(200,109,215);stop-opacity: 1"/>
</linearGradient>
<path style="stroke: none; stroke-width: 1; stroke-dasharray: none; stroke-linecap: butt; stroke-dashoffset: 0; stroke-linejoin: miter; stroke-miterlimit: 4; fill: url(#SVGID_894542); fill-rule: nonzero; opacity: 1;"  paint-order="stroke"  transform=" translate(-187.3694021295371, -3.0854473843949806)" d="M 177.03323 4.46232 C 173.05735 3.75877 169.01336 2.93012 164.92884 2.38001 C 163.78574 2.22605 163.83215 1.1103 164.9854 0.99512 C 176.98369 -0.20328999999999997 189.18892 -0.3312299999999999 201.25014 0.6762600000000001 C 204.12444 0.9077000000000001 209.30207 1.00313 210.44361999999998 3.23666 C 211.07551999999998 4.4762900000000005 210.1582 5.19786 208.38474999999997 5.45689 C 206.28519999999997 5.756489999999999 204.10402999999997 5.8928199999999995 201.96367999999995 6.01519 C 193.54482999999996 6.478389999999999 185.18707999999995 5.89283 177.03322999999995 4.46233 L 177.03323 4.46232 z" stroke-linecap="round" />
</g>
		<g transform="matrix(1 0 0 1 -122.27770503642726 36.33014368112306)" id="path-01"  >
<linearGradient id="SVGID_894543" gradientUnits="userSpaceOnUse" gradientTransform="matrix(1 0 0 1 5.8601460439789e-7 72.66028906039163)"  x1="0" y1="0" x2="0" y2="13">
<stop offset="0%" style="stop-color:rgb(48,35,174);stop-opacity: 1"/>
<stop offset="100%" style="stop-color:rgb(200,109,215);stop-opacity: 1"/>
</linearGradient>
<path style="stroke: none; stroke-width: 1; stroke-dasharray: none; stroke-linecap: butt; stroke-dashoffset: 0; stroke-linejoin: miter; stroke-miterlimit: 4; fill: url(#SVGID_894543); fill-rule: nonzero; opacity: 1;"  paint-order="stroke"  transform=" translate(-2.7223078458296626, -79.17494095077151)" d="M 4.12177 73.27008 C 4.00291 72.56961999999999 3.05962 72.43271999999999 2.7433299999999994 73.06891999999999 C 1.9344599999999994 74.6959 0.8721599999999994 76.98441999999999 0.4790999999999994 78.51164999999999 C -0.1238200000000006 80.83530999999999 -0.6718900000000005 84.55107999999998 2.2438599999999997 85.55971 C 3.41673 85.96513999999999 4.458 85.38441999999999 4.99517 84.33192 C 5.6638 83.02759 5.44455 81.48214 5.23629 80.09002 C 4.9603 78.2522 4.46382 75.28571 4.12177 73.27008 z" stroke-linecap="round" />
</g>
		<g transform="matrix(1 0 0 1 0.7021152609202375 -5.182245909494377)" id="path-01"  >
<linearGradient id="SVGID_894544" gradientUnits="userSpaceOnUse" gradientTransform="matrix(1 0 0 1 1.4042311078550966 2.667320000000011)"  x1="0" y1="0" x2="0" y2="70">
<stop offset="0%" style="stop-color:rgb(48,35,174);stop-opacity: 1"/>
<stop offset="100%" style="stop-color:rgb(200,109,215);stop-opacity: 1"/>
</linearGradient>
<path style="stroke: none; stroke-width: 1; stroke-dasharray: none; stroke-linecap: butt; stroke-dashoffset: 0; stroke-linejoin: miter; stroke-miterlimit: 4; fill: url(#SVGID_894544); fill-rule: nonzero; opacity: 1;"  paint-order="stroke"  transform=" translate(-125.70212814317716, -37.662551360154076)" d="M 244.45203 47.63067 C 243.82724000000002 47.049690000000005 243.11472 46.56718 242.35839 46.172720000000005 C 241.61303 45.788970000000006 240.81289 45.52591 240.17710000000002 44.96687000000001 C 239.59618000000003 44.46269000000001 239.12485000000004 43.717400000000005 239.07000000000002 42.92821000000001 C 239.05909000000003 42.70877000000001 239.08097 42.50057000000001 239.12486 42.292370000000005 C 239.10293000000001 42.171940000000006 239.10293000000001 42.05125 239.14674000000002 41.908620000000006 C 240.03462000000002 38.65341000000001 237.69984000000002 35.91308000000001 235.06916 34.345420000000004 C 234.30186 33.885130000000004 233.67724 33.14808000000001 232.88787000000002 32.690250000000006 C 226.62107000000003 29.055550000000007 218.55045 30.585760000000008 211.34887000000003 29.741720000000008 C 215.72242000000003 29.65395000000001 220.08500000000004 29.566430000000008 224.45861000000002 29.47866000000001 C 226.31109000000004 29.445740000000008 228.17446 29.41283000000001 230.01601000000002 29.22657000000001 C 230.73941000000002 29.14977000000001 232.59584 28.93837000000001 233.73185 28.52490000000001 C 234.64671 28.19191000000001 235.46377 27.582370000000008 236.29684 27.08890000000001 C 237.46972 26.38749000000001 238.59869 25.52151000000001 239.42079 24.41441000000001 C 239.81538 23.86635000000001 240.15526 23.26368000000001 240.36345 22.61687000000001 C 240.68137 21.64143000000001 240.26483 21.04948000000001 239.64005 20.31488000000001 C 239.15775 19.72320000000001 238.62066000000002 19.17512000000001 238.06162 18.65971000000001 C 237.71084000000002 18.34179000000001 237.43337 17.902270000000012 236.9984 17.71718000000001 C 235.03032000000002 16.87974000000001 232.76728 17.09231000000001 230.94773 15.91937000000001 C 230.03791 15.33865000000001 230.60792 13.792940000000009 231.70406 14.13280000000001 C 234.20319 14.90004000000001 236.80103 15.33866000000001 239.42079999999999 15.05338000000001 C 240.70332 14.92198000000001 241.99676 14.58212000000001 243.18051999999997 14.05600000000001 C 244.19992999999997 13.59571000000001 245.70167999999998 12.90501000000001 246.08530999999996 11.73234000000001 C 246.46892999999997 10.61427000000001 245.60300999999995 9.45230000000001 244.69319999999996 8.88229000000001 C 243.53128999999996 8.13699000000001 242.01861999999997 8.10408000000001 240.67039999999997 8.12602000000001 C 237.49159999999998 8.180610000000009 234.31283999999997 8.46588000000001 231.14500999999998 8.65214000000001 C 219.65757 9.33188000000001 208.13720999999998 9.67147000000001 196.63878 9.93453000000001 C 190.89507 10.06619000000001 185.14038 10.21953000000001 179.39658 10.110080000000009 C 173.70766 10.00036000000001 168.10643 9.41938000000001 162.47229 8.608250000000009 C 156.98071 7.8081000000000085 151.53289999999998 7.369750000000009 145.97552 7.6437800000000085 C 140.64833 7.917810000000008 135.36497 8.641160000000008 130.08160999999998 9.33187000000001 C 120.07390999999998 10.625230000000009 109.48530999999998 12.082910000000009 99.52143999999998 9.71536000000001 C 97.07708999999998 10.16468000000001 94.56695999999998 10.24148000000001 92.12253999999999 9.82482000000001 C 90.96063999999998 9.61662000000001 91.26758999999998 7.80811000000001 92.38559 7.81908000000001 C 96.3317 7.85200000000001 100.25589 7.58893000000001 103.9827 6.185860000000011 C 104.87057 5.85697000000001 107.77534 4.95806000000001 106.50379 3.5772000000000106 C 105.90092999999999 2.9194200000000103 104.82674 2.8426100000000107 103.99367 2.7658000000000107 C 103.07289 2.6999700000000106 102.16315 2.667320000000011 101.24237 2.667320000000011 C 97.38401999999999 2.6782900000000107 93.55847999999999 3.291930000000011 89.75493 3.8619300000000107 C 86.01709 4.409990000000011 82.2793 4.903470000000011 78.50861 5.210150000000011 C 76.60135000000001 5.363750000000011 74.68383 5.532620000000011 72.76489000000001 5.517100000000011 C 71.71483 5.508540000000011 69.30330000000001 5.376610000000011 63.54223000000001 5.903260000000011 C 57.79244 6.42884 52.08135 7.3454 46.30424 7.66573 C 35.69369 8.24644 25.05023 8.12602 14.46163 7.28198 C 11.75415 7.06281 9.05771 6.76683 6.35023 6.50377 C 4.92527 6.3721 1.29707 5.55 1.40666 7.96171 C 1.49437 9.97842 3.29204 11.4254 5.03492 12.12679 C 7.40254 13.08055 9.89078 12.71874 12.33513 13.21195 C 13.33258 13.42042 13.29973 14.97684 12.33513 15.20699 C 10.70191 15.590739999999998 8.7727 15.61268 6.898289999999999 15.27282 C 6.996969999999999 15.73311 6.29543 16.46743 6.109109999999999 16.675639999999998 C 5.36375 17.53092 4.815689999999999 18.506359999999997 4.464919999999999 19.59152 C 4.1141499999999995 20.69862 3.9058799999999994 21.849619999999998 4.311439999999999 22.967689999999997 C 4.662209999999999 23.932159999999996 5.26507 24.776199999999996 5.484309999999999 25.78456 C 5.977579999999999 28.0646 4.125119999999999 29.68686 3.905869999999999 31.86814 C 3.818159999999999 32.8219 3.6318399999999986 34.27957 4.015449999999999 35.17848 C 4.486849999999999 36.26364 5.7692999999999985 35.55126 6.613279999999999 35.87989 C 6.722929999999999 35.92378 6.788699999999999 36.00058000000001 6.8763999999999985 36.055440000000004 C 7.139459999999999 36.09933 7.391549999999999 36.285590000000006 7.424459999999998 36.62545000000001 C 7.797099999999998 39.705650000000006 5.659639999999998 42.314310000000006 4.223709999999998 44.82450000000001 C 3.390699999999998 46.29314000000001 2.754929999999998 47.860800000000005 2.3493699999999977 49.50500000000001 C 2.239719999999998 49.94335000000001 1.6587999999999976 51.675320000000006 2.086309999999998 51.97130000000001 C 2.371249999999998 52.179500000000004 3.017999999999998 51.773810000000005 3.412589999999998 51.489070000000005 C 3.872939999999998 51.00656000000001 5.100669999999998 50.765460000000004 5.736389999999998 50.30516000000001 C 6.514659999999998 49.75710000000001 7.194259999999998 49.09930000000001 8.147899999999998 48.70485000000001 C 9.408479999999997 48.18943000000001 10.943019999999997 48.222620000000006 12.378949999999998 48.33207000000001 C 14.121829999999997 48.474700000000006 15.831789999999998 48.70485000000001 17.51981 49.04471000000001 C 18.48441 49.24194000000001 19.64631 49.65834000000001 19.62443 50.38170000000001 C 19.60249 50.809340000000006 19.15303 51.17114000000001 18.63788 51.34643000000001 C 18.11176 51.53296000000001 17.51981 51.56560000000001 16.93889 51.598520000000015 C 14.43967 51.751860000000015 11.94053 51.927410000000016 9.452290000000001 52.135610000000014 C 8.695960000000001 52.20144000000001 7.928650000000001 52.26727000000001 7.249060000000002 52.486440000000016 C 6.690020000000002 52.67270000000001 6.2077300000000015 52.979650000000014 5.944670000000002 53.36340000000001 C 5.944670000000002 53.45117000000001 5.977590000000002 53.53869000000001 5.966610000000002 53.637430000000016 C 5.966610000000002 54.700640000000014 5.352780000000002 55.62150000000002 4.859510000000002 56.520130000000016 C 4.278590000000002 57.61626000000002 1.9657100000000018 61.89107000000001 4.125120000000002 62.537880000000015 C 5.287020000000002 62.88871000000002 6.766770000000001 62.307730000000014 7.851930000000001 61.95690000000002 C 8.98098 61.59535000000002 10.109960000000001 61.20063000000002 11.293800000000001 61.05826000000002 C 13.04765 60.83882000000002 15.930420000000002 61.14577000000002 16.42369 63.23956000000002 C 16.54432 63.76568000000002 16.04007 64.43416000000002 15.44819 64.20403000000002 C 14.73567 63.91902000000002 14.065570000000001 62.93265000000002 13.39836 63.272480000000016 C 11.733640000000001 64.12038000000001 11.27186 66.22102000000001 9.77017 67.37173000000001 C 8.83848 68.07341000000001 7.73138 68.87355000000001 7.24908 69.98067000000002 C 6.8764400000000006 70.80277000000002 6.7997000000000005 71.98667000000002 7.70943 72.47988000000002 C 8.72889 73.02795000000002 10.05517 72.17293000000002 10.96498 71.75626000000003 C 12.12688 71.23014000000002 13.26683 70.67136000000002 14.4397 70.17790000000002 C 16.807380000000002 69.18052000000002 19.20792 68.30356000000002 21.68512 67.63507000000003 C 30.794040000000003 65.15781000000003 40.407070000000004 65.36601000000003 49.76808 65.24531000000003 C 60.4444 65.09198000000004 71.10974 64.79600000000003 81.78604999999999 64.86183000000003 C 92.36374999999998 64.92740000000002 102.94137999999998 65.28921000000003 113.45331999999999 66.52798000000003 C 116.08406 66.83493000000003 118.72569999999999 67.16355000000003 121.35645999999998 67.56925000000003 C 123.26371999999998 67.85425000000002 125.51076999999998 68.72024000000002 127.46185999999999 68.31455000000003 C 128.62382 68.06246000000003 128.53611999999998 67.02119000000002 127.93324999999999 66.18812000000003 C 127.29746999999999 65.33311000000003 126.26709999999999 64.80699000000003 125.33541999999998 64.35741000000003 C 123.16502999999999 63.30516000000003 120.66588999999999 62.92168000000003 118.28722999999998 62.73516000000003 C 117.77207999999997 62.69153000000003 117.59666999999997 61.92430000000003 118.15569999999998 61.79263000000003 C 119.63551999999999 61.45277000000003 121.10429999999998 61.44180000000003 122.54022999999998 61.69388000000003 C 122.58410999999998 61.562490000000025 122.68272999999998 61.46373000000003 122.85814999999998 61.40888000000003 C 130.47620999999998 59.28245000000003 138.74108999999999 60.83887000000003 146.21670999999998 62.800990000000034 C 153.27580999999998 64.66462000000003 160.17045 66.95537000000003 167.47068 67.75553000000004 C 170.9893 68.13928000000004 174.55169999999998 68.12832000000003 178.04836 67.56927000000003 C 181.49024 67.02121000000002 184.85537 66.11132000000003 188.28626 65.48673000000004 C 191.79382999999999 64.85089000000004 195.25767 64.66462000000004 198.8091 65.00422000000003 C 202.52501 65.36603000000004 206.19702 65.85923000000003 209.94577 65.89214000000003 C 211.80922 65.91408000000003 213.67265 65.92506000000003 215.53607000000002 65.91408000000003 C 217.31181000000004 65.90311000000003 219.17525000000003 66.02353000000002 220.92903 65.74949000000002 C 222.24441000000002 65.55226000000002 223.75708 64.97128000000002 224.35994000000002 63.67792000000002 C 224.86418000000003 62.58179000000002 224.29417000000004 61.21163000000002 223.06651000000002 60.99244000000002 C 222.59518000000003 60.90466000000002 222.73146000000003 60.46985000000002 222.50747 60.19229000000002 C 221.24722 58.63069000000002 218.50663 60.07160000000002 216.51165 59.95117000000002 C 215.43739 59.88534000000002 215.42641 58.28502000000002 216.51165 58.27405000000002 C 221.63058 58.197240000000015 226.78242 58.50420000000002 231.90133 58.635860000000015 C 235.89124 58.73434000000002 240.10037 58.635860000000015 243.77245 60.44437000000001 C 245.17547 61.12410000000001 247.47738999999999 62.987200000000016 249.05584 61.836480000000016 C 250.76579999999998 60.57604000000001 249.73541999999998 57.91224000000002 249.19834 56.344850000000015 C 248.13505 53.24271000000002 246.9074 49.92139000000002 244.45208 47.63065000000002 L 244.45203 47.63067 z M 73.77328 37.34882 C 75.27498 37.304930000000006 76.78765 37.272020000000005 78.28935 37.239360000000005 C 79.62667 37.20644000000001 81.23795 36.921440000000004 82.48756 37.49145000000001 C 83.05757 37.75451000000001 83.01368000000001 38.675090000000004 82.48756 38.94913000000001 C 81.19413 39.617880000000014 79.34166 39.34385000000001 77.91671 39.38774000000001 C 76.40405 39.420390000000005 74.90234 39.453570000000006 73.38968 39.48622000000001 C 70.32053 39.53011000000001 67.2404 39.58497000000001 64.1602 39.63982000000001 C 61.09105 39.69442000000001 58.010920000000006 39.69442000000001 54.930800000000005 39.65079000000001 C 53.494870000000006 39.62885000000001 52.04797000000001 39.67273000000001 50.61204000000001 39.51913000000001 C 49.55980000000001 39.39870000000001 48.222480000000004 39.22315000000001 47.477120000000006 38.39007000000001 C 47.323640000000005 38.22576000000001 47.422320000000006 37.95172000000001 47.66344000000001 37.95172000000001 C 48.321160000000006 37.92978000000001 48.98978000000001 38.11603000000001 49.65841000000001 38.18187000000001 C 50.29419000000001 38.24770000000001 50.94086000000001 38.25867000000001 51.58761000000001 38.23673000000001 C 52.95777000000001 38.20381000000001 54.32794000000001 38.09410000000001 55.687140000000014 38.01756000000001 C 58.70151000000001 37.83130000000001 61.71586000000001 37.71061000000001 64.73023 37.62284000000001 C 67.7446 37.53533000000001 70.75895 37.43658000000001 73.77331000000001 37.34881000000001 L 73.77328 37.34882 z M 38.81762 15.40424 C 40.82356 15.04269 43.048739999999995 15.2509 45.07655 15.2509 C 47.115339999999996 15.2509 49.165099999999995 15.228959999999999 51.203959999999995 15.1741 C 55.391119999999994 15.075349999999998 59.622249999999994 14.69187 63.80947 14.922009999999998 C 64.14927 14.94395 64.24788 15.459099999999998 63.88615 15.535909999999998 C 59.80857 16.390919999999998 55.5446 16.46746 51.39029 16.57718 C 49.21996 16.643009999999997 47.06056 16.664949999999997 44.89023 16.664949999999997 C 42.928110000000004 16.675649999999997 40.74682 16.818289999999998 38.817620000000005 16.379949999999997 C 38.35727 16.27023 38.32441 15.49202 38.81762 15.40424 L 38.81762 15.40424 z M 27.53844 36.35144 C 25.99293 36.439209999999996 24.39255 36.121289999999995 22.836060000000003 36.07740999999999 C 21.312420000000003 36.033519999999996 19.788780000000003 35.97865999999999 18.265150000000006 36.022549999999995 C 16.664840000000005 36.05546999999999 15.075430000000006 36.14324 13.486020000000005 36.26367 C 11.984320000000006 36.38436 10.416870000000005 36.55965 8.904200000000007 36.38436 C 8.312310000000007 36.30756 8.180790000000007 35.55129 8.761690000000007 35.33185 C 10.252420000000008 34.805730000000004 11.918550000000007 34.63044 13.486020000000007 34.45516000000001 C 15.130210000000007 34.279610000000005 16.785390000000007 34.126270000000005 18.440560000000005 34.07141000000001 C 20.040870000000005 34.02752000000001 21.674160000000004 34.02752000000001 23.263500000000004 34.23572000000001 C 24.776170000000004 34.43321000000001 26.453280000000003 34.60850000000001 27.812470000000005 35.32115000000001 C 28.327680000000004 35.59518000000001 28.053650000000005 36.31853000000001 27.538440000000005 36.35145000000001 C 27.53844 36.35145 27.53844 36.35144 27.53844 36.35144 z M 35.50734 16.27023 C 33.81926 16.752460000000003 31.89012 16.752460000000003 30.14723 16.80732 C 28.32769 16.87315 26.50806 16.851210000000002 24.69942 16.741490000000002 C 22.89085 16.632030000000004 21.0822 16.456760000000003 19.28459 16.204400000000003 C 17.651290000000003 15.985230000000003 15.689240000000002 15.897450000000003 14.187550000000002 15.185070000000003 C 13.683310000000002 14.954920000000003 13.968310000000002 14.220600000000003 14.450610000000001 14.209360000000004 C 15.33848 14.176720000000003 16.23731 14.461720000000003 17.11421 14.604080000000003 C 18.01305 14.757420000000003 18.91188 14.889080000000003 19.82169 14.998800000000003 C 21.49874 15.217970000000003 23.18682 15.371320000000003 24.87484 15.459090000000003 C 26.573829999999997 15.546860000000004 28.27282 15.590750000000003 29.96091 15.568810000000003 C 31.747609999999998 15.557840000000002 33.62195 15.316720000000002 35.39768 15.470060000000002 C 35.84713 15.502980000000003 35.967690000000005 16.138810000000003 35.50733 16.270210000000002 L 35.50734 16.27023 z M 106.19689 57.43004 C 103.64289 57.52852 101.05601999999999 57.10115 98.51299 56.870999999999995 C 96.01384 56.64084999999999 93.50367 56.46556999999999 90.99354 56.322939999999996 C 82.04907 55.79682 73.07173 55.81876 64.13830999999999 56.45433 C 59.67704999999999 56.76128 55.22674999999999 57.22184 50.787429999999986 57.81379 C 46.36998999999999 58.39451 41.842959999999984 59.600359999999995 37.37077999999998 59.04132 C 37.04188999999998 58.99743 37.03091999999998 58.50423 37.37077999999998 58.52617 C 40.01242999999998 58.69048 42.61025999999998 58.03296 45.197119999999984 57.55047 C 47.718209999999985 57.079209999999996 50.26124999999998 56.6628 52.804279999999984 56.290029999999994 C 61.617229999999985 55.02958999999999 70.50683999999998 54.37179999999999 79.39644999999999 54.26208 C 83.93444999999998 54.20748 88.48335999999999 54.33889 93.01038999999999 54.623889999999996 C 95.27938999999999 54.76624999999999 97.53742999999999 54.95278 99.79544999999999 55.171949999999995 C 101.98770999999999 55.391119999999994 104.24573999999998 55.57765 106.36126999999999 56.21321999999999 C 107.04092 56.4217 106.89843 57.40811 106.19689 57.43004 z M 180.21864 15.23992 C 187.12433 15.23992 194.01898 15.39326 200.9246 15.59075 C 204.31167 15.68923 207.69868 15.77701 211.08576 15.86478 C 212.83956 15.89742 214.60431 15.97424 216.35816 16.04007 C 218.00234 16.09493 219.78907 16.05104 221.38935 16.48939 C 221.86076 16.62105 221.90456 17.38829 221.38935 17.48705 C 219.76711 17.81567 217.99137000000002 17.65136 216.35816 17.59651 C 214.59339 17.530939999999998 212.83954 17.48705 211.08576 17.399279999999997 C 207.69869 17.245679999999997 204.31168 17.092329999999997 200.9246 16.960929999999998 C 194.008 16.675649999999997 187.11337 16.347029999999997 180.21864 15.853559999999998 C 179.82405 15.83188 179.81308 15.23993 180.21864 15.23992 z M 162.77921 45.36161 C 165.21261 44.956179999999996 167.74466 44.84646 170.21096 44.68215 C 172.73211 44.51756 175.24224 44.38617 177.75234 44.26547 C 182.81647 44.00241 187.9683 43.67352 193.03243 43.980470000000004 C 193.54763 44.01339 193.5257 44.70382000000001 193.03243 44.758680000000005 C 188.04505 45.33966 182.95897 45.38355000000001 177.93873 45.569810000000004 C 175.42855 45.66856000000001 172.91842 45.77828 170.40832 45.876760000000004 C 167.9091 45.97551000000001 165.36607 46.15079000000001 162.86694 46.03036 C 162.4942 46.01912 162.37366 45.42744 162.77921 45.36161 L 162.77921 45.36161 z M 127.75778 38.30259 C 126.55207 38.60954 125.25863 38.64219 124.03097 38.72997 C 122.71558999999999 38.828720000000004 121.4112 38.86163 120.09582999999999 38.89428 C 117.47605999999999 38.94914 114.85629999999999 38.87234 112.24756 38.74094 C 111.63373 38.708020000000005 111.63373 37.77621 112.24756 37.787440000000004 C 114.81246999999999 37.83133 117.37746 37.798140000000004 119.95333 37.743550000000006 C 121.21391 37.71063000000001 122.46345 37.644800000000004 123.72403999999999 37.60092000000001 C 125.01745999999999 37.55730000000001 126.35477999999999 37.40369000000001 127.64820999999999 37.51341000000001 C 128.07571 37.54606 128.21815 38.1819 127.75778 38.30259 z M 150.75461 16.55524 C 147.47719 16.336070000000003 144.19977 16.27024 140.92235000000002 16.22635 C 134.27979000000002 16.1276 127.65919000000002 16.55524 121.02753000000003 16.64302 C 120.76448000000002 16.64302 120.69870000000003 16.21538 120.96176000000003 16.17149 C 127.56049000000003 15.097299999999999 134.23598000000004 14.362979999999999 140.92235000000002 14.023119999999999 C 144.24367 13.858809999999998 147.61969000000002 13.902689999999998 150.93006000000003 14.132839999999998 C 152.61808000000002 14.253269999999999 154.28422000000003 14.417839999999998 155.95037000000002 14.658959999999999 C 156.78338000000002 14.790619999999999 157.63839000000002 14.900079999999999 158.46049000000002 15.097309999999998 C 159.21682 15.283839999999998 160.06086000000002 15.404259999999999 160.71852 15.84288 C 161.25561000000002 16.19344 161.24464 17.147209999999998 160.53219 17.30056 C 159.75392000000002 17.46515 158.95376000000002 17.3225 158.16451 17.25694 C 157.32053000000002 17.191110000000002 156.47649 17.07041 155.64342000000002 16.98291 C 154.01020000000003 16.82931 152.38794000000001 16.66499 150.75464000000002 16.55527 L 150.75461 16.55524 z M 212.34627 60.09357 C 211.41458 60.49927 210.51573 60.4444 209.52927 60.4444 C 208.45501 60.43343 207.39179 60.43343 206.31754999999998 60.42246 C 204.31166 60.40052 202.29475 60.40052 200.28882 60.35663 C 192.98862 60.19232 185.6993 60.159400000000005 178.41007 59.92925 C 171.10979 59.69883 163.80959 59.66619 156.53125999999997 59.019380000000005 C 156.36687999999998 58.997440000000005 156.35590999999997 58.75632 156.53125999999997 58.745340000000006 C 160.68564999999998 58.62465 164.82898999999998 58.668530000000004 168.98331999999996 58.734370000000006 C 176.20685999999995 58.85506000000001 183.44129999999996 58.81118000000001 190.66483999999997 58.78923 C 194.24921999999998 58.76729 197.83350999999996 58.734370000000006 201.41787999999997 58.67951 C 203.23742999999996 58.64659 205.06802999999996 58.62464 206.88757999999996 58.592 C 207.83023999999995 58.57006 208.77295999999996 58.55908 209.71560999999997 58.53713 C 210.55964999999998 58.51519 211.37077999999997 58.438379999999995 212.17092999999997 58.77825 C 212.66418 58.97549 212.98204 59.80857 212.34627 60.09357 z M 236.16527 44.25451 C 234.65260999999998 44.47368 233.10702999999998 44.38617 231.58344 44.33131 C 230.02688 44.276450000000004 228.48137 44.199650000000005 226.92487 44.155750000000005 C 223.81183 44.046290000000006 220.70977 43.991440000000004 217.59678 43.991440000000004 C 211.32686999999999 43.980470000000004 205.04604 44.11213000000001 198.76522 44.18867 C 198.3048 44.19964 198.33773 43.542120000000004 198.76522 43.49823 C 205.03507 42.81849 211.294 42.57738 217.59675 42.57738 C 220.76459999999997 42.57738 223.94331999999997 42.621269999999996 227.11118 42.720009999999995 C 228.6019 42.774609999999996 230.09262999999999 42.82946999999999 231.58342 42.90626999999999 C 233.10699 42.99403999999999 234.68543 43.07057999999999 236.16523999999998 43.476279999999996 C 236.51601999999997 43.57476 236.5708 44.18866 236.16523999999998 44.25449 L 236.16527 44.25451 z" stroke-linecap="round" />
</g>
		<g transform="matrix(1 0 0 1 118.13997174533917 -9.158392698852516)" id="path-01"  >
<linearGradient id="SVGID_894545" gradientUnits="userSpaceOnUse" gradientTransform="matrix(1 0 0 1 239.12419732520908 30.69505295040441)"  x1="0" y1="0" x2="0" y2="6">
<stop offset="0%" style="stop-color:rgb(48,35,174);stop-opacity: 1"/>
<stop offset="100%" style="stop-color:rgb(200,109,215);stop-opacity: 1"/>
</linearGradient>
<path style="stroke: none; stroke-width: 1; stroke-dasharray: none; stroke-linecap: butt; stroke-dashoffset: 0; stroke-linejoin: miter; stroke-miterlimit: 4; fill: url(#SVGID_894545); fill-rule: nonzero; opacity: 1;"  paint-order="stroke"  transform=" translate(-243.1399846275961, -33.686404570795936)" d="M 247.09297 33.33323 C 246.52296 31.63444 243.93612000000002 31.54666 242.47824 31.26166 C 241.83348 31.13668 240.56868 30.88532 239.66049 30.70431 C 239.27257 30.627 238.98359000000002 31.04974 239.19623 31.38327 C 239.69757 32.16959 240.37303000000003 33.30265 240.60391 34.034909999999996 C 240.83406000000002 34.76922999999999 241.00947000000002 35.63522 241.59039 36.183279999999996 C 242.14944000000003 36.720369999999996 242.99348 36.76425999999999 243.70593000000002 36.57774 C 244.59381000000002 36.33689 245.37208 35.74494 246.06263 35.163959999999996 C 246.63264 34.692699999999995 247.37800000000001 34.166579999999996 247.09299000000001 33.333239999999996 L 247.09297 33.33323 z" stroke-linecap="round" />
</g>
</g>
</g>
<g transform="matrix(1.9211538461538462 0 0 1.9211538461538462 644.7788909744922 540.0583699240984)" id="text-logo"  >
<g style=""  paint-order="stroke"   >
		<g transform="matrix(1 0 0 1 0 0)" id="text-logo-path-0"  >
<linearGradient id="SVGID_894546" gradientUnits="userSpaceOnUse" gradientTransform="matrix(1 0 0 1 -0.18000000000000682 -45.63)"  x1="0" y1="0" x2="0" y2="69">
<stop offset="0%" style="stop-color:rgb(248,77,158);stop-opacity: 1"/>
<stop offset="100%" style="stop-color:rgb(255,116,117);stop-opacity: 1"/>
</linearGradient>
<filter id="SVGID_894534" y="-27.30684183921594%" height="154.61368367843187%" x="-21.350218890403397%" width="142.7004377808068%" >
	<feGaussianBlur in="SourceAlpha" stdDeviation="0"></feGaussianBlur>
	<feOffset dx="3.351648351648353" dy="3.351648351648353" result="oBlur" ></feOffset>
	<feFlood flood-color="rgb(81,18,94)" flood-opacity="1"/>
	<feComposite in2="oBlur" operator="in" />
	<feMerge>
		<feMergeNode></feMergeNode>
		<feMergeNode in="SourceGraphic"></feMergeNode>
	</feMerge>
</filter>
<path style="stroke: rgb(81,18,94); stroke-width: 6.032967032967035; stroke-dasharray: none; stroke-linecap: butt; stroke-dashoffset: 0; stroke-linejoin: miter; stroke-miterlimit: 4; fill: url(#SVGID_894546); fill-rule: nonzero; opacity: 1;filter: url(#SVGID_894534);"  paint-order="stroke"  transform=" translate(-123.935, 22.695)" d="M 10.37 -2.03 L -0.18 0.06 Q 6.08 -27.76 8.4 -43.07 L 8.4 -43.07 Q 14.95 -45.04 18.23 -45.04 Q 21.5 -45.04 23.38 -44.11 Q 25.26 -43.19 26.45 -41.64 L 26.45 -41.64 Q 28.53 -38.84 28.53 -33.54 L 28.53 -33.54 Q 28.53 -30.14 27.28 -26.96 Q 26.03 -23.77 23.95 -21.3 Q 21.86 -18.82 19.12 -17.36 Q 16.38 -15.91 13.46 -15.91 L 13.46 -15.91 L 12.81 -15.91 Q 11.68 -10.9 10.37 -2.03 L 10.37 -2.03 Z M 14.06 -22.34 L 14.06 -22.34 Q 16.2 -22.88 18.05 -25.79 L 18.05 -25.79 Q 20.08 -29.01 20.08 -33.06 L 20.08 -33.06 Q 20.08 -35.33 19.06 -36.49 Q 18.05 -37.65 16.86 -37.65 L 16.86 -37.65 Q 15.31 -29.01 14.06 -22.34 Z M 33.24 -2.5 L 23.35 0.06 Q 29.55 -29.9 30.92 -42.47 L 30.92 -42.47 Q 37.83 -44.62 46.41 -44.62 L 46.41 -44.62 Q 52.84 -44.62 54.03 -40.15 L 54.03 -40.15 Q 54.39 -38.78 54.39 -36.75 Q 54.39 -34.73 53.55 -32.38 Q 52.72 -30.02 51.29 -27.88 L 51.29 -27.88 Q 48.31 -23.53 43.96 -21.21 L 43.96 -21.21 Q 46.29 -16.2 48.1 -11.77 Q 49.92 -7.33 51.17 -4.29 L 51.17 -4.29 L 41.7 -0.95 Q 37.11 -16.02 36.93 -18.17 L 36.93 -18.17 L 36.16 -17.93 Q 35.68 -15.19 34.73 -10.31 Q 33.78 -5.42 33.24 -2.5 L 33.24 -2.5 Z M 39.67 -36.1 L 37.71 -26.39 Q 40.09 -26.63 43.72 -29.43 L 43.72 -29.43 Q 47.48 -32.29 47.48 -34.13 L 47.48 -34.13 Q 47.48 -35.86 44.2 -36.1 L 44.2 -36.1 Q 43.25 -36.16 42.29 -36.16 L 42.29 -36.16 L 39.67 -36.1 Z M 50.63 -12.27 L 50.63 -12.27 Q 50.63 -19.06 53.79 -26.93 L 53.79 -26.93 Q 56.95 -34.79 62.07 -40.03 L 62.07 -40.03 Q 67.61 -45.63 73.69 -45.63 L 73.69 -45.63 Q 78.69 -45.63 81.02 -41.58 L 81.02 -41.58 Q 82.86 -38.3 82.86 -31.63 L 82.86 -31.63 Q 82.86 -28 81.82 -23.59 Q 80.78 -19.18 78.99 -15.49 Q 77.2 -11.79 74.85 -8.88 Q 72.5 -5.96 69.94 -3.93 L 69.94 -3.93 Q 64.63 0.24 59.75 0.24 L 59.75 0.24 Q 55.64 0.24 53.26 -2.74 L 53.26 -2.74 Q 50.63 -6.02 50.63 -12.27 Z M 59.69 -13.82 L 59.69 -13.82 Q 59.69 -11.44 61.71 -10.25 L 61.71 -10.25 Q 62.31 -9.83 63.08 -9.83 L 63.08 -9.83 Q 65.83 -9.83 67.94 -11.71 Q 70.05 -13.58 71.48 -16.32 Q 72.91 -19.06 73.66 -22.19 Q 74.4 -25.32 74.4 -27.88 L 74.4 -27.88 Q 74.4 -32.82 71.54 -32.82 L 71.54 -32.82 Q 67.91 -32.82 64.99 -29.25 L 64.99 -29.25 Q 62.67 -26.39 61 -21.45 L 61 -21.45 Q 59.69 -17.39 59.69 -13.82 Z M 94.12 -1.67 L 83.16 0.06 Q 87.99 -22.58 89.65 -35.38 L 89.65 -35.38 Q 88.58 -35.5 87.51 -35.5 L 87.51 -35.5 L 86.79 -35.5 Q 86.62 -35.5 86.44 -35.5 L 86.44 -35.5 L 83.93 -35.86 L 84.23 -43.67 Q 87.33 -43.43 90.49 -43.43 L 90.49 -43.43 Q 98.83 -43.43 106.75 -44.44 L 106.75 -44.44 L 106.09 -41.16 Q 105.8 -39.79 105.53 -38.33 Q 105.26 -36.87 105.02 -35.8 L 105.02 -35.8 Q 103.65 -35.44 102.28 -35.3 Q 100.91 -35.15 99.6 -34.91 L 99.6 -34.91 Q 98.53 -30.32 97.46 -23.53 L 97.46 -23.53 Q 95.07 -8.52 94.12 -1.67 L 94.12 -1.67 Z M 100.08 -12.27 L 100.08 -12.27 Q 100.08 -19.06 103.24 -26.93 L 103.24 -26.93 Q 106.39 -34.79 111.52 -40.03 L 111.52 -40.03 Q 117.06 -45.63 123.13 -45.63 L 123.13 -45.63 Q 128.14 -45.63 130.46 -41.58 L 130.46 -41.58 Q 132.31 -38.3 132.31 -31.63 L 132.31 -31.63 Q 132.31 -28 131.26 -23.59 Q 130.22 -19.18 128.43 -15.49 Q 126.65 -11.79 124.29 -8.88 Q 121.94 -5.96 119.38 -3.93 L 119.38 -3.93 Q 114.08 0.24 109.19 0.24 L 109.19 0.24 Q 105.08 0.24 102.7 -2.74 L 102.7 -2.74 Q 100.08 -6.02 100.08 -12.27 Z M 109.13 -13.82 L 109.13 -13.82 Q 109.13 -11.44 111.16 -10.25 L 111.16 -10.25 Q 111.75 -9.83 112.53 -9.83 L 112.53 -9.83 Q 115.27 -9.83 117.38 -11.71 Q 119.5 -13.58 120.93 -16.32 Q 122.36 -19.06 123.1 -22.19 Q 123.85 -25.32 123.85 -27.88 L 123.85 -27.88 Q 123.85 -32.82 120.99 -32.82 L 120.99 -32.82 Q 117.35 -32.82 114.43 -29.25 L 114.43 -29.25 Q 112.11 -26.39 110.44 -21.45 L 110.44 -21.45 Q 109.13 -17.39 109.13 -13.82 Z M 143.56 -1.67 L 132.6 0.06 Q 137.43 -22.58 139.1 -35.38 L 139.1 -35.38 Q 138.02 -35.5 136.95 -35.5 L 136.95 -35.5 L 136.24 -35.5 Q 136.06 -35.5 135.88 -35.5 L 135.88 -35.5 L 133.38 -35.86 L 133.68 -43.67 Q 136.77 -43.43 139.93 -43.43 L 139.93 -43.43 Q 148.27 -43.43 156.19 -44.44 L 156.19 -44.44 L 155.54 -41.16 Q 155.24 -39.79 154.97 -38.33 Q 154.7 -36.87 154.47 -35.8 L 154.47 -35.8 Q 153.1 -35.44 151.73 -35.3 Q 150.36 -35.15 149.04 -34.91 L 149.04 -34.91 Q 147.97 -30.32 146.9 -23.53 L 146.9 -23.53 Q 144.52 -8.52 143.56 -1.67 L 143.56 -1.67 Z M 164.35 -2.2 L 153.93 -0.89 L 156.73 -13.17 Q 156.73 -20.55 156.13 -29.49 Q 155.54 -38.42 155.42 -39.79 L 155.42 -39.79 L 155.3 -41.1 L 165.25 -44.92 L 165.25 -34.31 L 165.19 -28.36 L 165.19 -26.09 Q 167.15 -30.98 171.62 -44.2 L 171.62 -44.2 L 181.09 -42.12 Q 177.82 -35.44 175.2 -30.02 L 175.2 -30.02 L 171.38 -22.16 Q 170.25 -19.78 169.15 -17.51 Q 168.05 -15.25 167.15 -13.28 L 167.15 -13.28 Q 166.26 -8.76 164.35 -2.2 L 164.35 -2.2 Z M 183 -2.03 L 172.46 0.06 Q 178.71 -27.76 181.03 -43.07 L 181.03 -43.07 Q 187.59 -45.04 190.86 -45.04 Q 194.14 -45.04 196.02 -44.11 Q 197.89 -43.19 199.08 -41.64 L 199.08 -41.64 Q 201.17 -38.84 201.17 -33.54 L 201.17 -33.54 Q 201.17 -30.14 199.92 -26.96 Q 198.67 -23.77 196.58 -21.3 Q 194.5 -18.82 191.76 -17.36 Q 189.02 -15.91 186.1 -15.91 L 186.1 -15.91 L 185.44 -15.91 Q 184.31 -10.9 183 -2.03 L 183 -2.03 Z M 186.69 -22.34 L 186.69 -22.34 Q 188.84 -22.88 190.68 -25.79 L 190.68 -25.79 Q 192.71 -29.01 192.71 -33.06 L 192.71 -33.06 Q 192.71 -35.33 191.7 -36.49 Q 190.68 -37.65 189.49 -37.65 L 189.49 -37.65 Q 187.94 -29.01 186.69 -22.34 Z M 215.94 -2.98 L 196.22 0.06 L 204.21 -43.31 L 223.51 -44.98 Q 223.09 -43.61 222.79 -42.32 Q 222.5 -41.04 222.2 -39.79 Q 221.9 -38.54 221.72 -37.59 L 221.72 -37.59 Q 219.93 -37.41 216.84 -37.41 L 216.84 -37.41 L 212.73 -37.41 L 210.58 -26.45 Q 213.86 -26.63 216.06 -26.69 Q 218.27 -26.75 218.92 -26.81 L 218.92 -26.81 Q 218.68 -25.08 218.47 -23.44 Q 218.27 -21.8 217.97 -20.08 L 217.97 -20.08 Q 217.31 -20.02 215.94 -19.99 Q 214.57 -19.96 213.08 -19.9 Q 211.59 -19.84 209.75 -19.78 L 209.75 -19.78 L 207.66 -8.52 L 216.54 -9.95 L 215.94 -2.98 Z M 217.37 -5.36 L 217.37 -5.36 L 221.9 -14.24 Q 222.73 -12.57 225.12 -11.2 L 225.12 -11.2 Q 227.5 -9.77 228.69 -9.77 Q 229.88 -9.77 230.69 -10.01 Q 231.49 -10.25 232.15 -10.72 L 232.15 -10.72 Q 233.63 -11.79 233.63 -13.31 Q 233.63 -14.83 232.68 -16.08 Q 231.73 -17.33 230.33 -18.47 Q 228.93 -19.6 227.29 -20.76 Q 225.65 -21.92 224.28 -23.23 L 224.28 -23.23 Q 220.95 -26.21 220.95 -29.49 Q 220.95 -32.76 222.82 -35.5 Q 224.7 -38.24 227.53 -40.24 Q 230.36 -42.24 233.72 -43.4 Q 237.09 -44.56 239.41 -44.56 Q 241.74 -44.56 243.2 -44.14 Q 244.66 -43.72 245.73 -42.89 L 245.73 -42.89 Q 248.05 -40.98 248.05 -37.29 L 248.05 -37.29 Q 248.05 -36.4 247.9 -35.56 Q 247.75 -34.73 247.63 -33.72 L 247.63 -33.72 L 238.82 -31.16 Q 239.12 -32.35 239.12 -33.66 Q 239.12 -34.97 238.46 -35.77 Q 237.8 -36.58 237.06 -36.58 Q 236.32 -36.58 235.6 -36.22 Q 234.89 -35.86 234.17 -35.27 L 234.17 -35.27 Q 232.5 -33.9 232.5 -32.32 Q 232.5 -30.74 233.34 -29.76 Q 234.17 -28.77 235.39 -27.94 Q 236.61 -27.1 238.04 -26.21 Q 239.47 -25.32 240.72 -23.95 L 240.72 -23.95 Q 243.58 -20.61 243.58 -15.07 L 243.58 -15.07 Q 243.58 -8.4 238.7 -4.05 L 238.7 -4.05 Q 234.05 0.12 226.96 0.12 L 226.96 0.12 Q 221.72 0.12 217.37 -5.36 Z" stroke-linecap="round" />
</g>
</g>
</g>
</svg>