<?xml version="1.0" encoding="UTF-8" standalone="no" ?>
<!DOCTYPE svg PUBLIC "-//W3C//DTD SVG 1.1//EN" "http://www.w3.org/Graphics/SVG/1.1/DTD/svg11.dtd">
<svg xmlns="http://www.w3.org/2000/svg" xmlns:xlink="http://www.w3.org/1999/xlink" version="1.1" width="680" height="210" viewBox="250 200 800 510" xml:space="preserve">
<desc>Created with Fabric.js 4.4.0</desc>
<defs>
</defs>
<g transform="matrix(1 0 0 1 640 512)" id="background-logo"  >
<rect style="stroke: none; stroke-width: 0; stroke-dasharray: none; stroke-linecap: butt; stroke-dashoffset: 0; stroke-linejoin: miter; stroke-miterlimit: 4; fill: rgb(255,255,255); fill-opacity: 0; fill-rule: nonzero; opacity: 1;"  paint-order="stroke"  x="-640" y="-512" rx="0" ry="0" width="1280" height="1024" />
</g>
<g transform="matrix(1.3409288277926812 0 0 1.3409288277926812 648.6333171497862 371.2249633326662)" id="shape-d44830a0-9a90-49ff-88fd-d19b947958ae"  >
<g style=""  paint-order="stroke"   >
		<g transform="matrix(1 0 0 1 0.00009499728520268036 97.99072999999993)" id="path-03"  >
<path style="stroke: none; stroke-width: 1; stroke-dasharray: none; stroke-linecap: butt; stroke-dashoffset: 0; stroke-linejoin: miter; stroke-miterlimit: 4; fill: rgb(46,53,67); fill-rule: nonzero; opacity: 1;"  paint-order="stroke"  transform=" translate(-192.23412499728522, -842.22479)" d="M 150.72002 820.82416 C 150.72002 817.7265 153.23101 815.21552 156.32866 815.21552 L 228.13957000000002 815.21552 C 231.02423000000002 815.21552 233.43907000000002 817.404 233.72145000000003 820.27527 C 234.00383000000002 823.14649 232.06247000000002 825.76337 229.23257000000004 826.32575 L 213.33897000000005 829.48304 L 228.13957000000005 829.48304 C 231.23723000000004 829.48304 233.74823000000004 831.99403 233.74823000000004 835.09168 C 233.74823000000004 838.18933 231.23723000000004 840.70032 228.13957000000005 840.70032 L 156.32866000000004 840.70032 C 153.44402000000005 840.70032 151.02918000000005 838.51184 150.74680000000004 835.64063 C 150.46442000000005 832.76935 152.40578000000005 830.15247 155.23566000000002 829.59015 L 171.12928000000002 826.4328 L 156.32867000000002 826.4328 C 153.231 826.4328 150.72002 823.92181 150.72002 820.82416 z M 228.13957 843.74927 L 156.32865999999999 843.74927 C 153.231 843.74927 150.72001999999998 846.26026 150.72001999999998 849.3579100000001 C 150.72001999999998 852.4555600000001 153.23100999999997 854.9665500000001 156.32865999999999 854.9665500000001 L 228.13957 854.9665500000001 C 231.23722999999998 854.9665500000001 233.74822999999998 852.4555600000001 233.74822999999998 849.3579100000001 C 233.74822999999998 846.26026 231.23723 843.74927 228.13957 843.74927 z M 212.54173 858.01678 L 171.9265 858.01678 C 168.82884 858.01678 166.31786 860.52777 166.31786 863.6254200000001 C 166.31786 866.7230700000001 168.82885 869.2340600000001 171.9265 869.2340600000001 L 212.54173 869.2340600000001 C 215.6394 869.2340600000001 218.15039000000002 866.7230700000001 218.15039000000002 863.6254200000001 C 218.15039000000002 860.52777 215.6394 858.01678 212.54173 858.01678 z" stroke-linecap="round" />
</g>
		<g transform="matrix(1 0 0 1 0 -27.366505000000018)" id="path-02_00000101798898843583859370000007713293285731157673_"  >
<path style="stroke: none; stroke-width: 1; stroke-dasharray: none; stroke-linecap: butt; stroke-dashoffset: 0; stroke-linejoin: miter; stroke-miterlimit: 4; fill: rgb(255,183,1); fill-rule: nonzero; opacity: 1;"  paint-order="stroke"  transform=" translate(-192.23403000000002, -716.867555)" d="M 279.93607 753.56378 C 279.92222 753.6437999999999 279.90824 753.72375 279.89417 753.8037099999999 C 278.5933 761.18927 281.57543999999996 768.6714499999999 287.60969 773.1242699999999 L 302.94288 784.43891 L 287.61524000000003 810.9871899999999 L 270.1435 803.36286 C 263.24891 800.3541899999999 255.26641 801.54896 249.50260000000003 806.38276 C 245.94529000000003 809.3661 242.15067000000002 812.0763 238.15525000000002 814.48731 C 236.05321000000004 811.1532599999999 232.34516000000002 808.98371 228.13958000000002 808.98371 L 222.67396000000002 808.98371 C 225.22541 804.2887 228.81146 800.16199 233.30702000000002 797.01746 C 251.84306000000004 784.05262 263.96898000000004 762.5577400000001 263.96898000000004 738.2201600000001 C 263.96898000000004 698.2595900000001 231.29457000000005 665.9304900000001 191.20514000000003 666.4923800000001 C 152.89519 667.0293100000001 121.40809000000003 698.2124100000001 120.51901000000002 736.5158200000001 C 119.93960000000003 761.4778000000001 132.12090000000003 783.61873 150.99207 796.8988800000001 C 155.52720000000002 800.09041 159.16497 804.2514800000001 161.75415 808.9837200000001 L 156.32867000000002 808.9837200000001 C 152.12583 808.9837200000001 148.43725 811.19118 146.33523000000002 814.5010500000001 C 142.33099 812.0863200000001 138.52831000000003 809.3710500000001 134.96395 806.3814800000001 C 129.20098000000002 801.5479200000001 121.21868 800.3546200000001 114.32481000000001 803.3629300000001 L 96.85302000000001 810.9872000000001 L 81.52538 784.4389 L 96.85858 773.1242 C 102.89280000000001 768.67138 105.87494000000001 761.1892 104.57408000000001 753.80364 C 104.56 753.72368 104.54603000000002 753.64379 104.53218000000001 753.56377 C 103.25140000000002 746.1735699999999 97.86682000000002 740.16198 90.67250000000001 738.04125 L 72.39413000000002 732.65319 L 77.71736000000001 702.4635499999999 L 96.74009000000001 703.65221 C 104.21359000000001 704.11919 111.31427000000001 700.3231099999999 115.05521000000002 693.83641 C 115.09515000000002 693.7672 115.13518000000002 693.69798 115.17531000000001 693.62883 C 118.94554000000001 687.13194 118.70491000000001 679.06242 114.55073000000002 672.8040599999999 L 104.00972000000002 656.92387 L 127.49305000000001 637.21904 L 141.29307 650.3494099999999 C 146.73174 655.5242099999999 154.62994 657.1619699999999 161.68096 654.58507 C 161.75928 654.55644 161.83765 654.52794 161.91607 654.4995 C 168.96061 651.9475600000001 173.93678 645.6082 174.77512 638.1627100000001 L 176.90648 619.2340600000001 L 207.56174 619.2340600000001 L 209.69308999999998 638.1627100000001 C 210.53144999999998 645.6082100000001 215.5076 651.9475600000001 222.55213999999998 654.4995 C 222.63056999999998 654.5279400000001 222.70893999999998 654.55645 222.78725999999997 654.58507 C 229.83826999999997 657.16197 237.73647999999997 655.52422 243.17513999999997 650.3494099999999 L 256.97517 637.21904 L 280.45866 656.92387 L 269.91764 672.80387 C 265.76343 679.0621699999999 265.52274 687.13175 269.29295 693.6285799999999 C 269.33308 693.6977899999999 269.37315 693.7670099999999 269.41310000000004 693.83628 C 273.15404000000007 700.32304 280.25474 704.11918 287.72829 703.6522 L 306.75072 702.46354 L 312.07393 732.65318 L 293.7957 738.04124 C 286.60141 740.16199 281.21683 746.17358 279.93607 753.56378 z" stroke-linecap="round" />
</g>
		<g transform="matrix(1 0 0 1 -11.012826193083185 -4.129230655664571)" id="path-01_00000096773945560062137120000002616914232859107007_"  >
<path style="stroke: none; stroke-width: 1; stroke-dasharray: none; stroke-linecap: butt; stroke-dashoffset: 0; stroke-linejoin: miter; stroke-miterlimit: 4; fill: rgb(255,221,109); fill-rule: nonzero; opacity: 1;"  paint-order="stroke"  transform=" translate(-181.22120380691683, -740.1048293443355)" d="M 203.42525 803.99823 L 203.42525 776.72424 C 203.42525 776.06329 203.68816 775.4292 204.15555 774.9617900000001 L 219.65479 759.46252 L 219.65479 743.89984 C 215.09473 742.77765 211.69826 738.66534 211.69826 733.76477 C 211.69826 728.00397 216.38552 723.31671 222.14752000000001 723.31671 C 227.90831000000003 723.31671 232.59558 728.00397 232.59558 733.76477 C 232.59558 738.66516 229.19942 742.77734 224.64026 743.89972 L 224.64026 760.49469 C 224.64026 761.15558 224.37735 761.78973 223.90996 762.2571399999999 L 208.41072000000003 777.7563499999999 L 208.41072000000003 803.9982299999999 L 203.42525 803.9982299999999 z M 222.14752 739.22736 C 225.15999 739.22736 227.61011 736.77723 227.61011 733.76477 C 227.61011 730.75231 225.15999 728.30218 222.14752 728.30218 C 219.13506999999998 728.30218 216.68371 730.75231 216.68371 733.76477 C 216.68371 736.77723 219.13507 739.22736 222.14752 739.22736 z M 181.78546 720.18738 C 181.78546 714.42658 186.47272 709.7393199999999 192.2335 709.7393199999999 C 197.99552 709.7393199999999 202.68277999999998 714.42658 202.68277999999998 720.18738 C 202.68277999999998 725.08795 199.28631 729.20026 194.72624 730.32251 L 194.72624 803.9982299999999 L 189.74078 803.9982299999999 L 189.74078 730.32233 C 185.18163 729.19995 181.78546 725.08783 181.78546 720.18738 z M 186.77092 720.18738 C 186.77092 723.1998299999999 189.22105 725.6499699999999 192.23351 725.6499699999999 C 195.24598 725.6499699999999 197.69733 723.19984 197.69733 720.18738 C 197.69733 717.1749199999999 195.24598 714.72479 192.23351 714.72479 C 189.22105 714.72479 186.77092 717.17493 186.77092 720.18738 z M 151.87267 733.76477 C 151.87267 728.00397 156.55993 723.31671 162.32073 723.31671 C 168.08274 723.31671 172.76999 728.00397 172.76999 733.76477 C 172.76999 738.66534 169.37352 742.77765 164.81345000000002 743.89984 L 164.81345000000002 759.46252 L 180.3127 774.9617900000001 C 180.78009 775.4292 181.043 776.06329 181.043 776.72424 L 181.043 803.99823 L 176.05753 803.99823 L 176.05753 777.75635 L 160.55828000000002 762.25714 C 160.09090000000003 761.7897300000001 159.82799000000003 761.1555800000001 159.82799000000003 760.4946900000001 L 159.82799000000003 743.8997200000001 C 155.26883 742.77734 151.87267 738.66516 151.87267 733.76477 z M 156.85812 733.76477 C 156.85812 736.7772199999999 159.30825000000002 739.22736 162.32072000000002 739.22736 C 165.33317000000002 739.22736 167.78453000000002 736.77723 167.78453000000002 733.76477 C 167.78453000000002 730.75231 165.33318000000003 728.30218 162.32072000000002 728.30218 C 159.30826 728.30219 156.85812 730.75232 156.85812 733.76477 z M 149.80714 781.39929 C 150.55326 780.68603 150.57882 779.50177 149.86436 778.75689 C 139.01342 767.42638 133.23802 752.53204 133.60316 736.81982 C 133.96952 721.0016400000001 141.05946 705.6995800000001 153.05451 694.8377 C 153.8201 694.14391 153.87852999999998 692.96209 153.18596 692.19646 C 152.48975 691.4309 151.30911 691.37487 150.54474 692.06499 C 137.7926 703.61339 130.25598 719.8940299999999 129.86406 736.73217 C 129.47701 753.44616 135.6212 769.28863 147.16469 781.34209 C 147.53105 781.72551 148.02278 781.91906 148.51451 781.91906 C 148.97949 781.91907 149.44566 781.74622 149.80714 781.39929 z M 168.23975 684.81689 C 173.80701 682.2669 179.68708999999998 680.62622 185.71687999999997 679.9397499999999 C 186.74293999999998 679.8228699999999 187.47931999999997 678.8965999999999 187.36245999999997 677.8705399999999 C 187.24682999999996 676.8444799999999 186.31327999999996 676.1008299999999 185.29328999999996 676.2249699999999 C 178.87157999999997 676.9552599999998 172.60932999999994 678.7018999999999 166.68177999999995 681.4161299999998 C 165.74335999999994 681.8470399999999 165.33074999999994 682.9558599999998 165.76038999999994 683.8954999999999 C 166.07563999999994 684.5819599999999 166.75359999999995 684.9860799999999 167.46196999999995 684.9860799999999 C 167.72246 684.98608 167.98657 684.93127 168.23975 684.81689 z" stroke-linecap="round" />
</g>
</g>
</g>
<g transform="matrix(2.9983718593477393 0 0 2.9983718593477393 648.6333171497862 562.7471486486194)" id="shape-6b04ae0a-d612-441e-93ae-245dd8ac322f"  >
<g style=""  paint-order="stroke"   >
		<g transform="matrix(1 0 0 1 62.369389247280154 -39.75934988525348)" id="path-01"  >
<linearGradient id="SVGID_848022" gradientUnits="userSpaceOnUse" gradientTransform="matrix(1 0 0 1 164.0955559992509 0.00000169814551398417)"  x1="0" y1="0" x2="0" y2="6">
<stop offset="0%" style="stop-color:rgb(48,35,174);stop-opacity: 1"/>
<stop offset="100%" style="stop-color:rgb(200,109,215);stop-opacity: 1"/>
</linearGradient>
<path style="stroke: none; stroke-width: 1; stroke-dasharray: none; stroke-linecap: butt; stroke-dashoffset: 0; stroke-linejoin: miter; stroke-miterlimit: 4; fill: url(#SVGID_848022); fill-rule: nonzero; opacity: 1;"  paint-order="stroke"  transform=" translate(-187.3694021295371, -3.0854473843949806)" d="M 177.03323 4.46232 C 173.05735 3.75877 169.01336 2.93012 164.92884 2.38001 C 163.78574 2.22605 163.83215 1.1103 164.9854 0.99512 C 176.98369 -0.20328999999999997 189.18892 -0.3312299999999999 201.25014 0.6762600000000001 C 204.12444 0.9077000000000001 209.30207 1.00313 210.44361999999998 3.23666 C 211.07551999999998 4.4762900000000005 210.1582 5.19786 208.38474999999997 5.45689 C 206.28519999999997 5.756489999999999 204.10402999999997 5.8928199999999995 201.96367999999995 6.01519 C 193.54482999999996 6.478389999999999 185.18707999999995 5.89283 177.03322999999995 4.46233 L 177.03323 4.46232 z" stroke-linecap="round" />
</g>
		<g transform="matrix(1 0 0 1 -122.27770503642726 36.33014368112306)" id="path-01"  >
<linearGradient id="SVGID_848023" gradientUnits="userSpaceOnUse" gradientTransform="matrix(1 0 0 1 5.8601460439789e-7 72.66028906039163)"  x1="0" y1="0" x2="0" y2="13">
<stop offset="0%" style="stop-color:rgb(48,35,174);stop-opacity: 1"/>
<stop offset="100%" style="stop-color:rgb(200,109,215);stop-opacity: 1"/>
</linearGradient>
<path style="stroke: none; stroke-width: 1; stroke-dasharray: none; stroke-linecap: butt; stroke-dashoffset: 0; stroke-linejoin: miter; stroke-miterlimit: 4; fill: url(#SVGID_848023); fill-rule: nonzero; opacity: 1;"  paint-order="stroke"  transform=" translate(-2.7223078458296626, -79.17494095077151)" d="M 4.12177 73.27008 C 4.00291 72.56961999999999 3.05962 72.43271999999999 2.7433299999999994 73.06891999999999 C 1.9344599999999994 74.6959 0.8721599999999994 76.98441999999999 0.4790999999999994 78.51164999999999 C -0.1238200000000006 80.83530999999999 -0.6718900000000005 84.55107999999998 2.2438599999999997 85.55971 C 3.41673 85.96513999999999 4.458 85.38441999999999 4.99517 84.33192 C 5.6638 83.02759 5.44455 81.48214 5.23629 80.09002 C 4.9603 78.2522 4.46382 75.28571 4.12177 73.27008 z" stroke-linecap="round" />
</g>
		<g transform="matrix(1 0 0 1 0.7021152609202375 -5.182245909494377)" id="path-01"  >
<linearGradient id="SVGID_848024" gradientUnits="userSpaceOnUse" gradientTransform="matrix(1 0 0 1 1.4042311078550966 2.667320000000011)"  x1="0" y1="0" x2="0" y2="70">
<stop offset="0%" style="stop-color:rgb(48,35,174);stop-opacity: 1"/>
<stop offset="100%" style="stop-color:rgb(200,109,215);stop-opacity: 1"/>
</linearGradient>
<path style="stroke: none; stroke-width: 1; stroke-dasharray: none; stroke-linecap: butt; stroke-dashoffset: 0; stroke-linejoin: miter; stroke-miterlimit: 4; fill: url(#SVGID_848024); fill-rule: nonzero; opacity: 1;"  paint-order="stroke"  transform=" translate(-125.70212814317716, -37.662551360154076)" d="M 244.45203 47.63067 C 243.82724000000002 47.049690000000005 243.11472 46.56718 242.35839 46.172720000000005 C 241.61303 45.788970000000006 240.81289 45.52591 240.17710000000002 44.96687000000001 C 239.59618000000003 44.46269000000001 239.12485000000004 43.717400000000005 239.07000000000002 42.92821000000001 C 239.05909000000003 42.70877000000001 239.08097 42.50057000000001 239.12486 42.292370000000005 C 239.10293000000001 42.171940000000006 239.10293000000001 42.05125 239.14674000000002 41.908620000000006 C 240.03462000000002 38.65341000000001 237.69984000000002 35.91308000000001 235.06916 34.345420000000004 C 234.30186 33.885130000000004 233.67724 33.14808000000001 232.88787000000002 32.690250000000006 C 226.62107000000003 29.055550000000007 218.55045 30.585760000000008 211.34887000000003 29.741720000000008 C 215.72242000000003 29.65395000000001 220.08500000000004 29.566430000000008 224.45861000000002 29.47866000000001 C 226.31109000000004 29.445740000000008 228.17446 29.41283000000001 230.01601000000002 29.22657000000001 C 230.73941000000002 29.14977000000001 232.59584 28.93837000000001 233.73185 28.52490000000001 C 234.64671 28.19191000000001 235.46377 27.582370000000008 236.29684 27.08890000000001 C 237.46972 26.38749000000001 238.59869 25.52151000000001 239.42079 24.41441000000001 C 239.81538 23.86635000000001 240.15526 23.26368000000001 240.36345 22.61687000000001 C 240.68137 21.64143000000001 240.26483 21.04948000000001 239.64005 20.31488000000001 C 239.15775 19.72320000000001 238.62066000000002 19.17512000000001 238.06162 18.65971000000001 C 237.71084000000002 18.34179000000001 237.43337 17.902270000000012 236.9984 17.71718000000001 C 235.03032000000002 16.87974000000001 232.76728 17.09231000000001 230.94773 15.91937000000001 C 230.03791 15.33865000000001 230.60792 13.792940000000009 231.70406 14.13280000000001 C 234.20319 14.90004000000001 236.80103 15.33866000000001 239.42079999999999 15.05338000000001 C 240.70332 14.92198000000001 241.99676 14.58212000000001 243.18051999999997 14.05600000000001 C 244.19992999999997 13.59571000000001 245.70167999999998 12.90501000000001 246.08530999999996 11.73234000000001 C 246.46892999999997 10.61427000000001 245.60300999999995 9.45230000000001 244.69319999999996 8.88229000000001 C 243.53128999999996 8.13699000000001 242.01861999999997 8.10408000000001 240.67039999999997 8.12602000000001 C 237.49159999999998 8.180610000000009 234.31283999999997 8.46588000000001 231.14500999999998 8.65214000000001 C 219.65757 9.33188000000001 208.13720999999998 9.67147000000001 196.63878 9.93453000000001 C 190.89507 10.06619000000001 185.14038 10.21953000000001 179.39658 10.110080000000009 C 173.70766 10.00036000000001 168.10643 9.41938000000001 162.47229 8.608250000000009 C 156.98071 7.8081000000000085 151.53289999999998 7.369750000000009 145.97552 7.6437800000000085 C 140.64833 7.917810000000008 135.36497 8.641160000000008 130.08160999999998 9.33187000000001 C 120.07390999999998 10.625230000000009 109.48530999999998 12.082910000000009 99.52143999999998 9.71536000000001 C 97.07708999999998 10.16468000000001 94.56695999999998 10.24148000000001 92.12253999999999 9.82482000000001 C 90.96063999999998 9.61662000000001 91.26758999999998 7.80811000000001 92.38559 7.81908000000001 C 96.3317 7.85200000000001 100.25589 7.58893000000001 103.9827 6.185860000000011 C 104.87057 5.85697000000001 107.77534 4.95806000000001 106.50379 3.5772000000000106 C 105.90092999999999 2.9194200000000103 104.82674 2.8426100000000107 103.99367 2.7658000000000107 C 103.07289 2.6999700000000106 102.16315 2.667320000000011 101.24237 2.667320000000011 C 97.38401999999999 2.6782900000000107 93.55847999999999 3.291930000000011 89.75493 3.8619300000000107 C 86.01709 4.409990000000011 82.2793 4.903470000000011 78.50861 5.210150000000011 C 76.60135000000001 5.363750000000011 74.68383 5.532620000000011 72.76489000000001 5.517100000000011 C 71.71483 5.508540000000011 69.30330000000001 5.376610000000011 63.54223000000001 5.903260000000011 C 57.79244 6.42884 52.08135 7.3454 46.30424 7.66573 C 35.69369 8.24644 25.05023 8.12602 14.46163 7.28198 C 11.75415 7.06281 9.05771 6.76683 6.35023 6.50377 C 4.92527 6.3721 1.29707 5.55 1.40666 7.96171 C 1.49437 9.97842 3.29204 11.4254 5.03492 12.12679 C 7.40254 13.08055 9.89078 12.71874 12.33513 13.21195 C 13.33258 13.42042 13.29973 14.97684 12.33513 15.20699 C 10.70191 15.590739999999998 8.7727 15.61268 6.898289999999999 15.27282 C 6.996969999999999 15.73311 6.29543 16.46743 6.109109999999999 16.675639999999998 C 5.36375 17.53092 4.815689999999999 18.506359999999997 4.464919999999999 19.59152 C 4.1141499999999995 20.69862 3.9058799999999994 21.849619999999998 4.311439999999999 22.967689999999997 C 4.662209999999999 23.932159999999996 5.26507 24.776199999999996 5.484309999999999 25.78456 C 5.977579999999999 28.0646 4.125119999999999 29.68686 3.905869999999999 31.86814 C 3.818159999999999 32.8219 3.6318399999999986 34.27957 4.015449999999999 35.17848 C 4.486849999999999 36.26364 5.7692999999999985 35.55126 6.613279999999999 35.87989 C 6.722929999999999 35.92378 6.788699999999999 36.00058000000001 6.8763999999999985 36.055440000000004 C 7.139459999999999 36.09933 7.391549999999999 36.285590000000006 7.424459999999998 36.62545000000001 C 7.797099999999998 39.705650000000006 5.659639999999998 42.314310000000006 4.223709999999998 44.82450000000001 C 3.390699999999998 46.29314000000001 2.754929999999998 47.860800000000005 2.3493699999999977 49.50500000000001 C 2.239719999999998 49.94335000000001 1.6587999999999976 51.675320000000006 2.086309999999998 51.97130000000001 C 2.371249999999998 52.179500000000004 3.017999999999998 51.773810000000005 3.412589999999998 51.489070000000005 C 3.872939999999998 51.00656000000001 5.100669999999998 50.765460000000004 5.736389999999998 50.30516000000001 C 6.514659999999998 49.75710000000001 7.194259999999998 49.09930000000001 8.147899999999998 48.70485000000001 C 9.408479999999997 48.18943000000001 10.943019999999997 48.222620000000006 12.378949999999998 48.33207000000001 C 14.121829999999997 48.474700000000006 15.831789999999998 48.70485000000001 17.51981 49.04471000000001 C 18.48441 49.24194000000001 19.64631 49.65834000000001 19.62443 50.38170000000001 C 19.60249 50.809340000000006 19.15303 51.17114000000001 18.63788 51.34643000000001 C 18.11176 51.53296000000001 17.51981 51.56560000000001 16.93889 51.598520000000015 C 14.43967 51.751860000000015 11.94053 51.927410000000016 9.452290000000001 52.135610000000014 C 8.695960000000001 52.20144000000001 7.928650000000001 52.26727000000001 7.249060000000002 52.486440000000016 C 6.690020000000002 52.67270000000001 6.2077300000000015 52.979650000000014 5.944670000000002 53.36340000000001 C 5.944670000000002 53.45117000000001 5.977590000000002 53.53869000000001 5.966610000000002 53.637430000000016 C 5.966610000000002 54.700640000000014 5.352780000000002 55.62150000000002 4.859510000000002 56.520130000000016 C 4.278590000000002 57.61626000000002 1.9657100000000018 61.89107000000001 4.125120000000002 62.537880000000015 C 5.287020000000002 62.88871000000002 6.766770000000001 62.307730000000014 7.851930000000001 61.95690000000002 C 8.98098 61.59535000000002 10.109960000000001 61.20063000000002 11.293800000000001 61.05826000000002 C 13.04765 60.83882000000002 15.930420000000002 61.14577000000002 16.42369 63.23956000000002 C 16.54432 63.76568000000002 16.04007 64.43416000000002 15.44819 64.20403000000002 C 14.73567 63.91902000000002 14.065570000000001 62.93265000000002 13.39836 63.272480000000016 C 11.733640000000001 64.12038000000001 11.27186 66.22102000000001 9.77017 67.37173000000001 C 8.83848 68.07341000000001 7.73138 68.87355000000001 7.24908 69.98067000000002 C 6.8764400000000006 70.80277000000002 6.7997000000000005 71.98667000000002 7.70943 72.47988000000002 C 8.72889 73.02795000000002 10.05517 72.17293000000002 10.96498 71.75626000000003 C 12.12688 71.23014000000002 13.26683 70.67136000000002 14.4397 70.17790000000002 C 16.807380000000002 69.18052000000002 19.20792 68.30356000000002 21.68512 67.63507000000003 C 30.794040000000003 65.15781000000003 40.407070000000004 65.36601000000003 49.76808 65.24531000000003 C 60.4444 65.09198000000004 71.10974 64.79600000000003 81.78604999999999 64.86183000000003 C 92.36374999999998 64.92740000000002 102.94137999999998 65.28921000000003 113.45331999999999 66.52798000000003 C 116.08406 66.83493000000003 118.72569999999999 67.16355000000003 121.35645999999998 67.56925000000003 C 123.26371999999998 67.85425000000002 125.51076999999998 68.72024000000002 127.46185999999999 68.31455000000003 C 128.62382 68.06246000000003 128.53611999999998 67.02119000000002 127.93324999999999 66.18812000000003 C 127.29746999999999 65.33311000000003 126.26709999999999 64.80699000000003 125.33541999999998 64.35741000000003 C 123.16502999999999 63.30516000000003 120.66588999999999 62.92168000000003 118.28722999999998 62.73516000000003 C 117.77207999999997 62.69153000000003 117.59666999999997 61.92430000000003 118.15569999999998 61.79263000000003 C 119.63551999999999 61.45277000000003 121.10429999999998 61.44180000000003 122.54022999999998 61.69388000000003 C 122.58410999999998 61.562490000000025 122.68272999999998 61.46373000000003 122.85814999999998 61.40888000000003 C 130.47620999999998 59.28245000000003 138.74108999999999 60.83887000000003 146.21670999999998 62.800990000000034 C 153.27580999999998 64.66462000000003 160.17045 66.95537000000003 167.47068 67.75553000000004 C 170.9893 68.13928000000004 174.55169999999998 68.12832000000003 178.04836 67.56927000000003 C 181.49024 67.02121000000002 184.85537 66.11132000000003 188.28626 65.48673000000004 C 191.79382999999999 64.85089000000004 195.25767 64.66462000000004 198.8091 65.00422000000003 C 202.52501 65.36603000000004 206.19702 65.85923000000003 209.94577 65.89214000000003 C 211.80922 65.91408000000003 213.67265 65.92506000000003 215.53607000000002 65.91408000000003 C 217.31181000000004 65.90311000000003 219.17525000000003 66.02353000000002 220.92903 65.74949000000002 C 222.24441000000002 65.55226000000002 223.75708 64.97128000000002 224.35994000000002 63.67792000000002 C 224.86418000000003 62.58179000000002 224.29417000000004 61.21163000000002 223.06651000000002 60.99244000000002 C 222.59518000000003 60.90466000000002 222.73146000000003 60.46985000000002 222.50747 60.19229000000002 C 221.24722 58.63069000000002 218.50663 60.07160000000002 216.51165 59.95117000000002 C 215.43739 59.88534000000002 215.42641 58.28502000000002 216.51165 58.27405000000002 C 221.63058 58.197240000000015 226.78242 58.50420000000002 231.90133 58.635860000000015 C 235.89124 58.73434000000002 240.10037 58.635860000000015 243.77245 60.44437000000001 C 245.17547 61.12410000000001 247.47738999999999 62.987200000000016 249.05584 61.836480000000016 C 250.76579999999998 60.57604000000001 249.73541999999998 57.91224000000002 249.19834 56.344850000000015 C 248.13505 53.24271000000002 246.9074 49.92139000000002 244.45208 47.63065000000002 L 244.45203 47.63067 z M 73.77328 37.34882 C 75.27498 37.304930000000006 76.78765 37.272020000000005 78.28935 37.239360000000005 C 79.62667 37.20644000000001 81.23795 36.921440000000004 82.48756 37.49145000000001 C 83.05757 37.75451000000001 83.01368000000001 38.675090000000004 82.48756 38.94913000000001 C 81.19413 39.617880000000014 79.34166 39.34385000000001 77.91671 39.38774000000001 C 76.40405 39.420390000000005 74.90234 39.453570000000006 73.38968 39.48622000000001 C 70.32053 39.53011000000001 67.2404 39.58497000000001 64.1602 39.63982000000001 C 61.09105 39.69442000000001 58.010920000000006 39.69442000000001 54.930800000000005 39.65079000000001 C 53.494870000000006 39.62885000000001 52.04797000000001 39.67273000000001 50.61204000000001 39.51913000000001 C 49.55980000000001 39.39870000000001 48.222480000000004 39.22315000000001 47.477120000000006 38.39007000000001 C 47.323640000000005 38.22576000000001 47.422320000000006 37.95172000000001 47.66344000000001 37.95172000000001 C 48.321160000000006 37.92978000000001 48.98978000000001 38.11603000000001 49.65841000000001 38.18187000000001 C 50.29419000000001 38.24770000000001 50.94086000000001 38.25867000000001 51.58761000000001 38.23673000000001 C 52.95777000000001 38.20381000000001 54.32794000000001 38.09410000000001 55.687140000000014 38.01756000000001 C 58.70151000000001 37.83130000000001 61.71586000000001 37.71061000000001 64.73023 37.62284000000001 C 67.7446 37.53533000000001 70.75895 37.43658000000001 73.77331000000001 37.34881000000001 L 73.77328 37.34882 z M 38.81762 15.40424 C 40.82356 15.04269 43.048739999999995 15.2509 45.07655 15.2509 C 47.115339999999996 15.2509 49.165099999999995 15.228959999999999 51.203959999999995 15.1741 C 55.391119999999994 15.075349999999998 59.622249999999994 14.69187 63.80947 14.922009999999998 C 64.14927 14.94395 64.24788 15.459099999999998 63.88615 15.535909999999998 C 59.80857 16.390919999999998 55.5446 16.46746 51.39029 16.57718 C 49.21996 16.643009999999997 47.06056 16.664949999999997 44.89023 16.664949999999997 C 42.928110000000004 16.675649999999997 40.74682 16.818289999999998 38.817620000000005 16.379949999999997 C 38.35727 16.27023 38.32441 15.49202 38.81762 15.40424 L 38.81762 15.40424 z M 27.53844 36.35144 C 25.99293 36.439209999999996 24.39255 36.121289999999995 22.836060000000003 36.07740999999999 C 21.312420000000003 36.033519999999996 19.788780000000003 35.97865999999999 18.265150000000006 36.022549999999995 C 16.664840000000005 36.05546999999999 15.075430000000006 36.14324 13.486020000000005 36.26367 C 11.984320000000006 36.38436 10.416870000000005 36.55965 8.904200000000007 36.38436 C 8.312310000000007 36.30756 8.180790000000007 35.55129 8.761690000000007 35.33185 C 10.252420000000008 34.805730000000004 11.918550000000007 34.63044 13.486020000000007 34.45516000000001 C 15.130210000000007 34.279610000000005 16.785390000000007 34.126270000000005 18.440560000000005 34.07141000000001 C 20.040870000000005 34.02752000000001 21.674160000000004 34.02752000000001 23.263500000000004 34.23572000000001 C 24.776170000000004 34.43321000000001 26.453280000000003 34.60850000000001 27.812470000000005 35.32115000000001 C 28.327680000000004 35.59518000000001 28.053650000000005 36.31853000000001 27.538440000000005 36.35145000000001 C 27.53844 36.35145 27.53844 36.35144 27.53844 36.35144 z M 35.50734 16.27023 C 33.81926 16.752460000000003 31.89012 16.752460000000003 30.14723 16.80732 C 28.32769 16.87315 26.50806 16.851210000000002 24.69942 16.741490000000002 C 22.89085 16.632030000000004 21.0822 16.456760000000003 19.28459 16.204400000000003 C 17.651290000000003 15.985230000000003 15.689240000000002 15.897450000000003 14.187550000000002 15.185070000000003 C 13.683310000000002 14.954920000000003 13.968310000000002 14.220600000000003 14.450610000000001 14.209360000000004 C 15.33848 14.176720000000003 16.23731 14.461720000000003 17.11421 14.604080000000003 C 18.01305 14.757420000000003 18.91188 14.889080000000003 19.82169 14.998800000000003 C 21.49874 15.217970000000003 23.18682 15.371320000000003 24.87484 15.459090000000003 C 26.573829999999997 15.546860000000004 28.27282 15.590750000000003 29.96091 15.568810000000003 C 31.747609999999998 15.557840000000002 33.62195 15.316720000000002 35.39768 15.470060000000002 C 35.84713 15.502980000000003 35.967690000000005 16.138810000000003 35.50733 16.270210000000002 L 35.50734 16.27023 z M 106.19689 57.43004 C 103.64289 57.52852 101.05601999999999 57.10115 98.51299 56.870999999999995 C 96.01384 56.64084999999999 93.50367 56.46556999999999 90.99354 56.322939999999996 C 82.04907 55.79682 73.07173 55.81876 64.13830999999999 56.45433 C 59.67704999999999 56.76128 55.22674999999999 57.22184 50.787429999999986 57.81379 C 46.36998999999999 58.39451 41.842959999999984 59.600359999999995 37.37077999999998 59.04132 C 37.04188999999998 58.99743 37.03091999999998 58.50423 37.37077999999998 58.52617 C 40.01242999999998 58.69048 42.61025999999998 58.03296 45.197119999999984 57.55047 C 47.718209999999985 57.079209999999996 50.26124999999998 56.6628 52.804279999999984 56.290029999999994 C 61.617229999999985 55.02958999999999 70.50683999999998 54.37179999999999 79.39644999999999 54.26208 C 83.93444999999998 54.20748 88.48335999999999 54.33889 93.01038999999999 54.623889999999996 C 95.27938999999999 54.76624999999999 97.53742999999999 54.95278 99.79544999999999 55.171949999999995 C 101.98770999999999 55.391119999999994 104.24573999999998 55.57765 106.36126999999999 56.21321999999999 C 107.04092 56.4217 106.89843 57.40811 106.19689 57.43004 z M 180.21864 15.23992 C 187.12433 15.23992 194.01898 15.39326 200.9246 15.59075 C 204.31167 15.68923 207.69868 15.77701 211.08576 15.86478 C 212.83956 15.89742 214.60431 15.97424 216.35816 16.04007 C 218.00234 16.09493 219.78907 16.05104 221.38935 16.48939 C 221.86076 16.62105 221.90456 17.38829 221.38935 17.48705 C 219.76711 17.81567 217.99137000000002 17.65136 216.35816 17.59651 C 214.59339 17.530939999999998 212.83954 17.48705 211.08576 17.399279999999997 C 207.69869 17.245679999999997 204.31168 17.092329999999997 200.9246 16.960929999999998 C 194.008 16.675649999999997 187.11337 16.347029999999997 180.21864 15.853559999999998 C 179.82405 15.83188 179.81308 15.23993 180.21864 15.23992 z M 162.77921 45.36161 C 165.21261 44.956179999999996 167.74466 44.84646 170.21096 44.68215 C 172.73211 44.51756 175.24224 44.38617 177.75234 44.26547 C 182.81647 44.00241 187.9683 43.67352 193.03243 43.980470000000004 C 193.54763 44.01339 193.5257 44.70382000000001 193.03243 44.758680000000005 C 188.04505 45.33966 182.95897 45.38355000000001 177.93873 45.569810000000004 C 175.42855 45.66856000000001 172.91842 45.77828 170.40832 45.876760000000004 C 167.9091 45.97551000000001 165.36607 46.15079000000001 162.86694 46.03036 C 162.4942 46.01912 162.37366 45.42744 162.77921 45.36161 L 162.77921 45.36161 z M 127.75778 38.30259 C 126.55207 38.60954 125.25863 38.64219 124.03097 38.72997 C 122.71558999999999 38.828720000000004 121.4112 38.86163 120.09582999999999 38.89428 C 117.47605999999999 38.94914 114.85629999999999 38.87234 112.24756 38.74094 C 111.63373 38.708020000000005 111.63373 37.77621 112.24756 37.787440000000004 C 114.81246999999999 37.83133 117.37746 37.798140000000004 119.95333 37.743550000000006 C 121.21391 37.71063000000001 122.46345 37.644800000000004 123.72403999999999 37.60092000000001 C 125.01745999999999 37.55730000000001 126.35477999999999 37.40369000000001 127.64820999999999 37.51341000000001 C 128.07571 37.54606 128.21815 38.1819 127.75778 38.30259 z M 150.75461 16.55524 C 147.47719 16.336070000000003 144.19977 16.27024 140.92235000000002 16.22635 C 134.27979000000002 16.1276 127.65919000000002 16.55524 121.02753000000003 16.64302 C 120.76448000000002 16.64302 120.69870000000003 16.21538 120.96176000000003 16.17149 C 127.56049000000003 15.097299999999999 134.23598000000004 14.362979999999999 140.92235000000002 14.023119999999999 C 144.24367 13.858809999999998 147.61969000000002 13.902689999999998 150.93006000000003 14.132839999999998 C 152.61808000000002 14.253269999999999 154.28422000000003 14.417839999999998 155.95037000000002 14.658959999999999 C 156.78338000000002 14.790619999999999 157.63839000000002 14.900079999999999 158.46049000000002 15.097309999999998 C 159.21682 15.283839999999998 160.06086000000002 15.404259999999999 160.71852 15.84288 C 161.25561000000002 16.19344 161.24464 17.147209999999998 160.53219 17.30056 C 159.75392000000002 17.46515 158.95376000000002 17.3225 158.16451 17.25694 C 157.32053000000002 17.191110000000002 156.47649 17.07041 155.64342000000002 16.98291 C 154.01020000000003 16.82931 152.38794000000001 16.66499 150.75464000000002 16.55527 L 150.75461 16.55524 z M 212.34627 60.09357 C 211.41458 60.49927 210.51573 60.4444 209.52927 60.4444 C 208.45501 60.43343 207.39179 60.43343 206.31754999999998 60.42246 C 204.31166 60.40052 202.29475 60.40052 200.28882 60.35663 C 192.98862 60.19232 185.6993 60.159400000000005 178.41007 59.92925 C 171.10979 59.69883 163.80959 59.66619 156.53125999999997 59.019380000000005 C 156.36687999999998 58.997440000000005 156.35590999999997 58.75632 156.53125999999997 58.745340000000006 C 160.68564999999998 58.62465 164.82898999999998 58.668530000000004 168.98331999999996 58.734370000000006 C 176.20685999999995 58.85506000000001 183.44129999999996 58.81118000000001 190.66483999999997 58.78923 C 194.24921999999998 58.76729 197.83350999999996 58.734370000000006 201.41787999999997 58.67951 C 203.23742999999996 58.64659 205.06802999999996 58.62464 206.88757999999996 58.592 C 207.83023999999995 58.57006 208.77295999999996 58.55908 209.71560999999997 58.53713 C 210.55964999999998 58.51519 211.37077999999997 58.438379999999995 212.17092999999997 58.77825 C 212.66418 58.97549 212.98204 59.80857 212.34627 60.09357 z M 236.16527 44.25451 C 234.65260999999998 44.47368 233.10702999999998 44.38617 231.58344 44.33131 C 230.02688 44.276450000000004 228.48137 44.199650000000005 226.92487 44.155750000000005 C 223.81183 44.046290000000006 220.70977 43.991440000000004 217.59678 43.991440000000004 C 211.32686999999999 43.980470000000004 205.04604 44.11213000000001 198.76522 44.18867 C 198.3048 44.19964 198.33773 43.542120000000004 198.76522 43.49823 C 205.03507 42.81849 211.294 42.57738 217.59675 42.57738 C 220.76459999999997 42.57738 223.94331999999997 42.621269999999996 227.11118 42.720009999999995 C 228.6019 42.774609999999996 230.09262999999999 42.82946999999999 231.58342 42.90626999999999 C 233.10699 42.99403999999999 234.68543 43.07057999999999 236.16523999999998 43.476279999999996 C 236.51601999999997 43.57476 236.5708 44.18866 236.16523999999998 44.25449 L 236.16527 44.25451 z" stroke-linecap="round" />
</g>
		<g transform="matrix(1 0 0 1 118.13997174533917 -9.158392698852516)" id="path-01"  >
<linearGradient id="SVGID_848025" gradientUnits="userSpaceOnUse" gradientTransform="matrix(1 0 0 1 239.12419732520908 30.69505295040441)"  x1="0" y1="0" x2="0" y2="6">
<stop offset="0%" style="stop-color:rgb(48,35,174);stop-opacity: 1"/>
<stop offset="100%" style="stop-color:rgb(200,109,215);stop-opacity: 1"/>
</linearGradient>
<path style="stroke: none; stroke-width: 1; stroke-dasharray: none; stroke-linecap: butt; stroke-dashoffset: 0; stroke-linejoin: miter; stroke-miterlimit: 4; fill: url(#SVGID_848025); fill-rule: nonzero; opacity: 1;"  paint-order="stroke"  transform=" translate(-243.1399846275961, -33.686404570795936)" d="M 247.09297 33.33323 C 246.52296 31.63444 243.93612000000002 31.54666 242.47824 31.26166 C 241.83348 31.13668 240.56868 30.88532 239.66049 30.70431 C 239.27257 30.627 238.98359000000002 31.04974 239.19623 31.38327 C 239.69757 32.16959 240.37303000000003 33.30265 240.60391 34.034909999999996 C 240.83406000000002 34.76922999999999 241.00947000000002 35.63522 241.59039 36.183279999999996 C 242.14944000000003 36.720369999999996 242.99348 36.76425999999999 243.70593000000002 36.57774 C 244.59381000000002 36.33689 245.37208 35.74494 246.06263 35.163959999999996 C 246.63264 34.692699999999995 247.37800000000001 34.166579999999996 247.09299000000001 33.333239999999996 L 247.09297 33.33323 z" stroke-linecap="round" />
</g>
</g>
</g>
<g transform="matrix(1.9211538461538462 0 0 1.9211538461538462 647.2737643969682 543.2680773247538)" id="text-logo"  >
<g style=""  paint-order="stroke"   >
		<g transform="matrix(1 0 0 1 0 0)" id="text-logo-path-0"  >
<linearGradient id="SVGID_848027" gradientUnits="userSpaceOnUse" gradientTransform="matrix(1 0 0 1 2.3799999999999955 -45.75)"  x1="0" y1="0" x2="0" y2="69">
<stop offset="0%" style="stop-color:rgb(248,77,158);stop-opacity: 1"/>
<stop offset="100%" style="stop-color:rgb(255,116,117);stop-opacity: 1"/>
</linearGradient>
<filter id="SVGID_848015" y="-27.278280893916072%" height="154.55656178783215%" x="-21.29192782316939%" width="142.58385564633878%" >
	<feGaussianBlur in="SourceAlpha" stdDeviation="0"></feGaussianBlur>
	<feOffset dx="3.3516483516483504" dy="3.3516483516483504" result="oBlur" ></feOffset>
	<feFlood flood-color="rgb(81,18,94)" flood-opacity="1"/>
	<feComposite in2="oBlur" operator="in" />
	<feMerge>
		<feMergeNode></feMergeNode>
		<feMergeNode in="SourceGraphic"></feMergeNode>
	</feMerge>
</filter>
<path style="stroke: rgb(81,18,94); stroke-width: 6.032967032967031; stroke-dasharray: none; stroke-linecap: butt; stroke-dashoffset: 0; stroke-linejoin: miter; stroke-miterlimit: 4; fill: url(#SVGID_848027); fill-rule: nonzero; opacity: 1;filter: url(#SVGID_848015);"  paint-order="stroke"  transform=" translate(-132.095, 22.725)" d="M 4.88 -3.34 Q 2.38 -7.03 2.38 -13.05 Q 2.38 -19.06 3.96 -24.66 Q 5.54 -30.26 8.4 -34.7 Q 11.26 -39.14 15.22 -41.88 Q 19.18 -44.62 23.89 -44.62 L 23.89 -44.62 Q 26.93 -44.62 29.07 -42.29 L 29.07 -42.29 Q 31.16 -39.91 31.16 -36.04 L 31.16 -36.04 L 31.16 -35.27 Q 31.16 -34.91 31.1 -34.49 L 31.1 -34.49 L 23.11 -32.35 Q 22.4 -33.84 21.42 -33.84 Q 20.43 -33.84 19.36 -32.7 Q 18.29 -31.57 17.25 -29.79 Q 16.2 -28 15.25 -25.76 Q 14.3 -23.53 13.58 -21.27 L 13.58 -21.27 Q 11.91 -16.26 11.91 -13.19 Q 11.91 -10.13 13.76 -10.13 L 13.76 -10.13 Q 15.25 -10.13 16.92 -11.97 L 16.92 -11.97 Q 18.59 -13.88 19.06 -15.91 L 19.06 -15.91 L 26.03 -13.11 Q 23.35 -6.85 19 -3.16 L 19 -3.16 Q 15.13 0.12 11.08 0.12 L 11.08 0.12 Q 7.27 0.12 4.88 -3.34 L 4.88 -3.34 Z M 40.39 -2.2 L 29.96 -0.89 L 32.76 -13.17 Q 32.76 -20.55 32.17 -29.49 Q 31.57 -38.42 31.45 -39.79 L 31.45 -39.79 L 31.33 -41.1 L 41.28 -44.92 L 41.28 -34.31 L 41.22 -28.36 L 41.22 -26.09 Q 43.19 -30.98 47.66 -44.2 L 47.66 -44.2 L 57.13 -42.12 Q 53.85 -35.44 51.23 -30.02 L 51.23 -30.02 L 47.42 -22.16 Q 46.29 -19.78 45.18 -17.51 Q 44.08 -15.25 43.19 -13.28 L 43.19 -13.28 Q 42.29 -8.76 40.39 -2.2 L 40.39 -2.2 Z M 48.61 -0.12 L 48.61 -0.12 Q 51.53 -10.78 53.26 -21.62 Q 54.98 -32.47 56.59 -43.43 L 56.59 -43.43 Q 64.93 -45.15 70.23 -45.15 L 70.23 -45.15 Q 76.49 -45.15 78.93 -40.87 L 78.93 -40.87 Q 79.88 -39.26 79.88 -36.9 Q 79.88 -34.55 79.14 -32.53 Q 78.39 -30.5 77.2 -28.83 L 77.2 -28.83 Q 74.76 -25.5 71.37 -24.25 L 71.37 -24.25 Q 76.25 -21.27 76.25 -15.01 L 76.25 -15.01 Q 76.25 -12.81 75.21 -10.66 Q 74.17 -8.52 72.41 -6.79 Q 70.65 -5.06 68.3 -3.75 Q 65.94 -2.44 63.32 -1.55 L 63.32 -1.55 Q 58.2 0.24 52.84 0.24 L 52.84 0.24 Q 50.58 0.24 48.61 -0.12 Z M 60.58 -12.09 L 60.58 -12.09 Q 66 -12.69 68.21 -15.13 L 68.21 -15.13 Q 69.16 -16.2 69.16 -17.51 Q 69.16 -18.82 68.6 -19.57 Q 68.03 -20.31 67.14 -20.79 L 67.14 -20.79 Q 65.35 -21.74 63.26 -21.74 L 63.26 -21.74 L 62.73 -21.74 Q 62.49 -21.74 62.25 -21.68 L 62.25 -21.68 Q 62.01 -20.19 61.8 -19.06 Q 61.6 -17.93 61.42 -16.89 Q 61.24 -15.85 61.03 -14.71 Q 60.82 -13.58 60.58 -12.09 Z M 63.68 -29.19 L 63.68 -29.19 Q 71.13 -30.86 71.13 -33.3 L 71.13 -33.3 Q 71.13 -35.62 67.31 -36.22 L 67.31 -36.22 Q 66.36 -36.4 65.65 -36.4 L 65.65 -36.4 L 64.99 -36.4 Q 64.87 -35.74 64.72 -34.82 Q 64.57 -33.9 64.4 -32.91 Q 64.22 -31.93 64.01 -30.95 Q 63.8 -29.96 63.68 -29.19 Z M 94.96 -2.98 L 75.24 0.06 L 83.22 -43.31 L 102.52 -44.98 Q 102.1 -43.61 101.81 -42.32 Q 101.51 -41.04 101.21 -39.79 Q 100.91 -38.54 100.73 -37.59 L 100.73 -37.59 Q 98.95 -37.41 95.85 -37.41 L 95.85 -37.41 L 91.74 -37.41 L 89.59 -26.45 Q 92.87 -26.63 95.07 -26.69 Q 97.28 -26.75 97.93 -26.81 L 97.93 -26.81 Q 97.7 -25.08 97.49 -23.44 Q 97.28 -21.8 96.98 -20.08 L 96.98 -20.08 Q 96.33 -20.02 94.96 -19.99 Q 93.58 -19.96 92.1 -19.9 Q 90.61 -19.84 88.76 -19.78 L 88.76 -19.78 L 86.67 -8.52 L 95.55 -9.95 L 94.96 -2.98 Z M 105.68 -2.5 L 95.79 0.06 Q 101.98 -29.9 103.35 -42.47 L 103.35 -42.47 Q 110.26 -44.62 118.84 -44.62 L 118.84 -44.62 Q 125.28 -44.62 126.47 -40.15 L 126.47 -40.15 Q 126.83 -38.78 126.83 -36.75 Q 126.83 -34.73 125.99 -32.38 Q 125.16 -30.02 123.73 -27.88 L 123.73 -27.88 Q 120.75 -23.53 116.4 -21.21 L 116.4 -21.21 Q 118.72 -16.2 120.54 -11.77 Q 122.36 -7.33 123.61 -4.29 L 123.61 -4.29 L 114.14 -0.95 Q 109.55 -16.02 109.37 -18.17 L 109.37 -18.17 L 108.6 -17.93 Q 108.12 -15.19 107.17 -10.31 Q 106.21 -5.42 105.68 -2.5 L 105.68 -2.5 Z M 112.11 -36.1 L 110.15 -26.39 Q 112.53 -26.63 116.16 -29.43 L 116.16 -29.43 Q 119.92 -32.29 119.92 -34.13 L 119.92 -34.13 Q 119.92 -35.86 116.64 -36.1 L 116.64 -36.1 Q 115.69 -36.16 114.73 -36.16 L 114.73 -36.16 L 112.11 -36.1 Z M 131.89 -1.79 L 122.95 0.3 Q 129.74 -32.05 130.88 -44.74 L 130.88 -44.74 Q 131.71 -44.68 132.25 -44.68 L 132.25 -44.68 L 133.97 -44.68 Q 135.17 -44.68 140.65 -44.92 L 140.65 -44.92 Q 141.48 -40.63 142.19 -36.93 L 142.19 -36.93 Q 144.1 -26.33 144.82 -23.29 L 144.82 -23.29 Q 145.05 -24.54 145.35 -26.15 Q 145.65 -27.76 146.01 -29.52 Q 146.36 -31.27 146.72 -33.12 L 146.72 -33.12 Q 147.32 -36.04 149.16 -44.86 L 149.16 -44.86 L 156.61 -45.75 Q 150.12 -15.67 148.51 -2.56 L 148.51 -2.56 Q 147.79 -2.56 143.59 -1.55 Q 139.39 -0.54 138.56 -0.24 L 138.56 -0.24 Q 137.37 -16.56 135.94 -23.35 L 135.94 -23.35 Q 135.76 -22.22 135.46 -20.7 Q 135.17 -19.18 134.87 -17.45 L 134.87 -17.45 Q 133.74 -10.96 131.89 -1.79 L 131.89 -1.79 Z M 170.43 -2.98 L 150.71 0.06 L 158.7 -43.31 L 178 -44.98 Q 177.58 -43.61 177.28 -42.32 Q 176.98 -41.04 176.69 -39.79 Q 176.39 -38.54 176.21 -37.59 L 176.21 -37.59 Q 174.42 -37.41 171.32 -37.41 L 171.32 -37.41 L 167.21 -37.41 L 165.07 -26.45 Q 168.35 -26.63 170.55 -26.69 Q 172.75 -26.75 173.41 -26.81 L 173.41 -26.81 Q 173.17 -25.08 172.96 -23.44 Q 172.75 -21.8 172.46 -20.08 L 172.46 -20.08 Q 171.8 -20.02 170.43 -19.99 Q 169.06 -19.96 167.57 -19.9 Q 166.08 -19.84 164.24 -19.78 L 164.24 -19.78 L 162.15 -8.52 L 171.03 -9.95 L 170.43 -2.98 Z M 187.47 -1.67 L 176.51 0.06 Q 181.33 -22.58 183 -35.38 L 183 -35.38 Q 181.93 -35.5 180.86 -35.5 L 180.86 -35.5 L 180.14 -35.5 Q 179.96 -35.5 179.78 -35.5 L 179.78 -35.5 L 177.28 -35.86 L 177.58 -43.67 Q 180.68 -43.43 183.83 -43.43 L 183.83 -43.43 Q 192.17 -43.43 200.1 -44.44 L 200.1 -44.44 L 199.44 -41.16 Q 199.14 -39.79 198.88 -38.33 Q 198.61 -36.87 198.37 -35.8 L 198.37 -35.8 Q 197 -35.44 195.63 -35.3 Q 194.26 -35.15 192.95 -34.91 L 192.95 -34.91 Q 191.88 -30.32 190.8 -23.53 L 190.8 -23.53 Q 188.42 -8.52 187.47 -1.67 L 187.47 -1.67 Z M 192.47 -0.06 L 192.47 -0.06 Q 194.38 -6.97 195.99 -15.13 L 195.99 -15.13 Q 199.68 -33.78 201.23 -42.71 L 201.23 -42.71 L 210.76 -44.2 Q 203.97 -9.65 202.48 -1.19 L 202.48 -1.19 Q 200.81 -1.19 196.7 -0.66 Q 192.59 -0.12 192.47 -0.06 Z M 209.93 -3.34 Q 207.42 -7.03 207.42 -13.05 Q 207.42 -19.06 209 -24.66 Q 210.58 -30.26 213.44 -34.7 Q 216.3 -39.14 220.26 -41.88 Q 224.22 -44.62 228.93 -44.62 L 228.93 -44.62 Q 231.97 -44.62 234.11 -42.29 L 234.11 -42.29 Q 236.2 -39.91 236.2 -36.04 L 236.2 -36.04 L 236.2 -35.27 Q 236.2 -34.91 236.14 -34.49 L 236.14 -34.49 L 228.15 -32.35 Q 227.44 -33.84 226.46 -33.84 Q 225.47 -33.84 224.4 -32.7 Q 223.33 -31.57 222.29 -29.79 Q 221.24 -28 220.29 -25.76 Q 219.34 -23.53 218.62 -21.27 L 218.62 -21.27 Q 216.96 -16.26 216.96 -13.19 Q 216.96 -10.13 218.8 -10.13 L 218.8 -10.13 Q 220.29 -10.13 221.96 -11.97 L 221.96 -11.97 Q 223.63 -13.88 224.1 -15.91 L 224.1 -15.91 L 231.07 -13.11 Q 228.39 -6.85 224.04 -3.16 L 224.04 -3.16 Q 220.17 0.12 216.12 0.12 L 216.12 0.12 Q 212.31 0.12 209.93 -3.34 L 209.93 -3.34 Z M 231.13 -5.36 L 231.13 -5.36 L 235.66 -14.24 Q 236.49 -12.57 238.88 -11.2 L 238.88 -11.2 Q 241.26 -9.77 242.45 -9.77 Q 243.64 -9.77 244.45 -10.01 Q 245.25 -10.25 245.91 -10.72 L 245.91 -10.72 Q 247.4 -11.79 247.4 -13.31 Q 247.4 -14.83 246.44 -16.08 Q 245.49 -17.33 244.09 -18.47 Q 242.69 -19.6 241.05 -20.76 Q 239.41 -21.92 238.04 -23.23 L 238.04 -23.23 Q 234.71 -26.21 234.71 -29.49 Q 234.71 -32.76 236.58 -35.5 Q 238.46 -38.24 241.29 -40.24 Q 244.12 -42.24 247.48 -43.4 Q 250.85 -44.56 253.17 -44.56 Q 255.5 -44.56 256.96 -44.14 Q 258.42 -43.72 259.49 -42.89 L 259.49 -42.89 Q 261.81 -40.98 261.81 -37.29 L 261.81 -37.29 Q 261.81 -36.4 261.66 -35.56 Q 261.51 -34.73 261.39 -33.72 L 261.39 -33.72 L 252.58 -31.16 Q 252.88 -32.35 252.88 -33.66 Q 252.88 -34.97 252.22 -35.77 Q 251.57 -36.58 250.82 -36.58 Q 250.08 -36.58 249.36 -36.22 Q 248.65 -35.86 247.93 -35.27 L 247.93 -35.27 Q 246.26 -33.9 246.26 -32.32 Q 246.26 -30.74 247.1 -29.76 Q 247.93 -28.77 249.15 -27.94 Q 250.37 -27.1 251.8 -26.21 Q 253.23 -25.32 254.48 -23.95 L 254.48 -23.95 Q 257.34 -20.61 257.34 -15.07 L 257.34 -15.07 Q 257.34 -8.4 252.46 -4.05 L 252.46 -4.05 Q 247.81 0.12 240.72 0.12 L 240.72 0.12 Q 235.48 0.12 231.13 -5.36 Z" stroke-linecap="round" />
</g>
</g>
</g>
</svg>