<?xml version="1.0" encoding="UTF-8" standalone="no" ?>
<!DOCTYPE svg PUBLIC "-//W3C//DTD SVG 1.1//EN" "http://www.w3.org/Graphics/SVG/1.1/DTD/svg11.dtd">
<svg xmlns="http://www.w3.org/2000/svg" xmlns:xlink="http://www.w3.org/1999/xlink" version="1.1" width="680" height="210" viewBox="250 200 800 510" xml:space="preserve">
<desc>Created with Fabric.js 4.4.0</desc>
<defs>
</defs>
<g transform="matrix(1 0 0 1 640 512)" id="background-logo"  >
<rect style="stroke: none; stroke-width: 0; stroke-dasharray: none; stroke-linecap: butt; stroke-dashoffset: 0; stroke-linejoin: miter; stroke-miterlimit: 4; fill: rgb(255,255,255); fill-opacity: 0; fill-rule: nonzero; opacity: 1;"  paint-order="stroke"  x="-640" y="-512" rx="0" ry="0" width="1280" height="1024" />
</g>
<g transform="matrix(2.9458635299150098 0 0 2.94586352991501 649.3927939557904 563.0182810708517)" id="shape-e535c5fc-e244-4338-80b7-2824658f1aaf"  >
<g style=""  paint-order="stroke"   >
		<g transform="matrix(1 0 0 1 62.369389247280154 -39.75934988525348)" id="path-01"  >
<linearGradient id="SVGID_20773" gradientUnits="userSpaceOnUse" gradientTransform="matrix(1 0 0 1 164.0955559992509 0.00000169814551398417)"  x1="0" y1="0" x2="0" y2="6">
<stop offset="0%" style="stop-color:rgb(48,35,174);stop-opacity: 1"/>
<stop offset="100%" style="stop-color:rgb(200,109,215);stop-opacity: 1"/>
</linearGradient>
<path style="stroke: none; stroke-width: 1; stroke-dasharray: none; stroke-linecap: butt; stroke-dashoffset: 0; stroke-linejoin: miter; stroke-miterlimit: 4; fill: url(#SVGID_20773); fill-rule: nonzero; opacity: 1;"  paint-order="stroke"  transform=" translate(-187.3694021295371, -3.0854473843949806)" d="M 177.03323 4.46232 C 173.05735 3.75877 169.01336 2.93012 164.92884 2.38001 C 163.78574 2.22605 163.83215 1.1103 164.9854 0.99512 C 176.98369 -0.20328999999999997 189.18892 -0.3312299999999999 201.25014 0.6762600000000001 C 204.12444 0.9077000000000001 209.30207 1.00313 210.44361999999998 3.23666 C 211.07551999999998 4.4762900000000005 210.1582 5.19786 208.38474999999997 5.45689 C 206.28519999999997 5.756489999999999 204.10402999999997 5.8928199999999995 201.96367999999995 6.01519 C 193.54482999999996 6.478389999999999 185.18707999999995 5.89283 177.03322999999995 4.46233 L 177.03323 4.46232 z" stroke-linecap="round" />
</g>
		<g transform="matrix(1 0 0 1 -122.27770503642726 36.33014368112306)" id="path-01"  >
<linearGradient id="SVGID_20774" gradientUnits="userSpaceOnUse" gradientTransform="matrix(1 0 0 1 5.8601460439789e-7 72.66028906039163)"  x1="0" y1="0" x2="0" y2="13">
<stop offset="0%" style="stop-color:rgb(48,35,174);stop-opacity: 1"/>
<stop offset="100%" style="stop-color:rgb(200,109,215);stop-opacity: 1"/>
</linearGradient>
<path style="stroke: none; stroke-width: 1; stroke-dasharray: none; stroke-linecap: butt; stroke-dashoffset: 0; stroke-linejoin: miter; stroke-miterlimit: 4; fill: url(#SVGID_20774); fill-rule: nonzero; opacity: 1;"  paint-order="stroke"  transform=" translate(-2.7223078458296626, -79.17494095077151)" d="M 4.12177 73.27008 C 4.00291 72.56961999999999 3.05962 72.43271999999999 2.7433299999999994 73.06891999999999 C 1.9344599999999994 74.6959 0.8721599999999994 76.98441999999999 0.4790999999999994 78.51164999999999 C -0.1238200000000006 80.83530999999999 -0.6718900000000005 84.55107999999998 2.2438599999999997 85.55971 C 3.41673 85.96513999999999 4.458 85.38441999999999 4.99517 84.33192 C 5.6638 83.02759 5.44455 81.48214 5.23629 80.09002 C 4.9603 78.2522 4.46382 75.28571 4.12177 73.27008 z" stroke-linecap="round" />
</g>
		<g transform="matrix(1 0 0 1 0.7021152609202375 -5.182245909494377)" id="path-01"  >
<linearGradient id="SVGID_20775" gradientUnits="userSpaceOnUse" gradientTransform="matrix(1 0 0 1 1.4042311078550966 2.667320000000011)"  x1="0" y1="0" x2="0" y2="70">
<stop offset="0%" style="stop-color:rgb(48,35,174);stop-opacity: 1"/>
<stop offset="100%" style="stop-color:rgb(200,109,215);stop-opacity: 1"/>
</linearGradient>
<path style="stroke: none; stroke-width: 1; stroke-dasharray: none; stroke-linecap: butt; stroke-dashoffset: 0; stroke-linejoin: miter; stroke-miterlimit: 4; fill: url(#SVGID_20775); fill-rule: nonzero; opacity: 1;"  paint-order="stroke"  transform=" translate(-125.70212814317716, -37.662551360154076)" d="M 244.45203 47.63067 C 243.82724000000002 47.049690000000005 243.11472 46.56718 242.35839 46.172720000000005 C 241.61303 45.788970000000006 240.81289 45.52591 240.17710000000002 44.96687000000001 C 239.59618000000003 44.46269000000001 239.12485000000004 43.717400000000005 239.07000000000002 42.92821000000001 C 239.05909000000003 42.70877000000001 239.08097 42.50057000000001 239.12486 42.292370000000005 C 239.10293000000001 42.171940000000006 239.10293000000001 42.05125 239.14674000000002 41.908620000000006 C 240.03462000000002 38.65341000000001 237.69984000000002 35.91308000000001 235.06916 34.345420000000004 C 234.30186 33.885130000000004 233.67724 33.14808000000001 232.88787000000002 32.690250000000006 C 226.62107000000003 29.055550000000007 218.55045 30.585760000000008 211.34887000000003 29.741720000000008 C 215.72242000000003 29.65395000000001 220.08500000000004 29.566430000000008 224.45861000000002 29.47866000000001 C 226.31109000000004 29.445740000000008 228.17446 29.41283000000001 230.01601000000002 29.22657000000001 C 230.73941000000002 29.14977000000001 232.59584 28.93837000000001 233.73185 28.52490000000001 C 234.64671 28.19191000000001 235.46377 27.582370000000008 236.29684 27.08890000000001 C 237.46972 26.38749000000001 238.59869 25.52151000000001 239.42079 24.41441000000001 C 239.81538 23.86635000000001 240.15526 23.26368000000001 240.36345 22.61687000000001 C 240.68137 21.64143000000001 240.26483 21.04948000000001 239.64005 20.31488000000001 C 239.15775 19.72320000000001 238.62066000000002 19.17512000000001 238.06162 18.65971000000001 C 237.71084000000002 18.34179000000001 237.43337 17.902270000000012 236.9984 17.71718000000001 C 235.03032000000002 16.87974000000001 232.76728 17.09231000000001 230.94773 15.91937000000001 C 230.03791 15.33865000000001 230.60792 13.792940000000009 231.70406 14.13280000000001 C 234.20319 14.90004000000001 236.80103 15.33866000000001 239.42079999999999 15.05338000000001 C 240.70332 14.92198000000001 241.99676 14.58212000000001 243.18051999999997 14.05600000000001 C 244.19992999999997 13.59571000000001 245.70167999999998 12.90501000000001 246.08530999999996 11.73234000000001 C 246.46892999999997 10.61427000000001 245.60300999999995 9.45230000000001 244.69319999999996 8.88229000000001 C 243.53128999999996 8.13699000000001 242.01861999999997 8.10408000000001 240.67039999999997 8.12602000000001 C 237.49159999999998 8.180610000000009 234.31283999999997 8.46588000000001 231.14500999999998 8.65214000000001 C 219.65757 9.33188000000001 208.13720999999998 9.67147000000001 196.63878 9.93453000000001 C 190.89507 10.06619000000001 185.14038 10.21953000000001 179.39658 10.110080000000009 C 173.70766 10.00036000000001 168.10643 9.41938000000001 162.47229 8.608250000000009 C 156.98071 7.8081000000000085 151.53289999999998 7.369750000000009 145.97552 7.6437800000000085 C 140.64833 7.917810000000008 135.36497 8.641160000000008 130.08160999999998 9.33187000000001 C 120.07390999999998 10.625230000000009 109.48530999999998 12.082910000000009 99.52143999999998 9.71536000000001 C 97.07708999999998 10.16468000000001 94.56695999999998 10.24148000000001 92.12253999999999 9.82482000000001 C 90.96063999999998 9.61662000000001 91.26758999999998 7.80811000000001 92.38559 7.81908000000001 C 96.3317 7.85200000000001 100.25589 7.58893000000001 103.9827 6.185860000000011 C 104.87057 5.85697000000001 107.77534 4.95806000000001 106.50379 3.5772000000000106 C 105.90092999999999 2.9194200000000103 104.82674 2.8426100000000107 103.99367 2.7658000000000107 C 103.07289 2.6999700000000106 102.16315 2.667320000000011 101.24237 2.667320000000011 C 97.38401999999999 2.6782900000000107 93.55847999999999 3.291930000000011 89.75493 3.8619300000000107 C 86.01709 4.409990000000011 82.2793 4.903470000000011 78.50861 5.210150000000011 C 76.60135000000001 5.363750000000011 74.68383 5.532620000000011 72.76489000000001 5.517100000000011 C 71.71483 5.508540000000011 69.30330000000001 5.376610000000011 63.54223000000001 5.903260000000011 C 57.79244 6.42884 52.08135 7.3454 46.30424 7.66573 C 35.69369 8.24644 25.05023 8.12602 14.46163 7.28198 C 11.75415 7.06281 9.05771 6.76683 6.35023 6.50377 C 4.92527 6.3721 1.29707 5.55 1.40666 7.96171 C 1.49437 9.97842 3.29204 11.4254 5.03492 12.12679 C 7.40254 13.08055 9.89078 12.71874 12.33513 13.21195 C 13.33258 13.42042 13.29973 14.97684 12.33513 15.20699 C 10.70191 15.590739999999998 8.7727 15.61268 6.898289999999999 15.27282 C 6.996969999999999 15.73311 6.29543 16.46743 6.109109999999999 16.675639999999998 C 5.36375 17.53092 4.815689999999999 18.506359999999997 4.464919999999999 19.59152 C 4.1141499999999995 20.69862 3.9058799999999994 21.849619999999998 4.311439999999999 22.967689999999997 C 4.662209999999999 23.932159999999996 5.26507 24.776199999999996 5.484309999999999 25.78456 C 5.977579999999999 28.0646 4.125119999999999 29.68686 3.905869999999999 31.86814 C 3.818159999999999 32.8219 3.6318399999999986 34.27957 4.015449999999999 35.17848 C 4.486849999999999 36.26364 5.7692999999999985 35.55126 6.613279999999999 35.87989 C 6.722929999999999 35.92378 6.788699999999999 36.00058000000001 6.8763999999999985 36.055440000000004 C 7.139459999999999 36.09933 7.391549999999999 36.285590000000006 7.424459999999998 36.62545000000001 C 7.797099999999998 39.705650000000006 5.659639999999998 42.314310000000006 4.223709999999998 44.82450000000001 C 3.390699999999998 46.29314000000001 2.754929999999998 47.860800000000005 2.3493699999999977 49.50500000000001 C 2.239719999999998 49.94335000000001 1.6587999999999976 51.675320000000006 2.086309999999998 51.97130000000001 C 2.371249999999998 52.179500000000004 3.017999999999998 51.773810000000005 3.412589999999998 51.489070000000005 C 3.872939999999998 51.00656000000001 5.100669999999998 50.765460000000004 5.736389999999998 50.30516000000001 C 6.514659999999998 49.75710000000001 7.194259999999998 49.09930000000001 8.147899999999998 48.70485000000001 C 9.408479999999997 48.18943000000001 10.943019999999997 48.222620000000006 12.378949999999998 48.33207000000001 C 14.121829999999997 48.474700000000006 15.831789999999998 48.70485000000001 17.51981 49.04471000000001 C 18.48441 49.24194000000001 19.64631 49.65834000000001 19.62443 50.38170000000001 C 19.60249 50.809340000000006 19.15303 51.17114000000001 18.63788 51.34643000000001 C 18.11176 51.53296000000001 17.51981 51.56560000000001 16.93889 51.598520000000015 C 14.43967 51.751860000000015 11.94053 51.927410000000016 9.452290000000001 52.135610000000014 C 8.695960000000001 52.20144000000001 7.928650000000001 52.26727000000001 7.249060000000002 52.486440000000016 C 6.690020000000002 52.67270000000001 6.2077300000000015 52.979650000000014 5.944670000000002 53.36340000000001 C 5.944670000000002 53.45117000000001 5.977590000000002 53.53869000000001 5.966610000000002 53.637430000000016 C 5.966610000000002 54.700640000000014 5.352780000000002 55.62150000000002 4.859510000000002 56.520130000000016 C 4.278590000000002 57.61626000000002 1.9657100000000018 61.89107000000001 4.125120000000002 62.537880000000015 C 5.287020000000002 62.88871000000002 6.766770000000001 62.307730000000014 7.851930000000001 61.95690000000002 C 8.98098 61.59535000000002 10.109960000000001 61.20063000000002 11.293800000000001 61.05826000000002 C 13.04765 60.83882000000002 15.930420000000002 61.14577000000002 16.42369 63.23956000000002 C 16.54432 63.76568000000002 16.04007 64.43416000000002 15.44819 64.20403000000002 C 14.73567 63.91902000000002 14.065570000000001 62.93265000000002 13.39836 63.272480000000016 C 11.733640000000001 64.12038000000001 11.27186 66.22102000000001 9.77017 67.37173000000001 C 8.83848 68.07341000000001 7.73138 68.87355000000001 7.24908 69.98067000000002 C 6.8764400000000006 70.80277000000002 6.7997000000000005 71.98667000000002 7.70943 72.47988000000002 C 8.72889 73.02795000000002 10.05517 72.17293000000002 10.96498 71.75626000000003 C 12.12688 71.23014000000002 13.26683 70.67136000000002 14.4397 70.17790000000002 C 16.807380000000002 69.18052000000002 19.20792 68.30356000000002 21.68512 67.63507000000003 C 30.794040000000003 65.15781000000003 40.407070000000004 65.36601000000003 49.76808 65.24531000000003 C 60.4444 65.09198000000004 71.10974 64.79600000000003 81.78604999999999 64.86183000000003 C 92.36374999999998 64.92740000000002 102.94137999999998 65.28921000000003 113.45331999999999 66.52798000000003 C 116.08406 66.83493000000003 118.72569999999999 67.16355000000003 121.35645999999998 67.56925000000003 C 123.26371999999998 67.85425000000002 125.51076999999998 68.72024000000002 127.46185999999999 68.31455000000003 C 128.62382 68.06246000000003 128.53611999999998 67.02119000000002 127.93324999999999 66.18812000000003 C 127.29746999999999 65.33311000000003 126.26709999999999 64.80699000000003 125.33541999999998 64.35741000000003 C 123.16502999999999 63.30516000000003 120.66588999999999 62.92168000000003 118.28722999999998 62.73516000000003 C 117.77207999999997 62.69153000000003 117.59666999999997 61.92430000000003 118.15569999999998 61.79263000000003 C 119.63551999999999 61.45277000000003 121.10429999999998 61.44180000000003 122.54022999999998 61.69388000000003 C 122.58410999999998 61.562490000000025 122.68272999999998 61.46373000000003 122.85814999999998 61.40888000000003 C 130.47620999999998 59.28245000000003 138.74108999999999 60.83887000000003 146.21670999999998 62.800990000000034 C 153.27580999999998 64.66462000000003 160.17045 66.95537000000003 167.47068 67.75553000000004 C 170.9893 68.13928000000004 174.55169999999998 68.12832000000003 178.04836 67.56927000000003 C 181.49024 67.02121000000002 184.85537 66.11132000000003 188.28626 65.48673000000004 C 191.79382999999999 64.85089000000004 195.25767 64.66462000000004 198.8091 65.00422000000003 C 202.52501 65.36603000000004 206.19702 65.85923000000003 209.94577 65.89214000000003 C 211.80922 65.91408000000003 213.67265 65.92506000000003 215.53607000000002 65.91408000000003 C 217.31181000000004 65.90311000000003 219.17525000000003 66.02353000000002 220.92903 65.74949000000002 C 222.24441000000002 65.55226000000002 223.75708 64.97128000000002 224.35994000000002 63.67792000000002 C 224.86418000000003 62.58179000000002 224.29417000000004 61.21163000000002 223.06651000000002 60.99244000000002 C 222.59518000000003 60.90466000000002 222.73146000000003 60.46985000000002 222.50747 60.19229000000002 C 221.24722 58.63069000000002 218.50663 60.07160000000002 216.51165 59.95117000000002 C 215.43739 59.88534000000002 215.42641 58.28502000000002 216.51165 58.27405000000002 C 221.63058 58.197240000000015 226.78242 58.50420000000002 231.90133 58.635860000000015 C 235.89124 58.73434000000002 240.10037 58.635860000000015 243.77245 60.44437000000001 C 245.17547 61.12410000000001 247.47738999999999 62.987200000000016 249.05584 61.836480000000016 C 250.76579999999998 60.57604000000001 249.73541999999998 57.91224000000002 249.19834 56.344850000000015 C 248.13505 53.24271000000002 246.9074 49.92139000000002 244.45208 47.63065000000002 L 244.45203 47.63067 z M 73.77328 37.34882 C 75.27498 37.304930000000006 76.78765 37.272020000000005 78.28935 37.239360000000005 C 79.62667 37.20644000000001 81.23795 36.921440000000004 82.48756 37.49145000000001 C 83.05757 37.75451000000001 83.01368000000001 38.675090000000004 82.48756 38.94913000000001 C 81.19413 39.617880000000014 79.34166 39.34385000000001 77.91671 39.38774000000001 C 76.40405 39.420390000000005 74.90234 39.453570000000006 73.38968 39.48622000000001 C 70.32053 39.53011000000001 67.2404 39.58497000000001 64.1602 39.63982000000001 C 61.09105 39.69442000000001 58.010920000000006 39.69442000000001 54.930800000000005 39.65079000000001 C 53.494870000000006 39.62885000000001 52.04797000000001 39.67273000000001 50.61204000000001 39.51913000000001 C 49.55980000000001 39.39870000000001 48.222480000000004 39.22315000000001 47.477120000000006 38.39007000000001 C 47.323640000000005 38.22576000000001 47.422320000000006 37.95172000000001 47.66344000000001 37.95172000000001 C 48.321160000000006 37.92978000000001 48.98978000000001 38.11603000000001 49.65841000000001 38.18187000000001 C 50.29419000000001 38.24770000000001 50.94086000000001 38.25867000000001 51.58761000000001 38.23673000000001 C 52.95777000000001 38.20381000000001 54.32794000000001 38.09410000000001 55.687140000000014 38.01756000000001 C 58.70151000000001 37.83130000000001 61.71586000000001 37.71061000000001 64.73023 37.62284000000001 C 67.7446 37.53533000000001 70.75895 37.43658000000001 73.77331000000001 37.34881000000001 L 73.77328 37.34882 z M 38.81762 15.40424 C 40.82356 15.04269 43.048739999999995 15.2509 45.07655 15.2509 C 47.115339999999996 15.2509 49.165099999999995 15.228959999999999 51.203959999999995 15.1741 C 55.391119999999994 15.075349999999998 59.622249999999994 14.69187 63.80947 14.922009999999998 C 64.14927 14.94395 64.24788 15.459099999999998 63.88615 15.535909999999998 C 59.80857 16.390919999999998 55.5446 16.46746 51.39029 16.57718 C 49.21996 16.643009999999997 47.06056 16.664949999999997 44.89023 16.664949999999997 C 42.928110000000004 16.675649999999997 40.74682 16.818289999999998 38.817620000000005 16.379949999999997 C 38.35727 16.27023 38.32441 15.49202 38.81762 15.40424 L 38.81762 15.40424 z M 27.53844 36.35144 C 25.99293 36.439209999999996 24.39255 36.121289999999995 22.836060000000003 36.07740999999999 C 21.312420000000003 36.033519999999996 19.788780000000003 35.97865999999999 18.265150000000006 36.022549999999995 C 16.664840000000005 36.05546999999999 15.075430000000006 36.14324 13.486020000000005 36.26367 C 11.984320000000006 36.38436 10.416870000000005 36.55965 8.904200000000007 36.38436 C 8.312310000000007 36.30756 8.180790000000007 35.55129 8.761690000000007 35.33185 C 10.252420000000008 34.805730000000004 11.918550000000007 34.63044 13.486020000000007 34.45516000000001 C 15.130210000000007 34.279610000000005 16.785390000000007 34.126270000000005 18.440560000000005 34.07141000000001 C 20.040870000000005 34.02752000000001 21.674160000000004 34.02752000000001 23.263500000000004 34.23572000000001 C 24.776170000000004 34.43321000000001 26.453280000000003 34.60850000000001 27.812470000000005 35.32115000000001 C 28.327680000000004 35.59518000000001 28.053650000000005 36.31853000000001 27.538440000000005 36.35145000000001 C 27.53844 36.35145 27.53844 36.35144 27.53844 36.35144 z M 35.50734 16.27023 C 33.81926 16.752460000000003 31.89012 16.752460000000003 30.14723 16.80732 C 28.32769 16.87315 26.50806 16.851210000000002 24.69942 16.741490000000002 C 22.89085 16.632030000000004 21.0822 16.456760000000003 19.28459 16.204400000000003 C 17.651290000000003 15.985230000000003 15.689240000000002 15.897450000000003 14.187550000000002 15.185070000000003 C 13.683310000000002 14.954920000000003 13.968310000000002 14.220600000000003 14.450610000000001 14.209360000000004 C 15.33848 14.176720000000003 16.23731 14.461720000000003 17.11421 14.604080000000003 C 18.01305 14.757420000000003 18.91188 14.889080000000003 19.82169 14.998800000000003 C 21.49874 15.217970000000003 23.18682 15.371320000000003 24.87484 15.459090000000003 C 26.573829999999997 15.546860000000004 28.27282 15.590750000000003 29.96091 15.568810000000003 C 31.747609999999998 15.557840000000002 33.62195 15.316720000000002 35.39768 15.470060000000002 C 35.84713 15.502980000000003 35.967690000000005 16.138810000000003 35.50733 16.270210000000002 L 35.50734 16.27023 z M 106.19689 57.43004 C 103.64289 57.52852 101.05601999999999 57.10115 98.51299 56.870999999999995 C 96.01384 56.64084999999999 93.50367 56.46556999999999 90.99354 56.322939999999996 C 82.04907 55.79682 73.07173 55.81876 64.13830999999999 56.45433 C 59.67704999999999 56.76128 55.22674999999999 57.22184 50.787429999999986 57.81379 C 46.36998999999999 58.39451 41.842959999999984 59.600359999999995 37.37077999999998 59.04132 C 37.04188999999998 58.99743 37.03091999999998 58.50423 37.37077999999998 58.52617 C 40.01242999999998 58.69048 42.61025999999998 58.03296 45.197119999999984 57.55047 C 47.718209999999985 57.079209999999996 50.26124999999998 56.6628 52.804279999999984 56.290029999999994 C 61.617229999999985 55.02958999999999 70.50683999999998 54.37179999999999 79.39644999999999 54.26208 C 83.93444999999998 54.20748 88.48335999999999 54.33889 93.01038999999999 54.623889999999996 C 95.27938999999999 54.76624999999999 97.53742999999999 54.95278 99.79544999999999 55.171949999999995 C 101.98770999999999 55.391119999999994 104.24573999999998 55.57765 106.36126999999999 56.21321999999999 C 107.04092 56.4217 106.89843 57.40811 106.19689 57.43004 z M 180.21864 15.23992 C 187.12433 15.23992 194.01898 15.39326 200.9246 15.59075 C 204.31167 15.68923 207.69868 15.77701 211.08576 15.86478 C 212.83956 15.89742 214.60431 15.97424 216.35816 16.04007 C 218.00234 16.09493 219.78907 16.05104 221.38935 16.48939 C 221.86076 16.62105 221.90456 17.38829 221.38935 17.48705 C 219.76711 17.81567 217.99137000000002 17.65136 216.35816 17.59651 C 214.59339 17.530939999999998 212.83954 17.48705 211.08576 17.399279999999997 C 207.69869 17.245679999999997 204.31168 17.092329999999997 200.9246 16.960929999999998 C 194.008 16.675649999999997 187.11337 16.347029999999997 180.21864 15.853559999999998 C 179.82405 15.83188 179.81308 15.23993 180.21864 15.23992 z M 162.77921 45.36161 C 165.21261 44.956179999999996 167.74466 44.84646 170.21096 44.68215 C 172.73211 44.51756 175.24224 44.38617 177.75234 44.26547 C 182.81647 44.00241 187.9683 43.67352 193.03243 43.980470000000004 C 193.54763 44.01339 193.5257 44.70382000000001 193.03243 44.758680000000005 C 188.04505 45.33966 182.95897 45.38355000000001 177.93873 45.569810000000004 C 175.42855 45.66856000000001 172.91842 45.77828 170.40832 45.876760000000004 C 167.9091 45.97551000000001 165.36607 46.15079000000001 162.86694 46.03036 C 162.4942 46.01912 162.37366 45.42744 162.77921 45.36161 L 162.77921 45.36161 z M 127.75778 38.30259 C 126.55207 38.60954 125.25863 38.64219 124.03097 38.72997 C 122.71558999999999 38.828720000000004 121.4112 38.86163 120.09582999999999 38.89428 C 117.47605999999999 38.94914 114.85629999999999 38.87234 112.24756 38.74094 C 111.63373 38.708020000000005 111.63373 37.77621 112.24756 37.787440000000004 C 114.81246999999999 37.83133 117.37746 37.798140000000004 119.95333 37.743550000000006 C 121.21391 37.71063000000001 122.46345 37.644800000000004 123.72403999999999 37.60092000000001 C 125.01745999999999 37.55730000000001 126.35477999999999 37.40369000000001 127.64820999999999 37.51341000000001 C 128.07571 37.54606 128.21815 38.1819 127.75778 38.30259 z M 150.75461 16.55524 C 147.47719 16.336070000000003 144.19977 16.27024 140.92235000000002 16.22635 C 134.27979000000002 16.1276 127.65919000000002 16.55524 121.02753000000003 16.64302 C 120.76448000000002 16.64302 120.69870000000003 16.21538 120.96176000000003 16.17149 C 127.56049000000003 15.097299999999999 134.23598000000004 14.362979999999999 140.92235000000002 14.023119999999999 C 144.24367 13.858809999999998 147.61969000000002 13.902689999999998 150.93006000000003 14.132839999999998 C 152.61808000000002 14.253269999999999 154.28422000000003 14.417839999999998 155.95037000000002 14.658959999999999 C 156.78338000000002 14.790619999999999 157.63839000000002 14.900079999999999 158.46049000000002 15.097309999999998 C 159.21682 15.283839999999998 160.06086000000002 15.404259999999999 160.71852 15.84288 C 161.25561000000002 16.19344 161.24464 17.147209999999998 160.53219 17.30056 C 159.75392000000002 17.46515 158.95376000000002 17.3225 158.16451 17.25694 C 157.32053000000002 17.191110000000002 156.47649 17.07041 155.64342000000002 16.98291 C 154.01020000000003 16.82931 152.38794000000001 16.66499 150.75464000000002 16.55527 L 150.75461 16.55524 z M 212.34627 60.09357 C 211.41458 60.49927 210.51573 60.4444 209.52927 60.4444 C 208.45501 60.43343 207.39179 60.43343 206.31754999999998 60.42246 C 204.31166 60.40052 202.29475 60.40052 200.28882 60.35663 C 192.98862 60.19232 185.6993 60.159400000000005 178.41007 59.92925 C 171.10979 59.69883 163.80959 59.66619 156.53125999999997 59.019380000000005 C 156.36687999999998 58.997440000000005 156.35590999999997 58.75632 156.53125999999997 58.745340000000006 C 160.68564999999998 58.62465 164.82898999999998 58.668530000000004 168.98331999999996 58.734370000000006 C 176.20685999999995 58.85506000000001 183.44129999999996 58.81118000000001 190.66483999999997 58.78923 C 194.24921999999998 58.76729 197.83350999999996 58.734370000000006 201.41787999999997 58.67951 C 203.23742999999996 58.64659 205.06802999999996 58.62464 206.88757999999996 58.592 C 207.83023999999995 58.57006 208.77295999999996 58.55908 209.71560999999997 58.53713 C 210.55964999999998 58.51519 211.37077999999997 58.438379999999995 212.17092999999997 58.77825 C 212.66418 58.97549 212.98204 59.80857 212.34627 60.09357 z M 236.16527 44.25451 C 234.65260999999998 44.47368 233.10702999999998 44.38617 231.58344 44.33131 C 230.02688 44.276450000000004 228.48137 44.199650000000005 226.92487 44.155750000000005 C 223.81183 44.046290000000006 220.70977 43.991440000000004 217.59678 43.991440000000004 C 211.32686999999999 43.980470000000004 205.04604 44.11213000000001 198.76522 44.18867 C 198.3048 44.19964 198.33773 43.542120000000004 198.76522 43.49823 C 205.03507 42.81849 211.294 42.57738 217.59675 42.57738 C 220.76459999999997 42.57738 223.94331999999997 42.621269999999996 227.11118 42.720009999999995 C 228.6019 42.774609999999996 230.09262999999999 42.82946999999999 231.58342 42.90626999999999 C 233.10699 42.99403999999999 234.68543 43.07057999999999 236.16523999999998 43.476279999999996 C 236.51601999999997 43.57476 236.5708 44.18866 236.16523999999998 44.25449 L 236.16527 44.25451 z" stroke-linecap="round" />
</g>
		<g transform="matrix(1 0 0 1 118.13997174533917 -9.158392698852516)" id="path-01"  >
<linearGradient id="SVGID_20776" gradientUnits="userSpaceOnUse" gradientTransform="matrix(1 0 0 1 239.12419732520908 30.69505295040441)"  x1="0" y1="0" x2="0" y2="6">
<stop offset="0%" style="stop-color:rgb(48,35,174);stop-opacity: 1"/>
<stop offset="100%" style="stop-color:rgb(200,109,215);stop-opacity: 1"/>
</linearGradient>
<path style="stroke: none; stroke-width: 1; stroke-dasharray: none; stroke-linecap: butt; stroke-dashoffset: 0; stroke-linejoin: miter; stroke-miterlimit: 4; fill: url(#SVGID_20776); fill-rule: nonzero; opacity: 1;"  paint-order="stroke"  transform=" translate(-243.1399846275961, -33.686404570795936)" d="M 247.09297 33.33323 C 246.52296 31.63444 243.93612000000002 31.54666 242.47824 31.26166 C 241.83348 31.13668 240.56868 30.88532 239.66049 30.70431 C 239.27257 30.627 238.98359000000002 31.04974 239.19623 31.38327 C 239.69757 32.16959 240.37303000000003 33.30265 240.60391 34.034909999999996 C 240.83406000000002 34.76922999999999 241.00947000000002 35.63522 241.59039 36.183279999999996 C 242.14944000000003 36.720369999999996 242.99348 36.76425999999999 243.70593000000002 36.57774 C 244.59381000000002 36.33689 245.37208 35.74494 246.06263 35.163959999999996 C 246.63264 34.692699999999995 247.37800000000001 34.166579999999996 247.09299000000001 33.333239999999996 L 247.09297 33.33323 z" stroke-linecap="round" />
</g>
</g>
</g>
<g transform="matrix(1.9211538461538462 0 0 1.9211538461538462 646.7951770392647 540.3039880110343)" id="text-logo"  >
<g style=""  paint-order="stroke"   >
		<g transform="matrix(1 0 0 1 0 0)" id="text-logo-path-0"  >
<linearGradient id="SVGID_20777" gradientUnits="userSpaceOnUse" gradientTransform="matrix(1 0 0 1 -1.6700000000000017 -46.7)"  x1="0" y1="0" x2="0" y2="69">
<stop offset="0%" style="stop-color:rgb(248,77,158);stop-opacity: 1"/>
<stop offset="100%" style="stop-color:rgb(255,116,117);stop-opacity: 1"/>
</linearGradient>
<filter id="SVGID_20764" y="-27.016220120678987%" height="154.03244024135796%" x="-23.086232368000324%" width="146.17246473600065%" >
	<feGaussianBlur in="SourceAlpha" stdDeviation="0"></feGaussianBlur>
	<feOffset dx="3.351648351648352" dy="3.351648351648352" result="oBlur" ></feOffset>
	<feFlood flood-color="rgb(81,18,94)" flood-opacity="1"/>
	<feComposite in2="oBlur" operator="in" />
	<feMerge>
		<feMergeNode></feMergeNode>
		<feMergeNode in="SourceGraphic"></feMergeNode>
	</feMerge>
</filter>
<path style="stroke: rgb(81,18,94); stroke-width: 6.032967032967034; stroke-dasharray: none; stroke-linecap: butt; stroke-dashoffset: 0; stroke-linejoin: miter; stroke-miterlimit: 4; fill: url(#SVGID_20777); fill-rule: nonzero; opacity: 1;filter: url(#SVGID_20764);"  paint-order="stroke"  transform=" translate(-52.63, 22.815)" d="M -1.67 -3.16 L -1.67 -3.16 L 2.56 -12.57 Q 2.86 -11.97 3.75 -11.5 Q 4.65 -11.02 5.54 -11.02 Q 6.43 -11.02 7 -12.24 Q 7.57 -13.46 7.98 -15.1 Q 8.4 -16.74 8.64 -18.44 Q 8.88 -20.13 9.53 -23.62 Q 10.19 -27.1 11.23 -32.97 Q 12.27 -38.84 13.64 -44.74 L 13.64 -44.74 Q 18.71 -45.15 24.42 -46.7 L 24.42 -46.7 Q 22.64 -40.81 21.15 -34.13 L 21.15 -34.13 Q 18.41 -21.21 17.66 -17.36 Q 16.92 -13.52 16.11 -10.63 Q 15.31 -7.74 14 -5.36 L 14 -5.36 Q 10.96 0.06 6.43 0.06 L 6.43 0.06 Q 2.74 0.06 -1.67 -3.16 Z M 18.94 -6.37 L 18.94 -6.37 Q 18.94 -6.61 18.94 -6.85 Q 18.94 -7.09 19.09 -8.46 Q 19.24 -9.83 19.78 -13.37 Q 20.31 -16.92 20.94 -20.76 Q 21.56 -24.6 22.28 -28.47 Q 22.99 -32.35 23.59 -35.5 L 23.59 -35.5 Q 24.9 -42.29 25.14 -43.37 L 25.14 -43.37 Q 26.45 -43.49 28.21 -43.67 Q 29.96 -43.84 31.66 -43.99 Q 33.36 -44.14 35.21 -44.32 L 35.21 -44.32 Q 33.66 -36.99 32.76 -32.7 Q 31.87 -28.42 31.33 -25.85 Q 30.8 -23.29 30.38 -21.15 L 30.38 -21.15 Q 29.43 -16.62 29.13 -15.25 L 29.13 -15.25 Q 28.24 -11.14 28.24 -9.95 Q 28.24 -8.76 28.74 -8.13 Q 29.25 -7.51 30.11 -7.51 Q 30.98 -7.51 31.66 -8.34 Q 32.35 -9.17 32.79 -10.31 Q 33.24 -11.44 33.48 -12.63 Q 33.72 -13.82 33.98 -15.04 Q 34.25 -16.26 34.7 -18.44 Q 35.15 -20.61 35.59 -22.96 Q 36.04 -25.32 36.52 -27.76 L 36.52 -27.76 Q 37.77 -34.01 39.44 -43.61 L 39.44 -43.61 L 48.67 -44.2 L 48.37 -42.65 Q 47.66 -38.9 46.79 -33.98 Q 45.93 -29.07 45.21 -25.5 L 45.21 -25.5 Q 43.37 -16.2 42.47 -12.3 Q 41.58 -8.4 40 -5.96 Q 38.42 -3.51 36.34 -1.91 L 36.34 -1.91 Q 32.35 1.07 27.1 1.07 L 27.1 1.07 Q 23.89 1.07 21.56 -0.71 L 21.56 -0.71 Q 18.94 -2.86 18.94 -6.37 Z M 51.83 -1.79 L 42.89 0.3 Q 49.68 -32.05 50.81 -44.74 L 50.81 -44.74 Q 51.65 -44.68 52.18 -44.68 L 52.18 -44.68 L 53.91 -44.68 Q 55.1 -44.68 60.58 -44.92 L 60.58 -44.92 Q 61.42 -40.63 62.13 -36.93 L 62.13 -36.93 Q 64.04 -26.33 64.75 -23.29 L 64.75 -23.29 Q 64.99 -24.54 65.29 -26.15 Q 65.59 -27.76 65.94 -29.52 Q 66.3 -31.27 66.66 -33.12 L 66.66 -33.12 Q 67.25 -36.04 69.1 -44.86 L 69.1 -44.86 L 76.55 -45.75 Q 70.05 -15.67 68.45 -2.56 L 68.45 -2.56 Q 67.73 -2.56 63.53 -1.55 Q 59.33 -0.54 58.5 -0.24 L 58.5 -0.24 Q 57.31 -16.56 55.88 -23.35 L 55.88 -23.35 Q 55.7 -22.22 55.4 -20.7 Q 55.1 -19.18 54.8 -17.45 L 54.8 -17.45 Q 53.67 -10.96 51.83 -1.79 L 51.83 -1.79 Z M 80.48 -1.43 L 70.59 0.06 Q 77.02 -29.73 78.28 -44.5 L 78.28 -44.5 Q 79.71 -44.32 81.46 -44.23 Q 83.22 -44.14 84.89 -44.02 Q 86.56 -43.9 88.4 -43.9 L 88.4 -43.9 Q 88.34 -43.67 88.22 -43.01 Q 88.1 -42.35 87.93 -41.4 Q 87.75 -40.45 87.54 -39.29 Q 87.33 -38.13 86.94 -36.19 Q 86.56 -34.25 85.96 -30.92 L 85.96 -30.92 L 86.32 -30.98 Q 87.99 -33.54 89.77 -36.4 L 89.77 -36.4 Q 93.35 -42.06 94.78 -44.2 L 94.78 -44.2 Q 101.63 -44.74 106.93 -45.57 L 106.93 -45.57 Q 96.56 -31.51 92.75 -25.38 L 92.75 -25.38 Q 94.06 -19.24 95.91 -13.49 Q 97.75 -7.74 99.66 -1.79 L 99.66 -1.79 Q 96.8 -1.91 93.67 -1.91 Q 90.55 -1.91 87.09 -1.79 L 87.09 -1.79 Q 85.9 -9.47 84.71 -18.41 L 84.71 -18.41 L 83.58 -17.16 Q 83.16 -15.31 82.65 -12.63 Q 82.15 -9.95 81.61 -7.24 Q 81.08 -4.53 80.48 -1.43 L 80.48 -1.43 Z" stroke-linecap="round" />
</g>
</g>
</g>
<g transform="matrix(1.1893059465674924 0 0 1.1893059465674924 542.5658657981946 344.7726069312246)" id="shape-542fa321-ed88-493c-bbcf-877d3e7e435e"  >
<g style=""  paint-order="stroke"   >
		<g transform="matrix(1 0 0 1 0 0)" id="path-05_00000153700292035769683700000004125472323262579072_"  >
<path style="stroke: none; stroke-width: 1; stroke-dasharray: none; stroke-linecap: butt; stroke-dashoffset: 0; stroke-linejoin: miter; stroke-miterlimit: 4; fill: rgb(90,42,58); fill-rule: nonzero; opacity: 1;"  paint-order="stroke"  transform=" translate(-103.97109995561532, -125)" d="M 193.4 74 L 193.4 29 C 193.4 10.2 143.60000000000002 0 96.7 0 C 49.79999999999998 0 0 10.2 0 29 L 0 221 C 0 239.8 49.8 250 96.7 250 C 143.60000000000002 250 193.4 239.8 193.4 221 L 193.4 160.4 C 196.70000000000002 158.8 199.5 156.5 201.70000000000002 153.6 C 218.5 131.7 196.4 80.5 193.4 74 z M 197 150 C 196 151.3 194.8 152.5 193.5 153.4 L 193.5 90.4 C 199.6 107.9 207.3 136.5 197 150 z" stroke-linecap="round" />
</g>
		<g transform="matrix(1 0 0 1 -7.271099955615313 0)" id="path-04_00000122688007640967192030000015933255640230138244_"  >
<path style="stroke: none; stroke-width: 1; stroke-dasharray: none; stroke-linecap: butt; stroke-dashoffset: 0; stroke-linejoin: miter; stroke-miterlimit: 4; fill: rgb(227,227,227); fill-rule: nonzero; opacity: 1;"  paint-order="stroke"  transform=" translate(-96.7, -125)" d="M 187.4 156.3 C 182.6 157.70000000000002 176.70000000000002 157.8 169.6 156.70000000000002 C 130.1 150.20000000000002 103.39999999999999 122.30000000000001 88 100.00000000000001 C 75.6 81.8 68.2 64.3 65.2 56.4 C 75.4 57.4 86.1 57.9 96.7 57.9 C 133.8 57.9 172.8 51.5 187.4 39.5 L 187.4 156.3 z M 187.4 221 C 187.4 225.1 180.8 231.3 162.20000000000002 236.5 C 144.8 241.3 121.50000000000001 244 96.70000000000002 244 C 71.90000000000002 244 48.70000000000002 241.3 31.200000000000017 236.5 C 12.6 231.3 6 225.1 6 221 L 6 39.6 C 15.6 47.4 35.5 52.900000000000006 58.5 55.7 C 60.6 61.7 68.2 81.7 83 103.2 C 106.1 136.7 135.7 157.2 168.7 162.6 C 172.2 163.2 175.6 163.5 178.6 163.5 C 181.79999999999998 163.5 184.7 163.2 187.4 162.6 L 187.4 221 z M 162.2 13.5 C 144.7 8.7 121.5 6 96.7 6 C 71.9 6 48.7 8.7 31.200000000000003 13.5 C 12.6 18.7 6 24.9 6 29 C 6 33.1 12.6 39.3 31.2 44.5 C 48.7 49.3 72 52 96.7 52 C 121.5 52 144.7 49.3 162.2 44.5 C 180.79999999999998 39.3 187.39999999999998 33.1 187.39999999999998 29 C 187.39999999999998 24.9 180.8 18.7 162.2 13.5 z M 178.1 33.1 C 174.6 35.2 168.7 37.9 159.1 40.4 C 142.29999999999998 44.8 120.1 47.199999999999996 96.6 47.199999999999996 C 91.5 47.199999999999996 86.39999999999999 47.099999999999994 81.3 46.9 C 76.3 46.699999999999996 71.39999999999999 46.3 66.5 45.8 C 61.8 45.4 57.2 44.8 52.6 44.099999999999994 C 48.300000000000004 43.39999999999999 44.1 42.699999999999996 39.900000000000006 41.699999999999996 C 35.10000000000001 40.599999999999994 30.300000000000004 39.4 25.600000000000005 37.699999999999996 C 22.000000000000004 36.49999999999999 18.500000000000007 34.99999999999999 15.300000000000004 32.99999999999999 C 12.200000000000005 31.099999999999994 12.200000000000005 26.699999999999992 15.300000000000004 24.799999999999994 C 18.800000000000004 22.699999999999992 24.700000000000003 19.999999999999993 34.2 17.499999999999993 C 51 13.099999999999993 73.2 10.699999999999992 96.6 10.699999999999992 C 97.6 10.699999999999992 98.5 10.699999999999992 99.5 10.699999999999992 L 160.3 17.89999999999999 C 169.10000000000002 20.29999999999999 174.60000000000002 22.79999999999999 178 24.89999999999999 C 181.2 26.8 181.2 31.2 178.1 33.1 z" stroke-linecap="round" />
</g>
		<g transform="matrix(1 0 0 1 -2.2610210754985047 2.4000000000000057)" id="path-03_00000049202398956331540020000014658900404952927910_"  >
<path style="stroke: none; stroke-width: 1; stroke-dasharray: none; stroke-linecap: butt; stroke-dashoffset: 0; stroke-linejoin: miter; stroke-miterlimit: 4; fill: rgb(181,185,195); fill-rule: nonzero; opacity: 1;"  paint-order="stroke"  transform=" translate(-101.71007888011681, -127.4)" d="M 187.4 39.6 L 187.4 156.3 C 182.6 157.70000000000002 176.70000000000002 157.8 169.6 156.70000000000002 C 166.5 156.20000000000002 163.6 155.60000000000002 160.7 154.8 L 160.7 51 C 172.3 48.1 181.7 44.3 187.4 39.6 z M 178.6 163.4 C 175.5 163.4 172.2 163.1 168.7 162.5 C 166 162.1 163.39999999999998 161.5 160.7 160.9 L 160.7 190.70000000000002 C 160.7 207.8 150.5 223.40000000000003 134.6 229.8 C 118 236.5 91.69999999999999 242.10000000000002 50.39999999999999 240.5 C 64.3 242.7 80.1 243.9 96.6 243.9 C 121.39999999999999 243.9 144.6 241.20000000000002 162.1 236.4 C 180.7 231.20000000000002 187.29999999999998 225 187.29999999999998 220.9 L 187.29999999999998 162.4 C 184.8 163.1 181.8 163.4 178.6 163.4 z M 97.9 10.9 C 87.9 10.9 78 11.4 68.2 12.4 C 54.400000000000006 13.8 40.7 16 27.800000000000004 20.5 C 24.300000000000004 21.7 19.600000000000005 23.2 17.000000000000004 26 C 14.200000000000003 29.1 18.000000000000004 31.9 20.900000000000002 33.2 C 39.900000000000006 42.1 61.60000000000001 44.300000000000004 83 44.800000000000004 C 103 45.2 123.3 44.300000000000004 143.4 40.900000000000006 C 153.4 39.2 163.6 36.900000000000006 172.4 31.900000000000006 C 173.3 31.400000000000006 174.3 30.800000000000004 174.8 29.900000000000006 C 176.3 27.400000000000006 174.10000000000002 24.300000000000004 171.60000000000002 22.600000000000005 C 167.40000000000003 19.800000000000004 162.40000000000003 18.500000000000007 157.50000000000003 17.400000000000006 C 137.8 12.9 117.7 10.9 97.9 10.9 z M 36.5 28.2 C 37.5 21.5 77.6 18.1 96.7 18.1 C 96.7 18.1 54.1 20.6 43.900000000000006 25.8 C 41.800000000000004 26.900000000000002 38.400000000000006 29.400000000000002 51.00000000000001 33.5 C 41 31.9 36.2 30.5 36.5 28.2 z M 156.6 26 C 158.6 27.2 158.7 29.4 156.6 30.4 C 154.2 31.5 135.5 38.3 96.69999999999999 37.6 C 81.69999999999999 37.300000000000004 67.39999999999999 36.5 55.999999999999986 34.5 C 66.19999999999999 35.9 122.99999999999999 38.5 147.79999999999998 29.2 C 150.49999999999997 28.2 150.49999999999997 25.9 147.49999999999997 24.7 C 144.99999999999997 23.7 137.59999999999997 21.4 131.39999999999998 20.299999999999997 C 145.3 21.5 154.2 24.6 156.6 26 z" stroke-linecap="round" />
</g>
		<g transform="matrix(1 0 0 1 -72.72109995561532 17.55000000000001)" id="path-02_00000125572172789096104440000016224882221248678321_"  >
<path style="stroke: none; stroke-width: 1; stroke-dasharray: none; stroke-linecap: butt; stroke-dashoffset: 0; stroke-linejoin: miter; stroke-miterlimit: 4; fill: rgb(255,255,255); fill-rule: nonzero; opacity: 1;"  paint-order="stroke"  transform=" translate(-31.25, -142.55)" d="M 31.3 236.5 C 30.900000000000002 236.4 30.400000000000002 236.3 30 236.1 L 30 50.3 C 35.4 51.8 41.2 53 47.5 54.099999999999994 L 47.5 240.1 C 41.6 239.1 36.2 237.9 31.3 236.5 z M 15 230.4 C 17.7 231.8 21 233.20000000000002 25.1 234.6 L 25.1 48.9 C 21.4 47.7 18 46.4 15 45 L 15 230.4 z" stroke-linecap="round" />
</g>
		<g transform="matrix(1 0 0 1 -7.271099955615313 -21.43059318730468)" id="path-01_00000179605591678528575260000008567511823327767712_"  >
<path style="stroke: none; stroke-width: 1; stroke-dasharray: none; stroke-linecap: butt; stroke-dashoffset: 0; stroke-linejoin: miter; stroke-miterlimit: 4; fill: rgb(255,94,37); fill-rule: nonzero; opacity: 1;"  paint-order="stroke"  transform=" translate(-96.7, -103.56940681269532)" d="M 25.4 128 C 25.5 124.1 24.5 120.2 22.5 116.6 L 22 117 C 20.9 120 20.3 123 20.1 126.1 C 20 127.5 20.1 128.9 21 130.1 C 21.2 130.4 21.5 130.7 21.9 130.9 C 22.799999999999997 131.3 24.099999999999998 130.9 24.7 130.3 C 25.3 129.7 25.4 128.8 25.4 128 z M 88.9 134.4 C 88.7 133.20000000000002 88.5 132 88 130.9 C 86.5 127.7 79.8 123.9 78 118.60000000000001 C 78.5 125.9 78.3 138.9 77.7 146.10000000000002 C 77.2 152.70000000000002 76.2 159.60000000000002 78.4 165.90000000000003 C 78.60000000000001 166.60000000000002 79 167.30000000000004 79.7 167.50000000000003 C 80.9 167.80000000000004 81.60000000000001 166.30000000000004 81.8 165.10000000000002 C 82.39999999999999 162.40000000000003 83 159.8 83.5 157.10000000000002 C 83.7 156.20000000000002 84.2 155.10000000000002 85.1 155.3 C 85.69999999999999 155.4 86 156.10000000000002 86.6 156.5 C 87.39999999999999 157 88.5 156.5 89.1 155.8 C 89.6 155 89.69999999999999 154 89.8 153.10000000000002 C 90.1 146.7 89.8 140.5 88.9 134.4 z M 143.8 106.7 C 143.20000000000002 104.4 141.60000000000002 102.3 139.4 101.7 C 138.70000000000002 101.5 137.9 101.5 137.3 101.8 C 136 102.5 135.8 104.39999999999999 135.8 105.8 C 135.5 109.8 135.20000000000002 114 136.5 117.8 C 136.9 118.89999999999999 137.5 120 138.6 120.1 C 139.1 120.19999999999999 139.7 120 140.2 119.69999999999999 C 142.2 118.49999999999999 143.1 115.99999999999999 143.6 113.69999999999999 C 144.1 111.4 144.4 109 143.8 106.7 z M 77.5 94.7 C 76.4 94.9 75.4 95.7 74.5 96.5 C 60.9 110.1 64.9 133.6 54.7 149.9 C 53.800000000000004 151.4 52.300000000000004 153 50.5 152.70000000000002 C 49.3 152.50000000000003 48.5 151.4 47.8 150.4 C 37.099999999999994 134.4 42 112.80000000000001 37 94.2 C 36.4 91.9 35.5 89.4 33.4 88.3 C 29.599999999999998 86.2 25 89.8 23.2 93.7 C 21.4 97.60000000000001 20.8 102.3 17.799999999999997 105.4 C 16.999999999999996 106.2 15.999999999999996 106.9 14.899999999999997 107.10000000000001 C 11.799999999999997 107.60000000000001 9.699999999999996 104.00000000000001 8.599999999999998 101.10000000000001 C 7.6999999999999975 98.60000000000001 6.799999999999998 96.10000000000001 5.999999999999998 93.60000000000001 L 5.999999999999998 39.6 C 15.599999999999998 47.4 35.5 52.900000000000006 58.5 55.7 C 60.4 60.9 66.3 76.6 77.5 94.7 z M 187.4 39.6 L 187.4 68.7 C 185.6 70.7 184 72.9 182.5 75.10000000000001 C 176.7 84.00000000000001 172.9 94 167.2 103 C 165.29999999999998 106 162.39999999999998 109.2 158.89999999999998 108.5 C 157.7 108.3 156.59999999999997 107.6 155.59999999999997 106.9 C 151.79999999999995 104.2 148.49999999999997 100.9 145.69999999999996 97.10000000000001 C 143.79999999999995 94.60000000000001 142.19999999999996 91.80000000000001 139.79999999999995 89.7 C 137.39999999999995 87.60000000000001 133.99999999999994 86.4 131.09999999999997 87.5 C 125.69999999999996 89.6 124.19999999999996 98.5 118.39999999999996 98.6 C 111.29999999999997 98.69999999999999 110.09999999999997 85.39999999999999 102.99999999999996 85.39999999999999 C 99.79999999999995 85.39999999999999 97.39999999999996 88.3 96.19999999999996 91.19999999999999 C 94.99999999999996 94.19999999999999 94.49999999999996 97.39999999999999 92.69999999999996 99.99999999999999 C 91.99999999999996 100.99999999999999 91.09999999999997 101.79999999999998 89.99999999999996 102.39999999999999 C 89.29999999999995 101.49999999999999 88.69999999999996 100.6 88.09999999999995 99.69999999999999 C 75.6 81.8 68.2 64.3 65.2 56.4 C 75.4 57.4 86.1 57.9 96.7 57.9 C 133.9 58 172.8 51.6 187.4 39.6 z" stroke-linecap="round" />
</g>
</g>
</g>
<g transform="matrix(1.5457437673060528 0 0 1.5457437673060528 771.9079411061219 410.2529928107862)" id="shape-7ee5469c-4039-4cb5-bf3a-ed561fb0faf3"  >
<g style=""  paint-order="stroke"   >
		<g transform="matrix(1 0 0 1 27.130260676617084 -5.430827789908378)" id="path-08"  >
<path style="stroke: none; stroke-width: 1; stroke-dasharray: none; stroke-linecap: butt; stroke-dashoffset: 0; stroke-linejoin: miter; stroke-miterlimit: 4; fill: rgb(255,87,88); fill-rule: nonzero; opacity: 1;"  paint-order="stroke"  transform=" translate(-152.13026, -38.89048548204112)" d="M 208.66574 0.10041 C 193.22928 0.84162 178.20557 5.4192100000000005 163.23523 9.389100000000001 C 134.22286 17.05917 108.18275 25.280140000000003 78.34377 28.397420000000004 C 74.28398000000001 28.832280000000004 70.36936 29.919660000000004 66.41119 30.920190000000005 C 63.774390000000004 31.583340000000007 61.816010000000006 33.43063000000001 60.42716000000001 35.962320000000005 C 68.43608 35.486540000000005 74.15584000000001 40.981480000000005 76.65033000000001 49.71219000000001 C 78.78503 59.318470000000005 75.40330000000002 69.69185 67.69469000000001 75.08541000000001 C 72.10952 78.09984000000001 76.93971 77.92944000000001 80.05455 77.31686 C 84.99895000000001 76.34540000000001 90.00101000000001 75.67833 94.97407000000001 74.95337 C 136.80371000000002 68.77696 176.77727000000002 51.81306000000001 218.83875 46.46311000000001 C 227.24679 45.39087000000001 235.98299 44.694010000000006 243.83336 41.752010000000006 C 229.95651 29.63566 218.00775 15.75009 208.66574 0.10041 z" stroke-linecap="round" />
</g>
		<g transform="matrix(1 0 0 1 30.764030676617082 11.755726642440806)" id="path-07_00000076575017388878428140000006890689677506515081_"  >
<path style="stroke: none; stroke-width: 1; stroke-dasharray: none; stroke-linecap: butt; stroke-dashoffset: 0; stroke-linejoin: miter; stroke-miterlimit: 4; fill: rgb(183,17,29); fill-rule: nonzero; opacity: 1;"  paint-order="stroke"  transform=" translate(-155.76403, -56.077039914390305)" d="M 243.83794 41.75238 C 235.97945 44.69559 227.25107 45.39161 218.84174000000002 46.46446 C 176.78026 51.814530000000005 136.80652000000003 68.77818 94.97707000000001 74.95484 C 90.00383000000001 75.6798 85.00177000000001 76.34687000000001 80.05773 77.31833 C 76.94027000000001 77.92713 72.11215000000001 78.1012 67.69012000000001 75.08542 C 69.53148 73.80956 71.12616000000001 72.22917 72.4458 70.46030999999999 C 97.57228 71.24318 112.47720000000001 64.29830999999999 145.83936 55.67130999999999 C 166.96444 50.21961999999999 194.39638 39.287639999999996 212.62165 37.63444999999999 C 221.56741 36.822639999999986 229.8464 35.54676999999999 235.96490999999997 34.473809999999986 C 238.50223 36.96762 241.14098 39.38901 243.83794 41.75238 z" stroke-linecap="round" />
</g>
		<g transform="matrix(1 0 0 1 14.909330676617103 -21.11315327194949)" id="path-06_00000029758002362483008070000002887617837656625551_"  >
<path style="stroke: none; stroke-width: 1; stroke-dasharray: none; stroke-linecap: butt; stroke-dashoffset: 0; stroke-linejoin: miter; stroke-miterlimit: 4; fill: rgb(255,111,76); fill-rule: nonzero; opacity: 1;"  paint-order="stroke"  transform=" translate(-139.90933, -23.208160000000007)" d="M 215.27489 10.26064 C 209.63477 10.8549 198.90569 12.14542 188.8433 14.16078 C 174.31533 17.07505 144.79546 29.28301 125.72949 32.240880000000004 C 106.66314 35.21329 85.29168999999999 36.03976 75.93992 39.70794000000001 L 73.18506000000001 42.27420000000001 C 70.98140000000001 39.17145000000001 68.05261 37.05471000000001 64.54377000000001 36.28614000000001 C 65.57313 34.83633000000001 67.03753 33.42989000000001 68.86441 33.14003000000001 C 68.86441 33.14003000000001 78.43368000000001 31.05211000000001 88.80047 30.48656000000001 C 99.16726 29.935660000000013 144.59246000000002 20.72881000000001 167.1818 13.160370000000011 C 183.98623 7.534610000000011 202.68972000000002 5.040910000000011 211.17173000000003 4.142120000000011 C 212.49101 6.21539 213.85402 8.25957 215.27489 10.26064 z" stroke-linecap="round" />
</g>
		<g transform="matrix(1 0 0 1 23.505918339867534 -6.280073845722022)" id="path-05_00000145741925520904725490000017551286887429254582_"  >
<path style="stroke: none; stroke-width: 1; stroke-dasharray: none; stroke-linecap: butt; stroke-dashoffset: 0; stroke-linejoin: miter; stroke-miterlimit: 4; fill: rgb(240,234,230); fill-rule: nonzero; opacity: 1;"  paint-order="stroke"  transform=" translate(-148.50591766325044, -38.04123942622748)" d="M 176.64961 55.01878 C 156.17726 60.3399 135.87872 66.64689 115.2756 71.17072999999999 C 124.43884 67.56057999999999 114.30413 23.991089999999993 104.1403 24.411649999999995 C 123.29355 20.569159999999993 141.63475 15.146539999999995 161.28076 9.912629999999995 C 171.40118 8.41923 185.75502 51.55361 176.64961 55.01878 z M 78.11474 43.47763 C 75.44704 37.37365 66.8055 28.384349999999998 61.71634 34.03882 C 61.70187 34.06777 61.67298 34.082300000000004 61.658500000000004 34.111380000000004 C 60.00061 36.183910000000004 58.91604 39.04919 58.301320000000004 42.222170000000006 C 57.834950000000006 41.999 57.35569 41.89517000000001 56.864340000000006 41.964310000000005 C 56.468630000000005 42.022450000000006 56.193920000000006 42.3905 56.252 42.787000000000006 C 56.28174 42.994780000000006 56.39907 43.159800000000004 56.559090000000005 43.26803 L 55.512690000000006 43.4206 C 54.72354000000001 42.70944 53.914660000000005 42.39625 53.111520000000006 42.51229 C 52.71502 42.57043 52.441030000000005 42.93847 52.499120000000005 43.33497 C 52.529230000000005 43.54128 52.645340000000004 43.70704 52.803520000000006 43.81588 L 49.86446000000001 44.24451 C 47.43690000000001 44.59862 46.34732000000001 50.90904 47.43122000000001 58.339079999999996 C 48.51494000000001 65.76925 51.361410000000014 71.50544 53.78921000000001 71.15132 L 56.70403000000001 70.72623 C 56.59678000000001 70.87391 56.54334000000001 71.06153 56.57198000000001 71.25673 C 56.62438000000001 71.61781 56.93446000000001 71.87701 57.28845000000001 71.87701 C 57.32314000000001 71.87701 57.358500000000014 71.87407999999999 57.39393000000001 71.86993 C 58.22150000000001 71.74887 58.88948000000001 71.19272 59.41730000000001 70.33046 L 60.45582000000001 70.17887 C 60.34894000000001 70.32655 60.29550000000001 70.51381 60.32414000000001 70.70888000000001 C 60.376540000000006 71.06983000000001 60.686620000000005 71.32904 61.04061000000001 71.32904 C 61.075300000000006 71.32904 61.11072000000001 71.32611 61.14609000000001 71.32195 C 61.864520000000006 71.21678 62.45866000000001 70.77496000000001 62.94964000000001 70.10032 C 64.665 72.76149 66.64213000000001 74.54453 68.67593000000001 75.70873999999999 L 68.69046 75.70873999999999 C 75.41796000000001 77.70980999999999 79.10062 71.28663999999999 80.33318 65.69008 C 81.95705 58.29546 81.15952 50.39367 78.11474 43.47763 z M 221.10347 8.04227 C 219.3635 5.06986 217.85574 1.4306299999999998 214.57898999999998 0.35778 C 213.46253 -0.0047599999999999865 212.24461999999997 -0.01930000000000004 211.07016 0.009770000000000001 C 209.34482999999997 0.05326 207.63405999999998 0.14035 205.92309999999998 0.27068 C 205.92309999999998 0.27068 212.24462999999997 12.551440000000001 219.37803999999997 20.00385 C 230.29579999999996 31.42907 236.38546999999997 37.62002 240.74947999999998 42.79615 C 243.98286 41.83934 247.08567999999997 40.563359999999996 249.99999999999997 38.823449999999994 C 243.1275 28.0074 227.55565 19.11924 221.10347 8.04227 z" stroke-linecap="round" />
</g>
		<g transform="matrix(1 0 0 1 24.932220676617092 -5.117593641777297)" id="path-04_00000018918659116801191000000001016730072348232590_"  >
<path style="stroke: none; stroke-width: 1; stroke-dasharray: none; stroke-linecap: butt; stroke-dashoffset: 0; stroke-linejoin: miter; stroke-miterlimit: 4; fill: rgb(204,196,193); fill-rule: nonzero; opacity: 1;"  paint-order="stroke"  transform=" translate(-149.93222, -39.2037196301722)" d="M 78.65122 70.48914 C 76.73742999999999 74.27336000000001 73.48969 77.14414000000001 68.69046 75.70875000000001 L 68.67593000000001 75.70875000000001 C 67.58849000000001 75.08541000000001 66.53012000000001 74.30243000000002 65.51522000000001 73.28761000000002 C 70.70583 75.02739 78.65122 70.48914 78.65122 70.48914 z M 70.68689 54.94683 C 69.60299 47.516909999999996 66.75627 41.7806 64.32871 42.13459 L 63.01755 42.326 C 63.76853 43.00222 64.50143 44.0383 65.19281 45.43192 C 66.47202999999999 48.00893 67.4816 51.523199999999996 68.03591999999999 55.32635 C 68.59096999999998 59.1295 68.62706999999999 62.784 68.13717999999999 65.61997 C 67.87131999999998 67.16053 67.46461999999998 68.3697 66.93539999999999 69.23379 L 68.25347 69.04152 C 70.68121 68.68742 71.77061 62.377 70.68689 54.94683 z M 60.93653 69.8862 C 60.735099999999996 69.91551 60.56666 70.02618 60.45581 70.17887 L 59.41729 70.33046 C 61.0753 67.62055000000001 61.318870000000004 61.81792 60.53161 56.420820000000006 C 59.97729 52.617670000000004 58.96699 49.10340000000001 57.6877 46.526390000000006 C 56.99657 45.133880000000005 56.26367 44.09743 55.51269 43.420590000000004 L 56.55909 43.26802000000001 C 56.70439 43.36647000000001 56.88456 43.41827000000001 57.073949999999996 43.40006000000001 C 58.641329999999996 43.17921000000001 61.652269999999994 47.87724000000001 62.84941 56.08246000000001 C 64.04588 64.28767 62.5422 69.65253 60.93653 69.8862 z M 57.18438 70.43417 C 56.98314 70.46349 56.81482 70.57366999999999 56.704029999999996 70.72623 L 53.78921 71.15132 C 56.21695 70.79732 57.30647 64.48691 56.222629999999995 57.05674 C 55.138729999999995 49.62657 52.29219 43.89038 49.86445 44.2445 L 49.86445 44.2445 L 49.86445 44.2445 L 52.803509999999996 43.815870000000004 C 52.94936 43.91615 53.13092999999999 43.96844 53.321059999999996 43.948040000000006 C 53.989349999999995 43.83615 55.13695 44.647470000000006 56.38862999999999 47.170730000000006 C 57.60206999999999 49.6146 58.56345999999999 52.974470000000004 59.09725999999999 56.630430000000004 C 60.29372 64.83565 58.78931 70.20049 57.18438 70.43417 z M 66.70851 65.37372 C 66.22925000000001 68.15032000000001 65.35136 69.24198000000001 64.68942 69.33824 C 64.488 69.3678 64.31949 69.47859 64.2087 69.63152 L 63.169079999999994 69.78322999999999 C 64.82781999999999 67.07368999999998 65.07101999999999 61.27056999999999 64.28376 55.87285999999999 C 63.49791 50.48211999999999 61.62223 45.00463999999999 59.26008 42.874099999999984 L 60.30789 42.72116999999999 C 60.45355 42.821699999999986 60.635130000000004 42.873859999999986 60.82611 42.85357999999999 C 61.49018 42.74877999999999 62.641329999999996 43.55301999999999 63.89368 46.07615999999999 C 65.10712000000001 48.52001999999999 66.06851 51.88001999999999 66.60163 55.535859999999985 C 67.1347 59.19034 67.17293 62.68482 66.70851 65.37372 z M 179.46249 45.49299 C 167.96478 49.04537 156.13377 53.01807 145.83935 55.6713 C 135.26955999999998 58.41163 126.55583 60.96347 118.78443 63.16731 C 118.50886 67.29954000000001 117.42142 70.31519 115.2756 71.17073 C 135.87872 66.64689000000001 156.17726 60.33990000000001 176.64961 55.01878000000001 C 179.05653 54.10546 179.82498 50.40821 179.46249 45.49299 z M 243.86694 31.38559 C 238.77778 33.56036 233.906 34.79273 233.58706 34.87983 C 236.50138 37.96792 238.80686 40.4764 240.74947 42.79616 C 243.98285 41.83935 247.08567 40.56337 249.99999 38.82346 C 248.36142 36.2572 246.2446 33.79245 243.86694 31.38559 z M 237.57431 34.44485 C 238.98062 33.966390000000004 240.30008999999998 33.02387 241.73549 32.50193 C 242.61992 32.168330000000005 243.14198 33.51688 242.24289 33.85047 C 240.74947999999998 34.38671 239.38665999999998 35.47421 237.80633999999998 35.86571 C 237.02335 35.88012 236.8058 34.67682 237.57431 34.44485 z M 245.89667 37.14157 C 244.20043 37.93909 242.60538 38.968450000000004 240.79303 39.4904 C 240.01015999999998 39.51947 239.79268 38.33046 240.54665 38.08408 C 242.17052 37.47516 243.67829 36.61962 245.22979 35.85117 C 246.07085 35.41631 246.73773 36.69217 245.89667 37.14157 z M 237.96579 28.65968 C 237.19728 28.978620000000003 234.22495 30.443080000000002 233.79009 30.8491 C 233.31168 31.25513 233.67417 32.11043 234.29751 32.08148 C 234.80508999999998 31.99451 237.25538 30.45761 238.53131 29.99356 C 239.41566 29.61673 238.83569 28.28272 237.96579 28.65968 z M 215.40533 2.32978 C 214.44853 2.4454599999999997 213.44817999999998 2.48906 212.47647 2.53255 C 211.53421 2.5761600000000002 210.60623 2.61964 209.66377 2.7210300000000003 C 209.27228 2.7646400000000004 208.98236 3.12706 209.02591 3.5185500000000003 C 209.06946000000002 3.8953800000000003 209.37386 4.17096 209.75087000000002 4.17096 C 211.69368000000003 3.96795 213.62199 3.99702 215.57947000000001 3.76518 C 215.97095000000002 3.72157 216.26088000000001 3.35915 216.21733 2.95312 C 216.15932 2.56162 215.79683 2.27164 215.40533 2.32978 z M 218.72563 6.80965 C 218.62425 6.43269 218.21821 6.200850000000001 217.82672 6.3169 C 217.05839 6.534330000000001 216.27542 6.722810000000001 215.49242999999998 6.9112800000000005 C 214.50653999999997 7.157660000000001 213.52055 7.404400000000001 212.56357 7.694260000000001 C 212.17208 7.810180000000001 211.96923999999999 8.21621 212.08516 8.60758 C 212.18662 8.9121 212.46219 9.115110000000001 212.78111 9.115110000000001 C 214.57899 8.63652 216.42035 8.201670000000002 218.23275 7.708790000000001 C 218.60971 7.59263 218.84174 7.18673 218.72563 6.80965 z M 220.81343 10.89851 C 220.71197 10.52155 220.30614 10.30413 219.91464000000002 10.40563 C 218.97220000000002 10.68096 218.02974000000003 11.18837 217.08722000000003 11.42046 C 216.60883000000004 11.53638 216.14478000000003 11.60894 215.68091000000004 11.75405 C 214.89804000000004 11.95694 215.08640000000003 13.18944 215.89839000000003 13.16037 C 217.43541000000005 12.92841 218.87074000000004 12.31936 220.32068000000004 11.797410000000001 C 220.71198 11.69603 220.92953 11.29001 220.81343 10.89851 z M 224.03233 14.58123 C 223.85833 14.21881 223.42329 14.05916 223.0608 14.23335 C 221.78507 14.856679999999999 220.42205 15.45119 219.11712 15.639669999999999 C 218.24722 15.784659999999999 218.36314 17.089599999999997 219.23322 17.089599999999997 C 220.77005 16.90112 222.27782 16.219519999999996 223.68431999999999 15.552579999999997 C 224.04681 15.37875 224.20628 14.94377 224.03233 14.58123 z M 226.45372 18.49591 C 225.27919 19.16285 224.01781 19.9313 222.81444 20.467789999999997 C 222.10401 20.757899999999996 222.35039 21.874349999999996 223.10435999999999 21.85982 C 224.53975 21.42472 225.84468999999999 20.4535 227.16415999999998 19.75736 C 227.99049 19.27889 227.28008 18.03186 226.45372 18.49591 z M 230.80338 22.01909 C 229.88976 22.149669999999997 229.13598000000002 22.59931 228.411 23.03416 C 227.83104 23.39658 227.26554 23.73005 226.70005 23.84597 C 225.85923 24.00562 226.00416 25.31031 226.84522 25.28136 C 228.38199 25.10754 229.58536 23.68668 231.00622 23.4546 C 231.94867 23.30973 231.74565 21.88876 230.80338 22.01909 z M 235.53006 25.7889 C 235.37041 25.41194 234.94991 25.252540000000003 234.58741999999998 25.41194 C 234.54404999999997 25.42648 230.74535999999998 27.079410000000003 230.17987 27.74624 C 229.75948 28.19563 230.12196 28.96408 230.71629 28.94967 C 230.91929 28.94967 231.12231 28.8627 231.25277 28.703290000000003 C 231.58617 28.413300000000003 233.92052999999999 27.267900000000004 235.15308 26.745710000000003 C 235.51552 26.58642 235.68935 26.15144 235.53006 25.7889 z" stroke-linecap="round" />
</g>
		<g transform="matrix(1 0 0 1 -8.028064323382907 -15.647098271949503)" id="path-03_00000108274693970646108250000009359976910623626657_"  >
<path style="stroke: none; stroke-width: 1; stroke-dasharray: none; stroke-linecap: butt; stroke-dashoffset: 0; stroke-linejoin: miter; stroke-miterlimit: 4; fill: rgb(255,255,255); fill-rule: nonzero; opacity: 1;"  paint-order="stroke"  transform=" translate(-116.971935, -28.674214999999997)" d="M 171.24153 19.16285 C 156.5831 23.904 138.72049 30.225769999999997 125.72948000000001 32.24089 C 121.51004 32.90783 117.18939 33.45897 112.89775 33.95185 C 111.70874 31.29862 110.40398 29.03676 109.04115 27.36928 C 127.20823 23.91853 152.20443 18.176969999999997 167.18178 13.16037 C 168.57376 14.74076 169.95131 16.79973 171.24153 19.16285 z M 68.87894 33.14004 C 68.8644 33.14004 68.8644 33.14004 68.8644 33.14004 C 64.87723 33.77791 62.70234000000001 39.70795 62.70234000000001 39.70795 C 68.77749 39.432379999999995 71.11167 44.18805999999999 71.11167 44.18805999999999 L 75.93991 39.70795 C 74.05501 37.04018 71.48862 34.45926 68.87894 33.14004 z" stroke-linecap="round" />
</g>
		<g transform="matrix(1 0 0 1 -97.82219633637457 23.946137926856995)" id="path-02_00000167382850852941730170000005884661137303009202_"  >
<path style="stroke: none; stroke-width: 1; stroke-dasharray: none; stroke-linecap: butt; stroke-dashoffset: 0; stroke-linejoin: miter; stroke-miterlimit: 4; fill: rgb(255,87,88); fill-rule: nonzero; opacity: 1;"  paint-order="stroke"  transform=" translate(-27.177802987008334, -68.2674511988065)" d="M 51.10196 47.89227 C 46.941089999999996 48.65791 42.76262 55.12248 40.48983 58.6497 C 38.24312 62.136 36.67239 65.96456 34.191689999999994 69.18127 C 33.51217 70.06222 32.752019999999995 70.90714 31.788259999999994 71.5075 C 28.723809999999993 73.41684 24.303859999999993 72.47738 21.04151999999999 74.18736 C 20.03841999999999 74.71297 19.20076999999999 75.46762 18.17018999999999 75.95206999999999 C 17.17319999999999 76.42075999999999 16.034079999999992 76.61876 14.89734999999999 76.74519 C 12.165579999999991 77.04959 9.32551999999999 76.97641999999999 6.612429999999991 77.53855999999999 C 3.880289999999991 78.10461 1.2031199999999913 79.47219999999999 0.2711699999999908 81.73588999999998 C -0.0006100000000092143 82.39586999999999 -0.10884000000000921 83.13206999999998 0.1386399999999908 83.82197999999998 C 0.7203199999999907 85.44364999999998 2.908709999999991 86.19670999999998 4.786769999999991 86.70619999999998 C 9.889549999999991 88.09040999999998 15.25457999999999 89.44053999999998 20.05710999999999 88.07293999999999 C 21.34408999999999 87.70648999999999 22.76658999999999 87.15472999999999 23.96024999999999 87.68816999999999 C 24.38483999999999 87.87799999999999 24.72398999999999 88.18995999999999 25.14992999999999 88.37196999999999 C 25.81081999999999 88.65437999999999 26.58958999999999 88.59061999999999 27.32114999999999 88.52098999999998 C 30.25067999999999 88.24187999999998 33.15083999999999 87.96544999999999 36.02198999999999 87.69183999999998 C 39.10414999999999 87.39805999999999 42.47348999999999 86.96381999999998 44.56012999999999 84.85463999999999 C 45.34762999999999 84.05870999999999 45.88594999999999 82.81899999999999 45.24312999999999 81.97666 C 44.86647999999999 81.48292 44.19592999999999 81.27515 43.63086999999999 80.96097999999999 C 43.06335999999999 80.64558 42.53774999999999 80.05937999999999 42.749369999999985 79.45326999999999 C 42.87945999999999 79.08070999999998 43.248359999999984 78.82687999999999 43.579259999999984 78.57879999999999 C 47.257519999999985 75.82063999999998 48.50002999999998 70.78082999999998 52.299219999999984 68.06224999999999 C 52.720759999999984 67.76065999999999 53.177419999999984 67.48447999999999 53.48896999999998 67.07319999999999 C 53.84607999999998 66.60169999999998 53.97103999999998 66.00730999999999 54.06356999999998 65.43173999999999 C 54.87078 60.41038 54.04279 51.75516 51.10196 47.89227 z" stroke-linecap="round" />
</g>
		<g transform="matrix(1 0 0 1 -97.87910777376457 23.722611728050502)" id="path-01_00000065033705220066546690000018189377270243397278_"  >
<path style="stroke: none; stroke-width: 1; stroke-dasharray: none; stroke-linecap: butt; stroke-dashoffset: 0; stroke-linejoin: miter; stroke-miterlimit: 4; fill: rgb(255,111,76); fill-rule: nonzero; opacity: 1;"  paint-order="stroke"  transform=" translate(-27.120891549618335, -68.043925)" d="M 9.20367 85.84283 C 9.20367 85.84283 3.2848700000000006 85.20411 2.220390000000001 83.45821000000001 C 1.155850000000001 81.71244000000002 4.732660000000001 79.24268000000001 9.20367 78.51881 C 13.67468 77.79495 18.01799 78.34854 20.10444 77.02845 C 22.19089 75.7085 25.512230000000002 74.09037000000001 27.51354 74.13300000000001 C 27.51354 74.13300000000001 24.27741 75.41045000000001 21.42446 77.58204 C 18.57151 79.75375000000001 15.0013 79.66324 9.54435 79.98755000000001 C 4.08734 80.31174 2.22039 84.0118 9.20367 85.84283 z M 39.56405 65.4464 C 43.481480000000005 57.270869999999995 52.2106 52.885059999999996 52.2106 52.885059999999996 C 51.95512 51.99079999999999 50.89058 50.24502 50.89058 50.24502 C 43.26857 53.69405 39.56405 65.4464 39.56405 65.4464 z" stroke-linecap="round" />
</g>
</g>
</g>
</svg>