<?xml version="1.0" encoding="UTF-8" standalone="no" ?>
<!DOCTYPE svg PUBLIC "-//W3C//DTD SVG 1.1//EN" "http://www.w3.org/Graphics/SVG/1.1/DTD/svg11.dtd">
<svg xmlns="http://www.w3.org/2000/svg" xmlns:xlink="http://www.w3.org/1999/xlink" version="1.1" width="680" height="210" viewBox="250 200 800 510" xml:space="preserve">
<desc>Created with Fabric.js 4.4.0</desc>
<defs>
</defs>
<g transform="matrix(1 0 0 1 640 512)" id="background-logo"  >
<rect style="stroke: none; stroke-width: 0; stroke-dasharray: none; stroke-linecap: butt; stroke-dashoffset: 0; stroke-linejoin: miter; stroke-miterlimit: 4; fill: rgb(255,255,255); fill-opacity: 0; fill-rule: nonzero; opacity: 1;"  paint-order="stroke"  x="-640" y="-512" rx="0" ry="0" width="1280" height="1024" />
</g>
<g transform="matrix(2.950977123042869 0 0 2.9509771230428696 647.4062531693539 563.948722115422)" id="shape-de226a38-e60e-43b4-8bbf-db09725fc004"  >
<g style=""  paint-order="stroke"   >
		<g transform="matrix(1 0 0 1 62.369389247280154 -39.75934988525348)" id="path-01"  >
<linearGradient id="SVGID_25989" gradientUnits="userSpaceOnUse" gradientTransform="matrix(1 0 0 1 164.0955559992509 0.00000169814551398417)"  x1="0" y1="0" x2="0" y2="6">
<stop offset="0%" style="stop-color:rgb(48,35,174);stop-opacity: 1"/>
<stop offset="100%" style="stop-color:rgb(200,109,215);stop-opacity: 1"/>
</linearGradient>
<path style="stroke: none; stroke-width: 1; stroke-dasharray: none; stroke-linecap: butt; stroke-dashoffset: 0; stroke-linejoin: miter; stroke-miterlimit: 4; fill: url(#SVGID_25989); fill-rule: nonzero; opacity: 1;"  paint-order="stroke"  transform=" translate(-187.3694021295371, -3.0854473843949806)" d="M 177.03323 4.46232 C 173.05735 3.75877 169.01336 2.93012 164.92884 2.38001 C 163.78574 2.22605 163.83215 1.1103 164.9854 0.99512 C 176.98369 -0.20328999999999997 189.18892 -0.3312299999999999 201.25014 0.6762600000000001 C 204.12444 0.9077000000000001 209.30207 1.00313 210.44361999999998 3.23666 C 211.07551999999998 4.4762900000000005 210.1582 5.19786 208.38474999999997 5.45689 C 206.28519999999997 5.756489999999999 204.10402999999997 5.8928199999999995 201.96367999999995 6.01519 C 193.54482999999996 6.478389999999999 185.18707999999995 5.89283 177.03322999999995 4.46233 L 177.03323 4.46232 z" stroke-linecap="round" />
</g>
		<g transform="matrix(1 0 0 1 -122.27770503642726 36.33014368112306)" id="path-01"  >
<linearGradient id="SVGID_25990" gradientUnits="userSpaceOnUse" gradientTransform="matrix(1 0 0 1 5.8601460439789e-7 72.66028906039163)"  x1="0" y1="0" x2="0" y2="13">
<stop offset="0%" style="stop-color:rgb(48,35,174);stop-opacity: 1"/>
<stop offset="100%" style="stop-color:rgb(200,109,215);stop-opacity: 1"/>
</linearGradient>
<path style="stroke: none; stroke-width: 1; stroke-dasharray: none; stroke-linecap: butt; stroke-dashoffset: 0; stroke-linejoin: miter; stroke-miterlimit: 4; fill: url(#SVGID_25990); fill-rule: nonzero; opacity: 1;"  paint-order="stroke"  transform=" translate(-2.7223078458296626, -79.17494095077151)" d="M 4.12177 73.27008 C 4.00291 72.56961999999999 3.05962 72.43271999999999 2.7433299999999994 73.06891999999999 C 1.9344599999999994 74.6959 0.8721599999999994 76.98441999999999 0.4790999999999994 78.51164999999999 C -0.1238200000000006 80.83530999999999 -0.6718900000000005 84.55107999999998 2.2438599999999997 85.55971 C 3.41673 85.96513999999999 4.458 85.38441999999999 4.99517 84.33192 C 5.6638 83.02759 5.44455 81.48214 5.23629 80.09002 C 4.9603 78.2522 4.46382 75.28571 4.12177 73.27008 z" stroke-linecap="round" />
</g>
		<g transform="matrix(1 0 0 1 0.7021152609202375 -5.182245909494377)" id="path-01"  >
<linearGradient id="SVGID_25991" gradientUnits="userSpaceOnUse" gradientTransform="matrix(1 0 0 1 1.4042311078550966 2.667320000000011)"  x1="0" y1="0" x2="0" y2="70">
<stop offset="0%" style="stop-color:rgb(48,35,174);stop-opacity: 1"/>
<stop offset="100%" style="stop-color:rgb(200,109,215);stop-opacity: 1"/>
</linearGradient>
<path style="stroke: none; stroke-width: 1; stroke-dasharray: none; stroke-linecap: butt; stroke-dashoffset: 0; stroke-linejoin: miter; stroke-miterlimit: 4; fill: url(#SVGID_25991); fill-rule: nonzero; opacity: 1;"  paint-order="stroke"  transform=" translate(-125.70212814317716, -37.662551360154076)" d="M 244.45203 47.63067 C 243.82724000000002 47.049690000000005 243.11472 46.56718 242.35839 46.172720000000005 C 241.61303 45.788970000000006 240.81289 45.52591 240.17710000000002 44.96687000000001 C 239.59618000000003 44.46269000000001 239.12485000000004 43.717400000000005 239.07000000000002 42.92821000000001 C 239.05909000000003 42.70877000000001 239.08097 42.50057000000001 239.12486 42.292370000000005 C 239.10293000000001 42.171940000000006 239.10293000000001 42.05125 239.14674000000002 41.908620000000006 C 240.03462000000002 38.65341000000001 237.69984000000002 35.91308000000001 235.06916 34.345420000000004 C 234.30186 33.885130000000004 233.67724 33.14808000000001 232.88787000000002 32.690250000000006 C 226.62107000000003 29.055550000000007 218.55045 30.585760000000008 211.34887000000003 29.741720000000008 C 215.72242000000003 29.65395000000001 220.08500000000004 29.566430000000008 224.45861000000002 29.47866000000001 C 226.31109000000004 29.445740000000008 228.17446 29.41283000000001 230.01601000000002 29.22657000000001 C 230.73941000000002 29.14977000000001 232.59584 28.93837000000001 233.73185 28.52490000000001 C 234.64671 28.19191000000001 235.46377 27.582370000000008 236.29684 27.08890000000001 C 237.46972 26.38749000000001 238.59869 25.52151000000001 239.42079 24.41441000000001 C 239.81538 23.86635000000001 240.15526 23.26368000000001 240.36345 22.61687000000001 C 240.68137 21.64143000000001 240.26483 21.04948000000001 239.64005 20.31488000000001 C 239.15775 19.72320000000001 238.62066000000002 19.17512000000001 238.06162 18.65971000000001 C 237.71084000000002 18.34179000000001 237.43337 17.902270000000012 236.9984 17.71718000000001 C 235.03032000000002 16.87974000000001 232.76728 17.09231000000001 230.94773 15.91937000000001 C 230.03791 15.33865000000001 230.60792 13.792940000000009 231.70406 14.13280000000001 C 234.20319 14.90004000000001 236.80103 15.33866000000001 239.42079999999999 15.05338000000001 C 240.70332 14.92198000000001 241.99676 14.58212000000001 243.18051999999997 14.05600000000001 C 244.19992999999997 13.59571000000001 245.70167999999998 12.90501000000001 246.08530999999996 11.73234000000001 C 246.46892999999997 10.61427000000001 245.60300999999995 9.45230000000001 244.69319999999996 8.88229000000001 C 243.53128999999996 8.13699000000001 242.01861999999997 8.10408000000001 240.67039999999997 8.12602000000001 C 237.49159999999998 8.180610000000009 234.31283999999997 8.46588000000001 231.14500999999998 8.65214000000001 C 219.65757 9.33188000000001 208.13720999999998 9.67147000000001 196.63878 9.93453000000001 C 190.89507 10.06619000000001 185.14038 10.21953000000001 179.39658 10.110080000000009 C 173.70766 10.00036000000001 168.10643 9.41938000000001 162.47229 8.608250000000009 C 156.98071 7.8081000000000085 151.53289999999998 7.369750000000009 145.97552 7.6437800000000085 C 140.64833 7.917810000000008 135.36497 8.641160000000008 130.08160999999998 9.33187000000001 C 120.07390999999998 10.625230000000009 109.48530999999998 12.082910000000009 99.52143999999998 9.71536000000001 C 97.07708999999998 10.16468000000001 94.56695999999998 10.24148000000001 92.12253999999999 9.82482000000001 C 90.96063999999998 9.61662000000001 91.26758999999998 7.80811000000001 92.38559 7.81908000000001 C 96.3317 7.85200000000001 100.25589 7.58893000000001 103.9827 6.185860000000011 C 104.87057 5.85697000000001 107.77534 4.95806000000001 106.50379 3.5772000000000106 C 105.90092999999999 2.9194200000000103 104.82674 2.8426100000000107 103.99367 2.7658000000000107 C 103.07289 2.6999700000000106 102.16315 2.667320000000011 101.24237 2.667320000000011 C 97.38401999999999 2.6782900000000107 93.55847999999999 3.291930000000011 89.75493 3.8619300000000107 C 86.01709 4.409990000000011 82.2793 4.903470000000011 78.50861 5.210150000000011 C 76.60135000000001 5.363750000000011 74.68383 5.532620000000011 72.76489000000001 5.517100000000011 C 71.71483 5.508540000000011 69.30330000000001 5.376610000000011 63.54223000000001 5.903260000000011 C 57.79244 6.42884 52.08135 7.3454 46.30424 7.66573 C 35.69369 8.24644 25.05023 8.12602 14.46163 7.28198 C 11.75415 7.06281 9.05771 6.76683 6.35023 6.50377 C 4.92527 6.3721 1.29707 5.55 1.40666 7.96171 C 1.49437 9.97842 3.29204 11.4254 5.03492 12.12679 C 7.40254 13.08055 9.89078 12.71874 12.33513 13.21195 C 13.33258 13.42042 13.29973 14.97684 12.33513 15.20699 C 10.70191 15.590739999999998 8.7727 15.61268 6.898289999999999 15.27282 C 6.996969999999999 15.73311 6.29543 16.46743 6.109109999999999 16.675639999999998 C 5.36375 17.53092 4.815689999999999 18.506359999999997 4.464919999999999 19.59152 C 4.1141499999999995 20.69862 3.9058799999999994 21.849619999999998 4.311439999999999 22.967689999999997 C 4.662209999999999 23.932159999999996 5.26507 24.776199999999996 5.484309999999999 25.78456 C 5.977579999999999 28.0646 4.125119999999999 29.68686 3.905869999999999 31.86814 C 3.818159999999999 32.8219 3.6318399999999986 34.27957 4.015449999999999 35.17848 C 4.486849999999999 36.26364 5.7692999999999985 35.55126 6.613279999999999 35.87989 C 6.722929999999999 35.92378 6.788699999999999 36.00058000000001 6.8763999999999985 36.055440000000004 C 7.139459999999999 36.09933 7.391549999999999 36.285590000000006 7.424459999999998 36.62545000000001 C 7.797099999999998 39.705650000000006 5.659639999999998 42.314310000000006 4.223709999999998 44.82450000000001 C 3.390699999999998 46.29314000000001 2.754929999999998 47.860800000000005 2.3493699999999977 49.50500000000001 C 2.239719999999998 49.94335000000001 1.6587999999999976 51.675320000000006 2.086309999999998 51.97130000000001 C 2.371249999999998 52.179500000000004 3.017999999999998 51.773810000000005 3.412589999999998 51.489070000000005 C 3.872939999999998 51.00656000000001 5.100669999999998 50.765460000000004 5.736389999999998 50.30516000000001 C 6.514659999999998 49.75710000000001 7.194259999999998 49.09930000000001 8.147899999999998 48.70485000000001 C 9.408479999999997 48.18943000000001 10.943019999999997 48.222620000000006 12.378949999999998 48.33207000000001 C 14.121829999999997 48.474700000000006 15.831789999999998 48.70485000000001 17.51981 49.04471000000001 C 18.48441 49.24194000000001 19.64631 49.65834000000001 19.62443 50.38170000000001 C 19.60249 50.809340000000006 19.15303 51.17114000000001 18.63788 51.34643000000001 C 18.11176 51.53296000000001 17.51981 51.56560000000001 16.93889 51.598520000000015 C 14.43967 51.751860000000015 11.94053 51.927410000000016 9.452290000000001 52.135610000000014 C 8.695960000000001 52.20144000000001 7.928650000000001 52.26727000000001 7.249060000000002 52.486440000000016 C 6.690020000000002 52.67270000000001 6.2077300000000015 52.979650000000014 5.944670000000002 53.36340000000001 C 5.944670000000002 53.45117000000001 5.977590000000002 53.53869000000001 5.966610000000002 53.637430000000016 C 5.966610000000002 54.700640000000014 5.352780000000002 55.62150000000002 4.859510000000002 56.520130000000016 C 4.278590000000002 57.61626000000002 1.9657100000000018 61.89107000000001 4.125120000000002 62.537880000000015 C 5.287020000000002 62.88871000000002 6.766770000000001 62.307730000000014 7.851930000000001 61.95690000000002 C 8.98098 61.59535000000002 10.109960000000001 61.20063000000002 11.293800000000001 61.05826000000002 C 13.04765 60.83882000000002 15.930420000000002 61.14577000000002 16.42369 63.23956000000002 C 16.54432 63.76568000000002 16.04007 64.43416000000002 15.44819 64.20403000000002 C 14.73567 63.91902000000002 14.065570000000001 62.93265000000002 13.39836 63.272480000000016 C 11.733640000000001 64.12038000000001 11.27186 66.22102000000001 9.77017 67.37173000000001 C 8.83848 68.07341000000001 7.73138 68.87355000000001 7.24908 69.98067000000002 C 6.8764400000000006 70.80277000000002 6.7997000000000005 71.98667000000002 7.70943 72.47988000000002 C 8.72889 73.02795000000002 10.05517 72.17293000000002 10.96498 71.75626000000003 C 12.12688 71.23014000000002 13.26683 70.67136000000002 14.4397 70.17790000000002 C 16.807380000000002 69.18052000000002 19.20792 68.30356000000002 21.68512 67.63507000000003 C 30.794040000000003 65.15781000000003 40.407070000000004 65.36601000000003 49.76808 65.24531000000003 C 60.4444 65.09198000000004 71.10974 64.79600000000003 81.78604999999999 64.86183000000003 C 92.36374999999998 64.92740000000002 102.94137999999998 65.28921000000003 113.45331999999999 66.52798000000003 C 116.08406 66.83493000000003 118.72569999999999 67.16355000000003 121.35645999999998 67.56925000000003 C 123.26371999999998 67.85425000000002 125.51076999999998 68.72024000000002 127.46185999999999 68.31455000000003 C 128.62382 68.06246000000003 128.53611999999998 67.02119000000002 127.93324999999999 66.18812000000003 C 127.29746999999999 65.33311000000003 126.26709999999999 64.80699000000003 125.33541999999998 64.35741000000003 C 123.16502999999999 63.30516000000003 120.66588999999999 62.92168000000003 118.28722999999998 62.73516000000003 C 117.77207999999997 62.69153000000003 117.59666999999997 61.92430000000003 118.15569999999998 61.79263000000003 C 119.63551999999999 61.45277000000003 121.10429999999998 61.44180000000003 122.54022999999998 61.69388000000003 C 122.58410999999998 61.562490000000025 122.68272999999998 61.46373000000003 122.85814999999998 61.40888000000003 C 130.47620999999998 59.28245000000003 138.74108999999999 60.83887000000003 146.21670999999998 62.800990000000034 C 153.27580999999998 64.66462000000003 160.17045 66.95537000000003 167.47068 67.75553000000004 C 170.9893 68.13928000000004 174.55169999999998 68.12832000000003 178.04836 67.56927000000003 C 181.49024 67.02121000000002 184.85537 66.11132000000003 188.28626 65.48673000000004 C 191.79382999999999 64.85089000000004 195.25767 64.66462000000004 198.8091 65.00422000000003 C 202.52501 65.36603000000004 206.19702 65.85923000000003 209.94577 65.89214000000003 C 211.80922 65.91408000000003 213.67265 65.92506000000003 215.53607000000002 65.91408000000003 C 217.31181000000004 65.90311000000003 219.17525000000003 66.02353000000002 220.92903 65.74949000000002 C 222.24441000000002 65.55226000000002 223.75708 64.97128000000002 224.35994000000002 63.67792000000002 C 224.86418000000003 62.58179000000002 224.29417000000004 61.21163000000002 223.06651000000002 60.99244000000002 C 222.59518000000003 60.90466000000002 222.73146000000003 60.46985000000002 222.50747 60.19229000000002 C 221.24722 58.63069000000002 218.50663 60.07160000000002 216.51165 59.95117000000002 C 215.43739 59.88534000000002 215.42641 58.28502000000002 216.51165 58.27405000000002 C 221.63058 58.197240000000015 226.78242 58.50420000000002 231.90133 58.635860000000015 C 235.89124 58.73434000000002 240.10037 58.635860000000015 243.77245 60.44437000000001 C 245.17547 61.12410000000001 247.47738999999999 62.987200000000016 249.05584 61.836480000000016 C 250.76579999999998 60.57604000000001 249.73541999999998 57.91224000000002 249.19834 56.344850000000015 C 248.13505 53.24271000000002 246.9074 49.92139000000002 244.45208 47.63065000000002 L 244.45203 47.63067 z M 73.77328 37.34882 C 75.27498 37.304930000000006 76.78765 37.272020000000005 78.28935 37.239360000000005 C 79.62667 37.20644000000001 81.23795 36.921440000000004 82.48756 37.49145000000001 C 83.05757 37.75451000000001 83.01368000000001 38.675090000000004 82.48756 38.94913000000001 C 81.19413 39.617880000000014 79.34166 39.34385000000001 77.91671 39.38774000000001 C 76.40405 39.420390000000005 74.90234 39.453570000000006 73.38968 39.48622000000001 C 70.32053 39.53011000000001 67.2404 39.58497000000001 64.1602 39.63982000000001 C 61.09105 39.69442000000001 58.010920000000006 39.69442000000001 54.930800000000005 39.65079000000001 C 53.494870000000006 39.62885000000001 52.04797000000001 39.67273000000001 50.61204000000001 39.51913000000001 C 49.55980000000001 39.39870000000001 48.222480000000004 39.22315000000001 47.477120000000006 38.39007000000001 C 47.323640000000005 38.22576000000001 47.422320000000006 37.95172000000001 47.66344000000001 37.95172000000001 C 48.321160000000006 37.92978000000001 48.98978000000001 38.11603000000001 49.65841000000001 38.18187000000001 C 50.29419000000001 38.24770000000001 50.94086000000001 38.25867000000001 51.58761000000001 38.23673000000001 C 52.95777000000001 38.20381000000001 54.32794000000001 38.09410000000001 55.687140000000014 38.01756000000001 C 58.70151000000001 37.83130000000001 61.71586000000001 37.71061000000001 64.73023 37.62284000000001 C 67.7446 37.53533000000001 70.75895 37.43658000000001 73.77331000000001 37.34881000000001 L 73.77328 37.34882 z M 38.81762 15.40424 C 40.82356 15.04269 43.048739999999995 15.2509 45.07655 15.2509 C 47.115339999999996 15.2509 49.165099999999995 15.228959999999999 51.203959999999995 15.1741 C 55.391119999999994 15.075349999999998 59.622249999999994 14.69187 63.80947 14.922009999999998 C 64.14927 14.94395 64.24788 15.459099999999998 63.88615 15.535909999999998 C 59.80857 16.390919999999998 55.5446 16.46746 51.39029 16.57718 C 49.21996 16.643009999999997 47.06056 16.664949999999997 44.89023 16.664949999999997 C 42.928110000000004 16.675649999999997 40.74682 16.818289999999998 38.817620000000005 16.379949999999997 C 38.35727 16.27023 38.32441 15.49202 38.81762 15.40424 L 38.81762 15.40424 z M 27.53844 36.35144 C 25.99293 36.439209999999996 24.39255 36.121289999999995 22.836060000000003 36.07740999999999 C 21.312420000000003 36.033519999999996 19.788780000000003 35.97865999999999 18.265150000000006 36.022549999999995 C 16.664840000000005 36.05546999999999 15.075430000000006 36.14324 13.486020000000005 36.26367 C 11.984320000000006 36.38436 10.416870000000005 36.55965 8.904200000000007 36.38436 C 8.312310000000007 36.30756 8.180790000000007 35.55129 8.761690000000007 35.33185 C 10.252420000000008 34.805730000000004 11.918550000000007 34.63044 13.486020000000007 34.45516000000001 C 15.130210000000007 34.279610000000005 16.785390000000007 34.126270000000005 18.440560000000005 34.07141000000001 C 20.040870000000005 34.02752000000001 21.674160000000004 34.02752000000001 23.263500000000004 34.23572000000001 C 24.776170000000004 34.43321000000001 26.453280000000003 34.60850000000001 27.812470000000005 35.32115000000001 C 28.327680000000004 35.59518000000001 28.053650000000005 36.31853000000001 27.538440000000005 36.35145000000001 C 27.53844 36.35145 27.53844 36.35144 27.53844 36.35144 z M 35.50734 16.27023 C 33.81926 16.752460000000003 31.89012 16.752460000000003 30.14723 16.80732 C 28.32769 16.87315 26.50806 16.851210000000002 24.69942 16.741490000000002 C 22.89085 16.632030000000004 21.0822 16.456760000000003 19.28459 16.204400000000003 C 17.651290000000003 15.985230000000003 15.689240000000002 15.897450000000003 14.187550000000002 15.185070000000003 C 13.683310000000002 14.954920000000003 13.968310000000002 14.220600000000003 14.450610000000001 14.209360000000004 C 15.33848 14.176720000000003 16.23731 14.461720000000003 17.11421 14.604080000000003 C 18.01305 14.757420000000003 18.91188 14.889080000000003 19.82169 14.998800000000003 C 21.49874 15.217970000000003 23.18682 15.371320000000003 24.87484 15.459090000000003 C 26.573829999999997 15.546860000000004 28.27282 15.590750000000003 29.96091 15.568810000000003 C 31.747609999999998 15.557840000000002 33.62195 15.316720000000002 35.39768 15.470060000000002 C 35.84713 15.502980000000003 35.967690000000005 16.138810000000003 35.50733 16.270210000000002 L 35.50734 16.27023 z M 106.19689 57.43004 C 103.64289 57.52852 101.05601999999999 57.10115 98.51299 56.870999999999995 C 96.01384 56.64084999999999 93.50367 56.46556999999999 90.99354 56.322939999999996 C 82.04907 55.79682 73.07173 55.81876 64.13830999999999 56.45433 C 59.67704999999999 56.76128 55.22674999999999 57.22184 50.787429999999986 57.81379 C 46.36998999999999 58.39451 41.842959999999984 59.600359999999995 37.37077999999998 59.04132 C 37.04188999999998 58.99743 37.03091999999998 58.50423 37.37077999999998 58.52617 C 40.01242999999998 58.69048 42.61025999999998 58.03296 45.197119999999984 57.55047 C 47.718209999999985 57.079209999999996 50.26124999999998 56.6628 52.804279999999984 56.290029999999994 C 61.617229999999985 55.02958999999999 70.50683999999998 54.37179999999999 79.39644999999999 54.26208 C 83.93444999999998 54.20748 88.48335999999999 54.33889 93.01038999999999 54.623889999999996 C 95.27938999999999 54.76624999999999 97.53742999999999 54.95278 99.79544999999999 55.171949999999995 C 101.98770999999999 55.391119999999994 104.24573999999998 55.57765 106.36126999999999 56.21321999999999 C 107.04092 56.4217 106.89843 57.40811 106.19689 57.43004 z M 180.21864 15.23992 C 187.12433 15.23992 194.01898 15.39326 200.9246 15.59075 C 204.31167 15.68923 207.69868 15.77701 211.08576 15.86478 C 212.83956 15.89742 214.60431 15.97424 216.35816 16.04007 C 218.00234 16.09493 219.78907 16.05104 221.38935 16.48939 C 221.86076 16.62105 221.90456 17.38829 221.38935 17.48705 C 219.76711 17.81567 217.99137000000002 17.65136 216.35816 17.59651 C 214.59339 17.530939999999998 212.83954 17.48705 211.08576 17.399279999999997 C 207.69869 17.245679999999997 204.31168 17.092329999999997 200.9246 16.960929999999998 C 194.008 16.675649999999997 187.11337 16.347029999999997 180.21864 15.853559999999998 C 179.82405 15.83188 179.81308 15.23993 180.21864 15.23992 z M 162.77921 45.36161 C 165.21261 44.956179999999996 167.74466 44.84646 170.21096 44.68215 C 172.73211 44.51756 175.24224 44.38617 177.75234 44.26547 C 182.81647 44.00241 187.9683 43.67352 193.03243 43.980470000000004 C 193.54763 44.01339 193.5257 44.70382000000001 193.03243 44.758680000000005 C 188.04505 45.33966 182.95897 45.38355000000001 177.93873 45.569810000000004 C 175.42855 45.66856000000001 172.91842 45.77828 170.40832 45.876760000000004 C 167.9091 45.97551000000001 165.36607 46.15079000000001 162.86694 46.03036 C 162.4942 46.01912 162.37366 45.42744 162.77921 45.36161 L 162.77921 45.36161 z M 127.75778 38.30259 C 126.55207 38.60954 125.25863 38.64219 124.03097 38.72997 C 122.71558999999999 38.828720000000004 121.4112 38.86163 120.09582999999999 38.89428 C 117.47605999999999 38.94914 114.85629999999999 38.87234 112.24756 38.74094 C 111.63373 38.708020000000005 111.63373 37.77621 112.24756 37.787440000000004 C 114.81246999999999 37.83133 117.37746 37.798140000000004 119.95333 37.743550000000006 C 121.21391 37.71063000000001 122.46345 37.644800000000004 123.72403999999999 37.60092000000001 C 125.01745999999999 37.55730000000001 126.35477999999999 37.40369000000001 127.64820999999999 37.51341000000001 C 128.07571 37.54606 128.21815 38.1819 127.75778 38.30259 z M 150.75461 16.55524 C 147.47719 16.336070000000003 144.19977 16.27024 140.92235000000002 16.22635 C 134.27979000000002 16.1276 127.65919000000002 16.55524 121.02753000000003 16.64302 C 120.76448000000002 16.64302 120.69870000000003 16.21538 120.96176000000003 16.17149 C 127.56049000000003 15.097299999999999 134.23598000000004 14.362979999999999 140.92235000000002 14.023119999999999 C 144.24367 13.858809999999998 147.61969000000002 13.902689999999998 150.93006000000003 14.132839999999998 C 152.61808000000002 14.253269999999999 154.28422000000003 14.417839999999998 155.95037000000002 14.658959999999999 C 156.78338000000002 14.790619999999999 157.63839000000002 14.900079999999999 158.46049000000002 15.097309999999998 C 159.21682 15.283839999999998 160.06086000000002 15.404259999999999 160.71852 15.84288 C 161.25561000000002 16.19344 161.24464 17.147209999999998 160.53219 17.30056 C 159.75392000000002 17.46515 158.95376000000002 17.3225 158.16451 17.25694 C 157.32053000000002 17.191110000000002 156.47649 17.07041 155.64342000000002 16.98291 C 154.01020000000003 16.82931 152.38794000000001 16.66499 150.75464000000002 16.55527 L 150.75461 16.55524 z M 212.34627 60.09357 C 211.41458 60.49927 210.51573 60.4444 209.52927 60.4444 C 208.45501 60.43343 207.39179 60.43343 206.31754999999998 60.42246 C 204.31166 60.40052 202.29475 60.40052 200.28882 60.35663 C 192.98862 60.19232 185.6993 60.159400000000005 178.41007 59.92925 C 171.10979 59.69883 163.80959 59.66619 156.53125999999997 59.019380000000005 C 156.36687999999998 58.997440000000005 156.35590999999997 58.75632 156.53125999999997 58.745340000000006 C 160.68564999999998 58.62465 164.82898999999998 58.668530000000004 168.98331999999996 58.734370000000006 C 176.20685999999995 58.85506000000001 183.44129999999996 58.81118000000001 190.66483999999997 58.78923 C 194.24921999999998 58.76729 197.83350999999996 58.734370000000006 201.41787999999997 58.67951 C 203.23742999999996 58.64659 205.06802999999996 58.62464 206.88757999999996 58.592 C 207.83023999999995 58.57006 208.77295999999996 58.55908 209.71560999999997 58.53713 C 210.55964999999998 58.51519 211.37077999999997 58.438379999999995 212.17092999999997 58.77825 C 212.66418 58.97549 212.98204 59.80857 212.34627 60.09357 z M 236.16527 44.25451 C 234.65260999999998 44.47368 233.10702999999998 44.38617 231.58344 44.33131 C 230.02688 44.276450000000004 228.48137 44.199650000000005 226.92487 44.155750000000005 C 223.81183 44.046290000000006 220.70977 43.991440000000004 217.59678 43.991440000000004 C 211.32686999999999 43.980470000000004 205.04604 44.11213000000001 198.76522 44.18867 C 198.3048 44.19964 198.33773 43.542120000000004 198.76522 43.49823 C 205.03507 42.81849 211.294 42.57738 217.59675 42.57738 C 220.76459999999997 42.57738 223.94331999999997 42.621269999999996 227.11118 42.720009999999995 C 228.6019 42.774609999999996 230.09262999999999 42.82946999999999 231.58342 42.90626999999999 C 233.10699 42.99403999999999 234.68543 43.07057999999999 236.16523999999998 43.476279999999996 C 236.51601999999997 43.57476 236.5708 44.18866 236.16523999999998 44.25449 L 236.16527 44.25451 z" stroke-linecap="round" />
</g>
		<g transform="matrix(1 0 0 1 118.13997174533917 -9.158392698852516)" id="path-01"  >
<linearGradient id="SVGID_25992" gradientUnits="userSpaceOnUse" gradientTransform="matrix(1 0 0 1 239.12419732520908 30.69505295040441)"  x1="0" y1="0" x2="0" y2="6">
<stop offset="0%" style="stop-color:rgb(48,35,174);stop-opacity: 1"/>
<stop offset="100%" style="stop-color:rgb(200,109,215);stop-opacity: 1"/>
</linearGradient>
<path style="stroke: none; stroke-width: 1; stroke-dasharray: none; stroke-linecap: butt; stroke-dashoffset: 0; stroke-linejoin: miter; stroke-miterlimit: 4; fill: url(#SVGID_25992); fill-rule: nonzero; opacity: 1;"  paint-order="stroke"  transform=" translate(-243.1399846275961, -33.686404570795936)" d="M 247.09297 33.33323 C 246.52296 31.63444 243.93612000000002 31.54666 242.47824 31.26166 C 241.83348 31.13668 240.56868 30.88532 239.66049 30.70431 C 239.27257 30.627 238.98359000000002 31.04974 239.19623 31.38327 C 239.69757 32.16959 240.37303000000003 33.30265 240.60391 34.034909999999996 C 240.83406000000002 34.76922999999999 241.00947000000002 35.63522 241.59039 36.183279999999996 C 242.14944000000003 36.720369999999996 242.99348 36.76425999999999 243.70593000000002 36.57774 C 244.59381000000002 36.33689 245.37208 35.74494 246.06263 35.163959999999996 C 246.63264 34.692699999999995 247.37800000000001 34.166579999999996 247.09299000000001 33.333239999999996 L 247.09297 33.33323 z" stroke-linecap="round" />
</g>
</g>
</g>
<g transform="matrix(1.9211538461538462 0 0 1.9211538461538462 654.990590082867 540.2103450027348)" id="text-logo"  >
<g style=""  paint-order="stroke"   >
		<g transform="matrix(1 0 0 1 0 0)" id="text-logo-path-0"  >
<linearGradient id="SVGID_25993" gradientUnits="userSpaceOnUse" gradientTransform="matrix(1 0 0 1 0.710000000000008 -45.75)"  x1="0" y1="0" x2="0" y2="69">
<stop offset="0%" style="stop-color:rgb(248,77,158);stop-opacity: 1"/>
<stop offset="100%" style="stop-color:rgb(255,116,117);stop-opacity: 1"/>
</linearGradient>
<filter id="SVGID_25981" y="-27.158582553712836%" height="154.31716510742567%" x="-21.170922425813426%" width="142.34184485162686%" >
	<feGaussianBlur in="SourceAlpha" stdDeviation="0"></feGaussianBlur>
	<feOffset dx="3.3516483516483504" dy="3.3516483516483504" result="oBlur" ></feOffset>
	<feFlood flood-color="rgb(81,18,94)" flood-opacity="1"/>
	<feComposite in2="oBlur" operator="in" />
	<feMerge>
		<feMergeNode></feMergeNode>
		<feMergeNode in="SourceGraphic"></feMergeNode>
	</feMerge>
</filter>
<path style="stroke: rgb(81,18,94); stroke-width: 6.032967032967031; stroke-dasharray: none; stroke-linecap: butt; stroke-dashoffset: 0; stroke-linejoin: miter; stroke-miterlimit: 4; fill: url(#SVGID_25993); fill-rule: nonzero; opacity: 1;filter: url(#SVGID_25981);"  paint-order="stroke"  transform=" translate(-143.83, 22.34)" d="M 0.71 0.12 L 0.71 0.12 Q 2.14 -10.9 4.5 -23.05 Q 6.85 -35.21 8.52 -43.49 L 8.52 -43.49 L 19.24 -44.92 Q 13.7 -21.45 12.78 -16.08 Q 11.85 -10.72 11.56 -8.58 L 11.56 -8.58 Q 13.82 -8.76 17.87 -8.76 L 17.87 -8.76 Q 17.99 -6.43 18.23 -4.97 Q 18.47 -3.51 18.56 -2.83 Q 18.65 -2.14 18.71 -1.91 L 18.71 -1.91 L 16.86 -1.97 Q 10.6 -1.97 4.41 -0.83 L 4.41 -0.83 Q 2.38 -0.42 0.71 0.12 Z M 18.94 -12.27 L 18.94 -12.27 Q 18.94 -19.06 22.1 -26.93 L 22.1 -26.93 Q 25.26 -34.79 30.38 -40.03 L 30.38 -40.03 Q 35.92 -45.63 42 -45.63 L 42 -45.63 Q 47 -45.63 49.32 -41.58 L 49.32 -41.58 Q 51.17 -38.3 51.17 -31.63 L 51.17 -31.63 Q 51.17 -28 50.13 -23.59 Q 49.09 -19.18 47.3 -15.49 Q 45.51 -11.79 43.16 -8.88 Q 40.81 -5.96 38.24 -3.93 L 38.24 -3.93 Q 32.94 0.24 28.06 0.24 L 28.06 0.24 Q 23.95 0.24 21.56 -2.74 L 21.56 -2.74 Q 18.94 -6.02 18.94 -12.27 Z M 28 -13.82 L 28 -13.82 Q 28 -11.44 30.02 -10.25 L 30.02 -10.25 Q 30.62 -9.83 31.39 -9.83 L 31.39 -9.83 Q 34.13 -9.83 36.25 -11.71 Q 38.36 -13.58 39.79 -16.32 Q 41.22 -19.06 41.97 -22.19 Q 42.71 -25.32 42.71 -27.88 L 42.71 -27.88 Q 42.71 -32.82 39.85 -32.82 L 39.85 -32.82 Q 36.22 -32.82 33.3 -29.25 L 33.3 -29.25 Q 30.98 -26.39 29.31 -21.45 L 29.31 -21.45 Q 28 -17.39 28 -13.82 Z M 47.95 -5.36 L 47.95 -5.36 L 52.48 -14.24 Q 53.32 -12.57 55.7 -11.2 L 55.7 -11.2 Q 58.08 -9.77 59.27 -9.77 Q 60.46 -9.77 61.27 -10.01 Q 62.07 -10.25 62.73 -10.72 L 62.73 -10.72 Q 64.22 -11.79 64.22 -13.31 Q 64.22 -14.83 63.26 -16.08 Q 62.31 -17.33 60.91 -18.47 Q 59.51 -19.6 57.87 -20.76 Q 56.23 -21.92 54.86 -23.23 L 54.86 -23.23 Q 51.53 -26.21 51.53 -29.49 Q 51.53 -32.76 53.4 -35.5 Q 55.28 -38.24 58.11 -40.24 Q 60.94 -42.24 64.31 -43.4 Q 67.67 -44.56 70 -44.56 Q 72.32 -44.56 73.78 -44.14 Q 75.24 -43.72 76.31 -42.89 L 76.31 -42.89 Q 78.63 -40.98 78.63 -37.29 L 78.63 -37.29 Q 78.63 -36.4 78.48 -35.56 Q 78.33 -34.73 78.22 -33.72 L 78.22 -33.72 L 69.4 -31.16 Q 69.7 -32.35 69.7 -33.66 Q 69.7 -34.97 69.04 -35.77 Q 68.39 -36.58 67.64 -36.58 Q 66.9 -36.58 66.18 -36.22 Q 65.47 -35.86 64.75 -35.27 L 64.75 -35.27 Q 63.08 -33.9 63.08 -32.32 Q 63.08 -30.74 63.92 -29.76 Q 64.75 -28.77 65.97 -27.94 Q 67.2 -27.1 68.63 -26.21 Q 70.05 -25.32 71.31 -23.95 L 71.31 -23.95 Q 74.17 -20.61 74.17 -15.07 L 74.17 -15.07 Q 74.17 -8.4 69.28 -4.05 L 69.28 -4.05 Q 64.63 0.12 57.54 0.12 L 57.54 0.12 Q 52.3 0.12 47.95 -5.36 Z M 89.77 -1.67 L 78.81 0.06 Q 83.64 -22.58 85.3 -35.38 L 85.3 -35.38 Q 84.23 -35.5 83.16 -35.5 L 83.16 -35.5 L 82.45 -35.5 Q 82.27 -35.5 82.09 -35.5 L 82.09 -35.5 L 79.59 -35.86 L 79.88 -43.67 Q 82.98 -43.43 86.14 -43.43 L 86.14 -43.43 Q 94.48 -43.43 102.4 -44.44 L 102.4 -44.44 L 101.75 -41.16 Q 101.45 -39.79 101.18 -38.33 Q 100.91 -36.87 100.67 -35.8 L 100.67 -35.8 Q 99.3 -35.44 97.93 -35.3 Q 96.56 -35.15 95.25 -34.91 L 95.25 -34.91 Q 94.18 -30.32 93.11 -23.53 L 93.11 -23.53 Q 90.73 -8.52 89.77 -1.67 L 89.77 -1.67 Z M 108.54 -9.83 L 108.54 -9.83 Q 108.54 -14.54 111.46 -18.82 L 111.46 -18.82 Q 114.43 -23.23 119.2 -24.6 L 119.2 -24.6 Q 116.4 -25.97 114.97 -28.47 L 114.97 -28.47 Q 114.26 -29.73 114.26 -32.08 Q 114.26 -34.43 115.6 -37.02 Q 116.94 -39.61 119.2 -41.46 L 119.2 -41.46 Q 123.97 -45.27 130.58 -45.27 L 130.58 -45.27 Q 133.44 -45.27 135.85 -43.96 Q 138.26 -42.65 139.63 -40.33 L 139.63 -40.33 L 134.63 -34.73 Q 134.15 -35.15 133.68 -35.59 Q 133.2 -36.04 132.54 -36.34 L 132.54 -36.34 Q 131.05 -37.11 129.15 -37.11 Q 127.24 -37.11 126.32 -36.67 Q 125.4 -36.22 124.8 -35.44 L 124.8 -35.44 Q 123.61 -33.9 123.61 -32.29 Q 123.61 -30.68 123.94 -29.7 Q 124.26 -28.71 124.86 -27.88 L 124.86 -27.88 Q 126.23 -26.15 128.73 -26.15 L 128.73 -26.15 L 129.39 -26.15 Q 129.74 -26.15 130.1 -26.27 L 130.1 -26.27 Q 130.1 -27.22 130.34 -28.65 L 130.34 -28.65 Q 132.78 -28.65 134.84 -28.77 Q 136.89 -28.89 139.28 -29.01 L 139.28 -29.01 Q 139.16 -28.71 139.16 -28.12 L 139.16 -28.12 L 139.16 -26.57 Q 139.93 -26.57 143.5 -27.4 L 143.5 -27.4 L 144.22 -21.15 Q 140.05 -20.49 139.39 -20.49 L 139.39 -20.49 Q 139.39 -5.36 129.39 -0.83 L 129.39 -0.83 Q 125.81 0.77 121.64 0.77 Q 117.47 0.77 115.15 -0.09 Q 112.83 -0.95 111.4 -2.38 L 111.4 -2.38 Q 108.54 -5.24 108.54 -9.83 Z M 118.25 -11.26 L 118.25 -11.26 Q 118.25 -9.35 119.44 -8.13 Q 120.63 -6.91 122.74 -6.91 Q 124.86 -6.91 126.17 -8.37 Q 127.48 -9.83 128.2 -11.91 L 128.2 -11.91 Q 129.33 -14.89 129.68 -20.25 L 129.68 -20.25 Q 123.85 -19.78 120.87 -17.1 L 120.87 -17.1 Q 118.25 -14.71 118.25 -11.26 Z M 152.14 0.06 L 152.14 0.06 Q 153.93 -6.43 155.42 -15.01 L 155.42 -15.01 Q 158.22 -30.8 160.13 -43.84 L 160.13 -43.84 L 180.56 -44.92 L 178.83 -37.41 L 169.24 -37.41 L 167.33 -26.51 Q 169.24 -26.57 170.79 -26.57 L 170.79 -26.57 L 173.83 -26.57 Q 175.26 -26.57 176.09 -26.63 L 176.09 -26.63 L 175.08 -20.02 Q 173.95 -20.02 166.32 -20.25 L 166.32 -20.25 L 163.52 -2.26 Q 158.4 -1.37 152.14 0.06 Z M 174.6 -12.27 L 174.6 -12.27 Q 174.6 -19.06 177.76 -26.93 L 177.76 -26.93 Q 180.92 -34.79 186.04 -40.03 L 186.04 -40.03 Q 191.58 -45.63 197.65 -45.63 L 197.65 -45.63 Q 202.66 -45.63 204.98 -41.58 L 204.98 -41.58 Q 206.83 -38.3 206.83 -31.63 L 206.83 -31.63 Q 206.83 -28 205.79 -23.59 Q 204.74 -19.18 202.96 -15.49 Q 201.17 -11.79 198.82 -8.88 Q 196.46 -5.96 193.9 -3.93 L 193.9 -3.93 Q 188.6 0.24 183.71 0.24 L 183.71 0.24 Q 179.6 0.24 177.22 -2.74 L 177.22 -2.74 Q 174.6 -6.02 174.6 -12.27 Z M 183.66 -13.82 L 183.66 -13.82 Q 183.66 -11.44 185.68 -10.25 L 185.68 -10.25 Q 186.28 -9.83 187.05 -9.83 L 187.05 -9.83 Q 189.79 -9.83 191.91 -11.71 Q 194.02 -13.58 195.45 -16.32 Q 196.88 -19.06 197.62 -22.19 Q 198.37 -25.32 198.37 -27.88 L 198.37 -27.88 Q 198.37 -32.82 195.51 -32.82 L 195.51 -32.82 Q 191.88 -32.82 188.96 -29.25 L 188.96 -29.25 Q 186.63 -26.39 184.97 -21.45 L 184.97 -21.45 Q 183.66 -17.39 183.66 -13.82 Z M 204.68 -6.37 L 204.68 -6.37 Q 204.68 -6.61 204.68 -6.85 Q 204.68 -7.09 204.83 -8.46 Q 204.98 -9.83 205.52 -13.37 Q 206.05 -16.92 206.68 -20.76 Q 207.3 -24.6 208.02 -28.47 Q 208.73 -32.35 209.33 -35.5 L 209.33 -35.5 Q 210.64 -42.29 210.88 -43.37 L 210.88 -43.37 Q 212.19 -43.49 213.95 -43.67 Q 215.7 -43.84 217.4 -43.99 Q 219.1 -44.14 220.95 -44.32 L 220.95 -44.32 Q 219.4 -36.99 218.5 -32.7 Q 217.61 -28.42 217.07 -25.85 Q 216.54 -23.29 216.12 -21.15 L 216.12 -21.15 Q 215.17 -16.62 214.87 -15.25 L 214.87 -15.25 Q 213.98 -11.14 213.98 -9.95 Q 213.98 -8.76 214.48 -8.13 Q 214.99 -7.51 215.85 -7.51 Q 216.72 -7.51 217.4 -8.34 Q 218.09 -9.17 218.53 -10.31 Q 218.98 -11.44 219.22 -12.63 Q 219.46 -13.82 219.73 -15.04 Q 219.99 -16.26 220.44 -18.44 Q 220.89 -20.61 221.33 -22.96 Q 221.78 -25.32 222.26 -27.76 L 222.26 -27.76 Q 223.51 -34.01 225.18 -43.61 L 225.18 -43.61 L 234.41 -44.2 L 234.11 -42.65 Q 233.4 -38.9 232.53 -33.98 Q 231.67 -29.07 230.95 -25.5 L 230.95 -25.5 Q 229.11 -16.2 228.21 -12.3 Q 227.32 -8.4 225.74 -5.96 Q 224.16 -3.51 222.08 -1.91 L 222.08 -1.91 Q 218.09 1.07 212.84 1.07 L 212.84 1.07 Q 209.63 1.07 207.3 -0.71 L 207.3 -0.71 Q 204.68 -2.86 204.68 -6.37 Z M 237.57 -1.79 L 228.63 0.3 Q 235.42 -32.05 236.55 -44.74 L 236.55 -44.74 Q 237.39 -44.68 237.92 -44.68 L 237.92 -44.68 L 239.65 -44.68 Q 240.84 -44.68 246.32 -44.92 L 246.32 -44.92 Q 247.16 -40.63 247.87 -36.93 L 247.87 -36.93 Q 249.78 -26.33 250.49 -23.29 L 250.49 -23.29 Q 250.73 -24.54 251.03 -26.15 Q 251.33 -27.76 251.68 -29.52 Q 252.04 -31.27 252.4 -33.12 L 252.4 -33.12 Q 253 -36.04 254.84 -44.86 L 254.84 -44.86 L 262.29 -45.75 Q 255.79 -15.67 254.19 -2.56 L 254.19 -2.56 Q 253.47 -2.56 249.27 -1.55 Q 245.07 -0.54 244.24 -0.24 L 244.24 -0.24 Q 243.05 -16.56 241.62 -23.35 L 241.62 -23.35 Q 241.44 -22.22 241.14 -20.7 Q 240.84 -19.18 240.54 -17.45 L 240.54 -17.45 Q 239.41 -10.96 237.57 -1.79 L 237.57 -1.79 Z M 256.15 0 L 256.15 0 Q 262.65 -32.7 264.08 -43.19 L 264.08 -43.19 Q 266.7 -43.67 269.38 -44.11 Q 272.06 -44.56 275.13 -44.56 Q 278.19 -44.56 280.49 -43.52 Q 282.78 -42.47 284.21 -40.63 L 284.21 -40.63 Q 286.95 -37.11 286.95 -31.16 L 286.95 -31.16 Q 286.95 -24.6 283.5 -17.33 L 283.5 -17.33 Q 279.86 -9.77 273.96 -5 L 273.96 -5 Q 267.23 0.3 259.55 0.3 L 259.55 0.3 Q 258.24 0.3 256.15 0 Z M 266.82 -7.39 L 266.82 -7.39 Q 270.99 -10.07 274.5 -18.53 L 274.5 -18.53 Q 276.47 -23.23 277.12 -26.45 Q 277.78 -29.67 277.78 -31.51 Q 277.78 -33.36 276.53 -34.64 Q 275.27 -35.92 272.59 -35.92 L 272.59 -35.92 Q 271.58 -30.8 270.27 -24.9 L 270.27 -24.9 Q 268.07 -14.89 266.82 -7.39 Z" stroke-linecap="round" />
</g>
</g>
</g>
<g transform="matrix(1.0804309004622936 0 0 1.0804309004622936 647.4062531693539 337.4558162535719)" id="shape-b6c52c8f-6539-43bb-91ab-fcdd390ac97a"  >
<g style=""  paint-order="stroke"   >
		<g transform="matrix(1 0 0 1 0 0)" id="path-07"  >
<path style="stroke: none; stroke-width: 1; stroke-dasharray: none; stroke-linecap: butt; stroke-dashoffset: 0; stroke-linejoin: miter; stroke-miterlimit: 4; fill: rgb(68,32,14); fill-rule: nonzero; opacity: 1;"  paint-order="stroke"  transform=" translate(-149.95177420477773, -133.23669444966833)" d="M 294.8 114.6 C 301.90000000000003 105.89999999999999 301.6 93.5 294.1 85.19999999999999 C 285.5 75.49999999999999 270.3 74.39999999999999 260.20000000000005 82.69999999999999 C 255.80000000000004 86.39999999999999 250.70000000000005 90.1 244.20000000000005 94.29999999999998 C 236.50000000000006 99.29999999999998 228.00000000000006 104.29999999999998 219.00000000000006 109.19999999999999 C 220.90000000000006 103.69999999999999 221.90000000000006 97.99999999999999 221.90000000000006 92.1 C 221.90000000000006 82.5 219.20000000000007 72.89999999999999 214.00000000000006 64.39999999999999 C 211.90000000000006 60.89999999999999 210.50000000000006 57.099999999999994 209.90000000000006 53.19999999999999 C 209.70000000000007 51.69999999999999 209.40000000000006 50.19999999999999 209.00000000000006 48.69999999999999 C 220.10000000000005 45.999999999999986 228.00000000000006 36.19999999999999 228.00000000000006 24.69999999999999 C 228.00000000000006 10.99999999999999 216.70000000000005 -0.10000000000001208 202.80000000000007 -0.10000000000001208 C 193.70000000000007 -0.10000000000001208 185.30000000000007 4.799999999999988 180.90000000000006 12.399999999999988 C 172.30000000000007 7.699999999999988 162.50000000000006 5.299999999999988 152.50000000000006 5.299999999999988 C 142.50000000000006 5.299999999999988 132.60000000000005 7.799999999999988 124.00000000000006 12.49999999999999 C 119.7 4.9 111.3 0 102.1 0 C 88.2 0 76.9 11.1 76.9 24.8 C 76.9 36.2 85 46.2 96.10000000000001 48.8 C 95.80000000000001 50.3 95.50000000000001 51.8 95.2 53.3 C 94.60000000000001 57.199999999999996 93.3 61 91.10000000000001 64.5 C 86.00000000000001 73 83.2 82.5 83.2 92.2 C 83.2 100 84.9 107.60000000000001 88.3 114.7 C 88.3 114.7 88.3 114.7 88.3 114.7 C 88 114.8 87.7 114.9 87.5 115 L 87 115.1 C 67.5 121 44.9 127.39999999999999 23.299999999999997 129.4 C 8 130.2 0.5 141.4 0 151.5 C -0.5 161.8 5.7 173.2 20.8 175.6 C 29.6 176.7 37.5 177 44.7 177.1 L 46.900000000000006 177.1 C 53.50000000000001 177.1 60.7 176.9 67.2 176.7 C 65.5 182.6 64.7 188.79999999999998 64.8 195.2 C 57.5 196.79999999999998 50.099999999999994 198.5 42.699999999999996 200.5 C 40.199999999999996 198.6 32.89999999999999 193.8 24.599999999999994 195.5 C 18.599999999999994 196.7 15.599999999999994 201.7 15.799999999999994 210.3 C 15.899999999999993 216.20000000000002 17.399999999999995 224.10000000000002 20.499999999999993 235.9 C 24.999999999999993 252.8 29.39999999999999 261.1 35.599999999999994 264.7 C 39.49999999999999 266.9 44.199999999999996 267.2 50.49999999999999 265.4 C 70.69999999999999 259.29999999999995 91.89999999999999 254.89999999999998 113.5 252.29999999999998 L 192 252.29999999999998 C 213.7 254.99999999999997 234.9 259.4 255.1 265.4 C 257.8 266.2 260.2 266.5 262.4 266.5 C 265.2 266.5 267.7 265.9 269.9 264.6 C 276.09999999999997 261.1 280.5 252.70000000000002 285 235.8 C 288.2 224 289.6 216.10000000000002 289.7 210.20000000000002 C 289.8 207.00000000000003 290 197.3 280.9 195.4 C 272.59999999999997 193.70000000000002 265.29999999999995 198.5 262.79999999999995 200.4 C 255.49999999999994 198.4 248.09999999999997 196.70000000000002 240.69999999999996 195.1 C 240.89999999999995 185.79999999999998 239.09999999999997 176.9 235.39999999999995 168.5 C 242.59999999999994 163 252.29999999999995 155.4 260.29999999999995 148.6 C 273.7 137.1 284.6 127 294.8 114.6 z" stroke-linecap="round" />
</g>
		<g transform="matrix(1 0 0 1 -1.1807503311352718 -1.5366944496683743)" id="path-06"  >
<path style="stroke: none; stroke-width: 1; stroke-dasharray: none; stroke-linecap: butt; stroke-dashoffset: 0; stroke-linejoin: miter; stroke-miterlimit: 4; fill: rgb(186,111,49); fill-rule: nonzero; opacity: 1;"  paint-order="stroke"  transform=" translate(-148.77102387364246, -131.69999999999996)" d="M 82.1 30.8 C 81.5 28.900000000000002 81.1 26.900000000000002 81.1 24.8 C 81.1 13.5 90.39999999999999 4.300000000000001 101.89999999999999 4.199999999999999 L 101.99999999999999 4.199999999999999 C 107.49999999999999 4.499999999999999 108.69999999999999 6.3999999999999995 108.29999999999998 7.999999999999999 C 111.59999999999998 9.1 114.49999999999999 11.2 116.69999999999999 14 C 116.29999999999998 14.3 115.89999999999999 14.5 115.6 14.8 C 113.6 12.200000000000001 110.8 10.3 107.6 9.3 C 107.3 9.600000000000001 107 9.8 106.6 10 C 104.5 10.9 102.1 11.2 101.5 11.2 C 94.8 11.5 89.2 16.5 88.3 22.9 C 87.8 25.2 88.39999999999999 27.5 88.7 29.4 C 89.2 29.599999999999998 89.7 29.7 90.2 29.7 C 91.10000000000001 29.7 91.9 29.5 92.60000000000001 29.099999999999998 C 92.30000000000001 27.999999999999996 92.2 26.999999999999996 92.2 25.9 C 92.2 25.7 92.2 25.599999999999998 92.2 25.4 C 92.3 25.2 92.3 25 92.3 24.7 C 92.3 19.5 96.7 15.299999999999999 102.1 15.299999999999999 C 106.39999999999999 15.299999999999999 110.19999999999999 18 111.39999999999999 21.799999999999997 C 106.6 26.499999999999996 102.69999999999999 31.9 99.8 37.8 C 99 37.4 98.1 36.9 97.39999999999999 36.4 C 96.6 38 95.99999999999999 39.6 95.39999999999999 41.199999999999996 C 91.6 39.699999999999996 88.39999999999999 36.99999999999999 86.39999999999999 33.599999999999994 C 83.19999999999999 34.199999999999996 81.89999999999999 30.199999999999996 81.39999999999999 28.199999999999996 C 81.6 29.2 81.8 30 82.1 30.8 z M 202.9 11.2 C 206.70000000000002 11.2 210.20000000000002 12.7 212.70000000000002 15.1 C 212.70000000000002 15.1 212.70000000000002 15.1 212.70000000000002 15.1 C 213.9 16 215.70000000000002 16.9 217.3 16.4 C 218.8 18.9 219.70000000000002 21.7 219.70000000000002 24.799999999999997 C 219.70000000000002 27.499999999999996 217.50000000000003 29.699999999999996 214.8 29.699999999999996 C 213.9 29.699999999999996 213.10000000000002 29.499999999999996 212.4 29.099999999999994 C 212.70000000000002 27.999999999999993 212.8 26.999999999999993 212.8 25.899999999999995 C 212.8 25.699999999999996 212.8 25.599999999999994 212.8 25.399999999999995 C 212.70000000000002 25.199999999999996 212.70000000000002 24.999999999999996 212.70000000000002 24.699999999999996 C 212.70000000000002 19.499999999999996 208.3 15.299999999999995 202.9 15.299999999999995 C 198.6 15.299999999999995 194.8 17.999999999999996 193.6 21.799999999999997 C 198.4 26.499999999999996 202.29999999999998 31.9 205.2 37.8 C 206 37.4 206.89999999999998 36.9 207.6 36.4 C 208.4 38 209 39.6 209.6 41.199999999999996 C 216.4 38.49999999999999 221.1 31.899999999999995 221.1 24.699999999999996 C 221.1 21.399999999999995 220.1 18.199999999999996 218.5 15.599999999999996 C 220.8 13.499999999999996 217.7 10.199999999999996 216.6 9.199999999999996 C 212.9 6.099999999999996 208.1 4.199999999999996 202.9 4.199999999999996 C 195.20000000000002 4.199999999999996 188.20000000000002 8.299999999999995 184.6 14.799999999999995 C 186.6 16.099999999999994 188.5 17.499999999999996 190.29999999999998 18.999999999999996 C 192.5 14.3 197.4 11.2 202.9 11.2 z M 215.4 145.8 C 215.1 147.10000000000002 215.3 148.4 216 149.5 C 218.5 153.6 221.3 158 224.3 162.6 C 225.8 164.79999999999998 227.10000000000002 167.1 228.20000000000002 169.4 L 228.20000000000002 169.9 L 228.70000000000002 170.4 C 232.50000000000003 178.6 234.20000000000002 187.4 233.8 196.5 L 233.8 196.7 C 233.5 203.5 232 210.6 229.3 217.7 C 228.8 218.89999999999998 228.9 220.2 229.4 221.39999999999998 C 229.9 222.59999999999997 230.9 223.49999999999997 232.20000000000002 223.99999999999997 C 232.70000000000002 224.19999999999996 233.3 224.29999999999998 233.9 224.29999999999998 C 235.4 224.29999999999998 236.8 223.6 237.70000000000002 222.49999999999997 L 233.70000000000002 221.49999999999997 C 233.8 221.49999999999997 233.9 221.49999999999997 234.00000000000003 221.49999999999997 C 234.80000000000004 221.49999999999997 235.70000000000002 220.99999999999997 236.00000000000003 220.09999999999997 C 238.60000000000002 213.09999999999997 240.30000000000004 206.19999999999996 240.80000000000004 199.19999999999996 C 248.20000000000005 200.79999999999995 255.60000000000005 202.59999999999997 263.00000000000006 204.59999999999997 C 263.70000000000005 204.79999999999995 264.40000000000003 204.59999999999997 264.90000000000003 204.09999999999997 C 265.00000000000006 203.99999999999997 272.3 197.69999999999996 280.3 199.29999999999995 C 282.90000000000003 199.79999999999995 285.90000000000003 201.49999999999994 285.7 209.89999999999995 C 285.7 210.09999999999994 285.7 210.19999999999996 285.7 210.39999999999995 C 285.4 207.59999999999994 284.5 204.49999999999994 281.9 203.49999999999994 C 282.5 204.49999999999994 283 206.39999999999995 282.9 209.79999999999995 C 282.79999999999995 215.09999999999997 281.4 222.69999999999996 278.4 233.69999999999996 C 274.59999999999997 247.99999999999997 270.79999999999995 255.79999999999995 266.59999999999997 258.19999999999993 C 265.4 258.8999999999999 264.09999999999997 259.19999999999993 262.59999999999997 259.19999999999993 C 261.09999999999997 259.19999999999993 259.29999999999995 258.8999999999999 257.2 258.29999999999995 C 236.79999999999998 252.09999999999997 215.1 247.59999999999997 193 244.89999999999995 C 192.8 244.89999999999995 192.6 244.89999999999995 192.4 244.89999999999995 L 113.9 244.89999999999995 C 113.7 244.89999999999995 113.5 244.89999999999995 113.30000000000001 244.89999999999995 C 91.20000000000002 247.59999999999994 69.60000000000001 252.09999999999994 49.000000000000014 258.29999999999995 C 46.90000000000001 258.9 45.100000000000016 259.19999999999993 43.600000000000016 259.19999999999993 C 42.000000000000014 259.19999999999993 40.70000000000002 258.8999999999999 39.600000000000016 258.19999999999993 C 35.40000000000001 255.79999999999993 31.600000000000016 247.99999999999994 27.800000000000015 233.69999999999993 C 25.000000000000014 223.09999999999994 23.500000000000014 215.69999999999993 23.300000000000015 210.39999999999992 C 19.900000000000016 213.0999999999999 22.100000000000016 221.79999999999993 24.100000000000016 230.79999999999993 C 21.700000000000017 221.49999999999991 20.500000000000014 214.69999999999993 20.400000000000016 209.79999999999993 C 20.200000000000017 201.39999999999992 23.200000000000017 199.79999999999993 25.80000000000002 199.19999999999993 C 33.80000000000002 197.49999999999994 41.10000000000002 203.89999999999992 41.10000000000002 203.99999999999994 C 41.60000000000002 204.49999999999994 42.40000000000002 204.59999999999994 43.00000000000002 204.49999999999994 C 50.40000000000002 202.49999999999994 57.800000000000026 200.69999999999993 65.20000000000002 199.09999999999994 C 65.70000000000002 205.99999999999994 67.40000000000002 212.99999999999994 70.00000000000001 219.99999999999994 C 70.30000000000001 220.79999999999995 71.10000000000001 221.39999999999995 72.00000000000001 221.39999999999995 C 72.30000000000001 221.39999999999995 72.50000000000001 221.39999999999995 72.70000000000002 221.29999999999995 C 73.80000000000001 220.89999999999995 74.30000000000001 219.69999999999996 73.90000000000002 218.59999999999997 C 71.10000000000002 211.29999999999995 69.50000000000001 203.89999999999998 69.20000000000002 196.69999999999996 L 69.20000000000002 196.59999999999997 C 68.90000000000002 189.09999999999997 69.90000000000002 181.79999999999995 72.20000000000002 174.99999999999997 C 73.80000000000001 170.09999999999997 76.20000000000002 165.39999999999998 79.10000000000002 160.99999999999997 C 82.10000000000002 156.59999999999997 84.80000000000003 152.19999999999996 87.30000000000003 147.99999999999997 C 87.90000000000002 146.99999999999997 87.60000000000002 145.69999999999996 86.60000000000002 145.09999999999997 C 85.80000000000003 144.59999999999997 84.70000000000002 144.69999999999996 84.10000000000002 145.39999999999998 C 82.60000000000002 145.89999999999998 81.20000000000002 146.39999999999998 79.80000000000003 146.89999999999998 C 77.80000000000003 150.2 75.60000000000002 153.7 73.30000000000003 157.09999999999997 C 70.60000000000002 161.09999999999997 68.40000000000002 165.29999999999995 66.80000000000003 169.59999999999997 C 60.50000000000003 169.89999999999998 53.800000000000026 169.99999999999997 47.700000000000024 169.99999999999997 C 46.800000000000026 169.99999999999997 45.90000000000003 169.99999999999997 44.90000000000003 169.99999999999997 C 38.00000000000003 169.89999999999998 30.400000000000027 169.59999999999997 21.900000000000027 168.59999999999997 C 10.5 166.9 6.7 158.6 7 152 C 5.4 151.5 4.5 151.1 4.3 151 C 5 142.7 11.2 134.2 23.7 133.6 C 45.7 131.5 68.6 125 88.3 119.1 L 88.8 119 C 89.2 118.9 89.7 118.7 90.2 118.6 C 90.3 118.6 90.3 118.5 90.4 118.5 C 92.10000000000001 121.6 94.2 124.5 96.60000000000001 127.4 C 97.00000000000001 127.9 97.60000000000001 128.1 98.2 128.1 C 98.7 128.1 99.2 127.89999999999999 99.60000000000001 127.6 C 100.50000000000001 126.8 100.60000000000001 125.5 99.9 124.6 C 97.30000000000001 121.5 95.10000000000001 118.19999999999999 93.30000000000001 114.8 C 89.60000000000001 107.7 87.60000000000001 100.1 87.60000000000001 92.19999999999999 C 87.60000000000001 83.39999999999999 90.10000000000001 74.49999999999999 94.9 66.69999999999999 C 97.30000000000001 62.69999999999999 98.9 58.39999999999999 99.5 53.999999999999986 C 99.8 51.899999999999984 100.3 49.79999999999998 100.8 47.79999999999998 C 100.8 47.69999999999998 100.8 47.59999999999998 100.89999999999999 47.499999999999986 C 103.39999999999999 38.59999999999999 108.39999999999999 30.499999999999986 115.39999999999999 24.099999999999987 C 115.39999999999999 24.099999999999987 115.39999999999999 24.099999999999987 115.39999999999999 24.099999999999987 C 118.1 21.599999999999987 121.19999999999999 19.299999999999986 124.49999999999999 17.299999999999986 C 124.49999999999999 17.299999999999986 124.49999999999999 17.299999999999986 124.59999999999998 17.299999999999986 C 130.99999999999997 13.499999999999986 138.2 10.999999999999986 145.7 10.099999999999987 C 146 10.199999999999987 150.89999999999998 10.699999999999987 157.39999999999998 12.599999999999987 C 165.29999999999998 13.299999999999986 172.79999999999998 15.599999999999987 179.49999999999997 19.599999999999987 L 179.59999999999997 19.69999999999999 C 182.69999999999996 21.49999999999999 185.49999999999997 23.599999999999987 188.09999999999997 25.99999999999999 L 188.39999999999998 26.19999999999999 L 188.89999999999998 26.69999999999999 C 195.2 32.69999999999999 199.79999999999998 40.29999999999999 201.99999999999997 48.499999999999986 C 202.49999999999997 50.399999999999984 202.89999999999998 52.29999999999998 203.19999999999996 54.29999999999998 C 203.89999999999995 59.09999999999998 205.59999999999997 63.899999999999984 208.19999999999996 68.09999999999998 C 212.69999999999996 75.49999999999999 215.09999999999997 83.79999999999998 215.09999999999997 92.09999999999998 C 215.09999999999997 98.59999999999998 213.69999999999996 104.99999999999999 210.89999999999998 110.99999999999997 L 210.7 111.39999999999998 C 208.89999999999998 115.39999999999998 206.39999999999998 119.19999999999997 203.5 122.69999999999997 C 201.8 124.79999999999997 202 127.79999999999997 204.1 129.59999999999997 C 205 130.39999999999998 206.1 130.79999999999995 207.29999999999998 130.79999999999995 C 207.6 130.79999999999995 207.99999999999997 130.79999999999995 208.29999999999998 130.69999999999996 C 207.2 129.19999999999996 206.29999999999998 127.99999999999996 205.79999999999998 127.39999999999996 C 205.79999999999998 127.39999999999996 205.89999999999998 127.49999999999996 205.89999999999998 127.49999999999996 C 206.79999999999998 128.19999999999996 208.09999999999997 128.09999999999997 208.89999999999998 127.19999999999996 C 211.99999999999997 123.49999999999996 214.59999999999997 119.49999999999996 216.7 115.39999999999996 C 227.5 109.59999999999997 237.6 103.69999999999996 246.79999999999998 97.79999999999995 C 253.49999999999997 93.39999999999995 258.7 89.59999999999995 263.2 85.89999999999995 C 267.7 82.19999999999995 273.5 80.69999999999995 279 81.49999999999994 C 279.1 81.69999999999995 279.9 82.79999999999994 280.6 84.59999999999994 C 283.90000000000003 85.39999999999993 287 87.19999999999993 289.20000000000005 89.79999999999994 C 294.40000000000003 95.59999999999994 294.6 104.19999999999995 289.70000000000005 110.09999999999994 C 279.80000000000007 121.99999999999994 269.1 131.99999999999994 256.1 143.09999999999994 C 249.20000000000002 148.99999999999994 241.00000000000003 155.39999999999995 234.70000000000002 160.29999999999993 C 234.10000000000002 159.19999999999993 233.4 158.09999999999994 232.70000000000002 156.99999999999991 C 229.9 152.79999999999993 227.20000000000002 148.49999999999991 224.60000000000002 144.1999999999999 C 224.10000000000002 143.3999999999999 223.50000000000003 142.7999999999999 222.8 142.3999999999999 C 220.8 143.8999999999999 219.60000000000002 144.7999999999999 219.4 144.8999999999999 C 219.4 144.8999999999999 219.4 144.8999999999999 219.4 144.8999999999999 C 219.4 144.8999999999999 218.70000000000002 143.9999999999999 217.70000000000002 142.6999999999999 C 216.4 143.6 215.7 144.6 215.4 145.8 z M 192 179.5 C 192 156.3 174.3 137.4 152.6 137.4 C 130.9 137.4 113.19999999999999 156.3 113.19999999999999 179.5 C 113.19999999999999 202.7 130.89999999999998 221.6 152.6 221.6 C 174.3 221.6 192 202.7 192 179.5 z M 166.3 63.8 C 166.3 67.39999999999999 169.20000000000002 70.3 172.8 70.3 C 176.4 70.3 179.3 67.39999999999999 179.3 63.8 C 179.3 60.2 176.4 57.3 172.8 57.3 C 169.2 57.3 166.3 60.2 166.3 63.8 z M 165 67.6 C 164.2 67.19999999999999 163.3 66.89999999999999 162.4 66.6 C 159.3 65.6 156 65 152.5 65 C 149 65 145.7 65.6 142.6 66.6 C 141.7 66.89999999999999 140.79999999999998 67.19999999999999 140 67.6 C 137.1 68.8 134.6 70.5 132.4 72.5 C 131.70000000000002 73.1 131.1 73.8 130.5 74.5 C 126.8 78.7 124.5 84 124.5 89.7 C 124.5 103.3 137.1 114.4 152.6 114.4 C 168.1 114.4 180.7 103.30000000000001 180.7 89.7 C 180.7 84 178.5 78.7 174.7 74.5 C 174.1 73.8 173.39999999999998 73.2 172.79999999999998 72.5 C 170.5 70.5 167.9 68.8 165 67.6 z M 132.2 57.3 C 128.6 57.3 125.69999999999999 60.199999999999996 125.69999999999999 63.8 C 125.69999999999999 67.4 128.6 70.3 132.2 70.3 C 135.79999999999998 70.3 138.7 67.39999999999999 138.7 63.8 C 138.7 60.2 135.8 57.3 132.2 57.3 z" stroke-linecap="round" />
</g>
		<g transform="matrix(1 0 0 1 0.03986195920842306 -0.20166092327499996)" id="path-05"  >
<path style="stroke: none; stroke-width: 1; stroke-dasharray: none; stroke-linecap: butt; stroke-dashoffset: 0; stroke-linejoin: miter; stroke-miterlimit: 4; fill: rgb(135,71,19); fill-rule: nonzero; opacity: 1;"  paint-order="stroke"  transform=" translate(-149.99163616398616, -133.03503352639333)" d="M 207.8 44.8 C 207.10000000000002 42.5 206.20000000000002 40.199999999999996 205.10000000000002 38 C 207.40000000000003 37 209.40000000000003 35.2 210.90000000000003 32.8 C 212.20000000000005 30.599999999999998 212.80000000000004 28.199999999999996 212.80000000000004 25.999999999999996 C 212.80000000000004 25.799999999999997 212.80000000000004 25.699999999999996 212.80000000000004 25.499999999999996 C 213.10000000000005 26.299999999999997 213.80000000000004 26.899999999999995 214.80000000000004 26.899999999999995 C 216.00000000000003 26.899999999999995 216.90000000000003 25.999999999999996 216.90000000000003 24.799999999999994 C 216.90000000000003 20.999999999999993 215.30000000000004 17.599999999999994 212.70000000000005 15.099999999999994 C 214.20000000000005 16.199999999999996 216.60000000000005 17.399999999999995 218.50000000000006 15.699999999999994 C 220.90000000000006 13.599999999999994 217.70000000000005 10.199999999999994 216.70000000000005 9.199999999999994 C 221.10000000000005 12.999999999999993 224.00000000000006 18.499999999999993 224.00000000000006 24.699999999999996 C 223.9 34.3 217.1 42.6 207.8 44.8 z M 106.5 10 C 104.4 10.9 102 11.2 101.4 11.2 C 101.60000000000001 11.2 101.9 11.2 102.10000000000001 11.2 C 107.60000000000001 11.2 112.50000000000001 14.299999999999999 114.7 18.9 C 116.5 17.4 118.4 15.999999999999998 120.4 14.7 C 116.7 8.2 109.7 4.1 102.10000000000001 4.1 L 101.9 4.1 C 110.3 4.6 108.8 8.9 106.5 10 z M 97.2 44.8 C 97.9 42.5 98.9 40.199999999999996 99.9 38 C 97.60000000000001 37 95.60000000000001 35.2 94.10000000000001 32.8 C 92.80000000000001 30.599999999999998 92.2 28.199999999999996 92.2 25.999999999999996 C 92.2 25.799999999999997 92.2 25.699999999999996 92.2 25.499999999999996 C 91.9 26.299999999999997 91.2 26.899999999999995 90.2 26.899999999999995 C 89 26.899999999999995 88.10000000000001 25.999999999999996 88.10000000000001 24.799999999999994 C 88.10000000000001 24.199999999999992 88.10000000000001 23.499999999999993 88.2 22.899999999999995 C 87.10000000000001 27.599999999999994 91.10000000000001 32.49999999999999 86.7 33.599999999999994 C 83.10000000000001 34.49999999999999 81.8 29.799999999999994 81.4 27.999999999999993 C 82.7 36.1 89 42.8 97.2 44.8 z M 219.1 145.1 C 219.1 145.1 207.79999999999998 130.1 205.7 127.3 C 205.7 127.3 205.6 127.2 205.6 127.2 C 205.5 127 205.4 126.9 205.29999999999998 126.9 C 205.29999999999998 126.9 205.29999999999998 126.9 205.29999999999998 126.9 C 204.89999999999998 126.2 204.89999999999998 125.2 205.49999999999997 124.5 C 208.59999999999997 120.8 211.19999999999996 116.8 213.19999999999996 112.6 L 213.19999999999996 112.6 C 216.19999999999996 106.1 217.79999999999995 99.19999999999999 217.79999999999995 92.1 C 217.79999999999995 83.3 215.29999999999995 74.39999999999999 210.49999999999994 66.6 C 208.09999999999994 62.699999999999996 206.49999999999994 58.199999999999996 205.89999999999995 53.8 C 205.59999999999994 51.8 205.19999999999996 49.699999999999996 204.59999999999994 47.599999999999994 C 202.19999999999993 38.89999999999999 197.39999999999995 30.999999999999993 190.69999999999993 24.599999999999994 L 189.89999999999992 23.799999999999994 L 189.89999999999992 23.799999999999994 L 189.89999999999992 23.799999999999994 C 187.19999999999993 21.299999999999994 184.0999999999999 18.999999999999993 180.89999999999992 17.099999999999994 C 180.89999999999992 17.099999999999994 180.79999999999993 17.099999999999994 180.79999999999993 16.999999999999993 C 172.39999999999992 11.999999999999993 162.69999999999993 9.399999999999993 152.69999999999993 9.399999999999993 C 150.29999999999993 9.399999999999993 147.89999999999992 9.599999999999993 145.59999999999994 9.799999999999994 C 145.59999999999994 9.799999999999994 145.59999999999994 9.799999999999994 145.59999999999994 9.799999999999994 C 146.59999999999994 10.299999999999994 206.49999999999994 14.999999999999993 180.59999999999994 72.6 C 183.19999999999993 75.8 188.99999999999994 85.39999999999999 183.09999999999994 102.8 C 175.59999999999994 124.69999999999999 137.79999999999995 122.3 125.79999999999994 119.8 C 125.79999999999994 119.8 130.29999999999995 130.5 152.69999999999993 130.5 C 175.09999999999994 130.5 200.79999999999993 144.7 197.89999999999992 187.3 C 194.89999999999992 229.9 160.0999999999999 229.9 145.69999999999993 229.60000000000002 C 131.19999999999993 229.3 70.19999999999993 233.60000000000002 47.69999999999993 248.60000000000002 C 47.69999999999993 248.60000000000002 38.09999999999993 213.20000000000002 29.799999999999933 210.3 C 18.299999999999933 206.4 21.299999999999933 218.4 24.099999999999934 230.70000000000002 C 24.099999999999934 230.8 24.099999999999934 230.8 24.099999999999934 230.9 C 24.399999999999935 232 24.699999999999935 233.20000000000002 24.999999999999932 234.4 C 29.09999999999993 249.70000000000002 33.09999999999993 257.8 38.09999999999993 260.6 C 40.99999999999993 262.3 44.59999999999993 262.40000000000003 49.69999999999993 261 C 70.09999999999994 254.8 91.59999999999994 250.4 113.49999999999993 247.7 C 113.59999999999992 247.7 113.69999999999993 247.7 113.79999999999993 247.7 L 192.29999999999993 247.7 C 192.39999999999992 247.7 192.49999999999991 247.7 192.59999999999994 247.7 C 214.59999999999994 250.39999999999998 236.09999999999994 254.89999999999998 256.3999999999999 261 C 261.49999999999994 262.4 264.99999999999994 262.3 267.99999999999994 260.6 C 272.99999999999994 257.8 277.09999999999997 249.70000000000002 281.09999999999997 234.40000000000003 C 283.99999999999994 223.50000000000003 285.49999999999994 215.80000000000004 285.7 210.30000000000004 C 285.3 206.60000000000005 283.8 202.20000000000005 278.8 203.20000000000005 C 270.40000000000003 204.80000000000004 256 226.90000000000003 256 226.90000000000003 L 233.8 221.30000000000004 C 233.60000000000002 221.30000000000004 233.5 221.20000000000005 233.3 221.20000000000005 C 232.20000000000002 220.80000000000004 231.70000000000002 219.60000000000005 232.10000000000002 218.50000000000006 C 234.90000000000003 211.20000000000005 236.50000000000003 203.80000000000007 236.8 196.60000000000005 L 236.8 196.50000000000006 C 237.20000000000002 186.70000000000005 235.3 177.30000000000007 231.20000000000002 168.60000000000005 C 231.20000000000002 168.60000000000005 231.20000000000002 168.60000000000005 231.20000000000002 168.60000000000005 L 231.00000000000003 168.20000000000005 C 229.80000000000004 165.70000000000005 228.40000000000003 163.20000000000005 226.80000000000004 160.90000000000003 C 223.90000000000003 156.50000000000003 221.10000000000005 152.20000000000005 218.50000000000003 147.90000000000003 C 217.8 147 218.1 145.7 219.1 145.1 z M 221.9 145.8 C 224.5 150 227.20000000000002 154.3 230.1 158.70000000000002 C 231.4 160.60000000000002 232.5 162.60000000000002 233.6 164.60000000000002 C 240.7 159.20000000000002 250 151.90000000000003 257.7 145.3 C 270.8 134 281.59999999999997 124.10000000000001 291.59999999999997 111.9 C 297.4 104.80000000000001 297.2 94.80000000000001 290.99999999999994 87.9 C 287.69999999999993 84.2 283.29999999999995 82.10000000000001 278.69999999999993 81.4 C 278.8999999999999 81.7 281.49999999999994 85.30000000000001 280.99999999999994 90.4 C 282.8999999999999 91.2 284.49999999999994 92.5 285.59999999999997 94.30000000000001 C 288.59999999999997 99.30000000000001 286.29999999999995 106.30000000000001 280.4 109.9 C 275.4 112.9 269.5 112.5 266 109.4 C 248.9 123.4 219.1 145.2 219.1 145.2 C 220 144.5 221.3 144.9 221.9 145.8 z M 44.8 172.8 C 52.4 172.9 61 172.70000000000002 68.69999999999999 172.3 C 70.39999999999999 167.60000000000002 72.69999999999999 163 75.6 158.60000000000002 C 78.5 154.20000000000002 81.3 149.90000000000003 83.8 145.70000000000002 C 83.89999999999999 145.50000000000003 84 145.4 84.1 145.3 C 63.99999999999999 152.60000000000002 47.49999999999999 155.10000000000002 34.8 155.3 C 33.599999999999994 160.10000000000002 28.699999999999996 163.70000000000002 22.799999999999997 163.70000000000002 C 15.899999999999997 163.8 10.199999999999998 159.10000000000002 10.099999999999998 153.3 C 10.099999999999998 153.10000000000002 10.099999999999998 152.9 10.099999999999998 152.70000000000002 L 10.099999999999998 152.70000000000002 C 6.6999999999999975 151.8 4.6999999999999975 151.00000000000003 4.299999999999998 150.8 C 4.299999999999998 151 4.299999999999998 151.3 4.199999999999998 151.5 C 3.7999999999999985 159.9 8.899999999999999 169.3 21.4 171.2 C 30 172.5 37.7 172.7 44.8 172.8 z" stroke-linecap="round" />
</g>
		<g transform="matrix(1 0 0 1 -2.1289689418898092 2.041527272318689)" id="path-04"  >
<path style="stroke: none; stroke-width: 1; stroke-dasharray: none; stroke-linecap: butt; stroke-dashoffset: 0; stroke-linejoin: miter; stroke-miterlimit: 4; fill: rgb(255,242,204); fill-rule: nonzero; opacity: 1;"  paint-order="stroke"  transform=" translate(-147.82280526288793, -135.27822172198702)" d="M 141.7 107.9 C 142.7 107.80000000000001 143.6 107.60000000000001 144.5 107.5 C 147 108.3 149.7 108.7 152.5 108.7 C 164.9 108.7 175 100.2 175 89.6 C 175 83.69999999999999 171.8 78.19999999999999 166.2 74.5 C 162.5 72.1 158.2 70.7 153.5 70.5 C 153.2 69.9 152.9 69.4 152.7 69.1 L 152.39999999999998 69.1 C 146.89999999999998 69.1 141.89999999999998 70.69999999999999 137.89999999999998 73.3 C 132.2 77 128.49999999999997 82.89999999999999 128.49999999999997 89.5 C 128.6 97.6 134 104.5 141.7 107.9 z M 166.3 89.3 C 166.70000000000002 89.3 167.10000000000002 89.39999999999999 167.5 89.5 C 169.3 90.2 170.2 92.2 169.6 94 C 167.29999999999998 100.3 160.4 104.5 152.5 104.5 L 152.3 104.5 C 153 104 153.70000000000002 103.5 154.20000000000002 103 C 153.60000000000002 103.1 153.00000000000003 103.1 152.4 103.1 C 151.20000000000002 103.1 150.3 102.19999999999999 150.3 101 C 150.3 99.8 151.20000000000002 98.9 152.4 98.9 C 154.3 98.9 156.1 98.60000000000001 157.70000000000002 98 C 157.9 97.4 158.10000000000002 96.9 158.3 96.3 C 160.5 95.3 162.20000000000002 93.6 162.9 91.7 C 163.5 90.2 164.9 89.3 166.3 89.3 z M 152.5 75.8 C 153.7 75.8 154.9 75.89999999999999 156 76.1 C 155.8 75.6 155.6 75.1 155.4 74.6 C 161.5 75.39999999999999 165.9 78.8 165.9 83 C 165.9 86.3 163.20000000000002 89 159.1 90.5 C 159.1 90 159.1 89.5 159 89 C 157.1 89.7 154.9 90.2 152.4 90.2 C 145.8 90.2 140.4 87 140.4 83 C 140.5 79.1 145.9 75.8 152.5 75.8 z M 36.9 233.6 C 40.3 243.9 41.199999999999996 252.9 38.9 253.7 C 36.6 254.5 31.9 246.7 28.5 236.39999999999998 C 25.1 226.09999999999997 24.2 217.09999999999997 26.5 216.29999999999998 C 28.8 215.5 33.5 223.2 36.9 233.6 z M 212.8 25.4 C 212.8 25.599999999999998 212.8 25.7 212.8 25.9 C 212.8 28.2 212.20000000000002 30.5 210.9 32.699999999999996 C 210.4 33.49999999999999 209.8 34.3 209.20000000000002 34.9 C 209.00000000000003 34.4 208.8 33.9 208.60000000000002 33.5 C 207.8 34.5 206.8 35.3 205.70000000000002 36 C 203.00000000000003 30.6 199.4 25.7 195.20000000000002 21.4 C 195.70000000000002 20.4 196.4 19.4 197.3 18.7 L 197.3 18.7 C 198.5 17.8 199.8 17.2 201.20000000000002 17 L 201.3 17 C 201.9 16.9 202.5 16.8 203 16.8 C 204.6 16.8 206.1 17.2 207.4 18 C 209.3 19.2 210.6 21.2 211.1 23.6 C 212.2 24.5 212.8 25.4 212.8 25.4 z M 275.7 236.3 C 272.3 246.60000000000002 267.59999999999997 254.4 265.3 253.60000000000002 C 263 252.8 263.90000000000003 243.8 267.3 233.50000000000003 C 270.7 223.20000000000002 275.40000000000003 215.40000000000003 277.7 216.20000000000002 C 280 217 279.1 226 275.7 236.3 z M 285 102.2 C 284.1 104.8 282.2 107.10000000000001 279.6 108.7 C 277.6 109.9 275.40000000000003 110.60000000000001 273.1 110.60000000000001 C 270.70000000000005 110.60000000000001 268.6 109.80000000000001 267 108.50000000000001 C 266.6 108.80000000000001 266.3 109.10000000000001 265.9 109.40000000000002 C 265.2 108.80000000000003 264.59999999999997 108.10000000000002 264.09999999999997 107.30000000000003 C 261.09999999999997 102.30000000000003 263.4 95.30000000000003 269.29999999999995 91.70000000000003 C 273.09999999999997 89.40000000000003 277.49999999999994 89.10000000000004 280.9 90.50000000000003 C 280.9 91.00000000000003 280.79999999999995 91.50000000000003 280.7 92.00000000000003 C 282.2 92.70000000000003 283.5 93.80000000000003 284.3 95.10000000000002 C 285.7 97.2 285.9 99.7 285 102.2 z M 109.8 21.4 C 105.5 25.7 102 30.599999999999998 99.3 36 C 98.39999999999999 35.5 97.6 34.8 96.89999999999999 34 C 96.69999999999999 34.4 96.49999999999999 34.9 96.39999999999999 35.5 C 95.6 34.7 94.8 33.8 94.19999999999999 32.7 C 92.89999999999999 30.500000000000004 92.29999999999998 28.1 92.29999999999998 25.900000000000002 C 92.29999999999998 22.8 93.39999999999998 20 95.39999999999998 18 C 95.39999999999998 18 96.39999999999998 17.8 97.59999999999998 18 C 97.59999999999998 18 97.59999999999998 18 97.59999999999998 18 C 98.89999999999998 17.2 100.39999999999998 16.8 101.89999999999998 16.8 C 102.49999999999997 16.8 103.09999999999998 16.900000000000002 103.69999999999997 17 L 103.89999999999998 17 C 105.29999999999998 17.3 106.59999999999998 17.9 107.79999999999998 18.8 C 108.6 19.4 109.4 20.4 109.8 21.4 z M 30.6 159.6 C 28.5 161.4 25.700000000000003 162.5 22.700000000000003 162.5 L 22.500000000000004 162.5 C 16.500000000000004 162.5 11.600000000000003 158.4 11.500000000000004 153.4 L 11.500000000000004 153.20000000000002 C 11.000000000000004 153.10000000000002 10.500000000000004 153.00000000000003 10.100000000000003 152.9 C 10.400000000000004 147.3 15.700000000000003 142.70000000000002 22.400000000000006 142.6 C 29.300000000000004 142.5 35.00000000000001 147.2 35.10000000000001 153 C 35.10000000000001 153.8 35.00000000000001 154.6 34.80000000000001 155.4 C 34.30000000000001 155.4 33.80000000000001 155.4 33.30000000000001 155.4 C 32.9 157 31.9 158.5 30.6 159.6 z M 186.4 179.5 C 186.4 199.6 171.3 216 152.60000000000002 216 C 139.60000000000002 216 128.3 208 122.70000000000002 196.4 C 121.50000000000001 195.20000000000002 120.40000000000002 193.9 119.60000000000002 192.5 C 119.60000000000002 192.5 119.60000000000002 192.5 119.60000000000002 192.5 C 118.20000000000002 188.5 117.50000000000003 184.1 117.50000000000003 179.6 C 117.50000000000003 159.7 131.80000000000004 143.39999999999998 149.90000000000003 141.89999999999998 C 150.40000000000003 142.29999999999998 151.00000000000003 142.7 151.60000000000002 143.2 C 151.90000000000003 143.2 152.3 143.2 152.60000000000002 143.2 C 171.2 143 186.4 159.4 186.4 179.5 z" stroke-linecap="round" />
</g>
		<g transform="matrix(1 0 0 1 -1.4047549074029462 -16.88981351093139)" id="path-03"  >
<path style="stroke: none; stroke-width: 1; stroke-dasharray: none; stroke-linecap: butt; stroke-dashoffset: 0; stroke-linejoin: miter; stroke-miterlimit: 4; fill: rgb(221,194,127); fill-rule: nonzero; opacity: 1;"  paint-order="stroke"  transform=" translate(-148.5470192973748, -116.34688093873694)" d="M 280.4 109.9 C 275.4 112.9 269.5 112.5 266 109.4 C 270.6 105.60000000000001 274.3 102.4 276.3 100.30000000000001 C 279.6 96.80000000000001 280.90000000000003 93.4 281.1 90.4 C 283 91.2 284.6 92.5 285.70000000000005 94.30000000000001 C 288.7 99.4 286.3 106.4 280.4 109.9 z M 10.1 152.9 C 10.1 153.1 10.1 153.3 10.1 153.5 C 10.2 159.4 15.899999999999999 164.1 22.799999999999997 163.9 C 28.699999999999996 163.8 33.699999999999996 160.20000000000002 34.8 155.5 C 23.4 155.7 15.1 154.2 10.1 152.9 z M 154.3 103 C 151.60000000000002 105.4 147.60000000000002 107.2 141.70000000000002 107.9 C 144.9 109.30000000000001 148.60000000000002 110.10000000000001 152.50000000000003 110.10000000000001 C 165.70000000000002 110.10000000000001 176.40000000000003 100.9 176.40000000000003 89.60000000000001 C 176.40000000000003 83.00000000000001 172.70000000000005 77.10000000000001 167.00000000000003 73.4 C 163.10000000000002 70.80000000000001 158.10000000000002 69.2 152.80000000000004 69.2 C 153.40000000000003 70.3 154.70000000000005 72.9 156.00000000000003 76.2 C 160.90000000000003 77.10000000000001 164.50000000000003 79.8 164.50000000000003 83.10000000000001 C 164.50000000000003 85.60000000000001 162.30000000000004 87.80000000000001 159.10000000000002 89.10000000000001 C 159.3 92.2 159.00000000000003 95.30000000000001 157.90000000000003 98.00000000000001 C 161.00000000000003 96.90000000000002 163.40000000000003 94.80000000000001 164.40000000000003 92.10000000000001 C 164.80000000000004 91.00000000000001 166.00000000000003 90.50000000000001 167.10000000000002 90.9 C 168.20000000000002 91.30000000000001 168.70000000000002 92.5 168.3 93.60000000000001 C 166.4 98.8 160.9 102.4 154.3 103 z M 152.6 141.6 C 151.7 141.6 150.79999999999998 141.6 149.9 141.7 C 156.9 146.7 166.8 158 161.4 180.7 C 154.3 210.5 127.7 205.89999999999998 119.60000000000001 192.39999999999998 C 124.50000000000001 206.89999999999998 137.5 217.39999999999998 152.70000000000002 217.39999999999998 C 172.10000000000002 217.39999999999998 187.90000000000003 200.39999999999998 187.90000000000003 179.49999999999997 C 187.8 158.6 172 141.6 152.6 141.6 z M 208.2 16.8 C 206 15.4 203.5 15.100000000000001 201.1 15.5 C 201.1 15.5 201 15.5 201 15.5 C 199.4 15.8 197.9 16.5 196.5 17.6 C 196.5 17.6 196.5 17.6 196.5 17.6 C 195.2 18.700000000000003 194.2 20.1 193.6 21.8 C 198.29999999999998 26.4 202.29999999999998 31.9 205.2 38 C 206.7 37.3 208.1 36.3 209.29999999999998 35 C 207.1 29.3 202.29999999999998 26 204.29999999999998 22.9 C 207.6 17.9 212.89999999999998 25.5 212.89999999999998 25.5 C 212.7 21.9 211.1 18.6 208.2 16.8 z M 108.6 17.6 C 108.6 17.6 108.6 17.6 108.6 17.6 C 107.19999999999999 16.6 105.6 15.900000000000002 104.1 15.500000000000002 C 104.1 15.500000000000002 104 15.500000000000002 104 15.500000000000002 C 101.6 15.000000000000002 99 15.400000000000002 96.9 16.8 C 96.4 17.1 95.9 17.5 95.4 18 C 95.4 18 102.2 16.8 102.60000000000001 23.9 C 102.9 29.799999999999997 98.2 29.299999999999997 96.4 35.599999999999994 C 97.5 36.599999999999994 98.7 37.49999999999999 100 37.99999999999999 C 102.9 31.89999999999999 106.8 26.39999999999999 111.6 21.799999999999994 C 110.9 20.1 109.9 18.7 108.6 17.6 z" stroke-linecap="round" />
</g>
		<g transform="matrix(1 0 0 1 -4.301774204777729 -16.28669444966833)" id="path-02"  >
<path style="stroke: none; stroke-width: 1; stroke-dasharray: none; stroke-linecap: butt; stroke-dashoffset: 0; stroke-linejoin: miter; stroke-miterlimit: 4; fill: rgb(216,147,96); fill-rule: nonzero; opacity: 1;"  paint-order="stroke"  transform=" translate(-145.65, -116.95)" d="M 146.7 14.5 C 124.69999999999999 23.9 117.29999999999998 38.8 114.89999999999999 48.8 C 113.3 55.599999999999994 110.19999999999999 61.9 106.39999999999999 67.8 C 87.69999999999999 96.9 105.1 124.19999999999999 105.1 124.19999999999999 C 80 100.1 94.9 72.6 99.7 63.5 C 101.8 59.6 103.4 55.5 104.4 51.2 C 111.9 19.6 146.7 14.5 146.7 14.5 z M 40.2 134 C 40.2 134 59.900000000000006 138 93.6 128.8 L 89.19999999999999 123.60000000000001 C 89.2 123.5 64.4 131 40.2 134 z M 257.4 94.9 C 247.89999999999998 102.30000000000001 219.89999999999998 118.30000000000001 219.89999999999998 118.30000000000001 L 213.2 130 C 233 119.5 257.4 94.9 257.4 94.9 z M 78.8 219.4 C 78.8 219.4 78.3 177.10000000000002 93.7 148.7 C 93.6 148.7 63.2 179.2 78.8 219.4 z M 41.8 209.5 C 41.8 209.5 35.699999999999996 201.9 28.199999999999996 201.8 C 28.199999999999996 201.8 37 208.20000000000002 40.599999999999994 219.4 L 64.89999999999999 213.20000000000002 C 64.89999999999999 213.20000000000002 62.39999999999999 209.00000000000003 62.39999999999999 205.60000000000002 L 41.8 209.5 z M 263.1 209.6 C 263.1 209.6 250.8 204.4 242.90000000000003 202.79999999999998 C 242.90000000000003 202.79999999999998 243.00000000000003 204.79999999999998 241.60000000000002 210.49999999999997 L 263.1 209.6 z" stroke-linecap="round" />
</g>
		<g transform="matrix(1 0 0 1 0.6482257952222881 -61.4891889217068)" id="path-01"  >
<path style="stroke: none; stroke-width: 1; stroke-dasharray: none; stroke-linecap: butt; stroke-dashoffset: 0; stroke-linejoin: miter; stroke-miterlimit: 4; fill: rgb(255,255,255); fill-rule: nonzero; opacity: 1;"  paint-order="stroke"  transform=" translate(-150.60000000000002, -71.74750552796154)" d="M 157.2 80.3 C 157.1 80.6 156.89999999999998 80.7 156.6 80.7 C 154.4 80.9 152.2 81 150.2 81.4 C 148.6 81.80000000000001 146.2 82.10000000000001 145.29999999999998 83.4 C 145.1 84.10000000000001 144.1 84.2 143.89999999999998 83.4 C 143.7 80.4 147.39999999999998 79.10000000000001 149.7 78.60000000000001 C 152.1 78.2 154.6 78.4 156.79999999999998 79.30000000000001 C 157.2 79.6 157.4 80 157.2 80.3 z M 129.4 60.2 C 128.4 61 128.1 62.2 128.70000000000002 62.900000000000006 C 129.3 63.60000000000001 130.50000000000003 63.50000000000001 131.50000000000003 62.7 C 132.50000000000003 61.900000000000006 132.80000000000004 60.7 132.20000000000002 60 C 131.7 59.3 130.4 59.4 129.4 60.2 z M 172.5 60 C 171.9 59.3 170.7 59.4 169.7 60.2 C 168.7 61 168.39999999999998 62.2 169 62.900000000000006 C 169.6 63.60000000000001 170.8 63.50000000000001 171.8 62.7 C 172.8 61.9 173.1 60.7 172.5 60 z" stroke-linecap="round" />
</g>
</g>
</g>
</svg>