<svg id="ezmjx5vqZfL1" xmlns="http://www.w3.org/2000/svg" xmlns:xlink="http://www.w3.org/1999/xlink" viewBox="40 40 1050 950" shape-rendering="geometricPrecision" text-rendering="geometricPrecision"><path d="M246.27508,279.94888c32.11057-32.11057,58.89818-71.02705,95.5605-99.54219c16.28084-12.66288,37.13385-17.77344,55.74362-25.21735c102.20963-40.88386,229.12769-88.64293,339.77066-51.76194c40.1804,13.39347,102.34008,9.40216,138.03183,37.16242c87.41975,67.99314,143.76014,229.3344,152.63135,335.78897c2.84431,34.13172-5.92696,68.56018-9.2906,102.19664-4.42304,44.23038,10.19108,88.53599-9.2906,131.39569-19.66684,43.26704-66.76405,74.89997-94.23327,114.14171-16.03323,22.90462-19.61534,52.8327-41.1441,71.67037-39.64406,34.68855-86.41667,43.21682-136.7046,58.39808-107.55619,32.46979-157.92203-4.23984-253.50077-42.47133-42.01483-16.80593-89.01775-22.23011-127.414-49.10748-21.96866-15.37806-56.38323-91.05108-76.97929-116.79616-26.94359-33.67948-62.7408-62.11226-80.96098-102.19664-21.49511-47.28925-11.45008-182.14583-2.65446-234.91956c6.94622-41.6773,24.93778-94.745329,50.43471-128.741229" transform="translate(-1.83029 0.6932)" fill="#2d335a" stroke="#3f5787" stroke-width="2.602"/><path style="mix-blend-mode:hue" d="M200.63251,59.19755c11.24666-2.24933,22.21247-8.48942,33.95766-8.48942c33.2786,0,54.73801,11.56215,84.89414,19.10118c11.75466,2.93867,26.62733,5.5242,36.08001,13.7953c7.62327,6.67036,10.08073,20.95741,14.85647,29.71295c39.33432,72.11292,10.62585,93.36948-41.3859,145.38122-25.78827,25.78827-80.032172,19.123489-78.52708,61.54826.883539,24.904755-72.872897,53.996013-93.436907,35.716885-9.40547-8.360424-83.517474-57.053036-79.534913-123.794565c2.660203-44.580872,8.06065-97.60585,44.56943-124.15769c14.03003-10.20366,29.8795-15.59311,44.56943-24.40707c10.73805-6.44283,20.0306-24.40705,33.95766-24.40705" transform="translate(21.694876 5.772733)" opacity="0.5" fill="#505055" stroke-width="2.602"/><path d="M975.527039,268.469421c-5.951233,15.373139-16.973816,22.63321-33.048279,22.337525-7.604004-.139923-13.448792-3.894165-19.000611-9.104737-1.022155-1.140625-1.741394-2.106292-2.225402-3.515869c1.141418-.858307,2.00946-1.423889,2.959716-1.664154c11.238709-2.8414,22.455933-5.780822,33.751282-8.379883c5.940003-1.366821,12.029908-4.002845,18.047852-5.030859-.140442,1.02771-.288697,3.942297-.484558,5.357977Z" transform="translate(0-.102471)" fill="#bdc2df"/><path d="M976.194885,264.649475c-6.209045,1.376892-12.291137,2.126007-18.23114,3.492828-11.295349,2.599061-22.512573,5.538483-33.751282,8.379883-.950256.240265-1.708373,1.65112-2.959716,2.225156-2.328247-4.581757-4.375916-11.1565-5.891297-16.315984c20.543579-3.419648,40.089661-5.820075,60.165589-8.821586.124817,3.434585.73413,7.256225.667846,11.039703Z" fill="#a8a6c7"/><path d="M917.764954,245.685135c5.778503-12.755875,19.177307-19.267731,34.830566-16.7509c4.953125,2.505188,9.493897,5.033905,13.903626,8.082748-15.134095,3.560196-30.130555,6.634247-45.154053,9.569855-1.092896.213577-2.382141-.577637-3.580139-.901703Z" fill="#bdc2df"/><path d="M917.764954,245.685135c1.472718.085556,2.487243,1.11528,3.580139.901703c15.023498-2.935608,29.86499-6.30922,45.154053-9.569855c2.500488,2.543869,4.923706,6.513641,6.78833,9.605423-1.177674.35617-2.085267-.643524-2.883118-.474014-18.622254,3.956192-37.334167,9.306792-55.951477,13.286239.888977-3.968857,2.148438-9.542129,3.312073-13.749496Z" fill="#a8a6c7"/><path d="M914.452881,258.417542c18.713074-4.328263,37.329223-8.312958,55.951477-12.26915.797851-.16951,1.220774.025787,2.452281,0c1.192932,2.393936,1.904775,4.737186,2.6704,7.515125-20.099487,3.38855-39.667359,6.33633-60.165589,9.345455-.616272-1.40918-.810303-2.825897-.908569-4.59143Z" transform="translate(0-.053745)" fill="#bdc2df"/><path d="M808.542358,474.819763c4.58722-.084991,8.712403-.084991,13.295899-.084991c0,21.39682,0,42.273834,0,63.646332c4.504516,0,8.577392,0,12.936096,0c0,9.36975,0,18.24414,0,27.549682-4.118347,0-8.199158,0-12.674255,0c0,5.994446,0,11.582337,0,17.821472-3.664185,0-6.934876,0-10.653199.108277-7.226806.108276-14.006042.108276-21.240356.108276c0-6.298523,0-11.870056,0-17.890686-17.011414,0-33.565674,0-50.506104,0c0-9.088074-.08551-17.722473.079834-26.352051.029419-1.533935.915711-3.154785,1.720398-4.555053c10.834168-18.852723,21.785096-37.638794,32.533997-56.539826c1.598022-2.809936,3.303101-3.889007,6.590393-3.796539c9.145142.257324,18.302612.077362,27.917297-.014893M789.999817,512.62207c0-2.847992,0-5.695984,0-8.543945-.300171-.014191-.600342-.028351-.900452-.042511-6.451172,11.246613-12.902282,22.493256-19.62146,34.207184c7.326599,0,13.747315,0,20.521851,0c0-8.387085,0-16.521668.000061-25.620728Z" fill="#f6f9fc"/><path d="M700.163513,617.705811c-7.584778,6.673645-14.531067,13.733276-22.514892,19.306701-16.955628,11.83667-35.678528,19.762268-56.463623,22.040894-7.081116.776306-14.190247,1.296509-21.669129,1.586487c1.467346-2.364808,4.651611-4.234864,4.894592-6.430359.538514-4.866761,1.592347-8.273133,7.107544-8.813416.569214-.055725.997132-1.553345,1.92511-2.384826c4.225647-.438843,8.087281-.552125,11.796814-1.362061c27.344483-5.970581,50.078613-19.620911,67.288635-41.777161c21.441407-27.603882,28.726258-59.041015,21.954834-93.083526-4.993835-25.106079-17.556396-46.373261-37.311889-63.253784-21.144531-18.067414-45.570008-26.878479-73.140503-27.966156.002441-5.797333-.017334-11.177094-.03711-16.556824c24.169434.191742,46.591614,6.438965,67.102051,19.336151c4.047425,2.545105,8.130921,5.032867,12.54541,7.608307c4.420838,3.957367,8.6474,7.706787,12.541565,11.774383c19.521241,20.39029,31.793457,44.271424,36.03418,72.434357c4.346252,28.863647-.443909,56.03772-13.977356,81.547485-4.85852,9.157959-11.875793,17.170655-18.076233,25.993348Z" fill="#2e3f64"/><path d="M780.965576,862.004944c4.525025-5.56543,9.153809-6.948731,14.045716-4.469177c4.007019,2.031066,6.409606,6.908935,5.55603,11.280151-1.227722,6.287109-6.859558,9.798218-13.098877,8.166321-6.289978-1.645203-8.862732-7.2948-6.502869-14.977295Z" fill="#f1337f"/><path d="M764.047607,300.410095c-1.710815,4.643799-4.792724,6.281067-9.150085,4.858826-3.455017-1.127686-5.277161-5.165192-3.982727-8.559876c1.36792-3.587371,4.158752-5.260406,7.897827-4.452545c4.032654.871247,5.642639,3.7659,5.234985,8.153595Z" fill="#a8a6c7"/><path d="M868.363647,420.656372c-2.774536-3.505127-2.911499-7.182281.215088-9.496674c1.944825-1.439575,5.970032-2.069,7.886475-.984863c1.92218,1.087464,3.434814,4.825806,3.2677,7.275452-.340942,4.997711-5.777466,6.467865-11.369263,3.206085Z" fill="#f6f9fc"/><path d="M891.425903,817.40564c-5.106384-2.332276-6.732177-5.474732-5.17633-9.37555c1.319641-3.308593,5.22052-5.079406,8.683471-3.755005c3.642762,1.393128,5.083191,4.261902,4.241028,7.963257-.858154,3.772095-3.584106,5.379639-7.748169,5.167298Z" fill="#a8a6c7"/><path d="M233.407654,389.455872c-3.74321-10.796235-.638382-20.519288,8.071823-26.16977c7.927032-5.142425,19.055954-4.063415,25.825638,2.503937c7.32608,7.107117,8.932983,17.416687,3.796875,25.969147-4.175385,6.952667-10.496002,10.658264-18.62204,10.444275-8.709213-.22934-15.135193-4.407746-19.072296-12.747589Z" fill="#f1337f"/><path d="M315.622192,483.841949c-6.536316-.395416-10.264984-4.759613-7.642669-9.119415c1.270874-2.112945,4.643219-4.164337,6.978241-4.071991c2.037719.080597,4.914337,2.860504,5.711242,5.065491c1.355164,3.749512-.746002,6.718292-5.046814,8.125915Z" fill="#a8a6c7"/><path d="M453.509644,475.01001c.463104,21.024658.463104,41.985412.463104,63.457886c4.502411,0,8.587402,0,12.876465,0c0,9.288269,0,18.06665,0,27.293945-4.021729,0-8.098511,0-12.965943,0c0,6.020874,0,11.609314-.104278,17.646728-10.390503.448975-20.676697.448975-31.440399.448975c0-6.133728,0-11.707031,0-17.713257-17.05066,0-33.62909,0-50.635285,0c0-9.234436-.073761-18.035278.076996-26.832153.023529-1.371399.933807-2.804138,1.665527-4.075318c10.938355-19.002868,21.957733-37.95935,32.831604-56.998962c1.399872-2.451141,2.923737-3.426483,5.816956-3.389435c13.648895.174896,27.301147.089997,41.415253.161591m-45.719696,63.483459c4.627868,0,9.255767,0,13.868316,0c0-11.781677,0-23.052917,0-35.342987-6.981415,12.126984-13.41568,23.30362-20.197174,35.083344c2.235413.106994,3.82785.183166,6.328858.259643Z" fill="#f6f9fc"/><path d="M422.373535,260.262939c-5.408783,3.70691-10.597259,6.961107-16.072784,10.484942-.340119.056457-1.22266.746506-1.22266.746506c2.02008-2.052765,4.864261-4.706301,7.038852-6.579714c7.14328-6.154144,14.438901-12.772415,21.966214-19.229538c1.919006-2.614593,3.19858-4.739609,5.089328-7.174744c3.221038-2.02533,6.375489-2.12561,8.658875,1.143814c2.120941,3.036774,2.505276,6.693974-.54755,8.70377-3.950225.742098-6.677907.153516-9.48956,2.602535-4.832794,3.104523-10.314544,5.958405-15.420715,9.302429Z" transform="translate(-.023316 0.000013)" fill="#a8a6c7"/><path d="M437.371704,250.96051c1.586975-3.480591,5.238342-4.03144,9.103363-3.267875c1.519013,1.309357,1.724518,2.24636,2.919556,2.984214c5.752807,3.551865,12.068328,2.920197,18.625793,2.932924.144989.659667,1.134251,1.905379.996067,2.575835-1.512604,1.344848-3.24982,2.188355-5.026676,3.338013-3.143768.230377-6.287506.371795-8.989319.513183-6.598968-1.368072-12.660858-3.795105-17.628784-9.076294Z" fill="#cadaeb"/><path d="M463.989807,259.434631c1.334931-1.060638,1.044614-5.903204,3.555966-5.455947c1.283539.888366,3.69344,3.483444,4.560993,4.438858-5.919922,6.720368-12.51738,14.008026-18.639237,21.019897-5.430847,5.749542-10.659729,11.20755-16.209167,16.588898-.320526-.07666-1.121677.682708-1.121677.682708c6.357971-8.244507,13.563663-17.221313,20.341373-25.961151c2.783722-4.101288,5.147735-7.707275,7.511749-11.313263Z" transform="translate(.0481 0)" fill="#a8a6c7"/><path d="M391.551697,737.616333c3.633575-1.52063,6.983459-1.200073,8.686554,1.920959c1.09433,2.005433,1.464538,5.454468.431762,7.278077-1.039337,1.835144-4.254516,3.414917-6.446319,3.328674-1.950989-.076843-4.512421-2.203857-5.543396-4.108704-1.679566-3.103027-.43161-6.14093,2.871399-8.419006Z" fill="#a8a6c7"/><path d="M463.547852,259.523621c-1.922059,3.516998-4.286072,7.122985-6.943451,10.929229-.730378-3.040283-1.167389-6.280883-1.604157-9.96878c2.702057-.588654,5.40387-.730042,8.547608-.960449Z" fill="#2c3b5b"/><path d="M580.418457,659.013062c-8.761108-2.636719-17.179871-5.026917-25.428955-7.903809-15.7547-5.494568-29.133728-14.881958-41.403992-25.992371-1.210388-1.095886-2.591888-2.002868-4.22937-3.062317-4.502197-5.387085-8.921478-10.532714-12.791168-16.062866-15.099396-21.578064-24.204529-45.208252-24.614502-71.902282-.398224-25.928162,5.524506-50.118653,19.137085-72.242188c16.068573-26.115112,38.526764-44.494019,67.452789-54.871246c2.022583-.725586,3.979981-1.633026,6.213074-2.707306c12.951843-1.921753,25.658203-3.592133,38.802551-5.259705.457703,5.382538.477478,10.762299.012085,16.564575-9.514221,1.75412-18.543274,3.085724-27.985657,4.421784-2.36499.359192-4.394531.48114-6.256408,1.104339-20.226929,6.770234-37.791016,17.479676-51.891846,33.840424-24.730469,28.693909-33.450592,61.796906-25.845337,98.479095c6.656311,32.105286,24.805908,57.116578,53.016113,74.15387c9.935364,6.000427,20.498291,11.159607,32.689026,12.666931c11.920288,3.60437,23.823304,3.108155,35.714722,2.774292-.49353.828491-.921448,2.326111-1.490662,2.381836-5.515197.540283-6.56903,3.946655-7.107544,8.813416-.242981,2.195495-3.427246,4.065551-5.34851,6.425354-6.122437-.303589-12.173523-.949341-18.643494-1.621826Z" transform="translate(.204396 0)" fill="#30436c"/><path d="M468.020416,253.978683c-6.451965.260697-12.872986.250031-18.625793-3.301834-1.195038-.737854-2.147003-1.869445-3.259491-3.149566c2.59787-2.369019,3.817169-4.836304,1.696228-7.873078-2.283386-3.269424-5.167542-2.697479-8.658875-.971313-1.1044-2.498871-2.399231-5.015595-2.041381-7.269989.916595-5.774109,2.568176-11.431534,4.293945-17.215103c5.622101-1.877854,6.157287-3.183991,4.012085-8.972779c2.631103-.836105,5.262237-1.672195,8.230682-2.654464c20.764801-1.07927,34.882294,12.593567,33.205231,31.73056-.572876,6.536652-3.650147,11.942612-8.371887,16.939392-5.825623-3.369934-7.94455-2.817566-10.480744,2.738174Z" transform="translate(-.038215 0)" fill="#dfebf6"/><path d="M466.849213,253.978685c2.430694-5.829163,6.03714-6.997911,11.651947-3.301836-.318817,3.964249-1.072937,8.70102-6.710846,8.336274-1.228668-.983735-2.664094-1.449303-3.769898-2.62185-.277893-.603378-1.026214-1.752921-1.171203-2.412588Z" fill="#4878db"/><path d="M454.947937,736.910645c-.008545-.19159.211548-.456849.727203-.664063.065064.286438-.199646.463928-.727203.664063Z" fill="#2d3d5e"/><path d="M458.137054,736.353394c-.11087-.08844.357941-.252869.601136-.202515s-.085511.305725-.085511.305725-.404754-.014832-.515625-.10321Z" fill="#2d3d5e"/><path d="M441.409495,214.277283c-1.357666,5.704086-3.361796,11.361511-4.278391,17.13562-.35785,2.254394,1.44556,4.573608,2.257907,7.269989-1.3284,2.536789-3.435703,4.971939-5.359623,7.187378-6.579803-10.10701-5.608968-21.047226.294871-31.592987c1.357178-1.186737,2.218496-.979264,3.469991-1.550263c1.289795.587677,2.628795,1.06897,3.615245,1.550263Z" transform="translate(.015554 0)" fill="#cadaeb"/><path d="M438.410982,212.72702c-1.300015,2.091431-2.486232,2.255498-3.823864,2.255498-10.595825,3.38176-21.126699,6.451701-31.424856,9.638469-2.952179.913544-5.946625,1.690475-9.253784,1.576904c7.904022-3.238083,15.835693-6.410629,23.703277-9.734939c6.317841-2.669495,12.557923-5.522965,19.166016-8.061753.460022,1.561844,1.506655,2.997025,1.633211,4.325821Z" transform="translate(.698837-.152861)" fill="#a8a6c7"/><path d="M437.79425,212.72702c-.429931-1.435165-.556457-2.763977-.694549-4.503143c1.187927-5.164017,5.490517-3.679763,8.920785-2.998855c2.455596,5.884445.912018,7.726781-4.710083,9.604635-1.354553-.40181-2.226358-1.51496-3.516153-2.102637Z" transform="translate(.076431 0)" fill="#4878db"/><path d="M401.498901,273.520325c.01944.028991-.019439-.028961,0,0Z" fill="#a8a6c7"/><path d="M613.443115,643.011292c-12.325866.336853-25.618896,1.167418-37.447387-2.771302c2.328491-3.338257,5.536865-6.549316,4.292114-10.656982-.325257-1.073242,1.191539-3.798022,1.424267-4.385896c1.868042.266175,3.615223,1.010896,5.090564,1.256257c25.565186,4.250733,49.318848-.616699,70.751343-15.098572c24.181091-16.338989,38.104065-39.412597,42.027954-68.262024c1.989929-14.630188.914185-29.151184-4.596985-43.466613-2.019287-4.786499-4.024292-9.198761-6.069763-13.960266-5.993042-8.137299-11.945556-15.925385-18.034973-24.018311-3.620483-3.12323-7.103943-5.941681-10.772705-9.035217-1.131104-.794434-2.077026-1.313782-3.230713-2.094727-.992737-.664703-1.77771-1.067718-2.719177-1.738464-9.808716-4.14737-19.460999-8.027039-29.310608-12.117829-.753906-.265136-1.35749.173722-2.272163.015671-1.096496-.165924-1.787957-.201401-2.849907-.492874-12.710511-2.60434-25.026978-2.111908-37.611695-.239502-.863342-2.258667-2.304321-4.491455-1.839966-6.209198c1.267273-4.687866-.573486-7.500549-4.277587-9.744598c9.029052-1.331574,18.506103-4.539113,27.998168-5.875661c28.055603.665162,52.033082,11.352162,73.177613,29.419576c19.755493,16.880523,32.318054,38.147705,37.311889,63.253784c6.771424,34.042511-.513427,65.479644-21.954834,93.083526-17.210022,22.15625-39.944152,35.80658-67.288635,41.777161-3.709533.809936-7.571167.923218-11.796814,1.362061Z" transform="translate(0-.08023)" fill="#334978"/><path d="M752.410522,731.915222c.234986,2.337219.907959,4.557068.210755,6.192932-.686035,1.609619-2.787232,3.654602-4.220825,3.619141-1.477784-.036499-4.097657-2.351379-4.098206-3.670349-.001221-2.833679,1.360169-5.667969,2.163757-8.502014c1.927491.662414,3.85492,1.324829,5.944519,2.36029Z" transform="translate(126.211885-56.795348)" fill="#2c3b5b"/><path d="M575.582397,419.995331c4.117432,2.239563,5.958191,5.052246,4.690918,9.740112-.464355,1.717743.976624,3.950531,1.521363,6.437714-36.654236,9.820404-61.274475,32.625488-71.422974,68.733276-10.216858,36.350891-.90982,68.814331,25.875733,95.754761c12.620605,12.693603,28.900082,19.548981,45.952572,24.375458-.474854,1.315613-2.237424,3.473114-1.912167,4.546356c1.244751,4.107666.574425,7.927937-2.048011,11.028584-11.988587-.935364-23.699548-7.038106-33.634912-13.038533-28.210205-17.037292-46.359802-42.048584-53.016113-74.15387-7.605255-36.682189,1.114868-69.785186,25.845337-98.479095c14.10083-16.360748,31.664917-27.07019,51.891846-33.840424c1.861877-.623199,3.891418-.745147,6.256408-1.104339Z" transform="translate(.16046 0.08023)" fill="#344c7e"/><path d="M597.585815,729.398438c1.167115,1.894409,2.489136,3.557739,2.651917,5.327758.286438,3.113831.315613,6.708191-4.087036,7.177857-3.413941.364197-4.746643-2.06073-4.916138-4.962281-.203613-3.48468-.468689-7.271423,4.510437-7.88739.477295-.059082.981751.102112,1.84082.344056Z" transform="translate(-74.324777 66.611828)" fill="#2d3d5e"/><path d="M671.961304,735.089478c-.110108,3.348999-.380188,6.469177-4.084595,6.721374-1.452698.098938-4.236755-1.341186-4.308777-2.247681-.247986-3.120666-.533508-6.931762.996094-9.332458c2.126037-3.336914,6.269836-.815125,7.397278,4.858765Z" transform="translate(111.487165-374.428592)" fill="#2d3d5e"/><path d="M654.314087,449.046875c.785034.403046,1.570007.806061,2.632446,1.830536c1.300293,1.084289,2.323303,1.54718,3.346253,2.010071c3.48352,2.81842,6.96698,5.636871,10.58905,9.128296.379456,1.448333.416199,2.389953.891785,2.974304c8.600525,10.567291,9.777282,22.602234,6.836486,35.172027-.927063-.759002-1.515686-1.365356-2.220581-1.768585-4.209961-2.408111-9.522216-1.665253-11.008422,1.495239-1.607911,3.419281.802307,7.282654,5.803222,9.302033.610169.246399,1.220337.492798,1.667969,1.034241-3.742621,13.648293-10.458807,11.767372-18.884039,13.648293-4.281494.95581-7.857177,10.108765-7.696228,14.511782.387146,10.588623-3.285938,15.918354-9.657581,24.395527-4.393006,5.844665-10.925761,5.621965-17.15092,4.836564-26.33641-.120915-42.048401-13.698425-53.95636-33.216735-6.052246-9.920166-2.09872-20.050492,5.18131-28.36757c5.787658-6.612213,12.633117-11.964783,21.368225-13.923737c4.305114-.965515,6.04779-3.203888,6.800842-7.248413c1.18103-6.342895,2.746948-12.614135,4.543945-18.912506c8.556031-1.139648,10.484497-3.5177,8.728272-10.050537c5.197448-2.432037,9.903442-5.287201,15.005981-6.835998c8.252808-2.504975,16.185024-1.765091,24.683864.311051.859741-.265931,1.481567-.152433,2.076599-.574644m15.992101,29.68913c3.441833-2.991303,2.758239-6.537537-.589234-8.128388-3.964355-1.884033-8.660278-2.744293-13.090515-2.951965-2.983337-.139832-3.889221,2.568634-2.541992,5.47348c2.596802,5.599243,8.889221,8.041412,16.221741,5.606873Z" transform="translate(.261449-.442012)" fill="#f8fafd"/><path d="M581.984985,625.690063c-17.445678-4.843872-33.116943-12.335266-45.737548-25.028869-26.785553-26.94043-36.092591-59.40387-25.875733-95.754761c10.148499-36.107788,34.768738-58.912872,71.714539-68.472412c12.611755-2.361786,24.928222-3.373505,37.31195-.505188-3.631591.68573-7.259704,1.035645-10.888244,1.039917-10.063599.011841-19.684754,1.802185-29.063172,5.643585-30.132751,12.342407-48.019165,34.598694-54.167419,66.366211-2.70166,13.959564-1.641785,27.720612,3.768494,41.390289c3.121704,10.469788,9.533364,17.601622,15.688027,26.156309-1.07196,2.507447-3.770059,6.491152-3.503518,8.574404.736572,5.756714,4.683838,9.331238,9.949585,11.437806c4.856567,1.942932,9.56469-.578963,13.903252-4.649459c6.41632,3.460633,12.718025,10.009505,18.815864,13.470137c1.080933,2.023377,2.302307,3.75647,3.523682,5.489563c1.243774-1.318237,2.487548-2.636474,4.129821-3.905456c8.5.794983,16.601624,1.540771,24.580994,2.614624-1.490601,2.863159-1.002014,5.348816,1.817383,5.65332c2.789856.301453,6.289917-.025024,8.47644-1.530945c2.994934-2.062744-.479492-3.736755-1.275573-5.534729c3.236511-1.14917,6.090576-2.188904,9.324707-3.185913c2.610717.685242,4.827087,1.382629,7.074096,1.960938c10.512268,2.705505,15.423828-1.089966,15.865967-12.016358c26.212525-14.464355,44.00885-52.32074,38.890625-81.799377-.74884-4.313568-.888367-8.73291-1.309814-13.103302c5.496765,13.941192,6.572509,28.462188,4.58258,43.092376-3.923889,28.849427-17.846863,51.923035-42.027954,68.262024-21.432495,14.481873-45.186157,19.349305-70.751343,15.098572-1.475341-.245361-2.949646-.497131-4.817688-.763306m-17.389709-12.899414c1.375976-.236267,2.751953-.472534,4.12793-.708801-.563477-1.415405-.772706-3.608826-1.773255-4.06427-1.509888-.687439-3.572021-.161865-5.399414-.151855.793823,1.530334,1.587708,3.060669,3.044739,4.924926Z" transform="translate(.204396-.175432)" fill="#cadaeb"/><path d="M634.098389,604.915771c-2.210196,2.176047-5.56089,3.336721-9.32721,3.203248-3.3479.425842-6.141357,1.83309-8.724121,2.175008-8.101562-.745728-19.697035-.602974-24.732727-3.645284-2.850037-.755371-5.061462-1.168213-7.272827-1.581055-6.116377-1.134797-12.476624-6.340576-18.80835-10.170288c1.570069-5.012634-.035217-8.420838-3.192138-11.381287-5.094483-4.777466-11.244324-6.180298-18.004456-5.633301-6.388733-8.27185-15.835449-13.718506-18.757202-24.463623-.316834-3.731323,3.019348-10.132446,2.775513-13.238464-2.024475-25.791992,6.136139-48.085785,25.432586-65.360962c5.4245-4.856293,12.337677-7.801544,18.350922-11.519653-7.008789,8.812805-10.808228,18.620819-12.532654,29.326111-.335693,2.08374-.265442,4.622986-1.442017,6.118591-8.336547,10.597534-11.276245,22.64801-10.89624,35.899963c1.052857,36.722474,33.942871,60.629273,69.07959,53.894959c13.71344-2.628357,24.864319-10.704346,34.141724-21.233582c1.65979-1.883789,3.963135-3.336181,6.207458-4.545837c9.471375-5.104797,20.927918-8.318909,20.313904-22.509766-.29126-6.732055,2.694336-13.968933-1.969299-18.70935-.286072-4.710083-.49701-8.183838-.401245-11.80597c4.572387-1.888854,4.200454-6.165907,3.910354-10.015058c2.656189-12.816284,2.124192-24.162798-6.476333-34.730089-.475586-.584351-.512329-1.525971-.754883-2.669464c5.950928,7.419891,11.401095,14.160136,17.205844,22.558848.035034,1.730011.603482,3.931478.920499,5.011495c5.524841,18.822174,4.140869,36.583343-7.364685,53.138458-2.788758,4.012634-4.374756,8.874939-6.411072,13.392822-2.041077,4.528504-3.400147,9.469483-6.044739,13.597595-4.668762,7.288025-8.8349,15.253357-17.863037,19.025391-2.942627-.023743-5.460938-.244324-7.929382.013245-9.404725.981262-14.073792,8.919861-9.433777,15.857299Z" transform="translate(.05644-.309722)" fill="#dfebf6"/><path d="M572.006042,463.006897c-5.056091,4.599416-13.002807,7.30661-18.427307,12.162903-19.296447,17.275177-26.419982,38.764282-24.395507,64.556274.243835,3.106018-3.414927,7.482167-3.162668,10.847157-5.545655-13.028015-7.302002-23.787201-4.600342-37.746765c6.148254-31.767517,27.893808-57.871724,58.026559-70.214131c9.378418-3.8414,18.999573-5.631744,29.063172-5.643585c3.62854-.004272,6.2257-.467121,10.180778-.923237c1.065246-.202118,2.022384.088458,3.190108.499987c1.069947.380676,2.522852.295961,3.163538.326998c9.652282,3.879638,19.304565,7.759307,29.113281,11.906677-.438599.689911-1.033692,1.112121-2.076599,1.08612-2.614868-1.620056-4.667603-3.127746-6.967041-3.91098-19.848572-6.760681-39.175721-5.575104-58.095337,3.835968-3.043213-2.879944-6.056946-4.153229-9.03711-.82669-.239624.267425,1.979187,2.737396,2.9823,4.513061-3.034851,3.39624-5.996338,6.463257-8.957825,9.530243Z" transform="translate(0-.292112)" fill="#d5e4f3"/><path d="M650.486511,588.92592c8.580994-3.794739,13.489424-10.929722,17.624173-18.533438c2.166848-3.984788,2.658789-10.296662,6.450427-15.350335c2.974047-3.963949,3.56738-8.793932,6.356138-12.806566c11.505554-16.555115,13.198924-33.193534,7.674083-52.015708-.317017-1.080017-.639571-3.99123-.6342-5.371998c2.829748,2.915864,5.008566,9.991786,7.027853,14.778285c1.137195,5.310645.575379,9.163971,1.324219,13.477539c5.118225,29.478637-11.371868,69.295692-37.739056,83.464027-2.114258-2.00708-6.463153-5.875754-8.083637-7.641806Z" transform="translate(.32389-.118088)" fill="#d5e4f3"/><path d="M660.107544,452.612366c-.837708-.187775-1.860718-.650666-2.953308-1.473328.876282.159546,1.822204.678894,2.953308,1.473328Z" fill="#edf4fa"/><path d="M624.847046,436.661377c-.443359.180084-1.083984.149048-1.795899-.127564.485413-.191619,1.041993-.137603,1.795899.127564Z" fill="#cadaeb"/><path d="M570.519404,461.97819c2.584947-4.458943,8.291191-7.870616,10.834234-8.530802c2.2724-1.357178,3.628144-3.873983,5.437531-4.872609c18.693542-9.713746,38.115802-10.276558,57.964374-3.515877c2.299438.783234,4.710644,3.186337,7.060863,4.650082-8.051025-1.627899-16.427856-3.152252-24.680664-.647277-5.102539,1.548797-9.808533,4.403961-15.399536,6.800811-2.148437-.190368-3.731567-1.052917-5.003357-.721252-3.281738.855804-8.093994,1.370544-9.257141,3.603668-2.050354,3.936676,2.736328,5.397766,5.531738,7.200073c3.794637,4.705536-2.968872,12.572846-4.149902,18.915741-.753052,4.044525-2.495728,6.282898-6.800842,7.248413-8.735108,1.958954-15.580567,7.311524-21.368225,13.923737-7.28003,8.317078-8.295655,16.919617-2.243409,26.839783c11.907959,19.51831,28.921509,30.995849,51.419373,33.834533c6.225159.785401,12.187927-1.286499,16.580933-7.131164c6.371643-8.477173,9.923339-17.607971,9.536193-28.196594-.160949-4.403016,1.834534-6.7016,6.116028-7.65741c8.425232-1.880921,15.289368-6.365784,21.008972-13.513306.586548-.315948.75647-.320526.92627-.325104.210998,3.473725.421936,6.94748.708008,11.657563c4.663635,4.740417,1.678039,11.977295,1.969299,18.70935.614014,14.190857-10.842529,17.404969-20.313904,22.509766-2.244323,1.209656-4.547668,2.662048-6.207458,4.545837-9.277405,10.529236-20.428284,18.605225-34.141724,21.233582-35.136719,6.734314-70.412397-17.727843-71.465254-54.450317-.380005-13.251953,4.717846-25.098359,13.054393-35.695893c1.176575-1.495605.545339-3.833242.881032-5.916982c1.724426-10.705292,4.993386-21.685516,12.002175-30.498352Z" transform="translate(.358471-.130961)" fill="#edf4fa"/><path d="M669.547424,478.682922c-6.991638,2.238861-13.29389-.19876-15.880859-5.802551-1.343715-2.910703.380097-7.590812,3.052121-6.932129c6.049879-1.606329,10.789004,1.50515,14.125538,4.092343c2.928901,2.271109,2.485915,5.455356-1.2968,8.642337Z" transform="translate(.036025 0)" fill="#bdc2df"/><path d="M675.099316,510.22037c-.476563.152985-1.633551.936321-2.057623.957195-.86438-.230072-2.35382-.797995-2.963989-1.044394-5.000915-2.019379-6.304511-6.825127-4.6966-10.244408c1.486206-3.160492,6.417763-5.410619,10.627724-3.002508.704895.403229,2.089783,2.234607,3.016846,2.993609.574707,4.095642.646029,8.451652-3.926358,10.340506Z" transform="translate(0-.055392)" fill="#bdc2df"/><path d="M603.401428,465.948242c-3.189392-1.805542-7.976074-3.266632-5.92572-7.203308c1.163147-2.233124,6.041514-3.781556,9.323252-4.63736c3.392055-4.529551,5.328892,1.270285,7.163852,1.623983c2.463257,6.404694-2.005292,9.077037-10.561384,10.216685Z" fill="#bdc2df"/><path d="M651.461548,589.045227c2.067627,1.788757,5.394134,3.499818,7.169342,5.56189.051574,11.16742-6.56601,15.017822-17.078278,12.312317-2.247009-.578309-5.506086-.788444-8.116803-1.473686-7.386333-9.819593,1.253448-16.412685,10.701377-17.342102c3.405703-.91365,5.585754.075025,7.324362.941581Z" transform="translate(0-.087716)" fill="#bdc2df"/><path d="M543.868987,577.369619c6.994202-.829834,15.162303-3.154253,20.256786,1.623213c3.156921,2.960449,2.67745,10.891934.929403,15.614285-4.245178,4.729858-9.016663,3.873169-13.87323,1.930237-5.265747-2.106568-9.213013-5.681092-9.949585-11.437806-.266541-2.083252,1.564666-5.222482,2.636626-7.729929Z" transform="translate(.137899 0.275798)" fill="#bdc2df"/><path d="M615.936256,607.665039c2.704956-.670043,5.975482-.406494,8.940875-.7229c1.561218,1.713928,5.444774,6.2052,2.44984,8.267944-2.186523,1.505921-7.145181,1.329054-9.935037,1.027601-2.819397-.304504-2.946279-5.709486-1.455678-8.572645Z" transform="translate(.167242 0)" fill="#a8a6c7"/><path d="M564.263672,612.623657c-1.125427-1.697265-2.646638-3.657673-2.646638-5.681518c1.827393-.01001,3.302521.016532,4.812409.703971c1.414944,0,2.758647,2.410522,2.293763,4.435738-1.375977.236267-2.751954.472534-4.459534.541809Z" transform="translate(.137899 0)" fill="#a8a6c7"/><path d="M582.360469,604.120132c2.603741-1.216444,7.919191-.049544,9.010302,1.871567c2.511182,1.465185-1.794083,3.499819-3.946027,4.855896-1.221375-1.733093-3.983342-4.704086-5.064275-6.727463Z" fill="#bdc2df"/><path d="M587.629141,450.092957c-.826468,1.782745-3.728079,3.354431-6.665274,4.014617-1.466187-1.417175-4.111694-4.778442-3.87207-5.045867c3.322471-4.353459,7.70824-2.491021,10.537344,1.03125Z" fill="#bdc2df"/><path d="M604.69338,225.5107c-8.43604-14.0601,16.63854-10.40025,13.00948-.72275-4.01009,10.69357-19.28178,9.97199-13.73223.72275" transform="translate(-10.9039 14.183166)" fill="#bac3ea" stroke-width="2.602"/><path d="M646.14145,755.71788c0,4.08201-6.15805,4.89224-6.15805,9.72324c0,4.64068,8.34787,14.54995,12.64021,9.39913c2.9293-3.51516,8.33664-8.0321,7.77859-13.61254-.29729-2.97287-2.79978-1.45514-3.56519-3.24108-.72993-1.70317.62888-4.47463-3.24108-4.86162-1.70422-.17042-3.705364,4.86162-7.421674,4.86162" transform="translate(.28717 0)" fill="#ecb4c2" stroke-width="2.602"/><polygon style="mix-blend-mode:hue" points="0,-42.522312 12.496994,-17.200636 40.441122,-13.140117 20.220561,6.570058 24.993988,34.401273 0,21.261156 -24.993988,34.401273 -20.220561,6.570058 -40.441122,-13.140117 -12.496994,-17.200636 0,-42.522312" transform="matrix(-.920384 0.391017-.391017-.920384 112.535861 315.795464)" fill="#e8e8a9" stroke-width="0"/></svg>
