<?xml version="1.0" encoding="UTF-8" standalone="no" ?>
<!DOCTYPE svg PUBLIC "-//W3C//DTD SVG 1.1//EN" "http://www.w3.org/Graphics/SVG/1.1/DTD/svg11.dtd">
<svg xmlns="http://www.w3.org/2000/svg" xmlns:xlink="http://www.w3.org/1999/xlink" version="1.1" width="1080" height="1224" viewBox="200 160 900 714" xml:space="preserve">
<desc>Created with Fabric.js 4.4.0</desc>
<defs>
</defs>
<g transform="matrix(1 0 0 1 640 512)" id="background-logo"  >
<rect style="stroke: none; stroke-width: 0; stroke-dasharray: none; stroke-linecap: butt; stroke-dashoffset: 0; stroke-linejoin: miter; stroke-miterlimit: 4; fill: rgb(255,255,255); fill-opacity: 0; fill-rule: nonzero; opacity: 1;"  paint-order="stroke"  x="-640" y="-512" rx="0" ry="0" width="1280" height="1024" />
</g>
<g transform="matrix(3.966394244148448 0 0 3.966394244148448 640.4762585812357 512.2540045766591)" id="shape-9216dc6b-09fb-4f24-8fe3-4cc7e11c9692"  >
<g style=""  paint-order="stroke"   >
		<g transform="matrix(1 0 0 1 -0.4593209698237217 -0.12946570567987692)" id="path-03"  >
<path style="stroke: none; stroke-width: 1; stroke-dasharray: none; stroke-linecap: butt; stroke-dashoffset: 0; stroke-linejoin: miter; stroke-miterlimit: 4; fill: rgb(238,255,255); fill-rule: nonzero; opacity: 1;"  paint-order="stroke"  transform=" translate(-110.0259820329805, -124.87053670905912)" d="M 74.3648 11.41773 C 74.3648 11.41773 120.17507 -7.478319999999998 152.29633 7.618650000000001 C 184.41759000000002 22.71562 196.3024 32.99442 205.29636000000002 49.37624 C 214.29032000000004 65.75806 216.53878000000003 76.35807 217.82364 86.63687 C 219.1085 96.91567 219.10849000000002 129.67932000000002 211.07819 144.77629000000002 C 203.04787000000002 159.87324 188.27211 170.15205000000003 169.96302 175.93390000000002 C 169.96302 175.93390000000002 171.24787 190.70967000000002 165.46606 194.88542 C 159.68422999999999 199.06117 138.80542 209.33996000000002 130.77513 221.22485 C 122.74483999999998 233.10972 117.60542999999998 244.67335 113.10846999999998 245.95819 C 108.61150999999998 247.24304 74.33394999999999 248.11413 68.02421999999999 247.8392 C 68.02421999999999 247.8392 55.325389999999985 249.49493 54.702699999999986 241.08853 C 54.08000999999999 232.68212999999997 52.67893999999998 213.84557999999998 51.12218999999999 211.97751 C 49.56544999999999 210.10944 44.42820999999999 210.88782 42.24876999999999 196.87714 C 40.069329999999994 182.86647 21.699809999999992 162.94024 21.699809999999992 162.94024 C 21.699809999999992 162.94024 8.93454 147.83987 5.35403 123.55474 C 1.7735199999999995 99.26961 -0.2502300000000002 86.97137 3.95296 76.85256999999999 C 8.15615 66.73376999999998 30.10618 34.35359 38.3569 31.2401 C 39.92766 30.647360000000003 39.348800000000004 43.42174 42.075610000000005 41.96159 C 44.563370000000006 40.62945 47.364290000000004 38.599830000000004 50.335510000000006 36.094590000000004 C 52.78728000000001 34.02734 60.94017000000001 40.36303 63.54357 37.772710000000004 C 66.36775 34.962720000000004 63.574110000000005 23.289170000000006 66.07226 20.571940000000005 C 67.74879 18.748380000000004 72.33323 23.919650000000004 73.66668 22.413510000000006 C 76.64161 19.053330000000006 74.36482 11.417720000000006 74.36482 11.417720000000006 L 74.3648 11.417720000000006 z" stroke-linecap="round" />
</g>
		<g transform="matrix(1 0 0 1 29.738974876306997 4.231497897202146)" id="path-02"  >
<path style="stroke: none; stroke-width: 1; stroke-dasharray: none; stroke-linecap: butt; stroke-dashoffset: 0; stroke-linejoin: miter; stroke-miterlimit: 4; fill: rgb(194,211,210); fill-rule: nonzero; opacity: 1;"  paint-order="stroke"  transform=" translate(-140.2242778791112, -129.23150031194115)" d="M 74.10139 196.54375 C 75.9692 197.37239 77.72116 198.68520999999998 79.76312 198.76056 C 84.60119 198.9391 86.89779 192.60838 91.28389 190.55878 C 99.18167 186.86817000000002 107.2937 198.58428 115.79643 196.66097000000002 C 119.07126 195.92022000000003 121.51764 193.29184 123.93129 190.95785 C 129.66441 185.41392000000002 136.3651 180.87329 143.63905 177.60319 C 152.86935 173.45358000000002 163.01561 171.32513 171.70471 166.13688000000002 C 186.77099 157.1408 195.33706 140.18797 199.91582 123.24816000000001 C 207.3404 95.77978000000002 206.1756 66.05494000000002 196.62431999999998 39.25178000000001 C 205.26807 46.34593000000001 211.12075 56.430340000000015 214.49115999999998 67.09253000000001 C 217.86156999999997 77.75472 218.88904999999997 89.02252000000001 219.09932999999998 100.20275000000001 C 219.33266999999998 112.60586 218.55541999999997 125.18713000000001 214.71339999999998 136.98249 C 210.87136999999998 148.77787 203.23745999999997 158.62696 192.79800999999998 165.32842000000002 C 183.04090999999997 171.59186000000003 171.72965 174.85189000000003 160.99772 179.24019 C 148.50526 184.34839000000002 137.36177999999998 192.71550000000002 128.97156999999999 203.28717 C 124.98206999999998 208.31393 121.34263999999999 214.05197 115.56127999999998 216.83769 C 109.77991999999998 219.62341 101.07787999999998 217.48147 99.92674999999998 211.16806 C 99.64062999999999 209.59879999999998 99.82411999999998 207.87055999999998 98.97065999999998 206.52298 C 97.02051999999998 203.44377 91.97685999999999 205.36706999999998 90.02332999999999 208.44413999999998 C 88.06979999999999 211.52119999999996 87.30227999999998 215.50074999999998 84.39966999999999 217.70519 C 81.31024999999998 220.05147 76.73821999999998 219.44819999999999 73.49133999999998 217.32516999999999 C 69.25479999999997 214.55504 62.90846999999998 206.78196 61.53155999999998 201.85177 C 59.71082 195.33244 69.65862 194.57147 74.10139 196.54375 z" stroke-linecap="round" />
</g>
		<g transform="matrix(1 0 0 1 15.559971052748082 85.39392100871851)" id="path-02"  >
<path style="stroke: none; stroke-width: 1; stroke-dasharray: none; stroke-linecap: butt; stroke-dashoffset: 0; stroke-linejoin: miter; stroke-miterlimit: 4; fill: rgb(194,211,210); fill-rule: nonzero; opacity: 1;"  paint-order="stroke"  transform=" translate(-126.0452740555523, -210.39392342345752)" d="M 168.94719 174.14203 C 171.47797 180.60416 168.4505 188.10103 163.68193 193.14336 C 158.91338 198.18567 152.63042 201.46355 146.90526 205.38614 C 137.20891 212.02957 128.92388 220.72241000000002 122.75365 230.72653000000003 C 120.17568999999999 234.90634000000003 117.85041 239.44174000000004 113.94167999999999 242.41469000000004 C 108.00762999999999 246.92810000000003 99.88419999999999 246.82498000000004 92.4349 246.52191000000005 C 91.47337 243.90240000000006 92.7828 241.06383000000005 93.838 238.48065000000005 C 94.89321 235.89747000000006 95.61654 232.65558000000004 93.79317999999999 230.54333000000005 C 91.55721999999999 227.95310000000006 87.11689999999999 228.90782000000004 84.39992 226.82774000000006 C 81.13166 224.32563000000007 82.13051999999999 219.21885000000006 83.64510999999999 215.39155000000005 C 85.68412999999998 210.23908000000006 88.67638 204.69505000000004 94.00137999999998 203.16213000000005 C 97.46279999999999 202.16569000000004 101.14310999999998 203.12179000000006 104.74164999999998 203.27959000000004 C 114.55005999999997 203.70977000000005 123.56050999999998 198.20354000000003 131.51505999999998 192.44895000000005 C 142.19131 184.72541000000007 155.38097999999997 175.30654000000004 168.94718999999998 174.14197000000004 L 168.94718999999998 174.14203 z" stroke-linecap="round" />
</g>
		<g transform="matrix(1 0 0 1 32.749714279677164 -11.658085834376585)" id="path-02"  >
<path style="stroke: none; stroke-width: 1; stroke-dasharray: none; stroke-linecap: butt; stroke-dashoffset: 0; stroke-linejoin: miter; stroke-miterlimit: 4; fill: rgb(194,211,210); fill-rule: nonzero; opacity: 1;"  paint-order="stroke"  transform=" translate(-143.23501728248138, -113.34191658036241)" d="M 103.41795 115.19538 C 105.54522 117.57307 109.01188 118.37926 112.1833 118.03172 C 115.35472 117.68418000000001 118.32038 116.34279000000001 121.21556000000001 115.00242 C 140.71167000000003 105.97628 161.17950000000002 95.93153000000001 182.55249 98.11412 C 184.59918000000002 98.32313 186.90424000000002 98.81747 187.95073 100.58874 C 189.04456 102.44017 188.17218 104.94747 186.56131 106.37203 C 184.95041999999998 107.7966 182.79428 108.39972999999999 180.71835 108.96081 C 157.11435 115.34053999999999 133.51036 121.72028 109.90634999999999 128.10002 C 108.06161999999999 128.5986 106.14231 129.10116 104.26198999999998 128.76057 C 99.97737999999998 127.98449000000001 97.57128999999998 122.96619 98.10604999999998 118.64468 C 98.58058999999999 114.81011 102.39851999999998 111.26614 102.56608999999999 108.01078 C 101.06602999999998 110.05659 101.73040999999999 113.3092 103.41796999999998 115.19539999999999 L 103.41795 115.19538 z" stroke-linecap="round" />
</g>
		<g transform="matrix(1 0 0 1 -67.8110641743344 3.7912635741432297)" id="path-02"  >
<path style="stroke: none; stroke-width: 1; stroke-dasharray: none; stroke-linecap: butt; stroke-dashoffset: 0; stroke-linejoin: miter; stroke-miterlimit: 4; fill: rgb(194,211,210); fill-rule: nonzero; opacity: 1;"  paint-order="stroke"  transform=" translate(-42.67423882846981, -128.79126598888223)" d="M 12.58047 99.1062 C 25.0333 101.16856 36.90201 106.65204 46.54423 114.79782 C 51.80157 119.23925 56.47351 124.56706 59.150529999999996 130.90736 C 61.827549999999995 137.24765000000002 62.33466 144.69793 59.503519999999995 150.97093 C 56.67238999999999 157.24392 50.184509999999996 161.98872 43.30539999999999 161.78036 C 46.265629999999994 166.00399 51.88098999999999 168.17573 56.91279999999999 167.04307 C 61.24217999999999 166.06849 64.82383999999999 162.9356 67.36308 159.29617 C 73.57875 150.38736999999998 74.20132 138.29188 70.41852 128.10898999999998 C 66.63572 117.92610999999998 58.88466 109.56302999999997 49.881569999999996 103.48471999999998 C 42.84607 98.73479999999998 35.08672 95.37488999999998 27.167309999999997 92.40975999999998 C 24.821059999999996 91.53129999999997 21.611759999999997 89.57846999999998 19.054309999999997 90.46902999999998 C 17.38126 91.05161 12.59258 99.10821 12.58047 99.1062 z" stroke-linecap="round" />
</g>
		<g transform="matrix(1 0 0 1 -31.397502650078266 48.58182945676907)" id="path-02"  >
<path style="stroke: none; stroke-width: 1; stroke-dasharray: none; stroke-linecap: butt; stroke-dashoffset: 0; stroke-linejoin: miter; stroke-miterlimit: 4; fill: rgb(194,211,210); fill-rule: nonzero; opacity: 1;"  paint-order="stroke"  transform=" translate(-79.08780035272595, -173.5818318715081)" d="M 72.97607 182.49905 C 74.41798 182.02021000000002 75.55416000000001 180.71865000000003 75.8339 179.22526000000002 C 77.23316 180.76986000000002 78.67093 182.34506000000002 80.50919 183.32719000000003 C 82.34744 184.30932000000004 84.69658 184.59857000000002 86.48262 183.52446000000003 C 89.21007999999999 181.88422000000003 89.45864999999999 177.97290000000004 88.5983 174.90869000000004 C 87.31469 170.33699000000004 84.23995 166.29391000000004 80.1773 163.83566000000005 C 79.2987 163.30404000000004 78.29788 162.83003000000005 77.28293000000001 162.98637000000005 C 76.09683000000001 163.16908000000004 75.21472000000001 164.15464000000006 74.50330000000001 165.12112000000005 C 72.67076000000002 167.61068000000006 64.36408000000002 185.35899000000006 72.97609000000001 182.49902000000006 L 72.97607 182.49905 z" stroke-linecap="round" />
</g>
		<g transform="matrix(1 0 0 1 -6.136126499567872 23.190167585260994)" id="path-02"  >
<path style="stroke: none; stroke-width: 1; stroke-dasharray: none; stroke-linecap: butt; stroke-dashoffset: 0; stroke-linejoin: miter; stroke-miterlimit: 4; fill: rgb(194,211,210); fill-rule: nonzero; opacity: 1;"  paint-order="stroke"  transform=" translate(-104.34917650323635, -148.19017)" d="M 100.72885 150.35239 C 101.41620999999999 154.99964 104.00061 159.54609000000002 108.18077 161.68984 C 105.4751 160.30228 104.7019 150.12612000000001 104.54554999999999 147.4786 C 104.28613999999999 143.08593 105.57033999999999 138.92719 105.66439 134.6905 C 100.73661 136.86392999999998 100.074 145.92488999999998 100.72886 150.35241 L 100.72886 150.35239 z" stroke-linecap="round" />
</g>
		<g transform="matrix(1 0 0 1 -34.18898733515885 48.469431932246394)" id="path-01"  >
<path style="stroke: none; stroke-width: 1; stroke-dasharray: none; stroke-linecap: butt; stroke-dashoffset: 0; stroke-linejoin: miter; stroke-miterlimit: 4; fill: rgb(0,0,0); fill-rule: nonzero; opacity: 1;"  paint-order="stroke"  transform=" translate(-76.29631566764536, -173.4694343469854)" d="M 75.11782 165.11783 C 71.69613 166.28037 68.37142 173.38223 67.20571 176.45615 C 66.59682 178.06192000000001 66.23617 180.12308000000002 67.4966 181.28946000000002 C 68.84218 182.53446000000002 71.14943 181.77316000000002 72.30928 180.35355 C 73.46913 178.93394 73.11555 177.41697000000002 73.92244 175.77091000000001 C 74.15236 175.30198000000001 74.44373999999999 174.82017000000002 74.91901999999999 174.60361 C 75.56183999999999 174.31076000000002 76.34816 174.61569 76.83223 175.13016 C 77.3163 175.64462999999998 77.57051 176.32711999999998 77.83314999999999 176.98288 C 78.42366999999999 178.45767 79.17823999999999 179.96695 80.51185999999998 180.83005 C 81.84553999999999 181.69315 84.69062999999998 181.27005 85.54914999999998 179.93344 C 86.45637999999998 178.52089999999998 85.62867999999999 176.66843 84.74403999999998 175.24155 C 83.2947 172.90396 78.39956 164.00284 75.11782 165.11783 z" stroke-linecap="round" />
</g>
		<g transform="matrix(1 0 0 1 0 0)" id="path-01"  >
<path style="stroke: none; stroke-width: 1; stroke-dasharray: none; stroke-linecap: butt; stroke-dashoffset: 0; stroke-linejoin: miter; stroke-miterlimit: 4; fill: rgb(0,0,0); fill-rule: nonzero; opacity: 1;"  paint-order="stroke"  transform=" translate(-110.48530300280422, -125.000002414739)" d="M 217.52969 74.59927 C 215.79103999999998 67.39718 213.5253 60.259980000000006 210.21176 53.61728000000001 C 207.26932 47.718540000000004 203.53805 42.236050000000006 199.28982 37.20206 C 190.72366 27.051550000000002 179.90932999999998 18.794770000000003 168.18069 12.620270000000001 C 155.31765 5.848480000000001 141.32424 1.598180000000001 126.82563999999999 0.37491000000000163 C 111.88662 -0.88553 96.5942 1.03763 82.46358 6.06192 C 78.96937999999999 7.30429 75.54146 8.73929 72.196 10.33884 C 72.19447 10.33969 72.19264 10.340119999999999 72.19118 10.34098 C 72.19075000000001 10.34122 72.19051 10.34153 72.19008000000001 10.34177 C 71.1581 10.83628 70.88692 12.31229 71.43056000000001 13.24173 C 71.43062000000002 13.241850000000001 71.43074000000001 13.24197 71.43080000000002 13.2421 C 71.90401000000001 14.34983 72.37715000000001 15.457550000000001 72.85036000000002 16.56528 L 63.162190000000024 19.90518 L 61.72054000000002 34.42062 L 48.21486000000002 27.55837 L 41.619100000000024 36.30788 L 41.74044000000002 33.26406 L 41.83675000000002 30.846700000000002 C 41.912620000000025 28.94405 39.500750000000025 28.138810000000003 38.21767000000003 29.347620000000003 C 28.057760000000027 38.919090000000004 17.852860000000028 48.77847 10.305070000000025 60.619170000000004 C 6.628130000000025 66.38742 3.6431400000000256 72.67032 1.8852100000000256 79.29562 C -0.2151299999999745 87.21139 -0.3533199999999743 95.43606 0.4648600000000256 103.54397 C 1.2944500000000256 111.76412 2.7413500000000255 119.97732 4.318380000000026 128.08474 C 5.808130000000026 135.74355 7.8355900000000265 143.34042000000002 11.395410000000027 150.32211 C 17.443080000000027 162.18307000000001 27.209800000000026 171.53579000000002 34.26473000000003 182.73794 C 35.94906000000003 185.41238 37.499410000000026 188.19894000000002 38.719930000000026 191.11807000000002 C 40.065940000000026 194.33749000000003 40.86068000000002 197.68387 41.63546000000002 201.0748 C 42.45107000000002 204.64450000000002 43.461080000000024 208.32022 45.744100000000024 211.25748000000002 C 47.03060000000002 212.91257000000002 48.677330000000026 214.28141000000002 50.54867000000002 215.18174000000002 C 51.15206000000002 221.70347 51.755520000000026 228.22514 52.35891000000002 234.74686000000003 C 52.65273000000002 237.92252000000002 52.72292000000002 241.29752000000002 54.23776000000002 244.18314000000004 C 55.574310000000025 246.72916000000004 58.08383000000002 248.34439000000003 60.78805000000003 249.12430000000003 C 63.39224000000003 249.87534000000002 66.15609000000002 249.93967000000004 68.84670000000003 249.96872000000005 C 72.35622000000002 250.00662000000005 75.86611000000002 250.01010000000005 79.37569000000002 249.97910000000005 C 86.39486000000002 249.91709000000006 93.41280000000002 249.71738000000005 100.42409000000002 249.37998000000005 C 103.71297000000003 249.22172000000003 107.13942000000002 249.23697000000004 110.35079000000002 248.43223000000003 C 113.25558000000002 247.70426000000003 115.79397000000002 246.05973000000003 117.79378000000001 243.84910000000002 C 119.67696000000001 241.76743000000002 121.14064000000002 239.35807000000003 122.57686000000001 236.95963000000003 C 124.05531 234.49082000000004 125.60188000000001 232.06760000000003 127.26039000000002 229.71531000000004 C 133.80666000000002 220.43015000000005 141.9291 212.16032000000004 151.10085 205.45438000000004 C 153.44417 203.74106000000003 155.85683 202.12259000000003 158.33187 200.60563000000005 C 160.83602000000002 199.07084000000006 163.47066 197.73338000000004 165.74142 195.84928000000005 C 170.3674 192.01102000000006 171.05007 185.80356000000006 172.29946 180.30552000000006 C 172.60555000000002 178.95841000000007 172.9601 177.62443000000005 173.39803 176.31425000000007 C 173.8724 176.13706000000008 174.34823 175.96128000000007 174.81978 175.78147000000007 C 187.13985 171.08353000000008 199.77004 164.90439000000006 207.62886 153.88712000000007 C 210.37581 150.03611000000006 212.41328000000001 145.56559000000007 214.12221 141.17331000000007 C 217.39162 132.77005000000008 219.35944999999998 123.89096000000006 220.33052 114.93796000000007 C 221.79184 101.465 220.70657 87.75937 217.52969 74.59927 z M 167.34335 183.23392 C 166.78891 185.78598000000002 166.21376999999998 188.32938000000001 164.89382999999998 190.48191 C 163.59957999999997 192.59262999999999 161.34829999999997 193.90928 159.20687999999998 195.15855 C 156.78573999999998 196.57102999999998 154.39632999999998 198.02604 152.07558999999998 199.59953 C 142.72683999999998 205.93828 134.33742999999998 213.69083999999998 127.34645999999998 222.56517 C 123.86250999999999 226.98772 120.87056999999999 231.66392 117.92885999999999 236.45401999999999 C 116.60152999999998 238.6154 115.31197999999999 240.56944 113.38881999999998 242.23526999999999 C 112.64436999999998 242.88004999999998 111.56435999999998 243.57773999999998 110.48933999999998 243.96188999999998 C 109.13081999999999 244.44742 107.71119999999999 244.68527999999998 106.27839999999999 244.80752999999999 C 99.59052999999999 245.37832999999998 92.82833 245.49349999999998 86.12007 245.63711999999998 C 79.58699 245.77694999999997 73.00313 245.95101999999997 66.47194 245.67947999999998 C 64.2303 245.58628 61.92244 245.33444999999998 60.0848 244.28776 C 59.13949 243.74937 58.50887 243.15475999999998 57.96352 242.16092999999998 C 57.39913 241.13236999999998 57.133990000000004 239.80661999999998 56.98098 238.67612999999997 C 56.540980000000005 235.42551999999998 56.35622 232.12290999999996 56.05404 228.85678999999996 C 55.741170000000004 225.47537999999997 55.42831 222.09402999999998 55.11544 218.71268999999995 L 54.891619999999996 216.29343999999995 C 55.15456 216.30216999999996 55.41732 216.31009999999995 55.67603999999999 216.29331999999994 C 55.368849999999995 217.65397999999993 55.46851999999999 219.05558999999994 56.66071999999999 220.73295999999993 L 56.66071999999999 220.73289999999994 C 57.77497999999999 222.30058999999994 60.38019999999999 222.92759999999996 61.59668999999999 221.43779999999995 C 62.30261999999999 220.57317999999995 62.30701999999999 219.35124999999996 62.27716999999999 218.23540999999994 C 62.240669999999994 216.87102999999993 62.20416999999999 215.50664999999995 62.167669999999994 214.14220999999995 C 62.134159999999994 212.88933999999995 62.43487999999999 211.22686999999996 63.68151999999999 211.09813999999994 C 65.0932 210.95232999999993 65.58977999999999 212.86925999999994 65.86296999999999 214.26189999999994 C 66.97209999999998 219.91686999999993 73.18297999999999 223.67876999999993 78.91331999999998 223.06926999999993 C 84.64372999999999 222.45976999999993 89.55552999999999 218.23326999999992 92.14463999999998 213.08488999999994 C 92.50199999999998 212.37431999999995 92.92362999999997 211.55961999999994 93.69999999999997 211.38670999999994 C 94.51249999999997 211.20567999999994 95.30796999999997 211.87242999999992 95.61875999999998 212.64463999999992 C 95.92960999999998 213.41685999999993 95.89835999999998 214.27634999999992 95.97037999999998 215.10563999999994 C 96.34445999999998 219.40922999999992 99.74985999999998 223.10392999999993 103.84305999999998 224.48466999999994 C 107.93619999999999 225.86540999999994 112.53580999999998 225.16300999999993 116.41519999999998 223.26286999999994 C 120.29458999999999 221.36265999999995 123.53024999999998 218.35441999999995 126.35422999999999 215.08549999999994 C 133.58629 206.71391999999994 138.82152 196.10435999999993 148.41801999999998 190.60038999999995 C 150.14164999999997 189.61179999999996 152.00884 188.78690999999995 153.39854999999997 187.36674999999994 C 154.47221999999996 186.26963999999995 155.18223999999998 184.67716999999993 155.02238999999997 183.20091999999994 C 159.43833999999998 181.34123999999994 163.98124999999996 179.72868999999994 168.47795999999997 178.11198999999993 C 168.05997 179.80905 167.71457 181.52512 167.34335 183.23392 z M 216.6705 106.7576 C 216.34128 116.49295 214.74325000000002 126.0629 211.69778 135.38413 C 211.17758 136.97617 210.61544 138.55466 210.0068 140.11503 C 209.77889 140.69943999999998 209.54055 141.27946 209.30093 141.85911 C 209.25227999999998 141.97178 209.07747999999998 142.38583999999997 209.02542 142.50504999999998 C 208.90395999999998 142.78312999999997 208.78079 143.06046999999998 208.65573 143.33695999999998 C 208.09769 144.57097 207.49545 145.77927999999997 206.85184 146.97032 C 204.49832 151.32560999999998 201.60916 155.07512 197.87638 158.34781999999998 C 193.06168000000002 162.56912999999997 187.38023 165.74192 181.58585000000002 168.40653999999998 C 173.84140000000002 171.96782 165.68668000000002 174.54459999999997 157.74204000000003 177.61454999999998 C 155.13389000000004 176.01 152.52567000000002 174.40556999999998 149.91746000000003 172.80101 C 150.86405000000002 169.3217 151.86381000000003 165.84940999999998 153.08610000000004 162.45763 C 155.97801000000004 160.88512 158.74662000000004 159.08757 161.37303000000006 157.08623 C 165.77171000000007 153.7343 170.07548000000006 149.95806 173.55668000000006 145.64006 C 179.23759000000007 138.59355 182.71446000000006 129.89738 185.45042000000007 121.35063000000001 C 187.16050000000007 116.00871000000001 188.64091000000008 110.53587000000002 189.65177000000006 105.01365000000001 C 189.66831000000005 104.92338000000001 189.68571000000006 104.83323000000001 189.70188000000005 104.7429 C 189.91727000000006 103.54063000000001 189.14805000000004 101.89158 187.65763000000004 102.05925 C 173.39158000000003 103.66423 159.31663000000003 106.72752 145.69266000000005 111.25145 C 146.14206000000004 110.2299 146.59714000000005 109.21074 147.04099000000005 108.18681000000001 C 147.62290000000004 106.84452 148.18741000000006 105.49534000000001 148.70774000000006 104.12797 C 148.70603000000006 104.13249 148.76005000000006 104.0081 148.79227000000006 103.92954 C 148.82560000000007 103.87223 148.87174000000005 103.78867 148.87180000000006 103.78855 C 149.02317000000005 103.56388 149.15397000000007 103.32011 149.29258000000007 103.08695 C 149.61082000000007 102.55167 149.90104000000008 101.97709 150.04649000000006 101.36954 C 150.42656000000005 99.78153 149.64848000000006 98.43589 148.39634000000007 97.52402000000001 C 147.58024000000006 96.92966000000001 146.61149000000006 96.61142000000001 145.73270000000008 96.12699 C 143.04062000000008 94.64274 140.3649000000001 93.12791 137.68119000000007 91.62852000000001 C 135.14793000000006 90.21318000000001 132.61454000000006 88.79777000000001 130.08128000000008 87.38243000000001 C 131.87657000000007 81.63512000000001 134.33970000000008 76.14232000000001 137.44828000000007 70.97526000000002 C 138.85850000000008 68.63120000000002 135.19370000000006 66.49711000000002 133.78709000000006 68.83518000000002 L 133.78709000000006 68.83524000000003 C 130.21611000000007 74.77085000000002 127.42868000000006 81.17930000000003 125.50888000000006 87.83481000000003 C 125.25357000000007 88.71988000000003 125.67404000000006 89.77689000000004 126.48318000000006 90.22898000000004 C 131.46744000000007 93.01377000000004 136.45169000000007 95.79850000000003 141.43601000000007 98.58323000000004 C 142.45707000000007 99.15373000000004 143.46317000000008 99.76261000000004 144.52610000000007 100.25248000000005 C 144.92088000000007 100.43443000000005 145.31901000000008 100.61417000000004 145.69785000000007 100.82877000000005 C 145.61460000000008 100.96921000000005 145.53177000000008 101.11002000000005 145.44754000000006 101.24985000000005 C 145.13455000000005 101.76938000000006 144.88705000000007 102.30069000000005 144.66843000000006 102.86759000000005 C 144.23832000000004 103.98264000000005 143.79593000000006 105.08970000000005 143.31937000000005 106.18583000000005 C 142.31736000000004 108.49027000000005 141.27060000000006 110.77799000000005 140.33945000000006 113.11253000000005 C 134.35465000000005 115.28721000000004 128.46256000000005 117.72349000000006 122.70352000000005 120.43773000000004 C 119.31314000000006 122.03569000000005 116.00571000000005 123.81212000000005 112.58316000000005 125.34099000000005 C 110.95596000000005 126.06792000000004 109.28671000000006 126.70537000000004 107.57614000000005 127.20793000000005 C 106.05105000000005 127.65605000000005 104.99582000000005 127.97105000000005 103.49386000000005 127.80614000000004 C 103.43594000000006 127.79613000000005 103.34445000000005 127.78148000000004 103.32260000000005 127.77550000000004 C 103.11380000000005 127.71862000000003 102.90164000000006 127.67565000000003 102.69864000000005 127.59844000000004 C 102.98624000000005 127.70782000000004 102.32895000000005 127.29937000000004 102.32150000000006 127.34270000000004 C 101.92074000000005 126.95122000000003 101.77157000000005 126.40728000000004 101.72555000000006 125.76708000000004 C 101.57504000000006 123.67589000000004 101.73300000000006 121.52263000000004 101.87454000000005 119.43432000000004 C 102.17184000000006 115.04791000000004 102.86404000000006 110.70989000000004 103.90030000000006 106.43804000000004 C 104.17001000000006 105.32610000000004 103.54727000000005 104.14001000000005 102.41959000000006 103.83013000000004 C 101.33896000000006 103.53319000000003 100.08268000000005 104.19359000000004 99.81168000000005 105.31084000000004 C 98.82547000000005 109.37639000000004 98.14750000000005 113.51580000000004 97.77280000000005 117.68254000000005 C 97.59153000000005 119.69798000000004 97.48691000000005 121.72020000000005 97.45963000000005 123.74358000000005 C 97.43338000000004 125.69237000000005 97.43894000000004 127.81548000000005 98.60080000000005 129.48156000000006 C 100.73611000000005 132.54357000000005 104.75632000000004 132.36602000000005 107.97549000000005 131.50158000000005 C 108.89016000000005 131.25597000000005 109.79171000000005 130.96850000000003 110.68331000000005 130.65173000000004 C 109.30062000000005 135.68579000000005 108.18600000000005 140.83569000000006 108.23531000000006 146.05664000000004 C 108.28872000000005 151.71912000000003 109.93996000000006 157.36804000000004 113.49959000000005 161.82507000000004 C 121.21950000000005 171.49096000000003 136.08840000000006 169.59118000000004 146.30551000000006 165.61999000000003 C 146.79391000000007 165.43017000000003 147.27572000000006 165.22625000000002 147.75802000000004 165.02337000000003 C 146.90731000000005 167.73266000000004 146.14730000000006 170.47265000000002 145.40975000000003 173.21081000000004 C 145.16079000000002 174.13513000000003 145.57931000000002 175.10992000000005 146.38405000000003 175.60504000000003 C 148.54378000000003 176.93365000000003 150.70345000000003 178.26227000000003 152.86318000000003 179.59088000000003 C 149.90664000000004 180.85052000000002 146.99691 182.22052000000002 144.17043000000004 183.78778000000003 C 138.07869000000005 187.16571000000002 132.59859000000003 191.45721000000003 128.15694000000005 196.84094000000002 C 123.62300000000005 202.33648000000002 119.67189000000005 208.78302000000002 113.08570000000005 212.05005000000003 C 110.91865000000004 213.12500000000003 108.51356000000004 213.72791000000004 106.11646000000005 213.57642000000004 C 106.81281000000004 209.91834000000003 107.25464000000005 206.05927000000005 106.00159000000005 202.52564000000004 C 104.77881000000005 199.07746000000003 101.93286000000005 195.82606000000004 98.21247000000005 195.07984000000005 C 94.70270000000005 194.37580000000005 91.42127000000005 195.94410000000005 89.26588000000005 198.69324000000006 C 87.17439000000006 201.36078000000006 86.12202000000005 204.56031000000007 84.92311000000005 207.68537000000006 C 83.94942000000005 210.22321000000005 82.01399000000005 213.56977000000006 79.23720000000006 214.31000000000006 C 78.80391000000006 214.42548000000005 78.20876000000005 214.43115000000006 77.70516000000006 214.30152000000007 C 77.54812000000007 214.26111000000006 77.39174000000007 214.20966000000007 77.23910000000006 214.15540000000007 C 77.31826000000007 214.18354000000008 77.58023000000007 214.32416000000006 77.20663000000006 214.14167000000006 C 76.95694000000006 214.01966000000007 76.71939000000006 213.87232000000006 76.49118000000006 213.71320000000006 C 76.43423000000006 213.65552000000005 76.16714000000006 213.43299000000005 76.11777000000005 213.38385000000005 C 75.96628000000005 213.23303000000004 75.82486000000004 213.07074000000006 75.68900000000005 212.90509000000006 C 75.65574000000005 212.84589000000005 75.42484000000005 212.52100000000007 75.39127000000005 212.46765000000005 C 75.21482000000005 212.18750000000006 75.05381000000006 211.89752000000004 74.90360000000005 211.60254000000006 C 74.47526000000005 210.76105000000007 74.15433000000006 209.83026000000007 73.78245000000005 208.65088000000006 C 73.40849000000006 207.46478000000005 73.07463000000006 206.26618000000005 72.68089000000005 205.08630000000005 C 71.89048000000005 202.71807000000004 70.86235000000005 200.30151000000006 68.83091000000005 198.73687000000004 C 65.59818000000004 196.24694000000005 61.19999000000004 197.11468000000005 58.490340000000046 199.97509000000005 C 55.34892000000005 203.29131000000004 55.23912000000004 207.78771000000006 55.682780000000044 212.06860000000006 C 53.67344000000004 212.29376000000005 51.54405000000004 211.14557000000005 50.13456000000004 209.81616000000005 C 47.731850000000044 207.55011000000005 46.76951000000004 204.29480000000007 46.01182000000004 201.17584000000005 C 45.203710000000044 197.84924000000004 44.543190000000045 194.51819000000006 43.328960000000045 191.30578000000006 C 42.19090000000004 188.29479000000006 40.778730000000046 185.39440000000005 39.15367000000005 182.61730000000006 C 32.67003000000005 171.53753000000006 23.300580000000046 162.47588000000005 16.817000000000046 151.39458000000005 C 13.184000000000047 145.18529000000004 10.927050000000047 138.42290000000006 9.343120000000045 131.42906000000005 C 7.614970000000045 123.79869000000005 6.348430000000045 116.00316000000005 5.2698200000000455 108.25639000000005 C 4.177960000000045 100.41490000000005 3.6240700000000454 92.29344000000006 5.067120000000045 84.46013000000005 C 6.248640000000045 78.04637000000005 8.634990000000045 71.95641000000005 11.840680000000045 66.29167000000005 C 18.391950000000044 54.71495000000005 27.843000000000046 45.09611000000005 37.392560000000046 35.97008000000005 L 36.91453000000005 47.962210000000056 L 36.81816000000005 50.37957000000006 C 36.744370000000046 52.23064000000006 39.18059000000005 53.15661000000006 40.43730000000005 51.87865000000006 C 44.37437000000005 47.87480000000006 48.31151000000005 43.87096000000005 52.24858000000005 39.867110000000054 L 53.080730000000045 39.020860000000056 C 57.73381000000005 40.430890000000055 62.38688000000005 41.84087000000005 67.03989000000004 43.250960000000056 C 68.25949000000004 43.62053000000006 69.85941000000004 42.576890000000056 69.72354000000004 41.20665000000005 C 69.24771000000004 36.40794000000005 68.77182000000005 31.609300000000054 68.29599000000005 26.810650000000052 C 71.73434000000005 26.812240000000052 75.17264000000004 26.813820000000053 78.61099000000004 26.815410000000053 C 80.37021000000004 26.81620000000005 81.04934000000004 25.048140000000053 80.44156000000004 23.625350000000054 C 78.96164000000005 20.160990000000055 77.48184000000003 16.696520000000056 76.00192000000004 13.232100000000054 C 88.66128000000003 7.473190000000054 102.53201000000004 4.458420000000054 116.42996000000005 4.254320000000055 C 130.63914000000005 4.045700000000055 144.81559000000004 6.785570000000055 157.88212000000004 12.391650000000055 C 169.72758000000005 17.473800000000054 180.79460000000003 24.535330000000055 190.05802000000006 33.52568000000005 C 199.18986000000007 42.388290000000055 206.38230000000004 53.08647000000005 210.41605000000004 65.19511000000006 C 214.87454 78.57889 217.14786 92.64255 216.6705 106.7576 z M 112.76632 141.18655 C 113.13595 138.13803000000001 113.86813 135.12533000000002 114.66628 132.16458 C 114.99154 130.9581 115.3431 129.75900000000001 115.69381 128.55972 C 116.74905 128.06662 117.79543 127.556 118.83425 127.04001 C 119.41884 126.7496 120.00838 126.47251 120.59432 126.18581999999999 C 118.53139 132.77231 118.1617 139.99692 120.4435 146.58029 C 123.16188 154.42172 129.92776 161.01839999999999 138.10568 162.43527 C 139.30264 162.64261 140.50442 162.73062000000002 141.70462 162.73031 C 139.51205000000002 163.40225 137.26913000000002 163.92031 134.98392 164.23605 C 129.8906 164.93985 123.97012000000001 164.80801 119.48770000000002 161.70993 C 115.62924000000002 159.04306000000003 113.50955000000002 154.31296 112.73929000000001 149.58487000000002 C 112.57559 148.58005000000003 112.48007000000001 147.14346000000003 112.47470000000001 145.90567000000001 C 112.46792 144.3284 112.5765 142.75186 112.76632 141.18655 z M 165.76962 129.80295 C 162.12478000000002 129.80295 159.17038 126.84830000000001 159.17038 123.20346 C 159.17038 119.55893 162.12479 116.60428 165.76962 116.60428 C 169.41445000000002 116.60428 172.36886 119.55893 172.36886 123.20346 C 172.36887 126.8483 169.41446 129.80295 165.76962 129.80295 z M 146.11624 101.08347 C 146.11612 101.08316 146.11606 101.0828 146.11593 101.08249 C 146.15225 101.10617 146.16031 101.1116 146.11624 101.08347 z M 146.14841 101.16403 C 146.15897 101.18472 146.15738 101.18301 146.14841 101.16403 L 146.14841 101.16403 z" stroke-linecap="round" />
</g>
		<g transform="matrix(1 0 0 1 -72.26715172572123 -2.486284647709475)" id="path-01"  >
<path style="stroke: none; stroke-width: 1; stroke-dasharray: none; stroke-linecap: butt; stroke-dashoffset: 0; stroke-linejoin: miter; stroke-miterlimit: 4; fill: rgb(0,0,0); fill-rule: nonzero; opacity: 1;"  paint-order="stroke"  transform=" translate(-38.21815127708299, -122.51371776702953)" d="M 63.91739 128.8602 C 63.61112 127.66994999999999 62.688199999999995 126.67239 61.95529 125.70633 C 58.380219999999994 120.99355999999999 54.251189999999994 116.74857 49.589079999999996 113.103 C 40.584199999999996 106.06156 29.928859999999997 101.10739 18.651519999999994 99.11594 C 18.358249999999995 98.94363999999999 18.018829999999994 98.83585 17.628999999999994 98.83585 C 17.502229999999994 98.83585 17.373929999999994 98.85154 17.246429999999993 98.87795999999999 C 16.840299999999992 98.81514999999999 16.433009999999992 98.75985999999999 16.025789999999994 98.70364 C 19.091709999999992 92.75344 23.980869999999992 87.68294999999999 29.797819999999994 84.33095999999999 C 32.161469999999994 82.96896 30.028589999999994 79.30362 27.657809999999994 80.66982999999999 C 20.074369999999995 85.0397 14.231419999999995 91.83926 10.853369999999995 99.88644 C 10.268899999999995 101.27877 11.702309999999995 102.45595999999999 12.897679999999994 102.57009 C 13.837739999999995 102.65981 14.775729999999994 102.78017 15.712319999999995 102.91444999999999 C 17.051429999999996 115.27375999999998 19.793009999999995 127.52425 24.829869999999993 138.92213999999998 C 27.203099999999992 144.29261999999997 30.08151999999999 149.45460999999997 33.783789999999996 154.02834 C 37.444559999999996 158.55074 42.190039999999996 162.41566999999998 47.87179999999999 164.01594999999998 C 51.00918999999999 164.89955999999998 54.35068 164.95808999999997 57.369049999999994 163.63685999999998 C 59.775119999999994 162.5837 61.38741999999999 160.55927999999997 62.45602999999999 158.21022 C 63.53653999999999 155.83516 64.23226999999999 153.32466 64.73537999999999 150.76972999999998 C 65.30478 147.87830999999997 65.71163999999999 144.93477 65.71767999999999 141.98421 C 65.72475999999999 138.52589999999998 65.19960999999999 135.08454999999998 64.56362999999999 131.69338 C 64.38387 130.73495 64.16012 129.80374 63.91739 128.8602 z M 52.95956 137.87814 C 50.100370000000005 137.87814 47.78213 135.25393 47.78213 132.01724000000002 C 47.78213 128.78048 50.100370000000005 126.15658000000002 52.95956 126.15658000000002 C 55.81973000000001 126.15658000000002 58.137480000000004 128.78048 58.137480000000004 132.01724000000002 C 58.13748 135.25394 55.81973 137.87814 52.95956 137.87814 z M 20.25479 105.48325 C 20.17886 104.88883 20.12356 104.29203 20.05521 103.69669 C 25.300819999999998 104.83524 30.42868 106.65067 35.276399999999995 109.04972000000001 C 33.73367999999999 110.78361000000001 32.70119999999999 114.33256 32.1536 115.8729 C 31.028359999999996 119.0416 30.300629999999998 122.34586 29.848239999999997 125.67447 C 29.209509999999998 130.36929 29.124359999999996 135.21719 29.928869999999996 139.87033 C 29.890049999999995 139.79086 29.848909999999997 139.71224999999998 29.810339999999997 139.63272 C 24.70816 129.11392 21.75546 117.23117 20.25479 105.48325 z" stroke-linecap="round" />
</g>
		<g transform="matrix(1 0 0 1 -9.93544415896536 22.818940758252054)" id="path-01"  >
<path style="stroke: none; stroke-width: 1; stroke-dasharray: none; stroke-linecap: butt; stroke-dashoffset: 0; stroke-linejoin: miter; stroke-miterlimit: 4; fill: rgb(0,0,0); fill-rule: nonzero; opacity: 1;"  paint-order="stroke"  transform=" translate(-100.54985884383885, -147.81894317299106)" d="M 100.03133 159.81522 C 100.50556999999999 160.8574 102.01552 161.11179 102.9319 160.57578 C 104.00301 159.94932 104.16853 158.72135 103.69246 157.67521000000002 C 100.81026 151.34153000000003 100.67049 143.98948000000001 103.01503 137.47501000000003 C 103.40285 136.39762000000002 102.5779 135.15390000000002 101.53432 134.86710000000002 C 100.35749999999999 134.54374 99.31563 135.26651 98.92647 136.34787000000003 C 96.17947 143.98026 96.68606 152.46414 100.03133 159.81522 z" stroke-linecap="round" />
</g>
		<g transform="matrix(1 0 0 1 71.39400568481507 16.538123868856097)" id="path-01"  >
<path style="stroke: none; stroke-width: 1; stroke-dasharray: none; stroke-linecap: butt; stroke-dashoffset: 0; stroke-linejoin: miter; stroke-miterlimit: 4; fill: rgb(0,0,0); fill-rule: nonzero; opacity: 1;"  paint-order="stroke"  transform=" translate(-181.8793086876193, -141.5381262835951)" d="M 191.05905 127.09659 C 189.90274000000002 126.77890000000001 188.8154 127.48752 188.45114 128.57736 C 185.32260000000002 137.93777 179.44748 146.24826 171.74527 152.45535 C 170.85306 153.17441000000002 170.99667 154.70492000000002 171.74527 155.45352 C 172.62704 156.33529 173.84903 156.17435 174.7435 155.45352 C 183.00052000000002 148.79928 189.18192000000002 139.75088 192.53976 129.7045 C 192.90268 128.61868 192.12051 127.38828 191.05905 127.09659 z" stroke-linecap="round" />
</g>
		<g transform="matrix(1 0 0 1 -38.654732009325194 13.000063036630998)" id="path-01"  >
<path style="stroke: none; stroke-width: 1; stroke-dasharray: none; stroke-linecap: butt; stroke-dashoffset: 0; stroke-linejoin: miter; stroke-miterlimit: 4; fill: rgb(0,0,0); fill-rule: nonzero; opacity: 1;"  paint-order="stroke"  transform=" translate(-71.83057099347903, -138.00006545137)" d="M 68.67165 127.74136 C 70.67055 134.57162 71.28267 141.67898 70.53115 148.75521 C 70.41 149.89547000000002 71.59219 150.87521 72.65115 150.87521 C 73.8981 150.87521 74.64975 149.89877 74.77121 148.75521 C 75.55910999999999 141.33669 74.85538 133.77303 72.76028 126.61416 C 71.99551 124.00082 67.90249 125.11288 68.67172 127.74136 C 68.67171 127.74136 68.67171 127.74136 68.67165 127.74136 z" stroke-linecap="round" />
</g>
		<g transform="matrix(1 0 0 1 -89.09249814124547 18.681082641329596)" id="path-01"  >
<path style="stroke: none; stroke-width: 1; stroke-dasharray: none; stroke-linecap: butt; stroke-dashoffset: 0; stroke-linejoin: miter; stroke-miterlimit: 4; fill: rgb(0,0,0); fill-rule: nonzero; opacity: 1;"  paint-order="stroke"  transform=" translate(-21.39280486155876, -143.68108505606858)" d="M 17.57058 132.1915 C 16.80624 129.57791 12.71322 130.69003999999998 13.48196 133.31864 C 15.92886 141.6854 20.14517 149.41575 25.79696 156.04586999999998 C 26.54019 156.91769999999997 28.030849999999997 156.81015 28.79513 156.04586999999998 C 29.65908 155.18192 29.54019 153.92165999999997 28.79513 153.04763999999997 C 23.62814 146.98624 19.8049 139.83139 17.57058 132.1915 z" stroke-linecap="round" />
</g>
		<g transform="matrix(1 0 0 1 58.84406467759884 -99.00834630366364)" id="path-01"  >
<path style="stroke: none; stroke-width: 1; stroke-dasharray: none; stroke-linecap: butt; stroke-dashoffset: 0; stroke-linejoin: miter; stroke-miterlimit: 4; fill: rgb(0,0,0); fill-rule: nonzero; opacity: 1;"  paint-order="stroke"  transform=" translate(-169.32936768040304, -25.991656111075358)" d="M 157.29959 16.09012 C 156.2438 15.64566 154.96713 16.568569999999998 154.69173999999998 17.570829999999997 C 154.35537999999997 18.79489 155.11257999999998 19.732629999999997 156.17244999999997 20.178739999999998 C 164.99977999999996 23.894679999999997 173.24007999999998 29.093899999999998 180.43617999999998 35.406769999999995 C 181.29646999999997 36.161469999999994 182.58748999999997 36.253569999999996 183.43434999999997 35.406769999999995 C 184.20436999999995 34.63674999999999 184.29866999999996 33.166779999999996 183.43434999999997 32.408539999999995 C 175.64572 25.57596 166.8439 20.10794 157.29959 16.09012 z" stroke-linecap="round" />
</g>
		<g transform="matrix(1 0 0 1 -89.83771984037774 -61.83708255394512)" id="path-01"  >
<path style="stroke: none; stroke-width: 1; stroke-dasharray: none; stroke-linecap: butt; stroke-dashoffset: 0; stroke-linejoin: miter; stroke-miterlimit: 4; fill: rgb(0,0,0); fill-rule: nonzero; opacity: 1;"  paint-order="stroke"  transform=" translate(-20.64758316242648, -63.16291986079388)" d="M 15.48422 72.30551 C 16.71036 72.58475 17.64859 71.92978 18.09213 70.8248 C 18.52786 69.73929 19.08963 68.5286 19.706390000000003 67.34781 C 20.34549 66.12429999999999 21.04343 64.93149 21.79672 63.77475 C 23.28402 61.49075 24.8486 59.556979999999996 26.79147 57.56424 C 27.59073 56.744479999999996 27.60836 55.3829 26.79147 54.566069999999996 C 25.98733 53.761869999999995 24.59524 53.7435 23.793300000000002 54.566069999999996 C 19.54446 58.92404 16.267850000000003 64.05678999999999 14.003510000000002 69.6976 C 13.58932 70.72952 14.45443 72.07095 15.48422 72.30551 z" stroke-linecap="round" />
</g>
		<g transform="matrix(1 0 0 1 -2.2194512208111092 110.59496830975712)" id="path-01"  >
<path style="stroke: none; stroke-width: 1; stroke-dasharray: none; stroke-linecap: butt; stroke-dashoffset: 0; stroke-linejoin: miter; stroke-miterlimit: 4; fill: rgb(0,0,0); fill-rule: nonzero; opacity: 1;"  paint-order="stroke"  transform=" translate(-108.2658517819931, -235.59497072449614)" d="M 116.52297 228.06345 C 115.58535 227.51505 114.13363 227.79447 113.62234 228.82401 L 113.62234 228.82406999999998 C 112.23232999999999 231.62326 110.84218999999999 234.42251999999996 109.45217 237.22177999999997 C 106.85189 238.56808999999996 104.04507 239.21261999999996 101.10915 239.15805999999998 C 99.96352 239.13675999999998 98.98909 240.14767999999998 98.98909 241.27811999999997 C 98.98909 242.44498999999996 99.95973000000001 243.37674999999996 101.10915 243.39817999999997 C 104.69533 243.46482999999998 108.25545 242.62339999999998 111.441 240.97782999999995 C 111.99294 240.69272999999995 112.5306 240.40574999999995 112.86800000000001 239.85575999999995 C 113.11214000000001 239.45786999999996 113.29116 239.00364999999994 113.4988 238.58549999999994 L 114.69729000000001 236.17204999999993 C 115.55935000000001 234.43608999999992 116.42147000000001 232.70006999999993 117.28353000000001 230.96409999999992 C 117.7925 229.93906 117.55801 228.66885 116.52297 228.06345 z" stroke-linecap="round" />
</g>
</g>
</g>
</svg>