<?xml version="1.0" encoding="UTF-8" standalone="no" ?>
<!DOCTYPE svg PUBLIC "-//W3C//DTD SVG 1.1//EN" "http://www.w3.org/Graphics/SVG/1.1/DTD/svg11.dtd">
<svg xmlns="http://www.w3.org/2000/svg" xmlns:xlink="http://www.w3.org/1999/xlink" version="1.1" width="690" height="210" viewBox="250 200 800 500" xml:space="preserve">
<desc>Created with Fabric.js 4.4.0</desc>
<defs>
</defs>
<g transform="matrix(1 0 0 1 640 512)" id="background-logo"  >
<rect style="stroke: none; stroke-width: 0; stroke-dasharray: none; stroke-linecap: butt; stroke-dashoffset: 0; stroke-linejoin: miter; stroke-miterlimit: 4; fill: rgb(255,255,255); fill-opacity: 0; fill-rule: nonzero; opacity: 1;"  paint-order="stroke"  x="-640" y="-512" rx="0" ry="0" width="1280" height="1024" />
</g>
<g transform="matrix(1.1794733560119237 0 0 1.1794733560119237 649.5504150428669 340.7630420041118)" id="shape-4d50e191-317b-4a85-9ef5-609ba877dcca"  >
<g style=""  paint-order="stroke"   >
		<g transform="matrix(1 0 0 1 0.0024688455831665124 0.00021982690248023573)" id="Path-3"  >
<path style="stroke: none; stroke-width: 1; stroke-dasharray: none; stroke-linecap: butt; stroke-dashoffset: 0; stroke-linejoin: miter; stroke-miterlimit: 4; fill: rgb(135,195,221); fill-rule: nonzero; opacity: 1;"  paint-order="stroke"  transform=" translate(-106.31864277775061, -118.29147982690247)" d="M 113.6466 189.07475 L 113.6466 189.07475 C 113.6466 201.94468 104.79333000000001 208.38411 92.2467 211.25066999999999 C 72.85915 215.68018999999998 57.85168 216.43554999999998 44.30946 216.58592 C 33.05644 216.71087 23.880360000000003 207.60132 23.880360000000003 196.34759 L 23.880360000000003 156.52462 L 10.923290000000003 155.32781 C 6.049920000000003 154.64637 3.167100000000003 149.50805 5.125430000000003 144.99373 L 19.21882 112.50582 L 19.50328 111.8824 C 18.95161 107.74602 18.63944 103.53371 18.63944 99.24643 C 18.63944 46.83276 61.19963 4.35951 113.64625000000001 4.50057000000001 C 164.06336000000002 4.636170000000011 206.10284000000001 45.09691000000001 208.05870000000002 95.47626000000001 C 209.06029 121.27534000000001 199.73172000000002 144.88367 183.88956000000002 162.52339 L 183.88956000000002 162.52839 L 183.88956000000002 232.08274 L 79.67773 232.08274 L 79.67773 215.41175" stroke-linecap="round" />
</g>
		<g transform="matrix(1 0 0 1 7.533221067832542 -31.036029999999982)" id="Path-2"  >
<path style="stroke: none; stroke-width: 1; stroke-dasharray: none; stroke-linecap: butt; stroke-dashoffset: 0; stroke-linejoin: miter; stroke-miterlimit: 4; fill: rgb(252,232,53); fill-rule: nonzero; opacity: 1;"  paint-order="stroke"  transform=" translate(-113.84939499999999, -87.25523000000001)" d="M 150.45062 133.15558 C 144.46456999999998 139.47333999999998 140.86522 147.67395 140.86522 156.37721 L 140.86522 157.48703 L 86.83338 157.48703 L 86.83338 156.37749 C 86.83338 147.99184 83.76229000000001 139.79829999999998 77.88553 133.81644 C 68.25746000000001 124.01619 62.60288 110.30267 63.54302 95.27437 C 65.11275 70.18179 85.53735 49.76444000000001 110.63060999999999 48.20564 C 139.92807 46.385670000000005 164.25707 69.60827 164.25707 98.51325 C 164.25706 111.93539 159.00639 124.12571 150.45062 133.15558 z M 118.34892 32.42773 L 118.34892 21.523429999999998 C 118.34892 19.038079999999997 116.33427 17.023429999999998 113.84892 17.023429999999998 C 111.36357000000001 17.023429999999998 109.34892 19.038079999999997 109.34892 21.523429999999998 L 109.34892 32.42773 C 109.34892 34.913079999999994 111.36357000000001 36.92773 113.84892 36.92773 C 116.33427 36.92773 118.34892 34.91309 118.34892 32.42773 z M 195.29324 98.4668 C 195.29324 95.98145000000001 193.27859 93.9668 190.79324 93.9668 L 179.88894 93.9668 C 177.40358999999998 93.9668 175.38894 95.98145000000001 175.38894 98.4668 C 175.38894 100.95215 177.40358999999998 102.9668 179.88894 102.9668 L 190.79324 102.9668 C 193.27859 102.9668 195.29324 100.95215 195.29324 98.4668 z M 52.30985 98.4668 C 52.30985 95.98145000000001 50.295199999999994 93.9668 47.80985 93.9668 L 36.90555 93.9668 C 34.4202 93.9668 32.40555 95.98145000000001 32.40555 98.4668 C 32.40555 100.95215 34.4202 102.9668 36.90555 102.9668 L 47.80985 102.9668 C 50.2952 102.9668 52.30985 100.95215 52.30985 98.4668 z M 163.72781 54.95215 L 171.43875 47.2417 C 173.19656 45.48438 173.19656 42.63525 171.43875 40.87793 C 169.68289 39.12012 166.83133 39.12061 165.07547 40.87744 L 157.36453 48.58789 C 155.60672 50.34521 155.60672 53.194340000000004 157.36453 54.951660000000004 C 158.24246 55.83057 159.3948 56.27002 160.54617 56.27002 C 161.69753999999998 56.27002 162.84988 55.83057 163.72781 54.95215 z M 62.62431 156.05615 L 70.33476 148.34521 C 72.09208000000001 146.58837 72.09208000000001 143.73876 70.33427 141.98193 C 68.57743 140.22412 65.72831000000001 140.22412 63.9705 141.98193 L 56.26005 149.69287 C 54.50273 151.44971 54.50273 154.29932 56.26054 156.05615 C 57.13896 156.93506 58.29033 157.37451000000001 59.44218 157.37451000000001 C 60.594030000000004 157.37451000000001 61.7454 156.93506 62.62431 156.05615 z M 171.43875 156.05615 C 173.19656 154.29931 173.19656 151.4497 171.43875 149.69287 L 163.72781 141.98193 C 161.97195 140.22412 159.12039000000001 140.22412 157.36453 141.98193 C 155.60672 143.73877000000002 155.60672 146.58838 157.36453 148.34521 L 165.07547 156.05615 C 165.9534 156.93506 167.10574 157.37451000000001 168.25710999999998 157.37451000000001 C 169.40847999999997 157.37451000000001 170.56082 156.93506 171.43875 156.05615 z M 70.33475 54.95215 C 72.09207 53.19483 72.09207 50.345220000000005 70.33475 48.58789 L 62.6243 40.87744 C 60.86649 39.1206 58.017849999999996 39.1206 56.26004 40.87744 C 54.50272 42.63476 54.50272 45.48437 56.26004 47.2417 L 63.97049 54.95215 C 64.8494 55.83057 66.00076 56.27002 67.15262 56.27002 C 68.30448 56.27002 69.45585 55.83057 70.33475 54.95215 z" stroke-linecap="round" />
</g>
		<g transform="matrix(1 0 0 1 0 0)" id="Path-1"  >
<path style="stroke: none; stroke-width: 1; stroke-dasharray: none; stroke-linecap: butt; stroke-dashoffset: 0; stroke-linejoin: miter; stroke-miterlimit: 4; fill: rgb(76,89,114); fill-rule: nonzero; opacity: 1;"  paint-order="stroke"  transform=" translate(-106.31617393216744, -118.29126)" d="M 212.55594 95.30127 C 211.56473 69.77441 200.76492 45.83936 182.14774 27.90625 C 163.53738 9.97949 139.21317 0.06934 113.65751 0.00049 C 113.56571 0.00049 113.47587 0 113.3831 0 C 86.92313 0 62.04325 10.28369 43.30302 28.97363 C 24.49686 47.72949 14.13944 72.68652 14.13944 99.24658 C 14.13944 103.12597 14.38846 107.1416 14.88016 111.20018999999999 L 0.9968599999999999 143.20361 C -0.5007000000000001 146.65576 -0.3034300000000001 150.51806 1.53788 153.80029 C 3.37919 157.08154 6.573040000000001 159.26317999999998 10.2996 159.78466999999998 C 10.36942 159.79443999999998 10.43925 159.80225 10.50907 159.80810999999997 L 19.38016 160.62841999999998 L 19.38016 196.34716999999998 C 19.38016 203.01220999999998 21.989539999999998 209.26415999999998 26.72782 213.94970999999998 C 31.455360000000002 218.62646999999998 37.75761 221.18310999999997 44.359170000000006 221.08544999999998 C 53.57255000000001 220.98388999999997 63.56669000000001 220.60303 75.17753 218.97803 L 75.17753 232.08252 C 75.17753 234.56787 77.19218000000001 236.58252 79.67753 236.58252 L 183.88992000000002 236.58252 C 186.37527000000003 236.58252 188.38992000000002 234.56787 188.38992000000002 232.08252 L 188.38992000000002 164.22411999999997 C 204.97 145.11084 213.54129 120.70459 212.55594 95.30127 z M 180.54227 159.51611 C 179.80008 160.34228 179.38993 161.41845 179.38993 162.52881 L 179.38993 227.58252 L 84.17753 227.58252 L 84.17753 217.51415999999998 C 87.09745000000001 216.97411999999997 90.11796000000001 216.35303 93.24931000000001 215.63720999999998 C 113.82743 210.93604 118.14677 198.59814999999998 118.14677 189.07470999999998 C 118.14677 186.58935999999997 116.13212 184.57470999999998 113.64677 184.57470999999998 C 111.16142 184.57470999999998 109.14677 186.58935999999997 109.14677 189.07470999999998 C 109.14677 194.95557 107.29081000000001 203.19776 91.24443000000001 206.86377 C 72.23320000000001 211.20752 57.42754000000001 211.94091999999998 44.25957000000001 212.08544999999998 C 40.00859000000001 212.14013999999997 36.059860000000015 210.52196999999998 33.05645000000001 207.55029 C 30.04082000000001 204.56884 28.380180000000014 200.58935 28.380180000000014 196.34716999999998 L 28.380180000000014 156.5249 C 28.380180000000014 154.1997 26.609180000000013 152.2583 24.294240000000013 152.04443 L 11.464160000000012 150.85888 C 10.261040000000012 150.65868 9.647750000000013 149.86083 9.387010000000013 149.39599 C 9.120410000000012 148.9204 8.748340000000013 147.9497 9.253710000000012 146.78466 L 23.313770000000012 114.37206 L 23.59795000000001 113.74852 C 23.94902000000001 112.97899 24.075490000000013 112.12595999999999 23.96367000000001 111.28709 C 23.41679000000001 107.18699000000001 23.13945000000001 103.13621 23.13945000000001 99.24656 C 23.13945000000001 75.0947 32.55742000000001 52.40135 49.658490000000015 35.34617 C 66.70048 18.3501 89.32157 9 113.38407 9 C 113.4661 9 113.55105999999999 9 113.63407 9.00049 C 161.37039 9.12891 201.71219 48 203.5618 95.65039 C 204.47879 119.28418 196.30399 141.96533 180.54227 159.51611 z M 151.44559 58.49561 C 140.28836 48.01026 125.68974000000001 42.75879 110.35087000000001 43.71436 C 82.82743000000002 45.42432 60.77323000000001 67.46973 59.05204000000001 94.99316999999999 C 58.077430000000014 110.57081 63.77177000000001 125.87061 74.67558000000001 136.97119999999998 C 79.54228 141.92334999999997 82.33329 148.99757 82.33329 156.37744999999998 L 82.33329 157.48682999999997 C 82.33329 159.97217999999998 84.34794000000001 161.98682999999997 86.83329 161.98682999999997 L 140.86551 161.98682999999997 C 143.35086 161.98682999999997 145.36551 159.97217999999998 145.36551 157.48682999999997 L 145.36551 156.37744999999998 C 145.36551 149.08155 148.33133 141.93408999999997 153.71707 136.2505 C 163.41629 126.01417 168.75711 112.61182999999998 168.75711 98.51319999999998 C 168.75711 83.42139 162.44754 68.83545 151.44559 58.49561 z M 147.18387 130.06006 C 141.03153 136.55321999999998 137.31668000000002 144.58936 136.52469000000002 152.98682 L 91.18827 152.98682 C 90.45243 144.43409 86.93388 136.60497999999998 81.0955 130.66358 C 71.97978 121.38331 67.21904 108.58740999999999 68.03446 95.55518 C 69.47294 72.55126999999999 87.90554999999999 54.12597999999999 110.90946 52.69677999999999 C 123.73465999999999 51.90038999999999 135.95436999999998 56.28710999999999 145.28152 65.05371 C 154.61648 73.82665999999999 159.75711 85.70947 159.75711 98.51318 C 159.75711 110.29932 155.29227 121.50342 147.18387 130.06006 z M 141.08231 173.39014 C 141.08231 175.87549 139.06766000000002 177.89014 136.58231 177.89014 L 91.11649 177.89014 C 88.63114 177.89014 86.61649 175.87549 86.61649 173.39014 C 86.61649 170.90479 88.63114 168.89014 91.11649 168.89014 L 136.5823 168.89014 C 139.06766 168.89014 141.08231 170.90479 141.08231 173.39014 z M 148.02097 88.53735 C 147.24009 85.73089 146.12333 83.06475 144.7147 80.58288 C 141.22208999999998 80.77471 137.66624 79.55096 134.99821 76.88293 C 132.33024 74.21496 131.10643 70.65918 131.2982 67.16662 C 128.81627 65.75792999999999 126.15014000000001 64.64129 123.34362000000002 63.860409999999995 C 121.00945000000002 66.4704 117.62652000000001 68.1228 113.84942000000001 68.1228 C 110.07226000000001 68.1228 106.68914000000001 66.47033 104.35504 63.86029 C 101.54858 64.64104999999999 98.88244 65.75769 96.40057 67.16632 C 96.59246 70.65899999999999 95.36871000000001 74.21484 92.70062 76.88293 C 90.03253 79.55102000000001 86.47656 80.77478 82.98395 80.58288 C 81.57531999999999 83.06475 80.4588 85.73083 79.67786 88.53729 C 82.28802999999999 90.87146 83.94049 94.25451 83.94049 98.03174 C 83.94049 101.80897 82.28796 105.19208 79.67773 107.52625 C 80.45855 110.33271 81.57518999999999 112.99878000000001 82.9837 115.48060000000001 C 86.47644 115.28871000000001 90.03253 116.51246 92.70062 119.18055000000001 C 95.36871000000001 121.84864000000002 96.59247 125.40467000000001 96.40057 128.89729 C 98.88244 130.30592 101.54864 131.42238 104.35504 132.2032 C 106.68921 129.59309000000002 110.07220000000001 127.94063000000001 113.84942000000001 127.94063000000001 C 117.62652000000001 127.94063000000001 121.00945000000002 129.59310000000002 123.34368 132.20308 C 126.15014000000001 131.42226 128.81627 130.30562 131.2982 128.89699 C 131.10637 125.40444 132.33018 121.84858999999999 134.99821 119.18055999999999 C 137.6663 116.51246999999998 141.22227 115.28870999999998 144.71488 115.48060999999998 C 146.12357 112.99873999999998 147.24026999999998 110.33265999999999 148.02109 107.52619999999999 C 145.41091999999998 105.19209 143.75833 101.80897999999999 143.75833 98.03174999999999 C 143.75833 94.25451999999999 145.4108 90.87152 148.02097 88.53735 z M 113.84873 114.50391 C 104.76578 114.50391 97.37693 107.11499 97.37693 98.03205 C 97.37693 88.94910999999999 104.76578 81.55958 113.84873 81.55958 C 122.93235 81.55958 130.32187 88.94910999999999 130.32187 98.03205 C 130.32187 107.11499 122.93235 114.50391 113.84873 114.50391 z" stroke-linecap="round" />
</g>
</g>
</g>
<g transform="matrix(3.003929798968625 0 0 3.0039297989686244 649.5504150428669 567.0204565803309)" id="shape-8663e6e0-49f8-4065-acfa-67b349c82cf3"  >
<g style=""  paint-order="stroke"   >
		<g transform="matrix(1 0 0 1 62.369389247280154 -39.75934988525348)" id="path-01"  >
<linearGradient id="SVGID_20976" gradientUnits="userSpaceOnUse" gradientTransform="matrix(1 0 0 1 164.0955559992509 0.00000169814551398417)"  x1="0" y1="0" x2="0" y2="6">
<stop offset="0%" style="stop-color:rgb(48,35,174);stop-opacity: 1"/>
<stop offset="100%" style="stop-color:rgb(200,109,215);stop-opacity: 1"/>
</linearGradient>
<path style="stroke: none; stroke-width: 1; stroke-dasharray: none; stroke-linecap: butt; stroke-dashoffset: 0; stroke-linejoin: miter; stroke-miterlimit: 4; fill: url(#SVGID_20976); fill-rule: nonzero; opacity: 1;"  paint-order="stroke"  transform=" translate(-187.3694021295371, -3.0854473843949806)" d="M 177.03323 4.46232 C 173.05735 3.75877 169.01336 2.93012 164.92884 2.38001 C 163.78574 2.22605 163.83215 1.1103 164.9854 0.99512 C 176.98369 -0.20328999999999997 189.18892 -0.3312299999999999 201.25014 0.6762600000000001 C 204.12444 0.9077000000000001 209.30207 1.00313 210.44361999999998 3.23666 C 211.07551999999998 4.4762900000000005 210.1582 5.19786 208.38474999999997 5.45689 C 206.28519999999997 5.756489999999999 204.10402999999997 5.8928199999999995 201.96367999999995 6.01519 C 193.54482999999996 6.478389999999999 185.18707999999995 5.89283 177.03322999999995 4.46233 L 177.03323 4.46232 z" stroke-linecap="round" />
</g>
		<g transform="matrix(1 0 0 1 -122.27770503642726 36.33014368112306)" id="path-01"  >
<linearGradient id="SVGID_20977" gradientUnits="userSpaceOnUse" gradientTransform="matrix(1 0 0 1 5.8601460439789e-7 72.66028906039163)"  x1="0" y1="0" x2="0" y2="13">
<stop offset="0%" style="stop-color:rgb(48,35,174);stop-opacity: 1"/>
<stop offset="100%" style="stop-color:rgb(200,109,215);stop-opacity: 1"/>
</linearGradient>
<path style="stroke: none; stroke-width: 1; stroke-dasharray: none; stroke-linecap: butt; stroke-dashoffset: 0; stroke-linejoin: miter; stroke-miterlimit: 4; fill: url(#SVGID_20977); fill-rule: nonzero; opacity: 1;"  paint-order="stroke"  transform=" translate(-2.7223078458296626, -79.17494095077151)" d="M 4.12177 73.27008 C 4.00291 72.56961999999999 3.05962 72.43271999999999 2.7433299999999994 73.06891999999999 C 1.9344599999999994 74.6959 0.8721599999999994 76.98441999999999 0.4790999999999994 78.51164999999999 C -0.1238200000000006 80.83530999999999 -0.6718900000000005 84.55107999999998 2.2438599999999997 85.55971 C 3.41673 85.96513999999999 4.458 85.38441999999999 4.99517 84.33192 C 5.6638 83.02759 5.44455 81.48214 5.23629 80.09002 C 4.9603 78.2522 4.46382 75.28571 4.12177 73.27008 z" stroke-linecap="round" />
</g>
		<g transform="matrix(1 0 0 1 0.7021152609202375 -5.182245909494377)" id="path-01"  >
<linearGradient id="SVGID_20978" gradientUnits="userSpaceOnUse" gradientTransform="matrix(1 0 0 1 1.4042311078550966 2.667320000000011)"  x1="0" y1="0" x2="0" y2="70">
<stop offset="0%" style="stop-color:rgb(48,35,174);stop-opacity: 1"/>
<stop offset="100%" style="stop-color:rgb(200,109,215);stop-opacity: 1"/>
</linearGradient>
<path style="stroke: none; stroke-width: 1; stroke-dasharray: none; stroke-linecap: butt; stroke-dashoffset: 0; stroke-linejoin: miter; stroke-miterlimit: 4; fill: url(#SVGID_20978); fill-rule: nonzero; opacity: 1;"  paint-order="stroke"  transform=" translate(-125.70212814317716, -37.662551360154076)" d="M 244.45203 47.63067 C 243.82724000000002 47.049690000000005 243.11472 46.56718 242.35839 46.172720000000005 C 241.61303 45.788970000000006 240.81289 45.52591 240.17710000000002 44.96687000000001 C 239.59618000000003 44.46269000000001 239.12485000000004 43.717400000000005 239.07000000000002 42.92821000000001 C 239.05909000000003 42.70877000000001 239.08097 42.50057000000001 239.12486 42.292370000000005 C 239.10293000000001 42.171940000000006 239.10293000000001 42.05125 239.14674000000002 41.908620000000006 C 240.03462000000002 38.65341000000001 237.69984000000002 35.91308000000001 235.06916 34.345420000000004 C 234.30186 33.885130000000004 233.67724 33.14808000000001 232.88787000000002 32.690250000000006 C 226.62107000000003 29.055550000000007 218.55045 30.585760000000008 211.34887000000003 29.741720000000008 C 215.72242000000003 29.65395000000001 220.08500000000004 29.566430000000008 224.45861000000002 29.47866000000001 C 226.31109000000004 29.445740000000008 228.17446 29.41283000000001 230.01601000000002 29.22657000000001 C 230.73941000000002 29.14977000000001 232.59584 28.93837000000001 233.73185 28.52490000000001 C 234.64671 28.19191000000001 235.46377 27.582370000000008 236.29684 27.08890000000001 C 237.46972 26.38749000000001 238.59869 25.52151000000001 239.42079 24.41441000000001 C 239.81538 23.86635000000001 240.15526 23.26368000000001 240.36345 22.61687000000001 C 240.68137 21.64143000000001 240.26483 21.04948000000001 239.64005 20.31488000000001 C 239.15775 19.72320000000001 238.62066000000002 19.17512000000001 238.06162 18.65971000000001 C 237.71084000000002 18.34179000000001 237.43337 17.902270000000012 236.9984 17.71718000000001 C 235.03032000000002 16.87974000000001 232.76728 17.09231000000001 230.94773 15.91937000000001 C 230.03791 15.33865000000001 230.60792 13.792940000000009 231.70406 14.13280000000001 C 234.20319 14.90004000000001 236.80103 15.33866000000001 239.42079999999999 15.05338000000001 C 240.70332 14.92198000000001 241.99676 14.58212000000001 243.18051999999997 14.05600000000001 C 244.19992999999997 13.59571000000001 245.70167999999998 12.90501000000001 246.08530999999996 11.73234000000001 C 246.46892999999997 10.61427000000001 245.60300999999995 9.45230000000001 244.69319999999996 8.88229000000001 C 243.53128999999996 8.13699000000001 242.01861999999997 8.10408000000001 240.67039999999997 8.12602000000001 C 237.49159999999998 8.180610000000009 234.31283999999997 8.46588000000001 231.14500999999998 8.65214000000001 C 219.65757 9.33188000000001 208.13720999999998 9.67147000000001 196.63878 9.93453000000001 C 190.89507 10.06619000000001 185.14038 10.21953000000001 179.39658 10.110080000000009 C 173.70766 10.00036000000001 168.10643 9.41938000000001 162.47229 8.608250000000009 C 156.98071 7.8081000000000085 151.53289999999998 7.369750000000009 145.97552 7.6437800000000085 C 140.64833 7.917810000000008 135.36497 8.641160000000008 130.08160999999998 9.33187000000001 C 120.07390999999998 10.625230000000009 109.48530999999998 12.082910000000009 99.52143999999998 9.71536000000001 C 97.07708999999998 10.16468000000001 94.56695999999998 10.24148000000001 92.12253999999999 9.82482000000001 C 90.96063999999998 9.61662000000001 91.26758999999998 7.80811000000001 92.38559 7.81908000000001 C 96.3317 7.85200000000001 100.25589 7.58893000000001 103.9827 6.185860000000011 C 104.87057 5.85697000000001 107.77534 4.95806000000001 106.50379 3.5772000000000106 C 105.90092999999999 2.9194200000000103 104.82674 2.8426100000000107 103.99367 2.7658000000000107 C 103.07289 2.6999700000000106 102.16315 2.667320000000011 101.24237 2.667320000000011 C 97.38401999999999 2.6782900000000107 93.55847999999999 3.291930000000011 89.75493 3.8619300000000107 C 86.01709 4.409990000000011 82.2793 4.903470000000011 78.50861 5.210150000000011 C 76.60135000000001 5.363750000000011 74.68383 5.532620000000011 72.76489000000001 5.517100000000011 C 71.71483 5.508540000000011 69.30330000000001 5.376610000000011 63.54223000000001 5.903260000000011 C 57.79244 6.42884 52.08135 7.3454 46.30424 7.66573 C 35.69369 8.24644 25.05023 8.12602 14.46163 7.28198 C 11.75415 7.06281 9.05771 6.76683 6.35023 6.50377 C 4.92527 6.3721 1.29707 5.55 1.40666 7.96171 C 1.49437 9.97842 3.29204 11.4254 5.03492 12.12679 C 7.40254 13.08055 9.89078 12.71874 12.33513 13.21195 C 13.33258 13.42042 13.29973 14.97684 12.33513 15.20699 C 10.70191 15.590739999999998 8.7727 15.61268 6.898289999999999 15.27282 C 6.996969999999999 15.73311 6.29543 16.46743 6.109109999999999 16.675639999999998 C 5.36375 17.53092 4.815689999999999 18.506359999999997 4.464919999999999 19.59152 C 4.1141499999999995 20.69862 3.9058799999999994 21.849619999999998 4.311439999999999 22.967689999999997 C 4.662209999999999 23.932159999999996 5.26507 24.776199999999996 5.484309999999999 25.78456 C 5.977579999999999 28.0646 4.125119999999999 29.68686 3.905869999999999 31.86814 C 3.818159999999999 32.8219 3.6318399999999986 34.27957 4.015449999999999 35.17848 C 4.486849999999999 36.26364 5.7692999999999985 35.55126 6.613279999999999 35.87989 C 6.722929999999999 35.92378 6.788699999999999 36.00058000000001 6.8763999999999985 36.055440000000004 C 7.139459999999999 36.09933 7.391549999999999 36.285590000000006 7.424459999999998 36.62545000000001 C 7.797099999999998 39.705650000000006 5.659639999999998 42.314310000000006 4.223709999999998 44.82450000000001 C 3.390699999999998 46.29314000000001 2.754929999999998 47.860800000000005 2.3493699999999977 49.50500000000001 C 2.239719999999998 49.94335000000001 1.6587999999999976 51.675320000000006 2.086309999999998 51.97130000000001 C 2.371249999999998 52.179500000000004 3.017999999999998 51.773810000000005 3.412589999999998 51.489070000000005 C 3.872939999999998 51.00656000000001 5.100669999999998 50.765460000000004 5.736389999999998 50.30516000000001 C 6.514659999999998 49.75710000000001 7.194259999999998 49.09930000000001 8.147899999999998 48.70485000000001 C 9.408479999999997 48.18943000000001 10.943019999999997 48.222620000000006 12.378949999999998 48.33207000000001 C 14.121829999999997 48.474700000000006 15.831789999999998 48.70485000000001 17.51981 49.04471000000001 C 18.48441 49.24194000000001 19.64631 49.65834000000001 19.62443 50.38170000000001 C 19.60249 50.809340000000006 19.15303 51.17114000000001 18.63788 51.34643000000001 C 18.11176 51.53296000000001 17.51981 51.56560000000001 16.93889 51.598520000000015 C 14.43967 51.751860000000015 11.94053 51.927410000000016 9.452290000000001 52.135610000000014 C 8.695960000000001 52.20144000000001 7.928650000000001 52.26727000000001 7.249060000000002 52.486440000000016 C 6.690020000000002 52.67270000000001 6.2077300000000015 52.979650000000014 5.944670000000002 53.36340000000001 C 5.944670000000002 53.45117000000001 5.977590000000002 53.53869000000001 5.966610000000002 53.637430000000016 C 5.966610000000002 54.700640000000014 5.352780000000002 55.62150000000002 4.859510000000002 56.520130000000016 C 4.278590000000002 57.61626000000002 1.9657100000000018 61.89107000000001 4.125120000000002 62.537880000000015 C 5.287020000000002 62.88871000000002 6.766770000000001 62.307730000000014 7.851930000000001 61.95690000000002 C 8.98098 61.59535000000002 10.109960000000001 61.20063000000002 11.293800000000001 61.05826000000002 C 13.04765 60.83882000000002 15.930420000000002 61.14577000000002 16.42369 63.23956000000002 C 16.54432 63.76568000000002 16.04007 64.43416000000002 15.44819 64.20403000000002 C 14.73567 63.91902000000002 14.065570000000001 62.93265000000002 13.39836 63.272480000000016 C 11.733640000000001 64.12038000000001 11.27186 66.22102000000001 9.77017 67.37173000000001 C 8.83848 68.07341000000001 7.73138 68.87355000000001 7.24908 69.98067000000002 C 6.8764400000000006 70.80277000000002 6.7997000000000005 71.98667000000002 7.70943 72.47988000000002 C 8.72889 73.02795000000002 10.05517 72.17293000000002 10.96498 71.75626000000003 C 12.12688 71.23014000000002 13.26683 70.67136000000002 14.4397 70.17790000000002 C 16.807380000000002 69.18052000000002 19.20792 68.30356000000002 21.68512 67.63507000000003 C 30.794040000000003 65.15781000000003 40.407070000000004 65.36601000000003 49.76808 65.24531000000003 C 60.4444 65.09198000000004 71.10974 64.79600000000003 81.78604999999999 64.86183000000003 C 92.36374999999998 64.92740000000002 102.94137999999998 65.28921000000003 113.45331999999999 66.52798000000003 C 116.08406 66.83493000000003 118.72569999999999 67.16355000000003 121.35645999999998 67.56925000000003 C 123.26371999999998 67.85425000000002 125.51076999999998 68.72024000000002 127.46185999999999 68.31455000000003 C 128.62382 68.06246000000003 128.53611999999998 67.02119000000002 127.93324999999999 66.18812000000003 C 127.29746999999999 65.33311000000003 126.26709999999999 64.80699000000003 125.33541999999998 64.35741000000003 C 123.16502999999999 63.30516000000003 120.66588999999999 62.92168000000003 118.28722999999998 62.73516000000003 C 117.77207999999997 62.69153000000003 117.59666999999997 61.92430000000003 118.15569999999998 61.79263000000003 C 119.63551999999999 61.45277000000003 121.10429999999998 61.44180000000003 122.54022999999998 61.69388000000003 C 122.58410999999998 61.562490000000025 122.68272999999998 61.46373000000003 122.85814999999998 61.40888000000003 C 130.47620999999998 59.28245000000003 138.74108999999999 60.83887000000003 146.21670999999998 62.800990000000034 C 153.27580999999998 64.66462000000003 160.17045 66.95537000000003 167.47068 67.75553000000004 C 170.9893 68.13928000000004 174.55169999999998 68.12832000000003 178.04836 67.56927000000003 C 181.49024 67.02121000000002 184.85537 66.11132000000003 188.28626 65.48673000000004 C 191.79382999999999 64.85089000000004 195.25767 64.66462000000004 198.8091 65.00422000000003 C 202.52501 65.36603000000004 206.19702 65.85923000000003 209.94577 65.89214000000003 C 211.80922 65.91408000000003 213.67265 65.92506000000003 215.53607000000002 65.91408000000003 C 217.31181000000004 65.90311000000003 219.17525000000003 66.02353000000002 220.92903 65.74949000000002 C 222.24441000000002 65.55226000000002 223.75708 64.97128000000002 224.35994000000002 63.67792000000002 C 224.86418000000003 62.58179000000002 224.29417000000004 61.21163000000002 223.06651000000002 60.99244000000002 C 222.59518000000003 60.90466000000002 222.73146000000003 60.46985000000002 222.50747 60.19229000000002 C 221.24722 58.63069000000002 218.50663 60.07160000000002 216.51165 59.95117000000002 C 215.43739 59.88534000000002 215.42641 58.28502000000002 216.51165 58.27405000000002 C 221.63058 58.197240000000015 226.78242 58.50420000000002 231.90133 58.635860000000015 C 235.89124 58.73434000000002 240.10037 58.635860000000015 243.77245 60.44437000000001 C 245.17547 61.12410000000001 247.47738999999999 62.987200000000016 249.05584 61.836480000000016 C 250.76579999999998 60.57604000000001 249.73541999999998 57.91224000000002 249.19834 56.344850000000015 C 248.13505 53.24271000000002 246.9074 49.92139000000002 244.45208 47.63065000000002 L 244.45203 47.63067 z M 73.77328 37.34882 C 75.27498 37.304930000000006 76.78765 37.272020000000005 78.28935 37.239360000000005 C 79.62667 37.20644000000001 81.23795 36.921440000000004 82.48756 37.49145000000001 C 83.05757 37.75451000000001 83.01368000000001 38.675090000000004 82.48756 38.94913000000001 C 81.19413 39.617880000000014 79.34166 39.34385000000001 77.91671 39.38774000000001 C 76.40405 39.420390000000005 74.90234 39.453570000000006 73.38968 39.48622000000001 C 70.32053 39.53011000000001 67.2404 39.58497000000001 64.1602 39.63982000000001 C 61.09105 39.69442000000001 58.010920000000006 39.69442000000001 54.930800000000005 39.65079000000001 C 53.494870000000006 39.62885000000001 52.04797000000001 39.67273000000001 50.61204000000001 39.51913000000001 C 49.55980000000001 39.39870000000001 48.222480000000004 39.22315000000001 47.477120000000006 38.39007000000001 C 47.323640000000005 38.22576000000001 47.422320000000006 37.95172000000001 47.66344000000001 37.95172000000001 C 48.321160000000006 37.92978000000001 48.98978000000001 38.11603000000001 49.65841000000001 38.18187000000001 C 50.29419000000001 38.24770000000001 50.94086000000001 38.25867000000001 51.58761000000001 38.23673000000001 C 52.95777000000001 38.20381000000001 54.32794000000001 38.09410000000001 55.687140000000014 38.01756000000001 C 58.70151000000001 37.83130000000001 61.71586000000001 37.71061000000001 64.73023 37.62284000000001 C 67.7446 37.53533000000001 70.75895 37.43658000000001 73.77331000000001 37.34881000000001 L 73.77328 37.34882 z M 38.81762 15.40424 C 40.82356 15.04269 43.048739999999995 15.2509 45.07655 15.2509 C 47.115339999999996 15.2509 49.165099999999995 15.228959999999999 51.203959999999995 15.1741 C 55.391119999999994 15.075349999999998 59.622249999999994 14.69187 63.80947 14.922009999999998 C 64.14927 14.94395 64.24788 15.459099999999998 63.88615 15.535909999999998 C 59.80857 16.390919999999998 55.5446 16.46746 51.39029 16.57718 C 49.21996 16.643009999999997 47.06056 16.664949999999997 44.89023 16.664949999999997 C 42.928110000000004 16.675649999999997 40.74682 16.818289999999998 38.817620000000005 16.379949999999997 C 38.35727 16.27023 38.32441 15.49202 38.81762 15.40424 L 38.81762 15.40424 z M 27.53844 36.35144 C 25.99293 36.439209999999996 24.39255 36.121289999999995 22.836060000000003 36.07740999999999 C 21.312420000000003 36.033519999999996 19.788780000000003 35.97865999999999 18.265150000000006 36.022549999999995 C 16.664840000000005 36.05546999999999 15.075430000000006 36.14324 13.486020000000005 36.26367 C 11.984320000000006 36.38436 10.416870000000005 36.55965 8.904200000000007 36.38436 C 8.312310000000007 36.30756 8.180790000000007 35.55129 8.761690000000007 35.33185 C 10.252420000000008 34.805730000000004 11.918550000000007 34.63044 13.486020000000007 34.45516000000001 C 15.130210000000007 34.279610000000005 16.785390000000007 34.126270000000005 18.440560000000005 34.07141000000001 C 20.040870000000005 34.02752000000001 21.674160000000004 34.02752000000001 23.263500000000004 34.23572000000001 C 24.776170000000004 34.43321000000001 26.453280000000003 34.60850000000001 27.812470000000005 35.32115000000001 C 28.327680000000004 35.59518000000001 28.053650000000005 36.31853000000001 27.538440000000005 36.35145000000001 C 27.53844 36.35145 27.53844 36.35144 27.53844 36.35144 z M 35.50734 16.27023 C 33.81926 16.752460000000003 31.89012 16.752460000000003 30.14723 16.80732 C 28.32769 16.87315 26.50806 16.851210000000002 24.69942 16.741490000000002 C 22.89085 16.632030000000004 21.0822 16.456760000000003 19.28459 16.204400000000003 C 17.651290000000003 15.985230000000003 15.689240000000002 15.897450000000003 14.187550000000002 15.185070000000003 C 13.683310000000002 14.954920000000003 13.968310000000002 14.220600000000003 14.450610000000001 14.209360000000004 C 15.33848 14.176720000000003 16.23731 14.461720000000003 17.11421 14.604080000000003 C 18.01305 14.757420000000003 18.91188 14.889080000000003 19.82169 14.998800000000003 C 21.49874 15.217970000000003 23.18682 15.371320000000003 24.87484 15.459090000000003 C 26.573829999999997 15.546860000000004 28.27282 15.590750000000003 29.96091 15.568810000000003 C 31.747609999999998 15.557840000000002 33.62195 15.316720000000002 35.39768 15.470060000000002 C 35.84713 15.502980000000003 35.967690000000005 16.138810000000003 35.50733 16.270210000000002 L 35.50734 16.27023 z M 106.19689 57.43004 C 103.64289 57.52852 101.05601999999999 57.10115 98.51299 56.870999999999995 C 96.01384 56.64084999999999 93.50367 56.46556999999999 90.99354 56.322939999999996 C 82.04907 55.79682 73.07173 55.81876 64.13830999999999 56.45433 C 59.67704999999999 56.76128 55.22674999999999 57.22184 50.787429999999986 57.81379 C 46.36998999999999 58.39451 41.842959999999984 59.600359999999995 37.37077999999998 59.04132 C 37.04188999999998 58.99743 37.03091999999998 58.50423 37.37077999999998 58.52617 C 40.01242999999998 58.69048 42.61025999999998 58.03296 45.197119999999984 57.55047 C 47.718209999999985 57.079209999999996 50.26124999999998 56.6628 52.804279999999984 56.290029999999994 C 61.617229999999985 55.02958999999999 70.50683999999998 54.37179999999999 79.39644999999999 54.26208 C 83.93444999999998 54.20748 88.48335999999999 54.33889 93.01038999999999 54.623889999999996 C 95.27938999999999 54.76624999999999 97.53742999999999 54.95278 99.79544999999999 55.171949999999995 C 101.98770999999999 55.391119999999994 104.24573999999998 55.57765 106.36126999999999 56.21321999999999 C 107.04092 56.4217 106.89843 57.40811 106.19689 57.43004 z M 180.21864 15.23992 C 187.12433 15.23992 194.01898 15.39326 200.9246 15.59075 C 204.31167 15.68923 207.69868 15.77701 211.08576 15.86478 C 212.83956 15.89742 214.60431 15.97424 216.35816 16.04007 C 218.00234 16.09493 219.78907 16.05104 221.38935 16.48939 C 221.86076 16.62105 221.90456 17.38829 221.38935 17.48705 C 219.76711 17.81567 217.99137000000002 17.65136 216.35816 17.59651 C 214.59339 17.530939999999998 212.83954 17.48705 211.08576 17.399279999999997 C 207.69869 17.245679999999997 204.31168 17.092329999999997 200.9246 16.960929999999998 C 194.008 16.675649999999997 187.11337 16.347029999999997 180.21864 15.853559999999998 C 179.82405 15.83188 179.81308 15.23993 180.21864 15.23992 z M 162.77921 45.36161 C 165.21261 44.956179999999996 167.74466 44.84646 170.21096 44.68215 C 172.73211 44.51756 175.24224 44.38617 177.75234 44.26547 C 182.81647 44.00241 187.9683 43.67352 193.03243 43.980470000000004 C 193.54763 44.01339 193.5257 44.70382000000001 193.03243 44.758680000000005 C 188.04505 45.33966 182.95897 45.38355000000001 177.93873 45.569810000000004 C 175.42855 45.66856000000001 172.91842 45.77828 170.40832 45.876760000000004 C 167.9091 45.97551000000001 165.36607 46.15079000000001 162.86694 46.03036 C 162.4942 46.01912 162.37366 45.42744 162.77921 45.36161 L 162.77921 45.36161 z M 127.75778 38.30259 C 126.55207 38.60954 125.25863 38.64219 124.03097 38.72997 C 122.71558999999999 38.828720000000004 121.4112 38.86163 120.09582999999999 38.89428 C 117.47605999999999 38.94914 114.85629999999999 38.87234 112.24756 38.74094 C 111.63373 38.708020000000005 111.63373 37.77621 112.24756 37.787440000000004 C 114.81246999999999 37.83133 117.37746 37.798140000000004 119.95333 37.743550000000006 C 121.21391 37.71063000000001 122.46345 37.644800000000004 123.72403999999999 37.60092000000001 C 125.01745999999999 37.55730000000001 126.35477999999999 37.40369000000001 127.64820999999999 37.51341000000001 C 128.07571 37.54606 128.21815 38.1819 127.75778 38.30259 z M 150.75461 16.55524 C 147.47719 16.336070000000003 144.19977 16.27024 140.92235000000002 16.22635 C 134.27979000000002 16.1276 127.65919000000002 16.55524 121.02753000000003 16.64302 C 120.76448000000002 16.64302 120.69870000000003 16.21538 120.96176000000003 16.17149 C 127.56049000000003 15.097299999999999 134.23598000000004 14.362979999999999 140.92235000000002 14.023119999999999 C 144.24367 13.858809999999998 147.61969000000002 13.902689999999998 150.93006000000003 14.132839999999998 C 152.61808000000002 14.253269999999999 154.28422000000003 14.417839999999998 155.95037000000002 14.658959999999999 C 156.78338000000002 14.790619999999999 157.63839000000002 14.900079999999999 158.46049000000002 15.097309999999998 C 159.21682 15.283839999999998 160.06086000000002 15.404259999999999 160.71852 15.84288 C 161.25561000000002 16.19344 161.24464 17.147209999999998 160.53219 17.30056 C 159.75392000000002 17.46515 158.95376000000002 17.3225 158.16451 17.25694 C 157.32053000000002 17.191110000000002 156.47649 17.07041 155.64342000000002 16.98291 C 154.01020000000003 16.82931 152.38794000000001 16.66499 150.75464000000002 16.55527 L 150.75461 16.55524 z M 212.34627 60.09357 C 211.41458 60.49927 210.51573 60.4444 209.52927 60.4444 C 208.45501 60.43343 207.39179 60.43343 206.31754999999998 60.42246 C 204.31166 60.40052 202.29475 60.40052 200.28882 60.35663 C 192.98862 60.19232 185.6993 60.159400000000005 178.41007 59.92925 C 171.10979 59.69883 163.80959 59.66619 156.53125999999997 59.019380000000005 C 156.36687999999998 58.997440000000005 156.35590999999997 58.75632 156.53125999999997 58.745340000000006 C 160.68564999999998 58.62465 164.82898999999998 58.668530000000004 168.98331999999996 58.734370000000006 C 176.20685999999995 58.85506000000001 183.44129999999996 58.81118000000001 190.66483999999997 58.78923 C 194.24921999999998 58.76729 197.83350999999996 58.734370000000006 201.41787999999997 58.67951 C 203.23742999999996 58.64659 205.06802999999996 58.62464 206.88757999999996 58.592 C 207.83023999999995 58.57006 208.77295999999996 58.55908 209.71560999999997 58.53713 C 210.55964999999998 58.51519 211.37077999999997 58.438379999999995 212.17092999999997 58.77825 C 212.66418 58.97549 212.98204 59.80857 212.34627 60.09357 z M 236.16527 44.25451 C 234.65260999999998 44.47368 233.10702999999998 44.38617 231.58344 44.33131 C 230.02688 44.276450000000004 228.48137 44.199650000000005 226.92487 44.155750000000005 C 223.81183 44.046290000000006 220.70977 43.991440000000004 217.59678 43.991440000000004 C 211.32686999999999 43.980470000000004 205.04604 44.11213000000001 198.76522 44.18867 C 198.3048 44.19964 198.33773 43.542120000000004 198.76522 43.49823 C 205.03507 42.81849 211.294 42.57738 217.59675 42.57738 C 220.76459999999997 42.57738 223.94331999999997 42.621269999999996 227.11118 42.720009999999995 C 228.6019 42.774609999999996 230.09262999999999 42.82946999999999 231.58342 42.90626999999999 C 233.10699 42.99403999999999 234.68543 43.07057999999999 236.16523999999998 43.476279999999996 C 236.51601999999997 43.57476 236.5708 44.18866 236.16523999999998 44.25449 L 236.16527 44.25451 z" stroke-linecap="round" />
</g>
		<g transform="matrix(1 0 0 1 118.13997174533917 -9.158392698852516)" id="path-01"  >
<linearGradient id="SVGID_20979" gradientUnits="userSpaceOnUse" gradientTransform="matrix(1 0 0 1 239.12419732520908 30.69505295040441)"  x1="0" y1="0" x2="0" y2="6">
<stop offset="0%" style="stop-color:rgb(48,35,174);stop-opacity: 1"/>
<stop offset="100%" style="stop-color:rgb(200,109,215);stop-opacity: 1"/>
</linearGradient>
<path style="stroke: none; stroke-width: 1; stroke-dasharray: none; stroke-linecap: butt; stroke-dashoffset: 0; stroke-linejoin: miter; stroke-miterlimit: 4; fill: url(#SVGID_20979); fill-rule: nonzero; opacity: 1;"  paint-order="stroke"  transform=" translate(-243.1399846275961, -33.686404570795936)" d="M 247.09297 33.33323 C 246.52296 31.63444 243.93612000000002 31.54666 242.47824 31.26166 C 241.83348 31.13668 240.56868 30.88532 239.66049 30.70431 C 239.27257 30.627 238.98359000000002 31.04974 239.19623 31.38327 C 239.69757 32.16959 240.37303000000003 33.30265 240.60391 34.034909999999996 C 240.83406000000002 34.76922999999999 241.00947000000002 35.63522 241.59039 36.183279999999996 C 242.14944000000003 36.720369999999996 242.99348 36.76425999999999 243.70593000000002 36.57774 C 244.59381000000002 36.33689 245.37208 35.74494 246.06263 35.163959999999996 C 246.63264 34.692699999999995 247.37800000000001 34.166579999999996 247.09299000000001 33.333239999999996 L 247.09297 33.33323 z" stroke-linecap="round" />
</g>
</g>
</g>
<g transform="matrix(1.9211538461538462 0 0 1.9211538461538462 647.3538750114514 545.1599208327427)" id="text-logo"  >
<g style=""  paint-order="stroke"   >
		<g transform="matrix(1 0 0 1 0 0)" id="text-logo-path-0"  >
<linearGradient id="SVGID_20980" gradientUnits="userSpaceOnUse" gradientTransform="matrix(1 0 0 1 2.3799999999999955 -46.05)"  x1="0" y1="0" x2="0" y2="69">
<stop offset="0%" style="stop-color:rgb(248,77,158);stop-opacity: 1"/>
<stop offset="100%" style="stop-color:rgb(255,116,117);stop-opacity: 1"/>
</linearGradient>
<filter id="SVGID_20968" y="-27.231172279715967%" height="154.46234455943193%" x="-21.230052976970182%" width="142.46010595394037%" >
	<feGaussianBlur in="SourceAlpha" stdDeviation="0"></feGaussianBlur>
	<feOffset dx="3.3516483516483504" dy="3.3516483516483504" result="oBlur" ></feOffset>
	<feFlood flood-color="rgb(81,18,94)" flood-opacity="1"/>
	<feComposite in2="oBlur" operator="in" />
	<feMerge>
		<feMergeNode></feMergeNode>
		<feMergeNode in="SourceGraphic"></feMergeNode>
	</feMerge>
</filter>
<path style="stroke: rgb(81,18,94); stroke-width: 6.03296703296703; stroke-dasharray: none; stroke-linecap: butt; stroke-dashoffset: 0; stroke-linejoin: miter; stroke-miterlimit: 4; fill: url(#SVGID_20980); fill-rule: nonzero; opacity: 1;filter: url(#SVGID_20968);"  paint-order="stroke"  transform=" translate(-138.62, 22.875)" d="M 4.88 -3.34 Q 2.38 -7.03 2.38 -13.05 Q 2.38 -19.06 3.96 -24.66 Q 5.54 -30.26 8.4 -34.7 Q 11.26 -39.14 15.22 -41.88 Q 19.18 -44.62 23.89 -44.62 L 23.89 -44.62 Q 26.93 -44.62 29.07 -42.29 L 29.07 -42.29 Q 31.16 -39.91 31.16 -36.04 L 31.16 -36.04 L 31.16 -35.27 Q 31.16 -34.91 31.1 -34.49 L 31.1 -34.49 L 23.11 -32.35 Q 22.4 -33.84 21.42 -33.84 Q 20.43 -33.84 19.36 -32.7 Q 18.29 -31.57 17.25 -29.79 Q 16.2 -28 15.25 -25.76 Q 14.3 -23.53 13.58 -21.27 L 13.58 -21.27 Q 11.91 -16.26 11.91 -13.19 Q 11.91 -10.13 13.76 -10.13 L 13.76 -10.13 Q 15.25 -10.13 16.92 -11.97 L 16.92 -11.97 Q 18.59 -13.88 19.06 -15.91 L 19.06 -15.91 L 26.03 -13.11 Q 23.35 -6.85 19 -3.16 L 19 -3.16 Q 15.13 0.12 11.08 0.12 L 11.08 0.12 Q 7.27 0.12 4.88 -3.34 L 4.88 -3.34 Z M 26.57 -12.27 L 26.57 -12.27 Q 26.57 -19.06 29.73 -26.93 L 29.73 -26.93 Q 32.88 -34.79 38.01 -40.03 L 38.01 -40.03 Q 43.55 -45.63 49.62 -45.63 L 49.62 -45.63 Q 54.63 -45.63 56.95 -41.58 L 56.95 -41.58 Q 58.8 -38.3 58.8 -31.63 L 58.8 -31.63 Q 58.8 -28 57.75 -23.59 Q 56.71 -19.18 54.92 -15.49 Q 53.14 -11.79 50.78 -8.88 Q 48.43 -5.96 45.87 -3.93 L 45.87 -3.93 Q 40.57 0.24 35.68 0.24 L 35.68 0.24 Q 31.57 0.24 29.19 -2.74 L 29.19 -2.74 Q 26.57 -6.02 26.57 -12.27 Z M 35.62 -13.82 L 35.62 -13.82 Q 35.62 -11.44 37.65 -10.25 L 37.65 -10.25 Q 38.24 -9.83 39.02 -9.83 L 39.02 -9.83 Q 41.76 -9.83 43.87 -11.71 Q 45.99 -13.58 47.42 -16.32 Q 48.85 -19.06 49.59 -22.19 Q 50.34 -25.32 50.34 -27.88 L 50.34 -27.88 Q 50.34 -32.82 47.48 -32.82 L 47.48 -32.82 Q 43.84 -32.82 40.92 -29.25 L 40.92 -29.25 Q 38.6 -26.39 36.93 -21.45 L 36.93 -21.45 Q 35.62 -17.39 35.62 -13.82 Z M 62.55 -1.01 L 52.48 -0.36 Q 62.19 -29.67 65.65 -43.25 L 65.65 -43.25 Q 69.04 -43.25 72.02 -43.61 Q 75 -43.96 78.45 -44.26 L 78.45 -44.26 Q 78.28 -42.95 78.07 -41.28 Q 77.86 -39.61 77.59 -37.77 Q 77.32 -35.92 77.02 -33.98 Q 76.73 -32.05 76.28 -28.98 Q 75.83 -25.91 75.12 -21.33 L 75.12 -21.33 L 75.95 -21.33 Q 82.8 -39.73 85.01 -44.38 L 85.01 -44.38 Q 88.04 -44.74 89.98 -45.04 Q 91.92 -45.33 93.29 -45.54 Q 94.66 -45.75 96.27 -46.05 L 96.27 -46.05 Q 93.35 -28.77 91.38 -2.5 L 91.38 -2.5 L 80.72 -0.6 Q 80.72 -2.74 81.25 -7.51 L 81.25 -7.51 L 82.09 -14.65 Q 82.68 -20.08 83.22 -23.05 L 83.22 -23.05 L 82.68 -23.05 Q 81.85 -20.49 80.81 -17.66 Q 79.76 -14.83 78.69 -11.91 Q 77.62 -9 76.58 -6.17 Q 75.54 -3.34 74.76 -0.77 L 74.76 -0.77 Q 72.62 -0.71 71.13 -0.6 L 71.13 -0.6 L 67.55 -0.42 L 69.52 -23.05 L 68.63 -23.05 Q 68.51 -22.28 68 -20.4 Q 67.49 -18.53 66.87 -16.11 Q 66.24 -13.7 65.5 -11.11 Q 64.75 -8.52 64.1 -6.31 L 64.1 -6.31 Q 63.03 -2.5 62.55 -1.01 L 62.55 -1.01 Z M 102.46 -2.03 L 91.92 0.06 Q 98.17 -27.76 100.5 -43.07 L 100.5 -43.07 Q 107.05 -45.04 110.32 -45.04 Q 113.6 -45.04 115.48 -44.11 Q 117.35 -43.19 118.54 -41.64 L 118.54 -41.64 Q 120.63 -38.84 120.63 -33.54 L 120.63 -33.54 Q 120.63 -30.14 119.38 -26.96 Q 118.13 -23.77 116.04 -21.3 Q 113.96 -18.82 111.22 -17.36 Q 108.48 -15.91 105.56 -15.91 L 105.56 -15.91 L 104.9 -15.91 Q 103.77 -10.9 102.46 -2.03 L 102.46 -2.03 Z M 106.15 -22.34 L 106.15 -22.34 Q 108.3 -22.88 110.15 -25.79 L 110.15 -25.79 Q 112.17 -29.01 112.17 -33.06 L 112.17 -33.06 Q 112.17 -35.33 111.16 -36.49 Q 110.15 -37.65 108.95 -37.65 L 108.95 -37.65 Q 107.41 -29.01 106.15 -22.34 Z M 117.12 -12.27 L 117.12 -12.27 Q 117.12 -19.06 120.27 -26.93 L 120.27 -26.93 Q 123.43 -34.79 128.55 -40.03 L 128.55 -40.03 Q 134.09 -45.63 140.17 -45.63 L 140.17 -45.63 Q 145.17 -45.63 147.5 -41.58 L 147.5 -41.58 Q 149.34 -38.3 149.34 -31.63 L 149.34 -31.63 Q 149.34 -28 148.3 -23.59 Q 147.26 -19.18 145.47 -15.49 Q 143.68 -11.79 141.33 -8.88 Q 138.98 -5.96 136.42 -3.93 L 136.42 -3.93 Q 131.11 0.24 126.23 0.24 L 126.23 0.24 Q 122.12 0.24 119.74 -2.74 L 119.74 -2.74 Q 117.12 -6.02 117.12 -12.27 Z M 126.17 -13.82 L 126.17 -13.82 Q 126.17 -11.44 128.2 -10.25 L 128.2 -10.25 Q 128.79 -9.83 129.57 -9.83 L 129.57 -9.83 Q 132.31 -9.83 134.42 -11.71 Q 136.54 -13.58 137.96 -16.32 Q 139.39 -19.06 140.14 -22.19 Q 140.88 -25.32 140.88 -27.88 L 140.88 -27.88 Q 140.88 -32.82 138.02 -32.82 L 138.02 -32.82 Q 134.39 -32.82 131.47 -29.25 L 131.47 -29.25 Q 129.15 -26.39 127.48 -21.45 L 127.48 -21.45 Q 126.17 -17.39 126.17 -13.82 Z M 154.53 -1.79 L 145.59 0.3 Q 152.38 -32.05 153.51 -44.74 L 153.51 -44.74 Q 154.35 -44.68 154.88 -44.68 L 154.88 -44.68 L 156.61 -44.68 Q 157.8 -44.68 163.28 -44.92 L 163.28 -44.92 Q 164.12 -40.63 164.83 -36.93 L 164.83 -36.93 Q 166.74 -26.33 167.45 -23.29 L 167.45 -23.29 Q 167.69 -24.54 167.99 -26.15 Q 168.29 -27.76 168.64 -29.52 Q 169 -31.27 169.36 -33.12 L 169.36 -33.12 Q 169.95 -36.04 171.8 -44.86 L 171.8 -44.86 L 179.25 -45.75 Q 172.75 -15.67 171.15 -2.56 L 171.15 -2.56 Q 170.43 -2.56 166.23 -1.55 Q 162.03 -0.54 161.2 -0.24 L 161.2 -0.24 Q 160.01 -16.56 158.58 -23.35 L 158.58 -23.35 Q 158.4 -22.22 158.1 -20.7 Q 157.8 -19.18 157.5 -17.45 L 157.5 -17.45 Q 156.37 -10.96 154.53 -1.79 L 154.53 -1.79 Z M 193.07 -2.98 L 173.35 0.06 L 181.33 -43.31 L 200.63 -44.98 Q 200.22 -43.61 199.92 -42.32 Q 199.62 -41.04 199.32 -39.79 Q 199.02 -38.54 198.85 -37.59 L 198.85 -37.59 Q 197.06 -37.41 193.96 -37.41 L 193.96 -37.41 L 189.85 -37.41 L 187.71 -26.45 Q 190.98 -26.63 193.19 -26.69 Q 195.39 -26.75 196.05 -26.81 L 196.05 -26.81 Q 195.81 -25.08 195.6 -23.44 Q 195.39 -21.8 195.09 -20.08 L 195.09 -20.08 Q 194.44 -20.02 193.07 -19.99 Q 191.7 -19.96 190.21 -19.9 Q 188.72 -19.84 186.87 -19.78 L 186.87 -19.78 L 184.79 -8.52 L 193.66 -9.95 L 193.07 -2.98 Z M 202.9 -1.79 L 193.96 0.3 Q 200.75 -32.05 201.88 -44.74 L 201.88 -44.74 Q 202.72 -44.68 203.25 -44.68 L 203.25 -44.68 L 204.98 -44.68 Q 206.17 -44.68 211.65 -44.92 L 211.65 -44.92 Q 212.49 -40.63 213.2 -36.93 L 213.2 -36.93 Q 215.11 -26.33 215.82 -23.29 L 215.82 -23.29 Q 216.06 -24.54 216.36 -26.15 Q 216.66 -27.76 217.01 -29.52 Q 217.37 -31.27 217.73 -33.12 L 217.73 -33.12 Q 218.33 -36.04 220.17 -44.86 L 220.17 -44.86 L 227.62 -45.75 Q 221.13 -15.67 219.52 -2.56 L 219.52 -2.56 Q 218.8 -2.56 214.6 -1.55 Q 210.4 -0.54 209.57 -0.24 L 209.57 -0.24 Q 208.38 -16.56 206.95 -23.35 L 206.95 -23.35 Q 206.77 -22.22 206.47 -20.7 Q 206.17 -19.18 205.88 -17.45 L 205.88 -17.45 Q 204.74 -10.96 202.9 -1.79 L 202.9 -1.79 Z M 237.69 -1.67 L 226.72 0.06 Q 231.55 -22.58 233.22 -35.38 L 233.22 -35.38 Q 232.15 -35.5 231.07 -35.5 L 231.07 -35.5 L 230.36 -35.5 Q 230.18 -35.5 230 -35.5 L 230 -35.5 L 227.5 -35.86 L 227.8 -43.67 Q 230.89 -43.43 234.05 -43.43 L 234.05 -43.43 Q 242.39 -43.43 250.31 -44.44 L 250.31 -44.44 L 249.66 -41.16 Q 249.36 -39.79 249.09 -38.33 Q 248.83 -36.87 248.59 -35.8 L 248.59 -35.8 Q 247.22 -35.44 245.85 -35.3 Q 244.48 -35.15 243.17 -34.91 L 243.17 -34.91 Q 242.09 -30.32 241.02 -23.53 L 241.02 -23.53 Q 238.64 -8.52 237.69 -1.67 L 237.69 -1.67 Z M 244.18 -5.36 L 244.18 -5.36 L 248.71 -14.24 Q 249.54 -12.57 251.92 -11.2 L 251.92 -11.2 Q 254.31 -9.77 255.5 -9.77 Q 256.69 -9.77 257.49 -10.01 Q 258.3 -10.25 258.95 -10.72 L 258.95 -10.72 Q 260.44 -11.79 260.44 -13.31 Q 260.44 -14.83 259.49 -16.08 Q 258.54 -17.33 257.14 -18.47 Q 255.74 -19.6 254.1 -20.76 Q 252.46 -21.92 251.09 -23.23 L 251.09 -23.23 Q 247.75 -26.21 247.75 -29.49 Q 247.75 -32.76 249.63 -35.5 Q 251.51 -38.24 254.34 -40.24 Q 257.17 -42.24 260.53 -43.4 Q 263.9 -44.56 266.22 -44.56 Q 268.54 -44.56 270 -44.14 Q 271.46 -43.72 272.53 -42.89 L 272.53 -42.89 Q 274.86 -40.98 274.86 -37.29 L 274.86 -37.29 Q 274.86 -36.4 274.71 -35.56 Q 274.56 -34.73 274.44 -33.72 L 274.44 -33.72 L 265.62 -31.16 Q 265.92 -32.35 265.92 -33.66 Q 265.92 -34.97 265.27 -35.77 Q 264.61 -36.58 263.87 -36.58 Q 263.12 -36.58 262.41 -36.22 Q 261.69 -35.86 260.98 -35.27 L 260.98 -35.27 Q 259.31 -33.9 259.31 -32.32 Q 259.31 -30.74 260.14 -29.76 Q 260.98 -28.77 262.2 -27.94 Q 263.42 -27.1 264.85 -26.21 Q 266.28 -25.32 267.53 -23.95 L 267.53 -23.95 Q 270.39 -20.61 270.39 -15.07 L 270.39 -15.07 Q 270.39 -8.4 265.5 -4.05 L 265.5 -4.05 Q 260.86 0.12 253.77 0.12 L 253.77 0.12 Q 248.53 0.12 244.18 -5.36 Z" stroke-linecap="round" />
</g>
</g>
</g>
</svg>