<?xml version="1.0" encoding="UTF-8" standalone="no" ?>
<!DOCTYPE svg PUBLIC "-//W3C//DTD SVG 1.1//EN" "http://www.w3.org/Graphics/SVG/1.1/DTD/svg11.dtd">
<svg xmlns="http://www.w3.org/2000/svg" xmlns:xlink="http://www.w3.org/1999/xlink" version="1.1" width="680" height="210" viewBox="250 200 800 510" xml:space="preserve">
<desc>Created with Fabric.js 4.4.0</desc>
<defs>
</defs>
<g transform="matrix(1 0 0 1 640 512)" id="background-logo"  >
<rect style="stroke: none; stroke-width: 0; stroke-dasharray: none; stroke-linecap: butt; stroke-dashoffset: 0; stroke-linejoin: miter; stroke-miterlimit: 4; fill: rgb(255,255,255); fill-opacity: 0; fill-rule: nonzero; opacity: 1;"  paint-order="stroke"  x="-640" y="-512" rx="0" ry="0" width="1280" height="1024" />
</g>
<g transform="matrix(1.1975106742539077 0 0 1.1975106742539077 664.6515356742825 338.3227311159561)" id="shape-1fdfad9e-96fb-4376-bf66-03f70c901687"  >
<g style=""  paint-order="stroke"   >
		<g transform="matrix(1 0 0 1 0 39.391070637323836)" id="path-5"  >
<path style="stroke: none; stroke-width: 1; stroke-dasharray: none; stroke-linecap: butt; stroke-dashoffset: 0; stroke-linejoin: miter; stroke-miterlimit: 4; fill: rgb(157,47,56); fill-rule: nonzero; opacity: 1;"  paint-order="stroke"  transform=" translate(-150.03, -140.52607063732384)" d="M 3.43 96.02 C 3.71 99.08 3.99 102.14999999999999 4.28 105.21 C 6.66 103.22 10.56 104.69 12.190000000000001 107.32 C 13.820000000000002 109.94999999999999 13.82 113.24 13.770000000000001 116.33999999999999 C 13.370000000000001 140.03 12.97 163.73 12.040000000000001 188.15999999999997 C 13.81 192.68999999999997 18.18 195.79999999999995 22.83 197.25999999999996 C 27.479999999999997 198.71999999999997 32.43 198.74999999999997 37.29 198.76999999999995 C 77.83 198.94999999999996 118.37 199.11999999999995 157.1 198.83999999999995 C 196.10999999999999 198.39999999999995 235.12 197.94999999999996 274.08 198.25999999999993 C 278.5 196.01999999999992 282.91999999999996 193.77999999999994 287.34 191.52999999999994 C 286.4 163.82999999999996 285.46999999999997 136.13999999999993 284.77 107.69999999999995 C 288.46999999999997 105.92999999999995 292.53 104.89999999999995 296.63 104.68999999999994 C 296.15 101.22999999999995 295.67 97.76999999999994 295.19 94.30999999999995 C 279.84 94.12999999999994 264.49 93.95999999999995 249.14 93.77999999999994 C 251.14 90.17999999999995 248.7 85.37999999999994 245.02999999999997 83.49999999999994 C 241.35999999999996 81.61999999999995 236.98999999999998 81.91999999999994 232.90999999999997 82.52999999999994 C 228.83999999999997 83.14999999999995 224.66999999999996 84.03999999999995 220.63999999999996 83.19999999999995 C 219.47999999999996 87.03999999999995 219.55999999999995 91.24999999999994 219.70999999999995 94.50999999999995 C 194.04999999999995 94.46999999999994 168.38999999999996 94.42999999999995 140.80999999999995 96.00999999999995 C 119.36999999999995 95.66999999999994 97.93999999999994 95.32999999999994 76.49999999999994 94.97999999999995 C 79.36999999999995 92.15999999999995 77.42999999999995 86.81999999999995 73.86999999999995 84.94999999999995 C 70.3 83.07 66 83.6 62.02 84.22 C 58.040000000000006 84.84 53.77 85.44 50.14 83.67999999999999 C 50.13 87.8 50.12 91.92999999999999 50.11 96.05 C 34.57 96.29 19.03 96.53 3.43 96.02 z" stroke-linecap="round" />
</g>
		<g transform="matrix(1 0 0 1 -0.16500000000002046 -52.045)" id="path-4"  >
<path style="stroke: none; stroke-width: 1; stroke-dasharray: none; stroke-linecap: butt; stroke-dashoffset: 0; stroke-linejoin: miter; stroke-miterlimit: 4; fill: rgb(106,107,111); fill-rule: nonzero; opacity: 1;"  paint-order="stroke"  transform=" translate(-149.86499999999998, -49.089999999999996)" d="M 51.45 95.08 C 36.17 93.21 20.640000000000004 93.51 5.440000000000005 95.95 C 3.510000000000005 84.09 2.540000000000005 72.07000000000001 2.540000000000005 60.050000000000004 C 9.570000000000006 60.720000000000006 16.740000000000006 59.980000000000004 23.670000000000005 58.67 C 28.270000000000003 47.99 34.260000000000005 36.06 45.510000000000005 33.09 C 50.03 31.900000000000002 54.81 32.39 59.46000000000001 32.89 C 70.12 34.03 80.78 35.18 91.44000000000001 36.32 C 90.81000000000002 29.68 90.20000000000002 22.880000000000003 91.92000000000002 16.44 C 93.66 10 98.23 3.9 104.62 2.23 C 135.77 4.42 167.02 5.12 198.75 4.45 C 208.52 9.629999999999999 213.69 22.16 210.41 32.72 C 204.59 33 198.76 33.29 192.94 33.57 C 195.42 29.16 192.46 23.29 188.02 20.84 C 183.58 18.39 178.26000000000002 18.44 173.20000000000002 18.56 C 156.10000000000002 18.939999999999998 139.01000000000002 19.32 121.91000000000003 19.7 C 118.87000000000002 19.77 115.73000000000002 19.86 112.96000000000002 21.13 C 110.19000000000003 22.4 107.88000000000002 25.18 108.14000000000001 28.21 C 108.37000000000002 30.98 110.68000000000002 33.22 113.27000000000001 34.230000000000004 C 115.86 35.24000000000001 118.72000000000001 35.24 121.50000000000001 35.230000000000004 C 168.8 35.06 216.10000000000002 34.88 261.75 32.720000000000006 C 266.87 39.160000000000004 270.02 47.040000000000006 275.38 53.28 C 280.74 59.52 289.75 63.99 297.19 60.47 C 296.85 72.09 296.5 83.71 296.16 95.33 C 282.41 95.31 268.65000000000003 95.28999999999999 254.62000000000003 94.87 C 252.36000000000004 94.72 250.09000000000003 94.58 247.83000000000004 94.43 C 247.97000000000003 90.97000000000001 248.10000000000005 87.52000000000001 248.24000000000004 84.06 C 239.40000000000003 84.15 230.57000000000005 84.24000000000001 221.73000000000005 84.33 C 224.14000000000004 86.91 222.62000000000003 91.46 219.66000000000005 93.39 C 216.70000000000007 95.32000000000001 212.94000000000005 95.36 209.41000000000005 95.34 C 165.52000000000004 95.09 121.64000000000006 94.85000000000001 77.75000000000006 94.60000000000001 C 77.69000000000005 90.96000000000001 77.63000000000005 87.32000000000001 77.57000000000005 83.68 C 74.16000000000005 85.62 69.95000000000005 85.17 66.06000000000004 84.62 C 62.18000000000004 84.08 57.98000000000005 83.56 54.530000000000044 85.41000000000001 C 51.08 87.26 49.29 92.54 51.45 95.08 z" stroke-linecap="round" />
</g>
		<g transform="matrix(1 0 0 1 -0.6450000000000102 45.83500000000002)" id="path-3"  >
<path style="stroke: none; stroke-width: 1; stroke-dasharray: none; stroke-linecap: butt; stroke-dashoffset: 0; stroke-linejoin: miter; stroke-miterlimit: 4; fill: rgb(130,17,26); fill-rule: nonzero; opacity: 1;"  paint-order="stroke"  transform=" translate(-149.385, -146.97000000000003)" d="M 294.95 95.37 C 295.37 98.2 295.8 101.02000000000001 296.21999999999997 103.85000000000001 C 292.73999999999995 103.80000000000001 289.26 103.76 285.77 103.71000000000001 C 286.27 125.17000000000002 286.78 146.63 287.28 168.08 C 287.41999999999996 174.21 287.54999999999995 180.5 285.57 186.3 C 283.59 192.11 279.04 197.43 273.01 198.57000000000002 C 272.55 166.86 272.09 135.15000000000003 271.63 103.43000000000002 C 267.88 102.09000000000002 263.71 101.95000000000002 259.87 103.04000000000002 C 259.84000000000003 100.89000000000001 259.81 98.74000000000002 259.79 96.60000000000002 C 269 97.05 282.11 97.19 294.95 95.37 z M 3.82 95.37 C 3.4 98.2 2.9699999999999998 101.02000000000001 2.55 103.85000000000001 C 6.029999999999999 103.80000000000001 9.51 103.76 13 103.71000000000001 C 12.5 125.17000000000002 11.99 146.63 11.49 168.08 C 11.35 174.21 11.22 180.5 13.2 186.3 C 15.179999999999998 192.10000000000002 19.73 197.43 25.759999999999998 198.57000000000002 C 26.22 166.86 26.68 135.15000000000003 27.139999999999997 103.43000000000002 C 30.889999999999997 102.09000000000002 35.059999999999995 101.95000000000002 38.9 103.04000000000002 C 38.93 100.89000000000001 38.96 98.74000000000002 38.98 96.60000000000002 C 29.78 97.05 16.66 97.19 3.82 95.37 z M 79.04 132.93 L 79.04 121.43 L 52.540000000000006 121.43 L 52.540000000000006 132.93 L 79.04 132.93 z M 248.37 132.93 L 248.37 121.43 L 221.87 121.43 L 221.87 132.93 L 248.37 132.93 z M 169.08 108.84 L 169.08 95.95 L 131.08 95.95 L 131.08 108.84 L 169.08 108.84 z M 210.58 102.39 L 210.58 95.95 L 90.08 95.95 L 90.08 102.39 L 210.58 102.39 z" stroke-linecap="round" />
</g>
		<g transform="matrix(1 0 0 1 0.7400000000000375 -47.78000000000002)" id="path-2"  >
<path style="stroke: none; stroke-width: 1; stroke-dasharray: none; stroke-linecap: butt; stroke-dashoffset: 0; stroke-linejoin: miter; stroke-miterlimit: 4; fill: rgb(63,66,79); fill-rule: nonzero; opacity: 1;"  paint-order="stroke"  transform=" translate(-150.77000000000004, -53.35499999999999)" d="M 107.3 32.72 L 90.92 32.72 L 90.92 22.81 L 107.3 22.81 C 107.3 22.81 107.3 32.72 107.3 32.72 z M 210.41 22.81 L 193.79 22.81 L 193.79 32.72 L 210.41 32.72 L 210.41 22.81 z M 23.62 50.5 L 21.46 59.21 L 130.58 60.910000000000004 L 130.63000000000002 72.86 L 134.94000000000003 80.66 L 149.87000000000003 83.89999999999999 L 164.34000000000003 81.13 L 168.24000000000004 74.86999999999999 L 170.35000000000005 64.75999999999999 L 169.71000000000006 60.44999999999999 L 201.05000000000007 60.45999999999999 L 280.08000000000004 59.969999999999985 L 272.84000000000003 50.499999999999986 C 272.84 50.5 23.62 50.5 23.62 50.5 z" stroke-linecap="round" />
</g>
		<g transform="matrix(1 0 0 1 0 0)" id="path-1"  >
<path style="stroke: none; stroke-width: 1; stroke-dasharray: none; stroke-linecap: butt; stroke-dashoffset: 0; stroke-linejoin: miter; stroke-miterlimit: 4; fill: rgb(0,0,0); fill-rule: nonzero; opacity: 1;"  paint-order="stroke"  transform=" translate(-150.03, -101.135)" d="M 280.75 56.01 L 263.94 31.04 L 213.2 31.04 L 213.2 11.48 L 199.19 0 L 151.38 0 L 148.67 0 L 100.85999999999999 0 L 86.85 11.48 L 86.85 31.03 L 36.12 31.03 L 19.31 56.01 L 0.06 56.46 L 0.06 108.03999999999999 L 10.15 108.03999999999999 L 10.15 193.74 L 24.189999999999998 202.27 L 146.74 202.27 L 153.32000000000002 202.27 L 275.87 202.27 L 289.91 193.74 L 289.91 108.04 L 300 108.04 L 300 56.46 L 280.75 56.01 z M 93.24 14.51 L 103.14999999999999 6.390000000000001 L 148.67 6.390000000000001 L 151.38 6.390000000000001 L 196.9 6.390000000000001 L 206.81 14.51 L 206.81 31.880000000000003 L 195.3 31.880000000000003 L 195.24 26.040000000000003 C 195.24 20.910000000000004 191.07000000000002 16.750000000000004 185.95000000000002 16.750000000000004 L 150.99 16.750000000000004 L 149.07000000000002 16.750000000000004 L 114.11000000000001 16.750000000000004 C 108.98000000000002 16.750000000000004 104.82000000000002 20.92 104.82000000000002 26.040000000000003 L 104.76000000000002 31.880000000000003 L 93.24 31.880000000000003 L 93.24 14.51 z M 152.1 30.98 L 152.1 30.97 L 150.03 30.98 L 147.96 30.97 L 147.96 30.98 L 111.16000000000001 31.080000000000002 L 111.21000000000001 26.080000000000002 C 111.21000000000001 24.450000000000003 112.51 23.150000000000002 114.11000000000001 23.150000000000002 L 149.07000000000002 23.150000000000002 L 150.99 23.150000000000002 L 185.95000000000002 23.150000000000002 C 187.55 23.150000000000002 188.85000000000002 24.450000000000003 188.85000000000002 26.080000000000002 L 188.90000000000003 31.080000000000002 L 152.1 30.98 z M 39.52 37.43 L 83.52000000000001 37.43 L 83.52000000000001 37.47 L 104.70000000000002 37.47 L 104.70000000000002 37.48 L 107.98000000000002 37.47 L 112.43000000000002 37.47 L 112.43000000000002 37.46 L 150.03000000000003 37.36 L 187.63000000000002 37.46 L 187.63000000000002 37.47 L 192.08 37.47 L 195.36 37.48 L 195.36 37.47 L 216.54000000000002 37.47 L 216.54000000000002 37.43 L 260.54 37.43 L 274.78000000000003 58.58 L 167.75 58.58 L 167.75 70.6 C 167.75 76.39999999999999 163.03 81.13 157.22 81.13 L 152.92 81.13 L 147.14 81.13 L 142.83999999999997 81.13 C 137.03999999999996 81.13 132.30999999999997 76.41 132.30999999999997 70.6 L 132.30999999999997 58.58 L 25.28 58.58 L 39.52 37.43 z M 6.45 101.65 L 6.45 97.86 L 37.07 97.86 L 37.07 101.65 L 16.54 101.65 L 13.51 101.65 L 6.45 101.65 z M 24.67 195.08 L 16.54 190.14000000000001 L 16.54 103.96000000000001 L 26.27 103.96000000000001 L 24.67 195.08 z M 153.32 195.88 L 146.73999999999998 195.88 L 104.60999999999999 195.88 L 109.26999999999998 190.41 L 149.01999999999998 190.41 L 151.04 190.41 L 190.79 190.41 L 195.45 195.88 L 153.32 195.88 z M 200.69 195.88 L 192.63 186.42 L 151.04 186.42 L 149.01999999999998 186.42 L 107.42999999999998 186.42 L 99.36999999999998 195.88 L 27.85 195.88 L 29.46 103.97 L 37.06 103.97 L 37.06 129.42 L 54.38 129.42 L 54.38 123.19999999999999 L 75.48 123.19999999999999 L 75.48 129.42 L 92.8 129.42 L 92.8 103.96999999999998 L 128.97 103.96999999999998 L 128.97 110.63999999999999 L 148.22 110.63999999999999 L 151.82 110.63999999999999 L 171.07 110.63999999999999 L 171.07 103.96999999999998 L 207.24 103.96999999999998 L 207.24 129.42 L 224.56 129.42 L 224.56 123.19999999999999 L 245.66 123.19999999999999 L 245.66 129.42 L 262.98 129.42 L 262.98 103.96999999999998 L 270.58000000000004 103.96999999999998 L 272.19000000000005 195.88 L 200.69 195.88 z M 42.66 123.82 L 42.66 97.85 L 48.79 97.85 L 48.79 123.19 L 48.79 123.82 L 42.66 123.82 z M 75.49 97.85 L 75.49 117.6 L 54.38999999999999 117.6 L 54.38999999999999 97.85 L 75.49 97.85 z M 54.39 92.26 L 54.39 86.44 L 75.49000000000001 86.44 L 75.49000000000001 92.25999999999999 L 54.39 92.25999999999999 z M 81.08 123.82 L 81.08 123.19 L 81.08 97.85 L 87.21 97.85 L 87.21 123.82 L 81.08 123.82 z M 92.81 101.65 L 92.81 97.86 L 128.98000000000002 97.86 L 128.98000000000002 101.65 L 92.81 101.65 z M 134.57 105.04 L 134.57 97.85000000000001 L 145.48 97.85000000000001 L 148.23 97.85000000000001 L 151.82999999999998 97.85000000000001 L 154.57999999999998 97.85000000000001 L 165.48999999999998 97.85000000000001 L 165.48999999999998 105.04 L 151.82999999999998 105.04 L 148.23 105.04 L 134.57 105.04 z M 171.08 101.65 L 171.08 97.86 L 207.25 97.86 L 207.25 101.65 L 171.08 101.65 z M 212.84 123.82 L 212.84 97.85 L 218.97 97.85 L 218.97 123.19 L 218.97 123.82 L 212.84 123.82 z M 245.67 97.85 L 245.67 117.6 L 224.57 117.6 L 224.57 97.85 L 245.67 97.85 z M 224.57 92.26 L 224.57 86.44 L 245.67 86.44 L 245.67 92.25999999999999 L 224.57 92.25999999999999 z M 251.27 123.82 L 251.27 123.19 L 251.27 97.85 L 257.40000000000003 97.85 L 257.40000000000003 123.82 L 251.27 123.82 z M 283.52 190.14 L 275.39 195.07999999999998 L 273.78999999999996 103.95999999999998 L 283.52 103.95999999999998 L 283.52 190.14 z M 293.61 101.65 L 286.55 101.65 L 283.52000000000004 101.65 L 263 101.65 L 263 97.86 L 293.62 97.86 L 293.62 101.65 L 293.61 101.65 z M 293.61 92.26 L 262.99 92.26 L 251.26000000000002 92.26 L 251.26000000000002 80.84 L 218.97000000000003 80.84 L 218.97000000000003 92.25 L 207.25000000000003 92.25 L 171.08000000000004 92.25 L 154.58000000000004 92.25 L 151.83000000000004 92.25 L 148.23000000000005 92.25 L 145.48000000000005 92.25 L 128.98000000000005 92.25 L 92.81 92.25 L 81.08 92.25 L 81.08 80.84 L 48.79 80.84 L 48.79 92.25 L 37.07 92.25 L 6.45 92.25 L 6.45 62.7 L 11.81 62.57 L 128.32 62.57 L 128.32 70.59 C 128.32 78.60000000000001 134.82999999999998 85.11 142.84 85.11 L 147.14000000000001 85.11 L 152.92000000000002 85.11 L 157.22000000000003 85.11 C 165.23000000000002 85.11 171.74000000000004 78.6 171.74000000000004 70.59 L 171.74000000000004 62.57000000000001 L 288.25000000000006 62.57000000000001 L 293.61000000000007 62.70000000000001 L 293.61 92.26 L 293.61 92.26 z M 228.33 110.83 C 228.33 109.73 229.22 108.83 230.33 108.83 L 239.92000000000002 108.83 C 241.02 108.83 241.92000000000002 109.72 241.92000000000002 110.83 C 241.92000000000002 111.94 241.03000000000003 112.83 239.92000000000002 112.83 L 230.33 112.83 C 229.22 112.83 228.33 111.94 228.33 110.83 z M 58.14 110.83 C 58.14 109.73 59.03 108.83 60.14 108.83 L 69.73 108.83 C 70.83 108.83 71.73 109.72 71.73 110.83 C 71.73 111.94 70.84 112.83 69.73 112.83 L 60.14 112.83 C 59.04 112.83 58.14 111.94 58.14 110.83 z" stroke-linecap="round" />
</g>
</g>
</g>
<g transform="matrix(3.0399095543196673 0 0 3.0399095543196673 652.4414294085998 571.5824896384089)" id="shape-05c63e6d-903f-40c4-818a-8689a97e0a19"  >
<g style=""  paint-order="stroke"   >
		<g transform="matrix(1 0 0 1 62.369389247280154 -39.75934988525348)" id="path-01"  >
<linearGradient id="SVGID_796495" gradientUnits="userSpaceOnUse" gradientTransform="matrix(1 0 0 1 164.0955559992509 0.00000169814551398417)"  x1="0" y1="0" x2="0" y2="6">
<stop offset="0%" style="stop-color:rgb(48,35,174);stop-opacity: 1"/>
<stop offset="100%" style="stop-color:rgb(200,109,215);stop-opacity: 1"/>
</linearGradient>
<path style="stroke: none; stroke-width: 1; stroke-dasharray: none; stroke-linecap: butt; stroke-dashoffset: 0; stroke-linejoin: miter; stroke-miterlimit: 4; fill: url(#SVGID_796495); fill-rule: nonzero; opacity: 1;"  paint-order="stroke"  transform=" translate(-187.3694021295371, -3.0854473843949806)" d="M 177.03323 4.46232 C 173.05735 3.75877 169.01336 2.93012 164.92884 2.38001 C 163.78574 2.22605 163.83215 1.1103 164.9854 0.99512 C 176.98369 -0.20328999999999997 189.18892 -0.3312299999999999 201.25014 0.6762600000000001 C 204.12444 0.9077000000000001 209.30207 1.00313 210.44361999999998 3.23666 C 211.07551999999998 4.4762900000000005 210.1582 5.19786 208.38474999999997 5.45689 C 206.28519999999997 5.756489999999999 204.10402999999997 5.8928199999999995 201.96367999999995 6.01519 C 193.54482999999996 6.478389999999999 185.18707999999995 5.89283 177.03322999999995 4.46233 L 177.03323 4.46232 z" stroke-linecap="round" />
</g>
		<g transform="matrix(1 0 0 1 -122.27770503642726 36.33014368112306)" id="path-01"  >
<linearGradient id="SVGID_796496" gradientUnits="userSpaceOnUse" gradientTransform="matrix(1 0 0 1 5.8601460439789e-7 72.66028906039163)"  x1="0" y1="0" x2="0" y2="13">
<stop offset="0%" style="stop-color:rgb(48,35,174);stop-opacity: 1"/>
<stop offset="100%" style="stop-color:rgb(200,109,215);stop-opacity: 1"/>
</linearGradient>
<path style="stroke: none; stroke-width: 1; stroke-dasharray: none; stroke-linecap: butt; stroke-dashoffset: 0; stroke-linejoin: miter; stroke-miterlimit: 4; fill: url(#SVGID_796496); fill-rule: nonzero; opacity: 1;"  paint-order="stroke"  transform=" translate(-2.7223078458296626, -79.17494095077151)" d="M 4.12177 73.27008 C 4.00291 72.56961999999999 3.05962 72.43271999999999 2.7433299999999994 73.06891999999999 C 1.9344599999999994 74.6959 0.8721599999999994 76.98441999999999 0.4790999999999994 78.51164999999999 C -0.1238200000000006 80.83530999999999 -0.6718900000000005 84.55107999999998 2.2438599999999997 85.55971 C 3.41673 85.96513999999999 4.458 85.38441999999999 4.99517 84.33192 C 5.6638 83.02759 5.44455 81.48214 5.23629 80.09002 C 4.9603 78.2522 4.46382 75.28571 4.12177 73.27008 z" stroke-linecap="round" />
</g>
		<g transform="matrix(1 0 0 1 0.7021152609202375 -5.182245909494377)" id="path-01"  >
<linearGradient id="SVGID_796497" gradientUnits="userSpaceOnUse" gradientTransform="matrix(1 0 0 1 1.4042311078550966 2.667320000000011)"  x1="0" y1="0" x2="0" y2="70">
<stop offset="0%" style="stop-color:rgb(48,35,174);stop-opacity: 1"/>
<stop offset="100%" style="stop-color:rgb(200,109,215);stop-opacity: 1"/>
</linearGradient>
<path style="stroke: none; stroke-width: 1; stroke-dasharray: none; stroke-linecap: butt; stroke-dashoffset: 0; stroke-linejoin: miter; stroke-miterlimit: 4; fill: url(#SVGID_796497); fill-rule: nonzero; opacity: 1;"  paint-order="stroke"  transform=" translate(-125.70212814317716, -37.662551360154076)" d="M 244.45203 47.63067 C 243.82724000000002 47.049690000000005 243.11472 46.56718 242.35839 46.172720000000005 C 241.61303 45.788970000000006 240.81289 45.52591 240.17710000000002 44.96687000000001 C 239.59618000000003 44.46269000000001 239.12485000000004 43.717400000000005 239.07000000000002 42.92821000000001 C 239.05909000000003 42.70877000000001 239.08097 42.50057000000001 239.12486 42.292370000000005 C 239.10293000000001 42.171940000000006 239.10293000000001 42.05125 239.14674000000002 41.908620000000006 C 240.03462000000002 38.65341000000001 237.69984000000002 35.91308000000001 235.06916 34.345420000000004 C 234.30186 33.885130000000004 233.67724 33.14808000000001 232.88787000000002 32.690250000000006 C 226.62107000000003 29.055550000000007 218.55045 30.585760000000008 211.34887000000003 29.741720000000008 C 215.72242000000003 29.65395000000001 220.08500000000004 29.566430000000008 224.45861000000002 29.47866000000001 C 226.31109000000004 29.445740000000008 228.17446 29.41283000000001 230.01601000000002 29.22657000000001 C 230.73941000000002 29.14977000000001 232.59584 28.93837000000001 233.73185 28.52490000000001 C 234.64671 28.19191000000001 235.46377 27.582370000000008 236.29684 27.08890000000001 C 237.46972 26.38749000000001 238.59869 25.52151000000001 239.42079 24.41441000000001 C 239.81538 23.86635000000001 240.15526 23.26368000000001 240.36345 22.61687000000001 C 240.68137 21.64143000000001 240.26483 21.04948000000001 239.64005 20.31488000000001 C 239.15775 19.72320000000001 238.62066000000002 19.17512000000001 238.06162 18.65971000000001 C 237.71084000000002 18.34179000000001 237.43337 17.902270000000012 236.9984 17.71718000000001 C 235.03032000000002 16.87974000000001 232.76728 17.09231000000001 230.94773 15.91937000000001 C 230.03791 15.33865000000001 230.60792 13.792940000000009 231.70406 14.13280000000001 C 234.20319 14.90004000000001 236.80103 15.33866000000001 239.42079999999999 15.05338000000001 C 240.70332 14.92198000000001 241.99676 14.58212000000001 243.18051999999997 14.05600000000001 C 244.19992999999997 13.59571000000001 245.70167999999998 12.90501000000001 246.08530999999996 11.73234000000001 C 246.46892999999997 10.61427000000001 245.60300999999995 9.45230000000001 244.69319999999996 8.88229000000001 C 243.53128999999996 8.13699000000001 242.01861999999997 8.10408000000001 240.67039999999997 8.12602000000001 C 237.49159999999998 8.180610000000009 234.31283999999997 8.46588000000001 231.14500999999998 8.65214000000001 C 219.65757 9.33188000000001 208.13720999999998 9.67147000000001 196.63878 9.93453000000001 C 190.89507 10.06619000000001 185.14038 10.21953000000001 179.39658 10.110080000000009 C 173.70766 10.00036000000001 168.10643 9.41938000000001 162.47229 8.608250000000009 C 156.98071 7.8081000000000085 151.53289999999998 7.369750000000009 145.97552 7.6437800000000085 C 140.64833 7.917810000000008 135.36497 8.641160000000008 130.08160999999998 9.33187000000001 C 120.07390999999998 10.625230000000009 109.48530999999998 12.082910000000009 99.52143999999998 9.71536000000001 C 97.07708999999998 10.16468000000001 94.56695999999998 10.24148000000001 92.12253999999999 9.82482000000001 C 90.96063999999998 9.61662000000001 91.26758999999998 7.80811000000001 92.38559 7.81908000000001 C 96.3317 7.85200000000001 100.25589 7.58893000000001 103.9827 6.185860000000011 C 104.87057 5.85697000000001 107.77534 4.95806000000001 106.50379 3.5772000000000106 C 105.90092999999999 2.9194200000000103 104.82674 2.8426100000000107 103.99367 2.7658000000000107 C 103.07289 2.6999700000000106 102.16315 2.667320000000011 101.24237 2.667320000000011 C 97.38401999999999 2.6782900000000107 93.55847999999999 3.291930000000011 89.75493 3.8619300000000107 C 86.01709 4.409990000000011 82.2793 4.903470000000011 78.50861 5.210150000000011 C 76.60135000000001 5.363750000000011 74.68383 5.532620000000011 72.76489000000001 5.517100000000011 C 71.71483 5.508540000000011 69.30330000000001 5.376610000000011 63.54223000000001 5.903260000000011 C 57.79244 6.42884 52.08135 7.3454 46.30424 7.66573 C 35.69369 8.24644 25.05023 8.12602 14.46163 7.28198 C 11.75415 7.06281 9.05771 6.76683 6.35023 6.50377 C 4.92527 6.3721 1.29707 5.55 1.40666 7.96171 C 1.49437 9.97842 3.29204 11.4254 5.03492 12.12679 C 7.40254 13.08055 9.89078 12.71874 12.33513 13.21195 C 13.33258 13.42042 13.29973 14.97684 12.33513 15.20699 C 10.70191 15.590739999999998 8.7727 15.61268 6.898289999999999 15.27282 C 6.996969999999999 15.73311 6.29543 16.46743 6.109109999999999 16.675639999999998 C 5.36375 17.53092 4.815689999999999 18.506359999999997 4.464919999999999 19.59152 C 4.1141499999999995 20.69862 3.9058799999999994 21.849619999999998 4.311439999999999 22.967689999999997 C 4.662209999999999 23.932159999999996 5.26507 24.776199999999996 5.484309999999999 25.78456 C 5.977579999999999 28.0646 4.125119999999999 29.68686 3.905869999999999 31.86814 C 3.818159999999999 32.8219 3.6318399999999986 34.27957 4.015449999999999 35.17848 C 4.486849999999999 36.26364 5.7692999999999985 35.55126 6.613279999999999 35.87989 C 6.722929999999999 35.92378 6.788699999999999 36.00058000000001 6.8763999999999985 36.055440000000004 C 7.139459999999999 36.09933 7.391549999999999 36.285590000000006 7.424459999999998 36.62545000000001 C 7.797099999999998 39.705650000000006 5.659639999999998 42.314310000000006 4.223709999999998 44.82450000000001 C 3.390699999999998 46.29314000000001 2.754929999999998 47.860800000000005 2.3493699999999977 49.50500000000001 C 2.239719999999998 49.94335000000001 1.6587999999999976 51.675320000000006 2.086309999999998 51.97130000000001 C 2.371249999999998 52.179500000000004 3.017999999999998 51.773810000000005 3.412589999999998 51.489070000000005 C 3.872939999999998 51.00656000000001 5.100669999999998 50.765460000000004 5.736389999999998 50.30516000000001 C 6.514659999999998 49.75710000000001 7.194259999999998 49.09930000000001 8.147899999999998 48.70485000000001 C 9.408479999999997 48.18943000000001 10.943019999999997 48.222620000000006 12.378949999999998 48.33207000000001 C 14.121829999999997 48.474700000000006 15.831789999999998 48.70485000000001 17.51981 49.04471000000001 C 18.48441 49.24194000000001 19.64631 49.65834000000001 19.62443 50.38170000000001 C 19.60249 50.809340000000006 19.15303 51.17114000000001 18.63788 51.34643000000001 C 18.11176 51.53296000000001 17.51981 51.56560000000001 16.93889 51.598520000000015 C 14.43967 51.751860000000015 11.94053 51.927410000000016 9.452290000000001 52.135610000000014 C 8.695960000000001 52.20144000000001 7.928650000000001 52.26727000000001 7.249060000000002 52.486440000000016 C 6.690020000000002 52.67270000000001 6.2077300000000015 52.979650000000014 5.944670000000002 53.36340000000001 C 5.944670000000002 53.45117000000001 5.977590000000002 53.53869000000001 5.966610000000002 53.637430000000016 C 5.966610000000002 54.700640000000014 5.352780000000002 55.62150000000002 4.859510000000002 56.520130000000016 C 4.278590000000002 57.61626000000002 1.9657100000000018 61.89107000000001 4.125120000000002 62.537880000000015 C 5.287020000000002 62.88871000000002 6.766770000000001 62.307730000000014 7.851930000000001 61.95690000000002 C 8.98098 61.59535000000002 10.109960000000001 61.20063000000002 11.293800000000001 61.05826000000002 C 13.04765 60.83882000000002 15.930420000000002 61.14577000000002 16.42369 63.23956000000002 C 16.54432 63.76568000000002 16.04007 64.43416000000002 15.44819 64.20403000000002 C 14.73567 63.91902000000002 14.065570000000001 62.93265000000002 13.39836 63.272480000000016 C 11.733640000000001 64.12038000000001 11.27186 66.22102000000001 9.77017 67.37173000000001 C 8.83848 68.07341000000001 7.73138 68.87355000000001 7.24908 69.98067000000002 C 6.8764400000000006 70.80277000000002 6.7997000000000005 71.98667000000002 7.70943 72.47988000000002 C 8.72889 73.02795000000002 10.05517 72.17293000000002 10.96498 71.75626000000003 C 12.12688 71.23014000000002 13.26683 70.67136000000002 14.4397 70.17790000000002 C 16.807380000000002 69.18052000000002 19.20792 68.30356000000002 21.68512 67.63507000000003 C 30.794040000000003 65.15781000000003 40.407070000000004 65.36601000000003 49.76808 65.24531000000003 C 60.4444 65.09198000000004 71.10974 64.79600000000003 81.78604999999999 64.86183000000003 C 92.36374999999998 64.92740000000002 102.94137999999998 65.28921000000003 113.45331999999999 66.52798000000003 C 116.08406 66.83493000000003 118.72569999999999 67.16355000000003 121.35645999999998 67.56925000000003 C 123.26371999999998 67.85425000000002 125.51076999999998 68.72024000000002 127.46185999999999 68.31455000000003 C 128.62382 68.06246000000003 128.53611999999998 67.02119000000002 127.93324999999999 66.18812000000003 C 127.29746999999999 65.33311000000003 126.26709999999999 64.80699000000003 125.33541999999998 64.35741000000003 C 123.16502999999999 63.30516000000003 120.66588999999999 62.92168000000003 118.28722999999998 62.73516000000003 C 117.77207999999997 62.69153000000003 117.59666999999997 61.92430000000003 118.15569999999998 61.79263000000003 C 119.63551999999999 61.45277000000003 121.10429999999998 61.44180000000003 122.54022999999998 61.69388000000003 C 122.58410999999998 61.562490000000025 122.68272999999998 61.46373000000003 122.85814999999998 61.40888000000003 C 130.47620999999998 59.28245000000003 138.74108999999999 60.83887000000003 146.21670999999998 62.800990000000034 C 153.27580999999998 64.66462000000003 160.17045 66.95537000000003 167.47068 67.75553000000004 C 170.9893 68.13928000000004 174.55169999999998 68.12832000000003 178.04836 67.56927000000003 C 181.49024 67.02121000000002 184.85537 66.11132000000003 188.28626 65.48673000000004 C 191.79382999999999 64.85089000000004 195.25767 64.66462000000004 198.8091 65.00422000000003 C 202.52501 65.36603000000004 206.19702 65.85923000000003 209.94577 65.89214000000003 C 211.80922 65.91408000000003 213.67265 65.92506000000003 215.53607000000002 65.91408000000003 C 217.31181000000004 65.90311000000003 219.17525000000003 66.02353000000002 220.92903 65.74949000000002 C 222.24441000000002 65.55226000000002 223.75708 64.97128000000002 224.35994000000002 63.67792000000002 C 224.86418000000003 62.58179000000002 224.29417000000004 61.21163000000002 223.06651000000002 60.99244000000002 C 222.59518000000003 60.90466000000002 222.73146000000003 60.46985000000002 222.50747 60.19229000000002 C 221.24722 58.63069000000002 218.50663 60.07160000000002 216.51165 59.95117000000002 C 215.43739 59.88534000000002 215.42641 58.28502000000002 216.51165 58.27405000000002 C 221.63058 58.197240000000015 226.78242 58.50420000000002 231.90133 58.635860000000015 C 235.89124 58.73434000000002 240.10037 58.635860000000015 243.77245 60.44437000000001 C 245.17547 61.12410000000001 247.47738999999999 62.987200000000016 249.05584 61.836480000000016 C 250.76579999999998 60.57604000000001 249.73541999999998 57.91224000000002 249.19834 56.344850000000015 C 248.13505 53.24271000000002 246.9074 49.92139000000002 244.45208 47.63065000000002 L 244.45203 47.63067 z M 73.77328 37.34882 C 75.27498 37.304930000000006 76.78765 37.272020000000005 78.28935 37.239360000000005 C 79.62667 37.20644000000001 81.23795 36.921440000000004 82.48756 37.49145000000001 C 83.05757 37.75451000000001 83.01368000000001 38.675090000000004 82.48756 38.94913000000001 C 81.19413 39.617880000000014 79.34166 39.34385000000001 77.91671 39.38774000000001 C 76.40405 39.420390000000005 74.90234 39.453570000000006 73.38968 39.48622000000001 C 70.32053 39.53011000000001 67.2404 39.58497000000001 64.1602 39.63982000000001 C 61.09105 39.69442000000001 58.010920000000006 39.69442000000001 54.930800000000005 39.65079000000001 C 53.494870000000006 39.62885000000001 52.04797000000001 39.67273000000001 50.61204000000001 39.51913000000001 C 49.55980000000001 39.39870000000001 48.222480000000004 39.22315000000001 47.477120000000006 38.39007000000001 C 47.323640000000005 38.22576000000001 47.422320000000006 37.95172000000001 47.66344000000001 37.95172000000001 C 48.321160000000006 37.92978000000001 48.98978000000001 38.11603000000001 49.65841000000001 38.18187000000001 C 50.29419000000001 38.24770000000001 50.94086000000001 38.25867000000001 51.58761000000001 38.23673000000001 C 52.95777000000001 38.20381000000001 54.32794000000001 38.09410000000001 55.687140000000014 38.01756000000001 C 58.70151000000001 37.83130000000001 61.71586000000001 37.71061000000001 64.73023 37.62284000000001 C 67.7446 37.53533000000001 70.75895 37.43658000000001 73.77331000000001 37.34881000000001 L 73.77328 37.34882 z M 38.81762 15.40424 C 40.82356 15.04269 43.048739999999995 15.2509 45.07655 15.2509 C 47.115339999999996 15.2509 49.165099999999995 15.228959999999999 51.203959999999995 15.1741 C 55.391119999999994 15.075349999999998 59.622249999999994 14.69187 63.80947 14.922009999999998 C 64.14927 14.94395 64.24788 15.459099999999998 63.88615 15.535909999999998 C 59.80857 16.390919999999998 55.5446 16.46746 51.39029 16.57718 C 49.21996 16.643009999999997 47.06056 16.664949999999997 44.89023 16.664949999999997 C 42.928110000000004 16.675649999999997 40.74682 16.818289999999998 38.817620000000005 16.379949999999997 C 38.35727 16.27023 38.32441 15.49202 38.81762 15.40424 L 38.81762 15.40424 z M 27.53844 36.35144 C 25.99293 36.439209999999996 24.39255 36.121289999999995 22.836060000000003 36.07740999999999 C 21.312420000000003 36.033519999999996 19.788780000000003 35.97865999999999 18.265150000000006 36.022549999999995 C 16.664840000000005 36.05546999999999 15.075430000000006 36.14324 13.486020000000005 36.26367 C 11.984320000000006 36.38436 10.416870000000005 36.55965 8.904200000000007 36.38436 C 8.312310000000007 36.30756 8.180790000000007 35.55129 8.761690000000007 35.33185 C 10.252420000000008 34.805730000000004 11.918550000000007 34.63044 13.486020000000007 34.45516000000001 C 15.130210000000007 34.279610000000005 16.785390000000007 34.126270000000005 18.440560000000005 34.07141000000001 C 20.040870000000005 34.02752000000001 21.674160000000004 34.02752000000001 23.263500000000004 34.23572000000001 C 24.776170000000004 34.43321000000001 26.453280000000003 34.60850000000001 27.812470000000005 35.32115000000001 C 28.327680000000004 35.59518000000001 28.053650000000005 36.31853000000001 27.538440000000005 36.35145000000001 C 27.53844 36.35145 27.53844 36.35144 27.53844 36.35144 z M 35.50734 16.27023 C 33.81926 16.752460000000003 31.89012 16.752460000000003 30.14723 16.80732 C 28.32769 16.87315 26.50806 16.851210000000002 24.69942 16.741490000000002 C 22.89085 16.632030000000004 21.0822 16.456760000000003 19.28459 16.204400000000003 C 17.651290000000003 15.985230000000003 15.689240000000002 15.897450000000003 14.187550000000002 15.185070000000003 C 13.683310000000002 14.954920000000003 13.968310000000002 14.220600000000003 14.450610000000001 14.209360000000004 C 15.33848 14.176720000000003 16.23731 14.461720000000003 17.11421 14.604080000000003 C 18.01305 14.757420000000003 18.91188 14.889080000000003 19.82169 14.998800000000003 C 21.49874 15.217970000000003 23.18682 15.371320000000003 24.87484 15.459090000000003 C 26.573829999999997 15.546860000000004 28.27282 15.590750000000003 29.96091 15.568810000000003 C 31.747609999999998 15.557840000000002 33.62195 15.316720000000002 35.39768 15.470060000000002 C 35.84713 15.502980000000003 35.967690000000005 16.138810000000003 35.50733 16.270210000000002 L 35.50734 16.27023 z M 106.19689 57.43004 C 103.64289 57.52852 101.05601999999999 57.10115 98.51299 56.870999999999995 C 96.01384 56.64084999999999 93.50367 56.46556999999999 90.99354 56.322939999999996 C 82.04907 55.79682 73.07173 55.81876 64.13830999999999 56.45433 C 59.67704999999999 56.76128 55.22674999999999 57.22184 50.787429999999986 57.81379 C 46.36998999999999 58.39451 41.842959999999984 59.600359999999995 37.37077999999998 59.04132 C 37.04188999999998 58.99743 37.03091999999998 58.50423 37.37077999999998 58.52617 C 40.01242999999998 58.69048 42.61025999999998 58.03296 45.197119999999984 57.55047 C 47.718209999999985 57.079209999999996 50.26124999999998 56.6628 52.804279999999984 56.290029999999994 C 61.617229999999985 55.02958999999999 70.50683999999998 54.37179999999999 79.39644999999999 54.26208 C 83.93444999999998 54.20748 88.48335999999999 54.33889 93.01038999999999 54.623889999999996 C 95.27938999999999 54.76624999999999 97.53742999999999 54.95278 99.79544999999999 55.171949999999995 C 101.98770999999999 55.391119999999994 104.24573999999998 55.57765 106.36126999999999 56.21321999999999 C 107.04092 56.4217 106.89843 57.40811 106.19689 57.43004 z M 180.21864 15.23992 C 187.12433 15.23992 194.01898 15.39326 200.9246 15.59075 C 204.31167 15.68923 207.69868 15.77701 211.08576 15.86478 C 212.83956 15.89742 214.60431 15.97424 216.35816 16.04007 C 218.00234 16.09493 219.78907 16.05104 221.38935 16.48939 C 221.86076 16.62105 221.90456 17.38829 221.38935 17.48705 C 219.76711 17.81567 217.99137000000002 17.65136 216.35816 17.59651 C 214.59339 17.530939999999998 212.83954 17.48705 211.08576 17.399279999999997 C 207.69869 17.245679999999997 204.31168 17.092329999999997 200.9246 16.960929999999998 C 194.008 16.675649999999997 187.11337 16.347029999999997 180.21864 15.853559999999998 C 179.82405 15.83188 179.81308 15.23993 180.21864 15.23992 z M 162.77921 45.36161 C 165.21261 44.956179999999996 167.74466 44.84646 170.21096 44.68215 C 172.73211 44.51756 175.24224 44.38617 177.75234 44.26547 C 182.81647 44.00241 187.9683 43.67352 193.03243 43.980470000000004 C 193.54763 44.01339 193.5257 44.70382000000001 193.03243 44.758680000000005 C 188.04505 45.33966 182.95897 45.38355000000001 177.93873 45.569810000000004 C 175.42855 45.66856000000001 172.91842 45.77828 170.40832 45.876760000000004 C 167.9091 45.97551000000001 165.36607 46.15079000000001 162.86694 46.03036 C 162.4942 46.01912 162.37366 45.42744 162.77921 45.36161 L 162.77921 45.36161 z M 127.75778 38.30259 C 126.55207 38.60954 125.25863 38.64219 124.03097 38.72997 C 122.71558999999999 38.828720000000004 121.4112 38.86163 120.09582999999999 38.89428 C 117.47605999999999 38.94914 114.85629999999999 38.87234 112.24756 38.74094 C 111.63373 38.708020000000005 111.63373 37.77621 112.24756 37.787440000000004 C 114.81246999999999 37.83133 117.37746 37.798140000000004 119.95333 37.743550000000006 C 121.21391 37.71063000000001 122.46345 37.644800000000004 123.72403999999999 37.60092000000001 C 125.01745999999999 37.55730000000001 126.35477999999999 37.40369000000001 127.64820999999999 37.51341000000001 C 128.07571 37.54606 128.21815 38.1819 127.75778 38.30259 z M 150.75461 16.55524 C 147.47719 16.336070000000003 144.19977 16.27024 140.92235000000002 16.22635 C 134.27979000000002 16.1276 127.65919000000002 16.55524 121.02753000000003 16.64302 C 120.76448000000002 16.64302 120.69870000000003 16.21538 120.96176000000003 16.17149 C 127.56049000000003 15.097299999999999 134.23598000000004 14.362979999999999 140.92235000000002 14.023119999999999 C 144.24367 13.858809999999998 147.61969000000002 13.902689999999998 150.93006000000003 14.132839999999998 C 152.61808000000002 14.253269999999999 154.28422000000003 14.417839999999998 155.95037000000002 14.658959999999999 C 156.78338000000002 14.790619999999999 157.63839000000002 14.900079999999999 158.46049000000002 15.097309999999998 C 159.21682 15.283839999999998 160.06086000000002 15.404259999999999 160.71852 15.84288 C 161.25561000000002 16.19344 161.24464 17.147209999999998 160.53219 17.30056 C 159.75392000000002 17.46515 158.95376000000002 17.3225 158.16451 17.25694 C 157.32053000000002 17.191110000000002 156.47649 17.07041 155.64342000000002 16.98291 C 154.01020000000003 16.82931 152.38794000000001 16.66499 150.75464000000002 16.55527 L 150.75461 16.55524 z M 212.34627 60.09357 C 211.41458 60.49927 210.51573 60.4444 209.52927 60.4444 C 208.45501 60.43343 207.39179 60.43343 206.31754999999998 60.42246 C 204.31166 60.40052 202.29475 60.40052 200.28882 60.35663 C 192.98862 60.19232 185.6993 60.159400000000005 178.41007 59.92925 C 171.10979 59.69883 163.80959 59.66619 156.53125999999997 59.019380000000005 C 156.36687999999998 58.997440000000005 156.35590999999997 58.75632 156.53125999999997 58.745340000000006 C 160.68564999999998 58.62465 164.82898999999998 58.668530000000004 168.98331999999996 58.734370000000006 C 176.20685999999995 58.85506000000001 183.44129999999996 58.81118000000001 190.66483999999997 58.78923 C 194.24921999999998 58.76729 197.83350999999996 58.734370000000006 201.41787999999997 58.67951 C 203.23742999999996 58.64659 205.06802999999996 58.62464 206.88757999999996 58.592 C 207.83023999999995 58.57006 208.77295999999996 58.55908 209.71560999999997 58.53713 C 210.55964999999998 58.51519 211.37077999999997 58.438379999999995 212.17092999999997 58.77825 C 212.66418 58.97549 212.98204 59.80857 212.34627 60.09357 z M 236.16527 44.25451 C 234.65260999999998 44.47368 233.10702999999998 44.38617 231.58344 44.33131 C 230.02688 44.276450000000004 228.48137 44.199650000000005 226.92487 44.155750000000005 C 223.81183 44.046290000000006 220.70977 43.991440000000004 217.59678 43.991440000000004 C 211.32686999999999 43.980470000000004 205.04604 44.11213000000001 198.76522 44.18867 C 198.3048 44.19964 198.33773 43.542120000000004 198.76522 43.49823 C 205.03507 42.81849 211.294 42.57738 217.59675 42.57738 C 220.76459999999997 42.57738 223.94331999999997 42.621269999999996 227.11118 42.720009999999995 C 228.6019 42.774609999999996 230.09262999999999 42.82946999999999 231.58342 42.90626999999999 C 233.10699 42.99403999999999 234.68543 43.07057999999999 236.16523999999998 43.476279999999996 C 236.51601999999997 43.57476 236.5708 44.18866 236.16523999999998 44.25449 L 236.16527 44.25451 z" stroke-linecap="round" />
</g>
		<g transform="matrix(1 0 0 1 118.13997174533917 -9.158392698852516)" id="path-01"  >
<linearGradient id="SVGID_796498" gradientUnits="userSpaceOnUse" gradientTransform="matrix(1 0 0 1 239.12419732520908 30.69505295040441)"  x1="0" y1="0" x2="0" y2="6">
<stop offset="0%" style="stop-color:rgb(48,35,174);stop-opacity: 1"/>
<stop offset="100%" style="stop-color:rgb(200,109,215);stop-opacity: 1"/>
</linearGradient>
<path style="stroke: none; stroke-width: 1; stroke-dasharray: none; stroke-linecap: butt; stroke-dashoffset: 0; stroke-linejoin: miter; stroke-miterlimit: 4; fill: url(#SVGID_796498); fill-rule: nonzero; opacity: 1;"  paint-order="stroke"  transform=" translate(-243.1399846275961, -33.686404570795936)" d="M 247.09297 33.33323 C 246.52296 31.63444 243.93612000000002 31.54666 242.47824 31.26166 C 241.83348 31.13668 240.56868 30.88532 239.66049 30.70431 C 239.27257 30.627 238.98359000000002 31.04974 239.19623 31.38327 C 239.69757 32.16959 240.37303000000003 33.30265 240.60391 34.034909999999996 C 240.83406000000002 34.76922999999999 241.00947000000002 35.63522 241.59039 36.183279999999996 C 242.14944000000003 36.720369999999996 242.99348 36.76425999999999 243.70593000000002 36.57774 C 244.59381000000002 36.33689 245.37208 35.74494 246.06263 35.163959999999996 C 246.63264 34.692699999999995 247.37800000000001 34.166579999999996 247.09299000000001 33.333239999999996 L 247.09297 33.33323 z" stroke-linecap="round" />
</g>
</g>
</g>
<g transform="matrix(1.9211538461538462 0 0 1.9211538461538462 639.6447454950767 550.2597108009444)" id="text-logo"  >
<g style=""  paint-order="stroke"   >
		<g transform="matrix(1 0 0 1 0 0)" id="text-logo-path-0"  >
<linearGradient id="SVGID_796500" gradientUnits="userSpaceOnUse" gradientTransform="matrix(1 0 0 1 2.3799999999999955 -46.05)"  x1="0" y1="0" x2="0" y2="69">
<stop offset="0%" style="stop-color:rgb(248,77,158);stop-opacity: 1"/>
<stop offset="100%" style="stop-color:rgb(255,116,117);stop-opacity: 1"/>
</linearGradient>
<filter id="SVGID_796483" y="-27.113005839661184%" height="154.22601167932237%" x="-21.145197099685088%" width="142.29039419937018%" >
	<feGaussianBlur in="SourceAlpha" stdDeviation="0"></feGaussianBlur>
	<feOffset dx="3.3516483516483504" dy="3.3516483516483504" result="oBlur" ></feOffset>
	<feFlood flood-color="rgb(81,18,94)" flood-opacity="1"/>
	<feComposite in2="oBlur" operator="in" />
	<feMerge>
		<feMergeNode></feMergeNode>
		<feMergeNode in="SourceGraphic"></feMergeNode>
	</feMerge>
</filter>
<path style="stroke: rgb(81,18,94); stroke-width: 6.032967032967032; stroke-dasharray: none; stroke-linecap: butt; stroke-dashoffset: 0; stroke-linejoin: miter; stroke-miterlimit: 4; fill: url(#SVGID_796500); fill-rule: nonzero; opacity: 1;filter: url(#SVGID_796483);"  paint-order="stroke"  transform=" translate(-148.715, 22.49)" d="M 4.88 -3.34 Q 2.38 -7.03 2.38 -13.05 Q 2.38 -19.06 3.96 -24.66 Q 5.54 -30.26 8.4 -34.7 Q 11.26 -39.14 15.22 -41.88 Q 19.18 -44.62 23.89 -44.62 L 23.89 -44.62 Q 26.93 -44.62 29.07 -42.29 L 29.07 -42.29 Q 31.16 -39.91 31.16 -36.04 L 31.16 -36.04 L 31.16 -35.27 Q 31.16 -34.91 31.1 -34.49 L 31.1 -34.49 L 23.11 -32.35 Q 22.4 -33.84 21.42 -33.84 Q 20.43 -33.84 19.36 -32.7 Q 18.29 -31.57 17.25 -29.79 Q 16.2 -28 15.25 -25.76 Q 14.3 -23.53 13.58 -21.27 L 13.58 -21.27 Q 11.91 -16.26 11.91 -13.19 Q 11.91 -10.13 13.76 -10.13 L 13.76 -10.13 Q 15.25 -10.13 16.92 -11.97 L 16.92 -11.97 Q 18.59 -13.88 19.06 -15.91 L 19.06 -15.91 L 26.03 -13.11 Q 23.35 -6.85 19 -3.16 L 19 -3.16 Q 15.13 0.12 11.08 0.12 L 11.08 0.12 Q 7.27 0.12 4.88 -3.34 L 4.88 -3.34 Z M 26.57 -12.27 L 26.57 -12.27 Q 26.57 -19.06 29.73 -26.93 L 29.73 -26.93 Q 32.88 -34.79 38.01 -40.03 L 38.01 -40.03 Q 43.55 -45.63 49.62 -45.63 L 49.62 -45.63 Q 54.63 -45.63 56.95 -41.58 L 56.95 -41.58 Q 58.8 -38.3 58.8 -31.63 L 58.8 -31.63 Q 58.8 -28 57.75 -23.59 Q 56.71 -19.18 54.92 -15.49 Q 53.14 -11.79 50.78 -8.88 Q 48.43 -5.96 45.87 -3.93 L 45.87 -3.93 Q 40.57 0.24 35.68 0.24 L 35.68 0.24 Q 31.57 0.24 29.19 -2.74 L 29.19 -2.74 Q 26.57 -6.02 26.57 -12.27 Z M 35.62 -13.82 L 35.62 -13.82 Q 35.62 -11.44 37.65 -10.25 L 37.65 -10.25 Q 38.24 -9.83 39.02 -9.83 L 39.02 -9.83 Q 41.76 -9.83 43.87 -11.71 Q 45.99 -13.58 47.42 -16.32 Q 48.85 -19.06 49.59 -22.19 Q 50.34 -25.32 50.34 -27.88 L 50.34 -27.88 Q 50.34 -32.82 47.48 -32.82 L 47.48 -32.82 Q 43.84 -32.82 40.92 -29.25 L 40.92 -29.25 Q 38.6 -26.39 36.93 -21.45 L 36.93 -21.45 Q 35.62 -17.39 35.62 -13.82 Z M 63.98 -1.79 L 55.04 0.3 Q 61.83 -32.05 62.97 -44.74 L 62.97 -44.74 Q 63.8 -44.68 64.34 -44.68 L 64.34 -44.68 L 66.06 -44.68 Q 67.25 -44.68 72.74 -44.92 L 72.74 -44.92 Q 73.57 -40.63 74.28 -36.93 L 74.28 -36.93 Q 76.19 -26.33 76.91 -23.29 L 76.91 -23.29 Q 77.14 -24.54 77.44 -26.15 Q 77.74 -27.76 78.1 -29.52 Q 78.45 -31.27 78.81 -33.12 L 78.81 -33.12 Q 79.41 -36.04 81.25 -44.86 L 81.25 -44.86 L 88.7 -45.75 Q 82.21 -15.67 80.6 -2.56 L 80.6 -2.56 Q 79.88 -2.56 75.68 -1.55 Q 71.48 -0.54 70.65 -0.24 L 70.65 -0.24 Q 69.46 -16.56 68.03 -23.35 L 68.03 -23.35 Q 67.85 -22.22 67.55 -20.7 Q 67.25 -19.18 66.96 -17.45 L 66.96 -17.45 Q 65.83 -10.96 63.98 -1.79 L 63.98 -1.79 Z M 83.16 -5.36 L 83.16 -5.36 L 87.69 -14.24 Q 88.52 -12.57 90.9 -11.2 L 90.9 -11.2 Q 93.29 -9.77 94.48 -9.77 Q 95.67 -9.77 96.47 -10.01 Q 97.28 -10.25 97.93 -10.72 L 97.93 -10.72 Q 99.42 -11.79 99.42 -13.31 Q 99.42 -14.83 98.47 -16.08 Q 97.52 -17.33 96.12 -18.47 Q 94.72 -19.6 93.08 -20.76 Q 91.44 -21.92 90.07 -23.23 L 90.07 -23.23 Q 86.73 -26.21 86.73 -29.49 Q 86.73 -32.76 88.61 -35.5 Q 90.49 -38.24 93.32 -40.24 Q 96.15 -42.24 99.51 -43.4 Q 102.88 -44.56 105.2 -44.56 Q 107.52 -44.56 108.98 -44.14 Q 110.44 -43.72 111.52 -42.89 L 111.52 -42.89 Q 113.84 -40.98 113.84 -37.29 L 113.84 -37.29 Q 113.84 -36.4 113.69 -35.56 Q 113.54 -34.73 113.42 -33.72 L 113.42 -33.72 L 104.61 -31.16 Q 104.9 -32.35 104.9 -33.66 Q 104.9 -34.97 104.25 -35.77 Q 103.59 -36.58 102.85 -36.58 Q 102.1 -36.58 101.39 -36.22 Q 100.67 -35.86 99.96 -35.27 L 99.96 -35.27 Q 98.29 -33.9 98.29 -32.32 Q 98.29 -30.74 99.13 -29.76 Q 99.96 -28.77 101.18 -27.94 Q 102.4 -27.1 103.83 -26.21 Q 105.26 -25.32 106.51 -23.95 L 106.51 -23.95 Q 109.37 -20.61 109.37 -15.07 L 109.37 -15.07 Q 109.37 -8.4 104.49 -4.05 L 104.49 -4.05 Q 99.84 0.12 92.75 0.12 L 92.75 0.12 Q 87.51 0.12 83.16 -5.36 Z M 110.44 -6.37 L 110.44 -6.37 Q 110.44 -6.61 110.44 -6.85 Q 110.44 -7.09 110.59 -8.46 Q 110.74 -9.83 111.28 -13.37 Q 111.81 -16.92 112.44 -20.76 Q 113.06 -24.6 113.78 -28.47 Q 114.49 -32.35 115.09 -35.5 L 115.09 -35.5 Q 116.4 -42.29 116.64 -43.37 L 116.64 -43.37 Q 117.95 -43.49 119.71 -43.67 Q 121.46 -43.84 123.16 -43.99 Q 124.86 -44.14 126.71 -44.32 L 126.71 -44.32 Q 125.16 -36.99 124.26 -32.7 Q 123.37 -28.42 122.83 -25.85 Q 122.3 -23.29 121.88 -21.15 L 121.88 -21.15 Q 120.93 -16.62 120.63 -15.25 L 120.63 -15.25 Q 119.74 -11.14 119.74 -9.95 Q 119.74 -8.76 120.24 -8.13 Q 120.75 -7.51 121.61 -7.51 Q 122.48 -7.51 123.16 -8.34 Q 123.85 -9.17 124.29 -10.31 Q 124.74 -11.44 124.98 -12.63 Q 125.22 -13.82 125.48 -15.04 Q 125.75 -16.26 126.2 -18.44 Q 126.65 -20.61 127.09 -22.96 Q 127.54 -25.32 128.02 -27.76 L 128.02 -27.76 Q 129.27 -34.01 130.94 -43.61 L 130.94 -43.61 L 140.17 -44.2 L 139.87 -42.65 Q 139.16 -38.9 138.29 -33.98 Q 137.43 -29.07 136.71 -25.5 L 136.71 -25.5 Q 134.87 -16.2 133.97 -12.3 Q 133.08 -8.4 131.5 -5.96 Q 129.92 -3.51 127.84 -1.91 L 127.84 -1.91 Q 123.85 1.07 118.6 1.07 L 118.6 1.07 Q 115.39 1.07 113.06 -0.71 L 113.06 -0.71 Q 110.44 -2.86 110.44 -6.37 Z M 142.31 -1.01 L 132.25 -0.36 Q 141.96 -29.67 145.41 -43.25 L 145.41 -43.25 Q 148.81 -43.25 151.79 -43.61 Q 154.76 -43.96 158.22 -44.26 L 158.22 -44.26 Q 158.04 -42.95 157.83 -41.28 Q 157.62 -39.61 157.35 -37.77 Q 157.09 -35.92 156.79 -33.98 Q 156.49 -32.05 156.04 -28.98 Q 155.6 -25.91 154.88 -21.33 L 154.88 -21.33 L 155.72 -21.33 Q 162.57 -39.73 164.77 -44.38 L 164.77 -44.38 Q 167.81 -44.74 169.75 -45.04 Q 171.68 -45.33 173.05 -45.54 Q 174.42 -45.75 176.03 -46.05 L 176.03 -46.05 Q 173.11 -28.77 171.15 -2.5 L 171.15 -2.5 L 160.48 -0.6 Q 160.48 -2.74 161.02 -7.51 L 161.02 -7.51 L 161.85 -14.65 Q 162.45 -20.08 162.98 -23.05 L 162.98 -23.05 L 162.45 -23.05 Q 161.61 -20.49 160.57 -17.66 Q 159.53 -14.83 158.46 -11.91 Q 157.38 -9 156.34 -6.17 Q 155.3 -3.34 154.53 -0.77 L 154.53 -0.77 Q 152.38 -0.71 150.89 -0.6 L 150.89 -0.6 L 147.32 -0.42 L 149.28 -23.05 L 148.39 -23.05 Q 148.27 -22.28 147.76 -20.4 Q 147.26 -18.53 146.63 -16.11 Q 146.01 -13.7 145.26 -11.11 Q 144.52 -8.52 143.86 -6.31 L 143.86 -6.31 Q 142.79 -2.5 142.31 -1.01 L 142.31 -1.01 Z M 170.55 -0.36 L 170.55 -0.36 Q 172.99 -8.46 174.69 -14.06 Q 176.39 -19.66 177.46 -23.26 Q 178.53 -26.87 179.57 -30.41 Q 180.62 -33.96 181.6 -37.26 Q 182.58 -40.57 183.36 -43.31 L 183.36 -43.31 Q 194.38 -44.08 200.16 -45.21 L 200.16 -45.21 Q 199.62 -39.32 199.26 -31.27 L 199.26 -31.27 Q 198.49 -15.25 197.95 -1.73 L 197.95 -1.73 Q 196.17 -1.43 194.47 -1.19 Q 192.77 -0.95 190.95 -0.66 Q 189.14 -0.36 187.65 -0.12 L 187.65 -0.12 Q 188.3 -5.84 188.78 -10.42 L 188.78 -10.42 L 183.48 -10.42 L 181.03 -1.67 Q 179.66 -1.49 177.85 -1.25 Q 176.03 -1.01 174.24 -0.8 Q 172.46 -0.6 170.55 -0.36 Z M 190.09 -37.11 L 184.91 -16.5 L 189.31 -16.8 Q 189.31 -17.16 189.4 -18.02 Q 189.49 -18.88 189.61 -20.02 L 189.61 -20.02 Q 190.09 -26.39 190.63 -31.87 L 190.63 -31.87 L 191.04 -37.17 L 190.09 -37.11 Z M 198.19 -0.12 L 198.19 -0.12 Q 201.11 -10.78 202.84 -21.62 Q 204.56 -32.47 206.17 -43.43 L 206.17 -43.43 Q 214.51 -45.15 219.81 -45.15 L 219.81 -45.15 Q 226.07 -45.15 228.51 -40.87 L 228.51 -40.87 Q 229.46 -39.26 229.46 -36.9 Q 229.46 -34.55 228.72 -32.53 Q 227.98 -30.5 226.78 -28.83 L 226.78 -28.83 Q 224.34 -25.5 220.95 -24.25 L 220.95 -24.25 Q 225.83 -21.27 225.83 -15.01 L 225.83 -15.01 Q 225.83 -12.81 224.79 -10.66 Q 223.75 -8.52 221.99 -6.79 Q 220.23 -5.06 217.88 -3.75 Q 215.53 -2.44 212.9 -1.55 L 212.9 -1.55 Q 207.78 0.24 202.42 0.24 L 202.42 0.24 Q 200.16 0.24 198.19 -0.12 Z M 210.16 -12.09 L 210.16 -12.09 Q 215.58 -12.69 217.79 -15.13 L 217.79 -15.13 Q 218.74 -16.2 218.74 -17.51 Q 218.74 -18.82 218.18 -19.57 Q 217.61 -20.31 216.72 -20.79 L 216.72 -20.79 Q 214.93 -21.74 212.84 -21.74 L 212.84 -21.74 L 212.31 -21.74 Q 212.07 -21.74 211.83 -21.68 L 211.83 -21.68 Q 211.59 -20.19 211.39 -19.06 Q 211.18 -17.93 211 -16.89 Q 210.82 -15.85 210.61 -14.71 Q 210.4 -13.58 210.16 -12.09 Z M 213.26 -29.19 L 213.26 -29.19 Q 220.71 -30.86 220.71 -33.3 L 220.71 -33.3 Q 220.71 -35.62 216.9 -36.22 L 216.9 -36.22 Q 215.94 -36.4 215.23 -36.4 L 215.23 -36.4 L 214.57 -36.4 Q 214.45 -35.74 214.3 -34.82 Q 214.16 -33.9 213.98 -32.91 Q 213.8 -31.93 213.59 -30.95 Q 213.38 -29.96 213.26 -29.19 Z M 225.06 0.12 L 225.06 0.12 Q 226.49 -10.9 228.84 -23.05 Q 231.19 -35.21 232.86 -43.49 L 232.86 -43.49 L 243.58 -44.92 Q 238.04 -21.45 237.12 -16.08 Q 236.2 -10.72 235.9 -8.58 L 235.9 -8.58 Q 238.16 -8.76 242.21 -8.76 L 242.21 -8.76 Q 242.33 -6.43 242.57 -4.97 Q 242.81 -3.51 242.9 -2.83 Q 242.99 -2.14 243.05 -1.91 L 243.05 -1.91 L 241.2 -1.97 Q 234.95 -1.97 228.75 -0.83 L 228.75 -0.83 Q 226.72 -0.42 225.06 0.12 Z M 262.94 -2.98 L 243.23 0.06 L 251.21 -43.31 L 270.51 -44.98 Q 270.09 -43.61 269.79 -42.32 Q 269.5 -41.04 269.2 -39.79 Q 268.9 -38.54 268.72 -37.59 L 268.72 -37.59 Q 266.93 -37.41 263.84 -37.41 L 263.84 -37.41 L 259.73 -37.41 L 257.58 -26.45 Q 260.86 -26.63 263.06 -26.69 Q 265.27 -26.75 265.92 -26.81 L 265.92 -26.81 Q 265.68 -25.08 265.48 -23.44 Q 265.27 -21.8 264.97 -20.08 L 264.97 -20.08 Q 264.31 -20.02 262.94 -19.99 Q 261.57 -19.96 260.08 -19.9 Q 258.59 -19.84 256.75 -19.78 L 256.75 -19.78 L 254.66 -8.52 L 263.54 -9.95 L 262.94 -2.98 Z M 264.37 -5.36 L 264.37 -5.36 L 268.9 -14.24 Q 269.73 -12.57 272.12 -11.2 L 272.12 -11.2 Q 274.5 -9.77 275.69 -9.77 Q 276.88 -9.77 277.69 -10.01 Q 278.49 -10.25 279.15 -10.72 L 279.15 -10.72 Q 280.64 -11.79 280.64 -13.31 Q 280.64 -14.83 279.68 -16.08 Q 278.73 -17.33 277.33 -18.47 Q 275.93 -19.6 274.29 -20.76 Q 272.65 -21.92 271.28 -23.23 L 271.28 -23.23 Q 267.95 -26.21 267.95 -29.49 Q 267.95 -32.76 269.82 -35.5 Q 271.7 -38.24 274.53 -40.24 Q 277.36 -42.24 280.73 -43.4 Q 284.09 -44.56 286.41 -44.56 Q 288.74 -44.56 290.2 -44.14 Q 291.66 -43.72 292.73 -42.89 L 292.73 -42.89 Q 295.05 -40.98 295.05 -37.29 L 295.05 -37.29 Q 295.05 -36.4 294.9 -35.56 Q 294.75 -34.73 294.63 -33.72 L 294.63 -33.72 L 285.82 -31.16 Q 286.12 -32.35 286.12 -33.66 Q 286.12 -34.97 285.46 -35.77 Q 284.81 -36.58 284.06 -36.58 Q 283.32 -36.58 282.6 -36.22 Q 281.89 -35.86 281.17 -35.27 L 281.17 -35.27 Q 279.5 -33.9 279.5 -32.32 Q 279.5 -30.74 280.34 -29.76 Q 281.17 -28.77 282.39 -27.94 Q 283.61 -27.1 285.04 -26.21 Q 286.47 -25.32 287.72 -23.95 L 287.72 -23.95 Q 290.58 -20.61 290.58 -15.07 L 290.58 -15.07 Q 290.58 -8.4 285.7 -4.05 L 285.7 -4.05 Q 281.05 0.12 273.96 0.12 L 273.96 0.12 Q 268.72 0.12 264.37 -5.36 Z" stroke-linecap="round" />
</g>
</g>
</g>
</svg>