<svg xmlns="http://www.w3.org/2000/svg" shape-rendering="geometricPrecision" text-rendering="geometricPrecision" image-rendering="optimizeQuality" fill-rule="evenodd" clip-rule="evenodd" viewBox="0 0 512 435.1"><path fill-rule="nonzero" d="M15.27 45.16C7.05 45.16 0 38.12 0 29.5c0-8.22 7.05-15.27 15.27-15.27h22.7c14.09.4 26.62 3.14 37.2 9.79C95.65 37 99.29 55.54 104.53 76.48h173.51c-2.41 9.8-3.72 20.03-3.77 30.56h-70.32v-.02h-90.81l34.85 131.16h247.04l.18-.75c3 .2 6.02.31 9.06.31 7.76 0 15.36-.68 22.74-1.98l-5.36 21.6c-1.57 7.05-7.83 11.74-14.88 11.74l-250.57.01c5.49 20.35 10.97 31.32 18.41 36.41 9 5.87 24.66 6.26 50.89 5.87h177.36c8.61 0 15.27 7.05 15.27 15.27 0 8.61-7.05 15.27-15.27 15.27H225.9c-32.5.39-52.47-.4-68.52-10.97-16.44-10.96-25.05-29.75-33.67-63.81L71.25 68.65c0-.39 0-.39-.39-.78-2.35-8.61-6.27-14.48-11.75-17.62-5.48-3.52-12.92-5.09-21.53-5.09H15.27zm312.82-13.61C349.13 10.52 376.7 0 404.27 0c27.57 0 55.15 10.52 76.18 31.55C501.48 52.58 512 80.16 512 107.73c0 27.57-10.52 55.15-31.55 76.18-21.03 21.03-48.61 31.54-76.18 31.55-27.57 0-55.14-10.52-76.18-31.55-21.03-21.03-31.54-48.61-31.54-76.18 0-27.57 10.51-55.15 31.54-76.18zm104.14 36.78 11.45 11.45c2.71 2.7 2.71 7.16 0 9.87l-18.08 18.08 18.08 18.08c2.71 2.71 2.71 7.16 0 9.88l-11.45 11.45c-2.71 2.71-7.16 2.71-9.87 0l-18.09-18.09-18.08 18.09c-2.71 2.7-7.15 2.71-9.87 0l-11.45-11.45c-2.72-2.72-2.72-7.16 0-9.88l18.08-18.08-18.08-18.08c-2.72-2.72-2.72-7.16 0-9.87l11.45-11.45c2.72-2.72 7.16-2.72 9.87 0l18.08 18.08 18.09-18.08c2.71-2.72 7.17-2.71 9.87 0zm-27.96-49.84c-22.83 0-45.67 8.72-63.09 26.14-17.43 17.43-26.14 40.26-26.14 63.1 0 22.83 8.71 45.67 26.13 63.1 17.43 17.42 40.27 26.14 63.1 26.14 22.84-.01 45.68-8.72 63.1-26.14 17.42-17.43 26.14-40.27 26.14-63.1s-8.72-45.68-26.14-63.1c-17.42-17.43-40.27-26.14-63.1-26.14zm-150.53 120.8c0-4.82 4.77-8.73 10.65-8.73 5.88 0 10.65 3.91 10.65 8.73v59.05c0 4.83-4.77 8.74-10.65 8.74-5.88 0-10.65-3.91-10.65-8.74v-59.05zm-63.78 0c0-4.82 4.77-8.73 10.65-8.73 5.89 0 10.65 3.91 10.65 8.73v59.05c0 4.83-4.76 8.74-10.65 8.74-5.88 0-10.65-3.91-10.65-8.74v-59.05zm167.09 220.65c20.75 0 37.58 16.83 37.58 37.58s-16.83 37.58-37.58 37.58-37.58-16.83-37.58-37.58 16.83-37.58 37.58-37.58zm-164.82 0c20.74 0 37.58 16.83 37.58 37.58s-16.84 37.58-37.58 37.58c-20.76 0-37.59-16.83-37.59-37.58s16.83-37.58 37.59-37.58z"/></svg>