<svg xmlns="http://www.w3.org/2000/svg" xml:space="preserve" width="512" height="501" shape-rendering="geometricPrecision" text-rendering="geometricPrecision" image-rendering="optimizeQuality" fill-rule="evenodd" clip-rule="evenodd" viewBox="0 0 512 500.59"><path fill-rule="nonzero" d="m107.22 313.44-23.58 55.2a7.338 7.338 0 0 1-6.57 4.47l-59.32 5.33 45.22 39.48c2.1 1.84 2.9 4.62 2.32 7.17l-13.36 58.52 51.51-30.8c2.4-1.44 5.3-1.34 7.54 0l51.53 30.8-5.87-25.66c4.88.55 9.91.19 14.8-1.15l6.68 29.31c.19 1.27.19 2.58-.02 3.89a12.8 12.8 0 0 1-1.62 4.47 12.559 12.559 0 0 1-7.71 5.73c-3.1.78-6.5.37-9.49-1.41l-52.07-31.13-51.62 30.88c-1.12.74-2.38 1.29-3.73 1.63l-.94.23c-1.45.26-2.99.26-4.55-.04l-.5-.09c-3.34-.78-6.08-2.85-7.78-5.56a12.573 12.573 0 0 1-1.67-9.24l13.57-59.39-45.68-39.89a12.566 12.566 0 0 1-2.94-3.78 12.6 12.6 0 0 1-1.29-4.2l-.05-.65c-.22-3.31.91-6.45 2.94-8.87 2.01-2.39 4.9-4.05 8.2-4.42l60.67-5.41 23.78-55.71c.62-1.47 1.54-2.85 2.7-4.02.94-.95 2.04-1.76 3.3-2.39.44-.24.91-.44 1.4-.6 2.96-1.06 6.12-.91 8.87.19 2.75 1.11 5.12 3.19 6.54 6.01l18.82 44.01-5.47 23.93c-.4-.5-.72-1.05-.97-1.64l-23.59-55.2zm137.19-302.2c0-6.2 5.03-11.24 11.24-11.24 6.2 0 11.24 5.04 11.24 11.24V62c0 6.2-5.04 11.24-11.24 11.24-6.21 0-11.24-5.04-11.24-11.24V11.24zM40.94 151.78c-5.7-2.4-8.38-8.96-5.98-14.66 2.4-5.7 8.97-8.38 14.67-5.98l46.73 19.8c5.7 2.4 8.38 8.97 5.98 14.66-2.4 5.7-8.97 8.38-14.67 5.98l-46.73-19.8zm47.52-72.84c-4.36-4.39-4.34-11.49.05-15.85 4.39-4.36 11.49-4.34 15.85.05l35.7 36.08c4.36 4.39 4.34 11.49-.05 15.85-4.39 4.36-11.49 4.34-15.85-.05l-35.7-36.08zm71.65-49.34c-2.35-5.72.38-12.27 6.1-14.62 5.73-2.35 12.27.38 14.63 6.1l19.3 46.95c2.35 5.72-.39 12.27-6.11 14.62-5.72 2.35-12.27-.38-14.62-6.1l-19.3-46.95zm302.26 101.54c5.7-2.4 12.27.28 14.67 5.98 2.4 5.7-.28 12.26-5.98 14.66l-46.73 19.8c-5.7 2.4-12.27-.28-14.67-5.98-2.4-5.69.28-12.26 5.98-14.66l46.73-19.8zm-54.73-68c4.36-4.39 11.46-4.41 15.85-.05 4.39 4.36 4.41 11.46.05 15.85l-35.7 36.08c-4.36 4.39-11.46 4.41-15.85.05-4.39-4.36-4.41-11.46-.05-15.85l35.7-36.08zm-76.48-42.06c2.36-5.72 8.9-8.45 14.63-6.1 5.72 2.35 8.45 8.9 6.1 14.62l-19.3 46.95c-2.35 5.72-8.9 8.45-14.62 6.1-5.72-2.35-8.46-8.9-6.11-14.62l19.3-46.95zm-53.09 110.8 33.5 78.45 83.93 7.53c.77 0 1.53.06 2.27.16 6.17.76 11.54 3.87 15.3 8.34l1.22 1.67c2.97 4.22 4.6 9.39 4.32 14.82l-.2 2.03c-.37 2.69-1.19 5.23-2.36 7.54l-.93 1.6c-.84 1.36-1.81 2.62-2.89 3.79-.82.97-1.76 1.85-2.79 2.6l-63.56 55.5 19.33 84.72c1.09 6.02-.21 11.99-3.28 16.87a23.685 23.685 0 0 1-14.82 10.51c-3.12.74-6.32.78-9.41.23l-.01.06c-3.19-.57-6.23-1.79-8.91-3.54L256 381.22l-74.01 44.25a23.716 23.716 0 0 1-17.57 2.45c-5.92-1.49-11.25-5.23-14.61-10.81l-.9-1.71a23.7 23.7 0 0 1-2.18-6.9c-.48-3.03-.37-6.08.29-8.96l19.1-83.63-64.6-56.4a23.796 23.796 0 0 1-8.09-16.36c-.39-6 1.52-12.21 5.85-17.16a23.87 23.87 0 0 1 7.47-5.73c2.81-1.4 5.93-2.19 9.12-2.37l84.56-7.56 33.69-78.88a23.734 23.734 0 0 1 13.02-12.75c12.18-4.91 25.86 1.03 30.83 12.93l.1.25zM416.44 303.3l23.72 55.56 60.67 5.41c3.3.37 6.19 2.03 8.2 4.42 2.03 2.42 3.16 5.56 2.94 8.87l-.05.65a12.6 12.6 0 0 1-1.29 4.2c-.72 1.43-1.73 2.72-2.94 3.78l-45.68 39.89 13.57 59.39c.68 3.29 0 6.58-1.67 9.24-1.7 2.71-4.44 4.78-7.78 5.56l-.5.09c-1.56.3-3.1.3-4.55.04l-.94-.23c-1.35-.34-2.61-.89-3.73-1.63l-51.63-30.88-52.06 31.13a12.513 12.513 0 0 1-9.49 1.41c-3.1-.78-5.93-2.76-7.71-5.73-.84-1.41-1.38-2.93-1.63-4.45l-.01-.08c-.21-1.25-.2-2.54 0-3.81l6.69-29.36c1.09.3 2.21.55 3.33.75 3.75.68 7.62.84 11.46.41l-5.87 25.68 51.52-30.8c2.25-1.34 5.14-1.44 7.54 0l51.52 30.8-13.37-58.52c-.57-2.55.23-5.33 2.33-7.17l45.22-39.48-59.32-5.33a7.338 7.338 0 0 1-6.57-4.47l-23.58-55.2-23.57 55.2c-.26.61-.61 1.18-1.02 1.69l-5.46-23.91 18.84-44.08c1.42-2.82 3.79-4.9 6.54-6.01 2.75-1.1 5.91-1.25 8.87-.19.49.16.96.36 1.4.6 1.26.63 2.36 1.44 3.3 2.39 1.16 1.17 2.08 2.55 2.7 4.02l.06.15z"/><path fill="#F7D345" fill-rule="nonzero" d="m263.04 137.82 37.45 87.7 95.01 8.52c4.19.37 7.29 4.06 6.93 8.25a7.59 7.59 0 0 1-2.57 5.07v.01l-71.87 62.75 21.26 93.02c.94 4.11-1.63 8.2-5.74 9.15-2.1.47-4.2.04-5.88-1.06L256 362.43l-81.89 48.96a7.627 7.627 0 0 1-10.46-2.64 7.602 7.602 0 0 1-.89-5.61h-.01l21.26-93.02-71.87-62.75c-3.17-2.77-3.49-7.59-.72-10.76a7.621 7.621 0 0 1 5.33-2.59l94.75-8.5 37.48-87.75c1.65-3.88 6.13-5.68 10.01-4.03 1.91.81 3.31 2.31 4.05 4.08z"/></svg>