<?xml version="1.0" encoding="UTF-8" standalone="no" ?>
<!DOCTYPE svg PUBLIC "-//W3C//DTD SVG 1.1//EN" "http://www.w3.org/Graphics/SVG/1.1/DTD/svg11.dtd">
<svg xmlns="http://www.w3.org/2000/svg" xmlns:xlink="http://www.w3.org/1999/xlink" version="1.1" width="1280" height="1024" viewBox="0 0 1280 1024" xml:space="preserve">
<desc>Created with Fabric.js 4.4.0</desc>
<defs>
</defs>
<g transform="matrix(1 0 0 1 640 512)" id="background-logo"  >
<rect style="stroke: none; stroke-width: 0; stroke-dasharray: none; stroke-linecap: butt; stroke-dashoffset: 0; stroke-linejoin: miter; stroke-miterlimit: 4; fill: rgb(255,255,255); fill-opacity: 0; fill-rule: nonzero; opacity: 1;"  paint-order="stroke"  x="-640" y="-512" rx="0" ry="0" width="1280" height="1024" />
</g>
<g transform="matrix(2.3083233193456194 0 0 2.3083233193456194 640.0340537223889 393.7944227477614)" id="logo-logo"  >
<g style=""  paint-order="stroke"   >
		<g transform="matrix(0.9935460752099833 0 0 0.9935460752099831 0 0)"  >
<g style=""  paint-order="stroke"   >
		<g transform="matrix(1 0 0 1 0 0)"  >
<path style="stroke: none; stroke-width: 1; stroke-dasharray: none; stroke-linecap: butt; stroke-dashoffset: 0; stroke-linejoin: miter; stroke-miterlimit: 4; fill: rgb(190,14,41); fill-rule: nonzero; opacity: 1;"  paint-order="stroke"  transform=" translate(-98.87500428366765, -97.72500000000002)" d="M 187.47 57.9 C 187.47 57.9 164.21 45.77 161.76 10 L 36 10 C 33.51 45.77 10.26 57.9 10.26 57.9 C 0.2599999999999998 159.32 98.86 185.45 98.86 185.45 C 98.86 185.45 197.47 159.32 187.47 57.9 Z M 149.39 14.7 L 152.86999999999998 14.7 L 152.86999999999998 23.22 Q 151.26999999999998 24.72 149.39 26.279999999999998 Z M 142.85 14.7 L 146.32999999999998 14.7 L 146.32999999999998 28.7 C 145.23 29.54 144.07999999999998 30.38 142.85 31.22 Z M 136.32 14.7 L 139.79999999999998 14.7 L 139.79999999999998 33.24 C 138.68999999999997 33.940000000000005 137.51999999999998 34.64 136.32 35.34 Z M 139.47 106.57000000000001 L 139.47 128.37 Q 138.06 130.32 136.47 132.29 L 136.47 106.57 Z M 129.79 14.7 L 133.26999999999998 14.7 L 133.26999999999998 37 C 132.14 37.61 130.98 38.2 129.79 38.79 Z M 133.88 106.57000000000001 L 133.88 135.45000000000002 C 132.93 136.54000000000002 131.93 137.63000000000002 130.88 138.72000000000003 L 130.88 106.57 Z M 123.25 14.7 L 126.73 14.7 L 126.73 40.29 C 125.60000000000001 40.8 124.44 41.29 123.25 41.81 Z M 128.25 106.57000000000001 L 128.25 141.38 C 127.25 142.32 126.3 143.25 125.25 144.17 L 125.25 106.57 Z M 116.72 14.7 L 120.2 14.7 L 120.2 43 C 119.07000000000001 43.44 117.91 43.88 116.72 44.3 Z M 122.72 106.57000000000001 L 122.72 146.43 Q 121.28 147.63 119.72 148.8 L 119.72 106.57 Z M 114.16 106.57000000000001 L 117.16 106.57000000000001 L 117.16 150.72 C 116.16 151.41 115.16 152.08 114.16 152.72 Z M 110.16 14.700000000000003 L 113.64 14.700000000000003 L 113.64 45.39 Q 112 46 110.19 46.5 Z M 108.52 106.57000000000001 L 111.52 106.57000000000001 L 111.52 154.38 C 110.52 154.97 109.52 155.54 108.52 156.1 Z M 103.61999999999999 14.700000000000003 L 107.1 14.700000000000003 L 107.1 47.37 C 105.97 47.69 104.8 48 103.61999999999999 48.3 Z M 103 106.57 L 106 106.57 L 106 157.47 C 105 157.96 104 158.47 103 158.91 Z M 97.12 14.7 L 100.60000000000001 14.7 L 100.60000000000001 49 C 99.60000000000001 49.23 98.67 49.46 97.68 49.67 L 97.12 49.53 Z M 100.35000000000001 106.57000000000001 L 100.35000000000001 160.07 C 99.52000000000001 160.42 98.7 160.76999999999998 97.85000000000001 161.07 L 97.37 160.85 L 97.37 106.57 Z M 90.59 14.7 L 94.07000000000001 14.7 L 94.07000000000001 48.78 L 90.59 47.78 Z M 94.76 106.57000000000001 L 94.76 159.66000000000003 C 93.85000000000001 159.21000000000004 92.86 158.71000000000004 91.76 158.14000000000001 L 91.76 106.57 Z M 84.05 14.7 L 87.53 14.7 L 87.53 46.89 L 87.22 46.8 L 84.05 45.8 Z M 89.17 106.57000000000001 L 89.17 156.72 L 88.9 156.57 C 88.03 156.07999999999998 87.13000000000001 155.57 86.2 154.98999999999998 L 86.2 106.57 Z M 77.52 14.7 L 81 14.7 L 81 44.75 C 79.87 44.35 78.7 43.93 77.52 43.49 Z M 83.58 106.57000000000001 L 83.58 153.37 C 82.58 152.76 81.58 152.1 80.58 151.37 L 80.58 106.57 Z M 75.02 106.57000000000001 L 78.02 106.57000000000001 L 78.02 149.57 C 77.02 148.87 76.02 148.13 75.02 147.35999999999999 Z M 71 14.7 L 74.48 14.7 L 74.48 42.31 C 73.33 41.86 72.17 41.38 71 40.89 Z M 69.44 106.57000000000001 L 72.44 106.57000000000001 L 72.44 145.3 C 71.44 144.49 70.44 143.66000000000003 69.44 142.79000000000002 Z M 64.44 14.700000000000003 L 67.91 14.700000000000003 L 67.91 39.56 C 66.78 39 65.62 38.51 64.46 38 Z M 63.82 106.57000000000001 L 66.82 106.57000000000001 L 66.82 140.39000000000001 C 65.82 139.45000000000002 64.82 138.46 63.81999999999999 137.45000000000002 Z M 57.92 14.7 L 61.4 14.7 L 61.4 36.41 C 60.23 35.809999999999995 59.07 35.169999999999995 57.92 34.529999999999994 Z M 61.230000000000004 106.57000000000001 L 61.230000000000004 134.7 Q 59.720000000000006 133.01999999999998 58.230000000000004 131.23 L 58.230000000000004 106.57 Z M 51.39 14.7 L 54.87 14.7 L 54.87 32.76 C 53.69 32.04 52.53 31.299999999999997 51.39 30.529999999999998 Z M 55.64 106.57000000000001 L 55.64 127.87 C 54.64 126.48 53.64 125.06 52.64 123.58 L 52.64 106.58 Z M 169.26999999999998 116.41000000000001 C 161.44493425769738 131.55867230322457 150.83669391389088 145.09800303943553 138 156.32 C 126.84873277342241 165.96665062631988 113.99546629419176 173.44799781713328 100.1 178.38 C 98.8349363291798 178.82049693566947 97.44682188871714 178.7413816048659 96.24 178.16 L 96.24 178.16 L 96.24 178.16 L 96.1 178.1 L 95 177.64 C 94 177.22 92.56 176.64 90.77 175.73999999999998 C 85.83405261129516 173.427772943423 81.03002190942752 170.8438120238639 76.38000000000002 168 C 64.91 160.94 50.459999999999994 150 38.56999999999999 134.15 C 30.921182830380594 124.00563929122778 25.100605936101775 112.60475350237576 21.37000000000002 100.45999999999998 L 32 100.46000000000001 C 36.87898991187222 114.41624064320457 44.72590662639566 127.1487159382487 54.99999999999996 137.77999999999997 C 64.19465708604447 147.3509913231544 74.75177859542217 155.5122898535447 86.33000000000004 162.00000000000003 C 90.280976125229 164.23809385982764 94.3465539678047 166.26754486827267 98.51000000000002 168.08000000000004 C 110.44170963468595 163.6082349172965 121.49353534584905 157.07191778153665 131.16000000000003 148.76999999999998 C 139.58035346425888 141.48312542061535 146.95639780406788 133.07066609145357 153.07999999999998 123.76999999999998 C 157.99259068854118 116.3944473516916 162.1470418814507 108.54119445154652 165.47999999999996 100.33000000000004 L 176.35 100.33000000000001 C 174.34879913269543 105.84091388991999 171.9835880894333 111.2127491407188 169.27000000000004 116.41 Z M 197 56.8 L 196.49 51.66 L 192 49.31 C 191.24 48.900000000000006 173.37 38.870000000000005 171.32999999999998 9.190000000000005 L 170.71999999999997 0.2900000000000045 L 27.05 0.2900000000000045 L 26.44 9.190000000000005 C 24.39 39.09 6.58 48.88 5.84 49.28 L 1.26 51.66 L 0.76 56.8 C -4.83 113.39 21.6 147.92000000000002 44.76 166.92000000000002 C 60.015944917771705 179.4032587228617 77.56992692107886 188.7764803886493 96.42999999999992 194.51 L 98.87 195.16000000000003 L 101.32000000000001 194.51000000000002 C 120.18260682237654 188.77528058577252 137.73964120069246 179.4022430761414 153 166.91999999999996 C 176.12 147.92 202.55 113.39 197 56.8 Z M 150 163.23000000000002 C 135.28295583653116 175.29348390864666 118.34344092604401 184.35439170372675 100.14 189.90000000000003 L 98.92 190.22000000000003 L 97.7 189.90000000000003 C 79.4975554382116 184.3519915581069 62.558487560878866 175.29132288003905 47.840000000000025 163.23000000000002 C 25.53 145 0.13 111.76 5.51 57.27 L 5.76 54.7 L 8.059999999999999 53.5 C 8.92 53.05 29 42 31.2 9.51 L 31.5 5.069999999999999 L 166.22 5.069999999999999 L 166.52 9.51 C 168.73000000000002 41.78 188.82000000000002 53.04 189.71 53.51 L 192 54.7 L 192.26 57.27 C 197.59 111.76 172.19 145 149.94 163.23 Z" stroke-linecap="round" />
</g>
</g>
</g>
</g>
</g>
<g transform="matrix(1.9211538461538462 0 0 1.9211538461538462 640.0256486743119 693.8049019280037)" id="text-logo"  >
<g style=""  paint-order="stroke"   >
		<g transform="matrix(1 0 0 1 0 0)" id="text-logo-path-0"  >
<path style="stroke: none; stroke-width: 0.6007648278577183; stroke-dasharray: none; stroke-linecap: butt; stroke-dashoffset: 0; stroke-linejoin: miter; stroke-miterlimit: 4; fill: rgb(190,14,41); fill-rule: nonzero; opacity: 1;"  paint-order="stroke"  transform=" translate(-244.27999999999997, 18.125)" d="M 2.79 -29.39 L 2.79 -6.84 C 2.79 -1.91 5.11 0.55 9.73 0.55 L 16.79 0.55 C 21.41 0.55 23.73 -1.91 23.73 -6.84 L 23.73 -20.15 L 13.37 -20.15 L 13.37 -14.38 L 16.3 -14.38 L 16.3 -5.93 C 16.3 -5.36 15.8 -4.81 15.23 -4.81 L 11.7 -4.81 C 11.13 -4.81 10.64 -5.36 10.64 -5.93 L 10.64 -30.35 C 10.64 -30.93 11.13 -31.47 11.7 -31.47 L 15.23 -31.47 C 15.8 -31.47 16.3 -30.93 16.3 -30.35 L 16.3 -25.98 L 23.73 -25.98 L 23.73 -29.39 C 23.73 -34.34 21.41 -36.8 16.79 -36.8 L 9.73 -36.8 C 5.11 -36.78 2.79 -34.32 2.79 -29.39 Z M 37.49 -29.39 L 37.49 0 L 45.34 0 L 45.34 -12.14 L 51 -12.14 L 51 0 L 58.85 0 L 58.85 -29.39 C 58.85 -34.34 56.52 -36.8 51.9 -36.8 L 44.44 -36.8 C 39.82 -36.78 37.49 -34.32 37.49 -29.39 Z M 45.34 -18.21 L 45.34 -30.35 C 45.34 -30.93 45.83 -31.47 46.41 -31.47 L 49.93 -31.47 C 50.51 -31.47 51 -30.93 51 -30.35 L 51 -18.21 Z M 74.05 -29.39 L 74.05 0 L 81.9 0 L 81.9 -30.08 C 81.9 -30.65 82.39 -31.2 82.97 -31.2 L 86 -31.2 C 86.58 -31.2 87.04 -30.65 87.04 -30.08 L 87.04 0 L 94.89 0 L 94.89 -30.08 C 94.89 -30.65 95.38 -31.2 95.96 -31.2 L 98.99 -31.2 C 99.56 -31.2 100.06 -30.65 100.06 -30.08 L 100.06 0 L 107.88 0 L 107.88 -29.39 C 107.88 -34.34 105.55 -36.8 100.93 -36.8 L 96.8 -36.8 C 93.99 -36.78 92.05 -35.88 90.98 -34.1 C 89.83 -35.9 87.89 -36.8 85.15 -36.8 L 81 -36.8 C 76.38 -36.78 74.05 -34.32 74.05 -29.39 Z M 122.65 -29.39 L 122.65 0 L 130.49 0 L 130.49 -30.08 C 130.49 -30.65 130.99 -31.2 131.56 -31.2 L 134.6 -31.2 C 135.17 -31.2 135.63 -30.65 135.63 -30.08 L 135.63 0 L 143.48 0 L 143.48 -30.08 C 143.48 -30.65 143.97 -31.2 144.55 -31.2 L 147.58 -31.2 C 148.16 -31.2 148.65 -30.65 148.65 -30.08 L 148.65 0 L 156.47 0 L 156.47 -29.39 C 156.47 -34.34 154.15 -36.8 149.52 -36.8 L 145.4 -36.8 C 142.58 -36.78 140.64 -35.88 139.57 -34.1 C 138.42 -35.9 136.48 -36.8 133.75 -36.8 L 129.59 -36.8 C 124.97 -36.78 122.65 -34.32 122.65 -29.39 Z M 171.29 -29.39 L 171.29 0 L 179.14 0 L 179.14 -12.14 L 184.8 -12.14 L 184.8 0 L 192.65 0 L 192.65 -29.39 C 192.65 -34.34 190.32 -36.8 185.7 -36.8 L 178.24 -36.8 C 173.62 -36.78 171.29 -34.32 171.29 -29.39 Z M 179.14 -18.21 L 179.14 -30.35 C 179.14 -30.93 179.63 -31.47 180.21 -31.47 L 183.73 -31.47 C 184.31 -31.47 184.8 -30.93 184.8 -30.35 L 184.8 -18.21 Z M 207.91 0 L 215.76 0 L 215.76 -14.33 L 218.27 -14.33 L 223.66 0 L 231.67 0 L 224.32 -19.61 L 230.5 -36.23 L 223.33 -36.23 L 217.67 -21.05 L 215.76 -21.05 L 215.76 -36.23 L 207.91 -36.23 Z M 264.33 -11.16 L 264.33 -6.84 C 264.33 -1.91 266.65 0.55 271.27 0.55 L 277.37 0.55 C 281.99 0.55 284.31 -1.91 284.31 -6.84 L 284.31 -14.27 L 286.5 -14.27 L 286.5 -20.32 L 272.67 -20.32 C 272.09 -20.32 271.6 -20.86 271.6 -21.44 L 271.6 -27.37 C 271.6 -28 272.09 -28.49 272.67 -28.49 L 276.44 -28.49 C 277.01 -28.49 277.48 -27.95 277.48 -27.37 L 277.48 -25.65 L 284.48 -25.65 L 284.48 -27.21 C 284.51 -32.16 282.18 -34.62 277.56 -34.62 L 271.6 -34.62 C 266.98 -34.59 264.65 -32.13 264.65 -27.21 L 264.65 -23.52 C 264.65 -20.59 265.42 -18.59 266.95 -17.47 C 265.2 -16.24 264.33 -14.14 264.33 -11.16 Z M 271.27 -6.51 L 271.27 -13.15 C 271.27 -13.78 271.76 -14.27 272.34 -14.27 L 277.83 -14.27 L 277.83 -6.51 C 277.83 -5.88 277.34 -5.39 276.77 -5.39 L 272.34 -5.39 C 271.76 -5.39 271.27 -5.93 271.27 -6.51 Z M 320.28 0 L 334.69 0 C 339.31 0 341.63 -2.46 341.63 -7.38 L 341.63 -13.89 C 341.63 -16.98 340.43 -18.98 338 -19.82 C 340.13 -20.64 341.2 -22.56 341.17 -25.54 L 341.17 -28.85 C 341.17 -33.77 338.84 -36.23 334.22 -36.23 L 320.28 -36.23 Z M 332.72 -5.39 L 328.13 -5.39 L 328.13 -15.72 L 332.72 -15.72 C 333.29 -15.72 333.79 -15.2 333.79 -14.63 L 333.79 -6.51 C 333.79 -5.93 333.29 -5.39 332.72 -5.39 Z M 332.28 -21.22 L 328.13 -21.22 L 328.13 -30.9 L 332.28 -30.9 C 332.86 -30.9 333.35 -30.38 333.35 -29.8 L 333.35 -22.34 C 333.35 -21.77 332.86 -21.22 332.28 -21.22 Z M 356.43 -29.39 L 356.43 0 L 364.28 0 L 364.28 -12.14 L 369.94 -12.14 L 369.94 0 L 377.78 0 L 377.78 -29.39 C 377.78 -34.34 375.46 -36.8 370.84 -36.8 L 363.37 -36.8 C 358.75 -36.78 356.43 -34.32 356.43 -29.39 Z M 364.28 -18.21 L 364.28 -30.35 C 364.28 -30.93 364.77 -31.47 365.34 -31.47 L 368.87 -31.47 C 369.44 -31.47 369.94 -30.93 369.94 -30.35 L 369.94 -18.21 Z M 393.05 0 L 400.89 0 L 400.89 -14.85 L 404.64 -14.85 C 405.35 -14.85 405.71 -14.46 405.71 -13.73 L 405.71 0 L 413.55 0 L 413.55 -14.33 C 413.55 -16.71 412.62 -18.24 410.76 -18.92 C 412.87 -19.74 413.94 -21.66 413.94 -24.64 L 413.94 -28.85 C 413.94 -33.77 411.61 -36.23 406.99 -36.23 L 393.05 -36.23 Z M 405.05 -20.32 L 400.89 -20.32 L 400.89 -30.9 L 405.05 -30.9 C 405.62 -30.9 406.12 -30.38 406.12 -29.8 L 406.12 -21.44 C 406.12 -20.86 405.62 -20.32 405.05 -20.32 Z M 428.43 -29.39 L 428.43 -6.84 C 428.43 -1.91 430.76 0.55 435.38 0.55 L 442.84 0.55 C 447.46 0.55 449.79 -1.91 449.79 -6.84 L 449.79 -29.39 C 449.79 -34.32 447.46 -36.78 442.84 -36.8 L 435.38 -36.8 C 430.76 -36.78 428.43 -34.32 428.43 -29.39 Z M 436.28 -5.93 L 436.28 -30.35 C 436.28 -30.93 436.77 -31.47 437.35 -31.47 L 440.87 -31.47 C 441.45 -31.47 441.94 -30.93 441.94 -30.35 L 441.94 -5.93 C 441.94 -5.36 441.45 -4.81 440.87 -4.81 L 437.35 -4.81 C 436.77 -4.81 436.28 -5.36 436.28 -5.93 Z M 464.94 -29.39 L 464.94 0 L 472.79 0 L 472.79 -30.08 C 472.79 -30.65 473.28 -31.2 473.85 -31.2 L 476.89 -31.2 C 477.46 -31.2 477.93 -30.65 477.93 -30.08 L 477.93 0 L 485.77 0 L 485.77 -29.39 C 485.77 -34.34 483.45 -36.8 478.83 -36.8 L 471.88 -36.8 C 467.26 -36.78 464.94 -34.32 464.94 -29.39 Z" stroke-linecap="round" />
</g>
</g>
</g>
<g transform="matrix(1.9211538461538462 0 0 1.9211538461538462 640.3776851076053 359.7489005316471)" id="tagline-ed9f2662-7452-4e60-9b1c-5c4f95321b65-logo"  >
<g style=""  paint-order="stroke"   >
		<g transform="matrix(1 0 0 1 0 0)" id="tagline-ed9f2662-7452-4e60-9b1c-5c4f95321b65-logo-path-0"  >
<path style="stroke: rgb(190,14,41); stroke-width: 12.053772445484194; stroke-dasharray: none; stroke-linecap: butt; stroke-dashoffset: 0; stroke-linejoin: miter; stroke-miterlimit: 4; fill: rgb(255,255,255); fill-rule: nonzero; opacity: 1;"  paint-order="stroke"  transform=" translate(-52.714999999999996, 24.605)" d="M 3.79 -39.89 L 3.79 -9.28 C 3.79 -2.6 6.94 0.74 13.21 0.74 L 22.79 0.74 C 29.06 0.74 32.21 -2.6 32.21 -9.28 L 32.21 -27.35 L 18.15 -27.35 L 18.15 -19.52 L 22.12 -19.52 L 22.12 -8.05 C 22.12 -7.27 21.45 -6.53 20.67 -6.53 L 15.88 -6.53 C 15.1 -6.53 14.44 -7.27 14.44 -8.05 L 14.44 -41.19 C 14.44 -41.97 15.1 -42.71 15.88 -42.71 L 20.67 -42.71 C 21.45 -42.71 22.12 -41.97 22.12 -41.19 L 22.12 -35.25 L 32.21 -35.25 L 32.21 -39.89 C 32.21 -46.61 29.06 -49.95 22.79 -49.95 L 13.21 -49.95 C 6.94 -49.91 3.79 -46.57 3.79 -39.89 Z M 37.74 -15.14 L 37.74 -9.28 C 37.74 -2.6 40.89 0.74 47.17 0.74 L 55.44 0.74 C 61.71 0.74 64.87 -2.6 64.87 -9.28 L 64.87 -19.37 L 67.84 -19.37 L 67.84 -27.57 L 49.06 -27.57 C 48.28 -27.57 47.61 -28.31 47.61 -29.09 L 47.61 -37.15 C 47.61 -38 48.28 -38.67 49.06 -38.67 L 54.18 -38.67 C 54.96 -38.67 55.59 -37.93 55.59 -37.15 L 55.59 -34.81 L 65.09 -34.81 L 65.09 -36.92 C 65.13 -43.64 61.97 -46.98 55.7 -46.98 L 47.61 -46.98 C 41.34 -46.94 38.19 -43.6 38.19 -36.92 L 38.19 -31.91 C 38.19 -27.94 39.22 -25.23 41.3 -23.71 C 38.93 -22.04 37.74 -19.19 37.74 -15.14 Z M 47.17 -8.83 L 47.17 -17.85 C 47.17 -18.7 47.83 -19.37 48.61 -19.37 L 56.07 -19.37 L 56.07 -8.83 C 56.07 -7.98 55.4 -7.31 54.63 -7.31 L 48.61 -7.31 C 47.83 -7.31 47.17 -8.05 47.17 -8.83 Z M 72.66 0 L 92.22 0 C 98.49 0 101.64 -3.34 101.64 -10.02 L 101.64 -18.85 C 101.64 -23.04 100.01 -25.75 96.71 -26.9 C 99.6 -28.02 101.05 -30.62 101.01 -34.66 L 101.01 -39.15 C 101.01 -45.83 97.86 -49.17 91.59 -49.17 L 72.66 -49.17 Z M 89.54 -7.31 L 83.31 -7.31 L 83.31 -21.34 L 89.54 -21.34 C 90.32 -21.34 90.99 -20.63 90.99 -19.85 L 90.99 -8.83 C 90.99 -8.05 90.32 -7.31 89.54 -7.31 Z M 88.95 -28.8 L 83.31 -28.8 L 83.31 -41.93 L 88.95 -41.93 C 89.73 -41.93 90.4 -41.23 90.4 -40.45 L 90.4 -30.32 C 90.4 -29.54 89.73 -28.8 88.95 -28.8 Z" stroke-linecap="round" />
</g>
</g>
</g>
<g transform="matrix(1.9211538461538462 0 0 1.9211538461538462 638.9072969916199 796.5738859254708)" id="tagline-0236060d-c1eb-44f5-a875-8c6c772bcf22-logo"  >
<g style=""  paint-order="stroke"   >
		<g transform="matrix(1 0 0 1 0 0)" id="tagline-0236060d-c1eb-44f5-a875-8c6c772bcf22-logo-path-0"  >
<path style="stroke: none; stroke-width: 0; stroke-dasharray: none; stroke-linecap: butt; stroke-dashoffset: 0; stroke-linejoin: miter; stroke-miterlimit: 4; fill: rgb(190,14,41); fill-rule: nonzero; opacity: 1;"  paint-order="stroke"  transform=" translate(-159.115, 8.049999999999999)" d="M 8.28 -16.1 L 0.69 -16.1 L 0.69 -14.72 L 3.68 -14.72 L 3.68 0 L 5.29 0 L 5.29 -14.72 L 8.28 -14.72 Z M 10.63 0 L 12.24 0 L 13.16 -4.37 L 17.27 -4.37 L 18.19 0 L 19.8 0 L 16.42 -16.1 L 14.01 -16.1 Z M 13.46 -5.75 L 15.23 -14.19 L 17 -5.75 Z M 24.68 -16.1 L 24.68 0 L 30.43 0 L 30.43 -1.38 L 26.29 -1.38 L 26.29 -16.1 Z M 37.83 -16.1 L 34.15 -16.1 L 34.15 -14.72 L 35.19 -14.72 L 35.19 -1.38 L 34.15 -1.38 L 34.15 0 L 37.83 0 L 37.83 -1.38 L 36.8 -1.38 L 36.8 -14.72 L 37.83 -14.72 Z M 43.17 0 L 44.78 0 L 44.78 -5.75 L 46.39 -5.75 C 48.58 -5.75 50.3 -6.39 50.3 -9.43 L 50.3 -12.42 C 50.3 -15.5 48.58 -16.1 46.39 -16.1 L 43.17 -16.1 Z M 44.78 -7.13 L 44.78 -14.72 L 46.39 -14.72 C 47.79 -14.72 48.69 -14.28 48.69 -12.19 L 48.69 -9.66 C 48.69 -7.57 47.79 -7.13 46.39 -7.13 Z M 55.64 -16.1 L 55.64 0 L 57.25 0 L 57.25 -7.59 L 61.85 -7.59 L 61.85 0 L 63.46 0 L 63.46 -16.1 L 61.85 -16.1 L 61.85 -8.97 L 57.25 -8.97 L 57.25 -16.1 Z M 71.09 -3.91 L 71.09 -16.1 L 69.48 -16.1 L 69.48 -3.45 C 69.48 -0.37 71.23 0.23 73.39 0.23 C 75.58 0.23 77.3 -0.37 77.3 -3.45 L 77.3 -16.1 L 75.69 -16.1 L 75.69 -3.91 C 75.69 -1.82 74.8 -1.38 73.39 -1.38 C 71.99 -1.38 71.09 -1.82 71.09 -3.91 Z M 86.78 0.23 C 88.94 0.23 90.69 -0.37 90.69 -3.45 L 90.69 -3.91 C 90.69 -7.61 84.48 -9.98 84.48 -12.19 C 84.48 -14.28 85.38 -14.72 86.78 -14.72 C 88.18 -14.72 89.08 -14.28 89.08 -12.19 L 89.08 -11.27 L 90.69 -11.27 L 90.69 -12.65 C 90.69 -15.73 88.96 -16.33 86.78 -16.33 C 84.62 -16.33 82.87 -15.73 82.87 -12.65 L 82.87 -12.19 C 82.87 -8.88 89.08 -6.51 89.08 -3.91 C 89.08 -1.82 88.18 -1.38 86.78 -1.38 C 85.38 -1.38 84.48 -1.82 84.48 -3.91 L 84.48 -5.11 L 82.87 -5.11 L 82.87 -3.45 C 82.87 -0.41 84.59 0.23 86.78 0.23 Z M 103.04 -8.74 L 96.37 -8.74 L 96.37 -7.36 L 103.04 -7.36 Z M 113 -1.15 C 111.6 -1.15 110.47 -1.59 110.47 -3.68 L 110.47 -4.37 C 110.47 -6.69 111.37 -7.13 112.77 -7.13 L 113.23 -7.13 C 114.63 -7.13 115.53 -6.69 115.53 -4.37 L 115.53 -3.68 C 115.53 -1.59 114.4 -1.15 113 -1.15 Z M 108.86 -3.45 C 108.86 -0.41 110.81 0.23 113 0.23 C 115.18 0.23 117.14 -0.41 117.14 -3.45 L 117.14 -4.83 C 117.14 -6.6 116.56 -7.41 115.64 -7.75 C 116.43 -8.16 116.91 -8.97 116.91 -10.58 L 116.91 -11.5 C 116.91 -14.58 115.18 -15.18 113 -15.18 C 110.81 -15.18 109.09 -14.58 109.09 -11.5 L 109.09 -10.58 C 109.09 -8.97 109.57 -8.16 110.35 -7.75 C 109.43 -7.41 108.86 -6.6 108.86 -4.83 Z M 110.7 -10.81 L 110.7 -11.27 C 110.7 -13.36 111.6 -13.8 113 -13.8 C 114.4 -13.8 115.3 -13.36 115.3 -11.27 L 115.3 -10.81 C 115.3 -8.72 114.4 -8.28 113 -8.28 C 111.6 -8.28 110.7 -8.72 110.7 -10.81 Z M 129.33 0 L 132.78 0 C 134.96 0 136.69 -0.64 136.69 -3.68 L 136.69 -5.52 C 136.69 -7.29 136.11 -8.1 135.19 -8.44 C 135.98 -8.86 136.46 -9.66 136.46 -11.27 L 136.46 -12.42 C 136.46 -15.5 134.73 -16.1 132.55 -16.1 L 129.33 -16.1 Z M 130.94 -1.38 L 130.94 -7.82 L 132.78 -7.82 C 134.18 -7.82 135.08 -7.38 135.08 -5.06 L 135.08 -3.91 C 135.08 -1.82 134.18 -1.38 132.78 -1.38 Z M 130.94 -8.97 L 130.94 -14.72 L 132.55 -14.72 C 133.95 -14.72 134.85 -14.28 134.85 -12.19 L 134.85 -11.5 C 134.85 -9.41 133.95 -8.97 132.55 -8.97 Z M 142.6 -16.1 L 142.6 0 L 148.35 0 L 148.35 -1.38 L 144.21 -1.38 L 144.21 -16.1 Z M 151.39 0 L 153 0 L 153.92 -4.37 L 158.03 -4.37 L 158.95 0 L 160.56 0 L 157.18 -16.1 L 154.77 -16.1 Z M 154.22 -5.75 L 155.99 -14.19 L 157.76 -5.75 Z M 171.3 -12.19 L 171.3 -9.89 L 172.91 -9.89 L 172.91 -12.65 C 172.91 -15.73 171.19 -16.33 169 -16.33 C 166.84 -16.33 165.09 -15.73 165.09 -12.65 L 165.09 -3.45 C 165.09 -0.37 166.84 0.23 169 0.23 C 171.19 0.23 172.91 -0.41 172.91 -3.45 L 172.91 -4.42 L 171.3 -4.42 L 171.3 -3.91 C 171.3 -1.82 170.41 -1.38 169 -1.38 C 167.6 -1.38 166.7 -1.82 166.7 -3.91 L 166.7 -12.19 C 166.7 -14.28 167.6 -14.72 169 -14.72 C 170.41 -14.72 171.3 -14.28 171.3 -12.19 Z M 178.62 -16.1 L 178.62 0 L 180.23 0 L 180.23 -6.81 L 180.71 -7.57 L 184.6 0 L 186.32 0 L 181.65 -9.08 L 186 -16.1 L 184.28 -16.1 L 180.23 -9.59 L 180.23 -16.1 Z M 207.07 -16.1 L 204.77 -16.1 L 202.03 -6.26 L 199.3 -16.1 L 197 -16.1 L 197 0 L 198.61 0 L 198.61 -12.79 L 201.2 -3.45 L 202.86 -3.45 L 205.46 -12.79 L 205.46 0 L 207.07 0 Z M 211.95 0 L 213.56 0 L 214.48 -4.37 L 218.59 -4.37 L 219.51 0 L 221.12 0 L 217.74 -16.1 L 215.33 -16.1 Z M 214.77 -5.75 L 216.55 -14.19 L 218.32 -5.75 Z M 226 0 L 227.61 0 L 227.61 -5.98 L 229.22 -5.98 L 232.09 0 L 233.82 0 L 230.87 -6.16 C 232.21 -6.51 233.13 -7.45 233.13 -9.66 L 233.13 -12.42 C 233.13 -15.5 231.4 -16.1 229.22 -16.1 L 226 -16.1 Z M 227.61 -7.36 L 227.61 -14.72 L 229.22 -14.72 C 230.62 -14.72 231.52 -14.28 231.52 -12.19 L 231.52 -9.89 C 231.52 -7.8 230.62 -7.36 229.22 -7.36 Z M 238.72 -16.1 L 238.72 0 L 240.33 0 L 240.33 -6.81 L 240.81 -7.57 L 244.7 0 L 246.42 0 L 241.75 -9.08 L 246.1 -16.1 L 244.38 -16.1 L 240.33 -9.59 L 240.33 -16.1 Z M 250.84 -16.1 L 250.84 0 L 257.74 0 L 257.74 -1.38 L 252.45 -1.38 L 252.45 -7.36 L 256.36 -7.36 L 256.36 -8.74 L 252.45 -8.74 L 252.45 -14.72 L 257.51 -14.72 L 257.51 -16.1 Z M 268.82 -16.1 L 261.23 -16.1 L 261.23 -14.72 L 264.22 -14.72 L 264.22 0 L 265.83 0 L 265.83 -14.72 L 268.82 -14.72 Z M 273.47 -16.1 L 273.47 0 L 280.37 0 L 280.37 -1.38 L 275.08 -1.38 L 275.08 -7.36 L 278.99 -7.36 L 278.99 -8.74 L 275.08 -8.74 L 275.08 -14.72 L 280.14 -14.72 L 280.14 -16.1 Z M 285.48 -16.1 L 285.48 0 L 292.38 0 L 292.38 -1.38 L 287.09 -1.38 L 287.09 -7.36 L 291 -7.36 L 291 -8.74 L 287.09 -8.74 L 287.09 -14.72 L 292.15 -14.72 L 292.15 -16.1 Z M 297.48 0 L 299.09 0 L 299.09 -5.98 L 300.7 -5.98 L 303.58 0 L 305.3 0 L 302.36 -6.16 C 303.69 -6.51 304.61 -7.45 304.61 -9.66 L 304.61 -12.42 C 304.61 -15.5 302.89 -16.1 300.7 -16.1 L 297.48 -16.1 Z M 299.09 -7.36 L 299.09 -14.72 L 300.7 -14.72 C 302.11 -14.72 303 -14.28 303 -12.19 L 303 -9.89 C 303 -7.8 302.11 -7.36 300.7 -7.36 Z M 313.63 0.23 C 315.79 0.23 317.54 -0.37 317.54 -3.45 L 317.54 -3.91 C 317.54 -7.61 311.33 -9.98 311.33 -12.19 C 311.33 -14.28 312.23 -14.72 313.63 -14.72 C 315.03 -14.72 315.93 -14.28 315.93 -12.19 L 315.93 -11.27 L 317.54 -11.27 L 317.54 -12.65 C 317.54 -15.73 315.81 -16.33 313.63 -16.33 C 311.47 -16.33 309.72 -15.73 309.72 -12.65 L 309.72 -12.19 C 309.72 -8.88 315.93 -6.51 315.93 -3.91 C 315.93 -1.82 315.03 -1.38 313.63 -1.38 C 312.23 -1.38 311.33 -1.82 311.33 -3.91 L 311.33 -5.11 L 309.72 -5.11 L 309.72 -3.45 C 309.72 -0.41 311.44 0.23 313.63 0.23 Z" stroke-linecap="round" />
</g>
</g>
</g>
<g transform="matrix(2.0035062029627873 0 0 2.0035062029627873 636.0533490755614 839.8678934429122)" id="shape-1c0289ea-f249-4072-8cb9-1e3e135510c5"  >
<g style=""  paint-order="stroke"   >
		<g transform="matrix(1 0 0 1 0 0)" id="path-01_00000135682192855002755340000007360898198608018817_"  >
<path style="stroke: none; stroke-width: 1; stroke-dasharray: none; stroke-linecap: butt; stroke-dashoffset: 0; stroke-linejoin: miter; stroke-miterlimit: 4; fill: rgb(122,30,45); fill-rule: nonzero; opacity: 1;"  paint-order="stroke"  transform=" translate(-149.95, -8.5)" d="M 13.2 5.8 L 8.299999999999999 10.7 L 13.2 15.6 C 13.5 15.9 13.5 16.4 13.2 16.7 C 13.1 16.8 12.899999999999999 16.9 12.7 16.9 C 12.5 16.9 12.299999999999999 16.799999999999997 12.2 16.7 L 7.299999999999999 11.799999999999999 L 2.3999999999999986 16.7 C 2.2999999999999985 16.8 2.0999999999999988 16.9 1.8999999999999986 16.9 C 1.6999999999999984 16.9 1.4999999999999987 16.799999999999997 1.3999999999999986 16.7 C 1.0999999999999985 16.4 1.0999999999999985 15.899999999999999 1.3999999999999986 15.6 L 6.299999999999999 10.7 L 1.3 5.8 C 1 5.5 1 5 1.3 4.7 C 1.6 4.4 2.1 4.4 2.4000000000000004 4.7 L 7.300000000000001 9.600000000000001 L 12.200000000000001 4.700000000000001 C 12.500000000000002 4.400000000000001 13.000000000000002 4.400000000000001 13.3 4.700000000000001 C 13.5 5 13.5 5.5 13.2 5.8 z M 26.2 4.7 C 25.9 4.4 25.4 4.4 25.099999999999998 4.7 L 20.199999999999996 9.600000000000001 L 15.299999999999995 4.700000000000001 C 14.999999999999995 4.400000000000001 14.499999999999995 4.400000000000001 14.199999999999996 4.700000000000001 C 13.899999999999995 5.000000000000001 13.899999999999995 5.500000000000001 14.199999999999996 5.800000000000001 L 19.099999999999994 10.700000000000001 L 14.199999999999994 15.600000000000001 C 13.899999999999993 15.900000000000002 13.899999999999993 16.400000000000002 14.199999999999994 16.700000000000003 C 14.299999999999994 16.800000000000004 14.499999999999995 16.900000000000002 14.699999999999994 16.900000000000002 C 14.899999999999993 16.900000000000002 15.099999999999994 16.8 15.199999999999994 16.700000000000003 L 20.099999999999994 11.800000000000002 L 24.999999999999993 16.700000000000003 C 25.099999999999994 16.800000000000004 25.299999999999994 16.900000000000002 25.499999999999993 16.900000000000002 C 25.699999999999992 16.900000000000002 25.89999999999999 16.8 25.999999999999993 16.700000000000003 C 26.299999999999994 16.400000000000002 26.299999999999994 15.900000000000002 25.999999999999993 15.600000000000003 L 21.099999999999994 10.700000000000003 L 25.999999999999993 5.8000000000000025 C 26.5 5.5 26.5 5 26.2 4.7 z M 39.2 4.7 C 38.900000000000006 4.4 38.400000000000006 4.4 38.1 4.7 L 33.2 9.600000000000001 L 28.300000000000004 4.700000000000001 C 28.000000000000004 4.400000000000001 27.500000000000004 4.400000000000001 27.200000000000003 4.700000000000001 C 26.900000000000002 5.000000000000001 26.900000000000002 5.500000000000001 27.200000000000003 5.800000000000001 L 32.1 10.700000000000001 L 27.200000000000003 15.600000000000001 C 26.900000000000002 15.900000000000002 26.900000000000002 16.400000000000002 27.200000000000003 16.700000000000003 C 27.300000000000004 16.800000000000004 27.500000000000004 16.900000000000002 27.700000000000003 16.900000000000002 C 27.900000000000002 16.900000000000002 28.1 16.8 28.200000000000003 16.700000000000003 L 33.1 11.800000000000002 L 38 16.700000000000003 C 38.1 16.800000000000004 38.3 16.900000000000002 38.5 16.900000000000002 C 38.7 16.900000000000002 38.9 16.8 39 16.700000000000003 C 39.3 16.400000000000002 39.3 15.900000000000002 39 15.600000000000003 L 34.1 10.700000000000003 L 39 5.8000000000000025 C 39.5 5.5 39.5 5 39.2 4.7 z M 52.1 4.7 C 51.800000000000004 4.4 51.300000000000004 4.4 51 4.7 L 46.1 9.600000000000001 L 41.2 4.700000000000001 C 40.900000000000006 4.400000000000001 40.400000000000006 4.400000000000001 40.1 4.700000000000001 C 39.800000000000004 5.000000000000001 39.800000000000004 5.500000000000001 40.1 5.800000000000001 L 45 10.700000000000001 L 40.1 15.600000000000001 C 39.800000000000004 15.900000000000002 39.800000000000004 16.400000000000002 40.1 16.700000000000003 C 40.2 16.800000000000004 40.4 16.900000000000002 40.6 16.900000000000002 C 40.800000000000004 16.900000000000002 41 16.8 41.1 16.700000000000003 L 46 11.800000000000002 L 50.9 16.700000000000003 C 51 16.800000000000004 51.199999999999996 16.900000000000002 51.4 16.900000000000002 C 51.6 16.900000000000002 51.8 16.8 51.9 16.700000000000003 C 52.199999999999996 16.400000000000002 52.199999999999996 15.900000000000002 51.9 15.600000000000003 L 47 10.700000000000003 L 51.9 5.8000000000000025 C 52.4 5.5 52.4 5 52.1 4.7 z M 65.1 4.7 C 64.8 4.4 64.3 4.4 63.99999999999999 4.7 L 59.099999999999994 9.600000000000001 L 54.199999999999996 4.700000000000001 C 53.9 4.400000000000001 53.4 4.400000000000001 53.099999999999994 4.700000000000001 C 52.8 5.000000000000001 52.8 5.500000000000001 53.099999999999994 5.800000000000001 L 57.99999999999999 10.700000000000001 L 53.099999999999994 15.600000000000001 C 52.8 15.900000000000002 52.8 16.400000000000002 53.099999999999994 16.700000000000003 C 53.199999999999996 16.800000000000004 53.39999999999999 16.900000000000002 53.599999999999994 16.900000000000002 C 53.8 16.900000000000002 53.99999999999999 16.8 54.099999999999994 16.700000000000003 L 58.99999999999999 11.800000000000002 L 63.89999999999999 16.700000000000003 C 63.99999999999999 16.800000000000004 64.19999999999999 16.900000000000002 64.39999999999999 16.900000000000002 C 64.6 16.900000000000002 64.8 16.8 64.89999999999999 16.700000000000003 C 65.19999999999999 16.400000000000002 65.19999999999999 15.900000000000002 64.89999999999999 15.600000000000003 L 59.99999999999999 10.700000000000003 L 64.89999999999999 5.8000000000000025 C 65.4 5.5 65.4 5 65.1 4.7 z M 78.1 4.7 C 77.8 4.4 77.3 4.4 77 4.7 L 72.1 9.600000000000001 L 67.19999999999999 4.700000000000001 C 66.89999999999999 4.400000000000001 66.39999999999999 4.400000000000001 66.1 4.700000000000001 C 65.8 5.000000000000001 65.8 5.500000000000001 66.1 5.800000000000001 L 71 10.700000000000001 L 66.1 15.600000000000001 C 65.8 15.900000000000002 65.8 16.400000000000002 66.1 16.700000000000003 C 66.19999999999999 16.800000000000004 66.39999999999999 16.900000000000002 66.6 16.900000000000002 C 66.8 16.900000000000002 67 16.8 67.1 16.700000000000003 L 72 11.800000000000002 L 76.9 16.700000000000003 C 77 16.800000000000004 77.2 16.900000000000002 77.4 16.900000000000002 C 77.60000000000001 16.900000000000002 77.80000000000001 16.8 77.9 16.700000000000003 C 78.2 16.400000000000002 78.2 15.900000000000002 77.9 15.600000000000003 L 73 10.700000000000003 L 77.9 5.8000000000000025 C 78.4 5.5 78.4 5 78.1 4.7 z M 91.1 4.7 C 90.8 4.4 90.3 4.4 90 4.7 L 85.1 9.600000000000001 L 80.19999999999999 4.700000000000001 C 79.89999999999999 4.400000000000001 79.39999999999999 4.400000000000001 79.1 4.700000000000001 C 78.8 5.000000000000001 78.8 5.500000000000001 79.1 5.800000000000001 L 84 10.700000000000001 L 79.1 15.600000000000001 C 78.8 15.900000000000002 78.8 16.400000000000002 79.1 16.700000000000003 C 79.19999999999999 16.800000000000004 79.39999999999999 16.900000000000002 79.6 16.900000000000002 C 79.8 16.900000000000002 80 16.8 80.1 16.700000000000003 L 85 11.800000000000002 L 89.9 16.700000000000003 C 90 16.800000000000004 90.2 16.900000000000002 90.4 16.900000000000002 C 90.60000000000001 16.900000000000002 90.80000000000001 16.8 90.9 16.700000000000003 C 91.2 16.400000000000002 91.2 15.900000000000002 90.9 15.600000000000003 L 86 10.700000000000003 L 90.9 5.8000000000000025 C 91.4 5.5 91.4 5 91.1 4.7 z M 104.1 4.7 C 103.8 4.4 103.3 4.4 103 4.7 L 98.1 9.600000000000001 L 93.19999999999999 4.700000000000001 C 92.89999999999999 4.400000000000001 92.39999999999999 4.400000000000001 92.1 4.700000000000001 C 91.8 5.000000000000001 91.8 5.500000000000001 92.1 5.800000000000001 L 97 10.700000000000001 L 92.1 15.600000000000001 C 91.8 15.900000000000002 91.8 16.400000000000002 92.1 16.700000000000003 C 92.19999999999999 16.800000000000004 92.39999999999999 16.900000000000002 92.6 16.900000000000002 C 92.8 16.900000000000002 93 16.8 93.1 16.700000000000003 L 98 11.800000000000002 L 102.9 16.700000000000003 C 103 16.800000000000004 103.2 16.900000000000002 103.4 16.900000000000002 C 103.60000000000001 16.900000000000002 103.80000000000001 16.8 103.9 16.700000000000003 C 104.2 16.400000000000002 104.2 15.900000000000002 103.9 15.600000000000003 L 99 10.700000000000003 L 103.9 5.8000000000000025 C 104.4 5.5 104.4 5 104.1 4.7 z M 117 4.7 C 116.7 4.4 116.2 4.4 115.9 4.7 L 111 9.600000000000001 L 106.1 4.700000000000001 C 105.8 4.400000000000001 105.3 4.400000000000001 105 4.700000000000001 C 104.7 5.000000000000001 104.7 5.500000000000001 105 5.800000000000001 L 109.9 10.700000000000001 L 105 15.600000000000001 C 104.7 15.900000000000002 104.7 16.400000000000002 105 16.700000000000003 C 105.1 16.800000000000004 105.3 16.900000000000002 105.5 16.900000000000002 C 105.7 16.900000000000002 105.9 16.8 106 16.700000000000003 L 110.9 11.800000000000002 L 115.80000000000001 16.700000000000003 C 115.9 16.800000000000004 116.10000000000001 16.900000000000002 116.30000000000001 16.900000000000002 C 116.50000000000001 16.900000000000002 116.70000000000002 16.8 116.80000000000001 16.700000000000003 C 117.10000000000001 16.400000000000002 117.10000000000001 15.900000000000002 116.80000000000001 15.600000000000003 L 111.9 10.700000000000003 L 116.80000000000001 5.8000000000000025 C 117.3 5.5 117.3 5 117 4.7 z M 130 4.7 C 129.7 4.4 129.2 4.4 128.9 4.7 L 124 9.7 L 119.1 4.799999999999999 C 118.8 4.499999999999999 118.3 4.499999999999999 118 4.799999999999999 C 117.7 5.099999999999999 117.7 5.599999999999999 118 5.899999999999999 L 122.9 10.799999999999999 L 118 15.7 C 117.7 16 117.7 16.5 118 16.8 C 118.1 16.900000000000002 118.3 17 118.5 17 C 118.7 17 118.9 16.9 119 16.8 L 123.9 11.9 L 128.8 16.8 C 128.9 16.900000000000002 129.10000000000002 17 129.3 17 C 129.5 17 129.70000000000002 16.9 129.8 16.8 C 130.10000000000002 16.5 130.10000000000002 16 129.8 15.700000000000001 L 124.9 10.8 L 129.8 5.9 C 130.3 5.5 130.3 5 130 4.7 z M 143 4.7 C 142.7 4.4 142.2 4.4 141.9 4.7 L 137 9.7 L 132.1 4.799999999999999 C 131.79999999999998 4.499999999999999 131.29999999999998 4.499999999999999 131 4.799999999999999 C 130.7 5.099999999999999 130.7 5.599999999999999 131 5.899999999999999 L 135.9 10.799999999999999 L 131 15.7 C 130.7 16 130.7 16.5 131 16.8 C 131.1 16.900000000000002 131.3 17 131.5 17 C 131.7 17 131.9 16.9 132 16.8 L 136.9 11.9 L 141.8 16.8 C 141.9 16.900000000000002 142.10000000000002 17 142.3 17 C 142.5 17 142.70000000000002 16.9 142.8 16.8 C 143.10000000000002 16.5 143.10000000000002 16 142.8 15.700000000000001 L 137.9 10.8 L 142.8 5.9 C 143.3 5.5 143.3 5 143 4.7 z M 156 4.7 C 155.7 4.4 155.2 4.4 154.9 4.7 L 150 9.7 L 145.1 4.799999999999999 C 144.79999999999998 4.499999999999999 144.29999999999998 4.499999999999999 144 4.799999999999999 C 143.7 5.099999999999999 143.7 5.599999999999999 144 5.899999999999999 L 148.9 10.799999999999999 L 144 15.7 C 143.7 16 143.7 16.5 144 16.8 C 144.1 16.900000000000002 144.3 17 144.5 17 C 144.7 17 144.9 16.9 145 16.8 L 149.9 11.9 L 154.8 16.8 C 154.9 16.900000000000002 155.10000000000002 17 155.3 17 C 155.5 17 155.70000000000002 16.9 155.8 16.8 C 156.10000000000002 16.5 156.10000000000002 16 155.8 15.700000000000001 L 150.9 10.8 L 155.8 5.9 C 156.3 5.5 156.3 5 156 4.7 z M 169 4.7 C 168.7 4.4 168.2 4.4 167.9 4.7 L 163 9.7 L 158.1 4.799999999999999 C 157.79999999999998 4.499999999999999 157.29999999999998 4.499999999999999 157 4.799999999999999 C 156.7 5.099999999999999 156.7 5.599999999999999 157 5.899999999999999 L 161.9 10.799999999999999 L 157 15.7 C 156.7 16 156.7 16.5 157 16.8 C 157.1 16.900000000000002 157.3 17 157.5 17 C 157.7 17 157.9 16.9 158 16.8 L 162.9 11.9 L 167.8 16.8 C 167.9 16.900000000000002 168.10000000000002 17 168.3 17 C 168.5 17 168.70000000000002 16.9 168.8 16.8 C 169.10000000000002 16.5 169.10000000000002 16 168.8 15.700000000000001 L 163.9 10.8 L 168.8 5.9 C 169.2 5.5 169.2 5 169 4.7 z M 181.9 4.7 C 181.6 4.4 181.1 4.4 180.8 4.7 L 176 9.7 L 171 4.7 C 170.7 4.4 170.2 4.4 169.9 4.7 C 169.6 5 169.6 5.5 169.9 5.800000000000001 L 174.8 10.700000000000001 L 169.9 15.600000000000001 C 169.6 15.900000000000002 169.6 16.400000000000002 169.9 16.700000000000003 C 170 16.800000000000004 170.20000000000002 16.900000000000002 170.4 16.900000000000002 C 170.6 16.900000000000002 170.8 16.8 170.9 16.700000000000003 L 175.8 11.800000000000002 L 180.70000000000002 16.700000000000003 C 180.8 16.800000000000004 181.00000000000003 16.900000000000002 181.20000000000002 16.900000000000002 C 181.4 16.900000000000002 181.60000000000002 16.8 181.70000000000002 16.700000000000003 C 182.00000000000003 16.400000000000002 182.00000000000003 15.900000000000002 181.70000000000002 15.600000000000003 L 176.8 10.700000000000003 L 181.70000000000002 5.8000000000000025 C 182.2 5.5 182.2 5 181.9 4.7 z M 194.9 4.7 C 194.6 4.4 194.1 4.4 193.8 4.7 L 188.9 9.600000000000001 L 184 4.7 C 183.7 4.4 183.2 4.4 182.9 4.7 C 182.6 5 182.6 5.5 182.9 5.800000000000001 L 187.8 10.700000000000001 L 182.9 15.600000000000001 C 182.6 15.900000000000002 182.6 16.400000000000002 182.9 16.700000000000003 C 183 16.800000000000004 183.20000000000002 16.900000000000002 183.4 16.900000000000002 C 183.6 16.900000000000002 183.8 16.8 183.9 16.700000000000003 L 188.8 11.800000000000002 L 193.70000000000002 16.700000000000003 C 193.8 16.800000000000004 194.00000000000003 16.900000000000002 194.20000000000002 16.900000000000002 C 194.4 16.900000000000002 194.60000000000002 16.8 194.70000000000002 16.700000000000003 C 195.00000000000003 16.400000000000002 195.00000000000003 15.900000000000002 194.70000000000002 15.600000000000003 L 189.8 10.700000000000003 L 194.70000000000002 5.8000000000000025 C 195.2 5.5 195.2 5 194.9 4.7 z M 207.9 4.7 C 207.6 4.4 207.1 4.4 206.8 4.7 L 201.9 9.600000000000001 L 197 4.7 C 196.7 4.4 196.2 4.4 195.9 4.7 C 195.6 5 195.6 5.5 195.9 5.800000000000001 L 200.8 10.700000000000001 L 195.9 15.600000000000001 C 195.6 15.900000000000002 195.6 16.400000000000002 195.9 16.700000000000003 C 196 16.800000000000004 196.20000000000002 16.900000000000002 196.4 16.900000000000002 C 196.6 16.900000000000002 196.8 16.8 196.9 16.700000000000003 L 201.8 11.800000000000002 L 206.70000000000002 16.700000000000003 C 206.8 16.800000000000004 207.00000000000003 16.900000000000002 207.20000000000002 16.900000000000002 C 207.4 16.900000000000002 207.60000000000002 16.8 207.70000000000002 16.700000000000003 C 208.00000000000003 16.400000000000002 208.00000000000003 15.900000000000002 207.70000000000002 15.600000000000003 L 202.8 10.700000000000003 L 207.70000000000002 5.8000000000000025 C 208.2 5.5 208.2 5 207.9 4.7 z M 220.9 4.7 C 220.6 4.4 220.1 4.4 219.8 4.7 L 214.9 9.600000000000001 L 210 4.7 C 209.7 4.4 209.2 4.4 208.9 4.7 C 208.6 5 208.6 5.5 208.9 5.800000000000001 L 213.8 10.700000000000001 L 208.9 15.600000000000001 C 208.6 15.900000000000002 208.6 16.400000000000002 208.9 16.700000000000003 C 209 16.800000000000004 209.20000000000002 16.900000000000002 209.4 16.900000000000002 C 209.6 16.900000000000002 209.8 16.8 209.9 16.700000000000003 L 214.8 11.800000000000002 L 219.70000000000002 16.700000000000003 C 219.8 16.800000000000004 220.00000000000003 16.900000000000002 220.20000000000002 16.900000000000002 C 220.4 16.900000000000002 220.60000000000002 16.8 220.70000000000002 16.700000000000003 C 221.00000000000003 16.400000000000002 221.00000000000003 15.900000000000002 220.70000000000002 15.600000000000003 L 215.8 10.700000000000003 L 220.70000000000002 5.8000000000000025 C 221.2 5.5 221.2 5 220.9 4.7 z M 233.8 4.7 C 233.5 4.4 233 4.4 232.70000000000002 4.7 L 227.8 9.600000000000001 L 223 4.7 C 222.7 4.4 222.2 4.4 221.9 4.7 C 221.6 5 221.6 5.5 221.9 5.800000000000001 L 226.8 10.700000000000001 L 221.9 15.600000000000001 C 221.6 15.900000000000002 221.6 16.400000000000002 221.9 16.700000000000003 C 222 16.800000000000004 222.20000000000002 16.900000000000002 222.4 16.900000000000002 C 222.6 16.900000000000002 222.8 16.8 222.9 16.700000000000003 L 227.8 11.800000000000002 L 232.70000000000002 16.700000000000003 C 232.8 16.800000000000004 233.00000000000003 16.900000000000002 233.20000000000002 16.900000000000002 C 233.4 16.900000000000002 233.60000000000002 16.8 233.70000000000002 16.700000000000003 C 234.00000000000003 16.400000000000002 234.00000000000003 15.900000000000002 233.70000000000002 15.600000000000003 L 228.8 10.700000000000003 L 233.70000000000002 5.8000000000000025 C 234.1 5.5 234.1 5 233.8 4.7 z M 246.8 4.7 C 246.5 4.4 246 4.4 245.70000000000002 4.7 L 240.8 9.600000000000001 L 235.9 4.700000000000001 C 235.6 4.400000000000001 235.1 4.400000000000001 234.8 4.700000000000001 C 234.5 5.000000000000001 234.5 5.500000000000001 234.8 5.800000000000001 L 239.70000000000002 10.700000000000001 L 234.8 15.600000000000001 C 234.5 15.900000000000002 234.5 16.400000000000002 234.8 16.700000000000003 C 234.9 16.800000000000004 235.10000000000002 16.900000000000002 235.3 16.900000000000002 C 235.5 16.900000000000002 235.70000000000002 16.8 235.8 16.700000000000003 L 240.70000000000002 11.800000000000002 L 245.60000000000002 16.700000000000003 C 245.70000000000002 16.800000000000004 245.90000000000003 16.900000000000002 246.10000000000002 16.900000000000002 C 246.3 16.900000000000002 246.50000000000003 16.8 246.60000000000002 16.700000000000003 C 246.90000000000003 16.400000000000002 246.90000000000003 15.900000000000002 246.60000000000002 15.600000000000003 L 241.70000000000002 10.700000000000003 L 246.60000000000002 5.8000000000000025 C 247.1 5.5 247.1 5 246.8 4.7 z M 259.8 4.7 C 259.5 4.4 259 4.4 258.7 4.7 L 253.79999999999998 9.600000000000001 L 248.89999999999998 4.700000000000001 C 248.59999999999997 4.400000000000001 248.09999999999997 4.400000000000001 247.79999999999998 4.700000000000001 C 247.49999999999997 5.000000000000001 247.49999999999997 5.500000000000001 247.79999999999998 5.800000000000001 L 252.7 10.700000000000001 L 247.79999999999998 15.600000000000001 C 247.49999999999997 15.900000000000002 247.49999999999997 16.400000000000002 247.79999999999998 16.700000000000003 C 247.89999999999998 16.800000000000004 248.1 16.900000000000002 248.29999999999998 16.900000000000002 C 248.49999999999997 16.900000000000002 248.7 16.8 248.79999999999998 16.700000000000003 L 253.7 11.800000000000002 L 258.59999999999997 16.700000000000003 C 258.7 16.800000000000004 258.9 16.900000000000002 259.09999999999997 16.900000000000002 C 259.29999999999995 16.900000000000002 259.49999999999994 16.8 259.59999999999997 16.700000000000003 C 259.9 16.400000000000002 259.9 15.900000000000002 259.59999999999997 15.600000000000003 L 254.69999999999996 10.700000000000003 L 259.59999999999997 5.8000000000000025 C 260.1 5.5 260.1 5 259.8 4.7 z M 272.8 4.7 C 272.5 4.4 272 4.4 271.7 4.7 L 266.8 9.600000000000001 L 261.90000000000003 4.700000000000001 C 261.6 4.400000000000001 261.1 4.400000000000001 260.8 4.700000000000001 C 260.5 5.000000000000001 260.5 5.500000000000001 260.8 5.800000000000001 L 265.7 10.700000000000001 L 260.8 15.600000000000001 C 260.5 15.900000000000002 260.5 16.400000000000002 260.8 16.700000000000003 C 260.90000000000003 16.800000000000004 261.1 16.900000000000002 261.3 16.900000000000002 C 261.5 16.900000000000002 261.7 16.8 261.8 16.700000000000003 L 266.7 11.800000000000002 L 271.59999999999997 16.700000000000003 C 271.7 16.800000000000004 271.9 16.900000000000002 272.09999999999997 16.900000000000002 C 272.29999999999995 16.900000000000002 272.49999999999994 16.8 272.59999999999997 16.700000000000003 C 272.9 16.400000000000002 272.9 15.900000000000002 272.59999999999997 15.600000000000003 L 267.7 10.700000000000003 L 272.59999999999997 5.8000000000000025 C 273.1 5.5 273.1 5 272.8 4.7 z M 285.8 4.7 C 285.5 4.4 285 4.4 284.7 4.7 L 279.8 9.600000000000001 L 274.90000000000003 4.700000000000001 C 274.6 4.400000000000001 274.1 4.400000000000001 273.8 4.700000000000001 C 273.5 5.000000000000001 273.5 5.500000000000001 273.8 5.800000000000001 L 278.7 10.700000000000001 L 273.8 15.600000000000001 C 273.5 15.900000000000002 273.5 16.400000000000002 273.8 16.700000000000003 C 273.90000000000003 16.800000000000004 274.1 16.900000000000002 274.3 16.900000000000002 C 274.5 16.900000000000002 274.7 16.8 274.8 16.700000000000003 L 279.7 11.800000000000002 L 284.59999999999997 16.700000000000003 C 284.7 16.800000000000004 284.9 16.900000000000002 285.09999999999997 16.900000000000002 C 285.29999999999995 16.900000000000002 285.49999999999994 16.8 285.59999999999997 16.700000000000003 C 285.9 16.400000000000002 285.9 15.900000000000002 285.59999999999997 15.600000000000003 L 280.7 10.700000000000003 L 285.59999999999997 5.8000000000000025 C 286.1 5.5 286.1 5 285.8 4.7 z M 298.7 4.7 C 298.4 4.4 297.9 4.4 297.59999999999997 4.7 L 292.7 9.600000000000001 L 287.8 4.700000000000001 C 287.5 4.400000000000001 287 4.400000000000001 286.7 4.700000000000001 C 286.4 5.000000000000001 286.4 5.500000000000001 286.7 5.800000000000001 L 291.59999999999997 10.700000000000001 L 286.7 15.600000000000001 C 286.4 15.900000000000002 286.4 16.400000000000002 286.7 16.700000000000003 C 286.8 16.800000000000004 287 16.900000000000002 287.2 16.900000000000002 C 287.4 16.900000000000002 287.59999999999997 16.8 287.7 16.700000000000003 L 292.59999999999997 11.800000000000002 L 297.49999999999994 16.700000000000003 C 297.59999999999997 16.800000000000004 297.79999999999995 16.900000000000002 297.99999999999994 16.900000000000002 C 298.19999999999993 16.900000000000002 298.3999999999999 16.8 298.49999999999994 16.700000000000003 C 298.79999999999995 16.400000000000002 298.79999999999995 15.900000000000002 298.49999999999994 15.600000000000003 L 293.59999999999997 10.700000000000003 L 298.49999999999994 5.8000000000000025 C 299 5.5 299 5 298.7 4.7 z M 299.3 0 L 0.7 0 C 0.3 0 0 0.3 0 0.7 C 0 1.0999999999999999 0.3 1.4 0.7 1.4 L 299.2 1.4 C 299.59999999999997 1.4 299.9 1.0999999999999999 299.9 0.7 C 299.9 0.30000000000000004 299.7 0 299.3 0 z" stroke-linecap="round" />
</g>
</g>
</g>
</svg>