<?xml version="1.0" encoding="UTF-8" standalone="no" ?>
<!DOCTYPE svg PUBLIC "-//W3C//DTD SVG 1.1//EN" "http://www.w3.org/Graphics/SVG/1.1/DTD/svg11.dtd">
<svg xmlns="http://www.w3.org/2000/svg" xmlns:xlink="http://www.w3.org/1999/xlink" version="1.1" width="950" height="420" viewBox="250 330 780 370" xml:space="preserve">
<desc>Created with Fabric.js 4.4.0</desc>
<defs>
</defs>
<g transform="matrix(1 0 0 1 640 512)" id="background-logo"  >
<rect style="stroke: none; stroke-width: 0; stroke-dasharray: none; stroke-linecap: butt; stroke-dashoffset: 0; stroke-linejoin: miter; stroke-miterlimit: 4; fill: rgb(255,255,255); fill-opacity: 0; fill-rule: nonzero; opacity: 1;"  paint-order="stroke"  x="-640" y="-512" rx="0" ry="0" width="1280" height="1024" />
</g>
<g transform="matrix(1.9211538461538462 0 0 1.9211538461538462 505.4777511803096 454.4677708712405)" id="text-logo"  >
<g style=""  paint-order="stroke"   >
		<g transform="matrix(1 0 0 1 0 0)" id="text-logo-path-0"  >
<linearGradient id="SVGID_1170645" gradientUnits="userSpaceOnUse" gradientTransform="matrix(1 0 0 1 -0.09000000000000341 -73.57)"  x1="0" y1="0" x2="0" y2="105">
<stop offset="0%" style="stop-color:rgb(113,23,234);stop-opacity: 1"/>
<stop offset="100%" style="stop-color:rgb(234,96,96);stop-opacity: 1"/>
</linearGradient>
<filter id="SVGID_1170576" y="-27.689818572502958%" height="155.37963714500592%" x="-22.227609760844572%" width="144.45521952168914%" >
	<feGaussianBlur in="SourceAlpha" stdDeviation="0"></feGaussianBlur>
	<feOffset dx="5.685082870651435" dy="5.685082870651435" result="oBlur" ></feOffset>
	<feFlood flood-color="rgb(81,18,94)" flood-opacity="1"/>
	<feComposite in2="oBlur" operator="in" />
	<feMerge>
		<feMergeNode></feMergeNode>
		<feMergeNode in="SourceGraphic"></feMergeNode>
	</feMerge>
</filter>
<path style="stroke: rgb(255,190,88); stroke-width: 9.22107946932035; stroke-dasharray: none; stroke-linecap: butt; stroke-dashoffset: 0; stroke-linejoin: miter; stroke-miterlimit: 4; fill: url(#SVGID_1170645); fill-rule: nonzero; opacity: 1;filter: url(#SVGID_1170576);"  paint-order="stroke"  transform=" translate(-127.515, 36.605)" d="M -0.09 -0.18 L -0.09 -0.18 Q 4.37 -16.48 7.01 -33.05 Q 9.65 -49.62 12.11 -66.38 L 12.11 -66.38 Q 24.86 -69.02 32.96 -69.02 L 32.96 -69.02 Q 42.52 -69.02 46.25 -62.46 L 46.25 -62.46 Q 47.71 -60 47.71 -56.41 Q 47.71 -52.81 46.57 -49.71 Q 45.43 -46.62 43.61 -44.07 L 43.61 -44.07 Q 39.88 -38.97 34.69 -37.06 L 34.69 -37.06 Q 42.16 -32.5 42.16 -22.94 L 42.16 -22.94 Q 42.16 -19.58 40.56 -16.3 Q 38.97 -13.02 36.28 -10.38 Q 33.6 -7.74 30 -5.74 Q 26.4 -3.73 22.4 -2.37 L 22.4 -2.37 Q 14.57 0.36 6.37 0.36 L 6.37 0.36 Q 2.91 0.36 -0.09 -0.18 Z M 18.21 -18.48 L 18.21 -18.48 Q 26.5 -19.39 29.86 -23.13 L 29.86 -23.13 Q 31.32 -24.77 31.32 -26.77 Q 31.32 -28.77 30.46 -29.91 Q 29.59 -31.05 28.23 -31.78 L 28.23 -31.78 Q 25.49 -33.23 22.31 -33.23 L 22.31 -33.23 L 21.49 -33.23 Q 21.12 -33.23 20.76 -33.14 L 20.76 -33.14 Q 20.4 -30.87 20.08 -29.14 Q 19.76 -27.41 19.48 -25.81 Q 19.21 -24.22 18.89 -22.49 Q 18.57 -20.76 18.21 -18.48 Z M 22.94 -44.61 L 22.94 -44.61 Q 34.33 -47.16 34.33 -50.9 L 34.33 -50.9 Q 34.33 -54.45 28.5 -55.36 L 28.5 -55.36 Q 27.04 -55.63 25.95 -55.63 L 25.95 -55.63 L 24.95 -55.63 Q 24.77 -54.63 24.54 -53.22 Q 24.31 -51.81 24.04 -50.31 Q 23.76 -48.8 23.45 -47.3 Q 23.13 -45.8 22.94 -44.61 Z M 42.79 -18.76 L 42.79 -18.76 Q 42.79 -29.14 47.62 -41.15 L 47.62 -41.15 Q 52.44 -53.17 60.28 -61.19 L 60.28 -61.19 Q 68.74 -69.74 78.03 -69.74 L 78.03 -69.74 Q 85.68 -69.74 89.23 -63.55 L 89.23 -63.55 Q 92.05 -58.55 92.05 -48.35 L 92.05 -48.35 Q 92.05 -42.79 90.46 -36.06 Q 88.86 -29.32 86.13 -23.67 Q 83.4 -18.03 79.81 -13.57 Q 76.21 -9.11 72.29 -6.01 L 72.29 -6.01 Q 64.19 0.36 56.72 0.36 L 56.72 0.36 Q 50.44 0.36 46.8 -4.19 L 46.8 -4.19 Q 42.79 -9.2 42.79 -18.76 Z M 56.63 -21.12 L 56.63 -21.12 Q 56.63 -17.48 59.73 -15.66 L 59.73 -15.66 Q 60.64 -15.02 61.82 -15.02 L 61.82 -15.02 Q 66.01 -15.02 69.24 -17.89 Q 72.48 -20.76 74.66 -24.95 Q 76.85 -29.14 77.98 -33.92 Q 79.12 -38.7 79.12 -42.61 L 79.12 -42.61 Q 79.12 -50.17 74.75 -50.17 L 74.75 -50.17 Q 69.2 -50.17 64.74 -44.71 L 64.74 -44.71 Q 61.19 -40.34 58.64 -32.78 L 58.64 -32.78 Q 56.63 -26.59 56.63 -21.12 Z M 88.77 -18.76 L 88.77 -18.76 Q 88.77 -29.14 93.6 -41.15 L 93.6 -41.15 Q 98.43 -53.17 106.26 -61.19 L 106.26 -61.19 Q 114.72 -69.74 124.01 -69.74 L 124.01 -69.74 Q 131.66 -69.74 135.21 -63.55 L 135.21 -63.55 Q 138.03 -58.55 138.03 -48.35 L 138.03 -48.35 Q 138.03 -42.79 136.44 -36.06 Q 134.85 -29.32 132.11 -23.67 Q 129.38 -18.03 125.79 -13.57 Q 122.19 -9.11 118.27 -6.01 L 118.27 -6.01 Q 110.17 0.36 102.7 0.36 L 102.7 0.36 Q 96.42 0.36 92.78 -4.19 L 92.78 -4.19 Q 88.77 -9.2 88.77 -18.76 Z M 102.61 -21.12 L 102.61 -21.12 Q 102.61 -17.48 105.71 -15.66 L 105.71 -15.66 Q 106.62 -15.02 107.8 -15.02 L 107.8 -15.02 Q 111.99 -15.02 115.22 -17.89 Q 118.46 -20.76 120.64 -24.95 Q 122.83 -29.14 123.96 -33.92 Q 125.1 -38.7 125.1 -42.61 L 125.1 -42.61 Q 125.1 -50.17 120.73 -50.17 L 120.73 -50.17 Q 115.18 -50.17 110.72 -44.71 L 110.72 -44.71 Q 107.17 -40.34 104.62 -32.78 L 104.62 -32.78 Q 102.61 -26.59 102.61 -21.12 Z M 143.77 -1.55 L 128.38 -0.55 Q 143.22 -45.34 148.5 -66.1 L 148.5 -66.1 Q 153.69 -66.1 158.25 -66.65 Q 162.8 -67.2 168.08 -67.65 L 168.08 -67.65 Q 167.81 -65.65 167.49 -63.1 Q 167.17 -60.55 166.76 -57.73 Q 166.35 -54.9 165.89 -51.94 Q 165.44 -48.98 164.76 -44.3 Q 164.07 -39.61 162.98 -32.6 L 162.98 -32.6 L 164.25 -32.6 Q 174.73 -60.73 178.09 -67.83 L 178.09 -67.83 Q 182.74 -68.38 185.7 -68.83 Q 188.66 -69.29 190.75 -69.61 Q 192.84 -69.93 195.3 -70.38 L 195.3 -70.38 Q 190.84 -43.98 187.84 -3.82 L 187.84 -3.82 L 171.54 -0.91 Q 171.54 -4.19 172.36 -11.47 L 172.36 -11.47 L 173.63 -22.4 Q 174.54 -30.68 175.36 -35.24 L 175.36 -35.24 L 174.54 -35.24 Q 173.27 -31.32 171.68 -27 Q 170.08 -22.67 168.44 -18.21 Q 166.8 -13.75 165.21 -9.42 Q 163.62 -5.1 162.43 -1.18 L 162.43 -1.18 Q 159.16 -1.09 156.88 -0.91 L 156.88 -0.91 L 151.42 -0.64 L 154.42 -35.24 L 153.06 -35.24 Q 152.87 -34.05 152.1 -31.18 Q 151.33 -28.32 150.37 -24.63 Q 149.41 -20.94 148.28 -16.98 Q 147.14 -13.02 146.14 -9.65 L 146.14 -9.65 Q 144.5 -3.82 143.77 -1.55 L 143.77 -1.55 Z M 210.69 -44.52 L 195.39 -42.98 Q 199.31 -58.27 202.59 -72.57 L 202.59 -72.57 Q 204.23 -72.29 206.68 -72.29 L 206.68 -72.29 L 209.78 -72.29 Q 213.15 -72.29 219.8 -73.57 L 219.8 -73.57 L 210.69 -44.52 Z M 208.23 -8.19 L 208.23 -8.19 L 215.15 -21.76 Q 216.43 -19.21 220.07 -17.12 L 220.07 -17.12 Q 223.71 -14.93 225.53 -14.93 Q 227.35 -14.93 228.58 -15.3 Q 229.81 -15.66 230.81 -16.39 L 230.81 -16.39 Q 233.09 -18.03 233.09 -20.35 Q 233.09 -22.67 231.63 -24.58 Q 230.17 -26.5 228.04 -28.23 Q 225.9 -29.96 223.39 -31.73 Q 220.89 -33.51 218.79 -35.51 L 218.79 -35.51 Q 213.69 -40.06 213.69 -45.07 Q 213.69 -50.08 216.56 -54.27 Q 219.43 -58.45 223.76 -61.5 Q 228.08 -64.55 233.22 -66.33 Q 238.37 -68.11 241.92 -68.11 Q 245.47 -68.11 247.7 -67.47 Q 249.93 -66.83 251.57 -65.56 L 251.57 -65.56 Q 255.12 -62.64 255.12 -57 L 255.12 -57 Q 255.12 -55.63 254.89 -54.36 Q 254.67 -53.08 254.49 -51.53 L 254.49 -51.53 L 241.01 -47.62 Q 241.47 -49.44 241.47 -51.44 Q 241.47 -53.45 240.46 -54.68 Q 239.46 -55.9 238.32 -55.9 Q 237.19 -55.9 236.09 -55.36 Q 235 -54.81 233.91 -53.9 L 233.91 -53.9 Q 231.36 -51.81 231.36 -49.39 Q 231.36 -46.98 232.63 -45.48 Q 233.91 -43.98 235.77 -42.7 Q 237.64 -41.43 239.83 -40.06 Q 242.01 -38.7 243.92 -36.6 L 243.92 -36.6 Q 248.29 -31.5 248.29 -23.04 L 248.29 -23.04 Q 248.29 -12.84 240.83 -6.19 L 240.83 -6.19 Q 233.73 0.18 222.89 0.18 L 222.89 0.18 Q 214.88 0.18 208.23 -8.19 Z" stroke-linecap="round" />
</g>
</g>
</g>
<g transform="matrix(1.9211538461538462 0 0 1.9211538461538462 519.6407436552198 597.495830922102)" id="tagline-473aa3b5-4993-410c-bedd-ae06f6c37af1-logo"  >
<g style=""  paint-order="stroke"   >
		<g transform="matrix(1 0 0 1 0 0)" id="tagline-473aa3b5-4993-410c-bedd-ae06f6c37af1-logo-path-0"  >
<linearGradient id="SVGID_1170646" gradientUnits="userSpaceOnUse" gradientTransform="matrix(1 0 0 1 -0.05000000000001137 -40.1)"  x1="0" y1="0" x2="0" y2="60">
<stop offset="0%" style="stop-color:rgb(23,234,217);stop-opacity: 1"/>
<stop offset="100%" style="stop-color:rgb(96,120,234);stop-opacity: 1"/>
</linearGradient>
<filter id="SVGID_1170578" y="-27.240256424573627%" height="154.48051284914726%" x="-21.098478439062678%" width="142.19695687812535%" >
	<feGaussianBlur in="SourceAlpha" stdDeviation="0"></feGaussianBlur>
	<feOffset dx="2.918547364745629" dy="2.918547364745629" result="oBlur" ></feOffset>
	<feFlood flood-color="rgb(255,190,88)" flood-opacity="1"/>
	<feComposite in2="oBlur" operator="in" />
	<feMerge>
		<feMergeNode></feMergeNode>
		<feMergeNode in="SourceGraphic"></feMergeNode>
	</feMerge>
</filter>
<path style="stroke: rgb(81,18,94); stroke-width: 5.253385256542132; stroke-dasharray: none; stroke-linecap: butt; stroke-dashoffset: 0; stroke-linejoin: miter; stroke-miterlimit: 4; fill: url(#SVGID_1170646); fill-rule: nonzero; opacity: 1;filter: url(#SVGID_1170578);"  paint-order="stroke"  transform=" translate(-132.795, 19.945)" d="M -0.05 -0.1 L -0.05 -0.1 Q 2.49 -9.39 3.99 -18.83 Q 5.5 -28.27 6.9 -37.82 L 6.9 -37.82 Q 14.16 -39.32 18.78 -39.32 L 18.78 -39.32 Q 24.22 -39.32 26.35 -35.58 L 26.35 -35.58 Q 27.18 -34.18 27.18 -32.14 Q 27.18 -30.09 26.53 -28.32 Q 25.88 -26.56 24.85 -25.11 L 24.85 -25.11 Q 22.72 -22.2 19.76 -21.11 L 19.76 -21.11 Q 24.02 -18.52 24.02 -13.07 L 24.02 -13.07 Q 24.02 -11.15 23.11 -9.29 Q 22.2 -7.42 20.67 -5.91 Q 19.14 -4.41 17.09 -3.27 Q 15.04 -2.13 12.76 -1.35 L 12.76 -1.35 Q 8.3 0.21 3.63 0.21 L 3.63 0.21 Q 1.66 0.21 -0.05 -0.1 Z M 10.37 -10.53 L 10.37 -10.53 Q 15.09 -11.05 17.01 -13.18 L 17.01 -13.18 Q 17.84 -14.11 17.84 -15.25 Q 17.84 -16.39 17.35 -17.04 Q 16.86 -17.69 16.08 -18.1 L 16.08 -18.1 Q 14.52 -18.93 12.71 -18.93 L 12.71 -18.93 L 12.24 -18.93 Q 12.03 -18.93 11.83 -18.88 L 11.83 -18.88 Q 11.62 -17.58 11.44 -16.6 Q 11.26 -15.61 11.1 -14.71 Q 10.95 -13.8 10.76 -12.81 Q 10.58 -11.83 10.37 -10.53 Z M 13.07 -25.42 L 13.07 -25.42 Q 19.56 -26.87 19.56 -29 L 19.56 -29 Q 19.56 -31.02 16.24 -31.54 L 16.24 -31.54 Q 15.41 -31.69 14.78 -31.69 L 14.78 -31.69 L 14.21 -31.69 Q 14.11 -31.12 13.98 -30.32 Q 13.85 -29.52 13.69 -28.66 Q 13.54 -27.8 13.36 -26.95 Q 13.18 -26.09 13.07 -25.42 Z M 23.34 0.1 L 23.34 0.1 Q 24.59 -9.49 26.64 -20.07 Q 28.69 -30.66 30.14 -37.87 L 30.14 -37.87 L 39.48 -39.11 Q 34.65 -18.67 33.85 -14.01 Q 33.04 -9.34 32.78 -7.47 L 32.78 -7.47 Q 34.75 -7.63 38.28 -7.63 L 38.28 -7.63 Q 38.39 -5.6 38.59 -4.33 Q 38.8 -3.06 38.88 -2.46 Q 38.96 -1.87 39.01 -1.66 L 39.01 -1.66 L 37.4 -1.71 Q 31.95 -1.71 26.56 -0.73 L 26.56 -0.73 Q 24.8 -0.36 23.34 0.1 Z M 37.61 -0.31 L 37.61 -0.31 Q 39.73 -7.37 41.21 -12.24 Q 42.69 -17.12 43.62 -20.26 Q 44.56 -23.39 45.47 -26.48 Q 46.37 -29.57 47.23 -32.45 Q 48.09 -35.33 48.76 -37.71 L 48.76 -37.71 Q 58.36 -38.39 63.39 -39.37 L 63.39 -39.37 Q 62.92 -34.24 62.61 -27.23 L 62.61 -27.23 Q 61.94 -13.28 61.47 -1.5 L 61.47 -1.5 Q 59.91 -1.24 58.43 -1.04 Q 56.96 -0.83 55.37 -0.57 Q 53.79 -0.31 52.5 -0.1 L 52.5 -0.1 Q 53.07 -5.08 53.48 -9.08 L 53.48 -9.08 L 48.86 -9.08 L 46.74 -1.45 Q 45.54 -1.3 43.96 -1.09 Q 42.38 -0.88 40.82 -0.7 Q 39.27 -0.52 37.61 -0.31 Z M 54.62 -32.32 L 50.11 -14.37 L 53.95 -14.63 Q 53.95 -14.94 54.03 -15.69 Q 54.1 -16.44 54.21 -17.43 L 54.21 -17.43 Q 54.62 -22.98 55.09 -27.75 L 55.09 -27.75 L 55.45 -32.37 L 54.62 -32.32 Z M 65.57 -2.9 Q 63.39 -6.12 63.39 -11.36 Q 63.39 -16.6 64.76 -21.48 Q 66.14 -26.35 68.63 -30.22 Q 71.12 -34.08 74.57 -36.47 Q 78.02 -38.85 82.11 -38.85 L 82.11 -38.85 Q 84.76 -38.85 86.63 -36.83 L 86.63 -36.83 Q 88.44 -34.75 88.44 -31.38 L 88.44 -31.38 L 88.44 -30.71 Q 88.44 -30.4 88.39 -30.03 L 88.39 -30.03 L 81.44 -28.17 Q 80.82 -29.46 79.96 -29.46 Q 79.11 -29.46 78.17 -28.48 Q 77.24 -27.49 76.33 -25.94 Q 75.42 -24.38 74.59 -22.43 Q 73.76 -20.49 73.14 -18.52 L 73.14 -18.52 Q 71.69 -14.16 71.69 -11.49 Q 71.69 -8.82 73.3 -8.82 L 73.3 -8.82 Q 74.59 -8.82 76.05 -10.43 L 76.05 -10.43 Q 77.5 -12.09 77.91 -13.85 L 77.91 -13.85 L 83.98 -11.41 Q 81.65 -5.97 77.86 -2.75 L 77.86 -2.75 Q 74.49 0.1 70.96 0.1 L 70.96 0.1 Q 67.64 0.1 65.57 -2.9 L 65.57 -2.9 Z M 92.28 -1.24 L 83.67 0.05 Q 89.27 -25.88 90.36 -38.75 L 90.36 -38.75 Q 91.61 -38.59 93.14 -38.52 Q 94.67 -38.44 96.12 -38.33 Q 97.57 -38.23 99.18 -38.23 L 99.18 -38.23 Q 99.13 -38.02 99.02 -37.45 Q 98.92 -36.88 98.77 -36.05 Q 98.61 -35.22 98.43 -34.21 Q 98.25 -33.2 97.91 -31.51 Q 97.57 -29.83 97.05 -26.92 L 97.05 -26.92 L 97.36 -26.97 Q 98.82 -29.2 100.37 -31.69 L 100.37 -31.69 Q 103.49 -36.62 104.73 -38.49 L 104.73 -38.49 Q 110.7 -38.96 115.31 -39.68 L 115.31 -39.68 Q 106.29 -27.44 102.97 -22.1 L 102.97 -22.1 Q 104.11 -16.75 105.72 -11.75 Q 107.32 -6.74 108.98 -1.56 L 108.98 -1.56 Q 106.49 -1.66 103.77 -1.66 Q 101.05 -1.66 98.04 -1.56 L 98.04 -1.56 Q 97 -8.25 95.96 -16.03 L 95.96 -16.03 L 94.98 -14.94 Q 94.62 -13.33 94.17 -11 Q 93.73 -8.66 93.27 -6.3 Q 92.8 -3.94 92.28 -1.24 L 92.28 -1.24 Z M 125.38 -0.88 L 116.61 -0.31 Q 125.06 -25.83 128.07 -37.66 L 128.07 -37.66 Q 131.03 -37.66 133.62 -37.97 Q 136.22 -38.28 139.23 -38.54 L 139.23 -38.54 Q 139.07 -37.4 138.89 -35.95 Q 138.71 -34.5 138.47 -32.89 Q 138.24 -31.28 137.98 -29.59 Q 137.72 -27.91 137.33 -25.24 Q 136.94 -22.56 136.32 -18.57 L 136.32 -18.57 L 137.05 -18.57 Q 143.01 -34.6 144.93 -38.65 L 144.93 -38.65 Q 147.58 -38.96 149.26 -39.22 Q 150.95 -39.48 152.14 -39.66 Q 153.34 -39.84 154.74 -40.1 L 154.74 -40.1 Q 152.19 -25.05 150.48 -2.18 L 150.48 -2.18 L 141.2 -0.52 Q 141.2 -2.39 141.66 -6.54 L 141.66 -6.54 L 142.39 -12.76 Q 142.91 -17.48 143.38 -20.07 L 143.38 -20.07 L 142.91 -20.07 Q 142.18 -17.84 141.28 -15.38 Q 140.37 -12.92 139.43 -10.37 Q 138.5 -7.83 137.59 -5.37 Q 136.68 -2.9 136.01 -0.67 L 136.01 -0.67 Q 134.14 -0.62 132.85 -0.52 L 132.85 -0.52 L 129.73 -0.36 L 131.45 -20.07 L 130.67 -20.07 Q 130.56 -19.4 130.12 -17.77 Q 129.68 -16.13 129.14 -14.03 Q 128.59 -11.93 127.94 -9.67 Q 127.3 -7.42 126.72 -5.5 L 126.72 -5.5 Q 125.79 -2.18 125.38 -0.88 L 125.38 -0.88 Z M 149.96 -0.31 L 149.96 -0.31 Q 152.09 -7.37 153.57 -12.24 Q 155.05 -17.12 155.98 -20.26 Q 156.91 -23.39 157.82 -26.48 Q 158.73 -29.57 159.59 -32.45 Q 160.44 -35.33 161.12 -37.71 L 161.12 -37.71 Q 170.71 -38.39 175.74 -39.37 L 175.74 -39.37 Q 175.28 -34.24 174.97 -27.23 L 174.97 -27.23 Q 174.29 -13.28 173.83 -1.5 L 173.83 -1.5 Q 172.27 -1.24 170.79 -1.04 Q 169.31 -0.83 167.73 -0.57 Q 166.15 -0.31 164.85 -0.1 L 164.85 -0.1 Q 165.42 -5.08 165.84 -9.08 L 165.84 -9.08 L 161.22 -9.08 L 159.09 -1.45 Q 157.9 -1.3 156.32 -1.09 Q 154.74 -0.88 153.18 -0.7 Q 151.62 -0.52 149.96 -0.31 Z M 166.98 -32.32 L 162.47 -14.37 L 166.3 -14.63 Q 166.3 -14.94 166.38 -15.69 Q 166.46 -16.44 166.56 -17.43 L 166.56 -17.43 Q 166.98 -22.98 167.44 -27.75 L 167.44 -27.75 L 167.81 -32.37 L 166.98 -32.32 Z M 182.9 -2.18 L 174.29 0.05 Q 179.69 -26.04 180.88 -36.99 L 180.88 -36.99 Q 186.9 -38.85 194.37 -38.85 L 194.37 -38.85 Q 199.97 -38.85 201.01 -34.96 L 201.01 -34.96 Q 201.32 -33.77 201.32 -32.01 Q 201.32 -30.24 200.59 -28.19 Q 199.87 -26.14 198.62 -24.28 L 198.62 -24.28 Q 196.03 -20.49 192.24 -18.47 L 192.24 -18.47 Q 194.26 -14.11 195.85 -10.24 Q 197.43 -6.38 198.52 -3.73 L 198.52 -3.73 L 190.27 -0.83 Q 186.27 -13.95 186.12 -15.82 L 186.12 -15.82 L 185.44 -15.61 Q 185.03 -13.23 184.2 -8.97 Q 183.37 -4.72 182.9 -2.18 L 182.9 -2.18 Z M 188.51 -31.43 L 186.79 -22.98 Q 188.87 -23.19 192.03 -25.63 L 192.03 -25.63 Q 195.3 -28.11 195.3 -29.72 L 195.3 -29.72 Q 195.3 -31.23 192.45 -31.43 L 192.45 -31.43 Q 191.62 -31.49 190.79 -31.49 L 190.79 -31.49 L 188.51 -31.43 Z M 206.66 -1.24 L 198.05 0.05 Q 203.65 -25.88 204.74 -38.75 L 204.74 -38.75 Q 205.99 -38.59 207.52 -38.52 Q 209.05 -38.44 210.5 -38.33 Q 211.95 -38.23 213.56 -38.23 L 213.56 -38.23 Q 213.51 -38.02 213.4 -37.45 Q 213.3 -36.88 213.14 -36.05 Q 212.99 -35.22 212.81 -34.21 Q 212.63 -33.2 212.29 -31.51 Q 211.95 -29.83 211.43 -26.92 L 211.43 -26.92 L 211.74 -26.97 Q 213.2 -29.2 214.75 -31.69 L 214.75 -31.69 Q 217.87 -36.62 219.11 -38.49 L 219.11 -38.49 Q 225.08 -38.96 229.69 -39.68 L 229.69 -39.68 Q 220.67 -27.44 217.35 -22.1 L 217.35 -22.1 Q 218.49 -16.75 220.1 -11.75 Q 221.7 -6.74 223.36 -1.56 L 223.36 -1.56 Q 220.87 -1.66 218.15 -1.66 Q 215.43 -1.66 212.42 -1.56 L 212.42 -1.56 Q 211.38 -8.25 210.34 -16.03 L 210.34 -16.03 L 209.36 -14.94 Q 208.99 -13.33 208.55 -11 Q 208.11 -8.66 207.65 -6.3 Q 207.18 -3.94 206.66 -1.24 L 206.66 -1.24 Z M 239.81 -2.59 L 222.64 0.05 L 229.59 -37.71 L 246.39 -39.16 Q 246.03 -37.97 245.77 -36.86 Q 245.51 -35.74 245.25 -34.65 Q 244.99 -33.56 244.84 -32.73 L 244.84 -32.73 Q 243.28 -32.58 240.59 -32.58 L 240.59 -32.58 L 237.01 -32.58 L 235.14 -23.03 Q 237.99 -23.19 239.91 -23.24 Q 241.83 -23.29 242.4 -23.34 L 242.4 -23.34 Q 242.19 -21.84 242.01 -20.41 Q 241.83 -18.99 241.57 -17.48 L 241.57 -17.48 Q 241 -17.43 239.81 -17.4 Q 238.61 -17.38 237.32 -17.33 Q 236.02 -17.27 234.41 -17.22 L 234.41 -17.22 L 232.6 -7.42 L 240.33 -8.66 L 239.81 -2.59 Z M 254.64 -1.45 L 245.1 0.05 Q 249.3 -19.66 250.75 -30.81 L 250.75 -30.81 Q 249.82 -30.92 248.88 -30.92 L 248.88 -30.92 L 248.26 -30.92 Q 248.11 -30.92 247.95 -30.92 L 247.95 -30.92 L 245.77 -31.23 L 246.03 -38.02 Q 248.73 -37.82 251.48 -37.82 L 251.48 -37.82 Q 258.74 -37.82 265.64 -38.7 L 265.64 -38.7 L 265.07 -35.84 Q 264.81 -34.65 264.58 -33.38 Q 264.34 -32.11 264.14 -31.18 L 264.14 -31.18 Q 262.94 -30.86 261.75 -30.73 Q 260.56 -30.6 259.41 -30.4 L 259.41 -30.4 Q 258.48 -26.4 257.55 -20.49 L 257.55 -20.49 Q 255.47 -7.42 254.64 -1.45 L 254.64 -1.45 Z" stroke-linecap="round" />
</g>
</g>
</g>
<g transform="matrix(1.1664211019720838 0 0 1.1664211019720838 898.5223495759215 515.4485431440272)" id="shape-52bd2d9e-6697-4df2-bc1e-1c522d6271b7"  >
<g style=""  paint-order="stroke"   >
		<g transform="matrix(1 0 0 1 55.137251499415285 -106.00469095496543)" id="path-01"  >
<linearGradient id="SVGID_1170613" gradientUnits="userSpaceOnUse" gradientTransform="matrix(1 0 0 1 156.5066556409018 13.390785077515014)"  x1="0" y1="0" x2="0" y2="11">
<stop offset="0%" style="stop-color:rgb(250,217,97);stop-opacity: 1"/>
<stop offset="100%" style="stop-color:rgb(247,107,28);stop-opacity: 1"/>
</linearGradient>
<path style="stroke: none; stroke-width: 1; stroke-dasharray: none; stroke-linecap: butt; stroke-dashoffset: 0; stroke-linejoin: miter; stroke-miterlimit: 4; fill: url(#SVGID_1170613); fill-rule: nonzero; opacity: 1;"  paint-order="stroke"  transform=" translate(-166.68393838643368, -18.99530266962676)" d="M 172.46895 19.77547 L 172.46887 19.77547 C 170.94761 18.83928 169.31495 18.04123 167.71083000000002 17.25839 C 166.09503 16.46952 164.44656 15.756669999999998 162.77379000000002 15.097909999999999 C 161.16065000000003 14.462559999999998 159.49365000000003 13.733909999999998 157.78819000000001 13.399729999999998 C 157.01437 13.248029999999998 155.99720000000002 15.070449999999997 156.80006 15.485349999999999 C 158.37515 16.29978 160.11758 16.83372 161.74495 17.54715 C 163.28315999999998 18.22121 164.80391 18.940929999999998 166.30884999999998 19.68679 C 167.81743999999998 20.435049999999997 169.28591999999998 21.24873 170.75868999999997 22.064729999999997 C 171.54466999999997 22.50023 172.35702999999998 22.885279999999998 173.16252999999998 23.284139999999997 C 173.96272999999997 23.680769999999995 174.71014999999997 24.214459999999995 175.53046999999998 24.560959999999998 C 176.22826999999998 24.85609 177.25759999999997 23.390189999999997 176.7034 22.86311 C 176.08838999999998 22.2788 175.35576999999998 21.8399 174.67748999999998 21.3321 C 173.95851 20.79347 173.23541 20.24712 172.46895 19.77547 z" stroke-linecap="round" />
</g>
		<g transform="matrix(1 0 0 1 68.71945185562127 -97.589828316201)" id="path-01"  >
<linearGradient id="SVGID_1170614" gradientUnits="userSpaceOnUse" gradientTransform="matrix(1 0 0 1 177.3524794158265 24.421443014754402)"  x1="0" y1="0" x2="0" y2="6">
<stop offset="0%" style="stop-color:rgb(250,217,97);stop-opacity: 1"/>
<stop offset="100%" style="stop-color:rgb(247,107,28);stop-opacity: 1"/>
</linearGradient>
<path style="stroke: none; stroke-width: 1; stroke-dasharray: none; stroke-linecap: butt; stroke-dashoffset: 0; stroke-linejoin: miter; stroke-miterlimit: 4; fill: url(#SVGID_1170614); fill-rule: nonzero; opacity: 1;"  paint-order="stroke"  transform=" translate(-180.26613874263967, -27.410165308391207)" d="M 180.46271 29.3033 C 180.64220999999998 29.4732 180.82220999999998 29.64343 181.00217999999998 29.81366 C 181.11194999999998 29.91797 181.21916 30.03617 181.33901999999998 30.12856 C 181.44240999999997 30.20822 181.57227999999998 30.26604 181.68633999999997 30.331220000000002 C 182.11704999999998 30.57854 182.61640999999997 30.091590000000004 182.83387999999997 29.77652 C 183.08938999999995 29.40669 183.34109999999995 28.7802 183.04818999999998 28.35942 C 182.97530999999998 28.2547 182.90774999999996 28.14435 182.8275 28.0446 C 182.73353999999998 27.92689 182.60475 27.82978 182.49283 27.727629999999998 C 182.31078 27.56104 182.12863 27.394779999999997 181.94599 27.22827 C 181.59553 26.908399999999997 181.18699 26.66216 180.82485 26.35701 C 180.09429 25.742089999999997 179.38169 25.10393 178.66065 24.47785 C 178.52656000000002 24.36147 178.23415 24.44989 178.11059 24.52219 C 177.92274 24.633029999999998 177.77433 24.786969999999997 177.65084 24.96588 C 177.52363 25.15034 177.40905999999998 25.370199999999997 177.3758 25.59478 C 177.34843 25.778 177.31674999999998 26.06775 177.46241 26.21243 C 178.14648 26.892030000000002 178.84113 27.56212 179.51519000000002 28.25206 C 179.84514 28.58937 180.1196 28.97863 180.46271 29.3033 z" stroke-linecap="round" />
</g>
		<g transform="matrix(1 0 0 1 82.46461168501419 -84.8241609455185)" id="path-01"  >
<linearGradient id="SVGID_1170615" gradientUnits="userSpaceOnUse" gradientTransform="matrix(1 0 0 1 187.44222762574276 31.42078338709784)"  x1="0" y1="0" x2="0" y2="18">
<stop offset="0%" style="stop-color:rgb(250,217,97);stop-opacity: 1"/>
<stop offset="100%" style="stop-color:rgb(247,107,28);stop-opacity: 1"/>
</linearGradient>
<path style="stroke: none; stroke-width: 1; stroke-dasharray: none; stroke-linecap: butt; stroke-dashoffset: 0; stroke-linejoin: miter; stroke-miterlimit: 4; fill: url(#SVGID_1170615); fill-rule: nonzero; opacity: 1;"  paint-order="stroke"  transform=" translate(-194.0112985720326, -40.17583267907369)" d="M 196.46677 44.83993 C 196.89757 45.55096 197.28972 46.285990000000005 197.72365 46.994620000000005 C 198.10365 47.616150000000005 198.57613999999998 48.364160000000005 199.11982999999998 48.84714 C 199.43282999999997 49.12507 199.98869999999997 48.63969 200.16602999999998 48.429590000000005 C 200.47796999999997 48.059850000000004 200.64314 47.56288000000001 200.55819999999997 47.08511000000001 C 200.41988999999998 46.30203000000001 199.99654999999998 45.385940000000005 199.62391999999997 44.68103000000001 C 199.25755999999998 43.98819000000001 198.83950999999996 43.31761000000001 198.42144999999996 42.655120000000004 C 197.53779999999998 41.25522 196.59183999999996 39.894940000000005 195.58681999999996 38.57983 C 193.59888999999995 35.97855 191.36925999999997 33.68473 188.91156999999995 31.52656 C 188.26016999999996 30.95441 187.01974999999996 32.8626 187.58669999999995 33.44377 C 189.84429999999995 35.75521 191.94570999999996 38.28684 193.84646999999995 40.89945 C 194.77496 42.17529 195.64911 43.4904 196.46677 44.83993 z" stroke-linecap="round" />
</g>
		<g transform="matrix(1 0 0 1 -34.94373589060496 48.49862562307513)" id="path-01"  >
<linearGradient id="SVGID_1170616" gradientUnits="userSpaceOnUse" gradientTransform="matrix(1 0 0 1 67.65317434781244 163.84341030232366)"  x1="0" y1="0" x2="0" y2="19">
<stop offset="0%" style="stop-color:rgb(250,217,97);stop-opacity: 1"/>
<stop offset="100%" style="stop-color:rgb(247,107,28);stop-opacity: 1"/>
</linearGradient>
<path style="stroke: none; stroke-width: 1; stroke-dasharray: none; stroke-linecap: butt; stroke-dashoffset: 0; stroke-linejoin: miter; stroke-miterlimit: 4; fill: url(#SVGID_1170616); fill-rule: nonzero; opacity: 1;"  paint-order="stroke"  transform=" translate(-76.60295099641343, -173.4986192476673)" d="M 76.76601 175.81326 C 76.78453999999999 175.77685000000002 76.80671 175.72516000000002 76.82623 175.68579000000003 C 77.15187999999999 176.13527000000002 77.56042 176.75160000000002 77.67235 176.90388000000002 C 78.21919 177.64999 78.76974999999999 178.39369000000002 79.31981999999999 179.13772 C 80.22291999999999 180.3597 81.34307 181.60517000000002 83.02165 181.31434000000002 C 85.18370999999999 180.93955000000003 85.61547999999999 178.65234 85.54584 176.80378000000002 C 85.51995 176.12708 85.34947 175.47518000000002 85.25551 174.80849 C 85.14681 174.03888 84.99164 173.28012 84.76781 172.53501 C 83.95065 169.81206 82.42568 167.10158 80.31061 165.19074 C 79.80488 164.73382 79.27127 164.23685 78.62459 163.99697 C 77.75838 163.67579 76.88588 163.89432 76.09403 164.32107 C 74.63929 165.10497999999998 73.49755 166.44276 72.61181 167.80866 C 71.63898 169.30823 70.97707000000001 170.99317 70.3251 172.64933 C 69.82416 173.922 69.41356 175.22917999999999 68.98384 176.52908 C 68.63337 177.25799 68.29662 177.99383 68.03631 178.74714 C 67.67583 179.79226 67.40344 181.13302 68.01521 182.14201 C 69.50586 184.60127 72.45769 181.97624 73.60315 180.60545 L 73.60307 180.60545 C 74.42817000000001 179.61757 75.17767 178.55789 75.84916 177.4599 C 76.17748 176.9239 76.48362 176.3744 76.76601 175.81326 z" stroke-linecap="round" />
</g>
		<g transform="matrix(1 0 0 1 -9.41395654990442 17.61676326815318)" id="path-01"  >
<linearGradient id="SVGID_1170617" gradientUnits="userSpaceOnUse" gradientTransform="matrix(1 0 0 1 100.29192161797965 136.50047497527137)"  x1="0" y1="0" x2="0" y2="12">
<stop offset="0%" style="stop-color:rgb(250,217,97);stop-opacity: 1"/>
<stop offset="100%" style="stop-color:rgb(247,107,28);stop-opacity: 1"/>
</linearGradient>
<path style="stroke: none; stroke-width: 1; stroke-dasharray: none; stroke-linecap: butt; stroke-dashoffset: 0; stroke-linejoin: miter; stroke-miterlimit: 4; fill: url(#SVGID_1170617); fill-rule: nonzero; opacity: 1;"  paint-order="stroke"  transform=" translate(-102.13273033711397, -142.61675689274537)" d="M 103.51508 136.50414 C 103.07800999999999 136.45508 102.6521 136.90879 102.46524 137.25214 C 101.55784 138.91722 101.04581999999999 140.84049 100.72115 142.70119 C 100.55646 143.64284 100.45141 144.59375 100.38382999999999 145.54708 C 100.3543 145.96595 100.34635999999999 146.38459 100.32683999999999 146.80363 C 100.29937999999999 147.39985 100.20912999999999 147.89897 100.50054999999999 148.47113 C 100.73537999999999 148.93383999999998 101.41796 148.68338 101.70929 148.47957 C 102.24405999999999 148.10535 102.53645999999999 147.53212 102.70223 146.91556 C 102.83524 146.42099 102.72382 145.96803 102.70115 145.48587 C 102.68212 145.07733000000002 102.70115 144.66061000000002 102.71695 144.25198 C 102.74548 143.51349 102.81414 142.78979 102.92175 142.058 C 103.1551 140.47307 103.61591 138.96000999999998 103.95001 137.40013 C 104.02288 137.05833 103.93951 136.55185 103.51508 136.50414 z" stroke-linecap="round" />
</g>
		<g transform="matrix(1 0 0 1 -7.521634749231033 33.24335463617132)" id="path-01"  >
<linearGradient id="SVGID_1170618" gradientUnits="userSpaceOnUse" gradientTransform="matrix(1 0 0 1 100.92560268130157 151.45468266909182)"  x1="0" y1="0" x2="0" y2="14">
<stop offset="0%" style="stop-color:rgb(250,217,97);stop-opacity: 1"/>
<stop offset="100%" style="stop-color:rgb(247,107,28);stop-opacity: 1"/>
</linearGradient>
<path style="stroke: none; stroke-width: 1; stroke-dasharray: none; stroke-linecap: butt; stroke-dashoffset: 0; stroke-linejoin: miter; stroke-miterlimit: 4; fill: url(#SVGID_1170618); fill-rule: nonzero; opacity: 1;"  paint-order="stroke"  transform=" translate(-104.02505213778736, -158.24334826076353)" d="M 102.72861 151.84497 C 102.56391 151.35222 102.08143 151.37778 101.71193000000001 151.63644 C 101.27701 151.94074999999998 100.88741 152.56311 100.9286 153.11309 C 101.09122 155.29342 101.51084 157.44581 102.28044 159.49593 C 102.6626 160.51394 103.09702 161.51026 103.56363 162.49154 C 103.78854 162.96418 104.02817 163.42953999999997 104.27731 163.88952999999998 C 104.55706 164.40682999999999 104.76509 164.94845999999998 105.41541 165.02473999999998 C 106.44838 165.14616999999998 107.05014999999999 163.71804999999998 107.1188 162.92199 C 107.1753 162.26215 106.8005 161.74229 106.49857999999999 161.18484999999998 C 106.28103999999999 160.78259999999997 106.07200999999999 160.37587 105.86827999999998 159.96626999999998 C 105.43600999999998 159.09559 105.04797999999998 158.20457 104.69749999999999 157.29773999999998 C 104.00072 155.49426 103.34411 153.67847 102.72861 151.84497 z" stroke-linecap="round" />
</g>
		<g transform="matrix(1 0 0 1 -2.0820020853046444 31.96180108554975)" id="path-01"  >
<linearGradient id="SVGID_1170619" gradientUnits="userSpaceOnUse" gradientTransform="matrix(1 0 0 1 105.74266485034371 149.79446722337178)"  x1="0" y1="0" x2="0" y2="14">
<stop offset="0%" style="stop-color:rgb(250,217,97);stop-opacity: 1"/>
<stop offset="100%" style="stop-color:rgb(247,107,28);stop-opacity: 1"/>
</linearGradient>
<path style="stroke: none; stroke-width: 1; stroke-dasharray: none; stroke-linecap: butt; stroke-dashoffset: 0; stroke-linejoin: miter; stroke-miterlimit: 4; fill: url(#SVGID_1170619); fill-rule: nonzero; opacity: 1;"  paint-order="stroke"  transform=" translate(-109.46468480171376, -156.96179471014193)" d="M 109.42818 156.04773 C 108.98796 155.12717 108.63054 154.16228 108.34079 153.1844 C 108.04308999999999 152.18146000000002 107.88683 151.14477000000002 107.473 150.1817 C 107.02269 149.13392000000002 105.86093 150.47493 105.79228 151.11465 C 105.53892 153.47944 106.29271 155.90521 107.21592000000001 158.06576 C 108.12961000000001 160.20275 109.38856000000001 162.15528 110.94943 163.87745 C 111.45517000000001 164.43588 112.18886 163.95637000000002 112.57416 163.48968000000002 C 112.93737 163.04971000000003 113.48422000000001 161.94097000000002 112.98857000000001 161.39389000000003 C 111.54118 159.79654 110.35767 157.99158 109.42818 156.04773 z" stroke-linecap="round" />
</g>
		<g transform="matrix(1 0 0 1 57.927259139325784 29.662100953304247)" id="path-01"  >
<linearGradient id="SVGID_1170620" gradientUnits="userSpaceOnUse" gradientTransform="matrix(1 0 0 1 160.7422302713568 146.7440526759006)"  x1="0" y1="0" x2="0" y2="16">
<stop offset="0%" style="stop-color:rgb(250,217,97);stop-opacity: 1"/>
<stop offset="100%" style="stop-color:rgb(247,107,28);stop-opacity: 1"/>
</linearGradient>
<path style="stroke: none; stroke-width: 1; stroke-dasharray: none; stroke-linecap: butt; stroke-dashoffset: 0; stroke-linejoin: miter; stroke-miterlimit: 4; fill: url(#SVGID_1170620); fill-rule: nonzero; opacity: 1;"  paint-order="stroke"  transform=" translate(-169.47394602634418, -154.66209457789643)" d="M 177.8309 146.84315 L 177.83082000000002 146.84324 C 177.18579000000003 146.45158 176.41934 147.31489000000002 176.1433 147.78018 C 174.46209000000002 150.61075 172.26198000000002 152.91913 169.68287 154.95263 C 166.97448 157.08839 163.97732000000002 158.79549 161.25088 160.90478 C 160.71571 161.31944 160.35887 162.96475999999998 161.47156999999999 162.49732 C 164.75063999999998 161.11909 167.79313 159.09551 170.58871 156.90153 C 173.43963 154.66494 176.10377 151.9687 177.86357999999998 148.77326 C 178.14656 148.25945 178.48065 147.23755 177.8309 146.84315 z" stroke-linecap="round" />
</g>
		<g transform="matrix(1 0 0 1 75.67252613477264 4.91597930551287)" id="path-01"  >
<linearGradient id="SVGID_1170621" gradientUnits="userSpaceOnUse" gradientTransform="matrix(1 0 0 1 180.71625482992107 117.67555640547403)"  x1="0" y1="0" x2="0" y2="24">
<stop offset="0%" style="stop-color:rgb(250,217,97);stop-opacity: 1"/>
<stop offset="100%" style="stop-color:rgb(247,107,28);stop-opacity: 1"/>
</linearGradient>
<path style="stroke: none; stroke-width: 1; stroke-dasharray: none; stroke-linecap: butt; stroke-dashoffset: 0; stroke-linejoin: miter; stroke-miterlimit: 4; fill: url(#SVGID_1170621); fill-rule: nonzero; opacity: 1;"  paint-order="stroke"  transform=" translate(-187.21921302179103, -129.91597293010506)" d="M 181.8531 141.80223 C 183.32901 140.20727000000002 184.37257000000002 138.14184 185.44201 136.26474000000002 C 186.51824000000002 134.37474000000003 187.53178 132.45207000000002 188.50146 130.50534000000002 C 189.46586000000002 128.56943 190.42703 126.61797000000001 191.27851 124.62921000000001 C 191.71451000000002 123.61237000000001 191.99476 122.54714000000001 192.41123000000002 121.52385000000001 C 192.823 120.5109 193.38936 119.57024000000001 193.67127000000002 118.51114000000001 C 194.00957000000002 117.24036000000001 192.56592000000003 117.60986000000001 192.15896 118.36018000000001 C 191.639 119.31953000000001 191.40516 120.39451000000001 190.95435 121.38820000000001 C 190.53943 122.30379 190.00740000000002 123.16206000000001 189.57404 124.07054000000001 C 188.63388 126.04152 187.72814 128.02498 186.73893 129.97247000000002 C 185.78562000000002 131.84791 184.79533 133.70598 183.78295 135.54982 C 182.76736 137.39780000000002 181.5443 139.21576000000002 180.80375 141.19624000000002 C 180.45427 142.12895 181.22289 142.48291 181.8531 141.80223 z" stroke-linecap="round" />
</g>
		<g transform="matrix(1 0 0 1 72.59404570095992 18.451008784039857)" id="path-01"  >
<linearGradient id="SVGID_1170622" gradientUnits="userSpaceOnUse" gradientTransform="matrix(1 0 0 1 178.4159332254502 134.56076558217995)"  x1="0" y1="0" x2="0" y2="18">
<stop offset="0%" style="stop-color:rgb(250,217,97);stop-opacity: 1"/>
<stop offset="100%" style="stop-color:rgb(247,107,28);stop-opacity: 1"/>
</linearGradient>
<path style="stroke: none; stroke-width: 1; stroke-dasharray: none; stroke-linecap: butt; stroke-dashoffset: 0; stroke-linejoin: miter; stroke-miterlimit: 4; fill: url(#SVGID_1170622); fill-rule: nonzero; opacity: 1;"  paint-order="stroke"  transform=" translate(-184.14073258797833, -143.45100240863206)" d="M 179.23494 152.30579 C 180.10173 152.06351 180.64642 151.28464 181.19119 150.61612 C 181.69899 149.99268999999998 182.19092 149.35560999999998 182.66232 148.70445 C 183.65947 147.32679000000002 184.58218 145.89737 185.43309 144.42492000000001 C 187.07361 141.58476000000002 188.41652 138.58941000000002 189.76886 135.60499000000002 C 189.91773999999998 135.27767000000003 189.93147 134.73745000000002 189.54246999999998 134.58915000000002 C 189.14708 134.43868 188.69419999999997 134.92117000000002 188.53472 135.22094 C 187.09264 137.94703 185.63045 140.66818 184.01632 143.29791 C 183.25193000000002 144.5442 182.44222000000002 145.75956 181.55384 146.92116000000001 C 181.09724 147.51813 180.62534 148.10385000000002 180.12498000000002 148.66492000000002 C 179.50949000000003 149.35561 178.85809000000003 149.95050000000003 178.52342000000002 150.83814 L 178.52342000000002 150.83806 C 178.3244 151.36752 178.32018 152.56154 179.23494 152.30579 z" stroke-linecap="round" />
</g>
		<g transform="matrix(1 0 0 1 -41.108511949429385 8.812000503937035)" id="path-01"  >
<linearGradient id="SVGID_1170623" gradientUnits="userSpaceOnUse" gradientTransform="matrix(1 0 0 1 67.80905868587284 125.71476280089604)"  x1="0" y1="0" x2="0" y2="16">
<stop offset="0%" style="stop-color:rgb(250,217,97);stop-opacity: 1"/>
<stop offset="100%" style="stop-color:rgb(247,107,28);stop-opacity: 1"/>
</linearGradient>
<path style="stroke: none; stroke-width: 1; stroke-dasharray: none; stroke-linecap: butt; stroke-dashoffset: 0; stroke-linejoin: miter; stroke-miterlimit: 4; fill: url(#SVGID_1170623); fill-rule: nonzero; opacity: 1;"  paint-order="stroke"  transform=" translate(-70.43817493758901, -133.81199412852922)" d="M 71.03084 128.95158 C 70.83348 128.3992 70.62544 127.85732 70.36787 127.33000000000001 C 70.09655 126.77704000000001 69.86693 126.18213000000002 69.37709 125.79370000000002 C 69.07095 125.55084000000002 68.56365 125.92778000000001 68.37257 126.12514000000002 C 68.05377999999999 126.45510000000002 67.79198 126.94652000000002 67.80993 127.41916000000002 C 67.85319 128.58605000000003 68.39689 129.81117000000003 68.74 130.92074000000002 C 69.09890999999999 132.08415000000002 69.40504 133.26385000000002 69.65683 134.45522000000003 C 69.89439 135.58008000000004 70.12294 136.70702000000003 70.27919 137.84670000000003 C 70.35629 138.40677000000002 70.41642 138.96975000000003 70.46605 139.53296000000003 C 70.52205 140.16161000000002 70.5041 140.80986000000004 70.72471 141.40765000000002 C 70.91892 141.93232 71.39513 142.02836000000002 71.86488 141.77499000000003 C 72.43761 141.46571000000003 72.85616 140.78843000000003 72.9713 140.16052000000002 C 73.20456 138.89082000000002 72.96071 137.5379 72.78965 136.26787000000002 C 72.61868 135.00264 72.41592999999999 133.73575000000002 72.10665999999999 132.49607 C 71.80681 131.29785 71.44575 130.11441 71.03084 128.95158 z" stroke-linecap="round" />
</g>
		<g transform="matrix(1 0 0 1 -42.80462161418139 27.20457286847747)" id="path-01"  >
<linearGradient id="SVGID_1170624" gradientUnits="userSpaceOnUse" gradientTransform="matrix(1 0 0 1 65.65185480834617 145.3101036285143)"  x1="0" y1="0" x2="0" y2="14">
<stop offset="0%" style="stop-color:rgb(250,217,97);stop-opacity: 1"/>
<stop offset="100%" style="stop-color:rgb(247,107,28);stop-opacity: 1"/>
</linearGradient>
<path style="stroke: none; stroke-width: 1; stroke-dasharray: none; stroke-linecap: butt; stroke-dashoffset: 0; stroke-linejoin: miter; stroke-miterlimit: 4; fill: url(#SVGID_1170624); fill-rule: nonzero; opacity: 1;"  paint-order="stroke"  transform=" translate(-68.74206527283701, -152.20456649306965)" d="M 67.0883 158.76465 C 67.63779000000001 158.35396 67.99041 157.70496 68.3499 157.13115 C 68.64123000000001 156.6667 68.91626000000001 156.19181999999998 69.17384 155.70784 C 69.72706 154.66925 70.23278 153.59534 70.61915 152.48337 C 71.35178 150.37914 71.90606000000001 148.14363 71.82426000000001 145.90209000000002 C 71.80788000000001 145.46296 71.50017000000001 145.19140000000002 71.07096000000001 145.36129000000003 C 70.58276000000001 145.55502 70.26810000000002 146.08820000000003 70.15884000000001 146.57938000000001 C 69.72756000000001 148.51628000000002 69.29106000000002 150.44541 68.5447 152.29024 C 68.35040000000001 152.77033 68.14352000000001 153.24619 67.93235 153.71884 C 67.8268 153.95482 67.63151 154.34169 67.43671 154.70465 C 67.19229 155.15944 66.93363000000001 155.60619 66.66025 156.04407999999998 C 66.34559 156.54708999999997 65.97825 157.01295 65.78825 157.58253 C 65.65201 157.9924 65.52215000000001 158.6208 65.90438 158.94413 C 66.28595 159.26715 66.74048 159.02463 67.0883 158.76465 z" stroke-linecap="round" />
</g>
		<g transform="matrix(1 0 0 1 -84.5995692538907 23.625468796398422)" id="path-01"  >
<linearGradient id="SVGID_1170625" gradientUnits="userSpaceOnUse" gradientTransform="matrix(1 0 0 1 20.8307653049054 140.18393033143212)"  x1="0" y1="0" x2="0" y2="17">
<stop offset="0%" style="stop-color:rgb(250,217,97);stop-opacity: 1"/>
<stop offset="100%" style="stop-color:rgb(247,107,28);stop-opacity: 1"/>
</linearGradient>
<path style="stroke: none; stroke-width: 1; stroke-dasharray: none; stroke-linecap: butt; stroke-dashoffset: 0; stroke-linejoin: miter; stroke-miterlimit: 4; fill: url(#SVGID_1170625); fill-rule: nonzero; opacity: 1;"  paint-order="stroke"  transform=" translate(-26.94711763312769, -148.62546242099063)" d="M 31.56207 153.03923 C 31.00828 152.56361 30.47046 152.06847 29.94363 151.56331 C 28.834069999999997 150.49916 27.85015 149.33128 26.93911 148.09425 C 26.05338 146.89203999999998 25.24573 145.63234999999997 24.52469 144.32507999999999 C 23.80944 143.02948999999998 23.30478 141.56151 22.4159 140.37362 C 22.11977 139.97772999999998 21.59618 140.28329 21.33851 140.54964999999999 C 20.95851 140.94261999999998 20.77215 141.44538999999997 20.847089999999998 141.98701 C 21.069349999999996 143.59321 21.847389999999997 145.08369 22.59275 146.50517 C 23.32695 147.90558 24.157259999999997 149.2556 25.07575 150.543 C 25.970499999999998 151.79666 26.95177 152.99912 27.96315 154.16071 C 28.482529999999997 154.75768 29.033089999999998 155.32512 29.60318 155.87461 C 29.90038 156.16097 30.202299999999997 156.44154999999998 30.50736 156.71922999999998 C 30.91226 157.08740999999998 31.24693 157.10899999999998 31.781609999999997 157.02899999999997 C 32.685869999999994 156.89416999999997 33.16356 155.61172999999997 33.045849999999994 154.83974999999998 C 32.91225 153.96509 32.18699 153.57607 31.56207 153.03923 z" stroke-linecap="round" />
</g>
		<g transform="matrix(1 0 0 1 -72.23283245729291 34.95046010559831)" id="path-01"  >
<linearGradient id="SVGID_1170626" gradientUnits="userSpaceOnUse" gradientTransform="matrix(1 0 0 1 36.501788305714385 157.94196309501103)"  x1="0" y1="0" x2="0" y2="4">
<stop offset="0%" style="stop-color:rgb(250,217,97);stop-opacity: 1"/>
<stop offset="100%" style="stop-color:rgb(247,107,28);stop-opacity: 1"/>
</linearGradient>
<path style="stroke: none; stroke-width: 1; stroke-dasharray: none; stroke-linecap: butt; stroke-dashoffset: 0; stroke-linejoin: miter; stroke-miterlimit: 4; fill: url(#SVGID_1170626); fill-rule: nonzero; opacity: 1;"  paint-order="stroke"  transform=" translate(-39.31385442972548, -159.9504537301905)" d="M 40.13178 161.85413 C 40.233689999999996 161.89664 40.33816 161.93122 40.44536 161.95786 C 40.64752 161.96688 40.83545 161.91964000000002 41.009570000000004 161.81566 C 41.679500000000004 161.45534 42.156110000000005 160.64298 42.124430000000004 159.88472000000002 C 42.114920000000005 159.65881000000002 42.03154000000001 159.25209 41.776030000000006 159.15044 C 41.39495000000001 158.99924000000001 40.998490000000004 158.89923000000002 40.603680000000004 158.79203 C 40.176610000000004 158.65166000000002 39.75327000000001 158.49914 39.32835000000001 158.35206000000002 C 39.073420000000006 158.26364 38.818490000000004 158.16181000000003 38.558260000000004 158.09242000000003 C 38.32177 158.02955000000003 38.07470000000001 157.99522000000005 37.83507 157.94833000000003 C 37.61546 157.90556000000004 37.30932 158.08737000000002 37.15993 158.22171000000003 C 36.95669 158.40434000000002 36.801520000000004 158.62106000000003 36.68439 158.86757000000003 C 36.5049 159.24574000000004 36.34649 159.89606000000003 36.78043 160.17424000000003 C 36.94198 160.27797000000004 37.102450000000005 160.38359000000003 37.26556 160.48567000000003 C 37.4286 160.58807000000002 37.608090000000004 160.65986000000004 37.78337 160.73936000000003 C 38.13541 160.89793000000003 38.486959999999996 161.05682000000004 38.838499999999996 161.21548000000004 C 39.19063 161.37405000000004 39.52207 161.56512000000004 39.86626 161.73858000000004 C 39.95287 161.78232 40.04096 161.81955 40.13178 161.85413 z" stroke-linecap="round" />
</g>
		<g transform="matrix(1 0 0 1 -94.18781456446929 -14.544312578283872)" id="path-01"  >
<linearGradient id="SVGID_1170627" gradientUnits="userSpaceOnUse" gradientTransform="matrix(1 0 0 1 15.935872775437142 105.0495874168293)"  x1="0" y1="0" x2="0" y2="11">
<stop offset="0%" style="stop-color:rgb(250,217,97);stop-opacity: 1"/>
<stop offset="100%" style="stop-color:rgb(247,107,28);stop-opacity: 1"/>
</linearGradient>
<path style="stroke: none; stroke-width: 1; stroke-dasharray: none; stroke-linecap: butt; stroke-dashoffset: 0; stroke-linejoin: miter; stroke-miterlimit: 4; fill: url(#SVGID_1170627); fill-rule: nonzero; opacity: 1;"  paint-order="stroke"  transform=" translate(-17.358872322549097, -110.45568104630831)" d="M 18.74575 105.49738 C 18.695050000000002 105.13897 18.31182 104.99562 18.00146 105.06766 C 17.584400000000002 105.16510000000001 17.21912 105.55627 17.02383 105.91808 C 16.23736 107.37232 16.13016 109.21824000000001 16.00823 110.83899000000001 C 15.95438 111.56326000000001 15.930150000000001 112.28984000000001 15.93701 113.01618 C 15.944370000000001 113.7818 15.948590000000001 114.57151 16.1376 115.31679000000001 C 16.214109999999998 115.62036 16.41892 115.75097000000001 16.698169999999998 115.82698 C 16.720339999999997 115.83302 16.742009999999997 115.83914 16.764179999999996 115.84493 C 17.250799999999995 115.97719000000001 17.821959999999997 115.29784000000001 18.018829999999998 114.95183 C 18.537709999999997 114.04203 18.394199999999998 113.13305 18.35673 112.14442 C 18.3277 111.39724 18.33241 110.64898 18.36939 109.9023 C 18.40529 109.17679 18.44698 108.73573999999999 18.556739999999998 107.95845 L 18.556739999999998 107.95853 C 18.67072 107.14774 18.86188 106.31321 18.74575 105.49738 z" stroke-linecap="round" />
</g>
		<g transform="matrix(1 0 0 1 77.9456110628551 35.66043184639604)" id="path-01"  >
<linearGradient id="SVGID_1170628" gradientUnits="userSpaceOnUse" gradientTransform="matrix(1 0 0 1 174.1789126085952 150.18535770574726)"  x1="0" y1="0" x2="0" y2="21">
<stop offset="0%" style="stop-color:rgb(250,217,97);stop-opacity: 1"/>
<stop offset="100%" style="stop-color:rgb(247,107,28);stop-opacity: 1"/>
</linearGradient>
<path style="stroke: none; stroke-width: 1; stroke-dasharray: none; stroke-linecap: butt; stroke-dashoffset: 0; stroke-linejoin: miter; stroke-miterlimit: 4; fill: url(#SVGID_1170628); fill-rule: nonzero; opacity: 1;"  paint-order="stroke"  transform=" translate(-189.4922979498735, -160.66042547098823)" d="M 174.86641 171.09715 C 178.17716000000001 170.18635 181.31784 169.01211 184.52246 167.76423 C 187.4843 166.61091 190.46872 165.44329 193.24743999999998 163.88746 C 195.80644999999998 162.45431 198.08835 160.63479 200.12749 158.52841 C 202.03354 156.56 204.16135 153.9751 204.75674999999998 151.23707000000002 C 205.11466 149.59175000000002 203.41018999999997 150.15447 202.85963999999998 151.04757 C 202.18194 152.14687 201.73112999999998 153.34512 200.97625 154.41035 C 200.26257999999999 155.41873999999999 199.42539 156.32797 198.51121 157.15753999999998 C 196.51905 158.96596999999997 194.00596000000002 160.32278 191.61477 161.53209999999999 C 189.04353 162.83273999999997 186.36464999999998 163.89507999999998 183.69108 164.96138 C 180.7404 166.13795 177.90263 167.36919 175.0733 168.80680999999998 C 174.41246 169.14247 173.5499 171.45953 174.86641 171.09715 z" stroke-linecap="round" />
</g>
		<g transform="matrix(1 0 0 1 -61.34193810081494 -80.74552906478542)" id="path-01"  >
<linearGradient id="SVGID_1170629" gradientUnits="userSpaceOnUse" gradientTransform="matrix(1 0 0 1 47.005036895515914 39.60485746856844)"  x1="0" y1="0" x2="0" y2="9">
<stop offset="0%" style="stop-color:rgb(250,217,97);stop-opacity: 1"/>
<stop offset="100%" style="stop-color:rgb(247,107,28);stop-opacity: 1"/>
</linearGradient>
<path style="stroke: none; stroke-width: 1; stroke-dasharray: none; stroke-linecap: butt; stroke-dashoffset: 0; stroke-linejoin: miter; stroke-miterlimit: 4; fill: url(#SVGID_1170629); fill-rule: nonzero; opacity: 1;"  paint-order="stroke"  transform=" translate(-50.20474878620345, -44.25446455980678)" d="M 47.11847 48.50933 C 47.42304 49.16594 48.13564 48.87825 48.579 48.54391 C 48.913180000000004 48.29262 49.2146 47.91625 49.49542 47.600609999999996 C 49.70602 47.364369999999994 49.90975 47.122339999999994 50.10661 46.87502 C 50.595380000000006 46.26167 51.04677 45.61483 51.464240000000004 44.95185 C 52.270810000000004 43.67148 52.98449 42.26578 53.36565 40.79839 C 53.502300000000005 40.27421 53.28219 39.55052 52.6403 39.60809 C 51.913470000000004 39.673269999999995 51.46531 40.39928 51.187630000000006 40.989959999999996 C 51.188210000000005 40.988139999999994 51.189280000000004 40.98656999999999 51.189780000000006 40.98549 C 51.18871000000001 40.98764 51.187630000000006 40.98946 51.186640000000004 40.99161 C 51.186640000000004 40.99186 51.186640000000004 40.99235 51.186060000000005 40.9926 C 51.186060000000005 40.99235 51.186640000000004 40.9921 51.186640000000004 40.99186 C 51.116910000000004 41.13777 51.04511 41.283190000000005 50.98283000000001 41.43258 C 50.928490000000004 41.56244 50.877280000000006 41.69339 50.82137000000001 41.82267 C 50.76330000000001 41.9594 50.702090000000005 42.09481 50.64088000000001 42.23046 C 50.62608000000001 42.26156 50.61127000000001 42.29217 50.59547000000001 42.32286 C 50.32201000000001 42.87284 50.01794000000001 43.40786 49.68649000000001 43.925419999999995 C 49.62098000000001 44.02806999999999 49.552410000000016 44.129149999999996 49.485320000000016 44.230729999999994 C 49.45108000000002 44.279039999999995 49.41725000000002 44.32733999999999 49.38242000000002 44.37514999999999 C 49.20714000000002 44.61634999999999 49.02558000000002 44.85308999999999 48.838720000000016 45.08485999999999 C 48.650790000000015 45.31654999999999 48.45764000000002 45.543519999999994 48.258130000000016 45.76519999999999 C 48.16416000000002 45.86950999999999 48.06804000000002 45.971909999999994 47.972510000000014 46.07455999999999 C 47.888550000000016 46.164559999999994 47.89384000000001 46.16083999999999 47.918160000000015 46.13601999999999 C 47.812610000000014 46.24131999999999 47.703840000000014 46.344799999999985 47.61302000000001 46.463329999999985 C 47.1992 47.00521 46.80439 47.83205 47.11847 48.50933 z" stroke-linecap="round" />
</g>
		<g transform="matrix(1 0 0 1 -60.313641850866375 -84.10620076114031)" id="path-01"  >
<linearGradient id="SVGID_1170630" gradientUnits="userSpaceOnUse" gradientTransform="matrix(1 0 0 1 51.18987 40.80209572690376)"  x1="0" y1="0" x2="0" y2="9">
<stop offset="0%" style="stop-color:rgb(250,217,97);stop-opacity: 1"/>
<stop offset="100%" style="stop-color:rgb(247,107,28);stop-opacity: 1"/>
</linearGradient>
<path style="stroke: none; stroke-width: 1; stroke-dasharray: none; stroke-linecap: butt; stroke-dashoffset: 0; stroke-linejoin: miter; stroke-miterlimit: 4; fill: url(#SVGID_1170630); fill-rule: nonzero; opacity: 1;"  paint-order="stroke"  transform=" translate(-51.23304503615202, -40.89379286345188)" d="M 51.18987 40.98549 C 51.22469 40.911629999999995 51.33338 40.68275 51.23785 40.88102 C 51.22155 40.91559 51.20617 40.95091 51.18987 40.98549 z" stroke-linecap="round" />
</g>
		<g transform="matrix(1 0 0 1 -93.14571089644676 -61.72927292025348)" id="path-01"  >
<linearGradient id="SVGID_1170631" gradientUnits="userSpaceOnUse" gradientTransform="matrix(1 0 0 1 7.202250674760876 45.38955334090082)"  x1="0" y1="0" x2="0" y2="36">
<stop offset="0%" style="stop-color:rgb(250,217,97);stop-opacity: 1"/>
<stop offset="100%" style="stop-color:rgb(247,107,28);stop-opacity: 1"/>
</linearGradient>
<path style="stroke: none; stroke-width: 1; stroke-dasharray: none; stroke-linecap: butt; stroke-dashoffset: 0; stroke-linejoin: miter; stroke-miterlimit: 4; fill: url(#SVGID_1170631); fill-rule: nonzero; opacity: 1;"  paint-order="stroke"  transform=" translate(-18.400975990571634, -63.270720704338714)" d="M 23.20816 54.97415 L 23.20824 54.97423 C 25.27955 52.28982 27.52813 49.669019999999996 29.35774 46.81115 C 30.01857 45.778929999999995 29.21629 44.812459999999994 28.26819 45.80531 C 25.7282 48.46656 23.58559 51.5701 21.29044 54.44318 C 18.92093 57.40999 16.502290000000002 60.3375 14.14172 63.31192 C 12.16231 65.80526 10.24245 68.35161 8.97721 71.29418 C 7.895109999999999 73.81151 6.611339999999999 77.82715999999999 7.499219999999999 80.54639999999999 C 8.047139999999999 82.22662 9.81546 79.95918999999999 9.96534 79.17717999999999 C 10.2546 77.66776999999999 10.13003 76.12483999999999 10.431949999999999 74.60351999999999 C 10.739159999999998 73.05373999999999 11.28286 71.56788999999999 12.0293 70.17593 C 13.443919999999999 67.53792 15.418619999999999 65.21879 17.2355 62.85614999999999 C 19.24503 60.24297 21.19392 57.58387 23.20816 54.97415 z" stroke-linecap="round" />
</g>
		<g transform="matrix(1 0 0 1 -2.421059787394128 -31.09116096621233)" id="path-01"  >
<linearGradient id="SVGID_1170632" gradientUnits="userSpaceOnUse" gradientTransform="matrix(1 0 0 1 106.41359086990464 89.31645538262124)"  x1="0" y1="0" x2="0" y2="9">
<stop offset="0%" style="stop-color:rgb(250,217,97);stop-opacity: 1"/>
<stop offset="100%" style="stop-color:rgb(247,107,28);stop-opacity: 1"/>
</linearGradient>
<path style="stroke: none; stroke-width: 1; stroke-dasharray: none; stroke-linecap: butt; stroke-dashoffset: 0; stroke-linejoin: miter; stroke-miterlimit: 4; fill: url(#SVGID_1170632); fill-rule: nonzero; opacity: 1;"  paint-order="stroke"  transform=" translate(-109.12562709962427, -93.90883265837986)" d="M 107.16158 98.49746 C 107.83084 98.43757000000001 108.44005 97.70702 108.62584 97.10343 C 108.66802 96.96753 108.71343 96.83286 108.75619999999999 96.69745 C 108.80525999999999 96.54228 108.85125 96.37180000000001 108.89186 96.20686 C 108.97582 95.9329 109.06076999999999 95.66027000000001 109.15844999999999 95.39103 C 109.26028 95.11078 109.37061999999999 94.83368 109.48940999999999 94.56022 C 109.50627999999999 94.52168 109.56219999999999 94.39926 109.59867999999999 94.32001 C 109.60024999999999 94.31769 109.60239999999999 94.3124 109.60338999999999 94.31025 C 109.64242999999999 94.23216 109.68253999999999 94.15399 109.72274999999999 94.07641 C 109.85252999999999 93.82834 109.98983999999999 93.58390999999999 110.13443 93.34402999999999 C 110.21574 93.20886999999999 110.29911999999999 93.07535999999999 110.38463999999999 92.94309999999999 C 110.40574 92.91067999999999 110.42739999999999 92.87849999999999 110.44908 92.84623999999998 C 110.97797 92.12965999999999 111.71274 91.40439999999998 111.82200999999999 90.49467999999997 C 111.86998999999999 90.09664999999997 111.84046 89.31777999999997 111.25134999999999 89.31645999999998 C 110.21680999999998 89.31380999999998 109.54432999999999 90.45240999999997 109.01642999999999 91.21753999999997 C 108.61318999999999 91.80193999999997 108.23946999999998 92.40105999999997 107.91852999999999 93.03465999999997 C 107.25025999999998 94.35407999999997 106.61788999999999 95.82122999999997 106.43102999999999 97.29896999999997 C 106.36452 97.82712 106.46378 98.55999 107.16158 98.49746 z" stroke-linecap="round" />
</g>
		<g transform="matrix(1 0 0 1 -73.8308218218995 -51.0480380430168)" id="path-01"  >
<linearGradient id="SVGID_1170633" gradientUnits="userSpaceOnUse" gradientTransform="matrix(1 0 0 1 33.757290749248654 71.08107444827777)"  x1="0" y1="0" x2="0" y2="6">
<stop offset="0%" style="stop-color:rgb(250,217,97);stop-opacity: 1"/>
<stop offset="100%" style="stop-color:rgb(247,107,28);stop-opacity: 1"/>
</linearGradient>
<path style="stroke: none; stroke-width: 1; stroke-dasharray: none; stroke-linecap: butt; stroke-dashoffset: 0; stroke-linejoin: miter; stroke-miterlimit: 4; fill: url(#SVGID_1170633); fill-rule: nonzero; opacity: 1;"  paint-order="stroke"  transform=" translate(-37.71586506511889, -73.95195558157539)" d="M 34.6278 76.78254 C 35.63388 76.44762 36.59993 75.99549 37.57376 75.57744 C 38.49175 75.18337 39.42074 74.80808999999999 40.3255 74.3845 C 40.7151 74.2021 41.08137 73.74443000000001 41.28832 73.38635000000001 C 41.49941 73.01999 41.70108 72.48920000000001 41.671549999999996 72.05378 C 41.649879999999996 71.73491 41.57543 71.32397 41.25085 71.16722 C 40.9156 71.00542 40.5968 71.09434 40.27272 71.24638 C 39.36159 71.67320000000001 38.47164 72.14874 37.57433 72.60401 C 36.66742 73.06433 35.74794 73.50165 34.87693 74.02633 C 34.261520000000004 74.3969 33.826010000000004 75.09313 33.76215 75.80706 C 33.71725 76.30534 33.98178 76.9976 34.6278 76.78254 z" stroke-linecap="round" />
</g>
		<g transform="matrix(1 0 0 1 83.54669092529605 -36.755967332423964)" id="path-01"  >
<linearGradient id="SVGID_1170634" gradientUnits="userSpaceOnUse" gradientTransform="matrix(1 0 0 1 192.55725273979857 83.00745283509197)"  x1="0" y1="0" x2="0" y2="10">
<stop offset="0%" style="stop-color:rgb(250,217,97);stop-opacity: 1"/>
<stop offset="100%" style="stop-color:rgb(247,107,28);stop-opacity: 1"/>
</linearGradient>
<path style="stroke: none; stroke-width: 1; stroke-dasharray: none; stroke-linecap: butt; stroke-dashoffset: 0; stroke-linejoin: miter; stroke-miterlimit: 4; fill: url(#SVGID_1170634); fill-rule: nonzero; opacity: 1;"  paint-order="stroke"  transform=" translate(-195.09337781231443, -88.24402629216823)" d="M 193.32658 87.47932 C 193.55935 88.06545 193.77583 88.65828 193.97583 89.25632 C 194.37593 90.45349 194.70854 91.67198 194.97829000000002 92.90513 C 195.16457000000003 93.75836 196.17388000000003 93.52352 196.65206 93.09273 C 196.74396000000002 93.00994 196.82262 92.90537 196.9065 92.80876 C 196.92925 92.79561000000001 196.97200999999998 92.74044 197.00999 92.69395 C 197.06491 92.6243 197.11453999999998 92.55515 197.16409 92.48046000000001 C 197.20212999999998 92.42396000000001 197.21479 92.41975000000001 197.26021 92.34795000000001 C 197.28081 92.31288 197.28395 92.27119000000002 197.30298 92.23554000000001 C 197.41754 92.02279000000001 197.50198999999998 91.80111000000001 197.55583 91.56885000000001 C 197.56634 91.52716000000001 197.59273 91.49150000000002 197.60116 91.44908000000001 C 197.60331 91.43584000000001 197.59645 91.42451000000001 197.59851999999998 91.4116 C 197.63813 91.16271 197.64499999999998 90.91091 197.58800999999997 90.66252 C 197.57262999999998 90.70032 197.56740999999997 90.71828000000001 197.55260999999996 90.75516 C 197.53357999999997 90.63903 197.55574999999996 90.52033 197.52729999999997 90.40047 C 197.44491999999997 90.05099 197.35731999999996 89.70317 197.26441999999997 89.35667 C 197.08385999999996 88.68517 196.88326999999998 88.01905 196.66207999999997 87.35979999999999 C 196.44097999999997 86.70021999999999 196.20026999999996 86.0475 195.93946999999997 85.40271999999999 C 195.66021999999998 84.71227999999999 195.39899999999997 83.90073999999998 194.96505999999997 83.29450999999999 C 194.53220999999996 82.68927 193.72778999999997 83.16993999999998 193.34985999999998 83.55861999999999 C 192.83461999999997 84.0876 192.40076 84.95934999999999 192.61184999999998 85.71471999999999 C 192.78181 86.31938 193.0954 86.89501 193.32658 87.47932 z" stroke-linecap="round" />
</g>
		<g transform="matrix(1 0 0 1 -45.485260685666304 112.73481123223574)" id="path-01"  >
<linearGradient id="SVGID_1170635" gradientUnits="userSpaceOnUse" gradientTransform="matrix(1 0 0 1 60.97750132041645 231.02409848002992)"  x1="0" y1="0" x2="0" y2="13">
<stop offset="0%" style="stop-color:rgb(250,217,97);stop-opacity: 1"/>
<stop offset="100%" style="stop-color:rgb(247,107,28);stop-opacity: 1"/>
</linearGradient>
<path style="stroke: none; stroke-width: 1; stroke-dasharray: none; stroke-linecap: butt; stroke-dashoffset: 0; stroke-linejoin: miter; stroke-miterlimit: 4; fill: url(#SVGID_1170635); fill-rule: nonzero; opacity: 1;"  paint-order="stroke"  transform=" translate(-66.06142620135209, -237.73480485682794)" d="M 63.15735 241.10458 C 64.01934 242.03332 64.96372 242.99086 66.10389 243.56466 C 66.68291 243.856 67.29791 244.08776 67.92656000000001 244.24584000000002 C 68.61964 244.42003000000003 69.45574 244.61136000000002 70.08390000000001 244.19860000000003 C 70.75001000000002 243.76128000000003 71.48165000000002 242.67173000000003 70.97807000000002 241.86805000000004 C 70.66458000000002 241.36688000000004 69.94560000000001 241.43917000000005 69.42622000000001 241.27241000000004 C 68.87351000000001 241.09449000000004 68.34089000000002 240.85089000000005 67.83789000000002 240.56163000000004 C 66.86448000000001 240.00131000000005 65.90331000000002 239.39409000000003 65.11047000000002 238.59280000000004 C 64.30597000000002 237.78012000000004 63.47879000000002 236.90339000000003 63.32842000000002 235.72625000000005 C 63.146860000000025 234.29813000000004 63.11517000000002 232.86184000000006 62.906150000000025 231.43398000000005 C 62.82269000000002 230.86654000000004 62.15020000000003 230.98557000000005 61.826120000000024 231.21254000000005 C 61.32891000000002 231.56012000000004 61.00689000000003 232.17513000000005 60.99366000000003 232.78085000000004 C 60.96206000000003 234.29234000000005 60.960410000000024 235.84874000000005 61.14412000000003 237.35203000000004 C 61.3289 238.86487 62.14391 240.01222 63.15735 241.10458 z" stroke-linecap="round" />
</g>
		<g transform="matrix(1 0 0 1 -65.86394320703826 67.63366699812978)" id="path-01"  >
<linearGradient id="SVGID_1170636" gradientUnits="userSpaceOnUse" gradientTransform="matrix(1 0 0 1 38.945503529499746 180.8488980443707)"  x1="0" y1="0" x2="0" y2="24">
<stop offset="0%" style="stop-color:rgb(250,217,97);stop-opacity: 1"/>
<stop offset="100%" style="stop-color:rgb(247,107,28);stop-opacity: 1"/>
</linearGradient>
<path style="stroke: none; stroke-width: 1; stroke-dasharray: none; stroke-linecap: butt; stroke-dashoffset: 0; stroke-linejoin: miter; stroke-miterlimit: 4; fill: url(#SVGID_1170636); fill-rule: nonzero; opacity: 1;"  paint-order="stroke"  transform=" translate(-45.68274367998014, -192.63366062272198)" d="M 41.50629 183.97261 C 42.30236 184.38272 43.02282 184.95967000000002 43.63724 185.60686 C 44.99496 187.03472000000002 45.87961 188.82967000000002 46.53572 190.67186 C 47.277359999999994 192.75533000000001 47.69227 194.92723 48.14093 197.08722 C 48.623419999999996 199.40817 49.226169999999996 201.6526 50.016949999999994 203.88753 C 50.60077 205.53476 53.050999999999995 202.94745 52.2666 201.5737 C 49.9124 197.45059 50.280319999999996 192.28658000000001 48.333079999999995 187.98456 C 47.53122 186.21442 46.432739999999995 184.57247999999998 45.017039999999994 183.23096999999999 C 43.93494 182.20586999999998 41.628209999999996 180.3578 40.035169999999994 180.97065999999998 C 39.467729999999996 181.18919999999997 38.574549999999995 182.27659999999997 39.11039999999999 182.90847 C 39.67097 183.56953 40.74091 183.57831 41.50629 183.97261 z" stroke-linecap="round" />
</g>
		<g transform="matrix(1 0 0 1 1.894643843033954 112.4566811930381)" id="path-01"  >
<linearGradient id="SVGID_1170637" gradientUnits="userSpaceOnUse" gradientTransform="matrix(1 0 0 1 105.45213970734906 230.7625925563953)"  x1="0" y1="0" x2="0" y2="13">
<stop offset="0%" style="stop-color:rgb(250,217,97);stop-opacity: 1"/>
<stop offset="100%" style="stop-color:rgb(247,107,28);stop-opacity: 1"/>
</linearGradient>
<path style="stroke: none; stroke-width: 1; stroke-dasharray: none; stroke-linecap: butt; stroke-dashoffset: 0; stroke-linejoin: miter; stroke-miterlimit: 4; fill: url(#SVGID_1170637); fill-rule: nonzero; opacity: 1;"  paint-order="stroke"  transform=" translate(-113.44133073005236, -237.4566748176303)" d="M 110.4274 244.11673 C 112.17091 244.01888 113.80093000000001 243.55516 115.20182000000001 242.48199 C 116.78064 241.27349 117.66901000000001 239.44313 118.47774000000001 237.68084 C 119.26422000000001 235.96538999999999 120.17162000000002 234.31741 121.10375 232.67705999999998 C 121.36927 232.20937999999998 121.65117000000001 231.34846 121.16761000000001 230.92113999999998 C 120.71052000000002 230.51682999999997 119.98790000000001 230.96497999999997 119.70021000000001 231.38146999999998 C 118.63714000000002 232.92148999999998 117.72816000000002 234.52353999999997 116.92109 236.21187999999998 C 116.32719 237.45361999999997 115.83841000000001 238.98015999999998 114.77425000000001 239.90237 C 113.79248000000001 240.75377999999998 112.41740000000001 241.03012999999999 111.15109000000001 241.07447 C 109.59601 241.12882 107.95491000000001 240.73003 106.43945000000001 241.2064 C 105.75638000000001 241.42097 105.07123000000001 242.5762 105.70046 243.15447 C 106.85486 244.21515 108.95943 244.19911 110.4274 244.11673 z" stroke-linecap="round" />
</g>
		<g transform="matrix(1 0 0 1 -13.936902573613438 -115.05628270249386)" id="path-01"  >
<linearGradient id="SVGID_1170638" gradientUnits="userSpaceOnUse" gradientTransform="matrix(1 0 0 1 84.86561811897343 6.8949329742930505)"  x1="0" y1="0" x2="0" y2="6">
<stop offset="0%" style="stop-color:rgb(250,217,97);stop-opacity: 1"/>
<stop offset="100%" style="stop-color:rgb(247,107,28);stop-opacity: 1"/>
</linearGradient>
<path style="stroke: none; stroke-width: 1; stroke-dasharray: none; stroke-linecap: butt; stroke-dashoffset: 0; stroke-linejoin: miter; stroke-miterlimit: 4; fill: url(#SVGID_1170638); fill-rule: nonzero; opacity: 1;"  paint-order="stroke"  transform=" translate(-97.60978431340496, -9.943710922098328)" d="M 106.44417 9.80188 C 107.49832 9.69551 108.51606 9.71958 109.4688 9.22129 C 109.98768 8.95023 110.7974 7.624269999999999 110.05419 7.1843 C 109.23918 6.70181 108.14707 6.9541 107.23231000000001 7.01696 C 106.23152000000002 7.08553 105.23171 7.16924 104.23357000000001 7.2661 C 102.25515000000001 7.45792 100.28467000000002 7.75223 98.32205000000002 8.06258 C 96.35422000000001 8.373510000000001 94.38638000000002 8.70132 92.43277000000002 9.088270000000001 C 90.33036000000001 9.505 88.12711000000002 9.842570000000002 86.08061000000002 10.478330000000001 C 85.49679000000002 10.659400000000002 85.07610000000003 11.236100000000002 84.92142000000003 11.806180000000001 C 84.83010000000003 12.142090000000001 84.77832000000002 13.034770000000002 85.36958000000003 12.99093 C 87.40078000000003 12.83972 89.43776000000003 12.346400000000001 91.44622000000003 12.008090000000001 C 93.40777000000003 11.67764 95.36295000000003 11.311860000000001 97.32764000000003 11.000100000000002 C 99.29332000000004 10.688180000000001 101.26438000000003 10.427120000000002 103.23859000000003 10.177980000000002 C 104.30585 10.04342 105.37315 9.91008 106.44417 9.80188 z" stroke-linecap="round" />
</g>
		<g transform="matrix(1 0 0 1 -38.01324064501227 -92.12902989717388)" id="path-01"  >
<linearGradient id="SVGID_1170639" gradientUnits="userSpaceOnUse" gradientTransform="matrix(1 0 0 1 72.1498869499919 27.264181687127902)"  x1="0" y1="0" x2="0" y2="11">
<stop offset="0%" style="stop-color:rgb(250,217,97);stop-opacity: 1"/>
<stop offset="100%" style="stop-color:rgb(247,107,28);stop-opacity: 1"/>
</linearGradient>
<path style="stroke: none; stroke-width: 1; stroke-dasharray: none; stroke-linecap: butt; stroke-dashoffset: 0; stroke-linejoin: miter; stroke-miterlimit: 4; fill: url(#SVGID_1170639); fill-rule: nonzero; opacity: 1;"  paint-order="stroke"  transform=" translate(-73.53344624200614, -32.870963727418314)" d="M 74.53481 27.68594 C 74.41544999999999 27.294279999999997 74.05968 27.17971 73.69547999999999 27.324299999999997 C 73.21885999999999 27.513059999999996 72.92589 27.970149999999997 72.72529999999999 28.418069999999997 C 72.35687999999999 29.239939999999997 72.29987999999999 30.212199999999996 72.23329999999999 31.099829999999997 C 72.17787999999999 31.838329999999996 72.15098999999998 32.578889999999994 72.14991999999998 33.319449999999996 C 72.14883999999998 34.05927 72.17422999999998 34.799009999999996 72.22593999999998 35.537009999999995 C 72.28292999999998 36.342259999999996 72.33205999999998 37.182579999999994 72.54058999999998 37.96433999999999 C 72.71999999999998 38.63417999999999 73.42416999999998 38.56130999999999 73.88134999999998 38.239619999999995 C 74.46458999999999 37.829429999999995 74.95393999999999 37.025499999999994 74.91480999999999 36.292379999999994 C 74.87733999999999 35.58398999999999 74.74913 34.88056999999999 74.68046999999999 34.17457999999999 C 74.60974999999999 33.44749999999999 74.56540999999999 32.71792999999999 74.54852999999999 31.98795999999999 C 74.53165999999999 31.28535999999999 74.53951999999998 30.58226999999999 74.57226999999999 29.88049999999999 C 74.60553 29.17765 74.74226 28.36843 74.53481 27.68594 z" stroke-linecap="round" />
</g>
		<g transform="matrix(1 0 0 1 1.1701968983792739 80.12600724094989)" id="path-01"  >
<linearGradient id="SVGID_1170640" gradientUnits="userSpaceOnUse" gradientTransform="matrix(1 0 0 1 108.7897325524583 199.5791337076986)"  x1="0" y1="0" x2="0" y2="11">
<stop offset="0%" style="stop-color:rgb(250,217,97);stop-opacity: 1"/>
<stop offset="100%" style="stop-color:rgb(247,107,28);stop-opacity: 1"/>
</linearGradient>
<path style="stroke: none; stroke-width: 1; stroke-dasharray: none; stroke-linecap: butt; stroke-dashoffset: 0; stroke-linejoin: miter; stroke-miterlimit: 4; fill: url(#SVGID_1170640); fill-rule: nonzero; opacity: 1;"  paint-order="stroke"  transform=" translate(-112.71688378539767, -205.1260008655421)" d="M 108.79366 200.97879 C 108.75039 202.00497000000001 109.07026 202.87856 109.47673 203.80258 C 109.84093 204.63264 110.20513 205.46081 110.59945 206.27739 C 110.96629 207.03806 111.31999 207.80689999999998 111.70429 208.55881 C 112.03467 209.2054 112.42318 209.82354999999998 113.03396 210.24317 C 113.71852999999999 210.71325 114.64761 210.81963 115.39818 210.45254 C 116.08225 210.11760999999998 116.58061 209.35116 116.63868 208.59156 C 116.66242 208.27856999999997 116.61543999999999 207.93197999999998 116.32982 207.74703 C 115.679 207.32575 115.85006 207.66678 115.53441 207.69633 C 115.44623999999999 207.70477 115.41189999999999 207.70955999999998 115.39504 207.71320999999998 L 115.39289 207.71320999999998 C 114.05005999999999 207.68341999999998 113.52216 205.74247999999997 113.07665 204.73505999999998 C 112.65438 203.78068 112.22053 202.83530999999996 111.76442 201.89654 C 111.35431 201.05249999999998 110.98953 200.05641999999997 110.08585000000001 199.63837999999998 L 110.08585000000001 199.6383 C 109.37533 199.30974 108.8169 200.43195 108.79366 200.97879 z" stroke-linecap="round" />
</g>
		<g transform="matrix(1 0 0 1 16.455892345792037 70.28874852317254)" id="path-01"  >
<linearGradient id="SVGID_1170641" gradientUnits="userSpaceOnUse" gradientTransform="matrix(1 0 0 1 122.02705274948065 188.74075816260176)"  x1="0" y1="0" x2="0" y2="13">
<stop offset="0%" style="stop-color:rgb(250,217,97);stop-opacity: 1"/>
<stop offset="100%" style="stop-color:rgb(247,107,28);stop-opacity: 1"/>
</linearGradient>
<path style="stroke: none; stroke-width: 1; stroke-dasharray: none; stroke-linecap: butt; stroke-dashoffset: 0; stroke-linejoin: miter; stroke-miterlimit: 4; fill: url(#SVGID_1170641); fill-rule: nonzero; opacity: 1;"  paint-order="stroke"  transform=" translate(-128.00257923281043, -195.28874214776474)" d="M 123.08954 201.59537 L 123.08962 201.59537 C 124.05342999999999 200.79831000000001 124.90805999999999 199.8225 125.77848999999999 198.92461 C 126.62881999999999 198.04706 127.48237999999999 197.17241 128.34014 196.30199 C 129.20586 195.42310999999998 130.07470999999998 194.54739999999998 130.94672 193.67489999999998 C 131.98812 192.63259 133.22863 191.65264 133.86414 190.30692 C 134.09063 189.8284 134.04255999999998 188.44959 133.13201999999998 188.79592 C 132.37241999999998 189.08494 131.90846 189.64385 131.36840999999998 190.22428 C 130.94142 190.68294 130.51592999999997 191.14252 130.09051999999997 191.60276 C 129.21743999999998 192.54896 128.34699999999998 193.49854 127.48079999999997 194.45161 C 126.63724999999998 195.37879999999998 125.79692999999997 196.30859999999998 124.96024999999997 197.24132999999998 C 124.10247999999997 198.19753999999998 123.18613999999998 199.15241999999998 122.44077999999998 200.1992 C 122.18269999999997 200.56183 121.87755999999997 201.12215999999998 122.10933999999997 201.57214 C 122.32465 201.99042 122.78605 201.84633 123.08954 201.59537 z" stroke-linecap="round" />
</g>
		<g transform="matrix(1 0 0 1 72.84427994547134 -52.801045006280866)" id="path-01"  >
<linearGradient id="SVGID_1170642" gradientUnits="userSpaceOnUse" gradientTransform="matrix(1 0 0 1 177.20769514742508 64.84392292204757)"  x1="0" y1="0" x2="0" y2="15">
<stop offset="0%" style="stop-color:rgb(250,217,97);stop-opacity: 1"/>
<stop offset="100%" style="stop-color:rgb(247,107,28);stop-opacity: 1"/>
</linearGradient>
<path style="stroke: none; stroke-width: 1; stroke-dasharray: none; stroke-linecap: butt; stroke-dashoffset: 0; stroke-linejoin: miter; stroke-miterlimit: 4; fill: url(#SVGID_1170642); fill-rule: nonzero; opacity: 1;"  paint-order="stroke"  transform=" translate(-184.39096683248974, -72.19894861831133)" d="M 177.38432 66.91772 C 177.67192 67.18721000000001 177.74852 67.52949000000001 178.01346 67.8037 C 178.26898 68.06848000000001 178.57147 68.28834 178.85594 68.51978000000001 C 179.40178 68.96339000000002 179.93912 69.41742 180.46800000000002 69.88163000000002 C 181.50528000000003 70.79301000000001 182.50656 71.74706000000002 183.46409000000003 72.74132000000002 C 185.40768000000003 74.75820000000002 187.22770000000003 76.93721000000002 188.87989000000002 79.19779000000001 C 189.91558 80.61481 192.31098000000003 77.42946 191.35238 76.18764000000002 C 189.61367 73.93634000000002 187.72019 71.86586000000001 185.62730000000002 69.94260000000001 C 184.58003000000002 68.98011000000001 183.51214000000002 68.04342000000001 182.39993 67.15637000000001 C 181.85417 66.72136 181.30046000000002 66.29694 180.73881 65.88344000000001 C 180.45907 65.67731 180.18031 65.46109000000001 179.88575 65.27721000000001 C 179.51527000000002 65.04544000000001 179.13783 65.10483 178.77148 64.90953000000002 C 177.9554 64.47402 176.75294 66.32738 177.38432 66.91772 z" stroke-linecap="round" />
</g>
		<g transform="matrix(1 0 0 1 0 0)" id="path-01"  >
<linearGradient id="SVGID_1170643" gradientUnits="userSpaceOnUse" gradientTransform="matrix(1 0 0 1 0.00000306159125784689 -0.00000885100469361078)"  x1="0" y1="0" x2="0" y2="250">
<stop offset="0%" style="stop-color:rgb(250,217,97);stop-opacity: 1"/>
<stop offset="100%" style="stop-color:rgb(247,107,28);stop-opacity: 1"/>
</linearGradient>
<path style="stroke: none; stroke-width: 1; stroke-dasharray: none; stroke-linecap: butt; stroke-dashoffset: 0; stroke-linejoin: miter; stroke-miterlimit: 4; fill: url(#SVGID_1170643); fill-rule: nonzero; opacity: 1;"  paint-order="stroke"  transform=" translate(-111.5466868870184, -124.9999936245922)" d="M 220.16277 114.73536 C 220.09891 117.07559 223.01004 114.64247 223.05282 113.13065 C 223.48508999999999 97.93217 220.41299 82.91781 216.14894 68.40075 C 212.42651 55.7277 208.29919 42.54717 198.77243 32.94333 C 189.2141 23.307640000000003 177.23329 14.890950000000004 165.03619 8.972890000000003 C 152.41987 2.8515900000000034 138.59747000000002 -0.019429999999996284 124.60402 0.00009000000000369823 C 116.64185 0.011170000000003698 108.68913 0.8449600000000037 100.84889000000001 2.2057400000000036 C 92.77482 3.6074600000000037 84.45109000000001 5.301340000000003 76.79615000000001 8.271370000000003 C 75.91985000000001 8.611250000000004 74.6958 11.167700000000004 76.18801 11.002520000000002 C 77.44961 13.755500000000001 78.50210000000001 16.58641 79.45335 19.45238 C 74.79233 19.32731 70.13248 19.251790000000003 65.46939 19.177100000000003 C 64.36091 19.159150000000004 63.675180000000005 20.388240000000003 63.43605 21.30383 C 62.816340000000004 23.67706 62.39729 26.09305 62.1967 28.538330000000002 C 62.13383 29.310080000000003 62.13019 30.084970000000002 62.11324 30.85904 C 61.713139999999996 30.64737 61.315189999999994 30.43255 60.91401 30.222450000000002 C 58.19866 28.798890000000004 55.483399999999996 27.375500000000002 52.768139999999995 25.951860000000003 C 51.82375999999999 25.457050000000002 50.41806999999999 24.331110000000002 49.28113 24.574460000000002 C 47.980489999999996 24.852890000000002 47.20717 26.348570000000002 46.52252 27.332990000000002 C 45.46895 28.847450000000002 44.29181 30.36473 43.24453 31.94197 C 43.34429 30.783350000000002 43.37969 29.628130000000002 43.51799 28.465790000000002 C 43.775569999999995 26.300760000000004 41.61244 27.433320000000002 41.13525 28.809400000000004 C 35.02322 34.071600000000004 28.98819 39.42727000000001 23.19396 45.03837 C 17.89536 50.169380000000004 12.47377 55.39378 8.09995 61.35725 C 4.04489 66.88629 0.99024 73.12447 0.21899 80.0051 C -0.5564 86.92156 0.84607 93.82801 2.56269 100.50011 C 4.43763 107.78846 6.71483 115.10353 7.39782 122.62911000000001 C 7.74622 126.46908 7.31287 130.32741000000001 7.64804 134.162 C 7.93308 137.43263000000002 8.88433 140.51689000000002 10.30524 143.4707 C 13.51465 150.14545999999999 18.61374 155.66316999999998 22.55048 161.89109 C 24.67829 165.25799999999998 26.4883 168.77875 27.631610000000002 172.60574 C 28.552170000000004 175.68918 29.13391 178.88586 30.585510000000003 181.78674 C 32.43878 185.49048000000002 35.95375 187.15846000000002 38.46744 190.26646 C 40.815360000000005 193.17048 41.703160000000004 196.87149 42.644890000000004 200.40416 C 44.243230000000004 206.40171999999998 46.83814 213.39840999999998 53.51182 214.87430999999998 C 54.84464 221.61872999999997 55.41001 228.24069999999998 55.40736 235.14029 C 55.405289999999994 239.90493999999998 56.039229999999996 245.18427 60.62994 247.74492999999998 C 66.09116 250.79115 73.64006 249.87082999999998 79.63067 249.86505 C 86.90769 249.85793999999999 94.18578 249.88962 101.46279 249.90567 C 104.83259 249.9131 108.20877 249.97408 111.57857 249.92816 C 114.21211 249.89226 116.36523 249.41953999999998 118.30767 247.53194 C 120.04861 245.84014 121.14759000000001 243.60784999999998 122.37585 241.54688 C 123.95839 238.89016999999998 125.64598 236.29625 127.45442 233.78736999999998 C 134.38038 224.17533999999998 142.79808 215.70040999999998 152.347 208.6881 C 157.79134000000002 204.68956 163.77135 201.87876 169.45532 198.32152 C 171.97166 196.74668 173.31978 194.53366 173.87613 191.6523 C 174.63836999999998 187.70604 175.00306999999998 183.63629 175.54411 179.65256 C 179.8018 178.62166 183.84623 176.76946999999998 187.85635 175.04813 C 191.65322999999998 173.41860999999997 195.21626 171.46318 198.4552 168.88406999999998 C 204.77469 163.85148999999998 209.58137 157.06275 213.06307999999999 149.82502999999997 C 217.67702999999997 140.23258999999996 220.24721 129.61686999999998 222.24878999999999 119.20703999999998 C 222.74707999999998 116.61716999999997 219.84918 118.32709999999997 219.47016 119.91276999999998 C 215.43473 136.81580999999997 211.44886 155.55514 196.58083 166.50743999999997 C 189.36766 171.82049999999998 180.04886 174.67251 171.31602999999998 176.07265999999998 C 167.73612999999997 176.64670999999998 164.25384 177.48810999999998 160.8492 178.5578 C 160.28176 176.84018999999998 158.99692 175.19378999999998 157.98239 173.73060999999998 C 156.95207000000002 172.24543999999997 155.74962000000002 170.93635999999998 154.61308 169.53860999999998 C 153.92 168.68637999999999 154.09842 168.29710999999998 154.49696 167.33139999999997 C 154.85437 166.46625999999998 155.20799 165.60028999999997 155.5606 164.73325999999997 C 156.14021 163.30861999999996 156.72764999999998 161.88018999999997 157.24124999999998 160.42833999999996 C 157.72588 160.10689999999997 158.22418 159.79439999999997 158.69285 159.46477999999996 C 166.77544999999998 153.78055999999995 173.37832 146.24437999999995 178.554 137.86251999999996 C 184.75099 127.82482999999996 188.92000000000002 116.70924999999997 192.45871 105.50027999999996 C 192.49039 105.50498999999996 192.52206 105.50449999999996 192.55375999999998 105.50920999999997 C 194.28932999999998 105.77183999999997 196.14424 101.64847999999996 194.11835 101.34730999999996 C 184.3245 99.89148999999996 174.64893999999998 102.63925999999996 165.22136 105.00008999999997 C 162.41007 105.70400999999997 159.62193 106.45879999999997 156.84694000000002 107.24932999999997 C 156.75777000000002 106.42876999999997 156.6902 105.60631999999997 156.57721 104.78791999999997 C 156.3877 103.41498999999997 156.41673 101.70521999999997 155.27449000000001 100.75770999999997 C 154.74345000000002 100.31748999999998 154.07725000000002 100.04534999999997 153.47763 99.70967999999998 C 153.43115 99.68329999999997 153.37945 99.67245999999997 153.33305000000001 99.64681999999998 C 153.26861000000002 99.53283999999998 153.23800000000003 99.40089999999998 153.11764000000002 99.31900999999998 C 149.83859 97.08515999999997 146.52685000000002 94.90035999999998 143.24778000000003 92.66650999999997 C 141.84267000000003 91.70922999999998 140.44070000000002 90.74722999999997 139.04188000000005 89.78067999999998 C 137.54487000000006 88.74555999999997 135.41441000000006 87.71995999999997 134.14123000000004 86.41161999999997 C 133.34526000000002 85.59370999999997 133.44815000000003 85.52877999999997 133.70309000000003 84.37570999999997 C 133.92477000000002 83.37333999999997 134.26738000000003 82.37800999999997 134.57351000000003 81.39805999999997 C 135.08396000000002 79.76357999999998 135.64031000000003 78.14381999999998 136.24207000000004 76.54075999999998 C 137.53164000000004 73.10362999999998 139.33742000000004 69.86889999999998 140.59423000000004 66.43415999999998 C 141.21874000000003 64.72754999999998 139.63198000000003 64.71778999999998 138.82755000000003 65.88434999999998 C 137.26925000000003 68.14465999999999 136.09005000000002 70.78415999999999 135.04863000000003 73.42481999999998 C 134.92613000000003 73.01147999999998 134.79262000000003 72.59897999999998 134.66432000000003 72.18588999999999 C 134.12112000000002 70.4313 134.04991000000004 68.62318999999998 134.13064000000003 66.80018999999999 C 134.21302000000003 64.93822999999999 134.49914000000004 63.07701999999998 134.67855000000003 61.22208999999999 C 134.84960000000004 59.45061999999999 135.33102000000002 57.39833999999999 135.06492000000003 55.637129999999985 C 134.88021000000003 54.414329999999985 133.34730000000002 55.879899999999985 133.19528000000003 56.393239999999984 C 132.64950000000002 58.243949999999984 132.69169000000002 60.37092999999999 132.52278 62.29152999999999 C 132.36339 64.10998 132.23509 65.93106999999999 132.08993 67.75083999999998 C 131.95054000000002 69.48962999999998 131.90199 71.24338999999998 132.2552 72.96216999999999 C 132.42146 73.77188999999998 132.69905 74.54064999999999 132.98202 75.31454999999998 C 133.20950000000002 75.93500999999998 133.3478 76.61650999999998 133.60696000000002 77.22853999999998 C 132.89865 79.15468999999999 132.25148000000002 81.10324999999997 131.67501000000001 83.07290999999998 C 131.25068000000002 84.52242999999999 130.34377 86.45966999999997 130.83205 87.98728999999997 C 131.29814000000002 89.44657999999997 133.17260000000002 90.36316999999997 134.32434 91.17551999999998 C 136.17604 92.48194999999998 138.05099 93.75727999999998 139.92221 95.03492999999997 C 143.461 97.45149999999998 147.01402000000002 99.85029999999998 150.62297 102.16206999999997 C 150.07712 104.89188999999998 149.09634 107.33534999999998 147.57088000000002 109.72197999999997 C 147.46210000000002 109.89253999999997 147.40726 110.04638999999997 147.34439 110.20288999999997 C 144.15301 111.28523999999997 140.98007 112.42987999999997 137.8499 113.73605999999997 C 128.76865999999998 117.52531999999997 119.99355999999999 121.98301999999997 110.96037999999999 125.87409999999997 C 109.04481999999999 126.69919999999998 105.93044999999998 127.99421999999997 104.45353999999999 125.68277999999997 C 103.37243 123.98997999999996 103.56349999999999 120.55647999999997 103.53711999999999 118.60716999999997 C 103.46374999999999 113.18292999999997 104.82724999999999 108.17962999999997 106.35908999999998 103.02984999999997 C 106.95183999999998 101.03802999999996 105.07109999999999 101.48717999999997 104.43136999999999 102.85034999999996 C 102.35897999999999 107.26693999999996 101.43421 112.24747999999997 101.06306 117.08451999999997 C 100.8039 120.45779999999996 99.8137 126.84328999999997 102.71789 129.44059999999996 C 105.6507 132.06347999999997 110.877 128.92883999999995 113.8103 127.70975999999996 C 114.81953 127.29037999999996 115.81503 126.84221999999995 116.81855 126.41068999999996 C 113.35793 134.95376999999996 111.29398 144.81303999999994 114.38138000000001 153.65597999999997 C 117.12146000000001 161.50381999999996 123.68752 168.29545999999996 132.35807 168.66577999999998 C 139.90375 168.98805 147.56135 166.19015 154.17747 162.33330999999998 C 153.82012 163.18769999999998 153.47123 164.04646 153.1091 164.89025999999998 C 152.32420000000002 166.72350999999998 150.83720000000002 169.10386999999997 151.60474000000002 171.14902999999998 C 151.93254000000002 172.02425999999997 152.60445 172.66530999999998 153.19934000000003 173.36104999999998 C 153.87555000000003 174.15173 154.51851000000005 174.97070999999997 155.12549000000004 175.81525999999997 C 155.73627000000005 176.66408999999996 156.30156000000005 177.53899999999996 156.82152000000005 178.44638999999998 C 157.05643000000006 178.85626 157.26016000000004 179.30391999999998 157.47241000000005 179.74570999999997 C 154.54539000000005 180.84046999999998 151.82434000000006 182.40819999999997 148.88525000000004 183.62677999999997 C 133.65451000000004 189.94122999999996 122.45546000000004 208.39214999999996 121.16541000000004 210.15863999999996 C 119.75393000000004 212.09106999999997 118.14608000000004 214.64114999999995 115.68418000000004 215.28674999999996 C 111.59647000000004 216.35884999999996 109.23698000000005 211.74986999999996 108.00069000000003 208.68065999999996 C 106.02384000000004 203.77289999999996 102.01637000000004 195.06032999999996 95.31523000000003 199.51892999999995 C 89.98818000000003 203.06317999999996 91.18956000000003 212.63501999999994 83.59896000000003 212.87678999999994 C 80.39071000000003 212.97894999999994 74.14401000000004 212.38851999999994 72.03895000000003 209.57977999999994 C 69.70426000000003 206.46524999999994 72.83386000000003 201.98819999999995 70.24689000000002 198.66404999999995 C 65.72368000000002 192.85235999999995 57.805860000000024 204.95449999999994 54.71051000000002 210.72871999999995 C 48.91834000000002 209.06643999999994 46.96052000000002 202.09927999999996 45.56591000000002 196.90681999999995 C 44.857520000000015 194.26937999999996 44.09744000000002 191.63774999999995 42.802090000000014 189.21859999999995 C 41.307150000000014 186.42782999999994 38.992570000000015 184.71334999999996 36.68104000000001 182.67263999999994 C 31.51860000000001 178.11535999999995 31.44680000000001 170.47280999999995 28.65453000000001 164.53075999999993 C 25.667870000000008 158.17536999999993 21.15368000000001 152.83640999999994 17.13670000000001 147.13787999999994 C 12.844690000000007 141.04826999999995 10.303040000000008 135.14657999999994 10.557480000000009 127.58608999999994 C 10.79926000000001 120.43521999999994 9.89343000000001 113.73224999999994 8.04330000000001 106.82075999999995 C 4.476550000000009 93.50035999999994 -0.22557999999999012 79.62484999999995 7.408280000000009 66.77238999999994 C 11.531880000000008 59.82921999999994 17.572700000000008 54.11496999999994 23.22813000000001 48.43885999999995 C 28.907880000000013 42.73808999999995 34.73537000000001 37.19134999999995 40.74343000000001 31.83889999999995 C 40.10684000000001 36.87411999999995 39.79119000000001 41.97262999999995 39.94322000000001 47.03315999999995 C 39.95273000000001 47.335659999999955 40.07201000000001 47.59430999999995 40.25730000000001 47.79696999999995 C 39.54205000000001 48.693289999999955 38.82837000000001 49.590429999999955 38.13528000000001 50.50387999999995 C 37.02729000000001 51.96498999999995 35.44160000000001 53.79790999999995 35.17352000000001 55.668639999999954 C 35.02885000000001 56.676879999999954 35.553030000000014 57.418759999999956 35.92302000000001 58.30399999999995 C 36.32320000000001 59.26202999999995 36.620900000000006 60.30533999999995 36.74970000000001 61.336239999999954 C 37.01199000000001 63.43575999999995 39.41955000000001 61.26790999999995 39.29920000000001 59.92111999999995 C 39.21160000000001 58.94902999999995 39.07015000000001 57.97702999999995 38.76501000000001 57.04720999999995 C 38.63258000000001 56.64205999999995 38.47575000000001 56.24592999999995 38.30155000000001 55.85682999999995 C 38.19385000000001 55.61487999999995 38.07879000000001 55.37549999999995 37.96059000000001 55.13842999999995 C 37.91997000000001 55.05719999999995 37.878200000000014 54.97613999999995 37.83651000000001 54.89540999999995 C 37.82121000000001 54.84387999999995 37.80748000000001 54.83890999999995 37.79275000000001 54.82650999999995 C 37.842300000000016 54.74097999999995 37.890940000000015 54.65544999999995 37.93999000000001 54.57024999999995 C 38.04024000000001 54.39653999999995 38.14215000000001 54.22366999999995 38.24670000000001 54.05210999999995 C 38.48054000000001 53.66573999999995 38.72389000000001 53.28466999999995 38.97825000000001 52.91144999999995 C 39.46132000000001 52.20280999999995 39.97962000000001 51.517919999999954 40.49743000000001 50.83483999999995 C 41.25652000000001 49.83321999999995 42.07468000000001 48.78758999999995 42.85801000000001 47.71260999999995 C 44.34658000000001 46.97725999999995 45.46086000000001 45.36410999999995 46.41789000000001 44.04551999999995 C 48.10647000000001 41.719519999999946 49.79514 39.39327999999995 51.48322000000001 37.06727999999995 C 56.52002000000001 39.517109999999946 61.85981000000001 41.21602999999995 67.40440000000001 42.06296999999995 C 68.46012 42.22417999999995 69.37538 40.69126999999995 69.51054 39.85996999999995 C 70.27542000000001 35.16966999999995 71.02913000000001 30.477559999999947 71.78558000000001 25.786019999999947 C 75.11949000000001 25.67964999999995 78.45347000000001 25.573019999999946 81.78795000000001 25.466649999999948 C 83.06584000000001 25.425949999999947 84.13107000000001 23.718349999999948 83.81436000000001 22.51588999999995 C 82.71223 18.32420999999995 81.20572000000001 14.29242999999995 79.45112 10.343359999999949 C 85.23849 9.09995999999995 90.9615 7.497399999999949 96.77956 6.374109999999948 C 103.75045 5.0280599999999485 110.80363 4.074499999999949 117.89694 3.7205499999999483 C 131.80595 3.0267199999999486 146.00529 4.622989999999948 158.89126 10.128209999999948 C 171.07842 15.335239999999947 182.51758999999998 23.250749999999947 192.57108 31.83841999999995 C 202.87959999999998 40.64354999999995 208.27743999999998 52.84072999999995 212.00467 65.60245999999995 C 216.66716 81.56532999999995 220.61607 97.99901999999994 220.16261 114.73520999999995 L 220.16277 114.73536 z M 156.1729 124.56701 L 156.17298 124.56693 C 156.71876 122.37055 157.8241 120.40851 159.41186 118.79801 C 160.07168 118.12924000000001 160.83499999999998 117.55097 161.6558 117.09279000000001 C 162.46708 116.63959000000001 163.40353 116.26537 164.31249 116.40525000000001 C 167.31122 116.86656 168.14576 121.07519 168.20069 122.92268000000001 C 168.27778 125.50254000000001 167.29386 128.27488000000002 165.05149 129.71755000000002 C 163.99155 130.39896000000002 162.71523 130.42403000000002 161.49905 130.37391000000002 C 160.42588 130.32981000000004 159.33485000000002 130.11790000000002 158.29179000000002 129.86537 C 157.75595 129.7355 157.16899 129.62276 156.73141 129.27072 C 156.15917000000002 128.81015000000002 155.97976 128.17596 155.91641 127.47121000000001 C 155.82979 126.514 155.94121 125.49732 156.1729 124.56701 z M 140.9549 163.97556 C 132.11957 165.96697 124.18910000000001 162.96262000000002 119.41939 155.14455 C 113.71226 145.79042 116.05380000000001 134.70099000000002 119.85704000000001 125.09880000000001 C 122.41026000000001 123.97311 124.95869000000002 122.83559000000001 127.50405 121.68987000000001 C 126.67531000000001 122.98712000000002 126.00919 124.42367000000002 125.47079000000001 125.71744000000001 C 124.36702000000001 128.37225 123.68717000000001 131.22615000000002 123.30915 134.07151000000002 C 122.51796 140.02729000000002 122.5781 146.31750000000002 125.10493 151.87872000000002 C 128.07199 158.40832 134.69191 162.82176 141.73399999999998 163.73942000000002 C 141.47006 163.80434 141.22092 163.91568 140.9549 163.97556 z M 58.13859 221.85944 L 58.1385 221.85944 C 58.88386 223.51113 59.9232 226.81815 62.22099 226.64791 C 63.95871 226.51913 65.25298 224.54179 65.6731 223.03683 C 66.24219000000001 221.00199 64.50869 217.75859 67.85633 218.62579 C 70.30136 219.25924 71.55981 221.66101 73.30911 223.27671 C 75.4839 225.285 78.09254 225.51221 80.93403 225.62752 C 86.11070000000001 225.83786 90.51934 224.82839 94.25236000000001 221.09273000000002 C 95.65747 219.68679000000003 98.85365000000002 216.58243000000002 100.81256 219.13648 C 101.47760000000001 220.00327000000001 100.8109 222.17988 101.26858 223.29333 C 101.61698 224.1416 102.29261 224.79747 103.06751 225.26622 C 105.08497 226.48663 107.9143 226.66083 110.18621 226.84033 C 113.29686000000001 227.08574 116.50462 226.93164 119.53032 226.13003 C 124.57183 224.79515 126.22138000000001 221.91644 129.57645 218.13676 C 133.50318 213.71225 136.18097 208.25317 139.58776 203.73634 C 143.391 198.69400000000002 150.28529 194.8528 155.61191 191.50036 C 158.76425 189.51664 162.0501 186.07562000000001 161.65 182.27635 C 161.72288 182.25708 161.79153 182.22806 161.86432 182.20903 C 165.3672 181.29079000000002 168.93966999999998 180.90234 172.48476 180.28685000000002 C 172.48476 180.28793000000002 172.48377 180.28867000000002 172.48377 180.28975000000003 C 172.05454 183.35896000000002 171.62649 186.42816000000002 171.20315 189.49820000000003 C 170.95929999999998 191.26205000000002 170.96881 193.36737000000002 169.52035 194.59091000000004 C 168.35801 195.57168000000004 166.63088000000002 196.16974000000005 165.29435 196.88870000000003 C 160.73995000000002 199.33845000000002 156.37466 202.11442000000002 152.1824 205.14038000000002 C 143.69448 211.26721000000003 136.0321 218.56590000000003 129.46925 226.72021 C 126.21086999999999 230.76887000000002 123.21576999999999 235.04162000000002 120.52159999999999 239.48583000000002 C 119.36662 241.39220000000003 118.25713999999999 244.40442000000002 116.16100999999999 245.45327000000003 C 114.81338999999998 246.12757000000002 112.94581 245.88084000000003 111.50322999999999 245.87687000000003 C 109.55169 245.87190000000004 107.59973 245.86660000000003 105.64769999999999 245.86157000000003 C 99.25954999999999 245.84494000000004 92.87149999999998 245.82806000000002 86.48384999999999 245.81111000000004 C 80.13110999999999 245.79448000000005 73.49390999999999 246.25819000000004 67.19443999999999 245.30994000000004 C 64.21943999999999 244.86235000000005 61.251809999999985 243.78786000000005 59.73270999999998 240.99790000000004 C 58.24255999999998 238.26304000000005 58.41775999999998 234.89878000000004 58.42519999999998 231.88581000000005 C 58.43470999999998 228.04064000000005 58.16811999999998 224.20837000000006 57.59538999999998 220.42290000000006 C 57.78596 220.899 57.92526 221.38777 58.13859 221.85944 z" stroke-linecap="round" />
</g>
		<g transform="matrix(1 0 0 1 -70.19091287208123 -3.6781243463505717)" id="path-01"  >
<linearGradient id="SVGID_1170644" gradientUnits="userSpaceOnUse" gradientTransform="matrix(1 0 0 1 16.837594237132123 77.43571615963464)"  x1="0" y1="0" x2="0" y2="88">
<stop offset="0%" style="stop-color:rgb(250,217,97);stop-opacity: 1"/>
<stop offset="100%" style="stop-color:rgb(247,107,28);stop-opacity: 1"/>
</linearGradient>
<path style="stroke: none; stroke-width: 1; stroke-dasharray: none; stroke-linecap: butt; stroke-dashoffset: 0; stroke-linejoin: miter; stroke-miterlimit: 4; fill: url(#SVGID_1170644); fill-rule: nonzero; opacity: 1;"  paint-order="stroke"  transform=" translate(-41.35577401493717, -121.32186927824162)" d="M 56.45042 163.37834 C 57.46287 162.77972 58.30319 162.06761 59.10555 161.21249 C 59.177350000000004 161.13679 59.218540000000004 161.00982 59.27868 160.90767 C 62.235730000000004 158.95961 63.96079 154.27205 64.48496 150.97289 C 64.6269 150.0803 65.41552 146.92167 65.47359 146.50617 C 66.66968 137.93959999999998 65.14843 131.14011 61.41012 124.92692 C 57.48661 118.4066 51.63431 112.88971 45.405559999999994 108.58346999999999 C 39.15836999999999 104.26407999999999 31.929409999999994 101.3608 24.504579999999994 99.84195 C 22.422679999999993 99.41596 19.383329999999994 99.22273 19.939679999999996 96.34062 C 20.317609999999995 94.3842 21.834139999999994 92.11652000000001 22.843949999999996 90.41231 C 25.105259999999994 86.59616000000001 28.035429999999998 83.08748 31.222099999999998 80.00487000000001 C 32.13422 79.12311000000001 32.2482 76.46161000000001 30.60346 77.81006000000001 C 27.345489999999998 80.48016000000001 24.62278 83.48998 22.264359999999996 86.99288000000001 C 20.175589999999996 90.09509000000001 17.432369999999995 94.24930000000002 16.890249999999995 98.02350000000001 C 16.440019999999993 101.15839000000001 18.950479999999995 102.52371000000001 21.614039999999996 103.17775000000002 C 22.239049999999995 103.33102000000002 22.855539999999994 103.48679000000001 23.474759999999996 103.64088000000002 C 17.885249999999996 117.75288000000002 21.141069999999996 136.28295000000003 30.37542 148.15546000000003 C 35.137679999999996 154.27916000000005 40.835879999999996 158.94167000000004 48.3584 161.08899000000002 C 49.51809 161.42003000000003 50.81186 161.74254000000002 52.13575 161.94519000000003 C 51.02304 162.08482000000004 49.89338 162.13048000000003 48.730540000000005 161.94577000000004 C 47.43354000000001 161.73964000000004 46.046380000000006 164.82812000000004 47.56026000000001 165.05692000000005 C 49.565070000000006 165.35991000000004 51.650110000000005 165.20391000000004 53.59098000000001 164.61886000000004 C 54.58921 164.31793 55.55302 163.90939 56.45042 163.37834 z M 34.32589 116.23766 C 32.23034 120.65235000000001 31.253780000000003 125.4701 30.854760000000002 130.31608 C 30.481050000000003 134.85533 30.64673 139.53983 31.850260000000002 143.96163 C 31.53618 143.50297 31.175710000000002 143.05587000000003 30.8838 142.59447 C 24.017970000000002 131.74575 21.28575 116.50682 25.75147 104.2284 C 28.65624 104.99485999999999 31.51038 105.85445 34.31539 107.0804 C 35.93962 107.79011 37.517360000000004 108.61115 39.0798 109.45891999999999 C 36.89135 111.01559 35.16836 114.46091 34.32589 116.23766 z M 50.74643 137.05865 C 50.24599 136.58221 49.91139999999999 135.89103 49.74241 135.22615 C 49.55977 134.50644 49.43942 133.71938 49.42097 132.97881999999998 C 49.390859999999996 131.76427999999999 49.764579999999995 130.57944999999998 50.501999999999995 129.61248999999998 C 51.06314999999999 128.87639 51.909839999999996 128.31026999999997 52.851 128.27380999999997 C 53.14919 128.26246999999998 53.50711 128.33053999999996 53.74467 128.50764999999996 C 54.4868 129.06109999999995 55.822269999999996 130.68243999999996 56.02021 131.55261999999996 C 56.230309999999996 132.47499999999997 56.19392 133.45659999999995 55.96479 134.37185999999997 C 55.75204 135.22143999999997 55.49504 136.18029999999996 54.908 136.85169999999997 C 54.32633 137.51624999999996 53.64434 137.87862999999996 52.77812 137.93801999999997 C 51.98793 137.99187 51.29641 137.58144 50.74643 137.05865 z" stroke-linecap="round" />
</g>
</g>
</g>
</svg>