<?xml version="1.0" encoding="UTF-8" standalone="no" ?>
<!DOCTYPE svg PUBLIC "-//W3C//DTD SVG 1.1//EN" "http://www.w3.org/Graphics/SVG/1.1/DTD/svg11.dtd">
<svg xmlns="http://www.w3.org/2000/svg" xmlns:xlink="http://www.w3.org/1999/xlink" version="1.1" width="1280" height="1024" viewBox="0 0 1280 1024" xml:space="preserve">
<desc>Created with Fabric.js 4.4.0</desc>
<defs>
</defs>
<g transform="matrix(1 0 0 1 640 512)" id="background-logo"  >
<rect style="stroke: none; stroke-width: 0; stroke-dasharray: none; stroke-linecap: butt; stroke-dashoffset: 0; stroke-linejoin: miter; stroke-miterlimit: 4; fill: rgb(255,255,255); fill-opacity: 0; fill-rule: nonzero; opacity: 1;"  paint-order="stroke"  x="-640" y="-512" rx="0" ry="0" width="1280" height="1024" />
</g>
<g transform="matrix(1.9211538461538462 0 0 1.9211538461538462 640 396.617392566944)" id="logo-logo"  >
<g style=""  paint-order="stroke"   >
		<g transform="matrix(0.13019047620862428 0 0 -0.13019047620862434 69.6060883429248 -23.127003646080965)"  >
<path style="stroke: none; stroke-width: 1; stroke-dasharray: none; stroke-linecap: butt; stroke-dashoffset: 0; stroke-linejoin: miter; stroke-miterlimit: 4; fill: rgb(0,0,0); fill-rule: nonzero; opacity: 1;"  paint-order="stroke"  transform=" translate(-1471.6155576676506, -1176.8285)" d="M 1695.95 1027.68 C 1675.19 1013.32 1654.06 1002.72 1632.24 994.8670000000001 C 1660.18 1068.8200000000002 1649.3 1134.0700000000002 1649.11 1135.1200000000001 L 1645.9099999999999 1152.73 L 1631.2599999999998 1142.54 C 1553.2799999999997 1088.47 1385.0899999999997 1066.96 1229.8099999999997 1056.8999999999999 C 1206.2199999999998 1121.59 1157.8999999999996 1176.27 1095.7399999999998 1211.2299999999998 C 1095.9899999999998 1211.2299999999998 1096.2399999999998 1211.2999999999997 1096.4699999999998 1211.2999999999997 C 1141.2199999999998 1215.6299999999997 1186.8799999999999 1218.0999999999997 1231.0499999999997 1220.5099999999998 C 1286.7299999999998 1223.4699999999998 1344.1899999999998 1226.6299999999997 1400.7899999999997 1233.4299999999998 C 1466.7799999999997 1241.32 1527.1499999999996 1251.09 1585.3499999999997 1263.3899999999999 C 1645.7699999999998 1276.11 1694.6499999999996 1289.9599999999998 1739.1999999999996 1307.1399999999999 C 1763.8499999999997 1316.58 1785.3499999999997 1326.4199999999998 1805.0099999999995 1337.2299999999998 C 1805.9999999999995 1337.7199999999998 1807.5999999999995 1338.5899999999997 1809.6999999999996 1339.6399999999999 C 1824.6499999999996 1347.36 1835.7099999999996 1353.54 1843.7399999999996 1358.79 C 1852.3299999999995 1302.69 1860.2999999999995 1140.86 1695.9499999999996 1027.6799999999998" stroke-linecap="round" />
</g>
		<g transform="matrix(0.13019047620862428 0 0 -0.13019047620862434 64.70441691367 1.3813535001926027)"  >
<path style="stroke: none; stroke-width: 1; stroke-dasharray: none; stroke-linecap: butt; stroke-dashoffset: 0; stroke-linejoin: miter; stroke-miterlimit: 4; fill: rgb(0,0,0); fill-rule: nonzero; opacity: 1;"  paint-order="stroke"  transform=" translate(-1432.7191763093656, -985.6795)" d="M 1493.22 868.508 C 1486.18 864.426 1479.33 860.9770000000001 1472.52 857.8090000000001 C 1491.44 912.3130000000001 1482.47 959.6480000000001 1482.29 960.445 L 1478.7 977.945 L 1464.31 967.4300000000001 C 1428.59 941.484 1348.83 934.551 1261.9499999999998 931.59 C 1260.6499999999999 938.02 1259.0399999999997 944.5 1257.1299999999999 951.047 C 1254.04 961.7420000000001 1250.1 971.945 1245.3899999999999 981.457 C 1244.3999999999999 999.504 1241.56 1017.16 1236.9299999999998 1034.23 C 1385.83 1043.99 1541.6599999999999 1064.06 1628.1599999999999 1113.55 C 1630.58 1067.8999999999999 1623.85 943.8829999999999 1493.2199999999998 868.5079999999999" stroke-linecap="round" />
</g>
		<g transform="matrix(0.13019047620862428 0 0 -0.13019047620862434 51.95876929284577 20.00510112183622)"  >
<path style="stroke: none; stroke-width: 1; stroke-dasharray: none; stroke-linecap: butt; stroke-dashoffset: 0; stroke-linejoin: miter; stroke-miterlimit: 4; fill: rgb(0,0,0); fill-rule: nonzero; opacity: 1;"  paint-order="stroke"  transform=" translate(-1336.1916677821891, -844.7153416852498)" d="M 1369.21 767.238 C 1330.71 743.8090000000001 1271.0900000000001 748.7620000000001 1210.35 757.109 C 1221.6 766.3050000000001 1229.27 775.1560000000001 1233.6499999999999 781.0160000000001 C 1259.9699999999998 816.105 1270.9099999999999 860.48 1265.6 908.797 C 1346.23 911.578 1418.09 917.7620000000001 1461.71 939.254 C 1463.81 904.027 1458.13 821.238 1369.21 767.238" stroke-linecap="round" />
</g>
		<g transform="matrix(0.13019047620862428 0 0 -0.13019047620862434 -69.60658786695717 -23.127003646080965)"  >
<path style="stroke: none; stroke-width: 1; stroke-dasharray: none; stroke-linecap: butt; stroke-dashoffset: 0; stroke-linejoin: miter; stroke-miterlimit: 4; fill: rgb(0,0,0); fill-rule: nonzero; opacity: 1;"  paint-order="stroke"  transform=" translate(-401.71027920311644, -1176.7604999999999)" d="M 177.387 1027.61 C 198.145 1013.2599999999999 219.273 1002.6499999999999 241.078 994.8009999999999 C 213.15200000000002 1068.75 224.039 1134 224.223 1135.05 L 227.43800000000002 1152.6599999999999 L 242.086 1142.4699999999998 C 320.059 1088.3999999999999 488.242 1066.8899999999999 643.508 1056.8299999999997 C 667.1170000000001 1121.5199999999998 715.4300000000001 1176.1999999999998 777.5820000000001 1211.1599999999996 C 777.344 1211.1599999999996 777.0900000000001 1211.2299999999996 776.8520000000001 1211.2299999999996 C 732.113 1215.5599999999995 686.4530000000001 1218.0299999999995 642.2730000000001 1220.4399999999996 C 586.6090000000002 1223.3999999999996 529.1450000000001 1226.5599999999995 472.5430000000001 1233.3599999999997 C 406.55900000000014 1241.2599999999998 346.18400000000014 1251.0199999999998 287.98400000000015 1263.3199999999997 C 227.55500000000015 1276.0499999999997 178.68800000000016 1289.8899999999996 134.13300000000015 1307.0699999999997 C 109.48000000000016 1316.5199999999998 87.97660000000016 1326.3499999999997 68.32420000000015 1337.1599999999996 C 67.33590000000015 1337.6499999999996 65.73830000000015 1338.5099999999995 63.63670000000015 1339.5699999999997 C 48.679700000000146 1347.2899999999997 37.617200000000146 1353.4699999999998 29.589800000000146 1358.7199999999998 C 21 1302.63 13.0273 1140.8 177.387 1027.61" stroke-linecap="round" />
</g>
		<g transform="matrix(0.13019047620862428 0 0 -0.13019047620862434 -64.70491643770254 1.3813535001926027)"  >
<path style="stroke: none; stroke-width: 1; stroke-dasharray: none; stroke-linecap: butt; stroke-dashoffset: 0; stroke-linejoin: miter; stroke-miterlimit: 4; fill: rgb(0,0,0); fill-rule: nonzero; opacity: 1;"  paint-order="stroke"  transform=" translate(-440.61055131968163, -985.6089999999999)" d="M 380.105 868.438 C 387.15200000000004 864.355 394.00800000000004 860.891 400.813 857.7379999999999 C 381.90999999999997 912.242 390.859 959.574 391.04699999999997 960.3789999999999 L 394.64099999999996 977.8789999999999 L 409.03099999999995 967.3589999999999 C 444.7339999999999 941.4179999999999 524.512 934.4839999999999 611.387 931.52 C 612.6759999999999 937.949 614.281 944.43 616.199 950.977 C 619.281 961.6759999999999 623.2539999999999 971.875 627.949 981.387 C 628.93 999.434 631.7729999999999 1017.0899999999999 636.4019999999999 1034.1599999999999 C 487.49999999999994 1043.9199999999998 331.6719999999999 1063.9999999999998 245.16399999999993 1113.4799999999998 C 242.75799999999992 1067.8299999999997 249.49599999999992 943.8159999999998 380.1049999999999 868.4379999999998" stroke-linecap="round" />
</g>
		<g transform="matrix(0.13019047620862428 0 0 -0.13019047620862434 -51.95926881687819 20.005101121836304)"  >
<path style="stroke: none; stroke-width: 1; stroke-dasharray: none; stroke-linecap: butt; stroke-dashoffset: 0; stroke-linejoin: miter; stroke-miterlimit: 4; fill: rgb(0,0,0); fill-rule: nonzero; opacity: 1;"  paint-order="stroke"  transform=" translate(-537.1332393750768, -844.6479699434481)" d="M 504.117 767.168 C 542.602 743.742 602.242 748.691 662.969 757.043 C 651.719 766.238 644.066 775.066 639.6800000000001 780.949 C 613.3520000000001 816.035 602.422 860.41 607.738 908.727 C 527.105 911.512 455.23800000000006 917.672 411.6210000000001 939.188 C 409.5200000000001 903.961 415.2030000000001 821.168 504.1170000000001 767.168" stroke-linecap="round" />
</g>
		<g transform="matrix(0.13019047620862428 0 0 -0.13019047620862434 -0.000249762016267141 13.14406302564177)"  >
<path style="stroke: none; stroke-width: 1; stroke-dasharray: none; stroke-linecap: butt; stroke-dashoffset: 0; stroke-linejoin: miter; stroke-miterlimit: 4; fill: rgb(0,0,0); fill-rule: nonzero; opacity: 1;"  paint-order="stroke"  transform=" translate(-936.6649845972049, -900.4855)" d="M 1167.17 930.352 C 1167.17 840.633 981.863 823.77 981.863 934.805 C 981.863 939.137 982.051 943.199 982.363 947.102 C 982.363 947.102 982.363 947.168 982.363 947.281 C 982.422 951.7969999999999 985.195 1034.1599999999999 1087.4 1042.1399999999999 C 1172.6100000000001 1048.8 1178.7800000000002 1069.6899999999998 1179.0300000000002 1074.7499999999998 C 1179.4600000000003 1066.0899999999997 1179.5900000000001 1011.2999999999997 1110.15 1011.4799999999998 C 1152.5800000000002 1001.0299999999997 1167.17 962.4769999999997 1167.17 930.3519999999997 z M 987.004 750.93 C 980.7620000000001 744.746 972.41 744.996 964.258 747.7769999999999 C 958.02 749.8789999999999 951.9730000000001 753.5269999999999 947.1410000000001 756.8629999999999 L 947.07 756.93 C 941.086 761.125 937.0120000000001 764.957 937.0120000000001 764.957 C 937.0120000000001 764.957 936.863 764.82 936.6250000000001 764.6129999999999 C 936.4800000000001 764.7539999999999 936.3160000000001 764.8629999999999 936.3160000000001 764.8629999999999 C 936.3160000000001 764.8629999999999 932.2460000000001 761.055 926.2460000000001 756.8629999999999 L 926.1880000000001 756.7929999999999 C 921.363 753.4569999999999 915.3160000000001 749.8129999999999 909.0780000000001 747.7109999999999 C 900.9220000000001 744.93 892.5740000000001 744.68 886.3320000000001 750.8589999999999 C 869.4020000000002 767.785 906.9100000000001 876.6519999999999 936.3160000000001 876.6519999999999 C 936.4450000000002 876.6519999999999 936.6370000000002 876.6519999999999 936.7540000000001 876.5819999999999 L 936.7540000000001 876.6949999999999 C 936.8400000000001 876.6949999999999 936.9410000000001 876.7189999999999 937.0120000000002 876.7189999999999 C 966.4180000000001 876.7189999999999 1003.9300000000002 767.8589999999999 987.0040000000001 750.93 z M 706.152 930.285 C 706.152 962.406 720.7420000000001 1000.9599999999999 763.1880000000001 1011.41 C 693.7460000000001 1011.23 693.8670000000001 1066.03 694.3010000000002 1074.68 C 694.5430000000001 1069.6200000000001 700.7230000000002 1048.73 785.9340000000002 1042.0700000000002 C 888.1250000000002 1034.0900000000001 890.9060000000002 951.7300000000001 890.9690000000002 947.2150000000001 C 890.9690000000002 947.1020000000001 890.9690000000002 947.0310000000002 890.9690000000002 947.0310000000002 C 891.2730000000001 943.1330000000002 891.4650000000001 939.0700000000002 891.4650000000001 934.7340000000002 C 891.4650000000001 823.7030000000002 706.1520000000002 840.5630000000001 706.1520000000002 930.2850000000002 z M 1236.37 945.0699999999999 C 1233.2199999999998 955.93 1229.08 966.262 1224.01 975.7769999999999 C 1218.95 1116.8899999999999 1091.04 1231.08 937.012 1231.08 L 936.582 1231.08 L 936.582 1231.01 L 936.316 1231.01 C 782.2810000000001 1231.01 654.3910000000001 1116.82 649.3240000000001 975.711 C 644.2460000000001 966.191 640.105 955.859 636.965 945 C 620.145 887.102 627.3240000000001 833.469 656.9770000000001 793.934 C 665.0200000000001 783.3009999999999 694.176 750.059 750.9570000000001 742.145 L 750.9570000000001 720.1519999999999 C 750.9570000000001 701.434 755.6600000000001 685.7969999999999 764.8550000000001 673.6879999999999 L 818.3050000000002 600.9139999999999 C 826.8360000000001 589.6639999999999 838.0200000000002 581.1949999999998 850.3830000000002 575.9339999999999 L 862.1720000000001 693.4649999999999 L 874.5940000000002 570.1329999999999 C 876.0780000000002 570.0659999999999 877.5040000000001 569.891 878.9880000000002 569.891 L 923.8950000000002 569.891 L 936.3160000000003 693.4649999999999 L 936.5820000000002 690.9139999999999 L 936.5820000000002 689.2029999999999 L 936.6600000000002 690.0659999999999 L 936.7540000000002 689.1289999999999 L 936.7540000000002 690.9839999999999 L 937.0120000000003 693.531 L 949.4340000000003 569.957 L 994.3480000000003 569.957 C 995.8280000000003 569.957 997.2580000000003 570.133 998.7300000000002 570.199 L 1011.1500000000002 693.531 L 1022.9500000000002 576.0039999999999 C 1035.3100000000002 581.2659999999998 1046.4900000000002 589.7339999999999 1055.0300000000002 600.9649999999999 L 1108.4800000000002 673.7579999999999 C 1117.6800000000003 685.8629999999999 1122.3700000000003 701.4999999999999 1122.3700000000003 720.223 L 1122.3700000000003 742.2149999999999 C 1179.1500000000003 750.1289999999999 1208.3200000000004 783.3709999999999 1216.3500000000004 793.9999999999999 C 1246.0100000000004 833.5349999999999 1253.1800000000003 887.1679999999999 1236.3700000000003 945.0699999999999" stroke-linecap="round" />
</g>
		<g transform="matrix(0.13019047620862428 0 0 -0.13019047620862434 -0.000249762016267141 -46.65893222078981)"  >
<path style="stroke: none; stroke-width: 1; stroke-dasharray: none; stroke-linecap: butt; stroke-dashoffset: 0; stroke-linejoin: miter; stroke-miterlimit: 4; fill: rgb(0,0,0); fill-rule: nonzero; opacity: 1;"  paint-order="stroke"  transform=" translate(-936.655, -1356.8849999999998)" d="M 936.66 1430.05 L 954.824 1374.1599999999999 L 1013.5799999999999 1374.1599999999999 L 966.0469999999999 1339.62 L 984.2189999999999 1283.7199999999998 L 936.66 1318.2699999999998 L 889.117 1283.7199999999998 L 907.289 1339.62 L 859.73 1374.1599999999999 L 918.5120000000001 1374.1599999999999 L 936.6600000000001 1430.05" stroke-linecap="round" />
</g>
		<g transform="matrix(0.13019047620862428 0 0 -0.13019047620862434 -14.705264049780396 -39.79789412459533)"  >
<path style="stroke: none; stroke-width: 1; stroke-dasharray: none; stroke-linecap: butt; stroke-dashoffset: 0; stroke-linejoin: miter; stroke-miterlimit: 4; fill: rgb(0,0,0); fill-rule: nonzero; opacity: 1;"  paint-order="stroke"  transform=" translate(-823.2379999999998, -1299.695)" d="M 823.23 1346.74 L 834.91 1310.8 L 872.703 1310.8 L 842.117 1288.59 L 853.805 1252.6499999999999 L 823.2299999999999 1274.86 L 792.6599999999999 1252.6499999999999 L 804.3399999999998 1288.59 L 773.7729999999998 1310.8 L 811.5549999999998 1310.8 L 823.2299999999998 1346.74" stroke-linecap="round" />
</g>
		<g transform="matrix(0.13019047620862428 0 0 -0.13019047620862434 15.687702621123094 -39.79789412459533)"  >
<path style="stroke: none; stroke-width: 1; stroke-dasharray: none; stroke-linecap: butt; stroke-dashoffset: 0; stroke-linejoin: miter; stroke-miterlimit: 4; fill: rgb(0,0,0); fill-rule: nonzero; opacity: 1;"  paint-order="stroke"  transform=" translate(-1059.2400000000002, -1299.695)" d="M 1059.24 1346.74 L 1070.92 1310.8 L 1108.71 1310.8 L 1078.13 1288.59 L 1089.8000000000002 1252.6499999999999 L 1059.2400000000002 1274.86 L 1028.6600000000003 1252.6499999999999 L 1040.3300000000004 1288.59 L 1009.7700000000004 1310.8 L 1047.5600000000004 1310.8 L 1059.2400000000005 1346.74" stroke-linecap="round" />
</g>
</g>
</g>
<g transform="matrix(1.9211538461538462 0 0 1.9211538461538462 639.5072240384615 606.1150321145728)" id="text-logo"  >
<g style=""  paint-order="stroke"   >
		<g transform="matrix(1 0 0 1 0 0)" id="text-logo-path-0"  >
<path style="stroke: none; stroke-width: 0.8288976075998573; stroke-dasharray: none; stroke-linecap: butt; stroke-dashoffset: 0; stroke-linejoin: miter; stroke-miterlimit: 4; fill: rgb(0,0,0); fill-rule: nonzero; opacity: 1;"  paint-order="stroke"  transform=" translate(-261.345, 19.95)" d="M 1.25 -39.33 L 1.25 -0.57 C 1.25 -0.29 1.48 0 1.82 0 L 6.95 0 C 7.24 0 7.52 -0.23 7.52 -0.57 L 7.52 -19.38 C 7.52 -19.66 7.58 -19.72 7.7 -19.38 L 12.54 -0.57 C 12.6 -0.29 12.88 0 13.22 0 L 18.35 0 C 18.7 0 18.98 -0.29 19.04 -0.57 L 23.88 -19.38 C 24 -19.66 24.05 -19.72 24.05 -19.38 L 24.05 -0.57 C 24.05 -0.29 24.28 0 24.62 0 L 29.75 0 C 30.04 0 30.32 -0.23 30.32 -0.57 L 30.32 -39.33 C 30.32 -39.62 30.1 -39.9 29.75 -39.9 L 23.48 -39.9 C 23.14 -39.9 22.86 -39.62 22.8 -39.33 L 15.9 -11.12 C 15.85 -10.83 15.73 -10.77 15.68 -11.12 L 8.78 -39.33 C 8.72 -39.62 8.44 -39.9 8.09 -39.9 L 1.82 -39.9 C 1.54 -39.9 1.25 -39.67 1.25 -39.33 Z M 53.24 -39.33 L 53.24 -0.57 C 53.24 -0.29 53.47 0 53.81 0 L 58.94 0 C 59.22 0 59.51 -0.23 59.51 -0.57 L 59.51 -39.33 C 59.51 -39.62 59.28 -39.9 58.94 -39.9 L 53.81 -39.9 C 53.52 -39.9 53.24 -39.67 53.24 -39.33 Z M 82.42 -39.33 L 82.42 -0.57 C 82.42 -0.29 82.65 0 82.99 0 L 88.12 0 C 88.41 0 88.69 -0.23 88.69 -0.57 L 88.69 -14.36 L 89.03 -15.11 C 89.15 -15.33 89.32 -15.39 89.43 -15.05 L 93.65 -0.57 C 93.76 -0.23 94.11 0 94.39 0 L 99.52 0 C 99.86 0 99.98 -0.29 99.92 -0.51 L 92.57 -22.17 C 92.51 -22.4 92.51 -22.91 92.63 -23.2 L 99.86 -39.39 C 99.98 -39.62 99.86 -39.9 99.52 -39.9 L 94.39 -39.9 C 94.11 -39.9 93.76 -39.67 93.59 -39.39 L 88.92 -27.64 C 88.81 -27.42 88.69 -27.36 88.69 -27.7 L 88.69 -39.33 C 88.69 -39.62 88.46 -39.9 88.12 -39.9 L 82.99 -39.9 C 82.71 -39.9 82.42 -39.67 82.42 -39.33 Z M 122.83 -39.33 L 122.83 -0.57 C 122.83 -0.29 123.06 0 123.4 0 L 128.53 0 C 128.82 0 129.1 -0.23 129.1 -0.57 L 129.1 -14.36 L 129.45 -15.11 C 129.56 -15.33 129.73 -15.39 129.85 -15.05 L 134.06 -0.57 C 134.18 -0.23 134.52 0 134.8 0 L 139.94 0 C 140.28 0 140.39 -0.29 140.33 -0.51 L 132.98 -22.17 C 132.92 -22.4 132.92 -22.91 133.04 -23.2 L 140.28 -39.39 C 140.39 -39.62 140.28 -39.9 139.94 -39.9 L 134.8 -39.9 C 134.52 -39.9 134.18 -39.67 134.01 -39.39 L 129.33 -27.64 C 129.22 -27.42 129.1 -27.36 129.1 -27.7 L 129.1 -39.33 C 129.1 -39.62 128.88 -39.9 128.53 -39.9 L 123.4 -39.9 C 123.12 -39.9 122.83 -39.67 122.83 -39.33 Z M 163.25 -39.33 L 163.25 -0.57 C 163.25 -0.29 163.48 0 163.82 0 L 178.07 0 C 178.35 0 178.64 -0.23 178.64 -0.57 L 178.64 -5.7 C 178.64 -5.99 178.41 -6.27 178.07 -6.27 L 170.09 -6.27 C 169.8 -6.27 169.52 -6.5 169.52 -6.84 L 169.52 -16.25 C 169.52 -16.53 169.75 -16.82 170.09 -16.82 L 175.22 -16.82 C 175.5 -16.82 175.79 -17.04 175.79 -17.39 L 175.79 -22.52 C 175.79 -22.8 175.56 -23.09 175.22 -23.09 L 170.09 -23.09 C 169.8 -23.09 169.52 -23.31 169.52 -23.66 L 169.52 -33.06 C 169.52 -33.34 169.75 -33.63 170.09 -33.63 L 178.07 -33.63 C 178.35 -33.63 178.64 -33.86 178.64 -34.2 L 178.64 -39.33 C 178.64 -39.62 178.41 -39.9 178.07 -39.9 L 163.82 -39.9 C 163.53 -39.9 163.25 -39.67 163.25 -39.33 Z M 201.55 -39.33 L 201.55 -0.57 C 201.55 -0.29 201.78 0 202.12 0 L 207.25 0 C 207.54 0 207.82 -0.23 207.82 -0.57 L 207.82 -39.33 C 207.82 -39.62 207.59 -39.9 207.25 -39.9 L 202.12 -39.9 C 201.84 -39.9 201.55 -39.67 201.55 -39.33 Z M 262.54 -8.21 C 262.54 -3.53 266.36 0.57 271.43 0.57 C 276.22 0.57 280.21 -3.36 280.21 -8.21 L 280.21 -12.31 C 280.21 -12.6 279.98 -12.88 279.64 -12.88 L 274.51 -12.88 C 274.23 -12.88 273.94 -12.65 273.94 -12.31 L 273.94 -8.21 C 273.94 -6.38 273.26 -5.7 271.43 -5.7 C 269.5 -5.7 268.81 -6.38 268.81 -8.21 L 268.81 -31.69 C 268.81 -33.52 269.5 -34.2 271.43 -34.2 C 273.26 -34.2 273.94 -33.52 273.94 -31.69 L 273.94 -27.59 C 273.94 -27.3 274.17 -27.02 274.51 -27.02 L 279.64 -27.02 C 279.93 -27.02 280.21 -27.25 280.21 -27.59 L 280.21 -31.69 C 280.21 -36.54 276.22 -40.47 271.43 -40.47 C 266.36 -40.47 262.54 -36.37 262.54 -31.69 Z M 303.13 -8.21 C 303.13 -3.53 306.94 0.57 312.02 0.57 C 316.81 0.57 320.8 -3.36 320.8 -8.21 L 320.8 -31.69 C 320.8 -36.54 316.81 -40.47 312.02 -40.47 C 306.94 -40.47 303.13 -36.37 303.13 -31.69 Z M 309.4 -8.21 L 309.4 -31.69 C 309.4 -33.52 310.08 -34.2 312.02 -34.2 C 313.84 -34.2 314.53 -33.52 314.53 -31.69 L 314.53 -8.21 C 314.53 -6.38 313.84 -5.7 312.02 -5.7 C 310.08 -5.7 309.4 -6.38 309.4 -8.21 Z M 343.71 -39.33 L 343.71 -0.57 C 343.71 -0.29 343.94 0 344.28 0 L 349.41 0 C 349.69 0 349.98 -0.23 349.98 -0.57 L 349.98 -19.38 C 349.98 -19.66 350.04 -19.72 350.15 -19.38 L 355 -0.57 C 355.05 -0.29 355.34 0 355.68 0 L 360.81 0 C 361.15 0 361.44 -0.29 361.49 -0.57 L 366.34 -19.38 C 366.45 -19.66 366.51 -19.72 366.51 -19.38 L 366.51 -0.57 C 366.51 -0.29 366.74 0 367.08 0 L 372.21 0 C 372.5 0 372.78 -0.23 372.78 -0.57 L 372.78 -39.33 C 372.78 -39.62 372.55 -39.9 372.21 -39.9 L 365.94 -39.9 C 365.6 -39.9 365.31 -39.62 365.26 -39.33 L 358.36 -11.12 C 358.3 -10.83 358.19 -10.77 358.13 -11.12 L 351.23 -39.33 C 351.18 -39.62 350.89 -39.9 350.55 -39.9 L 344.28 -39.9 C 344 -39.9 343.71 -39.67 343.71 -39.33 Z M 395.69 -39.33 L 395.69 -0.57 C 395.69 -0.29 395.92 0 396.26 0 L 404.47 0 C 409.55 0 413.36 -4.1 413.36 -8.78 L 413.36 -13.74 C 413.36 -16.82 411.77 -19.61 409.2 -21.15 C 408.92 -21.32 408.86 -21.6 409.15 -21.77 C 411.03 -23.43 412.22 -25.82 412.22 -28.44 L 412.22 -31.12 C 412.22 -35.8 408.4 -39.9 403.33 -39.9 L 396.26 -39.9 C 395.98 -39.9 395.69 -39.67 395.69 -39.33 Z M 401.96 -6.84 L 401.96 -6.84 L 401.96 -17.39 C 401.96 -17.67 402.19 -17.96 402.53 -17.96 L 404.47 -17.96 C 406.41 -17.96 407.09 -17.27 407.09 -15.45 L 407.09 -8.78 C 407.09 -6.95 406.41 -6.27 404.47 -6.27 L 402.53 -6.27 C 402.25 -6.27 401.96 -6.5 401.96 -6.84 Z M 401.96 -24.8 L 401.96 -24.8 L 401.96 -33.06 C 401.96 -33.34 402.19 -33.63 402.53 -33.63 L 403.33 -33.63 C 405.27 -33.63 405.95 -32.95 405.95 -31.12 L 405.95 -26.73 C 405.95 -24.91 405.27 -24.23 403.33 -24.23 L 402.53 -24.23 C 402.25 -24.23 401.96 -24.45 401.96 -24.8 Z M 436.28 -39.33 L 436.28 -0.57 C 436.28 -0.29 436.51 0 436.85 0 L 441.98 0 C 442.26 0 442.55 -0.23 442.55 -0.57 L 442.55 -39.33 C 442.55 -39.62 442.32 -39.9 441.98 -39.9 L 436.85 -39.9 C 436.56 -39.9 436.28 -39.67 436.28 -39.33 Z M 465.46 -39.33 L 465.46 -0.57 C 465.46 -0.29 465.69 0 466.03 0 L 471.16 0 C 471.45 0 471.73 -0.23 471.73 -0.57 L 471.73 -18.24 C 471.73 -18.53 471.79 -18.58 471.85 -18.24 L 476.18 -0.57 C 476.24 -0.29 476.52 0 476.86 0 L 482.56 0 C 482.85 0 483.13 -0.23 483.13 -0.57 L 483.13 -39.33 C 483.13 -39.62 482.9 -39.9 482.56 -39.9 L 477.43 -39.9 C 477.15 -39.9 476.86 -39.67 476.86 -39.33 L 476.86 -21.66 C 476.86 -21.38 476.81 -21.32 476.75 -21.66 L 472.42 -39.33 C 472.36 -39.62 472.07 -39.9 471.73 -39.9 L 466.03 -39.9 C 465.75 -39.9 465.46 -39.67 465.46 -39.33 Z M 506.05 -39.33 L 506.05 -0.57 C 506.05 -0.29 506.27 0 506.62 0 L 520.87 0 C 521.15 0 521.44 -0.23 521.44 -0.57 L 521.44 -5.7 C 521.44 -5.99 521.21 -6.27 520.87 -6.27 L 512.89 -6.27 C 512.6 -6.27 512.32 -6.5 512.32 -6.84 L 512.32 -16.25 C 512.32 -16.53 512.54 -16.82 512.89 -16.82 L 518.02 -16.82 C 518.3 -16.82 518.59 -17.04 518.59 -17.39 L 518.59 -22.52 C 518.59 -22.8 518.36 -23.09 518.02 -23.09 L 512.89 -23.09 C 512.6 -23.09 512.32 -23.31 512.32 -23.66 L 512.32 -33.06 C 512.32 -33.34 512.54 -33.63 512.89 -33.63 L 520.87 -33.63 C 521.15 -33.63 521.44 -33.86 521.44 -34.2 L 521.44 -39.33 C 521.44 -39.62 521.21 -39.9 520.87 -39.9 L 506.62 -39.9 C 506.33 -39.9 506.05 -39.67 506.05 -39.33 Z" stroke-linecap="round" />
</g>
</g>
</g>
<g transform="matrix(1.9211538461538462 0 0 1.9211538461538462 639.8914080493121 766.8003912004432)" id="tagline-b621d29e-823c-4ae7-9a2a-50745e6683bc-logo"  >
<g style=""  paint-order="stroke"   >
		<g transform="matrix(1 0 0 1 0 0)" id="tagline-b621d29e-823c-4ae7-9a2a-50745e6683bc-logo-path-0"  >
<path style="stroke: none; stroke-width: 0.5055428714220082; stroke-dasharray: none; stroke-linecap: butt; stroke-dashoffset: 0; stroke-linejoin: miter; stroke-miterlimit: 4; fill: rgb(0,0,0); fill-rule: nonzero; opacity: 1;"  paint-order="stroke"  transform=" translate(-142.17999999999998, 9.450000000000001)" d="M 6.75 0.27 C 9.29 0.27 11.34 -0.43 11.34 -4.05 L 11.34 -4.59 C 11.34 -8.94 4.05 -11.72 4.05 -14.31 C 4.05 -16.77 5.1 -17.28 6.75 -17.28 C 8.4 -17.28 9.45 -16.77 9.45 -14.31 L 9.45 -13.23 L 11.34 -13.23 L 11.34 -14.85 C 11.34 -18.47 9.31 -19.17 6.75 -19.17 C 4.21 -19.17 2.16 -18.47 2.16 -14.85 L 2.16 -14.31 C 2.16 -10.42 9.45 -7.64 9.45 -4.59 C 9.45 -2.13 8.4 -1.62 6.75 -1.62 C 5.1 -1.62 4.05 -2.13 4.05 -4.59 L 4.05 -5.99 L 2.16 -5.99 L 2.16 -4.05 C 2.16 -0.49 4.18 0.27 6.75 0.27 Z M 37.66 -18.9 L 33.34 -18.9 L 33.34 -17.28 L 34.56 -17.28 L 34.56 -1.62 L 33.34 -1.62 L 33.34 0 L 37.66 0 L 37.66 -1.62 L 36.45 -1.62 L 36.45 -17.28 L 37.66 -17.28 Z M 60.21 -18.9 L 60.21 0 L 62.1 0 L 62.1 -14.31 L 67.99 0 L 69.88 0 L 69.88 -18.9 L 67.99 -18.9 L 67.99 -4.59 L 62.1 -18.9 Z M 100.12 -14.31 L 100.12 -11.61 L 102.01 -11.61 L 102.01 -14.85 C 102.01 -18.47 99.98 -19.17 97.42 -19.17 C 94.88 -19.17 92.83 -18.47 92.83 -14.85 L 92.83 -4.05 C 92.83 -0.43 94.88 0.27 97.42 0.27 C 99.98 0.27 102.01 -0.49 102.01 -4.05 L 102.01 -5.18 L 100.12 -5.18 L 100.12 -4.59 C 100.12 -2.13 99.06 -1.62 97.42 -1.62 C 95.77 -1.62 94.72 -2.13 94.72 -4.59 L 94.72 -14.31 C 94.72 -16.77 95.77 -17.28 97.42 -17.28 C 99.06 -17.28 100.12 -16.77 100.12 -14.31 Z M 124.69 -18.9 L 124.69 0 L 132.79 0 L 132.79 -1.62 L 126.58 -1.62 L 126.58 -8.64 L 131.17 -8.64 L 131.17 -10.26 L 126.58 -10.26 L 126.58 -17.28 L 132.52 -17.28 L 132.52 -18.9 Z M 187.06 -1.62 L 180.17 -1.62 L 185.95 -9.77 C 186.76 -10.94 187.06 -11.93 187.06 -13.31 L 187.06 -13.5 C 187.06 -17.12 185.3 -17.82 182.74 -17.82 C 180.17 -17.82 178.15 -17.12 178.15 -13.5 L 178.15 -12.82 L 180.04 -12.82 L 180.04 -13.23 C 180.04 -15.69 181.09 -16.2 182.74 -16.2 C 184.38 -16.2 185.17 -15.69 185.17 -13.23 L 185.17 -13.12 C 185.17 -12.26 184.95 -11.66 184.46 -10.96 L 177.88 -1.62 L 177.88 0 L 187.06 0 Z M 216.81 -4.32 L 216.81 -11.88 L 217.76 -11.34 C 217.76 -9.94 217.38 -8.96 216.81 -8.29 C 215.97 -7.29 214.73 -7.02 213.84 -7.02 C 211.57 -7.02 209.52 -7.72 209.52 -11.34 L 209.52 -13.5 C 209.52 -17.06 211.55 -17.82 214.11 -17.82 C 216.68 -17.82 218.7 -17.06 218.7 -13.5 L 218.7 -4.05 C 218.7 -0.49 216.68 0.27 214.11 0.27 C 211.55 0.27 209.52 -0.49 209.52 -4.05 L 209.52 -5.13 L 211.41 -5.13 L 211.41 -4.32 C 211.41 -1.86 212.46 -1.35 214.11 -1.35 C 215.76 -1.35 216.81 -1.86 216.81 -4.32 Z M 211.41 -11.88 C 211.41 -9.42 212.46 -8.91 214.11 -8.91 C 215.76 -8.91 216.81 -9.42 216.81 -11.88 L 216.81 -13.23 C 216.81 -15.69 215.76 -16.2 214.11 -16.2 C 212.46 -16.2 211.41 -15.69 211.41 -13.23 Z M 246.89 -17.55 L 239.79 -5.67 L 239.79 -4.05 L 246.89 -4.05 L 246.89 0 L 248.78 0 L 248.78 -4.05 L 250.24 -4.05 L 250.24 -5.67 L 248.78 -5.67 L 248.78 -17.55 Z M 241.68 -5.67 L 246.89 -14.39 L 246.89 -5.67 Z M 274.91 -13.23 L 274.91 -5.67 L 273.97 -6.21 C 273.97 -7.61 274.35 -8.59 274.91 -9.26 C 275.75 -10.26 276.99 -10.53 277.88 -10.53 C 280.15 -10.53 282.2 -9.83 282.2 -6.21 L 282.2 -4.05 C 282.2 -0.49 280.18 0.27 277.61 0.27 C 275.05 0.27 273.02 -0.49 273.02 -4.05 L 273.02 -13.5 C 273.02 -17.06 275.05 -17.82 277.61 -17.82 C 280.18 -17.82 282.2 -17.06 282.2 -13.5 L 282.2 -12.42 L 280.31 -12.42 L 280.31 -13.23 C 280.31 -15.69 279.26 -16.2 277.61 -16.2 C 275.97 -16.2 274.91 -15.69 274.91 -13.23 Z M 274.91 -4.32 C 274.91 -1.86 275.97 -1.35 277.61 -1.35 C 279.26 -1.35 280.31 -1.86 280.31 -4.32 L 280.31 -5.67 C 280.31 -8.13 279.26 -8.64 277.61 -8.64 C 275.97 -8.64 274.91 -8.13 274.91 -5.67 Z" stroke-linecap="round" />
</g>
</g>
</g>
<g transform="matrix(3.3379763415330337 0 0 3.3379763415330337 640.034053722389 684.0669943972498)" id="shape-14934c16-7f91-41b0-b360-8cbc61dcb73c"  >
<g style=""  paint-order="stroke"   >
		<g transform="matrix(1 0 0 1 0 8.8818e-16)" id="path-01_00000052793575798338509190000012451360716198163874_"  >
<polygon style="stroke: none; stroke-width: 1; stroke-dasharray: none; stroke-linecap: butt; stroke-dashoffset: 0; stroke-linejoin: miter; stroke-miterlimit: 4; fill: rgb(60,60,60); fill-rule: nonzero; opacity: 1;"  paint-order="stroke"  points="150,-3.520279999999999 97.60096999999999,-3.520279999999999 96.08755,-3.520279999999999 94.57414,-3.520279999999999 94.57414,-0.20278999999999936 87.72140999999999,-7.245679999999999 87.72140999999999,0.49382000000000037 36.836780000000005,0.49382000000000037 36.836780000000005,-7.2480199999999995 29.98304999999999,-0.2051299999999996 29.98304999999999,-3.5226199999999994 26.956220000000002,-3.5226199999999994 26.956220000000002,-3.520279999999999 -25.442809999999994,-3.520279999999999 -26.956220000000002,-3.520279999999999 -28.46964,-3.520279999999999 -28.46964,-0.20278999999999936 -35.32237000000001,-7.245679999999999 -35.32237000000001,0.49382000000000037 -86.207,0.49382000000000037 -86.207,-7.2480199999999995 -93.06072,-0.2051299999999996 -93.06072,-3.5226199999999994 -96.08755,-3.5226199999999994 -96.08755,-3.520279999999999 -150,-3.520279999999999 -150,-0.4934499999999993 -96.08755,-0.4934499999999993 -96.08755,7.24568 -89.23383,0.20279000000000025 -89.23383,3.5202800000000014 -87.72041999999999,3.5202800000000014 -87.72041999999999,3.52065 -35.32237000000001,3.52065 -35.32237000000001,3.52262 -32.29554,3.52262 -32.29554,0.20513000000000048 -25.442809999999994,7.24802 -25.442809999999994,-0.4934499999999993 26.956220000000002,-0.4934499999999993 26.956220000000002,7.24568 33.80994000000001,0.20279000000000025 33.80994000000001,3.5202800000000014 35.32336000000001,3.5202800000000014 35.32336000000001,3.52065 87.72140999999999,3.52065 87.72140999999999,3.52262 90.74823,3.52262 90.74823,0.20513000000000048 97.60096999999999,7.24802 97.60096999999999,-0.4934499999999993 150,-0.4934499999999993 " />
</g>
</g>
</g>
</svg>