<?xml version="1.0" encoding="UTF-8" standalone="no" ?>
<!DOCTYPE svg PUBLIC "-//W3C//DTD SVG 1.1//EN" "http://www.w3.org/Graphics/SVG/1.1/DTD/svg11.dtd">
<svg xmlns="http://www.w3.org/2000/svg" xmlns:xlink="http://www.w3.org/1999/xlink" version="1.1" width="690" height="210" viewBox="250 200 800 490" xml:space="preserve">
<desc>Created with Fabric.js 4.4.0</desc>
<defs>
</defs>
<g transform="matrix(1 0 0 1 640 512)" id="background-logo"  >
<rect style="stroke: none; stroke-width: 0; stroke-dasharray: none; stroke-linecap: butt; stroke-dashoffset: 0; stroke-linejoin: miter; stroke-miterlimit: 4; fill: rgb(255,255,255); fill-opacity: 0; fill-rule: nonzero; opacity: 1;"  paint-order="stroke"  x="-640" y="-512" rx="0" ry="0" width="1280" height="1024" />
</g>
<g transform="matrix(3.025916433895676 0 0 3.025916433895676 653.9599069923825 566.8069122159174)" id="shape-f2be67a2-a3f3-4b2f-96e8-56c6b0a95131"  >
<g style=""  paint-order="stroke"   >
		<g transform="matrix(1 0 0 1 62.369389247280154 -39.75934988525348)" id="path-01"  >
<linearGradient id="SVGID_756984" gradientUnits="userSpaceOnUse" gradientTransform="matrix(1 0 0 1 164.0955559992509 0.00000169814551398417)"  x1="0" y1="0" x2="0" y2="6">
<stop offset="0%" style="stop-color:rgb(48,35,174);stop-opacity: 1"/>
<stop offset="100%" style="stop-color:rgb(200,109,215);stop-opacity: 1"/>
</linearGradient>
<path style="stroke: none; stroke-width: 1; stroke-dasharray: none; stroke-linecap: butt; stroke-dashoffset: 0; stroke-linejoin: miter; stroke-miterlimit: 4; fill: url(#SVGID_756984); fill-rule: nonzero; opacity: 1;"  paint-order="stroke"  transform=" translate(-187.3694021295371, -3.0854473843949806)" d="M 177.03323 4.46232 C 173.05735 3.75877 169.01336 2.93012 164.92884 2.38001 C 163.78574 2.22605 163.83215 1.1103 164.9854 0.99512 C 176.98369 -0.20328999999999997 189.18892 -0.3312299999999999 201.25014 0.6762600000000001 C 204.12444 0.9077000000000001 209.30207 1.00313 210.44361999999998 3.23666 C 211.07551999999998 4.4762900000000005 210.1582 5.19786 208.38474999999997 5.45689 C 206.28519999999997 5.756489999999999 204.10402999999997 5.8928199999999995 201.96367999999995 6.01519 C 193.54482999999996 6.478389999999999 185.18707999999995 5.89283 177.03322999999995 4.46233 L 177.03323 4.46232 z" stroke-linecap="round" />
</g>
		<g transform="matrix(1 0 0 1 -122.27770503642726 36.33014368112306)" id="path-01"  >
<linearGradient id="SVGID_756985" gradientUnits="userSpaceOnUse" gradientTransform="matrix(1 0 0 1 5.8601460439789e-7 72.66028906039163)"  x1="0" y1="0" x2="0" y2="13">
<stop offset="0%" style="stop-color:rgb(48,35,174);stop-opacity: 1"/>
<stop offset="100%" style="stop-color:rgb(200,109,215);stop-opacity: 1"/>
</linearGradient>
<path style="stroke: none; stroke-width: 1; stroke-dasharray: none; stroke-linecap: butt; stroke-dashoffset: 0; stroke-linejoin: miter; stroke-miterlimit: 4; fill: url(#SVGID_756985); fill-rule: nonzero; opacity: 1;"  paint-order="stroke"  transform=" translate(-2.7223078458296626, -79.17494095077151)" d="M 4.12177 73.27008 C 4.00291 72.56961999999999 3.05962 72.43271999999999 2.7433299999999994 73.06891999999999 C 1.9344599999999994 74.6959 0.8721599999999994 76.98441999999999 0.4790999999999994 78.51164999999999 C -0.1238200000000006 80.83530999999999 -0.6718900000000005 84.55107999999998 2.2438599999999997 85.55971 C 3.41673 85.96513999999999 4.458 85.38441999999999 4.99517 84.33192 C 5.6638 83.02759 5.44455 81.48214 5.23629 80.09002 C 4.9603 78.2522 4.46382 75.28571 4.12177 73.27008 z" stroke-linecap="round" />
</g>
		<g transform="matrix(1 0 0 1 0.7021152609202375 -5.182245909494377)" id="path-01"  >
<linearGradient id="SVGID_756986" gradientUnits="userSpaceOnUse" gradientTransform="matrix(1 0 0 1 1.4042311078550966 2.667320000000011)"  x1="0" y1="0" x2="0" y2="70">
<stop offset="0%" style="stop-color:rgb(48,35,174);stop-opacity: 1"/>
<stop offset="100%" style="stop-color:rgb(200,109,215);stop-opacity: 1"/>
</linearGradient>
<path style="stroke: none; stroke-width: 1; stroke-dasharray: none; stroke-linecap: butt; stroke-dashoffset: 0; stroke-linejoin: miter; stroke-miterlimit: 4; fill: url(#SVGID_756986); fill-rule: nonzero; opacity: 1;"  paint-order="stroke"  transform=" translate(-125.70212814317716, -37.662551360154076)" d="M 244.45203 47.63067 C 243.82724000000002 47.049690000000005 243.11472 46.56718 242.35839 46.172720000000005 C 241.61303 45.788970000000006 240.81289 45.52591 240.17710000000002 44.96687000000001 C 239.59618000000003 44.46269000000001 239.12485000000004 43.717400000000005 239.07000000000002 42.92821000000001 C 239.05909000000003 42.70877000000001 239.08097 42.50057000000001 239.12486 42.292370000000005 C 239.10293000000001 42.171940000000006 239.10293000000001 42.05125 239.14674000000002 41.908620000000006 C 240.03462000000002 38.65341000000001 237.69984000000002 35.91308000000001 235.06916 34.345420000000004 C 234.30186 33.885130000000004 233.67724 33.14808000000001 232.88787000000002 32.690250000000006 C 226.62107000000003 29.055550000000007 218.55045 30.585760000000008 211.34887000000003 29.741720000000008 C 215.72242000000003 29.65395000000001 220.08500000000004 29.566430000000008 224.45861000000002 29.47866000000001 C 226.31109000000004 29.445740000000008 228.17446 29.41283000000001 230.01601000000002 29.22657000000001 C 230.73941000000002 29.14977000000001 232.59584 28.93837000000001 233.73185 28.52490000000001 C 234.64671 28.19191000000001 235.46377 27.582370000000008 236.29684 27.08890000000001 C 237.46972 26.38749000000001 238.59869 25.52151000000001 239.42079 24.41441000000001 C 239.81538 23.86635000000001 240.15526 23.26368000000001 240.36345 22.61687000000001 C 240.68137 21.64143000000001 240.26483 21.04948000000001 239.64005 20.31488000000001 C 239.15775 19.72320000000001 238.62066000000002 19.17512000000001 238.06162 18.65971000000001 C 237.71084000000002 18.34179000000001 237.43337 17.902270000000012 236.9984 17.71718000000001 C 235.03032000000002 16.87974000000001 232.76728 17.09231000000001 230.94773 15.91937000000001 C 230.03791 15.33865000000001 230.60792 13.792940000000009 231.70406 14.13280000000001 C 234.20319 14.90004000000001 236.80103 15.33866000000001 239.42079999999999 15.05338000000001 C 240.70332 14.92198000000001 241.99676 14.58212000000001 243.18051999999997 14.05600000000001 C 244.19992999999997 13.59571000000001 245.70167999999998 12.90501000000001 246.08530999999996 11.73234000000001 C 246.46892999999997 10.61427000000001 245.60300999999995 9.45230000000001 244.69319999999996 8.88229000000001 C 243.53128999999996 8.13699000000001 242.01861999999997 8.10408000000001 240.67039999999997 8.12602000000001 C 237.49159999999998 8.180610000000009 234.31283999999997 8.46588000000001 231.14500999999998 8.65214000000001 C 219.65757 9.33188000000001 208.13720999999998 9.67147000000001 196.63878 9.93453000000001 C 190.89507 10.06619000000001 185.14038 10.21953000000001 179.39658 10.110080000000009 C 173.70766 10.00036000000001 168.10643 9.41938000000001 162.47229 8.608250000000009 C 156.98071 7.8081000000000085 151.53289999999998 7.369750000000009 145.97552 7.6437800000000085 C 140.64833 7.917810000000008 135.36497 8.641160000000008 130.08160999999998 9.33187000000001 C 120.07390999999998 10.625230000000009 109.48530999999998 12.082910000000009 99.52143999999998 9.71536000000001 C 97.07708999999998 10.16468000000001 94.56695999999998 10.24148000000001 92.12253999999999 9.82482000000001 C 90.96063999999998 9.61662000000001 91.26758999999998 7.80811000000001 92.38559 7.81908000000001 C 96.3317 7.85200000000001 100.25589 7.58893000000001 103.9827 6.185860000000011 C 104.87057 5.85697000000001 107.77534 4.95806000000001 106.50379 3.5772000000000106 C 105.90092999999999 2.9194200000000103 104.82674 2.8426100000000107 103.99367 2.7658000000000107 C 103.07289 2.6999700000000106 102.16315 2.667320000000011 101.24237 2.667320000000011 C 97.38401999999999 2.6782900000000107 93.55847999999999 3.291930000000011 89.75493 3.8619300000000107 C 86.01709 4.409990000000011 82.2793 4.903470000000011 78.50861 5.210150000000011 C 76.60135000000001 5.363750000000011 74.68383 5.532620000000011 72.76489000000001 5.517100000000011 C 71.71483 5.508540000000011 69.30330000000001 5.376610000000011 63.54223000000001 5.903260000000011 C 57.79244 6.42884 52.08135 7.3454 46.30424 7.66573 C 35.69369 8.24644 25.05023 8.12602 14.46163 7.28198 C 11.75415 7.06281 9.05771 6.76683 6.35023 6.50377 C 4.92527 6.3721 1.29707 5.55 1.40666 7.96171 C 1.49437 9.97842 3.29204 11.4254 5.03492 12.12679 C 7.40254 13.08055 9.89078 12.71874 12.33513 13.21195 C 13.33258 13.42042 13.29973 14.97684 12.33513 15.20699 C 10.70191 15.590739999999998 8.7727 15.61268 6.898289999999999 15.27282 C 6.996969999999999 15.73311 6.29543 16.46743 6.109109999999999 16.675639999999998 C 5.36375 17.53092 4.815689999999999 18.506359999999997 4.464919999999999 19.59152 C 4.1141499999999995 20.69862 3.9058799999999994 21.849619999999998 4.311439999999999 22.967689999999997 C 4.662209999999999 23.932159999999996 5.26507 24.776199999999996 5.484309999999999 25.78456 C 5.977579999999999 28.0646 4.125119999999999 29.68686 3.905869999999999 31.86814 C 3.818159999999999 32.8219 3.6318399999999986 34.27957 4.015449999999999 35.17848 C 4.486849999999999 36.26364 5.7692999999999985 35.55126 6.613279999999999 35.87989 C 6.722929999999999 35.92378 6.788699999999999 36.00058000000001 6.8763999999999985 36.055440000000004 C 7.139459999999999 36.09933 7.391549999999999 36.285590000000006 7.424459999999998 36.62545000000001 C 7.797099999999998 39.705650000000006 5.659639999999998 42.314310000000006 4.223709999999998 44.82450000000001 C 3.390699999999998 46.29314000000001 2.754929999999998 47.860800000000005 2.3493699999999977 49.50500000000001 C 2.239719999999998 49.94335000000001 1.6587999999999976 51.675320000000006 2.086309999999998 51.97130000000001 C 2.371249999999998 52.179500000000004 3.017999999999998 51.773810000000005 3.412589999999998 51.489070000000005 C 3.872939999999998 51.00656000000001 5.100669999999998 50.765460000000004 5.736389999999998 50.30516000000001 C 6.514659999999998 49.75710000000001 7.194259999999998 49.09930000000001 8.147899999999998 48.70485000000001 C 9.408479999999997 48.18943000000001 10.943019999999997 48.222620000000006 12.378949999999998 48.33207000000001 C 14.121829999999997 48.474700000000006 15.831789999999998 48.70485000000001 17.51981 49.04471000000001 C 18.48441 49.24194000000001 19.64631 49.65834000000001 19.62443 50.38170000000001 C 19.60249 50.809340000000006 19.15303 51.17114000000001 18.63788 51.34643000000001 C 18.11176 51.53296000000001 17.51981 51.56560000000001 16.93889 51.598520000000015 C 14.43967 51.751860000000015 11.94053 51.927410000000016 9.452290000000001 52.135610000000014 C 8.695960000000001 52.20144000000001 7.928650000000001 52.26727000000001 7.249060000000002 52.486440000000016 C 6.690020000000002 52.67270000000001 6.2077300000000015 52.979650000000014 5.944670000000002 53.36340000000001 C 5.944670000000002 53.45117000000001 5.977590000000002 53.53869000000001 5.966610000000002 53.637430000000016 C 5.966610000000002 54.700640000000014 5.352780000000002 55.62150000000002 4.859510000000002 56.520130000000016 C 4.278590000000002 57.61626000000002 1.9657100000000018 61.89107000000001 4.125120000000002 62.537880000000015 C 5.287020000000002 62.88871000000002 6.766770000000001 62.307730000000014 7.851930000000001 61.95690000000002 C 8.98098 61.59535000000002 10.109960000000001 61.20063000000002 11.293800000000001 61.05826000000002 C 13.04765 60.83882000000002 15.930420000000002 61.14577000000002 16.42369 63.23956000000002 C 16.54432 63.76568000000002 16.04007 64.43416000000002 15.44819 64.20403000000002 C 14.73567 63.91902000000002 14.065570000000001 62.93265000000002 13.39836 63.272480000000016 C 11.733640000000001 64.12038000000001 11.27186 66.22102000000001 9.77017 67.37173000000001 C 8.83848 68.07341000000001 7.73138 68.87355000000001 7.24908 69.98067000000002 C 6.8764400000000006 70.80277000000002 6.7997000000000005 71.98667000000002 7.70943 72.47988000000002 C 8.72889 73.02795000000002 10.05517 72.17293000000002 10.96498 71.75626000000003 C 12.12688 71.23014000000002 13.26683 70.67136000000002 14.4397 70.17790000000002 C 16.807380000000002 69.18052000000002 19.20792 68.30356000000002 21.68512 67.63507000000003 C 30.794040000000003 65.15781000000003 40.407070000000004 65.36601000000003 49.76808 65.24531000000003 C 60.4444 65.09198000000004 71.10974 64.79600000000003 81.78604999999999 64.86183000000003 C 92.36374999999998 64.92740000000002 102.94137999999998 65.28921000000003 113.45331999999999 66.52798000000003 C 116.08406 66.83493000000003 118.72569999999999 67.16355000000003 121.35645999999998 67.56925000000003 C 123.26371999999998 67.85425000000002 125.51076999999998 68.72024000000002 127.46185999999999 68.31455000000003 C 128.62382 68.06246000000003 128.53611999999998 67.02119000000002 127.93324999999999 66.18812000000003 C 127.29746999999999 65.33311000000003 126.26709999999999 64.80699000000003 125.33541999999998 64.35741000000003 C 123.16502999999999 63.30516000000003 120.66588999999999 62.92168000000003 118.28722999999998 62.73516000000003 C 117.77207999999997 62.69153000000003 117.59666999999997 61.92430000000003 118.15569999999998 61.79263000000003 C 119.63551999999999 61.45277000000003 121.10429999999998 61.44180000000003 122.54022999999998 61.69388000000003 C 122.58410999999998 61.562490000000025 122.68272999999998 61.46373000000003 122.85814999999998 61.40888000000003 C 130.47620999999998 59.28245000000003 138.74108999999999 60.83887000000003 146.21670999999998 62.800990000000034 C 153.27580999999998 64.66462000000003 160.17045 66.95537000000003 167.47068 67.75553000000004 C 170.9893 68.13928000000004 174.55169999999998 68.12832000000003 178.04836 67.56927000000003 C 181.49024 67.02121000000002 184.85537 66.11132000000003 188.28626 65.48673000000004 C 191.79382999999999 64.85089000000004 195.25767 64.66462000000004 198.8091 65.00422000000003 C 202.52501 65.36603000000004 206.19702 65.85923000000003 209.94577 65.89214000000003 C 211.80922 65.91408000000003 213.67265 65.92506000000003 215.53607000000002 65.91408000000003 C 217.31181000000004 65.90311000000003 219.17525000000003 66.02353000000002 220.92903 65.74949000000002 C 222.24441000000002 65.55226000000002 223.75708 64.97128000000002 224.35994000000002 63.67792000000002 C 224.86418000000003 62.58179000000002 224.29417000000004 61.21163000000002 223.06651000000002 60.99244000000002 C 222.59518000000003 60.90466000000002 222.73146000000003 60.46985000000002 222.50747 60.19229000000002 C 221.24722 58.63069000000002 218.50663 60.07160000000002 216.51165 59.95117000000002 C 215.43739 59.88534000000002 215.42641 58.28502000000002 216.51165 58.27405000000002 C 221.63058 58.197240000000015 226.78242 58.50420000000002 231.90133 58.635860000000015 C 235.89124 58.73434000000002 240.10037 58.635860000000015 243.77245 60.44437000000001 C 245.17547 61.12410000000001 247.47738999999999 62.987200000000016 249.05584 61.836480000000016 C 250.76579999999998 60.57604000000001 249.73541999999998 57.91224000000002 249.19834 56.344850000000015 C 248.13505 53.24271000000002 246.9074 49.92139000000002 244.45208 47.63065000000002 L 244.45203 47.63067 z M 73.77328 37.34882 C 75.27498 37.304930000000006 76.78765 37.272020000000005 78.28935 37.239360000000005 C 79.62667 37.20644000000001 81.23795 36.921440000000004 82.48756 37.49145000000001 C 83.05757 37.75451000000001 83.01368000000001 38.675090000000004 82.48756 38.94913000000001 C 81.19413 39.617880000000014 79.34166 39.34385000000001 77.91671 39.38774000000001 C 76.40405 39.420390000000005 74.90234 39.453570000000006 73.38968 39.48622000000001 C 70.32053 39.53011000000001 67.2404 39.58497000000001 64.1602 39.63982000000001 C 61.09105 39.69442000000001 58.010920000000006 39.69442000000001 54.930800000000005 39.65079000000001 C 53.494870000000006 39.62885000000001 52.04797000000001 39.67273000000001 50.61204000000001 39.51913000000001 C 49.55980000000001 39.39870000000001 48.222480000000004 39.22315000000001 47.477120000000006 38.39007000000001 C 47.323640000000005 38.22576000000001 47.422320000000006 37.95172000000001 47.66344000000001 37.95172000000001 C 48.321160000000006 37.92978000000001 48.98978000000001 38.11603000000001 49.65841000000001 38.18187000000001 C 50.29419000000001 38.24770000000001 50.94086000000001 38.25867000000001 51.58761000000001 38.23673000000001 C 52.95777000000001 38.20381000000001 54.32794000000001 38.09410000000001 55.687140000000014 38.01756000000001 C 58.70151000000001 37.83130000000001 61.71586000000001 37.71061000000001 64.73023 37.62284000000001 C 67.7446 37.53533000000001 70.75895 37.43658000000001 73.77331000000001 37.34881000000001 L 73.77328 37.34882 z M 38.81762 15.40424 C 40.82356 15.04269 43.048739999999995 15.2509 45.07655 15.2509 C 47.115339999999996 15.2509 49.165099999999995 15.228959999999999 51.203959999999995 15.1741 C 55.391119999999994 15.075349999999998 59.622249999999994 14.69187 63.80947 14.922009999999998 C 64.14927 14.94395 64.24788 15.459099999999998 63.88615 15.535909999999998 C 59.80857 16.390919999999998 55.5446 16.46746 51.39029 16.57718 C 49.21996 16.643009999999997 47.06056 16.664949999999997 44.89023 16.664949999999997 C 42.928110000000004 16.675649999999997 40.74682 16.818289999999998 38.817620000000005 16.379949999999997 C 38.35727 16.27023 38.32441 15.49202 38.81762 15.40424 L 38.81762 15.40424 z M 27.53844 36.35144 C 25.99293 36.439209999999996 24.39255 36.121289999999995 22.836060000000003 36.07740999999999 C 21.312420000000003 36.033519999999996 19.788780000000003 35.97865999999999 18.265150000000006 36.022549999999995 C 16.664840000000005 36.05546999999999 15.075430000000006 36.14324 13.486020000000005 36.26367 C 11.984320000000006 36.38436 10.416870000000005 36.55965 8.904200000000007 36.38436 C 8.312310000000007 36.30756 8.180790000000007 35.55129 8.761690000000007 35.33185 C 10.252420000000008 34.805730000000004 11.918550000000007 34.63044 13.486020000000007 34.45516000000001 C 15.130210000000007 34.279610000000005 16.785390000000007 34.126270000000005 18.440560000000005 34.07141000000001 C 20.040870000000005 34.02752000000001 21.674160000000004 34.02752000000001 23.263500000000004 34.23572000000001 C 24.776170000000004 34.43321000000001 26.453280000000003 34.60850000000001 27.812470000000005 35.32115000000001 C 28.327680000000004 35.59518000000001 28.053650000000005 36.31853000000001 27.538440000000005 36.35145000000001 C 27.53844 36.35145 27.53844 36.35144 27.53844 36.35144 z M 35.50734 16.27023 C 33.81926 16.752460000000003 31.89012 16.752460000000003 30.14723 16.80732 C 28.32769 16.87315 26.50806 16.851210000000002 24.69942 16.741490000000002 C 22.89085 16.632030000000004 21.0822 16.456760000000003 19.28459 16.204400000000003 C 17.651290000000003 15.985230000000003 15.689240000000002 15.897450000000003 14.187550000000002 15.185070000000003 C 13.683310000000002 14.954920000000003 13.968310000000002 14.220600000000003 14.450610000000001 14.209360000000004 C 15.33848 14.176720000000003 16.23731 14.461720000000003 17.11421 14.604080000000003 C 18.01305 14.757420000000003 18.91188 14.889080000000003 19.82169 14.998800000000003 C 21.49874 15.217970000000003 23.18682 15.371320000000003 24.87484 15.459090000000003 C 26.573829999999997 15.546860000000004 28.27282 15.590750000000003 29.96091 15.568810000000003 C 31.747609999999998 15.557840000000002 33.62195 15.316720000000002 35.39768 15.470060000000002 C 35.84713 15.502980000000003 35.967690000000005 16.138810000000003 35.50733 16.270210000000002 L 35.50734 16.27023 z M 106.19689 57.43004 C 103.64289 57.52852 101.05601999999999 57.10115 98.51299 56.870999999999995 C 96.01384 56.64084999999999 93.50367 56.46556999999999 90.99354 56.322939999999996 C 82.04907 55.79682 73.07173 55.81876 64.13830999999999 56.45433 C 59.67704999999999 56.76128 55.22674999999999 57.22184 50.787429999999986 57.81379 C 46.36998999999999 58.39451 41.842959999999984 59.600359999999995 37.37077999999998 59.04132 C 37.04188999999998 58.99743 37.03091999999998 58.50423 37.37077999999998 58.52617 C 40.01242999999998 58.69048 42.61025999999998 58.03296 45.197119999999984 57.55047 C 47.718209999999985 57.079209999999996 50.26124999999998 56.6628 52.804279999999984 56.290029999999994 C 61.617229999999985 55.02958999999999 70.50683999999998 54.37179999999999 79.39644999999999 54.26208 C 83.93444999999998 54.20748 88.48335999999999 54.33889 93.01038999999999 54.623889999999996 C 95.27938999999999 54.76624999999999 97.53742999999999 54.95278 99.79544999999999 55.171949999999995 C 101.98770999999999 55.391119999999994 104.24573999999998 55.57765 106.36126999999999 56.21321999999999 C 107.04092 56.4217 106.89843 57.40811 106.19689 57.43004 z M 180.21864 15.23992 C 187.12433 15.23992 194.01898 15.39326 200.9246 15.59075 C 204.31167 15.68923 207.69868 15.77701 211.08576 15.86478 C 212.83956 15.89742 214.60431 15.97424 216.35816 16.04007 C 218.00234 16.09493 219.78907 16.05104 221.38935 16.48939 C 221.86076 16.62105 221.90456 17.38829 221.38935 17.48705 C 219.76711 17.81567 217.99137000000002 17.65136 216.35816 17.59651 C 214.59339 17.530939999999998 212.83954 17.48705 211.08576 17.399279999999997 C 207.69869 17.245679999999997 204.31168 17.092329999999997 200.9246 16.960929999999998 C 194.008 16.675649999999997 187.11337 16.347029999999997 180.21864 15.853559999999998 C 179.82405 15.83188 179.81308 15.23993 180.21864 15.23992 z M 162.77921 45.36161 C 165.21261 44.956179999999996 167.74466 44.84646 170.21096 44.68215 C 172.73211 44.51756 175.24224 44.38617 177.75234 44.26547 C 182.81647 44.00241 187.9683 43.67352 193.03243 43.980470000000004 C 193.54763 44.01339 193.5257 44.70382000000001 193.03243 44.758680000000005 C 188.04505 45.33966 182.95897 45.38355000000001 177.93873 45.569810000000004 C 175.42855 45.66856000000001 172.91842 45.77828 170.40832 45.876760000000004 C 167.9091 45.97551000000001 165.36607 46.15079000000001 162.86694 46.03036 C 162.4942 46.01912 162.37366 45.42744 162.77921 45.36161 L 162.77921 45.36161 z M 127.75778 38.30259 C 126.55207 38.60954 125.25863 38.64219 124.03097 38.72997 C 122.71558999999999 38.828720000000004 121.4112 38.86163 120.09582999999999 38.89428 C 117.47605999999999 38.94914 114.85629999999999 38.87234 112.24756 38.74094 C 111.63373 38.708020000000005 111.63373 37.77621 112.24756 37.787440000000004 C 114.81246999999999 37.83133 117.37746 37.798140000000004 119.95333 37.743550000000006 C 121.21391 37.71063000000001 122.46345 37.644800000000004 123.72403999999999 37.60092000000001 C 125.01745999999999 37.55730000000001 126.35477999999999 37.40369000000001 127.64820999999999 37.51341000000001 C 128.07571 37.54606 128.21815 38.1819 127.75778 38.30259 z M 150.75461 16.55524 C 147.47719 16.336070000000003 144.19977 16.27024 140.92235000000002 16.22635 C 134.27979000000002 16.1276 127.65919000000002 16.55524 121.02753000000003 16.64302 C 120.76448000000002 16.64302 120.69870000000003 16.21538 120.96176000000003 16.17149 C 127.56049000000003 15.097299999999999 134.23598000000004 14.362979999999999 140.92235000000002 14.023119999999999 C 144.24367 13.858809999999998 147.61969000000002 13.902689999999998 150.93006000000003 14.132839999999998 C 152.61808000000002 14.253269999999999 154.28422000000003 14.417839999999998 155.95037000000002 14.658959999999999 C 156.78338000000002 14.790619999999999 157.63839000000002 14.900079999999999 158.46049000000002 15.097309999999998 C 159.21682 15.283839999999998 160.06086000000002 15.404259999999999 160.71852 15.84288 C 161.25561000000002 16.19344 161.24464 17.147209999999998 160.53219 17.30056 C 159.75392000000002 17.46515 158.95376000000002 17.3225 158.16451 17.25694 C 157.32053000000002 17.191110000000002 156.47649 17.07041 155.64342000000002 16.98291 C 154.01020000000003 16.82931 152.38794000000001 16.66499 150.75464000000002 16.55527 L 150.75461 16.55524 z M 212.34627 60.09357 C 211.41458 60.49927 210.51573 60.4444 209.52927 60.4444 C 208.45501 60.43343 207.39179 60.43343 206.31754999999998 60.42246 C 204.31166 60.40052 202.29475 60.40052 200.28882 60.35663 C 192.98862 60.19232 185.6993 60.159400000000005 178.41007 59.92925 C 171.10979 59.69883 163.80959 59.66619 156.53125999999997 59.019380000000005 C 156.36687999999998 58.997440000000005 156.35590999999997 58.75632 156.53125999999997 58.745340000000006 C 160.68564999999998 58.62465 164.82898999999998 58.668530000000004 168.98331999999996 58.734370000000006 C 176.20685999999995 58.85506000000001 183.44129999999996 58.81118000000001 190.66483999999997 58.78923 C 194.24921999999998 58.76729 197.83350999999996 58.734370000000006 201.41787999999997 58.67951 C 203.23742999999996 58.64659 205.06802999999996 58.62464 206.88757999999996 58.592 C 207.83023999999995 58.57006 208.77295999999996 58.55908 209.71560999999997 58.53713 C 210.55964999999998 58.51519 211.37077999999997 58.438379999999995 212.17092999999997 58.77825 C 212.66418 58.97549 212.98204 59.80857 212.34627 60.09357 z M 236.16527 44.25451 C 234.65260999999998 44.47368 233.10702999999998 44.38617 231.58344 44.33131 C 230.02688 44.276450000000004 228.48137 44.199650000000005 226.92487 44.155750000000005 C 223.81183 44.046290000000006 220.70977 43.991440000000004 217.59678 43.991440000000004 C 211.32686999999999 43.980470000000004 205.04604 44.11213000000001 198.76522 44.18867 C 198.3048 44.19964 198.33773 43.542120000000004 198.76522 43.49823 C 205.03507 42.81849 211.294 42.57738 217.59675 42.57738 C 220.76459999999997 42.57738 223.94331999999997 42.621269999999996 227.11118 42.720009999999995 C 228.6019 42.774609999999996 230.09262999999999 42.82946999999999 231.58342 42.90626999999999 C 233.10699 42.99403999999999 234.68543 43.07057999999999 236.16523999999998 43.476279999999996 C 236.51601999999997 43.57476 236.5708 44.18866 236.16523999999998 44.25449 L 236.16527 44.25451 z" stroke-linecap="round" />
</g>
		<g transform="matrix(1 0 0 1 118.13997174533917 -9.158392698852516)" id="path-01"  >
<linearGradient id="SVGID_756987" gradientUnits="userSpaceOnUse" gradientTransform="matrix(1 0 0 1 239.12419732520908 30.69505295040441)"  x1="0" y1="0" x2="0" y2="6">
<stop offset="0%" style="stop-color:rgb(48,35,174);stop-opacity: 1"/>
<stop offset="100%" style="stop-color:rgb(200,109,215);stop-opacity: 1"/>
</linearGradient>
<path style="stroke: none; stroke-width: 1; stroke-dasharray: none; stroke-linecap: butt; stroke-dashoffset: 0; stroke-linejoin: miter; stroke-miterlimit: 4; fill: url(#SVGID_756987); fill-rule: nonzero; opacity: 1;"  paint-order="stroke"  transform=" translate(-243.1399846275961, -33.686404570795936)" d="M 247.09297 33.33323 C 246.52296 31.63444 243.93612000000002 31.54666 242.47824 31.26166 C 241.83348 31.13668 240.56868 30.88532 239.66049 30.70431 C 239.27257 30.627 238.98359000000002 31.04974 239.19623 31.38327 C 239.69757 32.16959 240.37303000000003 33.30265 240.60391 34.034909999999996 C 240.83406000000002 34.76922999999999 241.00947000000002 35.63522 241.59039 36.183279999999996 C 242.14944000000003 36.720369999999996 242.99348 36.76425999999999 243.70593000000002 36.57774 C 244.59381000000002 36.33689 245.37208 35.74494 246.06263 35.163959999999996 C 246.63264 34.692699999999995 247.37800000000001 34.166579999999996 247.09299000000001 33.333239999999996 L 247.09297 33.33323 z" stroke-linecap="round" />
</g>
</g>
</g>
<g transform="matrix(1.9211538461538462 0 0 1.9211538461538462 633.9163657969157 544.5957510515559)" id="text-logo"  >
<g style=""  paint-order="stroke"   >
		<g transform="matrix(1 0 0 1 0 0)" id="text-logo-path-0"  >
<linearGradient id="SVGID_756988" gradientUnits="userSpaceOnUse" gradientTransform="matrix(1 0 0 1 -0.18000000000000682 -45.68)"  x1="0" y1="0" x2="0" y2="69">
<stop offset="0%" style="stop-color:rgb(248,77,158);stop-opacity: 1"/>
<stop offset="100%" style="stop-color:rgb(255,116,117);stop-opacity: 1"/>
</linearGradient>
<filter id="SVGID_756976" y="-27.240760761533526%" height="154.48152152306704%" x="-21.387512281915754%" width="142.7750245638315%" >
	<feGaussianBlur in="SourceAlpha" stdDeviation="0"></feGaussianBlur>
	<feOffset dx="3.3466796239807954" dy="3.3466796239807954" result="oBlur" ></feOffset>
	<feFlood flood-color="rgb(81,18,94)" flood-opacity="1"/>
	<feComposite in2="oBlur" operator="in" />
	<feMerge>
		<feMergeNode></feMergeNode>
		<feMergeNode in="SourceGraphic"></feMergeNode>
	</feMerge>
</filter>
<path style="stroke: rgb(81,18,94); stroke-width: 6.024023323165433; stroke-dasharray: none; stroke-linecap: butt; stroke-dashoffset: 0; stroke-linejoin: miter; stroke-miterlimit: 4; fill: url(#SVGID_756988); fill-rule: nonzero; opacity: 1;filter: url(#SVGID_756976);"  paint-order="stroke"  transform=" translate(-120.42, 22.57)" d="M 10.35 -2.02 L -0.18 0.06 Q 6.07 -27.72 8.39 -43.01 L 8.39 -43.01 Q 14.93 -44.97 18.2 -44.97 Q 21.47 -44.97 23.35 -44.05 Q 25.22 -43.12 26.41 -41.58 L 26.41 -41.58 Q 28.49 -38.78 28.49 -33.49 L 28.49 -33.49 Q 28.49 -30.1 27.24 -26.92 Q 25.99 -23.73 23.91 -21.26 Q 21.83 -18.8 19.09 -17.34 Q 16.36 -15.88 13.44 -15.88 L 13.44 -15.88 L 12.79 -15.88 Q 11.66 -10.89 10.35 -2.02 L 10.35 -2.02 Z M 14.04 -22.31 L 14.04 -22.31 Q 16.18 -22.84 18.02 -25.76 L 18.02 -25.76 Q 20.05 -28.97 20.05 -33.01 L 20.05 -33.01 Q 20.05 -35.27 19.03 -36.43 Q 18.02 -37.59 16.83 -37.59 L 16.83 -37.59 Q 15.29 -28.97 14.04 -22.31 Z M 33.19 -2.5 L 23.32 0.06 Q 29.5 -29.86 30.87 -42.41 L 30.87 -42.41 Q 37.77 -44.55 46.34 -44.55 L 46.34 -44.55 Q 52.76 -44.55 53.95 -40.09 L 53.95 -40.09 Q 54.31 -38.72 54.31 -36.7 Q 54.31 -34.68 53.47 -32.33 Q 52.64 -29.98 51.21 -27.84 L 51.21 -27.84 Q 48.24 -23.5 43.9 -21.18 L 43.9 -21.18 Q 46.22 -16.18 48.03 -11.75 Q 49.85 -7.32 51.1 -4.28 L 51.1 -4.28 L 41.64 -0.95 Q 37.06 -16 36.88 -18.14 L 36.88 -18.14 L 36.11 -17.9 Q 35.63 -15.17 34.68 -10.29 Q 33.73 -5.41 33.19 -2.5 L 33.19 -2.5 Z M 39.62 -36.05 L 37.65 -26.35 Q 40.03 -26.59 43.66 -29.38 L 43.66 -29.38 Q 47.41 -32.24 47.41 -34.08 L 47.41 -34.08 Q 47.41 -35.81 44.14 -36.05 L 44.14 -36.05 Q 43.18 -36.11 42.23 -36.11 L 42.23 -36.11 L 39.62 -36.05 Z M 50.56 -12.25 L 50.56 -12.25 Q 50.56 -19.03 53.71 -26.89 L 53.71 -26.89 Q 56.86 -34.74 61.98 -39.97 L 61.98 -39.97 Q 67.51 -45.56 73.58 -45.56 L 73.58 -45.56 Q 78.58 -45.56 80.9 -41.52 L 80.9 -41.52 Q 82.74 -38.25 82.74 -31.58 L 82.74 -31.58 Q 82.74 -27.96 81.7 -23.55 Q 80.66 -19.15 78.87 -15.47 Q 77.09 -11.78 74.74 -8.86 Q 72.39 -5.95 69.83 -3.93 L 69.83 -3.93 Q 64.54 0.24 59.66 0.24 L 59.66 0.24 Q 55.56 0.24 53.18 -2.74 L 53.18 -2.74 Q 50.56 -6.01 50.56 -12.25 Z M 59.6 -13.8 L 59.6 -13.8 Q 59.6 -11.42 61.62 -10.23 L 61.62 -10.23 Q 62.22 -9.81 62.99 -9.81 L 62.99 -9.81 Q 65.73 -9.81 67.84 -11.69 Q 69.95 -13.56 71.38 -16.3 Q 72.81 -19.03 73.55 -22.16 Q 74.29 -25.28 74.29 -27.84 L 74.29 -27.84 Q 74.29 -32.77 71.44 -32.77 L 71.44 -32.77 Q 67.81 -32.77 64.89 -29.21 L 64.89 -29.21 Q 62.58 -26.35 60.91 -21.41 L 60.91 -21.41 Q 59.6 -17.37 59.6 -13.8 Z M 97.73 -1.84 L 81.91 0.54 Q 84.64 -27.48 85 -44.25 L 85 -44.25 Q 89.4 -44.25 93.51 -44.61 L 93.51 -44.61 L 94.46 -44.73 Q 93.8 -37.65 93.33 -33.1 Q 92.85 -28.55 92.58 -25.73 Q 92.32 -22.9 92.08 -20.28 L 92.08 -20.28 Q 91.66 -15.82 91.19 -11.6 L 91.19 -11.6 L 92.32 -11.6 L 99.1 -43.96 Q 100.76 -44.02 102.37 -44.14 Q 103.97 -44.25 105.64 -44.34 Q 107.31 -44.43 108.73 -44.61 L 108.73 -44.61 Q 106.18 -36.34 104.3 -28.82 Q 102.43 -21.29 101.03 -15.7 Q 99.63 -10.11 97.73 -1.84 L 97.73 -1.84 Z M 101.06 -0.06 L 101.06 -0.06 Q 102.96 -6.96 104.57 -15.11 L 104.57 -15.11 Q 108.26 -33.73 109.8 -42.65 L 109.8 -42.65 L 119.32 -44.14 Q 112.54 -9.64 111.05 -1.19 L 111.05 -1.19 Q 109.39 -1.19 105.28 -0.65 Q 101.18 -0.12 101.06 -0.06 Z M 114.44 -5.35 L 114.44 -5.35 L 118.96 -14.22 Q 119.8 -12.55 122.18 -11.18 L 122.18 -11.18 Q 124.56 -9.76 125.74 -9.76 Q 126.93 -9.76 127.74 -9.99 Q 128.54 -10.23 129.19 -10.71 L 129.19 -10.71 Q 130.68 -11.78 130.68 -13.29 Q 130.68 -14.81 129.73 -16.06 Q 128.78 -17.31 127.38 -18.44 Q 125.98 -19.57 124.35 -20.73 Q 122.71 -21.89 121.34 -23.2 L 121.34 -23.2 Q 118.01 -26.17 118.01 -29.44 Q 118.01 -32.72 119.89 -35.45 Q 121.76 -38.19 124.59 -40.18 Q 127.41 -42.17 130.77 -43.33 Q 134.13 -44.49 136.45 -44.49 Q 138.77 -44.49 140.23 -44.08 Q 141.69 -43.66 142.76 -42.83 L 142.76 -42.83 Q 145.08 -40.92 145.08 -37.24 L 145.08 -37.24 Q 145.08 -36.34 144.93 -35.51 Q 144.78 -34.68 144.66 -33.67 L 144.66 -33.67 L 135.86 -31.11 Q 136.15 -32.3 136.15 -33.61 Q 136.15 -34.92 135.5 -35.72 Q 134.85 -36.52 134.1 -36.52 Q 133.36 -36.52 132.64 -36.17 Q 131.93 -35.81 131.22 -35.21 L 131.22 -35.21 Q 129.55 -33.85 129.55 -32.27 Q 129.55 -30.69 130.38 -29.71 Q 131.22 -28.73 132.44 -27.9 Q 133.66 -27.06 135.08 -26.17 Q 136.51 -25.28 137.76 -23.91 L 137.76 -23.91 Q 140.62 -20.58 140.62 -15.05 L 140.62 -15.05 Q 140.62 -8.39 135.74 -4.04 L 135.74 -4.04 Q 131.1 0.12 124.02 0.12 L 124.02 0.12 Q 118.79 0.12 114.44 -5.35 Z M 139.43 -0.06 L 139.43 -0.06 Q 141.33 -6.96 142.94 -15.11 L 142.94 -15.11 Q 146.62 -33.73 148.17 -42.65 L 148.17 -42.65 L 157.69 -44.14 Q 150.91 -9.64 149.42 -1.19 L 149.42 -1.19 Q 147.75 -1.19 143.65 -0.65 Q 139.54 -0.12 139.43 -0.06 Z M 153.88 -12.25 L 153.88 -12.25 Q 153.88 -19.03 157.03 -26.89 L 157.03 -26.89 Q 160.19 -34.74 165.3 -39.97 L 165.3 -39.97 Q 170.83 -45.56 176.9 -45.56 L 176.9 -45.56 Q 181.9 -45.56 184.22 -41.52 L 184.22 -41.52 Q 186.06 -38.25 186.06 -31.58 L 186.06 -31.58 Q 186.06 -27.96 185.02 -23.55 Q 183.98 -19.15 182.19 -15.47 Q 180.41 -11.78 178.06 -8.86 Q 175.71 -5.95 173.15 -3.93 L 173.15 -3.93 Q 167.86 0.24 162.98 0.24 L 162.98 0.24 Q 158.88 0.24 156.5 -2.74 L 156.5 -2.74 Q 153.88 -6.01 153.88 -12.25 Z M 162.92 -13.8 L 162.92 -13.8 Q 162.92 -11.42 164.94 -10.23 L 164.94 -10.23 Q 165.54 -9.81 166.31 -9.81 L 166.31 -9.81 Q 169.05 -9.81 171.16 -11.69 Q 173.27 -13.56 174.7 -16.3 Q 176.13 -19.03 176.87 -22.16 Q 177.61 -25.28 177.61 -27.84 L 177.61 -27.84 Q 177.61 -32.77 174.76 -32.77 L 174.76 -32.77 Q 171.13 -32.77 168.22 -29.21 L 168.22 -29.21 Q 165.9 -26.35 164.23 -21.41 L 164.23 -21.41 Q 162.92 -17.37 162.92 -13.8 Z M 191.23 -1.78 L 182.31 0.3 Q 189.09 -32 190.22 -44.67 L 190.22 -44.67 Q 191.06 -44.61 191.59 -44.61 L 191.59 -44.61 L 193.32 -44.61 Q 194.51 -44.61 199.98 -44.85 L 199.98 -44.85 Q 200.81 -40.57 201.53 -36.88 L 201.53 -36.88 Q 203.43 -26.29 204.14 -23.26 L 204.14 -23.26 Q 204.38 -24.51 204.68 -26.11 Q 204.97 -27.72 205.33 -29.47 Q 205.69 -31.23 206.05 -33.07 L 206.05 -33.07 Q 206.64 -35.99 208.48 -44.79 L 208.48 -44.79 L 215.92 -45.68 Q 209.44 -15.64 207.83 -2.56 L 207.83 -2.56 Q 207.12 -2.56 202.92 -1.55 Q 198.73 -0.54 197.9 -0.24 L 197.9 -0.24 Q 196.71 -16.54 195.28 -23.32 L 195.28 -23.32 Q 195.1 -22.19 194.8 -20.67 Q 194.51 -19.15 194.21 -17.43 L 194.21 -17.43 Q 193.08 -10.94 191.23 -1.78 L 191.23 -1.78 Z M 210.39 -5.35 L 210.39 -5.35 L 214.91 -14.22 Q 215.74 -12.55 218.12 -11.18 L 218.12 -11.18 Q 220.5 -9.76 221.69 -9.76 Q 222.88 -9.76 223.68 -9.99 Q 224.49 -10.23 225.14 -10.71 L 225.14 -10.71 Q 226.63 -11.78 226.63 -13.29 Q 226.63 -14.81 225.67 -16.06 Q 224.72 -17.31 223.33 -18.44 Q 221.93 -19.57 220.29 -20.73 Q 218.66 -21.89 217.29 -23.2 L 217.29 -23.2 Q 213.96 -26.17 213.96 -29.44 Q 213.96 -32.72 215.83 -35.45 Q 217.7 -38.19 220.53 -40.18 Q 223.35 -42.17 226.72 -43.33 Q 230.08 -44.49 232.4 -44.49 Q 234.72 -44.49 236.17 -44.08 Q 237.63 -43.66 238.7 -42.83 L 238.7 -42.83 Q 241.02 -40.92 241.02 -37.24 L 241.02 -37.24 Q 241.02 -36.34 240.87 -35.51 Q 240.72 -34.68 240.6 -33.67 L 240.6 -33.67 L 231.8 -31.11 Q 232.1 -32.3 232.1 -33.61 Q 232.1 -34.92 231.44 -35.72 Q 230.79 -36.52 230.05 -36.52 Q 229.3 -36.52 228.59 -36.17 Q 227.88 -35.81 227.16 -35.21 L 227.16 -35.21 Q 225.5 -33.85 225.5 -32.27 Q 225.5 -30.69 226.33 -29.71 Q 227.16 -28.73 228.38 -27.9 Q 229.6 -27.06 231.03 -26.17 Q 232.46 -25.28 233.7 -23.91 L 233.7 -23.91 Q 236.56 -20.58 236.56 -15.05 L 236.56 -15.05 Q 236.56 -8.39 231.68 -4.04 L 231.68 -4.04 Q 227.04 0.12 219.96 0.12 L 219.96 0.12 Q 214.73 0.12 210.39 -5.35 Z" stroke-linecap="round" />
</g>
</g>
</g>
<g transform="matrix(3.971931048141909 0 0 3.971931048141909 653.9599069923825 326.6243547147247)" id="shape-1c33ff71-4f57-4d41-a083-0fc03600c39a"  >
<g style=""  paint-order="stroke"   >
		<g transform="matrix(1 0 0 1 -0.0008440000000078385 14.365376557302433)" id="path-7"  >
<path style="stroke: none; stroke-width: 1; stroke-dasharray: none; stroke-linecap: butt; stroke-dashoffset: 0; stroke-linejoin: miter; stroke-miterlimit: 4; fill: rgb(58,56,66); fill-rule: nonzero; opacity: 1;"  paint-order="stroke"  transform=" translate(-41.69930004999999, -46.30762865)" d="M 80.3089218 29.8272381 L 80.3089218 58.8669777 C 80.3089218 61.0774078 78.51695249999999 62.8695374 76.30630489999999 62.8695374 L 7.0974393 62.8695374 C 4.8867902999999995 62.8695374 3.089678299999999 61.0774117 3.089678299999999 58.8669777 L 3.089678299999999 29.7457199 C 3.0896783 29.7457199 80.3089142 29.8272362 80.3089218 29.8272381 z" stroke-linecap="round" />
</g>
		<g transform="matrix(1 0 0 1 0.12106870000000214 12.126098050000003)" id="path-6"  >
<path style="stroke: none; stroke-width: 1; stroke-dasharray: none; stroke-linecap: butt; stroke-dashoffset: 0; stroke-linejoin: miter; stroke-miterlimit: 4; fill: rgb(35,34,38); fill-rule: nonzero; opacity: 1;"  paint-order="stroke"  transform=" translate(-41.82121275, -44.06835014269757)" d="M 69.3163605 38.8638649 C 69.3163605 42.6530495 66.2359162 45.7357521 62.4497834 45.7357521 C 58.663345400000004 45.7357521 55.5829011 42.6530495 55.5829011 38.863864899999996 L 55.5829011 34.993930799999994 L 27.664444 34.993930799999994 L 27.664444 38.863864899999996 C 27.664444 42.653049499999995 24.5839997 45.7357521 20.7978058 45.7357521 C 17.011428799999997 45.7357521 13.9309845 42.6530495 13.9309845 38.863864899999996 L 13.9309845 34.993930799999994 L 3.0896759 34.993930799999994 L 3.0896759 30.404331199999994 L 13.9309845 30.404331199999994 L 13.9309845 27.856357599999996 C 13.9309845 25.869052899999996 15.5478668 24.252170599999996 17.535415699999998 24.252170599999996 L 24.060257 24.252170599999996 C 26.0475617 24.252170599999996 27.664444 25.869052899999996 27.664444 27.856357599999996 L 27.664444 30.404331199999994 L 55.582901 30.404331199999994 L 55.582901 27.856357599999996 C 55.582901 25.869052899999996 57.1997833 24.252170599999996 59.1873322 24.252170599999996 L 65.7121735 24.252170599999996 C 67.6994782 24.252170599999996 69.3163605 25.869052899999996 69.3163605 27.856357599999996 L 69.3163605 30.404331199999994 L 80.3089142 30.404331199999994 L 80.3089142 34.993930799999994 L 69.3163605 34.993930799999994 L 69.3163605 38.8638649 z M 14.9992218 57.8613014 L 10.7630157 57.8613014 C 9.6198883 57.8613014 8.693191500000001 56.934665700000004 8.6932525 55.791538200000005 L 8.6932525 53.215488400000005 C 8.6932525 52.5505714 8.15419 52.0115089 7.489212 52.0115089 L 2.6276398 52.0115089 C 2.2587433 52.0115089 1.9596709999999997 52.310520100000005 1.9596709999999997 52.6794777 L 1.9596709999999997 58.9485817 C 1.9596709999999997 61.692600299999995 4.197647099999999 63.9098244 6.941482499999999 63.8843117 L 15.541519099999999 63.804233599999996 C 15.907974199999998 63.800876699999996 16.2032623 63.502781 16.2032623 63.136325899999996 L 16.2032623 59.065341999999994 C 16.2032623 58.4003639 15.6641998 57.8613014 14.9992218 57.8613014 z M 81.0147247 52.011692 L 76.1532135 52.011692 C 75.4882355 52.011692 74.949173 52.550693499999994 74.949173 53.2156715 L 74.949173 55.7916603 C 74.949173 56.9347267 74.0225373 57.861423499999994 72.8794098 57.861423499999994 L 68.6432037 57.861423499999994 C 67.9782257 57.861423499999994 67.4391632 58.40042499999999 67.4391632 59.065402999999996 L 67.4391632 63.1362648 C 67.4391632 63.5027809 67.73445129999999 63.8008156 68.1009064 63.804233599999996 L 76.700943 63.884250699999996 C 79.44477839999999 63.909763399999996 81.6827545 61.692600299999995 81.6827545 58.948642799999995 L 81.6827545 52.679660899999995 C 81.6827545 52.3107643 81.3836823 52.011692 81.0147247 52.011692 z" stroke-linecap="round" />
</g>
		<g transform="matrix(1 0 0 1 0.001546863074993965 -25.929459842697565)" id="path-5"  >
<path style="stroke: none; stroke-width: 1; stroke-dasharray: none; stroke-linecap: butt; stroke-dashoffset: 0; stroke-linejoin: miter; stroke-miterlimit: 4; fill: rgb(35,34,38); fill-rule: nonzero; opacity: 1;"  paint-order="stroke"  transform=" translate(-41.70169091307499, -6.01279225)" d="M 55.582901 11.6541491 L 55.582901 12.0256091 L 52.5196686 12.0256091 L 52.5196686 11.6722155 L 51.2636261 11.6796618 L 51.2635651 11.6791735 C 51.2589875 10.881199899999999 51.7914582 10.2123156 52.5196686 9.9958239 L 52.5196686 3.9213004 C 52.5196686 3.4481558999999997 52.1344757 3.0632070999999996 51.6613312 3.0632070999999996 L 31.7390289 3.0632070999999996 C 31.2658844 3.0632070999999996 30.8807525 3.4481557999999994 30.8807525 3.9213004 L 30.8807525 9.9829464 C 31.6029815 10.196386299999999 32.1352691 10.854772599999999 32.1398467 11.6467037 L 30.8807526 11.65415 L 30.8807526 12.02561 L 27.8175202 12.02561 L 27.8175202 11.6722164 L 26.5614777 11.6796627 L 26.5614777 11.679174399999999 C 26.556839 10.881261799999999 27.0893097 10.2123165 27.8175202 9.9958248 L 27.8175202 3.9213004 C 27.8175202 1.7589468999999998 29.5767365 -0.000025500000000011624 31.739029000000002 -0.000025500000000011624 L 51.661331200000006 -0.000025500000000011624 C 53.82368470000001 -0.000025500000000011624 55.58290100000001 1.7589467 55.58290100000001 3.9213004 L 55.58290100000001 9.9829464 C 56.305130000000005 10.196386299999999 56.83741760000001 10.854772599999999 56.841934200000004 11.6467037 C 56.8419342 11.6467037 55.582901 11.65415 55.582901 11.6541491 z" stroke-linecap="round" />
</g>
		<g transform="matrix(1 0 0 1 -0.0008437500000013642 -13.377444192697565)" id="path-4_00000163066597118271390770000004217841656783512746_"  >
<path style="stroke: none; stroke-width: 1; stroke-dasharray: none; stroke-linecap: butt; stroke-dashoffset: 0; stroke-linejoin: miter; stroke-miterlimit: 4; fill: rgb(253,174,65); fill-rule: nonzero; opacity: 1;"  paint-order="stroke"  transform=" translate(-41.6993003, -18.564807899999998)" d="M 80.3089218 15.5934267 L 80.3089218 25.3600082 L 25.966995199999992 25.4876442 L 15.572399099999993 25.508085299999998 L 3.0896788 25.5387478 L 3.0896788 15.5934267 C 3.0896788 13.382745700000001 4.8867913000000005 11.590868 7.0974398 11.590868 L 76.30630210000001 11.590868 C 78.5169525 11.590868 80.3089218 13.3827457 80.3089218 15.5934267 z" stroke-linecap="round" />
</g>
		<g transform="matrix(1 0 0 1 -0.0008489499999981831 -12.920517792697563)" id="path-3"  >
<path style="stroke: none; stroke-width: 1; stroke-dasharray: none; stroke-linecap: butt; stroke-dashoffset: 0; stroke-linejoin: miter; stroke-miterlimit: 4; fill: rgb(221,140,40); fill-rule: nonzero; opacity: 1;"  paint-order="stroke"  transform=" translate(-41.6992951, -19.021734300000002)" d="M 80.3089142 25.4078732 L 67.8284454 25.4078732 L 67.8284454 26.452612000000002 L 57.4338531 26.452612000000002 L 57.4338531 25.4078732 L 46.8966217 25.4078732 L 46.8966217 26.452612000000002 L 36.5020294 26.452612000000002 L 36.5020294 25.4078732 L 25.9669952 25.4078732 L 25.9669952 26.452612000000002 L 15.572403 26.452612000000002 L 15.572403 25.4078732 L 3.0896759 25.4078732 L 3.0896759 20.193883900000003 L 15.572403 20.193883900000003 L 15.572403 11.590856600000002 L 25.9669953 11.590856600000002 L 25.9669953 20.193883900000003 L 36.5020295 20.193883900000003 L 36.5020295 11.590856600000002 L 46.8966218 11.590856600000002 L 46.8966218 20.193883900000003 L 57.4338532 20.193883900000003 L 57.4338532 11.590856600000002 L 67.8284455 11.590856600000002 L 67.8284455 20.193883900000003 L 80.3089143 20.193883900000003 L 80.3089143 25.4078732 z" stroke-linecap="round" />
</g>
		<g transform="matrix(1 0 0 1 0 -4.166006942697562)" id="path-2"  >
<path style="stroke: none; stroke-width: 1; stroke-dasharray: none; stroke-linecap: butt; stroke-dashoffset: 0; stroke-linejoin: miter; stroke-miterlimit: 4; fill: rgb(87,86,96); fill-rule: nonzero; opacity: 1;"  paint-order="stroke"  transform=" translate(-41.70014405, -27.77624515)" d="M 16.4539032 31.1433392 L 2.5388074 31.1433392 C 1.1366628 31.1433392 0 29.8298607 0 28.2096043 L 0 27.342886 C 0 25.7226296 1.1366628 24.4091511 2.5388074 24.4091511 L 80.8614774 24.4091511 C 82.2636228 24.4091511 83.4002881 25.722629599999998 83.4002881 27.342886 L 83.4002881 28.2096043 C 83.4002881 29.829860699999998 82.2636228 31.1433392 80.8614774 31.1433392 L 66.9463882 31.1433392" stroke-linecap="round" />
</g>
		<g transform="matrix(1 0 0 1 0.015757299999997088 -5.196002892697564)" id="path-1"  >
<path style="stroke: none; stroke-width: 1; stroke-dasharray: none; stroke-linecap: butt; stroke-dashoffset: 0; stroke-linejoin: miter; stroke-miterlimit: 4; fill: rgb(253,174,65); fill-rule: nonzero; opacity: 1;"  paint-order="stroke"  transform=" translate(-41.715901349999996, -26.7462492)" d="M 23.9257793 24.4091492 L 17.612482 24.4091492 L 17.612482 12.6995106 C 17.612482 11.3795109 18.6825542 10.3094397 20.0025539 10.3094397 L 21.5357093 10.3094397 C 22.855709 10.3094397 23.9257812 11.3795109 23.9257812 12.6995106 C 23.9257812 12.6995106 23.9257812 24.4091492 23.9257793 24.4091492 z M 65.787796 12.6995096 C 65.787796 11.3795099 64.7177276 10.309438700000001 63.3977241 10.309438700000001 L 61.8645668 10.309438700000001 C 60.5445671 10.309438700000001 59.474494899999996 11.3795099 59.474494899999996 12.6995096 L 59.474494899999996 24.4091491 L 65.787796 24.4091491 L 65.787796 12.6995096 z M 44.8567886 12.6995096 C 44.8567886 11.3795099 43.7867164 10.309438700000001 42.4667167 10.309438700000001 L 40.9335594 10.309438700000001 C 39.6135597 10.309438700000001 38.5434875 11.3795099 38.5434875 12.6995096 L 38.5434875 24.4091491 L 44.8567848 24.4091491 C 44.8567848 24.4091492 44.8567848 12.6995096 44.8567886 12.6995096 z M 25.1118603 27.8566208 L 25.1118603 38.8639069 C 25.1118603 41.2480927 23.1820336 43.1830597 20.7977867 43.1830597 C 18.4135723 43.1830597 16.4837131 41.2480927 16.4837131 38.8639069 L 16.4837131 27.8566208 C 16.4837131 27.2745342 16.953432 26.8048763 17.5354557 26.8048763 L 24.0601463 26.8048763 C 24.64217 26.8048763 25.1118584 27.2745342 25.1118603 27.8566208 z M 22.7940178 38.4912224 C 22.7940178 37.408817299999995 21.9107609 36.5255928 20.8284187 36.5255928 C 19.7409649 36.5255928 18.8577404 37.408817299999995 18.8577404 38.4912224 C 18.8577404 39.5786133 19.7409649 40.4618378 20.8284187 40.4618378 C 21.9107628 40.4618378 22.7940178 39.5786133 22.7940178 38.4912224 z M 66.9480896 27.8566208 L 66.9480896 38.8639069 C 66.9480896 41.2480927 65.0131531 43.1830597 62.628906300000004 43.1830597 C 60.249801700000006 43.1830597 58.31486520000001 41.2480927 58.31486520000001 38.8639069 L 58.31486520000001 27.8566208 C 58.31486520000001 27.2745342 58.78455360000001 26.8048763 59.36657720000001 26.8048763 L 65.89637760000001 26.8048763 C 66.4732895 26.8048763 66.9480896 27.2745342 66.9480896 27.8566208 z M 64.599617 38.4912224 C 64.599617 37.408817299999995 63.716362 36.5255928 62.628906199999996 36.5255928 C 61.546562099999996 36.5255928 60.66333769999999 37.408817299999995 60.66333769999999 38.4912224 C 60.66333769999999 39.5786133 61.54656219999999 40.4618378 62.628906199999996 40.4618378 C 63.7163582 40.4618378 64.599617 39.5786133 64.599617 38.4912224 z" stroke-linecap="round" />
</g>
</g>
</g>
</svg>