<?xml version="1.0" encoding="UTF-8" standalone="no" ?>
<!DOCTYPE svg PUBLIC "-//W3C//DTD SVG 1.1//EN" "http://www.w3.org/Graphics/SVG/1.1/DTD/svg11.dtd">
<svg xmlns="http://www.w3.org/2000/svg" xmlns:xlink="http://www.w3.org/1999/xlink" version="1.1" width="680" height="210" viewBox="250 200 800 510" xml:space="preserve">
<desc>Created with Fabric.js 4.4.0</desc>
<defs>
</defs>
<g transform="matrix(1 0 0 1 640 512)" id="background-logo"  >
<rect style="stroke: none; stroke-width: 0; stroke-dasharray: none; stroke-linecap: butt; stroke-dashoffset: 0; stroke-linejoin: miter; stroke-miterlimit: 4; fill: rgb(255,255,255); fill-opacity: 0; fill-rule: nonzero; opacity: 1;"  paint-order="stroke"  x="-640" y="-512" rx="0" ry="0" width="1280" height="1024" />
</g>
<g transform="matrix(0.9812225882901929 0 0 0.9812225882901929 650.3518331817718 342.7676230954813)" id="shape-61b100f0-fdb9-42e5-83db-8fd776a85809"  >
<g style=""  paint-order="stroke"   >
		<g transform="matrix(1 0 0 1 0 0)" id="path-01_00000047748013155569152400000011087026085815468980_"  >
<linearGradient id="SVGID_86080" gradientUnits="userSpaceOnUse" gradientTransform="matrix(1 0 0 1 768.2508999857932 246.99999374999686)"  x1="0" y1="0" x2="0" y2="300">
<stop offset="0%" style="stop-color:rgb(113,23,234);stop-opacity: 1"/>
<stop offset="100%" style="stop-color:rgb(234,96,96);stop-opacity: 1"/>
</linearGradient>
<path style="stroke: none; stroke-width: 1; stroke-dasharray: none; stroke-linecap: butt; stroke-dashoffset: 0; stroke-linejoin: miter; stroke-miterlimit: 4; fill: url(#SVGID_86080); fill-rule: nonzero; opacity: 1;"  paint-order="stroke"  transform=" translate(-888.7446798333463, -396.99999053505553)" d="M 897.0838 437.22177 C 896.4552 431.95862 897.78723 426.53879 901.00049 422.06003 C 903.91614 425.03144 914.18176 434.31460999999996 925.8302 431.01853 L 925.71466 434.39838 C 923.09589 436.15939 911.10657 443.27014 897.0838 437.22177 z M 789.3833 425.27576 C 786.5267299999999 422.41916 781.87909 422.4198 779.0231299999999 425.27576 C 776.1671699999998 428.13172 776.1664999999999 432.77936 779.0231299999999 435.63596 C 781.8797 438.49259 786.5280099999999 438.49259 789.38397 435.63663 C 792.2399300000001 432.78067000000004 792.23993 428.13235 789.3833 425.27576 z M 845.46307 380.19833 C 843.6063800000001 378.34164 840.58429 378.34228 838.7276 380.19897 C 836.8709100000001 382.05568999999997 836.8702400000001 385.07772 838.72693 386.93444 C 840.58429 388.79177 843.60639 388.79113 845.46308 386.93444 C 847.31976 385.07773 847.32043 382.05569 845.46307 380.19833 z M 952.16931 329.14572 L 952.9020399999999 329.87842 C 953.40753 330.38394 954.23218 330.38394 954.73767 329.87842 L 968.30579 316.31037000000003 C 968.81128 315.80482 968.81128 314.9802 968.30579 314.47468000000003 L 967.57306 313.74198 C 967.0675100000001 313.23643 966.24292 313.23643 965.73737 313.74198 L 952.1693200000001 327.31003 C 951.66376 327.81558 951.66376 328.6402 952.16931 329.14572 z M 913.43652 461.58789 C 915.67584 464.03299000000004 917.8095099999999 466.39252 919.83038 468.6662 L 942.80835 445.68826 C 950.64484 437.8518 952.1903100000001 425.70184 946.56641 416.14654 L 931.70984 390.91470000000004 L 924.75116 397.87338000000005 L 938.35175 420.97870000000006 C 941.77887 426.79041000000007 940.84266 434.1817300000001 936.07227 438.9521500000001 L 913.43652 461.58789 z M 909.74005 408.85074 L 995.24841 323.34241 L 985.06591 319.73749 C 983.57561 319.21094 981.8922 319.59173999999996 980.77612 320.70786 L 907.10565 394.37829999999997 C 905.98822 395.49573 905.6074199999999 397.17911 906.13531 398.66812999999996 L 909.74005 408.85074 z M 985.56232 248.13254 L 980.39136 253.30345 L 999.63654 272.54861 L 1004.8075 267.37771 C 1006.31751 265.86767 1006.31751 263.40957 1004.8075 261.89952999999997 L 991.04047 248.13252999999997 C 989.5304 246.62248 987.07233 246.62248 985.56232 248.13254 z M 960.62128 260.64389 L 997.3671899999999 287.2489 L 999.22754 285.38858 C 1001.7683099999999 282.84778 1001.7683099999999 278.7142 999.22754 276.1734 L 976.7665999999999 253.71248000000003 C 974.2264399999999 251.17232 970.0928899999999 251.17232 967.55206 253.71314000000004 L 960.62128 260.64389 z M 920.67572 293.64197 L 897.57989 288.27802 C 896.11914 287.9386 894.61236 288.36994000000004 893.55267 289.42960000000005 L 829.19592 353.7863500000001 C 828.07196 354.9103400000001 827.66229 356.4939300000001 828.09887 358.02301000000006 C 828.5368000000001 359.55078000000003 829.72247 360.6787100000001 831.27129 361.0378400000001 L 854.36901 366.40112000000005 C 855.82983 366.74057000000005 857.3333 366.31118000000004 858.39428 365.25021000000004 L 922.75103 300.89346 C 923.87505 299.76947 924.28472 298.18588 923.84875 296.65747 C 923.41022 295.12903 922.22516 294.00174 920.67572 293.64197 z M 926.15454 355.16049 L 926.88727 355.89319 C 927.39276 356.39871 928.21741 356.39871 928.7229 355.89319 L 942.28967 342.32645 C 942.79522 341.8209 942.79522 340.99628 942.28967 340.49076 L 941.557 339.75806 C 941.05145 339.25251 940.2268 339.25251 939.72131 339.75806 L 926.15454 353.3248 C 925.64899 353.83035 925.64899 354.65497 926.15454 355.16049 z M 872.05951 543.84375 C 877.8147600000001 549.59106 891.7951700000001 547.40216 909.4521500000001 537.98871 C 929.3125000000001 527.39868 943.55811 513.28436 942.56415 508.20406999999994 C 940.3226900000001 496.76580999999993 928.8726200000001 482.56353999999993 909.8552900000001 461.89694 C 905.9409800000001 457.64385999999996 902.4718100000001 453.65997 899.5436400000001 450.05163 C 891.6244500000001 440.29411999999996 892.37683 426.21395 901.2926600000001 417.29812 L 907.5054900000001 411.08529 L 903.4474500000001 399.62011 C 902.5532200000001 397.1003 903.1979400000001 394.25222 905.0888100000001 392.36138 L 978.7592200000001 318.69097 C 980.6487500000002 316.80144 983.4968300000002 316.1567 986.0166100000001 317.0483 L 997.4831000000001 321.10769 L 1006.0739200000002 312.51684 C 1008.3140300000001 310.27673 1009.4551500000001 307.17916 1009.2043500000002 304.0212 C 1008.9535000000002 300.86324 1007.3371000000002 297.98629 1004.7700200000002 296.12829000000005 L 950.0821500000002 256.53295 C 945.7595200000002 253.40258000000003 939.8821400000002 253.87003 936.1083300000001 257.64382 L 906.3630900000002 287.38906000000003 L 921.3217100000002 290.86349 C 923.8940400000001 291.46093 925.8643700000001 293.33404 926.5911200000002 295.87289000000004 C 927.3172600000001 298.41107000000005 926.6351300000001 301.04315 924.7679400000002 302.91034 L 860.4111900000001 367.26709000000005 C 858.6490400000001 369.02927000000005 856.1489200000002 369.74356000000006 853.7230200000001 369.17960000000005 L 830.6252400000001 363.8163200000001 C 830.44311 363.7740500000001 830.2716 363.7111900000001 830.09576 363.65647000000007 L 772.69403 421.0581400000001 C 766.76941 426.9827600000001 766.77008 436.6214300000001 772.6947 442.54606000000007 C 778.18799 448.03935000000007 786.89697 448.51270000000005 792.95227 443.64842000000004 L 797.60126 439.91466 C 799.85578 438.10393000000005 803.0965 438.27986000000004 805.14032 440.32369 C 807.00031 442.18368 807.33643 445.04619 805.95837 447.28432 L 804.7122199999999 449.31041 C 803.0452899999999 452.01863 803.4509899999999 455.48125 805.6996499999999 457.7299 C 807.4093099999999 459.43953 809.9244999999999 460.12165 812.2644099999999 459.50978 L 817.4563699999999 458.15205 C 827.7981699999999 455.44971999999996 838.7847399999998 459.94703 844.1775599999999 469.08738 C 851.9693699999999 482.2996 857.4869499999999 501.34718 861.9212099999999 516.65376 C 865.65302 529.53772 868.87531 540.66473 872.05951 543.84375 z M 791.40021 423.25885 C 795.36902 427.22766 795.36902 433.68539 791.40088 437.65353 C 787.4327400000001 441.62164 780.9749800000001 441.62164 777.0062300000001 437.65286 C 773.0380900000001 433.68471999999997 773.0380900000001 427.22699 777.0062300000001 423.25885 C 780.97437 419.29074 787.43207 419.29074 791.40021 423.25885 z M 804.27167 408.25888 L 819.14954 411.71295 C 820.68323 412.07009999999997 821.63849 413.60312 821.28199 415.13745 C 821.1579099999999 415.67517 820.8874599999999 416.14261 820.5224099999999 416.50766 C 819.85011 417.17996 818.8554199999999 417.50101 817.8588399999999 417.27121 L 802.9809699999998 413.81714 C 801.4472799999999 413.45999 800.4920199999998 411.92697 800.8485199999999 410.39264 C 801.20172 408.86551 802.73474 407.90369 804.27167 408.25888 z M 811.88361 400.64694 L 826.76148 404.10101 C 828.29517 404.45815999999996 829.25043 405.99118 828.89393 407.52551 C 828.7698499999999 408.06323 828.4993999999999 408.5307 828.1343499999999 408.89572 C 827.46205 409.56802 826.4673599999999 409.88907 825.4707799999999 409.65927 L 810.5929099999998 406.20523 C 809.0592199999999 405.84804999999994 808.1039599999998 404.31503 808.4604599999999 402.78069999999997 C 808.81366 401.2536 810.34668 400.29175 811.88361 400.64694 z M 836.50586 399.91357 C 836.38049 400.4526 836.11127 400.91876 835.74628 401.28378 C 835.07398 401.95608 834.07801 402.27844 833.0820299999999 402.04668999999996 L 818.20544 398.59130999999996 C 816.67175 398.23416 815.7171599999999 396.70178 816.07367 395.16745 C 816.4295 393.63773 817.96124 392.67719 819.49756 393.03436 L 834.37409 396.48971 C 835.90778 396.84689 836.86237 398.37924 836.50586 399.91357 z M 847.47998 378.18143 C 850.4494599999999 381.15097 850.44885 385.98246 847.47998 388.95133 C 844.51105 391.92019999999997 839.6795599999999 391.92087 836.71008 388.95133 C 833.7412099999999 385.98246 833.74182 381.15098 836.71069 378.1821 C 839.67956 375.21322 844.51105 375.21255 847.47998 378.18143 z M 950.1524 331.16263 C 948.53472 329.54488999999995 948.53472 326.91085999999996 950.1524 325.29314999999997 L 963.72052 311.72506999999996 C 965.3381999999999 310.10735999999997 967.97223 310.10735999999997 969.58997 311.72506999999996 L 970.3226999999999 312.45777 C 971.9403799999999 314.07547999999997 971.9403799999999 316.70954 970.3226999999999 318.32725 L 956.7545799999999 331.89533 C 955.1369 333.51304 952.50281 333.51304 950.8851299999999 331.89533 L 950.1524 331.16263 z M 924.13763 357.17737 C 922.51995 355.55966 922.51995 352.92563 924.13763 351.30792 L 937.7044 337.74115 C 939.32214 336.12344 941.9561699999999 336.12344 943.57385 337.74115 L 944.3065799999999 338.47385 C 945.92432 340.09156 945.92432 342.72562000000005 944.3065799999999 344.34333000000004 L 930.7398099999999 357.91010000000006 C 929.12213 359.52781000000004 926.48804 359.52781000000004 924.8703599999999 357.91010000000006 L 924.13763 357.17737 z M 898.12158 383.19345 C 896.50384 381.57574 896.50384 378.94171 898.12158 377.324 L 911.68963 363.75592 C 913.30737 362.13821 915.9413999999999 362.13821 917.55908 363.75592 L 918.2918099999999 364.48862 C 919.90955 366.10633 919.90955 368.74039000000005 918.2918099999999 370.35810000000004 L 904.72376 383.92618000000004 C 903.10602 385.54389000000003 900.47199 385.54389000000003 898.85425 383.92618000000004 L 898.12158 383.19345 z M 870.24615 422.48743 C 867.2772799999999 419.51856000000004 867.2772799999999 414.6864 870.24615 411.71753 C 873.21502 408.74866000000003 878.0471799999999 408.74866000000003 881.01605 411.71753 C 883.98492 414.6864 883.98492 419.51856000000004 881.01605 422.48743 C 878.0471799999999 425.4563 873.21503 425.4563 870.24615 422.48743 z M 837.27728 429.59647 C 834.49096 432.38282000000004 829.95624 432.38346 827.1691900000001 429.59647 L 825.63287 428.06015 C 822.84655 425.27377 822.8472300000001 420.73907 825.63354 417.95270000000005 L 960.2270500000001 283.35922000000005 C 963.0133700000001 280.57287 967.5480900000001 280.57220000000007 970.3344700000001 283.3585800000001 L 971.8707900000002 284.8948700000001 C 974.6577800000001 287.68189000000007 974.6571700000002 292.2166200000001 971.8707900000002 295.00299000000007 L 837.27728 429.59647 z M 876.56079 520.05859 C 876.41894 519.4939499999999 876.28631 518.96478 876.1589299999999 518.49078 C 871.47912 501.18697999999995 867.0698199999999 488.22420999999997 861.86474 476.45901 C 857.07989 465.64709 856.12921 457.72659 859.03771 452.91414999999995 C 860.9246099999999 449.80346 864.32152 448.06362999999993 869.1431799999999 447.74321999999995 C 872.8250599999999 447.49898999999994 876.3033999999999 448.36430999999993 879.7778199999999 450.38647 C 882.0717699999999 451.71923 884.3105299999999 453.50109 887.0417999999999 456.16664999999995 C 893.4982199999998 462.4707599999999 899.3847599999998 469.46028999999993 905.0769599999999 476.21870999999993 L 907.7569499999998 479.39769999999993 C 908.8796299999998 480.7225899999999 910.0115299999999 482.0409199999999 911.1447099999998 483.3579399999999 C 916.1882299999997 489.2260999999999 921.4037999999998 495.2951699999999 925.5833699999998 502.07985999999994 C 927.3888499999998 505.0093299999999 926.9384699999998 508.69515999999993 924.5565099999998 511.07445999999993 C 924.4107599999998 511.22020999999995 924.2571299999997 511.36333999999994 924.0956299999998 511.4985899999999 C 920.3467899999998 514.6723 913.1038099999998 520.5470499999999 906.7222199999998 524.24731 C 898.3093199999997 529.1280499999999 891.9868699999997 531.4482399999999 888.1644799999998 532.53418 C 886.1699099999998 533.1001 884.3525899999999 532.91888 882.7598199999998 531.99841 C 879.00836 529.82788 877.59283 524.18164 876.56079 520.05859 z M 835.26044 427.57956 L 969.85388 292.98608 C 971.52807 291.31189 971.5287500000001 288.58660000000003 969.85388 286.91177 L 968.31756 285.37545 C 966.64343 283.70129000000003 963.9180799999999 283.70193 962.2439499999999 285.37612 L 827.65045 419.9696 C 825.97626 421.64376 825.97565 424.36908 827.64978 426.04324 L 829.1861 427.57956 C 830.86096 429.25439 833.58624 429.25372 835.26044 427.57956 z M 879.32745 519.36395 C 880.18487 522.78979 881.48217 527.9633200000001 884.18713 529.5285 C 885.0984500000001 530.05639 886.14495 530.14172 887.3845200000001 529.78979 C 891.0506 528.74725 897.1328100000001 526.5123900000001 905.29101 521.7813100000001 C 911.48217 518.1900600000001 918.57543 512.43353 922.25469 509.32150000000007 C 923.93151 507.87579000000005 924.32543 505.4754900000001 923.15417 503.57416000000006 C 919.09411 496.98249000000004 913.95336 491.0014100000001 908.9820500000001 485.21860000000004 C 907.8449 483.89499000000006 906.7078200000001 482.57141 905.5798900000001 481.23865000000006 L 902.8945900000001 478.0570400000001 C 897.2470700000001 471.3485100000001 891.4064900000001 464.4128100000001 885.04852 458.2071900000001 C 882.4945600000001 455.71366000000006 880.42645 454.0631200000001 878.3465500000001 452.8524500000001 C 878.3452700000001 452.8511400000001 878.3452700000001 452.8511400000001 878.3439300000001 452.8524500000001 C 875.3763400000001 451.1244200000001 872.4285200000002 450.3851600000001 869.3322700000001 450.5900000000001 C 866.2268000000001 450.79615000000007 863.9656900000001 451.6286400000001 862.4713700000001 453.1229300000001 C 862.0906300000001 453.50373000000013 861.7610400000001 453.9252400000001 861.4786900000001 454.39136000000013 C 859.8294600000002 457.1173400000001 859.0101200000001 462.96054000000015 864.4725300000001 475.30612000000013 C 869.7393100000002 487.2065700000001 874.1919500000001 500.2966900000001 878.9111900000001 517.7449300000002 C 879.04382 518.23468 879.18036 518.78094 879.32745 519.36395 z M 872.26306 420.47055 C 874.11975 422.32724 877.1424499999999 422.32724 878.99914 420.47055 C 880.85583 418.61383 880.85583 415.59112 878.99914 413.73444 C 877.14245 411.87772 874.1197500000001 411.87772 872.26306 413.73444 C 870.40637 415.59113 870.40637 418.61383 872.26306 420.47055 z M 900.13849 381.17657 L 900.87116 381.90927000000005 C 901.37671 382.41479000000004 902.2013000000001 382.41479000000004 902.70685 381.90927000000005 L 916.2749 368.34119000000004 C 916.78045 367.83567000000005 916.78045 367.01105000000007 916.2749 366.50553 L 915.54223 365.77283 C 915.03668 365.26727999999997 914.21203 365.26727999999997 913.70654 365.77283 L 900.13849 379.34087999999997 C 899.63293 379.84644 899.63293 380.67105 900.13849 381.17657 z" stroke-linecap="round" />
</g>
</g>
</g>
<g transform="matrix(2.98279512925438 0 0 2.98279512925438 650.3518331817718 564.9503127236445)" id="shape-1d3180c9-d9e7-46b4-8d48-b65b37ad5173"  >
<g style=""  paint-order="stroke"   >
		<g transform="matrix(1 0 0 1 62.369389247280154 -39.75934988525348)" id="path-01"  >
<linearGradient id="SVGID_86086" gradientUnits="userSpaceOnUse" gradientTransform="matrix(1 0 0 1 164.0955559992509 0.00000169814551398417)"  x1="0" y1="0" x2="0" y2="6">
<stop offset="0%" style="stop-color:rgb(48,35,174);stop-opacity: 1"/>
<stop offset="100%" style="stop-color:rgb(200,109,215);stop-opacity: 1"/>
</linearGradient>
<path style="stroke: none; stroke-width: 1; stroke-dasharray: none; stroke-linecap: butt; stroke-dashoffset: 0; stroke-linejoin: miter; stroke-miterlimit: 4; fill: url(#SVGID_86086); fill-rule: nonzero; opacity: 1;"  paint-order="stroke"  transform=" translate(-187.3694021295371, -3.0854473843949806)" d="M 177.03323 4.46232 C 173.05735 3.75877 169.01336 2.93012 164.92884 2.38001 C 163.78574 2.22605 163.83215 1.1103 164.9854 0.99512 C 176.98369 -0.20328999999999997 189.18892 -0.3312299999999999 201.25014 0.6762600000000001 C 204.12444 0.9077000000000001 209.30207 1.00313 210.44361999999998 3.23666 C 211.07551999999998 4.4762900000000005 210.1582 5.19786 208.38474999999997 5.45689 C 206.28519999999997 5.756489999999999 204.10402999999997 5.8928199999999995 201.96367999999995 6.01519 C 193.54482999999996 6.478389999999999 185.18707999999995 5.89283 177.03322999999995 4.46233 L 177.03323 4.46232 z" stroke-linecap="round" />
</g>
		<g transform="matrix(1 0 0 1 -122.27770503642726 36.33014368112306)" id="path-01"  >
<linearGradient id="SVGID_86087" gradientUnits="userSpaceOnUse" gradientTransform="matrix(1 0 0 1 5.8601460439789e-7 72.66028906039163)"  x1="0" y1="0" x2="0" y2="13">
<stop offset="0%" style="stop-color:rgb(48,35,174);stop-opacity: 1"/>
<stop offset="100%" style="stop-color:rgb(200,109,215);stop-opacity: 1"/>
</linearGradient>
<path style="stroke: none; stroke-width: 1; stroke-dasharray: none; stroke-linecap: butt; stroke-dashoffset: 0; stroke-linejoin: miter; stroke-miterlimit: 4; fill: url(#SVGID_86087); fill-rule: nonzero; opacity: 1;"  paint-order="stroke"  transform=" translate(-2.7223078458296626, -79.17494095077151)" d="M 4.12177 73.27008 C 4.00291 72.56961999999999 3.05962 72.43271999999999 2.7433299999999994 73.06891999999999 C 1.9344599999999994 74.6959 0.8721599999999994 76.98441999999999 0.4790999999999994 78.51164999999999 C -0.1238200000000006 80.83530999999999 -0.6718900000000005 84.55107999999998 2.2438599999999997 85.55971 C 3.41673 85.96513999999999 4.458 85.38441999999999 4.99517 84.33192 C 5.6638 83.02759 5.44455 81.48214 5.23629 80.09002 C 4.9603 78.2522 4.46382 75.28571 4.12177 73.27008 z" stroke-linecap="round" />
</g>
		<g transform="matrix(1 0 0 1 0.7021152609202375 -5.182245909494377)" id="path-01"  >
<linearGradient id="SVGID_86088" gradientUnits="userSpaceOnUse" gradientTransform="matrix(1 0 0 1 1.4042311078550966 2.667320000000011)"  x1="0" y1="0" x2="0" y2="70">
<stop offset="0%" style="stop-color:rgb(48,35,174);stop-opacity: 1"/>
<stop offset="100%" style="stop-color:rgb(200,109,215);stop-opacity: 1"/>
</linearGradient>
<path style="stroke: none; stroke-width: 1; stroke-dasharray: none; stroke-linecap: butt; stroke-dashoffset: 0; stroke-linejoin: miter; stroke-miterlimit: 4; fill: url(#SVGID_86088); fill-rule: nonzero; opacity: 1;"  paint-order="stroke"  transform=" translate(-125.70212814317716, -37.662551360154076)" d="M 244.45203 47.63067 C 243.82724000000002 47.049690000000005 243.11472 46.56718 242.35839 46.172720000000005 C 241.61303 45.788970000000006 240.81289 45.52591 240.17710000000002 44.96687000000001 C 239.59618000000003 44.46269000000001 239.12485000000004 43.717400000000005 239.07000000000002 42.92821000000001 C 239.05909000000003 42.70877000000001 239.08097 42.50057000000001 239.12486 42.292370000000005 C 239.10293000000001 42.171940000000006 239.10293000000001 42.05125 239.14674000000002 41.908620000000006 C 240.03462000000002 38.65341000000001 237.69984000000002 35.91308000000001 235.06916 34.345420000000004 C 234.30186 33.885130000000004 233.67724 33.14808000000001 232.88787000000002 32.690250000000006 C 226.62107000000003 29.055550000000007 218.55045 30.585760000000008 211.34887000000003 29.741720000000008 C 215.72242000000003 29.65395000000001 220.08500000000004 29.566430000000008 224.45861000000002 29.47866000000001 C 226.31109000000004 29.445740000000008 228.17446 29.41283000000001 230.01601000000002 29.22657000000001 C 230.73941000000002 29.14977000000001 232.59584 28.93837000000001 233.73185 28.52490000000001 C 234.64671 28.19191000000001 235.46377 27.582370000000008 236.29684 27.08890000000001 C 237.46972 26.38749000000001 238.59869 25.52151000000001 239.42079 24.41441000000001 C 239.81538 23.86635000000001 240.15526 23.26368000000001 240.36345 22.61687000000001 C 240.68137 21.64143000000001 240.26483 21.04948000000001 239.64005 20.31488000000001 C 239.15775 19.72320000000001 238.62066000000002 19.17512000000001 238.06162 18.65971000000001 C 237.71084000000002 18.34179000000001 237.43337 17.902270000000012 236.9984 17.71718000000001 C 235.03032000000002 16.87974000000001 232.76728 17.09231000000001 230.94773 15.91937000000001 C 230.03791 15.33865000000001 230.60792 13.792940000000009 231.70406 14.13280000000001 C 234.20319 14.90004000000001 236.80103 15.33866000000001 239.42079999999999 15.05338000000001 C 240.70332 14.92198000000001 241.99676 14.58212000000001 243.18051999999997 14.05600000000001 C 244.19992999999997 13.59571000000001 245.70167999999998 12.90501000000001 246.08530999999996 11.73234000000001 C 246.46892999999997 10.61427000000001 245.60300999999995 9.45230000000001 244.69319999999996 8.88229000000001 C 243.53128999999996 8.13699000000001 242.01861999999997 8.10408000000001 240.67039999999997 8.12602000000001 C 237.49159999999998 8.180610000000009 234.31283999999997 8.46588000000001 231.14500999999998 8.65214000000001 C 219.65757 9.33188000000001 208.13720999999998 9.67147000000001 196.63878 9.93453000000001 C 190.89507 10.06619000000001 185.14038 10.21953000000001 179.39658 10.110080000000009 C 173.70766 10.00036000000001 168.10643 9.41938000000001 162.47229 8.608250000000009 C 156.98071 7.8081000000000085 151.53289999999998 7.369750000000009 145.97552 7.6437800000000085 C 140.64833 7.917810000000008 135.36497 8.641160000000008 130.08160999999998 9.33187000000001 C 120.07390999999998 10.625230000000009 109.48530999999998 12.082910000000009 99.52143999999998 9.71536000000001 C 97.07708999999998 10.16468000000001 94.56695999999998 10.24148000000001 92.12253999999999 9.82482000000001 C 90.96063999999998 9.61662000000001 91.26758999999998 7.80811000000001 92.38559 7.81908000000001 C 96.3317 7.85200000000001 100.25589 7.58893000000001 103.9827 6.185860000000011 C 104.87057 5.85697000000001 107.77534 4.95806000000001 106.50379 3.5772000000000106 C 105.90092999999999 2.9194200000000103 104.82674 2.8426100000000107 103.99367 2.7658000000000107 C 103.07289 2.6999700000000106 102.16315 2.667320000000011 101.24237 2.667320000000011 C 97.38401999999999 2.6782900000000107 93.55847999999999 3.291930000000011 89.75493 3.8619300000000107 C 86.01709 4.409990000000011 82.2793 4.903470000000011 78.50861 5.210150000000011 C 76.60135000000001 5.363750000000011 74.68383 5.532620000000011 72.76489000000001 5.517100000000011 C 71.71483 5.508540000000011 69.30330000000001 5.376610000000011 63.54223000000001 5.903260000000011 C 57.79244 6.42884 52.08135 7.3454 46.30424 7.66573 C 35.69369 8.24644 25.05023 8.12602 14.46163 7.28198 C 11.75415 7.06281 9.05771 6.76683 6.35023 6.50377 C 4.92527 6.3721 1.29707 5.55 1.40666 7.96171 C 1.49437 9.97842 3.29204 11.4254 5.03492 12.12679 C 7.40254 13.08055 9.89078 12.71874 12.33513 13.21195 C 13.33258 13.42042 13.29973 14.97684 12.33513 15.20699 C 10.70191 15.590739999999998 8.7727 15.61268 6.898289999999999 15.27282 C 6.996969999999999 15.73311 6.29543 16.46743 6.109109999999999 16.675639999999998 C 5.36375 17.53092 4.815689999999999 18.506359999999997 4.464919999999999 19.59152 C 4.1141499999999995 20.69862 3.9058799999999994 21.849619999999998 4.311439999999999 22.967689999999997 C 4.662209999999999 23.932159999999996 5.26507 24.776199999999996 5.484309999999999 25.78456 C 5.977579999999999 28.0646 4.125119999999999 29.68686 3.905869999999999 31.86814 C 3.818159999999999 32.8219 3.6318399999999986 34.27957 4.015449999999999 35.17848 C 4.486849999999999 36.26364 5.7692999999999985 35.55126 6.613279999999999 35.87989 C 6.722929999999999 35.92378 6.788699999999999 36.00058000000001 6.8763999999999985 36.055440000000004 C 7.139459999999999 36.09933 7.391549999999999 36.285590000000006 7.424459999999998 36.62545000000001 C 7.797099999999998 39.705650000000006 5.659639999999998 42.314310000000006 4.223709999999998 44.82450000000001 C 3.390699999999998 46.29314000000001 2.754929999999998 47.860800000000005 2.3493699999999977 49.50500000000001 C 2.239719999999998 49.94335000000001 1.6587999999999976 51.675320000000006 2.086309999999998 51.97130000000001 C 2.371249999999998 52.179500000000004 3.017999999999998 51.773810000000005 3.412589999999998 51.489070000000005 C 3.872939999999998 51.00656000000001 5.100669999999998 50.765460000000004 5.736389999999998 50.30516000000001 C 6.514659999999998 49.75710000000001 7.194259999999998 49.09930000000001 8.147899999999998 48.70485000000001 C 9.408479999999997 48.18943000000001 10.943019999999997 48.222620000000006 12.378949999999998 48.33207000000001 C 14.121829999999997 48.474700000000006 15.831789999999998 48.70485000000001 17.51981 49.04471000000001 C 18.48441 49.24194000000001 19.64631 49.65834000000001 19.62443 50.38170000000001 C 19.60249 50.809340000000006 19.15303 51.17114000000001 18.63788 51.34643000000001 C 18.11176 51.53296000000001 17.51981 51.56560000000001 16.93889 51.598520000000015 C 14.43967 51.751860000000015 11.94053 51.927410000000016 9.452290000000001 52.135610000000014 C 8.695960000000001 52.20144000000001 7.928650000000001 52.26727000000001 7.249060000000002 52.486440000000016 C 6.690020000000002 52.67270000000001 6.2077300000000015 52.979650000000014 5.944670000000002 53.36340000000001 C 5.944670000000002 53.45117000000001 5.977590000000002 53.53869000000001 5.966610000000002 53.637430000000016 C 5.966610000000002 54.700640000000014 5.352780000000002 55.62150000000002 4.859510000000002 56.520130000000016 C 4.278590000000002 57.61626000000002 1.9657100000000018 61.89107000000001 4.125120000000002 62.537880000000015 C 5.287020000000002 62.88871000000002 6.766770000000001 62.307730000000014 7.851930000000001 61.95690000000002 C 8.98098 61.59535000000002 10.109960000000001 61.20063000000002 11.293800000000001 61.05826000000002 C 13.04765 60.83882000000002 15.930420000000002 61.14577000000002 16.42369 63.23956000000002 C 16.54432 63.76568000000002 16.04007 64.43416000000002 15.44819 64.20403000000002 C 14.73567 63.91902000000002 14.065570000000001 62.93265000000002 13.39836 63.272480000000016 C 11.733640000000001 64.12038000000001 11.27186 66.22102000000001 9.77017 67.37173000000001 C 8.83848 68.07341000000001 7.73138 68.87355000000001 7.24908 69.98067000000002 C 6.8764400000000006 70.80277000000002 6.7997000000000005 71.98667000000002 7.70943 72.47988000000002 C 8.72889 73.02795000000002 10.05517 72.17293000000002 10.96498 71.75626000000003 C 12.12688 71.23014000000002 13.26683 70.67136000000002 14.4397 70.17790000000002 C 16.807380000000002 69.18052000000002 19.20792 68.30356000000002 21.68512 67.63507000000003 C 30.794040000000003 65.15781000000003 40.407070000000004 65.36601000000003 49.76808 65.24531000000003 C 60.4444 65.09198000000004 71.10974 64.79600000000003 81.78604999999999 64.86183000000003 C 92.36374999999998 64.92740000000002 102.94137999999998 65.28921000000003 113.45331999999999 66.52798000000003 C 116.08406 66.83493000000003 118.72569999999999 67.16355000000003 121.35645999999998 67.56925000000003 C 123.26371999999998 67.85425000000002 125.51076999999998 68.72024000000002 127.46185999999999 68.31455000000003 C 128.62382 68.06246000000003 128.53611999999998 67.02119000000002 127.93324999999999 66.18812000000003 C 127.29746999999999 65.33311000000003 126.26709999999999 64.80699000000003 125.33541999999998 64.35741000000003 C 123.16502999999999 63.30516000000003 120.66588999999999 62.92168000000003 118.28722999999998 62.73516000000003 C 117.77207999999997 62.69153000000003 117.59666999999997 61.92430000000003 118.15569999999998 61.79263000000003 C 119.63551999999999 61.45277000000003 121.10429999999998 61.44180000000003 122.54022999999998 61.69388000000003 C 122.58410999999998 61.562490000000025 122.68272999999998 61.46373000000003 122.85814999999998 61.40888000000003 C 130.47620999999998 59.28245000000003 138.74108999999999 60.83887000000003 146.21670999999998 62.800990000000034 C 153.27580999999998 64.66462000000003 160.17045 66.95537000000003 167.47068 67.75553000000004 C 170.9893 68.13928000000004 174.55169999999998 68.12832000000003 178.04836 67.56927000000003 C 181.49024 67.02121000000002 184.85537 66.11132000000003 188.28626 65.48673000000004 C 191.79382999999999 64.85089000000004 195.25767 64.66462000000004 198.8091 65.00422000000003 C 202.52501 65.36603000000004 206.19702 65.85923000000003 209.94577 65.89214000000003 C 211.80922 65.91408000000003 213.67265 65.92506000000003 215.53607000000002 65.91408000000003 C 217.31181000000004 65.90311000000003 219.17525000000003 66.02353000000002 220.92903 65.74949000000002 C 222.24441000000002 65.55226000000002 223.75708 64.97128000000002 224.35994000000002 63.67792000000002 C 224.86418000000003 62.58179000000002 224.29417000000004 61.21163000000002 223.06651000000002 60.99244000000002 C 222.59518000000003 60.90466000000002 222.73146000000003 60.46985000000002 222.50747 60.19229000000002 C 221.24722 58.63069000000002 218.50663 60.07160000000002 216.51165 59.95117000000002 C 215.43739 59.88534000000002 215.42641 58.28502000000002 216.51165 58.27405000000002 C 221.63058 58.197240000000015 226.78242 58.50420000000002 231.90133 58.635860000000015 C 235.89124 58.73434000000002 240.10037 58.635860000000015 243.77245 60.44437000000001 C 245.17547 61.12410000000001 247.47738999999999 62.987200000000016 249.05584 61.836480000000016 C 250.76579999999998 60.57604000000001 249.73541999999998 57.91224000000002 249.19834 56.344850000000015 C 248.13505 53.24271000000002 246.9074 49.92139000000002 244.45208 47.63065000000002 L 244.45203 47.63067 z M 73.77328 37.34882 C 75.27498 37.304930000000006 76.78765 37.272020000000005 78.28935 37.239360000000005 C 79.62667 37.20644000000001 81.23795 36.921440000000004 82.48756 37.49145000000001 C 83.05757 37.75451000000001 83.01368000000001 38.675090000000004 82.48756 38.94913000000001 C 81.19413 39.617880000000014 79.34166 39.34385000000001 77.91671 39.38774000000001 C 76.40405 39.420390000000005 74.90234 39.453570000000006 73.38968 39.48622000000001 C 70.32053 39.53011000000001 67.2404 39.58497000000001 64.1602 39.63982000000001 C 61.09105 39.69442000000001 58.010920000000006 39.69442000000001 54.930800000000005 39.65079000000001 C 53.494870000000006 39.62885000000001 52.04797000000001 39.67273000000001 50.61204000000001 39.51913000000001 C 49.55980000000001 39.39870000000001 48.222480000000004 39.22315000000001 47.477120000000006 38.39007000000001 C 47.323640000000005 38.22576000000001 47.422320000000006 37.95172000000001 47.66344000000001 37.95172000000001 C 48.321160000000006 37.92978000000001 48.98978000000001 38.11603000000001 49.65841000000001 38.18187000000001 C 50.29419000000001 38.24770000000001 50.94086000000001 38.25867000000001 51.58761000000001 38.23673000000001 C 52.95777000000001 38.20381000000001 54.32794000000001 38.09410000000001 55.687140000000014 38.01756000000001 C 58.70151000000001 37.83130000000001 61.71586000000001 37.71061000000001 64.73023 37.62284000000001 C 67.7446 37.53533000000001 70.75895 37.43658000000001 73.77331000000001 37.34881000000001 L 73.77328 37.34882 z M 38.81762 15.40424 C 40.82356 15.04269 43.048739999999995 15.2509 45.07655 15.2509 C 47.115339999999996 15.2509 49.165099999999995 15.228959999999999 51.203959999999995 15.1741 C 55.391119999999994 15.075349999999998 59.622249999999994 14.69187 63.80947 14.922009999999998 C 64.14927 14.94395 64.24788 15.459099999999998 63.88615 15.535909999999998 C 59.80857 16.390919999999998 55.5446 16.46746 51.39029 16.57718 C 49.21996 16.643009999999997 47.06056 16.664949999999997 44.89023 16.664949999999997 C 42.928110000000004 16.675649999999997 40.74682 16.818289999999998 38.817620000000005 16.379949999999997 C 38.35727 16.27023 38.32441 15.49202 38.81762 15.40424 L 38.81762 15.40424 z M 27.53844 36.35144 C 25.99293 36.439209999999996 24.39255 36.121289999999995 22.836060000000003 36.07740999999999 C 21.312420000000003 36.033519999999996 19.788780000000003 35.97865999999999 18.265150000000006 36.022549999999995 C 16.664840000000005 36.05546999999999 15.075430000000006 36.14324 13.486020000000005 36.26367 C 11.984320000000006 36.38436 10.416870000000005 36.55965 8.904200000000007 36.38436 C 8.312310000000007 36.30756 8.180790000000007 35.55129 8.761690000000007 35.33185 C 10.252420000000008 34.805730000000004 11.918550000000007 34.63044 13.486020000000007 34.45516000000001 C 15.130210000000007 34.279610000000005 16.785390000000007 34.126270000000005 18.440560000000005 34.07141000000001 C 20.040870000000005 34.02752000000001 21.674160000000004 34.02752000000001 23.263500000000004 34.23572000000001 C 24.776170000000004 34.43321000000001 26.453280000000003 34.60850000000001 27.812470000000005 35.32115000000001 C 28.327680000000004 35.59518000000001 28.053650000000005 36.31853000000001 27.538440000000005 36.35145000000001 C 27.53844 36.35145 27.53844 36.35144 27.53844 36.35144 z M 35.50734 16.27023 C 33.81926 16.752460000000003 31.89012 16.752460000000003 30.14723 16.80732 C 28.32769 16.87315 26.50806 16.851210000000002 24.69942 16.741490000000002 C 22.89085 16.632030000000004 21.0822 16.456760000000003 19.28459 16.204400000000003 C 17.651290000000003 15.985230000000003 15.689240000000002 15.897450000000003 14.187550000000002 15.185070000000003 C 13.683310000000002 14.954920000000003 13.968310000000002 14.220600000000003 14.450610000000001 14.209360000000004 C 15.33848 14.176720000000003 16.23731 14.461720000000003 17.11421 14.604080000000003 C 18.01305 14.757420000000003 18.91188 14.889080000000003 19.82169 14.998800000000003 C 21.49874 15.217970000000003 23.18682 15.371320000000003 24.87484 15.459090000000003 C 26.573829999999997 15.546860000000004 28.27282 15.590750000000003 29.96091 15.568810000000003 C 31.747609999999998 15.557840000000002 33.62195 15.316720000000002 35.39768 15.470060000000002 C 35.84713 15.502980000000003 35.967690000000005 16.138810000000003 35.50733 16.270210000000002 L 35.50734 16.27023 z M 106.19689 57.43004 C 103.64289 57.52852 101.05601999999999 57.10115 98.51299 56.870999999999995 C 96.01384 56.64084999999999 93.50367 56.46556999999999 90.99354 56.322939999999996 C 82.04907 55.79682 73.07173 55.81876 64.13830999999999 56.45433 C 59.67704999999999 56.76128 55.22674999999999 57.22184 50.787429999999986 57.81379 C 46.36998999999999 58.39451 41.842959999999984 59.600359999999995 37.37077999999998 59.04132 C 37.04188999999998 58.99743 37.03091999999998 58.50423 37.37077999999998 58.52617 C 40.01242999999998 58.69048 42.61025999999998 58.03296 45.197119999999984 57.55047 C 47.718209999999985 57.079209999999996 50.26124999999998 56.6628 52.804279999999984 56.290029999999994 C 61.617229999999985 55.02958999999999 70.50683999999998 54.37179999999999 79.39644999999999 54.26208 C 83.93444999999998 54.20748 88.48335999999999 54.33889 93.01038999999999 54.623889999999996 C 95.27938999999999 54.76624999999999 97.53742999999999 54.95278 99.79544999999999 55.171949999999995 C 101.98770999999999 55.391119999999994 104.24573999999998 55.57765 106.36126999999999 56.21321999999999 C 107.04092 56.4217 106.89843 57.40811 106.19689 57.43004 z M 180.21864 15.23992 C 187.12433 15.23992 194.01898 15.39326 200.9246 15.59075 C 204.31167 15.68923 207.69868 15.77701 211.08576 15.86478 C 212.83956 15.89742 214.60431 15.97424 216.35816 16.04007 C 218.00234 16.09493 219.78907 16.05104 221.38935 16.48939 C 221.86076 16.62105 221.90456 17.38829 221.38935 17.48705 C 219.76711 17.81567 217.99137000000002 17.65136 216.35816 17.59651 C 214.59339 17.530939999999998 212.83954 17.48705 211.08576 17.399279999999997 C 207.69869 17.245679999999997 204.31168 17.092329999999997 200.9246 16.960929999999998 C 194.008 16.675649999999997 187.11337 16.347029999999997 180.21864 15.853559999999998 C 179.82405 15.83188 179.81308 15.23993 180.21864 15.23992 z M 162.77921 45.36161 C 165.21261 44.956179999999996 167.74466 44.84646 170.21096 44.68215 C 172.73211 44.51756 175.24224 44.38617 177.75234 44.26547 C 182.81647 44.00241 187.9683 43.67352 193.03243 43.980470000000004 C 193.54763 44.01339 193.5257 44.70382000000001 193.03243 44.758680000000005 C 188.04505 45.33966 182.95897 45.38355000000001 177.93873 45.569810000000004 C 175.42855 45.66856000000001 172.91842 45.77828 170.40832 45.876760000000004 C 167.9091 45.97551000000001 165.36607 46.15079000000001 162.86694 46.03036 C 162.4942 46.01912 162.37366 45.42744 162.77921 45.36161 L 162.77921 45.36161 z M 127.75778 38.30259 C 126.55207 38.60954 125.25863 38.64219 124.03097 38.72997 C 122.71558999999999 38.828720000000004 121.4112 38.86163 120.09582999999999 38.89428 C 117.47605999999999 38.94914 114.85629999999999 38.87234 112.24756 38.74094 C 111.63373 38.708020000000005 111.63373 37.77621 112.24756 37.787440000000004 C 114.81246999999999 37.83133 117.37746 37.798140000000004 119.95333 37.743550000000006 C 121.21391 37.71063000000001 122.46345 37.644800000000004 123.72403999999999 37.60092000000001 C 125.01745999999999 37.55730000000001 126.35477999999999 37.40369000000001 127.64820999999999 37.51341000000001 C 128.07571 37.54606 128.21815 38.1819 127.75778 38.30259 z M 150.75461 16.55524 C 147.47719 16.336070000000003 144.19977 16.27024 140.92235000000002 16.22635 C 134.27979000000002 16.1276 127.65919000000002 16.55524 121.02753000000003 16.64302 C 120.76448000000002 16.64302 120.69870000000003 16.21538 120.96176000000003 16.17149 C 127.56049000000003 15.097299999999999 134.23598000000004 14.362979999999999 140.92235000000002 14.023119999999999 C 144.24367 13.858809999999998 147.61969000000002 13.902689999999998 150.93006000000003 14.132839999999998 C 152.61808000000002 14.253269999999999 154.28422000000003 14.417839999999998 155.95037000000002 14.658959999999999 C 156.78338000000002 14.790619999999999 157.63839000000002 14.900079999999999 158.46049000000002 15.097309999999998 C 159.21682 15.283839999999998 160.06086000000002 15.404259999999999 160.71852 15.84288 C 161.25561000000002 16.19344 161.24464 17.147209999999998 160.53219 17.30056 C 159.75392000000002 17.46515 158.95376000000002 17.3225 158.16451 17.25694 C 157.32053000000002 17.191110000000002 156.47649 17.07041 155.64342000000002 16.98291 C 154.01020000000003 16.82931 152.38794000000001 16.66499 150.75464000000002 16.55527 L 150.75461 16.55524 z M 212.34627 60.09357 C 211.41458 60.49927 210.51573 60.4444 209.52927 60.4444 C 208.45501 60.43343 207.39179 60.43343 206.31754999999998 60.42246 C 204.31166 60.40052 202.29475 60.40052 200.28882 60.35663 C 192.98862 60.19232 185.6993 60.159400000000005 178.41007 59.92925 C 171.10979 59.69883 163.80959 59.66619 156.53125999999997 59.019380000000005 C 156.36687999999998 58.997440000000005 156.35590999999997 58.75632 156.53125999999997 58.745340000000006 C 160.68564999999998 58.62465 164.82898999999998 58.668530000000004 168.98331999999996 58.734370000000006 C 176.20685999999995 58.85506000000001 183.44129999999996 58.81118000000001 190.66483999999997 58.78923 C 194.24921999999998 58.76729 197.83350999999996 58.734370000000006 201.41787999999997 58.67951 C 203.23742999999996 58.64659 205.06802999999996 58.62464 206.88757999999996 58.592 C 207.83023999999995 58.57006 208.77295999999996 58.55908 209.71560999999997 58.53713 C 210.55964999999998 58.51519 211.37077999999997 58.438379999999995 212.17092999999997 58.77825 C 212.66418 58.97549 212.98204 59.80857 212.34627 60.09357 z M 236.16527 44.25451 C 234.65260999999998 44.47368 233.10702999999998 44.38617 231.58344 44.33131 C 230.02688 44.276450000000004 228.48137 44.199650000000005 226.92487 44.155750000000005 C 223.81183 44.046290000000006 220.70977 43.991440000000004 217.59678 43.991440000000004 C 211.32686999999999 43.980470000000004 205.04604 44.11213000000001 198.76522 44.18867 C 198.3048 44.19964 198.33773 43.542120000000004 198.76522 43.49823 C 205.03507 42.81849 211.294 42.57738 217.59675 42.57738 C 220.76459999999997 42.57738 223.94331999999997 42.621269999999996 227.11118 42.720009999999995 C 228.6019 42.774609999999996 230.09262999999999 42.82946999999999 231.58342 42.90626999999999 C 233.10699 42.99403999999999 234.68543 43.07057999999999 236.16523999999998 43.476279999999996 C 236.51601999999997 43.57476 236.5708 44.18866 236.16523999999998 44.25449 L 236.16527 44.25451 z" stroke-linecap="round" />
</g>
		<g transform="matrix(1 0 0 1 118.13997174533917 -9.158392698852516)" id="path-01"  >
<linearGradient id="SVGID_86089" gradientUnits="userSpaceOnUse" gradientTransform="matrix(1 0 0 1 239.12419732520908 30.69505295040441)"  x1="0" y1="0" x2="0" y2="6">
<stop offset="0%" style="stop-color:rgb(48,35,174);stop-opacity: 1"/>
<stop offset="100%" style="stop-color:rgb(200,109,215);stop-opacity: 1"/>
</linearGradient>
<path style="stroke: none; stroke-width: 1; stroke-dasharray: none; stroke-linecap: butt; stroke-dashoffset: 0; stroke-linejoin: miter; stroke-miterlimit: 4; fill: url(#SVGID_86089); fill-rule: nonzero; opacity: 1;"  paint-order="stroke"  transform=" translate(-243.1399846275961, -33.686404570795936)" d="M 247.09297 33.33323 C 246.52296 31.63444 243.93612000000002 31.54666 242.47824 31.26166 C 241.83348 31.13668 240.56868 30.88532 239.66049 30.70431 C 239.27257 30.627 238.98359000000002 31.04974 239.19623 31.38327 C 239.69757 32.16959 240.37303000000003 33.30265 240.60391 34.034909999999996 C 240.83406000000002 34.76922999999999 241.00947000000002 35.63522 241.59039 36.183279999999996 C 242.14944000000003 36.720369999999996 242.99348 36.76425999999999 243.70593000000002 36.57774 C 244.59381000000002 36.33689 245.37208 35.74494 246.06263 35.163959999999996 C 246.63264 34.692699999999995 247.37800000000001 34.166579999999996 247.09299000000001 33.333239999999996 L 247.09297 33.33323 z" stroke-linecap="round" />
</g>
</g>
</g>
<g transform="matrix(1.9211538461538462 0 0 1.9211538461538462 655.5086678797886 542.6586469965225)" id="text-logo"  >
<g style=""  paint-order="stroke"   >
		<g transform="matrix(1 0 0 1 0 0)" id="text-logo-path-0"  >
<linearGradient id="SVGID_86090" gradientUnits="userSpaceOnUse" gradientTransform="matrix(1 0 0 1 0.23999999999999488 -45.21)"  x1="0" y1="0" x2="0" y2="69">
<stop offset="0%" style="stop-color:rgb(248,77,158);stop-opacity: 1"/>
<stop offset="100%" style="stop-color:rgb(255,116,117);stop-opacity: 1"/>
</linearGradient>
<filter id="SVGID_86076" y="-27.393885620225795%" height="154.7877712404516%" x="-21.823827801952632%" width="143.64765560390526%" >
	<feGaussianBlur in="SourceAlpha" stdDeviation="0"></feGaussianBlur>
	<feOffset dx="3.3516483516483517" dy="3.3516483516483517" result="oBlur" ></feOffset>
	<feFlood flood-color="rgb(81,18,94)" flood-opacity="1"/>
	<feComposite in2="oBlur" operator="in" />
	<feMerge>
		<feMergeNode></feMergeNode>
		<feMergeNode in="SourceGraphic"></feMergeNode>
	</feMerge>
</filter>
<path style="stroke: rgb(81,18,94); stroke-width: 6.032967032967033; stroke-dasharray: none; stroke-linecap: butt; stroke-dashoffset: 0; stroke-linejoin: miter; stroke-miterlimit: 4; fill: url(#SVGID_86090); fill-rule: nonzero; opacity: 1;filter: url(#SVGID_86076);"  paint-order="stroke"  transform=" translate(-92.12499999999999, 22.545)" d="M 10.13 -2.5 L 0.24 0.06 Q 6.43 -29.9 7.8 -42.47 L 7.8 -42.47 Q 14.71 -44.62 23.29 -44.62 L 23.29 -44.62 Q 29.73 -44.62 30.92 -40.15 L 30.92 -40.15 Q 31.27 -38.78 31.27 -36.75 Q 31.27 -34.73 30.44 -32.38 Q 29.61 -30.02 28.18 -27.88 L 28.18 -27.88 Q 25.2 -23.53 20.85 -21.21 L 20.85 -21.21 Q 23.17 -16.2 24.99 -11.77 Q 26.81 -7.33 28.06 -4.29 L 28.06 -4.29 L 18.59 -0.95 Q 14 -17.16 13.82 -19.36 L 13.82 -19.36 L 13.05 -19.12 Q 11.08 -8.16 10.13 -2.5 L 10.13 -2.5 Z M 16.56 -36.1 L 14.59 -26.39 Q 16.98 -26.63 20.61 -29.43 L 20.61 -29.43 Q 24.36 -32.29 24.36 -34.13 L 24.36 -34.13 Q 24.36 -35.86 21.09 -36.1 L 21.09 -36.1 Q 20.13 -36.16 19.18 -36.16 L 19.18 -36.16 L 16.56 -36.1 Z M 47.3 -2.98 L 27.58 0.06 L 35.56 -43.31 L 54.86 -44.98 Q 54.45 -43.61 54.15 -42.32 Q 53.85 -41.04 53.55 -39.79 Q 53.26 -38.54 53.08 -37.59 L 53.08 -37.59 Q 51.29 -37.41 48.19 -37.41 L 48.19 -37.41 L 44.08 -37.41 L 41.94 -26.45 Q 45.21 -26.63 47.42 -26.69 Q 49.62 -26.75 50.28 -26.81 L 50.28 -26.81 Q 50.04 -25.08 49.83 -23.44 Q 49.62 -21.8 49.32 -20.08 L 49.32 -20.08 Q 48.67 -20.02 47.3 -19.99 Q 45.93 -19.96 44.44 -19.9 Q 42.95 -19.84 41.1 -19.78 L 41.1 -19.78 L 39.02 -8.52 L 47.89 -9.95 L 47.3 -2.98 Z M 58.26 -2.03 L 47.72 0.06 Q 53.97 -27.76 56.29 -43.07 L 56.29 -43.07 Q 62.85 -45.04 66.12 -45.04 Q 69.4 -45.04 71.28 -44.11 Q 73.15 -43.19 74.34 -41.64 L 74.34 -41.64 Q 76.43 -38.84 76.43 -33.54 L 76.43 -33.54 Q 76.43 -30.14 75.18 -26.96 Q 73.93 -23.77 71.84 -21.3 Q 69.76 -18.82 67.02 -17.36 Q 64.28 -15.91 61.36 -15.91 L 61.36 -15.91 L 60.7 -15.91 Q 59.57 -10.9 58.26 -2.03 L 58.26 -2.03 Z M 61.95 -22.34 L 61.95 -22.34 Q 64.1 -22.88 65.94 -25.79 L 65.94 -25.79 Q 67.97 -29.01 67.97 -33.06 L 67.97 -33.06 Q 67.97 -35.33 66.96 -36.49 Q 65.94 -37.65 64.75 -37.65 L 64.75 -37.65 Q 63.2 -29.01 61.95 -22.34 Z M 71.72 0.12 L 71.72 0.12 Q 73.15 -10.9 75.51 -23.05 Q 77.86 -35.21 79.53 -43.49 L 79.53 -43.49 L 90.25 -44.92 Q 84.71 -21.45 83.79 -16.08 Q 82.86 -10.72 82.56 -8.58 L 82.56 -8.58 Q 84.83 -8.76 88.88 -8.76 L 88.88 -8.76 Q 89 -6.43 89.24 -4.97 Q 89.47 -3.51 89.56 -2.83 Q 89.65 -2.14 89.71 -1.91 L 89.71 -1.91 L 87.87 -1.97 Q 81.61 -1.97 75.42 -0.83 L 75.42 -0.83 Q 73.39 -0.42 71.72 0.12 Z M 89.06 -0.06 L 89.06 -0.06 Q 90.96 -6.97 92.57 -15.13 L 92.57 -15.13 Q 96.27 -33.78 97.81 -42.71 L 97.81 -42.71 L 107.35 -44.2 Q 100.55 -9.65 99.07 -1.19 L 99.07 -1.19 Q 97.4 -1.19 93.29 -0.66 Q 89.18 -0.12 89.06 -0.06 Z M 106.51 -3.34 Q 104.01 -7.03 104.01 -13.05 Q 104.01 -19.06 105.59 -24.66 Q 107.17 -30.26 110.03 -34.7 Q 112.89 -39.14 116.85 -41.88 Q 120.81 -44.62 125.51 -44.62 L 125.51 -44.62 Q 128.55 -44.62 130.7 -42.29 L 130.7 -42.29 Q 132.78 -39.91 132.78 -36.04 L 132.78 -36.04 L 132.78 -35.27 Q 132.78 -34.91 132.72 -34.49 L 132.72 -34.49 L 124.74 -32.35 Q 124.03 -33.84 123.04 -33.84 Q 122.06 -33.84 120.99 -32.7 Q 119.92 -31.57 118.87 -29.79 Q 117.83 -28 116.88 -25.76 Q 115.92 -23.53 115.21 -21.27 L 115.21 -21.27 Q 113.54 -16.26 113.54 -13.19 Q 113.54 -10.13 115.39 -10.13 L 115.39 -10.13 Q 116.88 -10.13 118.54 -11.97 L 118.54 -11.97 Q 120.21 -13.88 120.69 -15.91 L 120.69 -15.91 L 127.66 -13.11 Q 124.98 -6.85 120.63 -3.16 L 120.63 -3.16 Q 116.76 0.12 112.71 0.12 L 112.71 0.12 Q 108.89 0.12 106.51 -3.34 L 106.51 -3.34 Z M 125.1 -0.36 L 125.1 -0.36 Q 127.54 -8.46 129.24 -14.06 Q 130.94 -19.66 132.01 -23.26 Q 133.08 -26.87 134.12 -30.41 Q 135.17 -33.96 136.15 -37.26 Q 137.13 -40.57 137.91 -43.31 L 137.91 -43.31 Q 148.93 -44.08 154.7 -45.21 L 154.7 -45.21 Q 154.17 -39.32 153.81 -31.27 L 153.81 -31.27 Q 153.04 -15.25 152.5 -1.73 L 152.5 -1.73 Q 150.71 -1.43 149.02 -1.19 Q 147.32 -0.95 145.5 -0.66 Q 143.68 -0.36 142.19 -0.12 L 142.19 -0.12 Q 142.85 -5.84 143.33 -10.42 L 143.33 -10.42 L 138.02 -10.42 L 135.58 -1.67 Q 134.21 -1.49 132.4 -1.25 Q 130.58 -1.01 128.79 -0.8 Q 127 -0.6 125.1 -0.36 Z M 144.64 -37.11 L 139.45 -16.5 L 143.86 -16.8 Q 143.86 -17.16 143.95 -18.02 Q 144.04 -18.88 144.16 -20.02 L 144.16 -20.02 Q 144.64 -26.39 145.17 -31.87 L 145.17 -31.87 L 145.59 -37.17 L 144.64 -37.11 Z M 153.33 -5.36 L 153.33 -5.36 L 157.86 -14.24 Q 158.7 -12.57 161.08 -11.2 L 161.08 -11.2 Q 163.46 -9.77 164.65 -9.77 Q 165.84 -9.77 166.65 -10.01 Q 167.45 -10.25 168.11 -10.72 L 168.11 -10.72 Q 169.6 -11.79 169.6 -13.31 Q 169.6 -14.83 168.64 -16.08 Q 167.69 -17.33 166.29 -18.47 Q 164.89 -19.6 163.25 -20.76 Q 161.61 -21.92 160.24 -23.23 L 160.24 -23.23 Q 156.91 -26.21 156.91 -29.49 Q 156.91 -32.76 158.78 -35.5 Q 160.66 -38.24 163.49 -40.24 Q 166.32 -42.24 169.69 -43.4 Q 173.05 -44.56 175.38 -44.56 Q 177.7 -44.56 179.16 -44.14 Q 180.62 -43.72 181.69 -42.89 L 181.69 -42.89 Q 184.01 -40.98 184.01 -37.29 L 184.01 -37.29 Q 184.01 -36.4 183.86 -35.56 Q 183.71 -34.73 183.6 -33.72 L 183.6 -33.72 L 174.78 -31.16 Q 175.08 -32.35 175.08 -33.66 Q 175.08 -34.97 174.42 -35.77 Q 173.77 -36.58 173.02 -36.58 Q 172.28 -36.58 171.56 -36.22 Q 170.85 -35.86 170.13 -35.27 L 170.13 -35.27 Q 168.46 -33.9 168.46 -32.32 Q 168.46 -30.74 169.3 -29.76 Q 170.13 -28.77 171.35 -27.94 Q 172.58 -27.1 174 -26.21 Q 175.43 -25.32 176.69 -23.95 L 176.69 -23.95 Q 179.54 -20.61 179.54 -15.07 L 179.54 -15.07 Q 179.54 -8.4 174.66 -4.05 L 174.66 -4.05 Q 170.01 0.12 162.92 0.12 L 162.92 0.12 Q 157.68 0.12 153.33 -5.36 Z" stroke-linecap="round" />
</g>
</g>
</g>
</svg>