<?xml version="1.0" encoding="UTF-8" standalone="no" ?>
<!DOCTYPE svg PUBLIC "-//W3C//DTD SVG 1.1//EN" "http://www.w3.org/Graphics/SVG/1.1/DTD/svg11.dtd">
<svg xmlns="http://www.w3.org/2000/svg" xmlns:xlink="http://www.w3.org/1999/xlink" version="1.1" width="1280" height="1024" viewBox="0 0 1280 1024" xml:space="preserve">
<desc>Created with Fabric.js 4.4.0</desc>
<defs>
</defs>
<g transform="matrix(1 0 0 1 640 512)" id="background-logo"  >
<rect style="stroke: none; stroke-width: 0; stroke-dasharray: none; stroke-linecap: butt; stroke-dashoffset: 0; stroke-linejoin: miter; stroke-miterlimit: 4; fill: rgb(255,255,255); fill-opacity: 0; fill-rule: nonzero; opacity: 1;"  paint-order="stroke"  x="-640" y="-512" rx="0" ry="0" width="1280" height="1024" />
</g>
<g transform="matrix(1.9211538461538462 0 0 1.9211538461538462 640 402.8613969042244)" id="logo-logo"  >
<g style=""  paint-order="stroke"   >
		<g transform="matrix(0.5268594463504763 0 0 -0.5268594463504764 0 -43.448298546451724)"  >
<linearGradient id="SVGID_65_611392" gradientUnits="userSpaceOnUse" gradientTransform="matrix(-12.271094 -221.99524 -221.99524 12.271094 691.92999 541.16675)"  x1="0" y1="0" x2="1" y2="0">
<stop offset="0%" style="stop-color:rgb(224,61,150);stop-opacity: 1"/>
<stop offset="100%" style="stop-color:rgb(118,42,144);stop-opacity: 1"/>
</linearGradient>
<path style="stroke: none; stroke-width: 1; stroke-dasharray: none; stroke-linecap: butt; stroke-dashoffset: 0; stroke-linejoin: miter; stroke-miterlimit: 4; fill: url(#SVGID_65_611392); fill-rule: nonzero; opacity: 1;"  paint-order="stroke"  transform=" translate(-681.4255, -412.9675000000001)" d="M 649.218 508.38 L 543.489 447.338 C 523.56 435.83 511.282 414.566 511.282 391.552 L 511.282 391.552 L 511.282 308.981 C 530.961 311.02 549.386 315.878 566.302 322.416 L 566.302 322.416 C 565.629 324.604 565.011 326.812 564.484 329.047 L 564.484 329.047 C 561.1550000000001 343.13800000000003 561.902 352.497 562.414 356.01500000000004 L 562.414 356.01500000000004 L 562.422 356.09800000000007 C 564.2180000000001 374.6930000000001 571.788 391.96900000000005 583.739 404.74700000000007 L 583.739 404.74700000000007 C 596.779 418.69000000000005 614.219 426.36800000000005 632.8430000000001 426.36800000000005 L 632.8430000000001 426.36800000000005 C 649.6490000000001 426.36800000000005 665.1560000000001 420.422 677.6880000000001 409.17500000000007 L 677.6880000000001 409.17500000000007 C 679.594 407.4630000000001 682.2200000000001 407.40600000000006 684.0720000000001 409.0300000000001 L 684.0720000000001 409.0300000000001 C 696.8200000000002 420.2080000000001 713.0840000000001 426.3640000000001 729.8660000000001 426.3640000000001 L 729.8660000000001 426.3640000000001 C 748.4900000000001 426.3640000000001 765.9290000000001 418.6850000000001 778.9700000000001 404.7430000000001 L 778.9700000000001 404.7430000000001 C 790.9210000000002 391.9650000000001 798.4910000000001 374.68900000000014 800.2880000000001 356.0970000000001 L 800.2880000000001 356.0970000000001 L 800.2970000000001 356.0050000000001 C 800.8120000000001 352.4140000000001 801.5380000000001 343.0680000000001 798.2250000000001 329.0410000000001 L 798.2250000000001 329.0410000000001 C 797.6930000000001 326.7870000000001 797.0730000000001 324.5620000000001 796.3960000000002 322.3560000000001 L 796.3960000000002 322.3560000000001 C 814.6230000000002 315.2940000000001 833.0380000000002 310.8040000000001 851.5690000000002 308.9250000000001 L 851.5690000000002 308.9250000000001 L 851.5690000000002 391.55200000000013 C 851.5690000000002 414.56600000000014 839.2920000000001 435.83000000000015 819.3610000000002 447.33800000000014 L 819.3610000000002 447.33800000000014 L 713.633 508.38 C 703.668 514.134 692.547 517.01 681.4250000000001 517.01 L 681.4250000000001 517.01 C 670.3040000000001 517.01 659.1830000000001 514.134 649.2180000000001 508.38" stroke-linecap="round" />
</g>
		<g transform="matrix(0.5268594463504763 0 0 -0.5268594463504764 0 32.82068736696229)"  >
<linearGradient id="SVGID_66_611393" gradientUnits="userSpaceOnUse" gradientTransform="matrix(8.9244318 205.26192 205.26192 -8.9244318 677.68268 185.41228)"  x1="0" y1="0" x2="1" y2="0">
<stop offset="0%" style="stop-color:rgb(237,61,87);stop-opacity: 1"/>
<stop offset="100%" style="stop-color:rgb(221,124,71);stop-opacity: 1"/>
</linearGradient>
<path style="stroke: none; stroke-width: 1; stroke-dasharray: none; stroke-linecap: butt; stroke-dashoffset: 0; stroke-linejoin: miter; stroke-miterlimit: 4; fill: url(#SVGID_66_611393); fill-rule: nonzero; opacity: 1;"  paint-order="stroke"  transform=" translate(-681.4254999999999, -268.22387499999996)" d="M 596.195 352.84 C 596.142 352.274 596.077 351.71 595.993 351.147 L 595.993 351.147 C 595.9870000000001 351.104 595.3570000000001 346.079 597.464 337.039 L 597.464 337.039 C 617.081 347.897 633.802 360.33299999999997 647.057 371.667 L 647.057 371.667 C 651.594 366.356 659.534 357.556 670.587 347.10799999999995 L 670.587 347.10799999999995 C 663.122 340.65399999999994 654.652 333.86599999999993 645.221 327.12299999999993 L 645.221 327.12299999999993 C 602.756 296.762 557.032 279.036 511.282 274.93 L 511.282 274.93 L 511.282 269.467 C 511.282 246.45399999999998 523.56 225.189 543.489 213.682 L 543.489 213.682 L 649.218 152.64 C 669.1479999999999 141.13299999999998 693.703 141.13299999999998 713.6329999999999 152.64 L 713.6329999999999 152.64 L 819.3609999999999 213.682 C 839.2919999999999 225.189 851.5689999999998 246.45399999999998 851.5689999999998 269.467 L 851.5689999999998 269.467 L 851.5689999999998 274.93199999999996 C 828.0419999999998 277.04599999999994 804.5259999999998 282.77299999999997 781.4529999999999 291.95899999999995 L 781.4529999999999 291.95899999999995 C 776.6999999999998 285.22299999999996 771.1429999999999 278.9479999999999 764.8459999999999 273.24099999999993 L 764.8459999999999 273.24099999999993 L 764.7469999999998 273.1529999999999 L 706.4329999999999 221.1239999999999 C 699.1259999999999 214.6039999999999 689.9929999999998 211.3489999999999 680.8629999999998 211.3479999999999 L 680.8629999999998 211.3479999999999 C 671.6259999999999 211.3479999999999 662.3919999999998 214.6809999999999 655.0529999999999 221.3409999999999 L 655.0529999999999 221.3409999999999 L 597.8549999999999 273.2529999999999 C 595.4139999999999 275.46299999999985 593.0969999999999 277.77099999999984 590.882 280.1469999999999 L 590.882 280.1469999999999 C 601.827 284.69299999999987 612.6579999999999 289.96299999999985 623.3219999999999 295.95799999999986 L 623.3219999999999 295.95799999999986 L 677.8559999999999 246.46599999999987 C 679.5569999999999 244.92299999999986 682.1319999999998 244.91199999999986 683.8459999999999 246.44099999999986 L 683.8459999999999 246.44099999999986 L 742.1049999999999 298.4209999999999 C 753.7869999999999 309.0239999999999 761.7729999999999 322.3069999999999 765.204 336.8369999999999 L 765.204 336.8369999999999 C 767.371 346.0139999999999 766.722 351.10899999999987 766.7139999999999 351.1579999999999 L 766.7139999999999 351.1579999999999 C 766.637 351.6679999999999 766.5699999999999 352.2519999999999 766.515 352.8379999999999 L 766.515 352.8379999999999 C 764.614 372.5129999999999 751.4159999999999 392.4339999999999 729.866 392.4339999999999 L 729.866 392.4339999999999 C 721.318 392.4339999999999 712.999 389.2679999999999 706.441 383.5199999999999 L 706.441 383.5199999999999 C 705.777 382.9359999999999 705.081 382.41099999999994 704.388 381.88199999999995 L 704.388 381.88199999999995 C 713.3670000000001 373.42099999999994 724.743 363.68199999999996 738.1840000000001 354.13999999999993 L 738.1840000000001 354.13999999999993 C 742.7540000000001 350.8949999999999 747.3420000000001 347.8259999999999 751.945 344.92099999999994 L 751.945 344.92099999999994 C 751.764 343.59799999999996 751.4870000000001 342.0249999999999 751.051 340.1789999999999 L 751.051 340.1789999999999 L 751.051 340.17799999999994 C 748.8050000000001 330.66299999999995 744.075 321.7729999999999 737.249 314.14099999999996 L 737.249 314.14099999999996 C 730.642 318.17699999999996 724.097 322.49999999999994 717.63 327.12299999999993 L 717.63 327.12299999999993 C 685.889 349.8159999999999 664.902 373.06999999999994 657.326 382.0439999999999 L 657.326 382.0439999999999 C 656.5450000000001 382.6449999999999 655.77 383.2559999999999 655.025 383.9239999999999 L 655.025 383.9239999999999 C 648.818 389.4939999999999 641.148 392.43799999999993 632.843 392.43799999999993 L 632.843 392.43799999999993 C 611.293 392.43799999999993 598.0949999999999 372.51699999999994 596.1949999999999 352.8399999999999" stroke-linecap="round" />
</g>
</g>
</g>
<g transform="matrix(1.9211538461538462 0 0 1.9211538461538462 637.9403879957932 676.3141680289821)" id="text-logo"  >
<g style=""  paint-order="stroke"   >
		<g transform="matrix(1 0 0 1 0 0)" id="text-logo-path-0"  >
<path style="stroke: none; stroke-width: 0; stroke-dasharray: none; stroke-linecap: butt; stroke-dashoffset: 0; stroke-linejoin: miter; stroke-miterlimit: 4; fill: rgb(234,71,84); fill-rule: nonzero; opacity: 1;"  paint-order="stroke"  transform=" translate(-308.24500000000006, 15.264999999999999)" d="M 1.05 -21.57 L 1.05 -21.57 Q 1.05 -23.48 1.78 -25.16 Q 2.51 -26.83 3.77 -28.09 Q 5.03 -29.35 6.7 -30.08 Q 8.38 -30.81 10.29 -30.81 L 10.29 -30.81 L 24.43 -30.81 L 24.43 -24.64 L 10.29 -24.64 Q 9.65 -24.64 9.09 -24.41 Q 8.53 -24.17 8.11 -23.75 Q 7.69 -23.33 7.46 -22.77 Q 7.22 -22.21 7.22 -21.57 L 7.22 -21.57 Q 7.22 -20.93 7.46 -20.36 Q 7.69 -19.79 8.11 -19.37 Q 8.53 -18.95 9.09 -18.71 Q 9.65 -18.48 10.29 -18.48 L 10.29 -18.48 L 16.46 -18.48 Q 18.37 -18.48 20.06 -17.76 Q 21.74 -17.04 23 -15.78 Q 24.26 -14.52 24.98 -12.84 Q 25.7 -11.15 25.7 -9.24 L 25.7 -9.24 Q 25.7 -7.33 24.98 -5.65 Q 24.26 -3.97 23 -2.72 Q 21.74 -1.46 20.06 -0.73 Q 18.37 0 16.46 0 L 16.46 0 L 2.77 0 L 2.77 -6.17 L 16.46 -6.17 Q 17.1 -6.17 17.66 -6.4 Q 18.22 -6.64 18.64 -7.06 Q 19.06 -7.48 19.29 -8.04 Q 19.53 -8.59 19.53 -9.24 L 19.53 -9.24 Q 19.53 -9.88 19.29 -10.44 Q 19.06 -11 18.64 -11.42 Q 18.22 -11.84 17.66 -12.07 Q 17.1 -12.31 16.46 -12.31 L 16.46 -12.31 L 10.29 -12.31 Q 8.38 -12.31 6.7 -13.04 Q 5.03 -13.77 3.77 -15.03 Q 2.51 -16.29 1.78 -17.97 Q 1.05 -19.66 1.05 -21.57 Z M 49.72 -30.81 L 49.72 0 L 43.55 0 L 43.55 -30.81 L 49.72 -30.81 Z M 81.58 -24.64 L 75.41 -24.64 L 75.41 -12.31 L 81.58 -12.31 Q 82.85 -12.31 83.96 -12.79 Q 85.08 -13.28 85.92 -14.12 Q 86.76 -14.95 87.24 -16.08 Q 87.72 -17.21 87.72 -18.48 L 87.72 -18.48 Q 87.72 -19.74 87.24 -20.87 Q 86.76 -22 85.92 -22.84 Q 85.08 -23.68 83.96 -24.16 Q 82.85 -24.64 81.58 -24.64 L 81.58 -24.64 Z M 75.41 -6.17 L 75.41 0 L 69.25 0 L 69.25 -30.81 L 81.58 -30.81 Q 83.28 -30.81 84.84 -30.37 Q 86.41 -29.93 87.78 -29.12 Q 89.14 -28.32 90.27 -27.19 Q 91.4 -26.06 92.2 -24.69 Q 93.01 -23.31 93.45 -21.74 Q 93.89 -20.17 93.89 -18.48 L 93.89 -18.48 Q 93.89 -16.89 93.49 -15.38 Q 93.09 -13.88 92.35 -12.53 Q 91.61 -11.17 90.54 -10.03 Q 89.46 -8.89 88.13 -8.06 L 88.13 -8.06 L 91.55 0 L 85 0 L 82.31 -6.21 L 75.41 -6.17 Z M 124.14 -24.64 L 124.14 0 L 118 0 L 118 -24.64 L 108.74 -24.64 L 108.74 -30.81 L 133.38 -30.81 L 133.38 -24.64 L 124.14 -24.64 Z M 155.34 -12.31 L 167.67 -12.31 L 167.67 -18.48 Q 167.67 -19.74 167.19 -20.87 Q 166.7 -22 165.87 -22.84 Q 165.03 -23.68 163.9 -24.16 Q 162.77 -24.64 161.5 -24.64 L 161.5 -24.64 Q 160.24 -24.64 159.11 -24.16 Q 157.98 -23.68 157.14 -22.84 Q 156.31 -22 155.82 -20.87 Q 155.34 -19.74 155.34 -18.48 L 155.34 -18.48 L 155.34 -12.31 Z M 173.84 -18.48 L 173.84 0 L 167.67 0 L 167.67 -6.17 L 155.34 -6.17 L 155.34 0 L 149.19 0 L 149.19 -18.48 Q 149.19 -21.03 150.16 -23.28 Q 151.13 -25.52 152.79 -27.2 Q 154.46 -28.88 156.7 -29.84 Q 158.95 -30.81 161.5 -30.81 L 161.5 -30.81 Q 164.06 -30.81 166.31 -29.84 Q 168.55 -28.88 170.23 -27.2 Q 171.9 -25.52 172.87 -23.28 Q 173.84 -21.03 173.84 -18.48 L 173.84 -18.48 Z M 225.29 -12.31 L 225.29 0 L 219.13 0 L 219.13 -30.81 L 240.7 -30.81 L 240.7 -24.64 L 225.29 -24.64 L 225.29 -18.48 L 234.53 -18.48 L 234.53 -12.31 L 225.29 -12.31 Z M 287.19 -15.28 L 287.19 -15.28 Q 287.19 -13.08 286.62 -11.05 Q 286.05 -9.02 285.02 -7.25 Q 283.99 -5.48 282.53 -4.02 Q 281.07 -2.56 279.31 -1.51 Q 277.55 -0.47 275.5 0.1 Q 273.46 0.67 271.27 0.67 L 271.27 0.67 Q 269.08 0.67 267.05 0.1 Q 265.02 -0.47 263.25 -1.51 Q 261.48 -2.56 260.01 -4.02 Q 258.55 -5.48 257.51 -7.25 Q 256.47 -9.02 255.9 -11.05 Q 255.33 -13.08 255.33 -15.28 L 255.33 -15.28 Q 255.33 -17.47 255.9 -19.51 Q 256.47 -21.55 257.51 -23.31 Q 258.55 -25.07 260.01 -26.53 Q 261.48 -27.99 263.25 -29.03 Q 265.02 -30.06 267.05 -30.63 Q 269.08 -31.2 271.27 -31.2 L 271.27 -31.2 Q 273.46 -31.2 275.5 -30.63 Q 277.55 -30.06 279.31 -29.03 Q 281.07 -27.99 282.53 -26.53 Q 283.99 -25.07 285.02 -23.31 Q 286.05 -21.55 286.62 -19.51 Q 287.19 -17.47 287.19 -15.28 Z M 281.07 -15.28 L 281.07 -15.28 Q 281.07 -17.29 280.3 -19.09 Q 279.52 -20.88 278.2 -22.2 Q 276.88 -23.53 275.09 -24.3 Q 273.29 -25.07 271.27 -25.07 L 271.27 -25.07 Q 269.23 -25.07 267.45 -24.3 Q 265.67 -23.53 264.33 -22.2 Q 263 -20.88 262.23 -19.09 Q 261.45 -17.29 261.45 -15.28 L 261.45 -15.28 Q 261.45 -13.26 262.23 -11.48 Q 263 -9.71 264.33 -8.38 Q 265.67 -7.05 267.45 -6.27 Q 269.23 -5.5 271.27 -5.5 L 271.27 -5.5 Q 273.29 -5.5 275.09 -6.27 Q 276.88 -7.05 278.2 -8.38 Q 279.52 -9.71 280.3 -11.48 Q 281.07 -13.26 281.07 -15.28 Z M 329.35 -30.81 L 329.35 -12.31 Q 329.35 -9.75 328.38 -7.51 Q 327.41 -5.26 325.74 -3.6 Q 324.06 -1.93 321.82 -0.97 Q 319.57 0 317.01 0 L 317.01 0 Q 314.46 0 312.21 -0.97 Q 309.97 -1.93 308.3 -3.6 Q 306.64 -5.26 305.67 -7.51 Q 304.7 -9.75 304.7 -12.31 L 304.7 -12.31 L 304.7 -30.81 L 310.85 -30.81 L 310.85 -12.31 Q 310.85 -11.04 311.33 -9.93 Q 311.82 -8.81 312.65 -7.97 Q 313.49 -7.13 314.62 -6.65 Q 315.75 -6.17 317.01 -6.17 L 317.01 -6.17 Q 318.28 -6.17 319.41 -6.65 Q 320.54 -7.13 321.38 -7.97 Q 322.21 -8.81 322.7 -9.93 Q 323.18 -11.04 323.18 -12.31 L 323.18 -12.31 L 323.18 -30.81 L 329.35 -30.81 Z M 373.15 -30.81 L 373.15 0 L 366.56 0 L 354.68 -20.28 L 354.68 0 L 348.51 0 L 348.51 -30.81 L 355.11 -30.81 L 366.99 -10.51 L 366.99 -30.81 L 373.15 -30.81 Z M 417.37 -15.4 L 417.37 -15.4 Q 417.37 -13.28 416.82 -11.31 Q 416.28 -9.35 415.27 -7.64 Q 414.26 -5.93 412.86 -4.52 Q 411.46 -3.12 409.74 -2.11 Q 408.03 -1.1 406.06 -0.55 Q 404.09 0 401.97 0 L 401.97 0 L 392.69 0 L 392.69 -30.81 L 401.97 -30.81 Q 404.09 -30.81 406.06 -30.26 Q 408.03 -29.71 409.74 -28.7 Q 411.46 -27.69 412.86 -26.29 Q 414.26 -24.88 415.27 -23.17 Q 416.28 -21.46 416.82 -19.5 Q 417.37 -17.53 417.37 -15.4 Z M 411.2 -15.4 L 411.2 -15.4 Q 411.2 -17.32 410.49 -18.99 Q 409.77 -20.67 408.51 -21.92 Q 407.25 -23.18 405.57 -23.91 Q 403.88 -24.64 401.97 -24.64 L 401.97 -24.64 L 398.89 -24.64 L 398.89 -6.17 L 401.97 -6.17 Q 403.88 -6.17 405.57 -6.89 Q 407.25 -7.61 408.51 -8.86 Q 409.77 -10.12 410.49 -11.81 Q 411.2 -13.49 411.2 -15.4 Z M 441.07 -12.31 L 453.4 -12.31 L 453.4 -18.48 Q 453.4 -19.74 452.92 -20.87 Q 452.43 -22 451.6 -22.84 Q 450.76 -23.68 449.63 -24.16 Q 448.5 -24.64 447.24 -24.64 L 447.24 -24.64 Q 445.97 -24.64 444.84 -24.16 Q 443.71 -23.68 442.87 -22.84 Q 442.04 -22 441.55 -20.87 Q 441.07 -19.74 441.07 -18.48 L 441.07 -18.48 L 441.07 -12.31 Z M 459.57 -18.48 L 459.57 0 L 453.4 0 L 453.4 -6.17 L 441.07 -6.17 L 441.07 0 L 434.93 0 L 434.93 -18.48 Q 434.93 -21.03 435.89 -23.28 Q 436.86 -25.52 438.52 -27.2 Q 440.19 -28.88 442.43 -29.84 Q 444.68 -30.81 447.24 -30.81 L 447.24 -30.81 Q 449.79 -30.81 452.04 -29.84 Q 454.28 -28.88 455.96 -27.2 Q 457.63 -25.52 458.6 -23.28 Q 459.57 -21.03 459.57 -18.48 L 459.57 -18.48 Z M 490.74 -24.64 L 490.74 0 L 484.6 0 L 484.6 -24.64 L 475.34 -24.64 L 475.34 -30.81 L 499.98 -30.81 L 499.98 -24.64 L 490.74 -24.64 Z M 523.23 -30.81 L 523.23 0 L 517.06 0 L 517.06 -30.81 L 523.23 -30.81 Z M 572.95 -15.28 L 572.95 -15.28 Q 572.95 -13.08 572.38 -11.05 Q 571.81 -9.02 570.78 -7.25 Q 569.74 -5.48 568.28 -4.02 Q 566.82 -2.56 565.06 -1.51 Q 563.3 -0.47 561.26 0.1 Q 559.22 0.67 557.03 0.67 L 557.03 0.67 Q 554.83 0.67 552.8 0.1 Q 550.77 -0.47 549 -1.51 Q 547.23 -2.56 545.77 -4.02 Q 544.31 -5.48 543.26 -7.25 Q 542.22 -9.02 541.65 -11.05 Q 541.08 -13.08 541.08 -15.28 L 541.08 -15.28 Q 541.08 -17.47 541.65 -19.51 Q 542.22 -21.55 543.26 -23.31 Q 544.31 -25.07 545.77 -26.53 Q 547.23 -27.99 549 -29.03 Q 550.77 -30.06 552.8 -30.63 Q 554.83 -31.2 557.03 -31.2 L 557.03 -31.2 Q 559.22 -31.2 561.26 -30.63 Q 563.3 -30.06 565.06 -29.03 Q 566.82 -27.99 568.28 -26.53 Q 569.74 -25.07 570.78 -23.31 Q 571.81 -21.55 572.38 -19.51 Q 572.95 -17.47 572.95 -15.28 Z M 566.82 -15.28 L 566.82 -15.28 Q 566.82 -17.29 566.05 -19.09 Q 565.28 -20.88 563.95 -22.2 Q 562.63 -23.53 560.84 -24.3 Q 559.05 -25.07 557.03 -25.07 L 557.03 -25.07 Q 554.98 -25.07 553.2 -24.3 Q 551.42 -23.53 550.09 -22.2 Q 548.75 -20.88 547.98 -19.09 Q 547.21 -17.29 547.21 -15.28 L 547.21 -15.28 Q 547.21 -13.26 547.98 -11.48 Q 548.75 -9.71 550.09 -8.38 Q 551.42 -7.05 553.2 -6.27 Q 554.98 -5.5 557.03 -5.5 L 557.03 -5.5 Q 559.05 -5.5 560.84 -6.27 Q 562.63 -7.05 563.95 -8.38 Q 565.28 -9.71 566.05 -11.48 Q 566.82 -13.26 566.82 -15.28 Z M 615.44 -30.81 L 615.44 0 L 608.85 0 L 596.97 -20.28 L 596.97 0 L 590.8 0 L 590.8 -30.81 L 597.4 -30.81 L 609.28 -10.51 L 609.28 -30.81 L 615.44 -30.81 Z" stroke-linecap="round" />
</g>
</g>
</g>
<g transform="matrix(1.9211538461538462 0 0 1.9211538461538462 640.4648291766827 765.1448394836095)" id="tagline-5c87d35a-f3a1-440a-aa2c-7e253f75db8f-logo"  >
<g style=""  paint-order="stroke"   >
		<g transform="matrix(1 0 0 1 0 0)" id="tagline-5c87d35a-f3a1-440a-aa2c-7e253f75db8f-logo-path-0"  >
<path style="stroke: none; stroke-width: 0; stroke-dasharray: none; stroke-linecap: butt; stroke-dashoffset: 0; stroke-linejoin: miter; stroke-miterlimit: 4; fill: rgb(190,55,148); fill-rule: nonzero; opacity: 1;"  paint-order="stroke"  transform=" translate(-195.53, 14.035)" d="M 28.87 -19 L 28.87 0 L 23.56 0 L 23.56 -19 Q 23.56 -19.56 23.35 -20.04 Q 23.14 -20.52 22.78 -20.88 Q 22.41 -21.25 21.93 -21.45 Q 21.45 -21.65 20.89 -21.65 L 20.89 -21.65 Q 20.34 -21.65 19.85 -21.45 Q 19.37 -21.25 19.01 -20.88 Q 18.65 -20.52 18.44 -20.04 Q 18.24 -19.56 18.24 -19 L 18.24 -19 L 18.24 0 L 12.91 0 L 12.91 -19 Q 12.91 -19.56 12.71 -20.04 Q 12.51 -20.52 12.14 -20.88 Q 11.78 -21.25 11.3 -21.45 Q 10.82 -21.65 10.26 -21.65 L 10.26 -21.65 Q 9.7 -21.65 9.22 -21.45 Q 8.74 -21.25 8.38 -20.88 Q 8.02 -20.52 7.81 -20.04 Q 7.61 -19.56 7.61 -19 L 7.61 -19 L 7.61 0 L 2.28 0 L 2.28 -19 Q 2.28 -20.65 2.9 -22.11 Q 3.53 -23.56 4.61 -24.65 Q 5.7 -25.74 7.15 -26.36 Q 8.61 -26.98 10.26 -26.98 L 10.26 -26.98 Q 11.75 -26.98 13.12 -26.45 Q 14.49 -25.92 15.59 -24.92 L 15.59 -24.92 Q 16.68 -25.92 18.04 -26.45 Q 19.41 -26.98 20.89 -26.98 L 20.89 -26.98 Q 22.54 -26.98 24 -26.36 Q 25.46 -25.74 26.54 -24.65 Q 27.63 -23.56 28.25 -22.11 Q 28.87 -20.65 28.87 -19 L 28.87 -19 Z M 55.43 -16.31 L 45.93 -4.86 Q 46.23 -4.77 46.53 -4.74 Q 46.82 -4.71 47.12 -4.71 L 47.12 -4.71 Q 47.86 -4.71 48.55 -4.92 Q 49.24 -5.12 49.84 -5.5 Q 50.44 -5.88 50.91 -6.43 Q 51.39 -6.98 51.68 -7.64 L 51.68 -7.64 L 55.4 -3.92 Q 54.69 -2.91 53.77 -2.12 Q 52.85 -1.32 51.79 -0.76 Q 50.72 -0.2 49.54 0.08 Q 48.36 0.37 47.12 0.37 L 47.12 0.37 Q 45.02 0.37 43.18 -0.41 Q 41.33 -1.19 39.95 -2.58 Q 38.57 -3.97 37.77 -5.89 Q 36.97 -7.81 36.97 -10.11 L 36.97 -10.11 Q 36.97 -12.47 37.77 -14.42 Q 38.57 -16.37 39.95 -17.74 Q 41.33 -19.11 43.18 -19.87 Q 45.02 -20.63 47.12 -20.63 L 47.12 -20.63 Q 48.36 -20.63 49.55 -20.34 Q 50.74 -20.04 51.81 -19.48 Q 52.87 -18.93 53.8 -18.12 Q 54.73 -17.31 55.43 -16.31 L 55.43 -16.31 Z M 42.63 -7.48 L 48.53 -15.31 Q 48.18 -15.44 47.83 -15.47 Q 47.49 -15.51 47.12 -15.51 L 47.12 -15.51 Q 46.08 -15.51 45.16 -15.13 Q 44.24 -14.75 43.57 -14.05 Q 42.89 -13.34 42.5 -12.35 Q 42.11 -11.36 42.11 -10.11 L 42.11 -10.11 Q 42.11 -9.83 42.14 -9.48 Q 42.17 -9.13 42.23 -8.77 Q 42.3 -8.41 42.39 -8.07 Q 42.48 -7.74 42.63 -7.48 L 42.63 -7.48 Z M 82.2 -27.78 L 82.2 0 L 80.97 0 L 79.01 -2.73 Q 78.28 -2.08 77.48 -1.51 Q 76.67 -0.95 75.78 -0.53 Q 74.89 -0.11 73.95 0.13 Q 73.01 0.37 72.05 0.37 L 72.05 0.37 Q 69.95 0.37 68.11 -0.42 Q 66.26 -1.21 64.88 -2.61 Q 63.5 -4.01 62.7 -5.93 Q 61.9 -7.85 61.9 -10.11 L 61.9 -10.11 Q 61.9 -12.36 62.7 -14.29 Q 63.5 -16.22 64.88 -17.63 Q 66.26 -19.04 68.11 -19.83 Q 69.95 -20.63 72.05 -20.63 L 72.05 -20.63 Q 72.72 -20.63 73.43 -20.52 Q 74.15 -20.41 74.82 -20.16 Q 75.5 -19.91 76.09 -19.5 Q 76.69 -19.09 77.1 -18.5 L 77.1 -18.5 L 77.1 -27.78 L 82.2 -27.78 Z M 77.1 -10.11 L 77.1 -10.11 Q 77.1 -11.15 76.7 -12.13 Q 76.3 -13.1 75.61 -13.85 Q 74.92 -14.6 74.01 -15.06 Q 73.09 -15.51 72.05 -15.51 L 72.05 -15.51 Q 71.01 -15.51 70.09 -15.14 Q 69.17 -14.77 68.5 -14.07 Q 67.82 -13.38 67.43 -12.38 Q 67.04 -11.37 67.04 -10.11 L 67.04 -10.11 Q 67.04 -9.02 67.43 -8.03 Q 67.82 -7.05 68.5 -6.31 Q 69.17 -5.57 70.09 -5.14 Q 71.01 -4.71 72.05 -4.71 L 72.05 -4.71 Q 73.09 -4.71 74.01 -5.17 Q 74.92 -5.62 75.61 -6.37 Q 76.3 -7.13 76.7 -8.1 Q 77.1 -9.07 77.1 -10.11 Z M 97.2 -25.27 L 97.2 -25.27 Q 97.2 -24.57 96.93 -23.95 Q 96.66 -23.34 96.2 -22.89 Q 95.73 -22.43 95.11 -22.16 Q 94.49 -21.89 93.79 -21.89 L 93.79 -21.89 Q 93.08 -21.89 92.46 -22.16 Q 91.84 -22.43 91.38 -22.89 Q 90.93 -23.34 90.66 -23.95 Q 90.39 -24.57 90.39 -25.27 L 90.39 -25.27 Q 90.39 -25.96 90.66 -26.58 Q 90.93 -27.2 91.38 -27.66 Q 91.84 -28.11 92.46 -28.38 Q 93.08 -28.65 93.79 -28.65 L 93.79 -28.65 Q 94.49 -28.65 95.11 -28.38 Q 95.73 -28.11 96.2 -27.66 Q 96.66 -27.2 96.93 -26.58 Q 97.2 -25.96 97.2 -25.27 Z M 96.33 -19.87 L 96.33 0 L 91.23 0 L 91.23 -19.87 L 96.33 -19.87 Z M 122.72 -15.92 L 122.72 -15.92 L 119.01 -12.19 Q 118.73 -12.97 118.25 -13.59 Q 117.77 -14.21 117.17 -14.64 Q 116.56 -15.07 115.86 -15.29 Q 115.15 -15.51 114.41 -15.51 L 114.41 -15.51 Q 113.37 -15.51 112.45 -15.08 Q 111.53 -14.66 110.86 -13.89 Q 110.18 -13.12 109.79 -12.06 Q 109.4 -11 109.4 -9.72 L 109.4 -9.72 Q 109.4 -8.68 109.79 -7.77 Q 110.18 -6.87 110.86 -6.18 Q 111.53 -5.49 112.45 -5.1 Q 113.37 -4.71 114.41 -4.71 L 114.41 -4.71 Q 115.15 -4.71 115.84 -4.92 Q 116.53 -5.12 117.13 -5.5 Q 117.73 -5.88 118.2 -6.43 Q 118.68 -6.98 118.97 -7.64 L 118.97 -7.64 L 122.69 -3.92 Q 121.98 -2.91 121.06 -2.12 Q 120.14 -1.32 119.08 -0.76 Q 118.01 -0.2 116.83 0.08 Q 115.65 0.37 114.41 0.37 L 114.41 0.37 Q 112.31 0.37 110.47 -0.42 Q 108.62 -1.21 107.24 -2.58 Q 105.86 -3.95 105.06 -5.79 Q 104.26 -7.63 104.26 -9.72 L 104.26 -9.72 Q 104.26 -12 105.06 -13.99 Q 105.86 -15.98 107.24 -17.45 Q 108.62 -18.93 110.47 -19.78 Q 112.31 -20.63 114.41 -20.63 L 114.41 -20.63 Q 115.65 -20.63 116.85 -20.32 Q 118.05 -20 119.13 -19.4 Q 120.22 -18.8 121.14 -17.92 Q 122.05 -17.05 122.72 -15.92 Z M 149.3 -19.83 L 149.3 0 L 148.08 0 L 146.11 -2.73 Q 145.39 -2.08 144.58 -1.51 Q 143.77 -0.95 142.88 -0.53 Q 141.99 -0.11 141.06 0.13 Q 140.12 0.37 139.15 0.37 L 139.15 0.37 Q 137.06 0.37 135.21 -0.33 Q 133.36 -1.04 131.98 -2.38 Q 130.6 -3.73 129.8 -5.68 Q 129 -7.63 129 -10.11 L 129 -10.11 Q 129 -12.43 129.8 -14.37 Q 130.6 -16.31 131.98 -17.7 Q 133.36 -19.09 135.21 -19.86 Q 137.06 -20.63 139.15 -20.63 L 139.15 -20.63 Q 140.12 -20.63 141.06 -20.39 Q 142.01 -20.15 142.9 -19.72 Q 143.79 -19.3 144.6 -18.72 Q 145.41 -18.15 146.11 -17.48 L 146.11 -17.48 L 148.08 -19.83 L 149.3 -19.83 Z M 144.2 -10.11 L 144.2 -10.11 Q 144.2 -11.15 143.8 -12.13 Q 143.4 -13.1 142.72 -13.85 Q 142.03 -14.6 141.11 -15.06 Q 140.19 -15.51 139.15 -15.51 L 139.15 -15.51 Q 138.11 -15.51 137.2 -15.16 Q 136.28 -14.81 135.6 -14.12 Q 134.92 -13.43 134.53 -12.42 Q 134.14 -11.41 134.14 -10.11 L 134.14 -10.11 Q 134.14 -8.81 134.53 -7.8 Q 134.92 -6.79 135.6 -6.1 Q 136.28 -5.42 137.2 -5.07 Q 138.11 -4.71 139.15 -4.71 L 139.15 -4.71 Q 140.19 -4.71 141.11 -5.17 Q 142.03 -5.62 142.72 -6.37 Q 143.4 -7.13 143.8 -8.1 Q 144.2 -9.07 144.2 -10.11 Z M 163.43 -27.78 L 163.43 0 L 158.33 0 L 158.33 -27.78 L 163.43 -27.78 Z M 198.41 -26.64 L 198.41 -23.25 L 202.47 -23.25 L 202.47 -19.22 L 194.61 -19.22 Q 194.2 -19.22 193.84 -19.06 Q 193.47 -18.91 193.2 -18.63 Q 192.92 -18.35 192.76 -17.99 Q 192.6 -17.63 192.6 -17.22 L 192.6 -17.22 Q 192.6 -16.79 192.76 -16.41 Q 192.92 -16.03 193.2 -15.75 Q 193.47 -15.47 193.84 -15.32 Q 194.2 -15.16 194.61 -15.16 L 194.61 -15.16 L 199.45 -15.16 L 199.45 -11.13 L 194.61 -11.13 Q 194.2 -11.13 193.84 -10.98 Q 193.47 -10.82 193.2 -10.54 Q 192.92 -10.26 192.76 -9.9 Q 192.6 -9.54 192.6 -9.13 L 192.6 -9.13 Q 192.6 -8.7 192.76 -8.32 Q 192.92 -7.94 193.2 -7.66 Q 193.47 -7.38 193.84 -7.23 Q 194.2 -7.07 194.61 -7.07 L 194.61 -7.07 L 202.47 -7.07 L 202.47 -3.04 L 198.41 -3.04 L 198.41 0 L 195 0 L 195 -3.04 L 194.61 -3.04 Q 193.34 -3.04 192.25 -3.52 Q 191.15 -3.99 190.34 -4.81 Q 189.52 -5.64 189.05 -6.74 Q 188.58 -7.85 188.58 -9.13 L 188.58 -9.13 Q 188.58 -10.24 188.97 -11.28 Q 189.35 -12.32 190.13 -13.16 L 190.13 -13.16 Q 189.35 -13.99 188.97 -15.03 Q 188.58 -16.07 188.58 -17.22 L 188.58 -17.22 Q 188.58 -18.46 189.05 -19.57 Q 189.52 -20.67 190.34 -21.49 Q 191.15 -22.3 192.25 -22.78 Q 193.34 -23.25 194.61 -23.25 L 194.61 -23.25 L 195 -23.25 L 195 -26.64 L 198.41 -26.64 Z M 249.4 -13.19 L 249.4 -2.69 Q 247.54 -1.11 245.26 -0.27 Q 242.98 0.58 240.51 0.58 L 240.51 0.58 Q 238.62 0.58 236.87 0.08 Q 235.11 -0.41 233.59 -1.31 Q 232.07 -2.21 230.81 -3.46 Q 229.55 -4.71 228.65 -6.24 Q 227.76 -7.77 227.27 -9.54 Q 226.78 -11.3 226.78 -13.19 L 226.78 -13.19 Q 226.78 -15.08 227.27 -16.83 Q 227.76 -18.57 228.65 -20.1 Q 229.55 -21.63 230.81 -22.89 Q 232.07 -24.14 233.59 -25.03 Q 235.11 -25.92 236.87 -26.41 Q 238.62 -26.9 240.51 -26.9 L 240.51 -26.9 Q 242.98 -26.9 245.26 -26.06 Q 247.54 -25.22 249.4 -23.64 L 249.4 -23.64 L 246.62 -19 Q 245.41 -20.22 243.83 -20.92 Q 242.26 -21.62 240.51 -21.62 L 240.51 -21.62 Q 238.77 -21.62 237.24 -20.95 Q 235.71 -20.28 234.56 -19.14 Q 233.4 -18 232.74 -16.47 Q 232.07 -14.94 232.07 -13.19 L 232.07 -13.19 Q 232.07 -11.43 232.74 -9.89 Q 233.4 -8.35 234.56 -7.2 Q 235.71 -6.05 237.24 -5.38 Q 238.77 -4.71 240.51 -4.71 L 240.51 -4.71 Q 241.51 -4.71 242.46 -4.95 Q 243.41 -5.2 244.26 -5.62 L 244.26 -5.62 L 244.26 -13.19 L 249.4 -13.19 Z M 275.53 -16.31 L 266.03 -4.86 Q 266.33 -4.77 266.63 -4.74 Q 266.92 -4.71 267.22 -4.71 L 267.22 -4.71 Q 267.96 -4.71 268.65 -4.92 Q 269.34 -5.12 269.94 -5.5 Q 270.54 -5.88 271.02 -6.43 Q 271.49 -6.98 271.79 -7.64 L 271.79 -7.64 L 275.5 -3.92 Q 274.79 -2.91 273.87 -2.12 Q 272.95 -1.32 271.89 -0.76 Q 270.82 -0.2 269.64 0.08 Q 268.46 0.37 267.22 0.37 L 267.22 0.37 Q 265.12 0.37 263.28 -0.41 Q 261.43 -1.19 260.05 -2.58 Q 258.67 -3.97 257.87 -5.89 Q 257.07 -7.81 257.07 -10.11 L 257.07 -10.11 Q 257.07 -12.47 257.87 -14.42 Q 258.67 -16.37 260.05 -17.74 Q 261.43 -19.11 263.28 -19.87 Q 265.12 -20.63 267.22 -20.63 L 267.22 -20.63 Q 268.46 -20.63 269.65 -20.34 Q 270.84 -20.04 271.91 -19.48 Q 272.97 -18.93 273.9 -18.12 Q 274.83 -17.31 275.53 -16.31 L 275.53 -16.31 Z M 262.73 -7.48 L 268.63 -15.31 Q 268.28 -15.44 267.94 -15.47 Q 267.59 -15.51 267.22 -15.51 L 267.22 -15.51 Q 266.18 -15.51 265.26 -15.13 Q 264.35 -14.75 263.67 -14.05 Q 262.99 -13.34 262.6 -12.35 Q 262.21 -11.36 262.21 -10.11 L 262.21 -10.11 Q 262.21 -9.83 262.24 -9.48 Q 262.27 -9.13 262.33 -8.77 Q 262.4 -8.41 262.49 -8.07 Q 262.58 -7.74 262.73 -7.48 L 262.73 -7.48 Z M 288.31 -11.36 L 288.31 0 L 283.24 0 L 283.24 -19.87 L 284.47 -19.87 L 286.14 -17.94 Q 287.36 -19.06 288.91 -19.66 Q 290.46 -20.26 292.15 -20.26 L 292.15 -20.26 Q 293.97 -20.26 295.58 -19.57 Q 297.2 -18.87 298.4 -17.65 Q 299.61 -16.44 300.3 -14.82 Q 301 -13.19 301 -11.36 L 301 -11.36 L 301 0 L 295.93 0 L 295.93 -11.36 Q 295.93 -12.13 295.64 -12.83 Q 295.34 -13.53 294.82 -14.05 Q 294.3 -14.57 293.62 -14.86 Q 292.93 -15.16 292.15 -15.16 L 292.15 -15.16 Q 291.35 -15.16 290.65 -14.86 Q 289.94 -14.57 289.42 -14.05 Q 288.9 -13.53 288.61 -12.83 Q 288.31 -12.13 288.31 -11.36 L 288.31 -11.36 Z M 327.17 -16.31 L 317.67 -4.86 Q 317.97 -4.77 318.27 -4.74 Q 318.56 -4.71 318.86 -4.71 L 318.86 -4.71 Q 319.6 -4.71 320.29 -4.92 Q 320.98 -5.12 321.58 -5.5 Q 322.18 -5.88 322.65 -6.43 Q 323.13 -6.98 323.42 -7.64 L 323.42 -7.64 L 327.14 -3.92 Q 326.43 -2.91 325.51 -2.12 Q 324.59 -1.32 323.53 -0.76 Q 322.46 -0.2 321.28 0.08 Q 320.1 0.37 318.86 0.37 L 318.86 0.37 Q 316.76 0.37 314.92 -0.41 Q 313.07 -1.19 311.69 -2.58 Q 310.31 -3.97 309.51 -5.89 Q 308.71 -7.81 308.71 -10.11 L 308.71 -10.11 Q 308.71 -12.47 309.51 -14.42 Q 310.31 -16.37 311.69 -17.74 Q 313.07 -19.11 314.92 -19.87 Q 316.76 -20.63 318.86 -20.63 L 318.86 -20.63 Q 320.1 -20.63 321.29 -20.34 Q 322.48 -20.04 323.54 -19.48 Q 324.61 -18.93 325.54 -18.12 Q 326.47 -17.31 327.17 -16.31 L 327.17 -16.31 Z M 314.37 -7.48 L 320.27 -15.31 Q 319.92 -15.44 319.57 -15.47 Q 319.23 -15.51 318.86 -15.51 L 318.86 -15.51 Q 317.82 -15.51 316.9 -15.13 Q 315.98 -14.75 315.31 -14.05 Q 314.63 -13.34 314.24 -12.35 Q 313.85 -11.36 313.85 -10.11 L 313.85 -10.11 Q 313.85 -9.83 313.88 -9.48 Q 313.91 -9.13 313.97 -8.77 Q 314.04 -8.41 314.13 -8.07 Q 314.22 -7.74 314.37 -7.48 L 314.37 -7.48 Z M 339.95 -10.95 L 339.95 0 L 334.88 0 L 334.88 -19.87 L 336.11 -19.87 L 337.78 -17.52 Q 339 -18.63 340.56 -19.23 Q 342.12 -19.83 343.79 -19.83 L 343.79 -19.83 L 348.26 -19.83 L 348.26 -14.79 L 343.79 -14.79 Q 342.99 -14.79 342.29 -14.49 Q 341.58 -14.19 341.06 -13.67 Q 340.54 -13.16 340.24 -12.45 Q 339.95 -11.75 339.95 -10.95 L 339.95 -10.95 Z M 374.65 -19.83 L 374.65 0 L 373.43 0 L 371.46 -2.73 Q 370.74 -2.08 369.93 -1.51 Q 369.13 -0.95 368.23 -0.53 Q 367.34 -0.11 366.41 0.13 Q 365.47 0.37 364.51 0.37 L 364.51 0.37 Q 362.41 0.37 360.56 -0.33 Q 358.72 -1.04 357.33 -2.38 Q 355.95 -3.73 355.15 -5.68 Q 354.36 -7.63 354.36 -10.11 L 354.36 -10.11 Q 354.36 -12.43 355.15 -14.37 Q 355.95 -16.31 357.33 -17.7 Q 358.72 -19.09 360.56 -19.86 Q 362.41 -20.63 364.51 -20.63 L 364.51 -20.63 Q 365.47 -20.63 366.42 -20.39 Q 367.36 -20.15 368.25 -19.72 Q 369.14 -19.3 369.95 -18.72 Q 370.76 -18.15 371.46 -17.48 L 371.46 -17.48 L 373.43 -19.83 L 374.65 -19.83 Z M 369.55 -10.11 L 369.55 -10.11 Q 369.55 -11.15 369.15 -12.13 Q 368.75 -13.1 368.07 -13.85 Q 367.38 -14.6 366.46 -15.06 Q 365.54 -15.51 364.51 -15.51 L 364.51 -15.51 Q 363.47 -15.51 362.55 -15.16 Q 361.63 -14.81 360.95 -14.12 Q 360.27 -13.43 359.89 -12.42 Q 359.5 -11.41 359.5 -10.11 L 359.5 -10.11 Q 359.5 -8.81 359.89 -7.8 Q 360.27 -6.79 360.95 -6.1 Q 361.63 -5.42 362.55 -5.07 Q 363.47 -4.71 364.51 -4.71 L 364.51 -4.71 Q 365.54 -4.71 366.46 -5.17 Q 367.38 -5.62 368.07 -6.37 Q 368.75 -7.13 369.15 -8.1 Q 369.55 -9.07 369.55 -10.11 Z M 388.78 -27.78 L 388.78 0 L 383.68 0 L 383.68 -27.78 L 388.78 -27.78 Z" stroke-linecap="round" />
</g>
</g>
</g>
</svg>