<?xml version="1.0" encoding="UTF-8" standalone="no" ?>
<!DOCTYPE svg PUBLIC "-//W3C//DTD SVG 1.1//EN" "http://www.w3.org/Graphics/SVG/1.1/DTD/svg11.dtd">
<svg xmlns="http://www.w3.org/2000/svg" xmlns:xlink="http://www.w3.org/1999/xlink" version="1.1" width="1280" height="324" viewBox="200 350 870 300" xml:space="preserve">
<desc>Created with Fabric.js 4.4.0</desc>
<defs>
</defs>
<g transform="matrix(1 0 0 1 640 512)" id="background-logo"  >
<rect style="stroke: none; stroke-width: 0; stroke-dasharray: none; stroke-linecap: butt; stroke-dashoffset: 0; stroke-linejoin: miter; stroke-miterlimit: 4; fill: rgb(255,255,255); fill-opacity: 0; fill-rule: nonzero; opacity: 1;"  paint-order="stroke"  x="-640" y="-512" rx="0" ry="0" width="1280" height="1024" />
</g>
<g transform="matrix(1.9211538461538462 0 0 1.9211538461538462 636.5354436670491 472.75515702192956)" id="text-logo"  >
<g style=""  paint-order="stroke"   >
		<g transform="matrix(1 0 0 1 0 0)" id="text-logo-path-0"  >
<linearGradient id="SVGID_571068" gradientUnits="userSpaceOnUse" gradientTransform="matrix(1 0 0 1 3.3600000000000136 -61.5)"  x1="0" y1="0" x2="0" y2="93">
<stop offset="0%" style="stop-color:rgb(248,77,158);stop-opacity: 1"/>
<stop offset="100%" style="stop-color:rgb(255,116,117);stop-opacity: 1"/>
</linearGradient>
<filter id="SVGID_571065" y="-27.095266937786622%" height="154.19053387557324%" x="-20.798747408210772%" width="141.59749481642154%" >
	<feGaussianBlur in="SourceAlpha" stdDeviation="0"></feGaussianBlur>
	<feOffset dx="4.505494505494505" dy="4.505494505494505" result="oBlur" ></feOffset>
	<feFlood flood-color="rgb(81,18,94)" flood-opacity="1"/>
	<feComposite in2="oBlur" operator="in" />
	<feMerge>
		<feMergeNode></feMergeNode>
		<feMergeNode in="SourceGraphic"></feMergeNode>
	</feMerge>
</filter>
<path style="stroke: rgb(81,18,94); stroke-width: 8.10989010989011; stroke-dasharray: none; stroke-linecap: butt; stroke-dashoffset: 0; stroke-linejoin: miter; stroke-miterlimit: 4; fill: url(#SVGID_571068); fill-rule: nonzero; opacity: 1;filter: url(#SVGID_571065);"  paint-order="stroke"  transform=" translate(-285.395, 29.75)" d="M 20.42 -2.72 L 3.36 0.32 L 9.61 -57.9 Q 13.45 -58.06 16.86 -58.66 Q 20.26 -59.26 23.62 -59.5 L 23.62 -59.5 Q 23.62 -59.34 17.86 -23.3 L 17.86 -23.3 L 19.14 -23.3 Q 21.46 -31.79 23.62 -39.12 Q 25.79 -46.45 26.59 -49.17 L 26.59 -49.17 Q 28.19 -55.25 29.15 -58.38 L 29.15 -58.38 L 29.87 -58.38 Q 33.87 -58.38 38.52 -59.42 L 38.52 -59.42 Q 38.36 -58.7 38.16 -56.42 Q 37.96 -54.13 37.64 -50.89 Q 37.32 -47.65 37 -43.76 Q 36.68 -39.88 36.36 -36.12 L 36.36 -36.12 Q 35.79 -29.31 35.15 -23.3 L 35.15 -23.3 L 36.68 -23.3 L 44.44 -58.54 Q 47.25 -58.94 49.81 -59.26 L 49.81 -59.26 Q 56.54 -60.14 59.34 -60.7 L 59.34 -60.7 Q 56.13 -51.41 53.41 -40.68 L 53.41 -40.68 Q 47.01 -15.38 44.44 -3.92 L 44.44 -3.92 L 25.95 -0.8 L 29.55 -32.43 L 28.51 -32.43 L 20.42 -2.72 Z M 76.39 -4 L 49.89 0.08 L 60.62 -58.22 L 86.56 -60.46 Q 86 -58.62 85.6 -56.9 Q 85.2 -55.17 84.8 -53.49 Q 84.4 -51.81 84.16 -50.53 L 84.16 -50.53 Q 81.76 -50.29 77.6 -50.29 L 77.6 -50.29 L 72.07 -50.29 L 69.19 -35.55 Q 73.59 -35.79 76.55 -35.88 Q 79.52 -35.96 80.4 -36.04 L 80.4 -36.04 Q 80.08 -33.71 79.8 -31.51 Q 79.52 -29.31 79.12 -26.99 L 79.12 -26.99 Q 78.24 -26.91 76.39 -26.87 Q 74.55 -26.83 72.55 -26.75 Q 70.55 -26.67 68.07 -26.59 L 68.07 -26.59 L 65.26 -11.45 L 77.2 -13.37 L 76.39 -4 Z M 94.33 -7.21 L 94.33 -7.21 L 100.42 -19.14 Q 101.54 -16.9 104.74 -15.05 L 104.74 -15.05 Q 107.95 -13.13 109.55 -13.13 Q 111.15 -13.13 112.23 -13.45 Q 113.31 -13.77 114.19 -14.41 L 114.19 -14.41 Q 116.19 -15.86 116.19 -17.9 Q 116.19 -19.94 114.91 -21.62 Q 113.63 -23.3 111.75 -24.82 Q 109.87 -26.35 107.67 -27.91 Q 105.46 -29.47 103.62 -31.23 L 103.62 -31.23 Q 99.14 -35.23 99.14 -39.64 Q 99.14 -44.04 101.66 -47.73 Q 104.18 -51.41 107.99 -54.09 Q 111.79 -56.78 116.31 -58.34 Q 120.84 -59.9 123.96 -59.9 Q 127.08 -59.9 129.05 -59.34 Q 131.01 -58.78 132.45 -57.66 L 132.45 -57.66 Q 135.57 -55.09 135.57 -50.13 L 135.57 -50.13 Q 135.57 -48.93 135.37 -47.81 Q 135.17 -46.69 135.01 -45.32 L 135.01 -45.32 L 123.16 -41.88 Q 123.56 -43.48 123.56 -45.24 Q 123.56 -47.01 122.68 -48.09 Q 121.8 -49.17 120.8 -49.17 Q 119.8 -49.17 118.84 -48.69 Q 117.88 -48.21 116.91 -47.41 L 116.91 -47.41 Q 114.67 -45.56 114.67 -43.44 Q 114.67 -41.32 115.79 -40 Q 116.91 -38.68 118.56 -37.56 Q 120.2 -36.44 122.12 -35.23 Q 124.04 -34.03 125.72 -32.19 L 125.72 -32.19 Q 129.57 -27.71 129.57 -20.26 L 129.57 -20.26 Q 129.57 -11.29 123 -5.45 L 123 -5.45 Q 116.75 0.16 107.22 0.16 L 107.22 0.16 Q 100.18 0.16 94.33 -7.21 Z M 155.59 -4 L 129.09 0.08 L 139.82 -58.22 L 165.76 -60.46 Q 165.2 -58.62 164.8 -56.9 Q 164.4 -55.17 164 -53.49 Q 163.6 -51.81 163.36 -50.53 L 163.36 -50.53 Q 160.96 -50.29 156.79 -50.29 L 156.79 -50.29 L 151.27 -50.29 L 148.38 -35.55 Q 152.79 -35.79 155.75 -35.88 Q 158.71 -35.96 159.6 -36.04 L 159.6 -36.04 Q 159.28 -33.71 159 -31.51 Q 158.71 -29.31 158.31 -26.99 L 158.31 -26.99 Q 157.43 -26.91 155.59 -26.87 Q 153.75 -26.83 151.75 -26.75 Q 149.75 -26.67 147.26 -26.59 L 147.26 -26.59 L 144.46 -11.45 L 156.39 -13.37 L 155.59 -4 Z M 157.35 0.16 L 157.35 0.16 Q 159.28 -14.65 162.44 -30.99 Q 165.6 -47.33 167.84 -58.46 L 167.84 -58.46 L 182.26 -60.38 Q 174.81 -28.83 173.57 -21.62 Q 172.33 -14.41 171.93 -11.53 L 171.93 -11.53 Q 174.97 -11.77 180.42 -11.77 L 180.42 -11.77 Q 180.58 -8.65 180.9 -6.69 Q 181.22 -4.72 181.34 -3.8 Q 181.46 -2.88 181.54 -2.56 L 181.54 -2.56 L 179.05 -2.64 Q 170.65 -2.64 162.32 -1.12 L 162.32 -1.12 Q 159.6 -0.56 157.35 0.16 Z M 181.62 0.16 L 181.62 0.16 Q 183.54 -14.65 186.7 -30.99 Q 189.87 -47.33 192.11 -58.46 L 192.11 -58.46 L 206.52 -60.38 Q 199.07 -28.83 197.83 -21.62 Q 196.59 -14.41 196.19 -11.53 L 196.19 -11.53 Q 199.23 -11.77 204.68 -11.77 L 204.68 -11.77 Q 204.84 -8.65 205.16 -6.69 Q 205.48 -4.72 205.6 -3.8 Q 205.72 -2.88 205.8 -2.56 L 205.8 -2.56 L 203.32 -2.64 Q 194.91 -2.64 186.58 -1.12 L 186.58 -1.12 Q 183.86 -0.56 181.62 0.16 Z M 248.56 -4 L 222.06 0.08 L 232.79 -58.22 L 258.73 -60.46 Q 258.17 -58.62 257.77 -56.9 Q 257.37 -55.17 256.97 -53.49 Q 256.57 -51.81 256.33 -50.53 L 256.33 -50.53 Q 253.93 -50.29 249.76 -50.29 L 249.76 -50.29 L 244.24 -50.29 L 241.36 -35.55 Q 245.76 -35.79 248.72 -35.88 Q 251.69 -35.96 252.57 -36.04 L 252.57 -36.04 Q 252.25 -33.71 251.97 -31.51 Q 251.69 -29.31 251.29 -26.99 L 251.29 -26.99 Q 250.4 -26.91 248.56 -26.87 Q 246.72 -26.83 244.72 -26.75 Q 242.72 -26.67 240.23 -26.59 L 240.23 -26.59 L 237.43 -11.45 L 249.36 -13.37 L 248.56 -4 Z M 275.47 -2.48 L 254.17 0.72 Q 257.85 -37 258.33 -59.58 L 258.33 -59.58 Q 264.26 -59.58 269.78 -60.06 L 269.78 -60.06 L 271.06 -60.22 Q 270.18 -50.69 269.54 -44.56 Q 268.9 -38.44 268.54 -34.63 Q 268.18 -30.83 267.86 -27.31 L 267.86 -27.31 Q 267.3 -21.3 266.66 -15.62 L 266.66 -15.62 L 268.18 -15.62 L 277.31 -59.18 Q 279.55 -59.26 281.71 -59.42 Q 283.88 -59.58 286.12 -59.7 Q 288.36 -59.82 290.28 -60.06 L 290.28 -60.06 Q 286.84 -48.93 284.32 -38.8 Q 281.79 -28.67 279.91 -21.14 Q 278.03 -13.61 275.47 -2.48 L 275.47 -2.48 Z M 307.58 -4 L 281.07 0.08 L 291.8 -58.22 L 317.75 -60.46 Q 317.19 -58.62 316.79 -56.9 Q 316.39 -55.17 315.99 -53.49 Q 315.59 -51.81 315.35 -50.53 L 315.35 -50.53 Q 312.95 -50.29 308.78 -50.29 L 308.78 -50.29 L 303.26 -50.29 L 300.37 -35.55 Q 304.78 -35.79 307.74 -35.88 Q 310.7 -35.96 311.58 -36.04 L 311.58 -36.04 Q 311.26 -33.71 310.98 -31.51 Q 310.7 -29.31 310.3 -26.99 L 310.3 -26.99 Q 309.42 -26.91 307.58 -26.87 Q 305.74 -26.83 303.74 -26.75 Q 301.73 -26.67 299.25 -26.59 L 299.25 -26.59 L 296.45 -11.45 L 308.38 -13.37 L 307.58 -4 Z M 321.99 -3.36 L 308.7 0.08 Q 317.03 -40.2 318.87 -57.1 L 318.87 -57.1 Q 328.16 -59.98 339.69 -59.98 L 339.69 -59.98 Q 348.34 -59.98 349.94 -53.97 L 349.94 -53.97 Q 350.42 -52.13 350.42 -49.41 Q 350.42 -46.69 349.3 -43.52 Q 348.18 -40.36 346.26 -37.48 L 346.26 -37.48 Q 342.25 -31.63 336.41 -28.51 L 336.41 -28.51 Q 339.53 -21.78 341.97 -15.82 Q 344.42 -9.85 346.1 -5.77 L 346.1 -5.77 L 333.37 -1.28 Q 327.2 -21.54 326.96 -24.42 L 326.96 -24.42 L 325.92 -24.1 Q 325.28 -20.42 324 -13.85 Q 322.71 -7.29 321.99 -3.36 L 321.99 -3.36 Z M 330.64 -48.53 L 328 -35.47 Q 331.2 -35.79 336.09 -39.56 L 336.09 -39.56 Q 341.13 -43.4 341.13 -45.88 L 341.13 -45.88 Q 341.13 -48.21 336.73 -48.53 L 336.73 -48.53 Q 335.45 -48.61 334.17 -48.61 L 334.17 -48.61 L 330.64 -48.53 Z M 364.12 -2.96 L 350.1 -1.2 L 353.87 -17.7 Q 353.87 -27.63 353.06 -39.64 Q 352.26 -51.65 352.1 -53.49 L 352.1 -53.49 L 351.94 -55.25 L 365.32 -60.38 L 365.32 -46.13 L 365.24 -38.12 L 365.24 -35.07 Q 367.88 -41.64 373.88 -59.42 L 373.88 -59.42 L 386.62 -56.62 Q 382.21 -47.65 378.69 -40.36 L 378.69 -40.36 L 373.56 -29.79 Q 372.04 -26.59 370.56 -23.54 Q 369.08 -20.5 367.88 -17.86 L 367.88 -17.86 Q 366.68 -11.77 364.12 -2.96 L 364.12 -2.96 Z M 397.35 -2.24 L 382.61 0.08 Q 389.1 -30.35 391.34 -47.57 L 391.34 -47.57 Q 389.9 -47.73 388.46 -47.73 L 388.46 -47.73 L 387.5 -47.73 Q 387.26 -47.73 387.02 -47.73 L 387.02 -47.73 L 383.65 -48.21 L 384.05 -58.7 Q 388.22 -58.38 392.46 -58.38 L 392.46 -58.38 Q 403.67 -58.38 414.32 -59.74 L 414.32 -59.74 L 413.44 -55.33 Q 413.04 -53.49 412.68 -51.53 Q 412.32 -49.57 412 -48.13 L 412 -48.13 Q 410.16 -47.65 408.32 -47.45 Q 406.48 -47.25 404.71 -46.93 L 404.71 -46.93 Q 403.27 -40.76 401.83 -31.63 L 401.83 -31.63 Q 398.63 -11.45 397.35 -2.24 L 397.35 -2.24 Z M 418.25 -2.48 L 405.6 0.16 Q 414.16 -41.96 416.01 -59.9 L 416.01 -59.9 Q 423.69 -59.26 429.3 -59.26 L 429.3 -59.26 Q 425.38 -42.6 424.09 -35.88 L 424.09 -35.88 L 432.18 -36.84 Q 433.3 -42.6 434.22 -48.09 Q 435.14 -53.57 436.59 -59.34 L 436.59 -59.34 Q 439.79 -59.9 443.39 -60.18 Q 447 -60.46 448.36 -60.54 L 448.36 -60.54 L 449.72 -60.7 Q 445.79 -47.89 442.03 -24.74 L 442.03 -24.74 Q 440.19 -14.33 438.67 -3.44 L 438.67 -3.44 L 425.86 -2 Q 426.9 -6.89 427.74 -11.21 Q 428.58 -15.54 429.42 -19.78 Q 430.26 -24.02 430.82 -27.07 L 430.82 -27.07 L 422.81 -26.35 Q 420.97 -16.18 418.25 -2.48 L 418.25 -2.48 Z M 440.67 -0.08 L 440.67 -0.08 Q 443.23 -9.37 445.39 -20.34 L 445.39 -20.34 Q 450.36 -45.4 452.44 -57.42 L 452.44 -57.42 L 465.25 -59.42 Q 456.13 -12.97 454.12 -1.6 L 454.12 -1.6 Q 451.88 -1.6 446.36 -0.88 Q 440.83 -0.16 440.67 -0.08 Z M 469.98 -2.4 L 457.97 0.4 Q 467.1 -43.08 468.62 -60.14 L 468.62 -60.14 Q 469.74 -60.06 470.46 -60.06 L 470.46 -60.06 L 472.78 -60.06 Q 474.38 -60.06 481.75 -60.38 L 481.75 -60.38 Q 482.87 -54.61 483.83 -49.65 L 483.83 -49.65 Q 486.39 -35.39 487.36 -31.31 L 487.36 -31.31 Q 487.68 -32.99 488.08 -35.15 Q 488.48 -37.32 488.96 -39.68 Q 489.44 -42.04 489.92 -44.52 L 489.92 -44.52 Q 490.72 -48.45 493.2 -60.3 L 493.2 -60.3 L 503.21 -61.5 Q 494.48 -21.06 492.32 -3.44 L 492.32 -3.44 Q 491.36 -3.44 485.71 -2.08 Q 480.07 -0.72 478.95 -0.32 L 478.95 -0.32 Q 477.35 -22.26 475.42 -31.39 L 475.42 -31.39 Q 475.18 -29.87 474.78 -27.83 Q 474.38 -25.79 473.98 -23.46 L 473.98 -23.46 Q 472.46 -14.73 469.98 -2.4 L 469.98 -2.4 Z M 502.41 -3.36 Q 498.09 -9.13 498.09 -19.58 Q 498.09 -30.03 501.13 -37.88 Q 504.17 -45.72 508.78 -50.97 Q 513.38 -56.21 518.71 -58.78 Q 524.03 -61.34 527.96 -61.34 Q 531.88 -61.34 534.28 -60.18 Q 536.68 -59.02 538.21 -57.1 L 538.21 -57.1 Q 541.25 -53.41 541.25 -47.17 L 541.25 -47.17 L 529.96 -45 Q 528.6 -51.09 525.23 -51.09 L 525.23 -51.09 Q 523.15 -51.09 520.71 -48.17 Q 518.27 -45.24 516.1 -40.68 L 516.1 -40.68 Q 511.22 -30.03 510.9 -19.78 L 510.9 -19.78 Q 510.9 -14.65 512.42 -12.49 Q 513.94 -10.33 515.94 -10.33 Q 517.95 -10.33 519.71 -11.17 Q 521.47 -12.01 522.83 -13.45 L 522.83 -13.45 Q 526.03 -16.82 526.19 -21.38 L 526.19 -21.38 L 517.46 -20.1 L 518.99 -28.19 Q 530.28 -29.63 539.25 -31.23 L 539.25 -31.23 Q 538.69 -22.9 535.96 -16.7 Q 533.24 -10.49 529.44 -6.33 Q 525.63 -2.16 521.23 -0.08 Q 516.82 2 513.34 2 Q 509.86 2 507.13 0.68 Q 504.41 -0.64 502.41 -3.36 L 502.41 -3.36 Z M 535.24 -5.85 L 535.24 -5.85 Q 535.24 -11.05 539.81 -13.21 L 539.81 -13.21 Q 541.33 -13.93 543.41 -13.93 L 543.41 -13.93 Q 548.21 -13.93 550.58 -11.69 Q 552.94 -9.45 552.94 -6.57 L 552.94 -6.57 Q 552.94 -3.12 550.3 -0.72 L 550.3 -0.72 Q 547.33 1.92 542.85 1.92 L 542.85 1.92 Q 540.69 1.92 539.33 1.24 Q 537.96 0.56 537.08 -0.48 L 537.08 -0.48 Q 535.24 -2.8 535.24 -5.85 Z M 542.61 -18.98 L 542.61 -18.98 Q 545.17 -28.99 547.57 -39 Q 549.98 -49.01 552.62 -59.1 L 552.62 -59.1 Q 554.14 -59.34 556.18 -59.62 Q 558.22 -59.9 560.27 -60.22 Q 562.31 -60.54 564.23 -60.78 Q 566.15 -61.02 567.43 -61.26 L 567.43 -61.26 Q 563.03 -50.93 559.39 -40.48 Q 555.74 -30.03 552.14 -19.46 L 552.14 -19.46 Q 549.74 -19.46 547.37 -19.3 Q 545.01 -19.14 542.61 -18.98 Z" stroke-linecap="round" />
</g>
</g>
</g>
<g transform="matrix(3.6055711507171972 0 0 3.6055711507171972 629.1088267064364 594.8704534588861)" id="shape-9fb3cac0-3541-4ec5-b502-975f25b7f308"  >
<g style=""  paint-order="stroke"   >
		<g transform="matrix(1 0 0 1 0 8.8818e-16)" id="path-01_00000052793575798338509190000012451360716198163874_"  >
<polygon style="stroke: none; stroke-width: 1; stroke-dasharray: none; stroke-linecap: butt; stroke-dashoffset: 0; stroke-linejoin: miter; stroke-miterlimit: 4; fill: rgb(107,39,100); fill-rule: nonzero; opacity: 1;"  paint-order="stroke"  points="150,-3.520279999999999 97.60096999999999,-3.520279999999999 96.08755,-3.520279999999999 94.57414,-3.520279999999999 94.57414,-0.20278999999999936 87.72140999999999,-7.245679999999999 87.72140999999999,0.49382000000000037 36.836780000000005,0.49382000000000037 36.836780000000005,-7.2480199999999995 29.98304999999999,-0.2051299999999996 29.98304999999999,-3.5226199999999994 26.956220000000002,-3.5226199999999994 26.956220000000002,-3.520279999999999 -25.442809999999994,-3.520279999999999 -26.956220000000002,-3.520279999999999 -28.46964,-3.520279999999999 -28.46964,-0.20278999999999936 -35.32237000000001,-7.245679999999999 -35.32237000000001,0.49382000000000037 -86.207,0.49382000000000037 -86.207,-7.2480199999999995 -93.06072,-0.2051299999999996 -93.06072,-3.5226199999999994 -96.08755,-3.5226199999999994 -96.08755,-3.520279999999999 -150,-3.520279999999999 -150,-0.4934499999999993 -96.08755,-0.4934499999999993 -96.08755,7.24568 -89.23383,0.20279000000000025 -89.23383,3.5202800000000014 -87.72041999999999,3.5202800000000014 -87.72041999999999,3.52065 -35.32237000000001,3.52065 -35.32237000000001,3.52262 -32.29554,3.52262 -32.29554,0.20513000000000048 -25.442809999999994,7.24802 -25.442809999999994,-0.4934499999999993 26.956220000000002,-0.4934499999999993 26.956220000000002,7.24568 33.80994000000001,0.20279000000000025 33.80994000000001,3.5202800000000014 35.32336000000001,3.5202800000000014 35.32336000000001,3.52065 87.72140999999999,3.52065 87.72140999999999,3.52262 90.74823,3.52262 90.74823,0.20513000000000048 97.60096999999999,7.24802 97.60096999999999,-0.4934499999999993 150,-0.4934499999999993 " />
</g>
</g>
</g>
</svg>